<svg width="500" height="365" viewBox="0 0 500 365" fill="none" xmlns="http://www.w3.org/2000/svg">
<g clip-path="url(#clip0_1356_166378)">
<path d="M0 16.3516C0 7.51501 7.16344 0.351562 16 0.351562H484C492.837 0.351562 500 7.51501 500 16.3516V348.352C500 357.188 492.837 364.352 484 364.352H16C7.16345 364.352 0 357.188 0 348.352V16.3516Z" fill="url(#paint0_linear_1356_166378)" fill-opacity="0.2"/>
<path d="M0 16.3516C0 7.51501 7.16344 0.351562 16 0.351562H484C492.837 0.351562 500 7.51501 500 16.3516V348.352C500 357.188 492.837 364.352 484 364.352H16C7.16345 364.352 0 357.188 0 348.352V16.3516Z" fill="url(#paint1_linear_1356_166378)"/>
<path d="M20 43.946C20 35.6872 20 31.5578 21.6073 28.4033C23.0211 25.6286 25.277 23.3726 28.0518 21.9588C31.2062 20.3516 35.3356 20.3516 43.5945 20.3516H1028.66C1036.92 20.3516 1041.05 20.3516 1044.21 21.9588C1046.98 23.3726 1049.24 25.6286 1050.65 28.4033C1052.26 31.5578 1052.26 35.6872 1052.26 43.946V398.476C1052.26 406.735 1052.26 410.864 1050.65 414.019C1049.24 416.793 1046.98 419.049 1044.21 420.463C1041.05 422.07 1036.92 422.07 1028.66 422.07H43.5945C35.3356 422.07 31.2062 422.07 28.0518 420.463C25.277 419.049 23.0211 416.793 21.6073 414.019C20 410.864 20 406.735 20 398.476V43.946Z" fill="url(#paint2_linear_1356_166378)"/>
<path d="M43.5947 20.8125H1028.66C1032.8 20.8125 1035.88 20.8127 1038.31 21.0117C1040.74 21.2103 1042.5 21.6041 1044 22.3691C1046.69 23.7388 1048.87 25.9243 1050.24 28.6123C1051.01 30.1137 1051.4 31.8674 1051.6 34.2979C1051.8 36.7337 1051.8 39.8093 1051.8 43.9463V398.476C1051.8 402.613 1051.8 405.688 1051.6 408.124C1051.4 410.554 1051.01 412.308 1050.24 413.81C1048.87 416.498 1046.69 418.683 1044 420.053C1042.5 420.818 1040.74 421.212 1038.31 421.41C1035.88 421.609 1032.8 421.609 1028.66 421.609H43.5947C39.4577 421.609 36.3822 421.609 33.9463 421.41C31.5159 421.212 29.7621 420.818 28.2607 420.053C25.5728 418.683 23.3872 416.498 22.0176 413.81C21.2526 412.308 20.8587 410.554 20.6602 408.124C20.4611 405.688 20.4609 402.613 20.4609 398.476V43.9463C20.4609 39.8093 20.4611 36.7337 20.6602 34.2979C20.8587 31.8674 21.2526 30.1137 22.0176 28.6123C23.3872 25.9243 25.5728 23.7388 28.2607 22.3691C29.7621 21.6041 31.5159 21.2103 33.9463 21.0117C36.3822 20.8127 39.4577 20.8125 43.5947 20.8125Z" stroke="white" stroke-opacity="0.05" stroke-width="0.921659"/>
<rect x="38.4336" y="38.7852" width="25.8064" height="25.8064" rx="6.2724" fill="url(#paint3_linear_1356_166378)" fill-opacity="0.7"/>
<path d="M54.0238 51.6882C54.0238 53.1728 52.8203 54.3763 51.3356 54.3763C49.851 54.3763 48.6475 53.1728 48.6475 51.6882C48.6475 50.2035 49.851 49 51.3356 49" stroke="url(#paint4_linear_1356_166378)" stroke-width="0.806451" stroke-linecap="round"/>
<path d="M52.4106 46.42C52.0632 46.3495 51.7036 46.3125 51.3353 46.3125C48.3661 46.3125 45.959 48.7196 45.959 51.6888C45.959 54.6581 48.3661 57.0652 51.3353 57.0652C54.3046 57.0652 56.7117 54.6581 56.7117 51.6888C56.7117 51.3206 56.6746 50.961 56.6041 50.6136" stroke="url(#paint5_linear_1356_166378)" stroke-width="0.806451" stroke-linecap="round"/>
<path d="M51.3525 51.6673L53.8003 49.2195M55.4978 47.5716L55.2004 46.5033C55.1455 46.3273 54.9338 46.2571 54.7911 46.3738C54.019 47.0047 53.1779 47.8546 53.8648 49.1951C55.2487 49.8404 56.0387 48.9701 56.6445 48.2387C56.765 48.0931 56.6924 47.8744 56.5108 47.8219L55.4978 47.5716Z" stroke="url(#paint6_linear_1356_166378)" stroke-width="0.806451" stroke-linecap="round" stroke-linejoin="round"/>
<path d="M73.2944 53.7852H71.7902L75.6833 43.1234H77.2907L81.1985 53.7852H79.6796L78.7211 51.1308H74.2382L73.2944 53.7852ZM76.3027 45.4239L74.6806 49.8773H78.2935L76.6566 45.4239C76.5829 45.2174 76.5091 44.9667 76.4796 44.8045C76.4501 44.952 76.3764 45.2027 76.3027 45.4239ZM83.9725 43.1234V53.7852H82.5273V43.1234H83.9725ZM94.738 53.9474C91.7003 53.9474 89.68 51.7649 89.68 48.4617C89.68 45.1732 91.7592 42.9464 94.8118 42.9464C97.2155 42.9464 99.0588 44.3769 99.4569 46.5594H97.9086C97.5104 45.1732 96.3159 44.3326 94.7675 44.3326C92.6145 44.3326 91.1989 45.9547 91.1989 48.4469C91.1989 50.9391 92.6145 52.5612 94.7675 52.5612C96.3307 52.5612 97.5694 51.7206 97.9675 50.4082H99.5012C99.044 52.5317 97.1417 53.9474 94.738 53.9474ZM100.477 50.1723C100.477 47.9455 102.069 46.3824 104.237 46.3824C106.39 46.3824 107.983 47.9455 107.983 50.1723C107.983 52.399 106.39 53.9621 104.237 53.9621C102.069 53.9621 100.477 52.399 100.477 50.1723ZM101.878 50.1723C101.878 51.6764 102.836 52.7234 104.237 52.7234C105.623 52.7234 106.597 51.6764 106.597 50.1723C106.597 48.6681 105.623 47.6211 104.237 47.6211C102.836 47.6211 101.878 48.6681 101.878 50.1723ZM110.815 53.7852H109.429V46.5741H110.682L110.83 47.6801C111.287 46.8543 112.201 46.3676 113.219 46.3676C115.121 46.3676 115.991 47.5326 115.991 49.3759V53.7852H114.605V49.6856C114.605 48.2257 113.927 47.6358 112.865 47.6358C111.567 47.6358 110.815 48.5649 110.815 49.9658V53.7852ZM119.858 53.7852H118.471V47.7391H117.056V46.5741H118.471V44.3179H119.858V46.5741H121.273V47.7391H119.858V53.7852ZM126.558 46.5151V47.7833H125.938C124.626 47.7833 123.815 48.5796 123.815 49.9658V53.7852H122.429V46.5888H123.726L123.815 47.6801C124.11 46.928 124.832 46.4266 125.82 46.4266C126.071 46.4266 126.278 46.4561 126.558 46.5151ZM127.038 50.1723C127.038 47.9455 128.631 46.3824 130.799 46.3824C132.952 46.3824 134.544 47.9455 134.544 50.1723C134.544 52.399 132.952 53.9621 130.799 53.9621C128.631 53.9621 127.038 52.399 127.038 50.1723ZM128.439 50.1723C128.439 51.6764 129.398 52.7234 130.799 52.7234C132.185 52.7234 133.158 51.6764 133.158 50.1723C133.158 48.6681 132.185 47.6211 130.799 47.6211C129.398 47.6211 128.439 48.6681 128.439 50.1723ZM137.406 53.7852H136.02V42.9317H137.406V53.7852ZM147.681 49.9805H144.983V53.7852H143.538V43.1234H147.681C149.775 43.1234 151.117 44.4948 151.117 46.5446C151.117 48.5354 149.761 49.9805 147.681 49.9805ZM147.431 44.4211H144.983V48.6829H147.372C148.802 48.6829 149.599 47.8423 149.599 46.5299C149.599 45.1879 148.787 44.4211 147.431 44.4211ZM154.251 53.9621C152.702 53.9621 151.788 53.0921 151.788 51.7796C151.788 50.4524 152.776 49.6266 154.472 49.4939L156.743 49.317V49.1105C156.743 47.9013 156.02 47.4736 155.047 47.4736C153.882 47.4736 153.218 47.9898 153.218 48.8598H152.009C152.009 47.3557 153.248 46.3676 155.106 46.3676C156.89 46.3676 158.099 47.3114 158.099 49.258V53.7852H156.92L156.772 52.6202C156.404 53.446 155.416 53.9621 154.251 53.9621ZM154.649 52.8856C155.961 52.8856 156.758 52.0303 156.758 50.6736V50.2902L154.914 50.4377C153.69 50.5557 153.189 51.0276 153.189 51.7354C153.189 52.5022 153.749 52.8856 154.649 52.8856ZM161.317 53.7852H159.931V46.5741H161.184L161.332 47.6801C161.789 46.8543 162.703 46.3676 163.721 46.3676C165.623 46.3676 166.493 47.5326 166.493 49.3759V53.7852H165.107V49.6856C165.107 48.2257 164.428 47.6358 163.367 47.6358C162.069 47.6358 161.317 48.5649 161.317 49.9658V53.7852ZM171.436 53.9621C169.312 53.9621 167.852 52.4285 167.852 50.187C167.852 47.9308 169.283 46.3676 171.377 46.3676C173.427 46.3676 174.769 47.7833 174.769 49.9216V50.4377L169.194 50.4524C169.298 51.9713 170.094 52.8119 171.465 52.8119C172.542 52.8119 173.25 52.3695 173.486 51.5437H174.783C174.429 53.0921 173.22 53.9621 171.436 53.9621ZM171.377 47.5326C170.168 47.5326 169.401 48.2552 169.224 49.5234H173.382C173.382 48.3289 172.601 47.5326 171.377 47.5326ZM177.644 53.7852H176.258V42.9317H177.644V53.7852Z" fill="white"/>
<path d="M75.2778 74.4727L71.7423 65.2339H72.7359L75.2004 71.6598C75.3939 72.163 75.5746 72.6662 75.781 73.3114C75.9746 72.6404 76.2068 71.9952 76.3488 71.6469L78.8004 65.2339H79.7552L76.2455 74.4727H75.2778ZM80.9891 66.5114C80.6278 66.5114 80.331 66.2146 80.331 65.8533C80.331 65.492 80.6278 65.1823 80.9891 65.1823C81.3504 65.1823 81.6601 65.492 81.6601 65.8533C81.6601 66.2146 81.3504 66.5114 80.9891 66.5114ZM80.5504 74.4727V68.2275H81.4407V74.4727H80.5504ZM85.6586 74.6275C83.8264 74.6275 82.6006 73.3114 82.6006 71.3501C82.6006 69.4017 83.8135 68.0598 85.5941 68.0598C87.2844 68.0598 88.4328 69.2598 88.4328 71.0275V71.4662H83.4651C83.5296 72.9888 84.3296 73.8662 85.6715 73.8662C86.6909 73.8662 87.349 73.4275 87.5812 72.6017H88.4328C88.0974 73.9178 87.1296 74.6275 85.6586 74.6275ZM85.5941 68.821C84.4199 68.821 83.6457 69.5952 83.4909 70.821H87.5425C87.5425 69.621 86.7683 68.821 85.5941 68.821ZM90.7506 74.4727L88.6861 68.2275H89.6022L90.828 71.9952C90.9699 72.4081 91.0861 72.8339 91.2151 73.3372C91.3183 72.8339 91.5248 72.2017 91.5893 71.9952L92.828 68.2275H93.7441L94.9699 71.9952C95.0861 72.3307 95.2409 72.8727 95.357 73.3372C95.4861 72.821 95.5119 72.6662 95.7312 71.9952L96.9699 68.2275H97.899L95.7828 74.4727H94.9183L93.628 70.5501C93.4732 70.0856 93.3699 69.6985 93.2925 69.3243C93.2022 69.6598 93.099 70.0339 92.9312 70.5501L91.6409 74.4727H90.7506ZM103.867 74.6275C102.538 74.6275 101.751 73.8791 101.751 72.7823C101.751 71.6339 102.628 70.9114 104.086 70.7952L106.151 70.6275V70.421C106.151 69.1952 105.415 68.8081 104.499 68.8081C103.415 68.8081 102.77 69.2985 102.77 70.1372H101.957C101.957 68.8727 102.99 68.0598 104.525 68.0598C105.97 68.0598 107.028 68.7823 107.028 70.4339V74.4727H106.28L106.164 73.3759C105.777 74.163 104.925 74.6275 103.867 74.6275ZM104.074 73.9049C105.39 73.9049 106.151 72.9888 106.151 71.6339V71.2985L104.306 71.4404C103.132 71.5436 102.654 72.0598 102.654 72.7565C102.654 73.5178 103.222 73.9049 104.074 73.9049ZM109.447 74.4727H108.557V68.2275H109.331L109.46 69.3114C109.873 68.5114 110.699 68.0598 111.602 68.0598C113.318 68.0598 114.028 69.0791 114.028 70.6533V74.4727H113.138V70.8469C113.138 69.3888 112.48 68.8727 111.447 68.8727C110.17 68.8727 109.447 69.8017 109.447 71.2081V74.4727ZM117.996 74.6275C116.177 74.6275 115.106 73.2339 115.106 71.363C115.106 69.4791 116.177 68.0598 118.035 68.0598C119.067 68.0598 119.893 68.5114 120.331 69.4146V65.0662H121.222V74.4727H120.448L120.357 73.1952C119.919 74.163 119.041 74.6275 117.996 74.6275ZM118.151 73.8146C119.519 73.8146 120.319 72.7823 120.319 71.3372C120.319 69.9049 119.519 68.8598 118.151 68.8598C116.796 68.8598 116.009 69.9049 116.009 71.3372C116.009 72.7823 116.796 73.8146 118.151 73.8146ZM125.703 71.363C125.703 69.4017 126.903 68.0598 128.723 68.0598C130.168 68.0598 131.226 68.8985 131.471 70.1888H130.581C130.349 69.3243 129.6 68.8469 128.736 68.8469C127.471 68.8469 126.581 69.8146 126.581 71.3501C126.581 72.8339 127.407 73.8275 128.671 73.8275C129.6 73.8275 130.349 73.3114 130.594 72.5114H131.497C131.2 73.7888 130.09 74.6275 128.671 74.6275C126.903 74.6275 125.703 73.3243 125.703 71.363ZM136.975 68.2275H137.865V74.4727H137.091L136.975 73.4146C136.626 74.1372 135.762 74.6275 134.781 74.6275C133.31 74.6275 132.51 73.621 132.51 72.0985V68.2146H133.413V71.8146C133.413 73.2985 134.072 73.8275 135.065 73.8275C136.265 73.8275 136.975 73.0275 136.975 71.5436V68.2275ZM138.807 72.7178H139.658C139.658 73.4404 140.2 73.892 141.078 73.892C142.045 73.892 142.613 73.4791 142.613 72.8081C142.613 72.292 142.355 71.9952 141.62 71.8146L140.549 71.5436C139.465 71.2727 138.936 70.7049 138.936 69.8533C138.936 68.7565 139.852 68.0598 141.194 68.0598C142.51 68.0598 143.361 68.7823 143.4 69.9436H142.536C142.51 69.221 142.007 68.7952 141.168 68.7952C140.29 68.7952 139.8 69.1694 139.8 69.8404C139.8 70.3178 140.136 70.6533 140.82 70.821L141.89 71.092C142.974 71.363 143.465 71.8662 143.465 72.7694C143.465 73.892 142.51 74.6275 141.09 74.6275C139.684 74.6275 138.807 73.8791 138.807 72.7178ZM146.105 74.4727H145.227V68.9759H143.976V68.2275H145.227V66.2533H146.105V68.2275H147.356V68.9759H146.105V74.4727ZM147.756 71.3501C147.756 69.4404 149.098 68.0598 150.93 68.0598C152.762 68.0598 154.104 69.4404 154.104 71.3501C154.104 73.2468 152.762 74.6275 150.93 74.6275C149.098 74.6275 147.756 73.2468 147.756 71.3501ZM148.659 71.3372C148.659 72.8081 149.588 73.8275 150.93 73.8275C152.259 73.8275 153.201 72.8081 153.201 71.3372C153.201 69.892 152.259 68.8598 150.93 68.8598C149.588 68.8598 148.659 69.892 148.659 71.3372ZM156.16 74.4727H155.27V68.2275H156.044L156.148 69.1178C156.457 68.4598 157.154 68.0598 158.031 68.0598C159.012 68.0598 159.748 68.5759 160.044 69.3888C160.328 68.5759 161.089 68.0598 162.096 68.0598C163.451 68.0598 164.341 68.9372 164.341 70.3823V74.4727H163.477V70.563C163.477 69.492 162.883 68.8598 161.928 68.8598C160.883 68.8598 160.264 69.6469 160.264 70.6146V74.4727H159.386V70.5501C159.386 69.492 158.78 68.8727 157.838 68.8727C156.793 68.8727 156.16 69.6469 156.16 70.6017V74.4727ZM166.313 66.5114C165.951 66.5114 165.655 66.2146 165.655 65.8533C165.655 65.492 165.951 65.1823 166.313 65.1823C166.674 65.1823 166.984 65.492 166.984 65.8533C166.984 66.2146 166.674 66.5114 166.313 66.5114ZM165.874 74.4727V68.2275H166.764V74.4727H165.874ZM172.647 74.4727H167.937V73.763L171.55 68.9759H167.937V68.2275H172.647V68.9501L169.021 73.7243H172.647V74.4727ZM176.243 74.6275C174.411 74.6275 173.185 73.3114 173.185 71.3501C173.185 69.4017 174.398 68.0598 176.179 68.0598C177.869 68.0598 179.017 69.2598 179.017 71.0275V71.4662H174.05C174.114 72.9888 174.914 73.8662 176.256 73.8662C177.276 73.8662 177.934 73.4275 178.166 72.6017H179.017C178.682 73.9178 177.714 74.6275 176.243 74.6275ZM176.179 68.821C175.005 68.821 174.23 69.5952 174.076 70.821H178.127C178.127 69.621 177.353 68.821 176.179 68.821ZM182.871 77.1952V76.4598H183.555C184.097 76.4598 184.639 76.421 184.949 75.5823L185.22 74.8468L182.691 68.2275H183.633L185.645 73.6727L187.62 68.2275H188.536L185.671 75.9049C185.31 76.8856 184.703 77.2856 183.813 77.2856C183.439 77.2856 183.155 77.2598 182.871 77.1952ZM188.666 71.3501C188.666 69.4404 190.008 68.0598 191.84 68.0598C193.673 68.0598 195.014 69.4404 195.014 71.3501C195.014 73.2468 193.673 74.6275 191.84 74.6275C190.008 74.6275 188.666 73.2468 188.666 71.3501ZM189.569 71.3372C189.569 72.8081 190.498 73.8275 191.84 73.8275C193.169 73.8275 194.111 72.8081 194.111 71.3372C194.111 69.892 193.169 68.8598 191.84 68.8598C190.498 68.8598 189.569 69.892 189.569 71.3372ZM200.416 68.2275H201.307V74.4727H200.532L200.416 73.4146C200.068 74.1372 199.203 74.6275 198.223 74.6275C196.752 74.6275 195.952 73.621 195.952 72.0985V68.2146H196.855V71.8146C196.855 73.2985 197.513 73.8275 198.507 73.8275C199.707 73.8275 200.416 73.0275 200.416 71.5436V68.2275ZM206.168 68.1501V68.9501H205.677C204.529 68.9501 203.793 69.7243 203.793 70.9114V74.4727H202.903V68.2275H203.742L203.806 69.1952C204.052 68.5243 204.71 68.0856 205.587 68.0856C205.781 68.0856 205.948 68.0985 206.168 68.1501ZM210.607 74.4727H209.665L213.059 65.2339H214.207L217.64 74.4727H216.672L215.769 72.021H211.511L210.607 74.4727ZM213.511 66.5372L211.794 71.2081H215.472L213.743 66.5372C213.704 66.4081 213.64 66.2533 213.627 66.163C213.614 66.2404 213.562 66.4081 213.511 66.5372ZM219.595 65.2339V74.4727H218.666V65.2339H219.595ZM223.936 66.0856V65.2339H230.555V66.0856H227.704V74.4727H226.775V66.0856H223.936ZM233.878 68.1501V68.9501H233.388C232.24 68.9501 231.504 69.7243 231.504 70.9114V74.4727H230.614V68.2275H231.453L231.517 69.1952C231.762 68.5243 232.42 68.0856 233.298 68.0856C233.491 68.0856 233.659 68.0985 233.878 68.1501ZM236.345 74.6275C235.016 74.6275 234.229 73.8791 234.229 72.7823C234.229 71.6339 235.107 70.9114 236.565 70.7952L238.629 70.6275V70.421C238.629 69.1952 237.894 68.8081 236.978 68.8081C235.894 68.8081 235.249 69.2985 235.249 70.1372H234.436C234.436 68.8727 235.468 68.0598 237.003 68.0598C238.449 68.0598 239.507 68.7823 239.507 70.4339V74.4727H238.758L238.642 73.3759C238.255 74.163 237.403 74.6275 236.345 74.6275ZM236.552 73.9049C237.868 73.9049 238.629 72.9888 238.629 71.6339V71.2985L236.784 71.4404C235.61 71.5436 235.132 72.0598 235.132 72.7565C235.132 73.5178 235.7 73.9049 236.552 73.9049ZM243.487 74.6275C241.667 74.6275 240.597 73.2339 240.597 71.363C240.597 69.4791 241.667 68.0598 243.526 68.0598C244.558 68.0598 245.384 68.5114 245.822 69.4146V65.0662H246.713V74.4727H245.938L245.848 73.1952C245.409 74.163 244.532 74.6275 243.487 74.6275ZM243.642 73.8146C245.009 73.8146 245.809 72.7823 245.809 71.3372C245.809 69.9049 245.009 68.8598 243.642 68.8598C242.287 68.8598 241.5 69.9049 241.5 71.3372C241.5 72.7823 242.287 73.8146 243.642 73.8146ZM248.751 66.5114C248.39 66.5114 248.093 66.2146 248.093 65.8533C248.093 65.492 248.39 65.1823 248.751 65.1823C249.112 65.1823 249.422 65.492 249.422 65.8533C249.422 66.2146 249.112 66.5114 248.751 66.5114ZM248.312 74.4727V68.2275H249.203V74.4727H248.312ZM251.692 74.4727H250.801V68.2275H251.576L251.705 69.3114C252.117 68.5114 252.943 68.0598 253.847 68.0598C255.563 68.0598 256.272 69.0791 256.272 70.6533V74.4727H255.382V70.8469C255.382 69.3888 254.724 68.8727 253.692 68.8727C252.414 68.8727 251.692 69.8017 251.692 71.2081V74.4727ZM257.363 71.1694C257.363 69.4662 258.46 68.0598 260.292 68.0598C261.376 68.0598 262.202 68.563 262.602 69.4791L262.692 68.2275H263.466V74.2791C263.466 76.1372 262.279 77.3501 260.447 77.3501C258.847 77.3501 257.724 76.4468 257.479 74.9372H258.369C258.563 75.9436 259.337 76.5372 260.46 76.5372C261.737 76.5372 262.589 75.6727 262.589 74.3694V72.8856C262.163 73.763 261.298 74.2791 260.227 74.2791C258.447 74.2791 257.363 72.8727 257.363 71.1694ZM258.253 71.1565C258.253 72.4339 259.04 73.4791 260.356 73.4791C261.711 73.4791 262.511 72.4985 262.511 71.1565C262.511 69.8275 261.737 68.8469 260.369 68.8469C259.027 68.8469 258.253 69.892 258.253 71.1565ZM272.348 74.6146C269.767 74.6146 268.012 72.692 268.012 69.8533C268.012 67.0146 269.793 65.0791 272.399 65.0791C274.387 65.0791 275.948 66.2791 276.322 68.1114H275.328C274.941 66.7823 273.806 65.9694 272.361 65.9694C270.335 65.9694 268.98 67.5178 268.98 69.8533C268.98 72.1759 270.335 73.7243 272.361 73.7243C273.819 73.7243 274.98 72.9372 275.38 71.6985H276.374C275.948 73.4404 274.335 74.6146 272.348 74.6146ZM277.09 71.3501C277.09 69.4404 278.432 68.0598 280.264 68.0598C282.096 68.0598 283.438 69.4404 283.438 71.3501C283.438 73.2468 282.096 74.6275 280.264 74.6275C278.432 74.6275 277.09 73.2468 277.09 71.3501ZM277.993 71.3372C277.993 72.8081 278.922 73.8275 280.264 73.8275C281.593 73.8275 282.535 72.8081 282.535 71.3372C282.535 69.892 281.593 68.8598 280.264 68.8598C278.922 68.8598 277.993 69.892 277.993 71.3372ZM285.495 74.4727H284.604V68.2275H285.378L285.482 69.1178C285.791 68.4598 286.488 68.0598 287.366 68.0598C288.346 68.0598 289.082 68.5759 289.378 69.3888C289.662 68.5759 290.424 68.0598 291.43 68.0598C292.785 68.0598 293.675 68.9372 293.675 70.3823V74.4727H292.811V70.563C292.811 69.492 292.217 68.8598 291.262 68.8598C290.217 68.8598 289.598 69.6469 289.598 70.6146V74.4727H288.72V70.5501C288.72 69.492 288.114 68.8727 287.172 68.8727C286.127 68.8727 285.495 69.6469 285.495 70.6017V74.4727ZM295.208 77.1952V68.2275H295.982L296.073 69.492C296.511 68.5243 297.389 68.0598 298.434 68.0598C300.24 68.0598 301.324 69.4404 301.324 71.3243C301.324 73.2081 300.279 74.6275 298.434 74.6275C297.376 74.6275 296.537 74.1759 296.098 73.2727V77.1952H295.208ZM296.111 71.3501C296.111 72.7823 296.911 73.8275 298.279 73.8275C299.634 73.8275 300.421 72.7823 300.421 71.3501C300.421 69.9049 299.634 68.8727 298.279 68.8727C296.911 68.8727 296.111 69.9049 296.111 71.3501ZM304.279 74.6275C302.95 74.6275 302.163 73.8791 302.163 72.7823C302.163 71.6339 303.04 70.9114 304.498 70.7952L306.563 70.6275V70.421C306.563 69.1952 305.827 68.8081 304.911 68.8081C303.827 68.8081 303.182 69.2985 303.182 70.1372H302.369C302.369 68.8727 303.401 68.0598 304.937 68.0598C306.382 68.0598 307.44 68.7823 307.44 70.4339V74.4727H306.692L306.576 73.3759C306.189 74.163 305.337 74.6275 304.279 74.6275ZM304.485 73.9049C305.801 73.9049 306.563 72.9888 306.563 71.6339V71.2985L304.718 71.4404C303.543 71.5436 303.066 72.0598 303.066 72.7565C303.066 73.5178 303.634 73.9049 304.485 73.9049ZM309.859 74.4727H308.969V68.2275H309.743L309.872 69.3114C310.285 68.5114 311.111 68.0598 312.014 68.0598C313.73 68.0598 314.44 69.0791 314.44 70.6533V74.4727H313.549V70.8469C313.549 69.3888 312.891 68.8727 311.859 68.8727C310.582 68.8727 309.859 69.8017 309.859 71.2081V74.4727ZM316.395 66.5114C316.033 66.5114 315.737 66.2146 315.737 65.8533C315.737 65.492 316.033 65.1823 316.395 65.1823C316.756 65.1823 317.066 65.492 317.066 65.8533C317.066 66.2146 316.756 66.5114 316.395 66.5114ZM315.956 74.4727V68.2275H316.846V74.4727H315.956ZM318.006 71.3501C318.006 69.4404 319.348 68.0598 321.18 68.0598C323.013 68.0598 324.355 69.4404 324.355 71.3501C324.355 73.2468 323.013 74.6275 321.18 74.6275C319.348 74.6275 318.006 73.2468 318.006 71.3501ZM318.909 71.3372C318.909 72.8081 319.839 73.8275 321.18 73.8275C322.509 73.8275 323.451 72.8081 323.451 71.3372C323.451 69.892 322.509 68.8598 321.18 68.8598C319.839 68.8598 318.909 69.892 318.909 71.3372ZM326.411 74.4727H325.521V68.2275H326.295L326.424 69.3114C326.837 68.5114 327.663 68.0598 328.566 68.0598C330.282 68.0598 330.992 69.0791 330.992 70.6533V74.4727H330.101V70.8469C330.101 69.3888 329.443 68.8727 328.411 68.8727C327.133 68.8727 326.411 69.8017 326.411 71.2081V74.4727ZM335.829 77.1952V68.2275H336.603L336.693 69.492C337.132 68.5243 338.009 68.0598 339.054 68.0598C340.861 68.0598 341.945 69.4404 341.945 71.3243C341.945 73.2081 340.9 74.6275 339.054 74.6275C337.996 74.6275 337.158 74.1759 336.719 73.2727V77.1952H335.829ZM336.732 71.3501C336.732 72.7823 337.532 73.8275 338.9 73.8275C340.254 73.8275 341.041 72.7823 341.041 71.3501C341.041 69.9049 340.254 68.8727 338.9 68.8727C337.532 68.8727 336.732 69.9049 336.732 71.3501ZM342.667 71.3501C342.667 69.4404 344.009 68.0598 345.841 68.0598C347.674 68.0598 349.015 69.4404 349.015 71.3501C349.015 73.2468 347.674 74.6275 345.841 74.6275C344.009 74.6275 342.667 73.2468 342.667 71.3501ZM343.57 71.3372C343.57 72.8081 344.499 73.8275 345.841 73.8275C347.17 73.8275 348.112 72.8081 348.112 71.3372C348.112 69.892 347.17 68.8598 345.841 68.8598C344.499 68.8598 343.57 69.892 343.57 71.3372ZM351.22 74.4727L349.156 68.2275H350.072L351.298 71.9952C351.44 72.4081 351.556 72.8339 351.685 73.3372C351.788 72.8339 351.994 72.2017 352.059 71.9952L353.298 68.2275H354.214L355.44 71.9952C355.556 72.3307 355.711 72.8727 355.827 73.3372C355.956 72.821 355.982 72.6662 356.201 71.9952L357.44 68.2275H358.369L356.253 74.4727H355.388L354.098 70.5501C353.943 70.0856 353.84 69.6985 353.762 69.3243C353.672 69.6598 353.569 70.0339 353.401 70.5501L352.111 74.4727H351.22ZM361.565 74.6275C359.733 74.6275 358.507 73.3114 358.507 71.3501C358.507 69.4017 359.72 68.0598 361.5 68.0598C363.191 68.0598 364.339 69.2598 364.339 71.0275V71.4662H359.371C359.436 72.9888 360.236 73.8662 361.578 73.8662C362.597 73.8662 363.255 73.4275 363.487 72.6017H364.339C364.004 73.9178 363.036 74.6275 361.565 74.6275ZM361.5 68.821C360.326 68.821 359.552 69.5952 359.397 70.821H363.449C363.449 69.621 362.675 68.821 361.5 68.821ZM368.769 68.1501V68.9501H368.279C367.13 68.9501 366.395 69.7243 366.395 70.9114V74.4727H365.504V68.2275H366.343L366.408 69.1952C366.653 68.5243 367.311 68.0856 368.188 68.0856C368.382 68.0856 368.55 68.0985 368.769 68.1501ZM369.165 72.7178H370.017C370.017 73.4404 370.559 73.892 371.436 73.892C372.404 73.892 372.972 73.4791 372.972 72.8081C372.972 72.292 372.714 71.9952 371.978 71.8146L370.907 71.5436C369.824 71.2727 369.294 70.7049 369.294 69.8533C369.294 68.7565 370.211 68.0598 371.553 68.0598C372.869 68.0598 373.72 68.7823 373.759 69.9436H372.894C372.869 69.221 372.365 68.7952 371.527 68.7952C370.649 68.7952 370.159 69.1694 370.159 69.8404C370.159 70.3178 370.494 70.6533 371.178 70.821L372.249 71.092C373.333 71.363 373.824 71.8662 373.824 72.7694C373.824 73.892 372.869 74.6275 371.449 74.6275C370.043 74.6275 369.165 73.8791 369.165 72.7178Z" fill="white" fill-opacity="0.8"/>
<g clip-path="url(#clip1_1356_166378)">
<path d="M38.4336 102.435C38.4336 97.3452 42.56 93.2188 47.6502 93.2188H1024.61C1029.7 93.2188 1033.83 97.3452 1033.83 102.435V173.403C1033.83 178.493 1029.7 182.62 1024.61 182.62H47.6502C42.56 182.62 38.4336 178.493 38.4336 173.403V102.435Z" fill="white" fill-opacity="0.03"/>
<rect x="49.4932" y="112.908" width="25.8064" height="25.8064" rx="6.2724" fill="url(#paint7_linear_1356_166378)" fill-opacity="0.7"/>
<path d="M62.6654 123.66L61.3213 125.811H63.4718L62.1277 127.961" stroke="url(#paint8_linear_1356_166378)" stroke-width="0.806451" stroke-linecap="round" stroke-linejoin="round"/>
<path d="M67.2415 126.961C67.5221 126.883 67.6624 126.845 67.7178 126.771C67.7732 126.697 67.7732 126.579 67.7732 126.341V125.28C67.7732 125.043 67.7732 124.924 67.7178 124.85C67.6624 124.776 67.5221 124.738 67.2415 124.661C66.1929 124.372 65.5366 123.254 65.8072 122.191C65.8816 121.898 65.9189 121.752 65.8833 121.666C65.8478 121.581 65.7458 121.522 65.5419 121.404L64.6146 120.866C64.4145 120.75 64.3144 120.692 64.2246 120.705C64.1348 120.717 64.0335 120.82 63.8309 121.027C63.0463 121.825 61.7482 121.825 60.9637 121.026C60.7611 120.82 60.6597 120.717 60.5699 120.705C60.4801 120.692 60.3801 120.75 60.1799 120.866L59.2527 121.403C59.0487 121.522 58.9468 121.581 58.9112 121.666C58.8757 121.752 58.9129 121.898 58.9873 122.191C59.2578 123.254 58.601 124.372 57.5522 124.661C57.2716 124.738 57.1314 124.776 57.0759 124.85C57.0205 124.924 57.0205 125.043 57.0205 125.28V126.341C57.0205 126.579 57.0205 126.697 57.0759 126.771C57.1313 126.845 57.2716 126.883 57.5522 126.961C58.6008 127.249 59.2571 128.368 58.9865 129.431C58.9121 129.723 58.8748 129.869 58.9104 129.955C58.9459 130.041 59.0479 130.1 59.2518 130.218L60.1791 130.755C60.3792 130.871 60.4793 130.929 60.5691 130.917C60.6589 130.904 60.7602 130.801 60.9628 130.595C61.7478 129.796 63.0468 129.796 63.8317 130.595C64.0343 130.801 64.1356 130.904 64.2254 130.916C64.3153 130.929 64.4153 130.871 64.6155 130.755L65.5427 130.218C65.7467 130.1 65.8487 130.041 65.8842 129.955C65.9197 129.869 65.8825 129.723 65.808 129.431C65.5373 128.368 66.193 127.249 67.2415 126.961Z" stroke="url(#paint9_linear_1356_166378)" stroke-width="0.806451" stroke-linecap="round"/>
<path d="M84.354 131.811H82.8498L86.7429 121.149H88.3503L92.2581 131.811H90.7392L89.7807 129.156H85.2977L84.354 131.811ZM87.3623 123.449L85.7401 127.903H89.353L87.7162 123.449C87.6424 123.243 87.5687 122.992 87.5392 122.83C87.5097 122.977 87.436 123.228 87.3623 123.449ZM94.8256 121.149V131.811H93.3805V121.149H94.8256ZM104.898 128.006H102.199V131.811H100.754V121.149H104.898C106.992 121.149 108.334 122.52 108.334 124.57C108.334 126.561 106.977 128.006 104.898 128.006ZM104.647 122.446H102.199V126.708H104.588C106.019 126.708 106.815 125.868 106.815 124.555C106.815 123.213 106.004 122.446 104.647 122.446ZM108.637 128.198C108.637 125.971 110.23 124.408 112.397 124.408C114.55 124.408 116.143 125.971 116.143 128.198C116.143 130.424 114.55 131.988 112.397 131.988C110.23 131.988 108.637 130.424 108.637 128.198ZM110.038 128.198C110.038 129.702 110.996 130.749 112.397 130.749C113.783 130.749 114.757 129.702 114.757 128.198C114.757 126.693 113.783 125.646 112.397 125.646C110.996 125.646 110.038 126.693 110.038 128.198ZM118.6 131.811L116.24 124.599H117.671L118.865 128.345C119.027 128.876 119.175 129.422 119.307 130.056C119.425 129.422 119.617 128.817 119.779 128.345L120.989 124.599H122.404L123.599 128.345C123.717 128.699 123.953 129.54 124.071 130.056C124.189 129.481 124.321 128.979 124.528 128.345L125.737 124.599H127.182L124.719 131.811H123.407L122.153 127.947C121.918 127.224 121.77 126.664 121.696 126.266C121.623 126.62 121.49 127.092 121.224 127.962L119.971 131.811H118.6ZM130.856 131.988C128.732 131.988 127.272 130.454 127.272 128.212C127.272 125.956 128.703 124.393 130.797 124.393C132.846 124.393 134.188 125.809 134.188 127.947V128.463L128.614 128.478C128.717 129.997 129.514 130.837 130.885 130.837C131.962 130.837 132.669 130.395 132.905 129.569H134.203C133.849 131.117 132.64 131.988 130.856 131.988ZM130.797 125.558C129.587 125.558 128.821 126.281 128.644 127.549H132.802C132.802 126.354 132.021 125.558 130.797 125.558ZM139.571 124.541V125.809H138.951C137.639 125.809 136.828 126.605 136.828 127.991V131.811H135.442V124.614H136.739L136.828 125.705C137.123 124.953 137.845 124.452 138.833 124.452C139.084 124.452 139.291 124.482 139.571 124.541ZM145.994 121.149V130.469H150.684V131.811H144.549V121.149H145.994ZM154.69 131.988C152.567 131.988 151.107 130.454 151.107 128.212C151.107 125.956 152.537 124.393 154.631 124.393C156.681 124.393 158.023 125.809 158.023 127.947V128.463L152.449 128.478C152.552 129.997 153.348 130.837 154.72 130.837C155.796 130.837 156.504 130.395 156.74 129.569H158.038C157.684 131.117 156.475 131.988 154.69 131.988ZM154.631 125.558C153.422 125.558 152.655 126.281 152.478 127.549H156.637C156.637 126.354 155.855 125.558 154.631 125.558ZM161.052 131.811L158.147 124.599H159.621L161.199 128.625C161.45 129.304 161.656 129.908 161.774 130.351C161.892 129.879 162.128 129.259 162.379 128.625L163.986 124.599H165.432L162.423 131.811H161.052ZM169.02 131.988C166.896 131.988 165.436 130.454 165.436 128.212C165.436 125.956 166.867 124.393 168.961 124.393C171.011 124.393 172.353 125.809 172.353 127.947V128.463L166.778 128.478C166.882 129.997 167.678 130.837 169.049 130.837C170.126 130.837 170.834 130.395 171.07 129.569H172.367C172.013 131.117 170.804 131.988 169.02 131.988ZM168.961 125.558C167.752 125.558 166.985 126.281 166.808 127.549H170.966C170.966 126.354 170.185 125.558 168.961 125.558ZM175.022 131.811H173.635V120.957H175.022V131.811Z" fill="white"/>
<rect x="49.4932" y="151.744" width="557.604" height="7.37327" rx="3.68664" fill="white" fill-opacity="0.2"/>
<rect x="368.302" y="149.9" width="11.0599" height="11.0599" rx="5.52995" fill="white"/>
<circle cx="373.831" cy="155.431" r="2.76498" fill="#4A4A4A"/>
</g>
<path d="M47.6504 93.6797H1024.61C1029.44 93.6797 1033.36 97.5999 1033.36 102.436V173.403C1033.36 178.239 1029.44 182.159 1024.61 182.159H47.6504C42.8148 182.159 38.8947 178.239 38.8945 173.403V102.436C38.8945 97.5999 42.8147 93.6797 47.6504 93.6797Z" stroke="white" stroke-opacity="0.02" stroke-width="0.921659"/>
<rect x="49.4932" y="197.365" width="25.8064" height="25.8064" rx="6.2724" fill="url(#paint10_linear_1356_166378)" fill-opacity="0.7"/>
<g clip-path="url(#clip2_1356_166378)">
<path d="M58.0933 207.58H59.7062C59.8488 207.58 59.9855 207.524 60.0864 207.423C60.1872 207.322 60.2438 207.185 60.2438 207.043V206.505C60.2438 206.22 60.3571 205.946 60.5588 205.745C60.7604 205.543 61.0339 205.43 61.3191 205.43C61.6043 205.43 61.8778 205.543 62.0794 205.745C62.2811 205.946 62.3944 206.22 62.3944 206.505V207.043C62.3944 207.185 62.451 207.322 62.5518 207.423C62.6527 207.524 62.7894 207.58 62.932 207.58H64.5449C64.6875 207.58 64.8242 207.637 64.9251 207.738C65.0259 207.839 65.0825 207.975 65.0825 208.118V209.731C65.0825 209.873 65.1392 210.01 65.24 210.111C65.3408 210.212 65.4776 210.268 65.6202 210.268H66.1578C66.443 210.268 66.7165 210.382 66.9181 210.583C67.1198 210.785 67.2331 211.058 67.2331 211.344C67.2331 211.629 67.1198 211.902 66.9181 212.104C66.7165 212.306 66.443 212.419 66.1578 212.419H65.6202C65.4776 212.419 65.3408 212.476 65.24 212.576C65.1392 212.677 65.0825 212.814 65.0825 212.957V214.569C65.0825 214.712 65.0259 214.849 64.9251 214.95C64.8242 215.05 64.6875 215.107 64.5449 215.107H62.932C62.7894 215.107 62.6527 215.05 62.5518 214.95C62.451 214.849 62.3944 214.712 62.3944 214.569V214.032C62.3944 213.747 62.2811 213.473 62.0794 213.272C61.8778 213.07 61.6043 212.957 61.3191 212.957C61.0339 212.957 60.7604 213.07 60.5588 213.272C60.3571 213.473 60.2438 213.747 60.2438 214.032V214.569C60.2438 214.712 60.1872 214.849 60.0864 214.95C59.9855 215.05 59.8488 215.107 59.7062 215.107H58.0933C57.9507 215.107 57.814 215.05 57.7131 214.95C57.6123 214.849 57.5557 214.712 57.5557 214.569V212.957C57.5557 212.814 57.6123 212.677 57.7131 212.576C57.814 212.476 57.9507 212.419 58.0933 212.419H58.6309C58.9161 212.419 59.1896 212.306 59.3913 212.104C59.5929 211.902 59.7062 211.629 59.7062 211.344C59.7062 211.058 59.5929 210.785 59.3913 210.583C59.1896 210.382 58.9161 210.268 58.6309 210.268H58.0933C57.9507 210.268 57.814 210.212 57.7131 210.111C57.6123 210.01 57.5557 209.873 57.5557 209.731V208.118C57.5557 207.975 57.6123 207.839 57.7131 207.738C57.814 207.637 57.9507 207.58 58.0933 207.58Z" stroke="#3EDC81" stroke-width="1.15207" stroke-linecap="round" stroke-linejoin="round"/>
</g>
<path d="M84.354 216.268H82.8498L86.7429 205.606H88.3503L92.2581 216.268H90.7392L89.7807 213.613H85.2977L84.354 216.268ZM87.3623 207.906L85.7401 212.36H89.353L87.7162 207.906C87.6424 207.7 87.5687 207.449 87.5392 207.287C87.5097 207.434 87.436 207.685 87.3623 207.906ZM92.399 212.669C92.399 210.413 93.8294 208.85 95.9382 208.85C97.752 208.85 99.0202 209.882 99.2709 211.49H97.8847C97.6488 210.575 96.9114 210.089 95.9824 210.089C94.67 210.089 93.7704 211.092 93.7704 212.655C93.7704 214.203 94.611 215.206 95.9234 215.206C96.9114 215.206 97.6488 214.69 97.8995 213.834H99.2856C99.0055 215.398 97.6635 216.445 95.9234 216.445C93.7999 216.445 92.399 214.94 92.399 212.669ZM102.488 216.268H101.102V210.221H99.6864V209.057H101.102V206.8H102.488V209.057H103.904V210.221H102.488V216.268ZM105.531 207.346C105.03 207.346 104.617 206.933 104.617 206.432C104.617 205.916 105.03 205.517 105.531 205.517C106.033 205.517 106.446 205.916 106.446 206.432C106.446 206.933 106.033 207.346 105.531 207.346ZM104.853 216.268V209.057H106.239V216.268H104.853ZM109.977 216.268L107.072 209.057H108.547L110.124 213.082C110.375 213.761 110.582 214.365 110.7 214.808C110.818 214.336 111.053 213.716 111.304 213.082L112.912 209.057H114.357L111.348 216.268H109.977ZM117.945 216.445C115.821 216.445 114.362 214.911 114.362 212.669C114.362 210.413 115.792 208.85 117.886 208.85C119.936 208.85 121.278 210.266 121.278 212.404V212.92L115.703 212.935C115.807 214.454 116.603 215.294 117.974 215.294C119.051 215.294 119.759 214.852 119.995 214.026H121.292C120.939 215.574 119.729 216.445 117.945 216.445ZM117.886 210.015C116.677 210.015 115.91 210.738 115.733 212.006H119.892C119.892 210.811 119.11 210.015 117.886 210.015ZM126.947 216.268H125.443L129.336 205.606H130.943L134.851 216.268H133.332L132.373 213.613H127.89L126.947 216.268ZM129.955 207.906L128.333 212.36H131.946L130.309 207.906C130.235 207.7 130.161 207.449 130.132 207.287C130.102 207.434 130.029 207.685 129.955 207.906ZM138.354 216.445C136.26 216.445 134.992 214.881 134.992 212.684C134.992 210.472 136.275 208.85 138.413 208.85C139.519 208.85 140.448 209.337 140.935 210.221V205.414H142.306V216.268H141.067L140.949 214.955C140.477 215.943 139.504 216.445 138.354 216.445ZM138.634 215.191C140.05 215.191 140.92 214.144 140.92 212.64C140.92 211.165 140.05 210.104 138.634 210.104C137.218 210.104 136.393 211.165 136.393 212.64C136.393 214.129 137.218 215.191 138.634 215.191ZM146.901 216.445C144.807 216.445 143.539 214.881 143.539 212.684C143.539 210.472 144.822 208.85 146.96 208.85C148.066 208.85 148.995 209.337 149.482 210.221V205.414H150.853V216.268H149.615L149.497 214.955C149.025 215.943 148.051 216.445 146.901 216.445ZM147.181 215.191C148.597 215.191 149.467 214.144 149.467 212.64C149.467 211.165 148.597 210.104 147.181 210.104C145.766 210.104 144.94 211.165 144.94 212.64C144.94 214.129 145.766 215.191 147.181 215.191ZM152.484 212.979V211.74H156.982V212.979H152.484ZM168.465 210.929C168.465 214.174 166.341 216.445 163.318 216.445C160.31 216.445 158.216 214.174 158.216 210.929C158.216 207.7 160.325 205.414 163.333 205.414C166.356 205.414 168.465 207.685 168.465 210.929ZM166.946 210.929C166.946 208.452 165.501 206.815 163.333 206.815C161.165 206.815 159.735 208.452 159.735 210.929C159.735 213.407 161.165 215.058 163.333 215.058C165.501 215.058 166.946 213.392 166.946 210.929ZM171.168 216.268H169.782V209.057H171.036L171.183 210.163C171.64 209.337 172.555 208.85 173.572 208.85C175.474 208.85 176.344 210.015 176.344 211.858V216.268H174.958V212.168C174.958 210.708 174.28 210.118 173.218 210.118C171.92 210.118 171.168 211.047 171.168 212.448V216.268ZM177.293 214.174H178.62C178.62 214.911 179.181 215.353 180.095 215.353C181.068 215.353 181.629 214.955 181.629 214.292C181.629 213.805 181.393 213.51 180.641 213.318L179.372 213.023C178.089 212.714 177.485 212.08 177.485 211.018C177.485 209.691 178.606 208.85 180.198 208.85C181.776 208.85 182.808 209.735 182.838 211.106H181.511C181.481 210.384 180.994 209.927 180.154 209.927C179.284 209.927 178.797 210.31 178.797 210.974C178.797 211.46 179.151 211.785 179.859 211.962L181.127 212.271C182.351 212.566 182.956 213.127 182.956 214.203C182.956 215.574 181.776 216.445 180.065 216.445C178.37 216.445 177.293 215.545 177.293 214.174Z" fill="white"/>
<path d="M49.4932 256.352C49.4932 251.19 49.4932 248.609 50.4977 246.638C51.3813 244.904 52.7913 243.494 54.5255 242.61C56.497 241.605 59.0779 241.605 64.2397 241.605H125.613C130.775 241.605 133.356 241.605 135.327 242.61C137.061 243.494 138.471 244.904 139.355 246.638C140.36 248.609 140.36 251.19 140.36 256.352V260.039C140.36 265.2 140.36 267.781 139.355 269.753C138.471 271.487 137.061 272.897 135.327 273.781C133.356 274.785 130.775 274.785 125.613 274.785H64.2397C59.0779 274.785 56.497 274.785 54.5255 273.781C52.7913 272.897 51.3813 271.487 50.4977 269.753C49.4932 267.781 49.4932 265.2 49.4932 260.039V256.352Z" fill="url(#paint11_linear_1356_166378)" fill-opacity="0.5"/>
<path d="M62.2425 252.434C61.8339 252.434 61.4327 252.542 61.0798 252.748C60.727 252.954 60.4353 253.251 60.2347 253.607C60.034 253.962 59.9316 254.365 59.938 254.774C59.9444 255.182 60.0593 255.582 60.271 255.931C59.7453 256.033 59.2713 256.314 58.9305 256.727C58.5897 257.14 58.4033 257.659 58.4033 258.195C58.4033 258.73 58.5897 259.249 58.9305 259.662C59.2713 260.075 59.7453 260.356 60.271 260.458M62.2425 252.434C62.2425 251.925 62.4448 251.436 62.8049 251.076C63.165 250.716 63.6534 250.514 64.1627 250.514C64.6719 250.514 65.1603 250.716 65.5204 251.076C65.8805 251.436 66.0828 251.925 66.0828 252.434M62.2425 252.434C62.2425 253.062 62.5444 253.62 63.0106 253.97M60.271 260.458C60.0595 260.807 59.9448 261.207 59.9385 261.615C59.9322 262.023 60.0346 262.426 60.2352 262.782C60.4358 263.138 60.7275 263.434 61.0802 263.64C61.4329 263.846 61.8341 263.955 62.2425 263.955C62.2425 264.464 62.4448 264.952 62.8049 265.312C63.165 265.672 63.6534 265.875 64.1627 265.875C64.6719 265.875 65.1603 265.672 65.5204 265.312C65.8805 264.952 66.0828 264.464 66.0828 263.955M60.271 260.458C60.5466 260.001 60.9719 259.655 61.4745 259.477M66.0828 252.434V263.955M66.0828 252.434C66.0828 251.925 66.2851 251.436 66.6452 251.076C67.0053 250.716 67.4937 250.514 68.0029 250.514C68.5122 250.514 69.0005 250.716 69.3606 251.076C69.7207 251.436 69.923 251.925 69.923 252.434C70.3316 252.434 70.7329 252.542 71.0858 252.748C71.4386 252.954 71.7303 253.251 71.9309 253.607C72.1316 253.962 72.2339 254.365 72.2276 254.774C72.2212 255.182 72.1063 255.582 71.8946 255.931M66.0828 263.955C66.0828 264.464 66.2851 264.952 66.6452 265.312C67.0053 265.672 67.4937 265.875 68.0029 265.875C68.5122 265.875 69.0005 265.672 69.3606 265.312C69.7207 264.952 69.923 264.464 69.923 263.955M69.923 263.955C70.3315 263.955 70.7327 263.846 71.0854 263.64C71.4381 263.434 71.7297 263.138 71.9303 262.782C72.131 262.426 72.2334 262.023 72.2271 261.615C72.2208 261.207 72.1061 260.807 71.8946 260.458C72.4203 260.356 72.8942 260.075 73.235 259.662C73.5759 259.249 73.7623 258.73 73.7623 258.195C73.7623 257.659 73.5759 257.14 73.235 256.727C72.8942 256.314 72.4203 256.033 71.8946 255.931M69.923 263.955C69.923 263.326 69.6212 262.769 69.155 262.418M71.8946 255.931C71.6187 256.387 71.1934 256.733 70.6911 256.911" stroke="white" stroke-width="1.15207" stroke-linecap="round" stroke-linejoin="round"/>
<path d="M80.579 262.695H79.108L82.0278 254.611H83.4766L86.3965 262.695H84.9034L84.2508 260.826H81.2315L80.579 262.695ZM82.5697 257.022L81.6518 259.632H83.8416L82.9126 257.022C82.8462 256.811 82.7688 256.568 82.7467 256.402C82.7135 256.557 82.6472 256.8 82.5697 257.022ZM88.6047 254.611V262.695H87.1891V254.611H88.6047ZM93.6322 262.695H92.1613L95.0811 254.611H96.5299L99.4497 262.695H97.9567L97.3041 260.826H94.2848L93.6322 262.695ZM95.623 257.022L94.705 259.632H96.8949L95.9659 257.022C95.8995 256.811 95.8221 256.568 95.8 256.402C95.7668 256.557 95.7004 256.8 95.623 257.022ZM101.393 262.695H100.043V257.232H101.293L101.404 257.94C101.746 257.387 102.41 257.066 103.151 257.066C104.523 257.066 105.23 257.917 105.23 259.333V262.695H103.881V259.654C103.881 258.736 103.428 258.293 102.731 258.293C101.901 258.293 101.393 258.869 101.393 259.753V262.695ZM107.961 262.839C106.799 262.839 106.092 262.164 106.092 261.136C106.092 260.129 106.822 259.499 108.116 259.399L109.752 259.278V259.156C109.752 258.415 109.31 258.117 108.624 258.117C107.828 258.117 107.386 258.448 107.386 259.023H106.235C106.235 257.84 107.209 257.066 108.691 257.066C110.162 257.066 111.069 257.862 111.069 259.377V262.695H109.885L109.786 261.888C109.553 262.452 108.812 262.839 107.961 262.839ZM108.403 261.822C109.233 261.822 109.763 261.324 109.763 260.483V260.196L108.624 260.284C107.784 260.362 107.463 260.638 107.463 261.081C107.463 261.578 107.795 261.822 108.403 261.822ZM113.533 262.695H112.195V254.467H113.533V262.695ZM114.252 265.228V264.1H115.059C115.59 264.1 115.922 263.978 116.154 263.337L116.309 262.928L114.108 257.232H115.535L116.939 261.213L118.421 257.232H119.815L117.139 263.912C116.729 264.929 116.154 265.35 115.258 265.35C114.882 265.35 114.55 265.305 114.252 265.228ZM119.821 261.036H121.104C121.115 261.512 121.469 261.811 122.088 261.811C122.719 261.811 123.062 261.556 123.062 261.158C123.062 260.881 122.918 260.682 122.431 260.572L121.447 260.34C120.463 260.118 119.987 259.654 119.987 258.78C119.987 257.707 120.894 257.066 122.155 257.066C123.382 257.066 124.212 257.774 124.223 258.835H122.94C122.929 258.371 122.619 258.072 122.099 258.072C121.569 258.072 121.259 258.316 121.259 258.725C121.259 259.034 121.502 259.234 121.967 259.344L122.951 259.576C123.869 259.787 124.334 260.207 124.334 261.047C124.334 262.153 123.393 262.839 122.044 262.839C120.684 262.839 119.821 262.109 119.821 261.036ZM125.814 256.137C125.35 256.137 124.985 255.772 124.985 255.318C124.985 254.865 125.35 254.511 125.814 254.511C126.257 254.511 126.622 254.865 126.622 255.318C126.622 255.772 126.257 256.137 125.814 256.137ZM125.14 262.695V257.232H126.489V262.695H125.14ZM127.242 261.036H128.525C128.536 261.512 128.89 261.811 129.509 261.811C130.139 261.811 130.482 261.556 130.482 261.158C130.482 260.881 130.338 260.682 129.852 260.572L128.867 260.34C127.883 260.118 127.408 259.654 127.408 258.78C127.408 257.707 128.314 257.066 129.575 257.066C130.803 257.066 131.632 257.774 131.643 258.835H130.361C130.349 258.371 130.04 258.072 129.52 258.072C128.989 258.072 128.679 258.316 128.679 258.725C128.679 259.034 128.923 259.234 129.387 259.344L130.372 259.576C131.29 259.787 131.754 260.207 131.754 261.047C131.754 262.153 130.814 262.839 129.465 262.839C128.104 262.839 127.242 262.109 127.242 261.036Z" fill="white"/>
<path d="M149.576 256.352C149.576 251.19 149.576 248.609 150.581 246.638C151.464 244.904 152.874 243.494 154.609 242.61C156.58 241.605 159.161 241.605 164.323 241.605H218.696C223.858 241.605 226.439 241.605 228.41 242.61C230.144 243.494 231.554 244.904 232.438 246.638C233.443 248.609 233.443 251.19 233.443 256.352V260.039C233.443 265.2 233.443 267.781 232.438 269.753C231.554 271.487 230.144 272.897 228.41 273.781C226.439 274.785 223.858 274.785 218.696 274.785H164.323C159.161 274.785 156.58 274.785 154.609 273.781C152.874 272.897 151.464 271.487 150.581 269.753C149.576 267.781 149.576 265.2 149.576 260.039V256.352Z" fill="url(#paint12_linear_1356_166378)" fill-opacity="0.5"/>
<g clip-path="url(#clip3_1356_166378)">
<path d="M160.023 263.57H172.312" stroke="white" stroke-width="1.15207" stroke-linecap="round" stroke-linejoin="round"/>
<path d="M160.023 260.498L163.096 255.89L166.168 257.426L169.24 253.586L172.312 256.658" stroke="white" stroke-width="1.15207" stroke-linecap="round" stroke-linejoin="round"/>
</g>
<path d="M179.257 255.916V254.611H185.407V255.916H183.04V262.695H181.624V255.916H179.257ZM187.584 262.839C185.958 262.839 184.819 261.656 184.819 259.964C184.819 258.249 185.936 257.066 187.54 257.066C189.177 257.066 190.216 258.161 190.216 259.864V260.273L186.102 260.284C186.201 261.246 186.71 261.733 187.606 261.733C188.347 261.733 188.834 261.446 188.989 260.926H190.238C190.006 262.12 189.011 262.839 187.584 262.839ZM187.551 258.172C186.754 258.172 186.268 258.603 186.135 259.422H188.878C188.878 258.67 188.358 258.172 187.551 258.172ZM190.754 259.952C190.754 258.26 191.871 257.066 193.486 257.066C194.979 257.066 195.997 257.895 196.14 259.211H194.791C194.636 258.592 194.183 258.271 193.541 258.271C192.679 258.271 192.103 258.924 192.103 259.952C192.103 260.981 192.634 261.623 193.497 261.623C194.172 261.623 194.647 261.291 194.791 260.693H196.151C195.985 261.965 194.924 262.839 193.497 262.839C191.838 262.839 190.754 261.689 190.754 259.952ZM198.284 262.695H196.934V254.467H198.295V257.94C198.638 257.409 199.279 257.066 200.064 257.066C201.414 257.066 202.122 257.917 202.122 259.333V262.695H200.772V259.654C200.772 258.736 200.319 258.293 199.633 258.293C198.781 258.293 198.284 258.891 198.284 259.709V262.695ZM204.575 262.695H203.226V257.232H204.476L204.586 257.94C204.929 257.387 205.593 257.066 206.334 257.066C207.705 257.066 208.413 257.917 208.413 259.333V262.695H207.064V259.654C207.064 258.736 206.61 258.293 205.914 258.293C205.084 258.293 204.575 258.869 204.575 259.753V262.695ZM210.192 256.137C209.728 256.137 209.363 255.772 209.363 255.318C209.363 254.865 209.728 254.511 210.192 254.511C210.635 254.511 211 254.865 211 255.318C211 255.772 210.635 256.137 210.192 256.137ZM209.518 262.695V257.232H210.867V262.695H209.518ZM211.719 259.952C211.719 258.26 212.836 257.066 214.451 257.066C215.944 257.066 216.962 257.895 217.105 259.211H215.756C215.601 258.592 215.148 258.271 214.506 258.271C213.644 258.271 213.068 258.924 213.068 259.952C213.068 260.981 213.599 261.623 214.462 261.623C215.137 261.623 215.612 261.291 215.756 260.693H217.116C216.95 261.965 215.889 262.839 214.462 262.839C212.803 262.839 211.719 261.689 211.719 259.952ZM219.525 262.839C218.364 262.839 217.656 262.164 217.656 261.136C217.656 260.129 218.386 259.499 219.68 259.399L221.317 259.278V259.156C221.317 258.415 220.875 258.117 220.189 258.117C219.393 258.117 218.95 258.448 218.95 259.023H217.8C217.8 257.84 218.773 257.066 220.255 257.066C221.726 257.066 222.633 257.862 222.633 259.377V262.695H221.45L221.35 261.888C221.118 262.452 220.377 262.839 219.525 262.839ZM219.968 261.822C220.797 261.822 221.328 261.324 221.328 260.483V260.196L220.189 260.284C219.348 260.362 219.028 260.638 219.028 261.081C219.028 261.578 219.359 261.822 219.968 261.822ZM225.098 262.695H223.76V254.467H225.098V262.695Z" fill="white"/>
<path d="M242.659 256.352C242.659 251.19 242.659 248.609 243.664 246.638C244.547 244.904 245.957 243.494 247.692 242.61C249.663 241.605 252.244 241.605 257.406 241.605H313.779C318.941 241.605 321.522 241.605 323.493 242.61C325.227 243.494 326.637 244.904 327.521 246.638C328.526 248.609 328.526 251.19 328.526 256.352V260.039C328.526 265.2 328.526 267.781 327.521 269.753C326.637 271.487 325.227 272.897 323.493 273.781C321.522 274.785 318.941 274.785 313.779 274.785H257.406C252.244 274.785 249.663 274.785 247.692 273.781C245.957 272.897 244.547 271.487 243.664 269.753C242.659 267.781 242.659 265.2 242.659 260.039V256.352Z" fill="url(#paint13_linear_1356_166378)" fill-opacity="0.5"/>
<g clip-path="url(#clip4_1356_166378)">
<path d="M263.087 252.049C263.087 251.846 263.168 251.65 263.312 251.506C263.456 251.362 263.651 251.281 263.855 251.281H265.391C265.595 251.281 265.79 251.362 265.934 251.506C266.078 251.65 266.159 251.846 266.159 252.049V253.585C266.159 253.789 266.078 253.984 265.934 254.128C265.79 254.273 265.595 254.353 265.391 254.353H263.855C263.651 254.353 263.456 254.273 263.312 254.128C263.168 253.984 263.087 253.789 263.087 253.585V252.049Z" stroke="white" stroke-width="1.15207" stroke-linecap="round" stroke-linejoin="round"/>
<path d="M252.337 262.801C252.337 262.598 252.418 262.402 252.562 262.258C252.706 262.114 252.901 262.033 253.105 262.033H254.641C254.845 262.033 255.04 262.114 255.184 262.258C255.328 262.402 255.409 262.598 255.409 262.801V264.337C255.409 264.541 255.328 264.736 255.184 264.88C255.04 265.024 254.845 265.105 254.641 265.105H253.105C252.901 265.105 252.706 265.024 252.562 264.88C252.418 264.736 252.337 264.541 252.337 264.337V262.801Z" stroke="white" stroke-width="1.15207" stroke-linecap="round" stroke-linejoin="round"/>
<path d="M263.087 252.816C257.997 252.816 253.87 256.943 253.87 262.033" stroke="white" stroke-width="1.15207" stroke-linecap="round" stroke-linejoin="round"/>
</g>
<path d="M277.472 259.388H274.464V262.695H273.048V254.611H278.047V255.916H274.464V258.117H277.472V259.388ZM279.578 256.137C279.113 256.137 278.748 255.772 278.748 255.318C278.748 254.865 279.113 254.511 279.578 254.511C280.02 254.511 280.385 254.865 280.385 255.318C280.385 255.772 280.02 256.137 279.578 256.137ZM278.903 262.695V257.232H280.252V262.695H278.903ZM282.675 262.695H281.425V254.467H282.775V258.028C283.129 257.42 283.858 257.055 284.688 257.055C286.247 257.055 287.199 258.271 287.199 259.997C287.199 261.678 286.17 262.839 284.599 262.839C283.781 262.839 283.084 262.474 282.764 261.844L282.675 262.695ZM282.786 259.941C282.786 260.926 283.394 261.6 284.323 261.6C285.274 261.6 285.838 260.915 285.838 259.941C285.838 258.968 285.274 258.271 284.323 258.271C283.394 258.271 282.786 258.957 282.786 259.941ZM287.731 259.952C287.731 258.249 288.959 257.077 290.651 257.077C292.343 257.077 293.571 258.249 293.571 259.952C293.571 261.656 292.343 262.828 290.651 262.828C288.959 262.828 287.731 261.656 287.731 259.952ZM289.08 259.952C289.08 260.948 289.722 261.623 290.651 261.623C291.58 261.623 292.221 260.948 292.221 259.952C292.221 258.957 291.58 258.282 290.651 258.282C289.722 258.282 289.08 258.957 289.08 259.952ZM295.768 262.695H294.419V257.232H295.669L295.779 257.94C296.122 257.387 296.786 257.066 297.527 257.066C298.898 257.066 299.606 257.917 299.606 259.333V262.695H298.257V259.654C298.257 258.736 297.803 258.293 297.107 258.293C296.277 258.293 295.768 258.869 295.768 259.753V262.695ZM302.336 262.839C301.175 262.839 300.467 262.164 300.467 261.136C300.467 260.129 301.197 259.499 302.491 259.399L304.128 259.278V259.156C304.128 258.415 303.686 258.117 303 258.117C302.204 258.117 301.761 258.448 301.761 259.023H300.611C300.611 257.84 301.584 257.066 303.066 257.066C304.537 257.066 305.444 257.862 305.444 259.377V262.695H304.261L304.161 261.888C303.929 262.452 303.188 262.839 302.336 262.839ZM302.779 261.822C303.608 261.822 304.139 261.324 304.139 260.483V260.196L303 260.284C302.159 260.362 301.839 260.638 301.839 261.081C301.839 261.578 302.17 261.822 302.779 261.822ZM306.228 259.952C306.228 258.26 307.345 257.066 308.96 257.066C310.453 257.066 311.47 257.895 311.614 259.211H310.265C310.11 258.592 309.656 258.271 309.015 258.271C308.152 258.271 307.577 258.924 307.577 259.952C307.577 260.981 308.108 261.623 308.971 261.623C309.645 261.623 310.121 261.291 310.265 260.693H311.625C311.459 261.965 310.397 262.839 308.971 262.839C307.312 262.839 306.228 261.689 306.228 259.952ZM312.087 259.952C312.087 258.26 313.204 257.066 314.819 257.066C316.312 257.066 317.33 257.895 317.474 259.211H316.124C315.969 258.592 315.516 258.271 314.875 258.271C314.012 258.271 313.437 258.924 313.437 259.952C313.437 260.981 313.968 261.623 314.83 261.623C315.505 261.623 315.98 261.291 316.124 260.693H317.485C317.319 261.965 316.257 262.839 314.83 262.839C313.171 262.839 312.087 261.689 312.087 259.952ZM318.942 256.137C318.478 256.137 318.113 255.772 318.113 255.318C318.113 254.865 318.478 254.511 318.942 254.511C319.385 254.511 319.75 254.865 319.75 255.318C319.75 255.772 319.385 256.137 318.942 256.137ZM318.268 262.695V257.232H319.617V262.695H318.268Z" fill="white"/>
<path d="M337.742 256.352C337.742 251.19 337.742 248.609 338.747 246.638C339.63 244.904 341.04 243.494 342.775 242.61C344.746 241.605 347.327 241.605 352.489 241.605H405.862C411.024 241.605 413.605 241.605 415.576 242.61C417.31 243.494 418.72 244.904 419.604 246.638C420.609 248.609 420.609 251.19 420.609 256.352V260.039C420.609 265.2 420.609 267.781 419.604 269.753C418.72 271.487 417.31 272.897 415.576 273.781C413.605 274.785 411.024 274.785 405.862 274.785H352.489C347.327 274.785 344.746 274.785 342.775 273.781C341.04 272.897 339.63 271.487 338.747 269.753C337.742 267.781 337.742 265.2 337.742 260.039V256.352Z" fill="url(#paint14_linear_1356_166378)" fill-opacity="0.5"/>
<g clip-path="url(#clip5_1356_166378)">
<path d="M350.494 264.338H358.175" stroke="white" stroke-width="1.15207" stroke-linecap="round" stroke-linejoin="round"/>
<path d="M349.723 253.584L354.331 252.816L358.939 253.584" stroke="white" stroke-width="1.15207" stroke-linecap="round" stroke-linejoin="round"/>
<path d="M354.332 251.281V264.338" stroke="white" stroke-width="1.15207" stroke-linecap="round" stroke-linejoin="round"/>
<path d="M352.028 258.194L349.724 253.586L347.42 258.194C347.42 258.805 347.663 259.391 348.095 259.824C348.527 260.256 349.113 260.498 349.724 260.498C350.335 260.498 350.921 260.256 351.353 259.824C351.785 259.391 352.028 258.805 352.028 258.194Z" stroke="white" stroke-width="1.15207" stroke-linecap="round" stroke-linejoin="round"/>
<path d="M361.245 258.194L358.941 253.586L356.637 258.194C356.637 258.805 356.879 259.391 357.312 259.824C357.744 260.256 358.33 260.498 358.941 260.498C359.552 260.498 360.138 260.256 360.57 259.824C361.002 259.391 361.245 258.805 361.245 258.194Z" stroke="white" stroke-width="1.15207" stroke-linecap="round" stroke-linejoin="round"/>
</g>
<path d="M369.547 262.695H368.131V254.611H371.217C373.053 254.611 374.126 255.54 374.126 257.132C374.126 258.216 373.617 258.99 372.666 259.377L374.203 262.695H372.655L371.283 259.676H369.547V262.695ZM369.547 255.871V258.426H371.217C372.113 258.426 372.644 257.951 372.644 257.132C372.644 256.325 372.113 255.871 371.217 255.871H369.547ZM375.795 256.137C375.33 256.137 374.965 255.772 374.965 255.318C374.965 254.865 375.33 254.511 375.795 254.511C376.237 254.511 376.602 254.865 376.602 255.318C376.602 255.772 376.237 256.137 375.795 256.137ZM375.12 262.695V257.232H376.47V262.695H375.12ZM377.222 261.036H378.505C378.516 261.512 378.87 261.811 379.489 261.811C380.12 261.811 380.463 261.556 380.463 261.158C380.463 260.881 380.319 260.682 379.832 260.572L378.848 260.34C377.864 260.118 377.388 259.654 377.388 258.78C377.388 257.707 378.295 257.066 379.556 257.066C380.783 257.066 381.613 257.774 381.624 258.835H380.341C380.33 258.371 380.02 258.072 379.5 258.072C378.97 258.072 378.66 258.316 378.66 258.725C378.66 259.034 378.903 259.234 379.368 259.344L380.352 259.576C381.27 259.787 381.735 260.207 381.735 261.047C381.735 262.153 380.794 262.839 379.445 262.839C378.085 262.839 377.222 262.109 377.222 261.036ZM383.901 262.695H382.563V254.467H383.901V259.521L386.025 257.232H387.717L385.637 259.399L387.673 262.695H386.124L384.697 260.395L383.901 261.224V262.695ZM394.647 262.828C392.291 262.828 390.765 261.191 390.765 258.658C390.765 256.148 392.347 254.478 394.713 254.478C396.627 254.478 398.054 255.595 398.33 257.331H396.837C396.56 256.391 395.753 255.838 394.68 255.838C393.187 255.838 392.247 256.922 392.247 258.647C392.247 260.362 393.198 261.468 394.68 261.468C395.775 261.468 396.616 260.893 396.881 259.997H398.352C398.042 261.7 396.56 262.828 394.647 262.828ZM400.719 262.839C399.558 262.839 398.85 262.164 398.85 261.136C398.85 260.129 399.58 259.499 400.874 259.399L402.511 259.278V259.156C402.511 258.415 402.069 258.117 401.383 258.117C400.586 258.117 400.144 258.448 400.144 259.023H398.994C398.994 257.84 399.967 257.066 401.449 257.066C402.92 257.066 403.827 257.862 403.827 259.377V262.695H402.644L402.544 261.888C402.312 262.452 401.571 262.839 400.719 262.839ZM401.162 261.822C401.991 261.822 402.522 261.324 402.522 260.483V260.196L401.383 260.284C400.542 260.362 400.222 260.638 400.222 261.081C400.222 261.578 400.553 261.822 401.162 261.822ZM406.292 262.695H404.954V254.467H406.292V262.695ZM407.165 259.952C407.165 258.26 408.282 257.066 409.897 257.066C411.39 257.066 412.408 257.895 412.551 259.211H411.202C411.047 258.592 410.594 258.271 409.952 258.271C409.09 258.271 408.515 258.924 408.515 259.952C408.515 260.981 409.045 261.623 409.908 261.623C410.583 261.623 411.058 261.291 411.202 260.693H412.562C412.397 261.965 411.335 262.839 409.908 262.839C408.249 262.839 407.165 261.689 407.165 259.952Z" fill="white"/>
<g opacity="0.5">
<path d="M429.825 256.352C429.825 251.19 429.825 248.609 430.83 246.638C431.713 244.904 433.123 243.494 434.858 242.61C436.829 241.605 439.41 241.605 444.572 241.605H543.692C548.853 241.605 551.434 241.605 553.406 242.61C555.14 243.494 556.55 244.904 557.434 246.638C558.438 248.609 558.438 251.19 558.438 256.352V260.039C558.438 265.2 558.438 267.781 557.434 269.753C556.55 271.487 555.14 272.897 553.406 273.781C551.434 274.785 548.853 274.785 543.692 274.785H444.572C439.41 274.785 436.829 274.785 434.858 273.781C433.123 272.897 431.713 271.487 430.83 269.753C429.825 267.781 429.825 265.2 429.825 260.039V256.352Z" fill="url(#paint15_linear_1356_166378)" fill-opacity="0.5"/>
<g clip-path="url(#clip6_1356_166378)">
<path d="M444.882 258.194C444.882 258.602 445.044 258.992 445.332 259.28C445.62 259.569 446.011 259.73 446.418 259.73C446.825 259.73 447.216 259.569 447.504 259.28C447.792 258.992 447.954 258.602 447.954 258.194C447.954 257.787 447.792 257.396 447.504 257.108C447.216 256.82 446.825 256.658 446.418 256.658C446.011 256.658 445.62 256.82 445.332 257.108C445.044 257.396 444.882 257.787 444.882 258.194Z" stroke="white" stroke-width="1.15207" stroke-linecap="round" stroke-linejoin="round"/>
<path d="M453.328 258.194C451.484 261.266 449.18 262.803 446.415 262.803C443.65 262.803 441.346 261.266 439.503 258.194C441.346 255.122 443.65 253.586 446.415 253.586C449.18 253.586 451.484 255.122 453.328 258.194Z" stroke="white" stroke-width="1.15207" stroke-linecap="round" stroke-linejoin="round"/>
</g>
<path d="M459.75 256.867C459.75 255.451 460.922 254.467 462.625 254.467C464.262 254.467 465.302 255.374 465.346 256.834H463.93C463.897 256.137 463.399 255.728 462.603 255.728C461.729 255.728 461.165 256.148 461.165 256.823C461.165 257.398 461.475 257.718 462.15 257.873L463.422 258.15C464.804 258.448 465.479 259.156 465.479 260.362C465.479 261.866 464.306 262.839 462.526 262.839C460.8 262.839 459.672 261.921 459.639 260.472H461.055C461.066 261.158 461.619 261.567 462.526 261.567C463.466 261.567 464.063 261.158 464.063 260.483C464.063 259.941 463.787 259.621 463.123 259.477L461.84 259.189C460.469 258.891 459.75 258.105 459.75 256.867ZM467.688 262.695H466.339V257.232H467.578L467.688 257.873C467.965 257.42 468.518 257.066 469.303 257.066C470.133 257.066 470.708 257.475 470.995 258.105C471.272 257.475 471.913 257.066 472.743 257.066C474.07 257.066 474.8 257.862 474.8 259.123V262.695H473.462V259.477C473.462 258.692 473.041 258.282 472.4 258.282C471.747 258.282 471.25 258.703 471.25 259.599V262.695H469.9V259.466C469.9 258.703 469.491 258.293 468.85 258.293C468.208 258.293 467.688 258.714 467.688 259.599V262.695ZM477.529 262.839C476.368 262.839 475.66 262.164 475.66 261.136C475.66 260.129 476.39 259.499 477.684 259.399L479.321 259.278V259.156C479.321 258.415 478.878 258.117 478.193 258.117C477.396 258.117 476.954 258.448 476.954 259.023H475.804C475.804 257.84 476.777 257.066 478.259 257.066C479.73 257.066 480.637 257.862 480.637 259.377V262.695H479.454L479.354 261.888C479.122 262.452 478.381 262.839 477.529 262.839ZM477.972 261.822C478.801 261.822 479.332 261.324 479.332 260.483V260.196L478.193 260.284C477.352 260.362 477.031 260.638 477.031 261.081C477.031 261.578 477.363 261.822 477.972 261.822ZM485.17 257.21V258.459H484.672C483.699 258.459 483.091 258.979 483.091 260.041V262.695H481.741V257.243H483.013L483.091 258.039C483.323 257.497 483.843 257.132 484.573 257.132C484.761 257.132 484.949 257.154 485.17 257.21ZM487.936 262.695H486.587V258.36H485.536V257.232H486.587V255.528H487.936V257.232H488.998V258.36H487.936V262.695ZM493.271 262.695H491.8L494.72 254.611H496.169L499.089 262.695H497.596L496.943 260.826H493.924L493.271 262.695ZM495.262 257.022L494.344 259.632H496.534L495.605 257.022C495.538 256.811 495.461 256.568 495.439 256.402C495.406 256.557 495.339 256.8 495.262 257.022ZM501.043 262.695H499.704V254.467H501.043V262.695ZM504.681 262.839C503.055 262.839 501.916 261.656 501.916 259.964C501.916 258.249 503.033 257.066 504.637 257.066C506.274 257.066 507.313 258.161 507.313 259.864V260.273L503.199 260.284C503.299 261.246 503.807 261.733 504.703 261.733C505.444 261.733 505.931 261.446 506.086 260.926H507.335C507.103 262.12 506.108 262.839 504.681 262.839ZM504.648 258.172C503.851 258.172 503.365 258.603 503.232 259.422H505.975C505.975 258.67 505.455 258.172 504.648 258.172ZM511.601 257.21V258.459H511.103C510.13 258.459 509.521 258.979 509.521 260.041V262.695H508.172V257.243H509.444L509.521 258.039C509.754 257.497 510.273 257.132 511.003 257.132C511.191 257.132 511.379 257.154 511.601 257.21ZM514.367 262.695H513.017V258.36H511.967V257.232H513.017V255.528H514.367V257.232H515.428V258.36H514.367V262.695ZM515.626 261.036H516.909C516.92 261.512 517.274 261.811 517.893 261.811C518.524 261.811 518.866 261.556 518.866 261.158C518.866 260.881 518.723 260.682 518.236 260.572L517.252 260.34C516.267 260.118 515.792 259.654 515.792 258.78C515.792 257.707 516.699 257.066 517.959 257.066C519.187 257.066 520.017 257.774 520.028 258.835H518.745C518.734 258.371 518.424 258.072 517.904 258.072C517.373 258.072 517.064 258.316 517.064 258.725C517.064 259.034 517.307 259.234 517.771 259.344L518.756 259.576C519.674 259.787 520.138 260.207 520.138 261.047C520.138 262.153 519.198 262.839 517.849 262.839C516.488 262.839 515.626 262.109 515.626 261.036Z" fill="white"/>
</g>
<path d="M49.4932 298.002C49.4932 292.912 53.6196 288.785 58.7098 288.785H205.853C210.943 288.785 215.069 292.912 215.069 298.002V317.002C215.069 322.092 210.943 326.218 205.853 326.218H58.7097C53.6196 326.218 49.4932 322.092 49.4932 317.002V298.002Z" fill="white"/>
<path d="M58.71 289.246H205.853C210.688 289.246 214.608 293.166 214.608 298.002V317.002C214.608 321.838 210.688 325.758 205.853 325.758H58.71C53.8744 325.758 49.9542 321.838 49.9541 317.002V298.002C49.9541 293.166 53.8743 289.246 58.71 289.246Z" stroke="white" stroke-opacity="0.3" stroke-width="0.921659"/>
<path d="M77.2401 308.686V302.673H78.5046V308.608C78.5046 310.105 79.3304 310.931 80.8143 310.931C82.2852 310.931 83.0981 310.092 83.0981 308.608V302.673H84.3755V308.686C84.3755 310.828 83.0078 312.157 80.8143 312.157C78.6078 312.157 77.2401 310.841 77.2401 308.686ZM86.1941 314.828V305.692H87.2909L87.3812 306.828C87.807 305.963 88.6586 305.512 89.6651 305.512C91.4715 305.512 92.5941 306.866 92.5941 308.802C92.5941 310.725 91.536 312.17 89.6651 312.17C88.6586 312.17 87.8199 311.744 87.407 310.97V314.828H86.1941ZM87.4199 308.854C87.4199 310.144 88.1683 311.073 89.407 311.073C90.6457 311.073 91.3812 310.144 91.3812 308.854C91.3812 307.55 90.6457 306.621 89.407 306.621C88.1683 306.621 87.4199 307.537 87.4199 308.854ZM93.4536 308.686C93.4536 306.905 94.6019 305.512 96.4342 305.512C97.4536 305.512 98.2407 305.976 98.6407 306.763L98.731 305.692H99.8149V311.744C99.8149 313.731 98.589 314.996 96.6536 314.996C94.9374 314.996 93.7632 314.028 93.531 312.428H94.7439C94.8987 313.357 95.5955 313.899 96.6536 313.899C97.8407 313.899 98.6149 313.125 98.6149 311.925V310.66C98.2019 311.396 97.3761 311.834 96.3826 311.834C94.589 311.834 93.4536 310.454 93.4536 308.686ZM94.6665 308.66C94.6665 309.847 95.4019 310.776 96.589 310.776C97.8149 310.776 98.5632 309.899 98.5632 308.66C98.5632 307.447 97.8407 306.57 96.6019 306.57C95.389 306.57 94.6665 307.499 94.6665 308.66ZM105.101 305.641V306.75H104.559C103.41 306.75 102.701 307.447 102.701 308.66V312.002H101.488V305.705H102.623L102.701 306.66C102.959 306.002 103.591 305.563 104.456 305.563C104.675 305.563 104.856 305.589 105.101 305.641ZM107.754 312.157C106.399 312.157 105.599 311.396 105.599 310.247C105.599 309.086 106.464 308.363 107.948 308.247L109.935 308.092V307.912C109.935 306.854 109.302 306.479 108.451 306.479C107.431 306.479 106.851 306.931 106.851 307.692H105.793C105.793 306.376 106.877 305.512 108.502 305.512C110.064 305.512 111.122 306.337 111.122 308.041V312.002H110.09L109.961 310.983C109.638 311.705 108.773 312.157 107.754 312.157ZM108.102 311.215C109.251 311.215 109.948 310.466 109.948 309.279V308.944L108.335 309.073C107.264 309.176 106.825 309.589 106.825 310.208C106.825 310.879 107.315 311.215 108.102 311.215ZM115.253 312.157C113.421 312.157 112.311 310.789 112.311 308.866C112.311 306.931 113.434 305.512 115.305 305.512C116.273 305.512 117.085 305.937 117.511 306.712V302.505H118.711V312.002H117.627L117.524 310.854C117.111 311.718 116.26 312.157 115.253 312.157ZM115.498 311.06C116.737 311.06 117.498 310.144 117.498 308.828C117.498 307.537 116.737 306.608 115.498 306.608C114.26 306.608 113.537 307.537 113.537 308.828C113.537 310.131 114.26 311.06 115.498 311.06ZM123.106 312.157C121.248 312.157 119.971 310.815 119.971 308.854C119.971 306.879 121.222 305.512 123.055 305.512C124.848 305.512 126.022 306.75 126.022 308.621V309.073L121.145 309.086C121.235 310.415 121.932 311.15 123.132 311.15C124.074 311.15 124.693 310.763 124.9 310.041H126.035C125.726 311.396 124.667 312.157 123.106 312.157ZM123.055 306.531C121.996 306.531 121.326 307.163 121.171 308.273H124.809C124.809 307.228 124.126 306.531 123.055 306.531ZM134.583 308.673H132.221V312.002H130.957V302.673H134.583C136.415 302.673 137.589 303.873 137.589 305.666C137.589 307.408 136.402 308.673 134.583 308.673ZM134.363 303.808H132.221V307.537H134.312C135.563 307.537 136.26 306.802 136.26 305.654C136.26 304.479 135.55 303.808 134.363 303.808ZM138.035 308.841C138.035 306.892 139.428 305.525 141.325 305.525C143.209 305.525 144.603 306.892 144.603 308.841C144.603 310.789 143.209 312.157 141.325 312.157C139.428 312.157 138.035 310.789 138.035 308.841ZM139.261 308.841C139.261 310.157 140.099 311.073 141.325 311.073C142.538 311.073 143.39 310.157 143.39 308.841C143.39 307.525 142.538 306.608 141.325 306.608C140.099 306.608 139.261 307.525 139.261 308.841ZM146.933 312.002L144.868 305.692H146.12L147.165 308.97C147.307 309.434 147.436 309.912 147.552 310.466C147.655 309.912 147.823 309.383 147.965 308.97L149.023 305.692H150.262L151.307 308.97C151.41 309.279 151.617 310.015 151.72 310.466C151.823 309.963 151.939 309.525 152.12 308.97L153.178 305.692H154.442L152.288 312.002H151.139L150.042 308.621C149.836 307.989 149.707 307.499 149.642 307.15C149.578 307.46 149.462 307.873 149.23 308.634L148.133 312.002H146.933ZM157.838 312.157C155.979 312.157 154.702 310.815 154.702 308.854C154.702 306.879 155.954 305.512 157.786 305.512C159.579 305.512 160.754 306.75 160.754 308.621V309.073L155.876 309.086C155.967 310.415 156.663 311.15 157.863 311.15C158.805 311.15 159.425 310.763 159.631 310.041H160.767C160.457 311.396 159.399 312.157 157.838 312.157ZM157.786 306.531C156.728 306.531 156.057 307.163 155.902 308.273H159.541C159.541 307.228 158.857 306.531 157.786 306.531ZM165.644 305.641V306.75H165.102C163.954 306.75 163.244 307.447 163.244 308.66V312.002H162.031V305.705H163.166L163.244 306.66C163.502 306.002 164.134 305.563 164.999 305.563C165.218 305.563 165.399 305.589 165.644 305.641Z" fill="#111111"/>
<circle cx="182.812" cy="307.501" r="7.68049" stroke="#111111" stroke-width="1.15207"/>
<path d="M179.839 307.192L182.911 303.052C183.151 302.729 183.601 302.93 183.601 303.361V306.565C183.601 306.824 183.778 307.033 183.996 307.033H185.489C185.829 307.033 186.01 307.508 185.786 307.81L182.714 311.949C182.474 312.273 182.024 312.072 182.024 311.64V308.436C182.024 308.178 181.847 307.969 181.629 307.969H180.135C179.796 307.969 179.615 307.494 179.839 307.192Z" stroke="#111111" stroke-width="1.15207" stroke-linecap="round" stroke-linejoin="round"/>
<path d="M38.4336 356.067C38.4336 350.905 38.4336 348.324 39.4381 346.353C40.3218 344.618 41.7317 343.208 43.4659 342.325C45.4375 341.32 48.0184 341.32 53.1801 341.32H353.026C358.188 341.32 360.769 341.32 362.741 342.325C364.475 343.208 365.885 344.618 366.768 346.353C367.773 348.324 367.773 350.905 367.773 356.067V388.537C367.773 393.699 367.773 396.28 366.768 398.251C365.885 399.985 364.475 401.395 362.741 402.279C360.769 403.283 358.188 403.283 353.026 403.283H53.1801C48.0184 403.283 45.4375 403.283 43.4659 402.279C41.7317 401.395 40.3218 399.985 39.4381 398.251C38.4336 396.28 38.4336 393.699 38.4336 388.537V356.067Z" fill="url(#paint16_linear_1356_166378)" fill-opacity="0.2"/>
<path d="M53.1797 341.781H353.026C355.615 341.781 357.528 341.782 359.042 341.905C360.55 342.029 361.621 342.272 362.531 342.735C364.179 343.575 365.518 344.914 366.357 346.562C366.821 347.471 367.065 348.542 367.188 350.051C367.312 351.564 367.312 353.478 367.312 356.066V388.537C367.312 391.125 367.312 393.039 367.188 394.553C367.065 396.061 366.821 397.132 366.357 398.042C365.518 399.689 364.179 401.029 362.531 401.868C361.621 402.332 360.55 402.575 359.042 402.698C357.528 402.822 355.615 402.822 353.026 402.822H53.1797C50.5914 402.822 48.6777 402.822 47.1641 402.698C45.6558 402.575 44.5847 402.332 43.6748 401.868C42.0275 401.029 40.688 399.689 39.8486 398.042C39.385 397.132 39.1418 396.061 39.0186 394.553C38.8949 393.039 38.8945 391.125 38.8945 388.537V356.066C38.8945 353.478 38.8949 351.564 39.0186 350.051C39.1418 348.542 39.385 347.471 39.8486 346.562C40.688 344.914 42.0275 343.575 43.6748 342.735C44.5847 342.272 45.6558 342.029 47.1641 341.905C48.6777 341.782 50.5914 341.781 53.1797 341.781Z" stroke="white" stroke-opacity="0.02" stroke-width="0.921659"/>
<path d="M51.6873 360.684H49.6633V363.537H48.5794V355.541H51.6873C53.2578 355.541 54.2642 356.569 54.2642 358.107C54.2642 359.6 53.2467 360.684 51.6873 360.684ZM51.4992 356.514H49.6633V359.71H51.455C52.5278 359.71 53.125 359.08 53.125 358.096C53.125 357.089 52.5167 356.514 51.4992 356.514ZM58.3453 358.085V359.036H57.8808C56.8965 359.036 56.2882 359.633 56.2882 360.673V363.537H55.2485V358.14H56.2218L56.2882 358.958C56.5094 358.394 57.0513 358.018 57.7923 358.018C57.9803 358.018 58.1352 358.04 58.3453 358.085ZM58.7057 360.827C58.7057 359.157 59.9002 357.985 61.526 357.985C63.1407 357.985 64.3352 359.157 64.3352 360.827C64.3352 362.497 63.1407 363.67 61.526 363.67C59.9002 363.67 58.7057 362.497 58.7057 360.827ZM59.7564 360.827C59.7564 361.956 60.4753 362.741 61.526 362.741C62.5656 362.741 63.2956 361.956 63.2956 360.827C63.2956 359.699 62.5656 358.914 61.526 358.914C60.4753 358.914 59.7564 359.699 59.7564 360.827ZM65.0658 360.838C65.0658 359.146 66.1386 357.974 67.7201 357.974C69.0805 357.974 70.0317 358.748 70.2197 359.954H69.1801C69.0031 359.268 68.4501 358.903 67.7533 358.903C66.769 358.903 66.0943 359.655 66.0943 360.827C66.0943 361.989 66.7248 362.741 67.7091 362.741C68.4501 362.741 69.0031 362.354 69.1911 361.712H70.2307C70.0206 362.885 69.0142 363.67 67.7091 363.67C66.1165 363.67 65.0658 362.542 65.0658 360.838ZM73.5949 363.67C72.0023 363.67 70.9074 362.52 70.9074 360.838C70.9074 359.146 71.9802 357.974 73.5507 357.974C75.088 357.974 76.0945 359.036 76.0945 360.639V361.027L71.9138 361.038C71.9913 362.177 72.5885 362.807 73.6171 362.807C74.4244 362.807 74.9553 362.475 75.1323 361.856H76.1055C75.8401 363.017 74.9332 363.67 73.5949 363.67ZM73.5507 358.848C72.6438 358.848 72.0687 359.39 71.936 360.341H75.0548C75.0548 359.445 74.4687 358.848 73.5507 358.848ZM76.7469 361.967H77.7423C77.7423 362.52 78.1626 362.851 78.8483 362.851C79.5783 362.851 79.9985 362.553 79.9985 362.055C79.9985 361.69 79.8216 361.469 79.2575 361.325L78.3064 361.104C77.3442 360.872 76.8907 360.396 76.8907 359.6C76.8907 358.604 77.7313 357.974 78.9257 357.974C80.1091 357.974 80.8833 358.638 80.9055 359.666H79.9101C79.8879 359.124 79.523 358.781 78.8925 358.781C78.24 358.781 77.875 359.069 77.875 359.567C77.875 359.932 78.1405 360.175 78.6714 360.308L79.6225 360.54C80.5405 360.761 80.9939 361.181 80.9939 361.989C80.9939 363.017 80.1091 363.67 78.8262 363.67C77.5543 363.67 76.7469 362.995 76.7469 361.967ZM81.6381 361.967H82.6335C82.6335 362.52 83.0538 362.851 83.7395 362.851C84.4694 362.851 84.8897 362.553 84.8897 362.055C84.8897 361.69 84.7127 361.469 84.1487 361.325L83.1975 361.104C82.2353 360.872 81.7819 360.396 81.7819 359.6C81.7819 358.604 82.6224 357.974 83.8169 357.974C85.0003 357.974 85.7745 358.638 85.7966 359.666H84.8012C84.7791 359.124 84.4141 358.781 83.7837 358.781C83.1312 358.781 82.7662 359.069 82.7662 359.567C82.7662 359.932 83.0316 360.175 83.5625 360.308L84.5137 360.54C85.4316 360.761 85.8851 361.181 85.8851 361.989C85.8851 363.017 85.0003 363.67 83.7173 363.67C82.4455 363.67 81.6381 362.995 81.6381 361.967ZM87.4804 356.846C87.1044 356.846 86.7947 356.536 86.7947 356.16C86.7947 355.773 87.1044 355.474 87.4804 355.474C87.8564 355.474 88.1661 355.773 88.1661 356.16C88.1661 356.536 87.8564 356.846 87.4804 356.846ZM86.9716 363.537V358.129H88.0113V363.537H86.9716ZM90.4939 363.537H89.4542V358.129H90.3943L90.5049 358.958C90.8478 358.339 91.5335 357.974 92.2966 357.974C93.7234 357.974 94.3759 358.848 94.3759 360.23V363.537H93.3363V360.462C93.3363 359.368 92.8275 358.925 92.0312 358.925C91.0579 358.925 90.4939 359.622 90.4939 360.673V363.537ZM95.4066 360.695C95.4066 359.168 96.391 357.974 97.9615 357.974C98.8352 357.974 99.5099 358.372 99.8527 359.047L99.9301 358.129H100.859V363.316C100.859 365.019 99.8085 366.103 98.1495 366.103C96.6785 366.103 95.6721 365.274 95.473 363.902H96.5126C96.6453 364.698 97.2426 365.163 98.1495 365.163C99.167 365.163 99.8306 364.499 99.8306 363.471V362.387C99.4767 363.017 98.7688 363.393 97.9172 363.393C96.3799 363.393 95.4066 362.21 95.4066 360.695ZM96.4463 360.673C96.4463 361.69 97.0767 362.486 98.0942 362.486C99.1449 362.486 99.7864 361.734 99.7864 360.673C99.7864 359.633 99.167 358.881 98.1052 358.881C97.0656 358.881 96.4463 359.677 96.4463 360.673ZM108.536 360.684H106.512V363.537H105.428V355.541H108.536C110.106 355.541 111.113 356.569 111.113 358.107C111.113 359.6 110.095 360.684 108.536 360.684ZM108.348 356.514H106.512V359.71H108.304C109.376 359.71 109.974 359.08 109.974 358.096C109.974 357.089 109.365 356.514 108.348 356.514ZM111.495 360.827C111.495 359.157 112.689 357.985 114.315 357.985C115.93 357.985 117.124 359.157 117.124 360.827C117.124 362.497 115.93 363.67 114.315 363.67C112.689 363.67 111.495 362.497 111.495 360.827ZM112.545 360.827C112.545 361.956 113.264 362.741 114.315 362.741C115.355 362.741 116.085 361.956 116.085 360.827C116.085 359.699 115.355 358.914 114.315 358.914C113.264 358.914 112.545 359.699 112.545 360.827ZM119.122 363.537L117.352 358.129H118.425L119.321 360.938C119.442 361.336 119.553 361.745 119.652 362.221C119.741 361.745 119.885 361.292 120.006 360.938L120.913 358.129H121.975L122.871 360.938C122.959 361.203 123.136 361.834 123.225 362.221C123.313 361.79 123.413 361.414 123.568 360.938L124.475 358.129H125.558L123.711 363.537H122.727L121.787 360.639C121.61 360.097 121.499 359.677 121.444 359.379C121.389 359.644 121.289 359.998 121.09 360.65L120.15 363.537H119.122ZM128.468 363.67C126.876 363.67 125.781 362.52 125.781 360.838C125.781 359.146 126.854 357.974 128.424 357.974C129.962 357.974 130.968 359.036 130.968 360.639V361.027L126.787 361.038C126.865 362.177 127.462 362.807 128.491 362.807C129.298 362.807 129.829 362.475 130.006 361.856H130.979C130.714 363.017 129.807 363.67 128.468 363.67ZM128.424 358.848C127.517 358.848 126.942 359.39 126.81 360.341H129.928C129.928 359.445 129.342 358.848 128.424 358.848ZM135.16 358.085V359.036H134.695C133.711 359.036 133.103 359.633 133.103 360.673V363.537H132.063V358.14H133.036L133.103 358.958C133.324 358.394 133.866 358.018 134.607 358.018C134.795 358.018 134.95 358.04 135.16 358.085Z" fill="white"/>
<path d="M371.46 356.067C371.46 350.905 371.46 348.324 372.465 346.353C373.348 344.618 374.758 343.208 376.492 342.325C378.464 341.32 381.045 341.32 386.207 341.32H686.053C691.215 341.32 693.795 341.32 695.767 342.325C697.501 343.208 698.911 344.618 699.795 346.353C700.799 348.324 700.799 350.905 700.799 356.067V388.537C700.799 393.699 700.799 396.28 699.795 398.251C698.911 399.985 697.501 401.395 695.767 402.279C693.795 403.283 691.215 403.283 686.053 403.283H386.206C381.045 403.283 378.464 403.283 376.492 402.279C374.758 401.395 373.348 399.985 372.465 398.251C371.46 396.28 371.46 393.699 371.46 388.537V356.067Z" fill="url(#paint17_linear_1356_166378)" fill-opacity="0.2"/>
<path d="M386.206 341.781H686.053C688.641 341.781 690.555 341.782 692.068 341.905C693.577 342.029 694.648 342.272 695.558 342.735C697.205 343.575 698.544 344.914 699.384 346.562C699.847 347.471 700.092 348.542 700.215 350.051C700.339 351.564 700.339 353.478 700.339 356.066V388.537C700.339 391.125 700.339 393.039 700.215 394.553C700.092 396.061 699.847 397.132 699.384 398.042C698.544 399.689 697.205 401.029 695.558 401.868C694.648 402.332 693.577 402.575 692.068 402.698C690.555 402.822 688.641 402.822 686.053 402.822H386.206C383.618 402.822 381.704 402.822 380.19 402.698C378.682 402.575 377.611 402.332 376.701 401.868C375.054 401.029 373.714 399.689 372.875 398.042C372.411 397.132 372.168 396.061 372.045 394.553C371.921 393.039 371.921 391.125 371.921 388.537V356.066C371.921 353.478 371.921 351.564 372.045 350.051C372.168 348.542 372.411 347.471 372.875 346.562C373.714 344.914 375.054 343.575 376.701 342.735C377.611 342.272 378.682 342.029 380.19 341.905C381.704 341.782 383.618 341.781 386.206 341.781Z" stroke="white" stroke-opacity="0.02" stroke-width="0.921659"/>
<path d="M382.69 363.537H381.606V355.541H384.625C386.339 355.541 387.357 356.448 387.357 357.941C387.357 359.047 386.804 359.843 385.809 360.164L387.434 363.537H386.229L384.736 360.374H382.69V363.537ZM382.69 356.514V359.412H384.636C385.643 359.412 386.218 358.87 386.218 357.952C386.218 357.023 385.621 356.514 384.625 356.514H382.69ZM390.544 363.67C388.951 363.67 387.856 362.52 387.856 360.838C387.856 359.146 388.929 357.974 390.5 357.974C392.037 357.974 393.043 359.036 393.043 360.639V361.027L388.863 361.038C388.94 362.177 389.537 362.807 390.566 362.807C391.373 362.807 391.904 362.475 392.081 361.856H393.054C392.789 363.017 391.882 363.67 390.544 363.67ZM390.5 358.848C389.593 358.848 389.017 359.39 388.885 360.341H392.004C392.004 359.445 391.417 358.848 390.5 358.848ZM393.696 361.967H394.691C394.691 362.52 395.111 362.851 395.797 362.851C396.527 362.851 396.947 362.553 396.947 362.055C396.947 361.69 396.77 361.469 396.206 361.325L395.255 361.104C394.293 360.872 393.84 360.396 393.84 359.6C393.84 358.604 394.68 357.974 395.875 357.974C397.058 357.974 397.832 358.638 397.854 359.666H396.859C396.837 359.124 396.472 358.781 395.841 358.781C395.189 358.781 394.824 359.069 394.824 359.567C394.824 359.932 395.089 360.175 395.62 360.308L396.571 360.54C397.489 360.761 397.943 361.181 397.943 361.989C397.943 363.017 397.058 363.67 395.775 363.67C394.503 363.67 393.696 362.995 393.696 361.967ZM399.029 365.959V358.129H399.969L400.047 359.102C400.412 358.361 401.142 357.974 402.004 357.974C403.553 357.974 404.515 359.135 404.515 360.794C404.515 362.442 403.608 363.681 402.004 363.681C401.142 363.681 400.423 363.316 400.069 362.652V365.959H399.029ZM400.08 360.838C400.08 361.944 400.721 362.741 401.783 362.741C402.845 362.741 403.475 361.944 403.475 360.838C403.475 359.721 402.845 358.925 401.783 358.925C400.721 358.925 400.08 359.71 400.08 360.838ZM405.241 360.827C405.241 359.157 406.435 357.985 408.061 357.985C409.676 357.985 410.87 359.157 410.87 360.827C410.87 362.497 409.676 363.67 408.061 363.67C406.435 363.67 405.241 362.497 405.241 360.827ZM406.291 360.827C406.291 361.956 407.01 362.741 408.061 362.741C409.101 362.741 409.83 361.956 409.83 360.827C409.83 359.699 409.101 358.914 408.061 358.914C407.01 358.914 406.291 359.699 406.291 360.827ZM412.994 363.537H411.955V358.129H412.895L413.005 358.958C413.348 358.339 414.034 357.974 414.797 357.974C416.224 357.974 416.876 358.848 416.876 360.23V363.537H415.837V360.462C415.837 359.368 415.328 358.925 414.532 358.925C413.558 358.925 412.994 359.622 412.994 360.673V363.537ZM417.743 361.967H418.738C418.738 362.52 419.158 362.851 419.844 362.851C420.574 362.851 420.994 362.553 420.994 362.055C420.994 361.69 420.817 361.469 420.253 361.325L419.302 361.104C418.34 360.872 417.886 360.396 417.886 359.6C417.886 358.604 418.727 357.974 419.921 357.974C421.105 357.974 421.879 358.638 421.901 359.666H420.906C420.884 359.124 420.519 358.781 419.888 358.781C419.236 358.781 418.871 359.069 418.871 359.567C418.871 359.932 419.136 360.175 419.667 360.308L420.618 360.54C421.536 360.761 421.99 361.181 421.99 361.989C421.99 363.017 421.105 363.67 419.822 363.67C418.55 363.67 417.743 362.995 417.743 361.967ZM425.41 363.67C423.817 363.67 422.722 362.52 422.722 360.838C422.722 359.146 423.795 357.974 425.366 357.974C426.903 357.974 427.909 359.036 427.909 360.639V361.027L423.729 361.038C423.806 362.177 424.403 362.807 425.432 362.807C426.239 362.807 426.77 362.475 426.947 361.856H427.92C427.655 363.017 426.748 363.67 425.41 363.67ZM425.366 358.848C424.459 358.848 423.884 359.39 423.751 360.341H426.87C426.87 359.445 426.284 358.848 425.366 358.848ZM431.365 356.536V355.541H437.26V356.536H434.86V363.537H433.776V356.536H431.365ZM438.615 356.846C438.239 356.846 437.929 356.536 437.929 356.16C437.929 355.773 438.239 355.474 438.615 355.474C438.991 355.474 439.301 355.773 439.301 356.16C439.301 356.536 438.991 356.846 438.615 356.846ZM438.106 363.537V358.129H439.146V363.537H438.106ZM441.628 363.537H440.589V358.129H441.518L441.617 358.837C441.894 358.328 442.469 357.974 443.232 357.974C444.073 357.974 444.67 358.394 444.946 359.069C445.201 358.394 445.853 357.974 446.694 357.974C447.932 357.974 448.685 358.748 448.685 359.998V363.537H447.667V360.252C447.667 359.401 447.191 358.914 446.462 358.914C445.676 358.914 445.156 359.467 445.156 360.33V363.537H444.128V360.241C444.128 359.39 443.663 358.925 442.933 358.925C442.148 358.925 441.628 359.467 441.628 360.33V363.537ZM452.393 363.67C450.8 363.67 449.705 362.52 449.705 360.838C449.705 359.146 450.778 357.974 452.349 357.974C453.886 357.974 454.893 359.036 454.893 360.639V361.027L450.712 361.038C450.789 362.177 451.387 362.807 452.415 362.807C453.222 362.807 453.753 362.475 453.93 361.856H454.904C454.638 363.017 453.731 363.67 452.393 363.67ZM452.349 358.848C451.442 358.848 450.867 359.39 450.734 360.341H453.853C453.853 359.445 453.267 358.848 452.349 358.848Z" fill="white"/>
</g>
<path d="M16 0.851562H484C492.56 0.851562 499.5 7.79115 499.5 16.3516V348.352C499.5 356.912 492.56 363.852 484 363.852H16C7.43959 363.852 0.5 356.912 0.5 348.352V16.3516C0.5 7.79115 7.43959 0.851562 16 0.851562Z" stroke="white" stroke-opacity="0.3"/>
<defs>
<linearGradient id="paint0_linear_1356_166378" x1="60.1315" y1="309.398" x2="129.231" y2="2.42548" gradientUnits="userSpaceOnUse">
<stop stop-color="#3EDC81"/>
<stop offset="1" stop-color="#0276DB"/>
</linearGradient>
<linearGradient id="paint1_linear_1356_166378" x1="413.229" y1="-45.4034" x2="-2.82308" y2="328.035" gradientUnits="userSpaceOnUse">
<stop stop-color="#0F0F0F" stop-opacity="0.2"/>
<stop offset="0.555856" stop-color="#0F0F0F" stop-opacity="0.661921"/>
<stop offset="0.768606" stop-color="#0F0F0F" stop-opacity="0.748406"/>
<stop offset="1" stop-color="#0F0F0F" stop-opacity="0.9"/>
</linearGradient>
<linearGradient id="paint2_linear_1356_166378" x1="536.129" y1="20.3516" x2="536.129" y2="422.07" gradientUnits="userSpaceOnUse">
<stop stop-color="white" stop-opacity="0.1"/>
<stop offset="1" stop-color="white" stop-opacity="0.05"/>
</linearGradient>
<linearGradient id="paint3_linear_1356_166378" x1="51.3368" y1="38.7852" x2="51.3368" y2="64.5916" gradientUnits="userSpaceOnUse">
<stop stop-color="white" stop-opacity="0.2"/>
<stop offset="1" stop-color="white" stop-opacity="0.1"/>
</linearGradient>
<linearGradient id="paint4_linear_1356_166378" x1="51.3356" y1="49" x2="51.3356" y2="54.3763" gradientUnits="userSpaceOnUse">
<stop stop-color="#EA4335"/>
<stop offset="1" stop-color="#D62F21"/>
</linearGradient>
<linearGradient id="paint5_linear_1356_166378" x1="51.3353" y1="46.3125" x2="51.3353" y2="57.0652" gradientUnits="userSpaceOnUse">
<stop stop-color="#EA4335"/>
<stop offset="1" stop-color="#D62F21"/>
</linearGradient>
<linearGradient id="paint6_linear_1356_166378" x1="54.0282" y1="46.3164" x2="54.0282" y2="51.6673" gradientUnits="userSpaceOnUse">
<stop stop-color="#EA4335"/>
<stop offset="1" stop-color="#D62F21"/>
</linearGradient>
<linearGradient id="paint7_linear_1356_166378" x1="62.3964" y1="112.908" x2="62.3964" y2="138.715" gradientUnits="userSpaceOnUse">
<stop stop-color="white" stop-opacity="0.2"/>
<stop offset="1" stop-color="white" stop-opacity="0.1"/>
</linearGradient>
<linearGradient id="paint8_linear_1356_166378" x1="62.3966" y1="123.66" x2="62.3966" y2="127.961" gradientUnits="userSpaceOnUse">
<stop stop-color="#FFB145"/>
<stop offset="1" stop-color="#F59D31"/>
</linearGradient>
<linearGradient id="paint9_linear_1356_166378" x1="62.3969" y1="120.703" x2="62.3969" y2="130.918" gradientUnits="userSpaceOnUse">
<stop stop-color="#FFB145"/>
<stop offset="1" stop-color="#F59D31"/>
</linearGradient>
<linearGradient id="paint10_linear_1356_166378" x1="62.3964" y1="197.365" x2="62.3964" y2="223.172" gradientUnits="userSpaceOnUse">
<stop stop-color="white" stop-opacity="0.2"/>
<stop offset="1" stop-color="white" stop-opacity="0.1"/>
</linearGradient>
<linearGradient id="paint11_linear_1356_166378" x1="94.9263" y1="241.605" x2="94.9263" y2="274.785" gradientUnits="userSpaceOnUse">
<stop stop-color="white" stop-opacity="0.2"/>
<stop offset="1" stop-color="white" stop-opacity="0.1"/>
</linearGradient>
<linearGradient id="paint12_linear_1356_166378" x1="191.509" y1="241.605" x2="191.509" y2="274.785" gradientUnits="userSpaceOnUse">
<stop stop-color="white" stop-opacity="0.2"/>
<stop offset="1" stop-color="white" stop-opacity="0.1"/>
</linearGradient>
<linearGradient id="paint13_linear_1356_166378" x1="285.592" y1="241.605" x2="285.592" y2="274.785" gradientUnits="userSpaceOnUse">
<stop stop-color="white" stop-opacity="0.2"/>
<stop offset="1" stop-color="white" stop-opacity="0.1"/>
</linearGradient>
<linearGradient id="paint14_linear_1356_166378" x1="379.175" y1="241.605" x2="379.175" y2="274.785" gradientUnits="userSpaceOnUse">
<stop stop-color="white" stop-opacity="0.2"/>
<stop offset="1" stop-color="white" stop-opacity="0.1"/>
</linearGradient>
<linearGradient id="paint15_linear_1356_166378" x1="494.132" y1="241.605" x2="494.132" y2="274.785" gradientUnits="userSpaceOnUse">
<stop stop-color="white" stop-opacity="0.2"/>
<stop offset="1" stop-color="white" stop-opacity="0.1"/>
</linearGradient>
<linearGradient id="paint16_linear_1356_166378" x1="203.103" y1="341.32" x2="203.103" y2="403.283" gradientUnits="userSpaceOnUse">
<stop stop-color="white" stop-opacity="0.2"/>
<stop offset="1" stop-color="white" stop-opacity="0.1"/>
</linearGradient>
<linearGradient id="paint17_linear_1356_166378" x1="536.13" y1="341.32" x2="536.13" y2="403.283" gradientUnits="userSpaceOnUse">
<stop stop-color="white" stop-opacity="0.2"/>
<stop offset="1" stop-color="white" stop-opacity="0.1"/>
</linearGradient>
<clipPath id="clip0_1356_166378">
<path d="M0 16.3516C0 7.51501 7.16344 0.351562 16 0.351562H484C492.837 0.351562 500 7.51501 500 16.3516V348.352C500 357.188 492.837 364.352 484 364.352H16C7.16345 364.352 0 357.188 0 348.352V16.3516Z" fill="white"/>
</clipPath>
<clipPath id="clip1_1356_166378">
<path d="M38.4336 102.435C38.4336 97.3452 42.56 93.2188 47.6502 93.2188H1024.61C1029.7 93.2188 1033.83 97.3452 1033.83 102.435V173.403C1033.83 178.493 1029.7 182.62 1024.61 182.62H47.6502C42.56 182.62 38.4336 178.493 38.4336 173.403V102.435Z" fill="white"/>
</clipPath>
<clipPath id="clip2_1356_166378">
<rect width="12.9032" height="12.9032" fill="white" transform="translate(55.9443 203.816)"/>
</clipPath>
<clipPath id="clip3_1356_166378">
<rect width="18.4332" height="18.4332" fill="white" transform="translate(156.949 248.979)"/>
</clipPath>
<clipPath id="clip4_1356_166378">
<rect width="18.4332" height="18.4332" fill="white" transform="translate(250.032 248.979)"/>
</clipPath>
<clipPath id="clip5_1356_166378">
<rect width="18.4332" height="18.4332" fill="white" transform="translate(345.115 248.979)"/>
</clipPath>
<clipPath id="clip6_1356_166378">
<rect width="18.4332" height="18.4332" fill="white" transform="translate(437.198 248.979)"/>
</clipPath>
</defs>
</svg>
