<svg width="500" height="364" viewBox="0 0 500 364" fill="none" xmlns="http://www.w3.org/2000/svg">
<g clip-path="url(#clip0_1870_49004)">
<path d="M0 16C0 7.16344 7.16344 0 16 0H484C492.837 0 500 7.16344 500 16V348C500 356.837 492.837 364 484 364H16C7.16345 364 0 356.837 0 348V16Z" fill="url(#paint0_linear_1870_49004)" fill-opacity="0.2"/>
<path d="M0 16C0 7.16344 7.16344 0 16 0H484C492.837 0 500 7.16344 500 16V348C500 356.837 492.837 364 484 364H16C7.16345 364 0 356.837 0 348V16Z" fill="url(#paint1_linear_1870_49004)"/>
<path d="M20 43.5945C20 35.3356 20 31.2062 21.6073 28.0518C23.0211 25.277 25.277 23.0211 28.0518 21.6073C31.2062 20 35.3356 20 43.5945 20H1028.66C1036.92 20 1041.05 20 1044.21 21.6073C1046.98 23.0211 1049.24 25.277 1050.65 28.0518C1052.26 31.2062 1052.26 35.3356 1052.26 43.5945V398.124C1052.26 406.383 1052.26 410.513 1050.65 413.667C1049.24 416.442 1046.98 418.698 1044.21 420.112C1041.05 421.719 1036.92 421.719 1028.66 421.719H43.5945C35.3356 421.719 31.2062 421.719 28.0518 420.112C25.277 418.698 23.0211 416.442 21.6073 413.667C20 410.513 20 406.383 20 398.124V43.5945Z" fill="url(#paint2_linear_1870_49004)"/>
<path d="M43.5947 20.4609H1028.66C1032.8 20.4609 1035.88 20.4611 1038.31 20.6602C1040.74 20.8587 1042.5 21.2526 1044 22.0176C1046.69 23.3872 1048.87 25.5727 1050.24 28.2607C1051.01 29.7621 1051.4 31.5159 1051.6 33.9463C1051.8 36.3822 1051.8 39.4577 1051.8 43.5947V398.124C1051.8 402.261 1051.8 405.337 1051.6 407.772C1051.4 410.203 1051.01 411.957 1050.24 413.458C1048.87 416.146 1046.69 418.332 1044 419.701C1042.5 420.466 1040.74 420.86 1038.31 421.059C1035.88 421.258 1032.8 421.258 1028.66 421.258H43.5947C39.4577 421.258 36.3822 421.258 33.9463 421.059C31.5159 420.86 29.7621 420.466 28.2607 419.701C25.5728 418.332 23.3872 416.146 22.0176 413.458C21.2526 411.957 20.8587 410.203 20.6602 407.772C20.4611 405.337 20.4609 402.261 20.4609 398.124V43.5947C20.4609 39.4577 20.4611 36.3822 20.6602 33.9463C20.8587 31.5159 21.2526 29.7621 22.0176 28.2607C23.3872 25.5728 25.5728 23.3872 28.2607 22.0176C29.7621 21.2526 31.5159 20.8587 33.9463 20.6602C36.3822 20.4611 39.4577 20.4609 43.5947 20.4609Z" stroke="black" stroke-opacity="0.08" stroke-width="0.921659"/>
<rect x="38.9336" y="38.9336" width="24.8064" height="24.8064" rx="5.7724" fill="url(#paint3_linear_1870_49004)" fill-opacity="0.7"/>
<rect x="38.9336" y="38.9336" width="24.8064" height="24.8064" rx="5.7724" stroke="url(#paint4_linear_1870_49004)"/>
<path d="M54.0248 51.3366C54.0248 52.8212 52.8212 54.0248 51.3366 54.0248C49.852 54.0248 48.6484 52.8212 48.6484 51.3366C48.6484 49.852 49.852 48.6484 51.3366 48.6484" stroke="url(#paint5_linear_1870_49004)" stroke-width="0.806451" stroke-linecap="round"/>
<path d="M52.4125 46.0685C52.0651 45.998 51.7055 45.9609 51.3373 45.9609C48.368 45.9609 45.9609 48.368 45.9609 51.3373C45.9609 54.3065 48.368 56.7136 51.3373 56.7136C54.3065 56.7136 56.7136 54.3065 56.7136 51.3373C56.7136 50.9691 56.6766 50.6094 56.6061 50.262" stroke="url(#paint6_linear_1870_49004)" stroke-width="0.806451" stroke-linecap="round"/>
<path d="M51.3555 51.3157L53.8033 48.8679M55.5007 47.2201L55.2033 46.1517C55.1485 45.9757 54.9367 45.9056 54.794 46.0222C54.0219 46.6532 53.1808 47.503 53.8677 48.8435C55.2516 49.4889 56.0416 48.6186 56.6474 47.8871C56.768 47.7416 56.6953 47.5228 56.5138 47.4703L55.5007 47.2201Z" stroke="url(#paint7_linear_1870_49004)" stroke-width="0.806451" stroke-linecap="round" stroke-linejoin="round"/>
<path d="M73.2944 53.4336H71.7902L75.6833 42.7718H77.2907L81.1985 53.4336H79.6796L78.7211 50.7792H74.2382L73.2944 53.4336ZM76.3027 45.0723L74.6806 49.5258H78.2935L76.6566 45.0723C76.5829 44.8659 76.5091 44.6152 76.4796 44.453C76.4501 44.6004 76.3764 44.8511 76.3027 45.0723ZM83.9725 42.7718V53.4336H82.5273V42.7718H83.9725ZM94.738 53.5958C91.7003 53.5958 89.68 51.4133 89.68 48.1101C89.68 44.8216 91.7592 42.5949 94.8118 42.5949C97.2155 42.5949 99.0588 44.0253 99.4569 46.2078H97.9086C97.5104 44.8216 96.3159 43.9811 94.7675 43.9811C92.6145 43.9811 91.1989 45.6032 91.1989 48.0953C91.1989 50.5875 92.6145 52.2096 94.7675 52.2096C96.3307 52.2096 97.5694 51.3691 97.9675 50.0566H99.5012C99.044 52.1801 97.1417 53.5958 94.738 53.5958ZM100.477 49.8207C100.477 47.594 102.069 46.0308 104.237 46.0308C106.39 46.0308 107.983 47.594 107.983 49.8207C107.983 52.0474 106.39 53.6106 104.237 53.6106C102.069 53.6106 100.477 52.0474 100.477 49.8207ZM101.878 49.8207C101.878 51.3248 102.836 52.3718 104.237 52.3718C105.623 52.3718 106.597 51.3248 106.597 49.8207C106.597 48.3165 105.623 47.2695 104.237 47.2695C102.836 47.2695 101.878 48.3165 101.878 49.8207ZM110.815 53.4336H109.429V46.2225H110.682L110.83 47.3285C111.287 46.5027 112.201 46.0161 113.219 46.0161C115.121 46.0161 115.991 47.1811 115.991 49.0244V53.4336H114.605V49.3341C114.605 47.8741 113.927 47.2843 112.865 47.2843C111.567 47.2843 110.815 48.2133 110.815 49.6142V53.4336ZM119.858 53.4336H118.471V47.3875H117.056V46.2225H118.471V43.9663H119.858V46.2225H121.273V47.3875H119.858V53.4336ZM126.558 46.1635V47.4318H125.938C124.626 47.4318 123.815 48.2281 123.815 49.6142V53.4336H122.429V46.2373H123.726L123.815 47.3285C124.11 46.5765 124.832 46.0751 125.82 46.0751C126.071 46.0751 126.278 46.1046 126.558 46.1635ZM127.038 49.8207C127.038 47.594 128.631 46.0308 130.799 46.0308C132.952 46.0308 134.544 47.594 134.544 49.8207C134.544 52.0474 132.952 53.6106 130.799 53.6106C128.631 53.6106 127.038 52.0474 127.038 49.8207ZM128.439 49.8207C128.439 51.3248 129.398 52.3718 130.799 52.3718C132.185 52.3718 133.158 51.3248 133.158 49.8207C133.158 48.3165 132.185 47.2695 130.799 47.2695C129.398 47.2695 128.439 48.3165 128.439 49.8207ZM137.406 53.4336H136.02V42.5801H137.406V53.4336ZM147.681 49.629H144.983V53.4336H143.538V42.7718H147.681C149.775 42.7718 151.117 44.1433 151.117 46.193C151.117 48.1838 149.761 49.629 147.681 49.629ZM147.431 44.0695H144.983V48.3313H147.372C148.802 48.3313 149.599 47.4907 149.599 46.1783C149.599 44.8364 148.787 44.0695 147.431 44.0695ZM154.251 53.6106C152.702 53.6106 151.788 52.7405 151.788 51.4281C151.788 50.1009 152.776 49.2751 154.472 49.1424L156.743 48.9654V48.7589C156.743 47.5497 156.02 47.1221 155.047 47.1221C153.882 47.1221 153.218 47.6382 153.218 48.5082H152.009C152.009 47.0041 153.248 46.0161 155.106 46.0161C156.89 46.0161 158.099 46.9599 158.099 48.9064V53.4336H156.92L156.772 52.2686C156.404 53.0944 155.416 53.6106 154.251 53.6106ZM154.649 52.5341C155.961 52.5341 156.758 51.6788 156.758 50.3221V49.9387L154.914 50.0861C153.69 50.2041 153.189 50.676 153.189 51.3838C153.189 52.1506 153.749 52.5341 154.649 52.5341ZM161.317 53.4336H159.931V46.2225H161.184L161.332 47.3285C161.789 46.5027 162.703 46.0161 163.721 46.0161C165.623 46.0161 166.493 47.1811 166.493 49.0244V53.4336H165.107V49.3341C165.107 47.8741 164.428 47.2843 163.367 47.2843C162.069 47.2843 161.317 48.2133 161.317 49.6142V53.4336ZM171.436 53.6106C169.312 53.6106 167.852 52.0769 167.852 49.8354C167.852 47.5792 169.283 46.0161 171.377 46.0161C173.427 46.0161 174.769 47.4318 174.769 49.57V50.0861L169.194 50.1009C169.298 51.6198 170.094 52.4603 171.465 52.4603C172.542 52.4603 173.25 52.0179 173.486 51.1921H174.783C174.429 52.7405 173.22 53.6106 171.436 53.6106ZM171.377 47.1811C170.168 47.1811 169.401 47.9036 169.224 49.1718H173.382C173.382 47.9774 172.601 47.1811 171.377 47.1811ZM177.644 53.4336H176.258V42.5801H177.644V53.4336Z" fill="black"/>
<path d="M75.2778 74.1211L71.7423 64.8824H72.7359L75.2004 71.3082C75.3939 71.8114 75.5746 72.3146 75.781 72.9598C75.9746 72.2888 76.2068 71.6437 76.3488 71.2953L78.8004 64.8824H79.7552L76.2455 74.1211H75.2778ZM80.9891 66.1598C80.6278 66.1598 80.331 65.863 80.331 65.5017C80.331 65.1405 80.6278 64.8308 80.9891 64.8308C81.3504 64.8308 81.6601 65.1405 81.6601 65.5017C81.6601 65.863 81.3504 66.1598 80.9891 66.1598ZM80.5504 74.1211V67.8759H81.4407V74.1211H80.5504ZM85.6586 74.2759C83.8264 74.2759 82.6006 72.9598 82.6006 70.9985C82.6006 69.0501 83.8135 67.7082 85.5941 67.7082C87.2844 67.7082 88.4328 68.9082 88.4328 70.6759V71.1146H83.4651C83.5296 72.6372 84.3296 73.5146 85.6715 73.5146C86.6909 73.5146 87.349 73.0759 87.5812 72.2501H88.4328C88.0974 73.5663 87.1296 74.2759 85.6586 74.2759ZM85.5941 68.4695C84.4199 68.4695 83.6457 69.2437 83.4909 70.4695H87.5425C87.5425 69.2695 86.7683 68.4695 85.5941 68.4695ZM90.7506 74.1211L88.6861 67.8759H89.6022L90.828 71.6437C90.9699 72.0566 91.0861 72.4824 91.2151 72.9856C91.3183 72.4824 91.5248 71.8501 91.5893 71.6437L92.828 67.8759H93.7441L94.9699 71.6437C95.0861 71.9792 95.2409 72.5211 95.357 72.9856C95.4861 72.4695 95.5119 72.3146 95.7312 71.6437L96.9699 67.8759H97.899L95.7828 74.1211H94.9183L93.628 70.1985C93.4732 69.734 93.3699 69.3469 93.2925 68.9727C93.2022 69.3082 93.099 69.6824 92.9312 70.1985L91.6409 74.1211H90.7506ZM103.867 74.2759C102.538 74.2759 101.751 73.5275 101.751 72.4308C101.751 71.2824 102.628 70.5598 104.086 70.4437L106.151 70.2759V70.0695C106.151 68.8437 105.415 68.4566 104.499 68.4566C103.415 68.4566 102.77 68.9469 102.77 69.7856H101.957C101.957 68.5211 102.99 67.7082 104.525 67.7082C105.97 67.7082 107.028 68.4308 107.028 70.0824V74.1211H106.28L106.164 73.0243C105.777 73.8114 104.925 74.2759 103.867 74.2759ZM104.074 73.5534C105.39 73.5534 106.151 72.6372 106.151 71.2824V70.9469L104.306 71.0888C103.132 71.1921 102.654 71.7082 102.654 72.405C102.654 73.1663 103.222 73.5534 104.074 73.5534ZM109.447 74.1211H108.557V67.8759H109.331L109.46 68.9598C109.873 68.1598 110.699 67.7082 111.602 67.7082C113.318 67.7082 114.028 68.7275 114.028 70.3017V74.1211H113.138V70.4953C113.138 69.0372 112.48 68.5211 111.447 68.5211C110.17 68.5211 109.447 69.4501 109.447 70.8566V74.1211ZM117.996 74.2759C116.177 74.2759 115.106 72.8824 115.106 71.0114C115.106 69.1275 116.177 67.7082 118.035 67.7082C119.067 67.7082 119.893 68.1598 120.331 69.063V64.7146H121.222V74.1211H120.448L120.357 72.8437C119.919 73.8114 119.041 74.2759 117.996 74.2759ZM118.151 73.463C119.519 73.463 120.319 72.4308 120.319 70.9856C120.319 69.5534 119.519 68.5082 118.151 68.5082C116.796 68.5082 116.009 69.5534 116.009 70.9856C116.009 72.4308 116.796 73.463 118.151 73.463ZM125.703 71.0114C125.703 69.0501 126.903 67.7082 128.723 67.7082C130.168 67.7082 131.226 68.5469 131.471 69.8372H130.581C130.349 68.9727 129.6 68.4953 128.736 68.4953C127.471 68.4953 126.581 69.463 126.581 70.9985C126.581 72.4824 127.407 73.4759 128.671 73.4759C129.6 73.4759 130.349 72.9598 130.594 72.1598H131.497C131.2 73.4372 130.09 74.2759 128.671 74.2759C126.903 74.2759 125.703 72.9727 125.703 71.0114ZM136.975 67.8759H137.865V74.1211H137.091L136.975 73.063C136.626 73.7856 135.762 74.2759 134.781 74.2759C133.31 74.2759 132.51 73.2695 132.51 71.7469V67.863H133.413V71.463C133.413 72.9469 134.072 73.4759 135.065 73.4759C136.265 73.4759 136.975 72.6759 136.975 71.1921V67.8759ZM138.807 72.3663H139.658C139.658 73.0888 140.2 73.5404 141.078 73.5404C142.045 73.5404 142.613 73.1275 142.613 72.4566C142.613 71.9404 142.355 71.6437 141.62 71.463L140.549 71.1921C139.465 70.9211 138.936 70.3534 138.936 69.5017C138.936 68.405 139.852 67.7082 141.194 67.7082C142.51 67.7082 143.361 68.4308 143.4 69.5921H142.536C142.51 68.8695 142.007 68.4437 141.168 68.4437C140.29 68.4437 139.8 68.8179 139.8 69.4888C139.8 69.9663 140.136 70.3017 140.82 70.4695L141.89 70.7404C142.974 71.0114 143.465 71.5146 143.465 72.4179C143.465 73.5404 142.51 74.2759 141.09 74.2759C139.684 74.2759 138.807 73.5275 138.807 72.3663ZM146.105 74.1211H145.227V68.6243H143.976V67.8759H145.227V65.9017H146.105V67.8759H147.356V68.6243H146.105V74.1211ZM147.756 70.9985C147.756 69.0888 149.098 67.7082 150.93 67.7082C152.762 67.7082 154.104 69.0888 154.104 70.9985C154.104 72.8953 152.762 74.2759 150.93 74.2759C149.098 74.2759 147.756 72.8953 147.756 70.9985ZM148.659 70.9856C148.659 72.4566 149.588 73.4759 150.93 73.4759C152.259 73.4759 153.201 72.4566 153.201 70.9856C153.201 69.5404 152.259 68.5082 150.93 68.5082C149.588 68.5082 148.659 69.5404 148.659 70.9856ZM156.16 74.1211H155.27V67.8759H156.044L156.148 68.7663C156.457 68.1082 157.154 67.7082 158.031 67.7082C159.012 67.7082 159.748 68.2243 160.044 69.0372C160.328 68.2243 161.089 67.7082 162.096 67.7082C163.451 67.7082 164.341 68.5856 164.341 70.0308V74.1211H163.477V70.2114C163.477 69.1404 162.883 68.5082 161.928 68.5082C160.883 68.5082 160.264 69.2953 160.264 70.263V74.1211H159.386V70.1985C159.386 69.1404 158.78 68.5211 157.838 68.5211C156.793 68.5211 156.16 69.2953 156.16 70.2501V74.1211ZM166.313 66.1598C165.951 66.1598 165.655 65.863 165.655 65.5017C165.655 65.1405 165.951 64.8308 166.313 64.8308C166.674 64.8308 166.984 65.1405 166.984 65.5017C166.984 65.863 166.674 66.1598 166.313 66.1598ZM165.874 74.1211V67.8759H166.764V74.1211H165.874ZM172.647 74.1211H167.937V73.4114L171.55 68.6243H167.937V67.8759H172.647V68.5985L169.021 73.3727H172.647V74.1211ZM176.243 74.2759C174.411 74.2759 173.185 72.9598 173.185 70.9985C173.185 69.0501 174.398 67.7082 176.179 67.7082C177.869 67.7082 179.017 68.9082 179.017 70.6759V71.1146H174.05C174.114 72.6372 174.914 73.5146 176.256 73.5146C177.276 73.5146 177.934 73.0759 178.166 72.2501H179.017C178.682 73.5663 177.714 74.2759 176.243 74.2759ZM176.179 68.4695C175.005 68.4695 174.23 69.2437 174.076 70.4695H178.127C178.127 69.2695 177.353 68.4695 176.179 68.4695ZM182.871 76.8437V76.1082H183.555C184.097 76.1082 184.639 76.0695 184.949 75.2308L185.22 74.4953L182.691 67.8759H183.633L185.645 73.3211L187.62 67.8759H188.536L185.671 75.5534C185.31 76.534 184.703 76.934 183.813 76.934C183.439 76.934 183.155 76.9082 182.871 76.8437ZM188.666 70.9985C188.666 69.0888 190.008 67.7082 191.84 67.7082C193.673 67.7082 195.014 69.0888 195.014 70.9985C195.014 72.8953 193.673 74.2759 191.84 74.2759C190.008 74.2759 188.666 72.8953 188.666 70.9985ZM189.569 70.9856C189.569 72.4566 190.498 73.4759 191.84 73.4759C193.169 73.4759 194.111 72.4566 194.111 70.9856C194.111 69.5404 193.169 68.5082 191.84 68.5082C190.498 68.5082 189.569 69.5404 189.569 70.9856ZM200.416 67.8759H201.307V74.1211H200.532L200.416 73.063C200.068 73.7856 199.203 74.2759 198.223 74.2759C196.752 74.2759 195.952 73.2695 195.952 71.7469V67.863H196.855V71.463C196.855 72.9469 197.513 73.4759 198.507 73.4759C199.707 73.4759 200.416 72.6759 200.416 71.1921V67.8759ZM206.168 67.7985V68.5985H205.677C204.529 68.5985 203.793 69.3727 203.793 70.5598V74.1211H202.903V67.8759H203.742L203.806 68.8437C204.052 68.1727 204.71 67.734 205.587 67.734C205.781 67.734 205.948 67.7469 206.168 67.7985ZM210.607 74.1211H209.665L213.059 64.8824H214.207L217.64 74.1211H216.672L215.769 71.6695H211.511L210.607 74.1211ZM213.511 66.1856L211.794 70.8566H215.472L213.743 66.1856C213.704 66.0566 213.64 65.9017 213.627 65.8114C213.614 65.8888 213.562 66.0566 213.511 66.1856ZM219.595 64.8824V74.1211H218.666V64.8824H219.595ZM223.936 65.734V64.8824H230.555V65.734H227.704V74.1211H226.775V65.734H223.936ZM233.878 67.7985V68.5985H233.388C232.24 68.5985 231.504 69.3727 231.504 70.5598V74.1211H230.614V67.8759H231.453L231.517 68.8437C231.762 68.1727 232.42 67.734 233.298 67.734C233.491 67.734 233.659 67.7469 233.878 67.7985ZM236.345 74.2759C235.016 74.2759 234.229 73.5275 234.229 72.4308C234.229 71.2824 235.107 70.5598 236.565 70.4437L238.629 70.2759V70.0695C238.629 68.8437 237.894 68.4566 236.978 68.4566C235.894 68.4566 235.249 68.9469 235.249 69.7856H234.436C234.436 68.5211 235.468 67.7082 237.003 67.7082C238.449 67.7082 239.507 68.4308 239.507 70.0824V74.1211H238.758L238.642 73.0243C238.255 73.8114 237.403 74.2759 236.345 74.2759ZM236.552 73.5534C237.868 73.5534 238.629 72.6372 238.629 71.2824V70.9469L236.784 71.0888C235.61 71.1921 235.132 71.7082 235.132 72.405C235.132 73.1663 235.7 73.5534 236.552 73.5534ZM243.487 74.2759C241.667 74.2759 240.597 72.8824 240.597 71.0114C240.597 69.1275 241.667 67.7082 243.526 67.7082C244.558 67.7082 245.384 68.1598 245.822 69.063V64.7146H246.713V74.1211H245.938L245.848 72.8437C245.409 73.8114 244.532 74.2759 243.487 74.2759ZM243.642 73.463C245.009 73.463 245.809 72.4308 245.809 70.9856C245.809 69.5534 245.009 68.5082 243.642 68.5082C242.287 68.5082 241.5 69.5534 241.5 70.9856C241.5 72.4308 242.287 73.463 243.642 73.463ZM248.751 66.1598C248.39 66.1598 248.093 65.863 248.093 65.5017C248.093 65.1405 248.39 64.8308 248.751 64.8308C249.112 64.8308 249.422 65.1405 249.422 65.5017C249.422 65.863 249.112 66.1598 248.751 66.1598ZM248.312 74.1211V67.8759H249.203V74.1211H248.312ZM251.692 74.1211H250.801V67.8759H251.576L251.705 68.9598C252.117 68.1598 252.943 67.7082 253.847 67.7082C255.563 67.7082 256.272 68.7275 256.272 70.3017V74.1211H255.382V70.4953C255.382 69.0372 254.724 68.5211 253.692 68.5211C252.414 68.5211 251.692 69.4501 251.692 70.8566V74.1211ZM257.363 70.8179C257.363 69.1146 258.46 67.7082 260.292 67.7082C261.376 67.7082 262.202 68.2114 262.602 69.1275L262.692 67.8759H263.466V73.9275C263.466 75.7856 262.279 76.9985 260.447 76.9985C258.847 76.9985 257.724 76.0953 257.479 74.5856H258.369C258.563 75.5921 259.337 76.1856 260.46 76.1856C261.737 76.1856 262.589 75.3211 262.589 74.0179V72.534C262.163 73.4114 261.298 73.9275 260.227 73.9275C258.447 73.9275 257.363 72.5211 257.363 70.8179ZM258.253 70.805C258.253 72.0824 259.04 73.1275 260.356 73.1275C261.711 73.1275 262.511 72.1469 262.511 70.805C262.511 69.4759 261.737 68.4953 260.369 68.4953C259.027 68.4953 258.253 69.5404 258.253 70.805ZM272.348 74.263C269.767 74.263 268.012 72.3404 268.012 69.5017C268.012 66.663 269.793 64.7275 272.399 64.7275C274.387 64.7275 275.948 65.9275 276.322 67.7598H275.328C274.941 66.4308 273.806 65.6179 272.361 65.6179C270.335 65.6179 268.98 67.1663 268.98 69.5017C268.98 71.8243 270.335 73.3727 272.361 73.3727C273.819 73.3727 274.98 72.5856 275.38 71.3469H276.374C275.948 73.0888 274.335 74.263 272.348 74.263ZM277.09 70.9985C277.09 69.0888 278.432 67.7082 280.264 67.7082C282.096 67.7082 283.438 69.0888 283.438 70.9985C283.438 72.8953 282.096 74.2759 280.264 74.2759C278.432 74.2759 277.09 72.8953 277.09 70.9985ZM277.993 70.9856C277.993 72.4566 278.922 73.4759 280.264 73.4759C281.593 73.4759 282.535 72.4566 282.535 70.9856C282.535 69.5404 281.593 68.5082 280.264 68.5082C278.922 68.5082 277.993 69.5404 277.993 70.9856ZM285.495 74.1211H284.604V67.8759H285.378L285.482 68.7663C285.791 68.1082 286.488 67.7082 287.366 67.7082C288.346 67.7082 289.082 68.2243 289.378 69.0372C289.662 68.2243 290.424 67.7082 291.43 67.7082C292.785 67.7082 293.675 68.5856 293.675 70.0308V74.1211H292.811V70.2114C292.811 69.1404 292.217 68.5082 291.262 68.5082C290.217 68.5082 289.598 69.2953 289.598 70.263V74.1211H288.72V70.1985C288.72 69.1404 288.114 68.5211 287.172 68.5211C286.127 68.5211 285.495 69.2953 285.495 70.2501V74.1211ZM295.208 76.8437V67.8759H295.982L296.073 69.1404C296.511 68.1727 297.389 67.7082 298.434 67.7082C300.24 67.7082 301.324 69.0888 301.324 70.9727C301.324 72.8566 300.279 74.2759 298.434 74.2759C297.376 74.2759 296.537 73.8243 296.098 72.9211V76.8437H295.208ZM296.111 70.9985C296.111 72.4308 296.911 73.4759 298.279 73.4759C299.634 73.4759 300.421 72.4308 300.421 70.9985C300.421 69.5534 299.634 68.5211 298.279 68.5211C296.911 68.5211 296.111 69.5534 296.111 70.9985ZM304.279 74.2759C302.95 74.2759 302.163 73.5275 302.163 72.4308C302.163 71.2824 303.04 70.5598 304.498 70.4437L306.563 70.2759V70.0695C306.563 68.8437 305.827 68.4566 304.911 68.4566C303.827 68.4566 303.182 68.9469 303.182 69.7856H302.369C302.369 68.5211 303.401 67.7082 304.937 67.7082C306.382 67.7082 307.44 68.4308 307.44 70.0824V74.1211H306.692L306.576 73.0243C306.189 73.8114 305.337 74.2759 304.279 74.2759ZM304.485 73.5534C305.801 73.5534 306.563 72.6372 306.563 71.2824V70.9469L304.718 71.0888C303.543 71.1921 303.066 71.7082 303.066 72.405C303.066 73.1663 303.634 73.5534 304.485 73.5534ZM309.859 74.1211H308.969V67.8759H309.743L309.872 68.9598C310.285 68.1598 311.111 67.7082 312.014 67.7082C313.73 67.7082 314.44 68.7275 314.44 70.3017V74.1211H313.549V70.4953C313.549 69.0372 312.891 68.5211 311.859 68.5211C310.582 68.5211 309.859 69.4501 309.859 70.8566V74.1211ZM316.395 66.1598C316.033 66.1598 315.737 65.863 315.737 65.5017C315.737 65.1405 316.033 64.8308 316.395 64.8308C316.756 64.8308 317.066 65.1405 317.066 65.5017C317.066 65.863 316.756 66.1598 316.395 66.1598ZM315.956 74.1211V67.8759H316.846V74.1211H315.956ZM318.006 70.9985C318.006 69.0888 319.348 67.7082 321.18 67.7082C323.013 67.7082 324.355 69.0888 324.355 70.9985C324.355 72.8953 323.013 74.2759 321.18 74.2759C319.348 74.2759 318.006 72.8953 318.006 70.9985ZM318.909 70.9856C318.909 72.4566 319.839 73.4759 321.18 73.4759C322.509 73.4759 323.451 72.4566 323.451 70.9856C323.451 69.5404 322.509 68.5082 321.18 68.5082C319.839 68.5082 318.909 69.5404 318.909 70.9856ZM326.411 74.1211H325.521V67.8759H326.295L326.424 68.9598C326.837 68.1598 327.663 67.7082 328.566 67.7082C330.282 67.7082 330.992 68.7275 330.992 70.3017V74.1211H330.101V70.4953C330.101 69.0372 329.443 68.5211 328.411 68.5211C327.133 68.5211 326.411 69.4501 326.411 70.8566V74.1211ZM335.829 76.8437V67.8759H336.603L336.693 69.1404C337.132 68.1727 338.009 67.7082 339.054 67.7082C340.861 67.7082 341.945 69.0888 341.945 70.9727C341.945 72.8566 340.9 74.2759 339.054 74.2759C337.996 74.2759 337.158 73.8243 336.719 72.9211V76.8437H335.829ZM336.732 70.9985C336.732 72.4308 337.532 73.4759 338.9 73.4759C340.254 73.4759 341.041 72.4308 341.041 70.9985C341.041 69.5534 340.254 68.5211 338.9 68.5211C337.532 68.5211 336.732 69.5534 336.732 70.9985ZM342.667 70.9985C342.667 69.0888 344.009 67.7082 345.841 67.7082C347.674 67.7082 349.015 69.0888 349.015 70.9985C349.015 72.8953 347.674 74.2759 345.841 74.2759C344.009 74.2759 342.667 72.8953 342.667 70.9985ZM343.57 70.9856C343.57 72.4566 344.499 73.4759 345.841 73.4759C347.17 73.4759 348.112 72.4566 348.112 70.9856C348.112 69.5404 347.17 68.5082 345.841 68.5082C344.499 68.5082 343.57 69.5404 343.57 70.9856ZM351.22 74.1211L349.156 67.8759H350.072L351.298 71.6437C351.44 72.0566 351.556 72.4824 351.685 72.9856C351.788 72.4824 351.994 71.8501 352.059 71.6437L353.298 67.8759H354.214L355.44 71.6437C355.556 71.9792 355.711 72.5211 355.827 72.9856C355.956 72.4695 355.982 72.3146 356.201 71.6437L357.44 67.8759H358.369L356.253 74.1211H355.388L354.098 70.1985C353.943 69.734 353.84 69.3469 353.762 68.9727C353.672 69.3082 353.569 69.6824 353.401 70.1985L352.111 74.1211H351.22ZM361.565 74.2759C359.733 74.2759 358.507 72.9598 358.507 70.9985C358.507 69.0501 359.72 67.7082 361.5 67.7082C363.191 67.7082 364.339 68.9082 364.339 70.6759V71.1146H359.371C359.436 72.6372 360.236 73.5146 361.578 73.5146C362.597 73.5146 363.255 73.0759 363.487 72.2501H364.339C364.004 73.5663 363.036 74.2759 361.565 74.2759ZM361.5 68.4695C360.326 68.4695 359.552 69.2437 359.397 70.4695H363.449C363.449 69.2695 362.675 68.4695 361.5 68.4695ZM368.769 67.7985V68.5985H368.279C367.13 68.5985 366.395 69.3727 366.395 70.5598V74.1211H365.504V67.8759H366.343L366.408 68.8437C366.653 68.1727 367.311 67.734 368.188 67.734C368.382 67.734 368.55 67.7469 368.769 67.7985ZM369.165 72.3663H370.017C370.017 73.0888 370.559 73.5404 371.436 73.5404C372.404 73.5404 372.972 73.1275 372.972 72.4566C372.972 71.9404 372.714 71.6437 371.978 71.463L370.907 71.1921C369.824 70.9211 369.294 70.3534 369.294 69.5017C369.294 68.405 370.211 67.7082 371.553 67.7082C372.869 67.7082 373.72 68.4308 373.759 69.5921H372.894C372.869 68.8695 372.365 68.4437 371.527 68.4437C370.649 68.4437 370.159 68.8179 370.159 69.4888C370.159 69.9663 370.494 70.3017 371.178 70.4695L372.249 70.7404C373.333 71.0114 373.824 71.5146 373.824 72.4179C373.824 73.5404 372.869 74.2759 371.449 74.2759C370.043 74.2759 369.165 73.5275 369.165 72.3663Z" fill="black" fill-opacity="0.8"/>
<g clip-path="url(#clip1_1870_49004)">
<path d="M38.4336 102.084C38.4336 96.9936 42.56 92.8672 47.6502 92.8672H1024.61C1029.7 92.8672 1033.83 96.9936 1033.83 102.084V173.051C1033.83 178.142 1029.7 182.268 1024.61 182.268H47.6502C42.56 182.268 38.4336 178.142 38.4336 173.051V102.084Z" fill="black" fill-opacity="0.03"/>
<rect x="49.9922" y="113.057" width="24.8064" height="24.8064" rx="5.7724" fill="url(#paint8_linear_1870_49004)" fill-opacity="0.7"/>
<rect x="49.9922" y="113.057" width="24.8064" height="24.8064" rx="5.7724" stroke="url(#paint9_linear_1870_49004)"/>
<path d="M62.6644 123.309L61.3203 125.459H63.4708L62.1268 127.61" stroke="url(#paint10_linear_1870_49004)" stroke-width="0.806451" stroke-linecap="round" stroke-linejoin="round"/>
<path d="M67.2405 126.609C67.5211 126.532 67.6614 126.493 67.7168 126.42C67.7722 126.346 67.7722 126.227 67.7722 125.989V124.929C67.7722 124.691 67.7722 124.573 67.7168 124.499C67.6614 124.425 67.5211 124.386 67.2405 124.309C66.1919 124.021 65.5356 122.902 65.8062 121.839C65.8807 121.547 65.9179 121.401 65.8823 121.315C65.8468 121.229 65.7448 121.17 65.5409 121.052L64.6136 120.515C64.4135 120.399 64.3135 120.341 64.2236 120.353C64.1338 120.366 64.0325 120.469 63.8299 120.675C63.0453 121.474 61.7473 121.474 60.9627 120.675C60.7601 120.469 60.6588 120.366 60.569 120.353C60.4791 120.341 60.3791 120.399 60.179 120.515L59.2517 121.052C59.0478 121.17 58.9458 121.229 58.9103 121.315C58.8747 121.401 58.9119 121.547 58.9863 121.839C59.2568 122.902 58.6 124.021 57.5513 124.309C57.2707 124.386 57.1304 124.425 57.075 124.499C57.0195 124.573 57.0195 124.691 57.0195 124.929V125.989C57.0195 126.227 57.0195 126.346 57.0749 126.42C57.1304 126.493 57.2707 126.532 57.5513 126.609C58.5999 126.898 59.2561 128.016 58.9855 129.079C58.9111 129.371 58.8739 129.518 58.9094 129.603C58.9449 129.689 59.0469 129.748 59.2508 129.866L60.1781 130.403C60.3782 130.519 60.4783 130.577 60.5681 130.565C60.658 130.553 60.7593 130.449 60.9618 130.243C61.7468 129.444 63.0458 129.444 63.8307 130.243C64.0334 130.449 64.1347 130.553 64.2245 130.565C64.3143 130.577 64.4144 130.519 64.6145 130.403L65.5417 129.866C65.7457 129.748 65.8477 129.689 65.8832 129.603C65.9187 129.518 65.8815 129.371 65.8071 129.079C65.5363 128.016 66.1921 126.898 67.2405 126.609Z" stroke="url(#paint11_linear_1870_49004)" stroke-width="0.806451" stroke-linecap="round"/>
<path d="M84.353 131.459H82.8488L86.7419 120.797H88.3493L92.2571 131.459H90.7382L89.7797 128.805H85.2968L84.353 131.459ZM87.3613 123.098L85.7392 127.551H89.3521L87.7152 123.098C87.6415 122.891 87.5677 122.641 87.5382 122.478C87.5087 122.626 87.435 122.876 87.3613 123.098ZM94.8246 120.797V131.459H93.3795V120.797H94.8246ZM104.897 127.654H102.198V131.459H100.753V120.797H104.897C106.991 120.797 108.333 122.169 108.333 124.218C108.333 126.209 106.976 127.654 104.897 127.654ZM104.646 122.095H102.198V126.357H104.587C106.018 126.357 106.814 125.516 106.814 124.204C106.814 122.862 106.003 122.095 104.646 122.095ZM108.636 127.846C108.636 125.619 110.229 124.056 112.396 124.056C114.549 124.056 116.142 125.619 116.142 127.846C116.142 130.073 114.549 131.636 112.396 131.636C110.229 131.636 108.636 130.073 108.636 127.846ZM110.037 127.846C110.037 129.35 110.995 130.397 112.396 130.397C113.782 130.397 114.756 129.35 114.756 127.846C114.756 126.342 113.782 125.295 112.396 125.295C110.995 125.295 110.037 126.342 110.037 127.846ZM118.599 131.459L116.239 124.248H117.67L118.864 127.994C119.026 128.524 119.174 129.07 119.306 129.704C119.424 129.07 119.616 128.465 119.778 127.994L120.988 124.248H122.403L123.598 127.994C123.716 128.347 123.952 129.188 124.07 129.704C124.188 129.129 124.32 128.628 124.527 127.994L125.736 124.248H127.181L124.718 131.459H123.406L122.153 127.595C121.917 126.873 121.769 126.312 121.695 125.914C121.622 126.268 121.489 126.74 121.223 127.61L119.97 131.459H118.599ZM130.855 131.636C128.731 131.636 127.271 130.102 127.271 127.861C127.271 125.605 128.702 124.041 130.796 124.041C132.845 124.041 134.187 125.457 134.187 127.595V128.112L128.613 128.126C128.716 129.645 129.513 130.486 130.884 130.486C131.961 130.486 132.669 130.043 132.904 129.218H134.202C133.848 130.766 132.639 131.636 130.855 131.636ZM130.796 125.206C129.586 125.206 128.82 125.929 128.643 127.197H132.801C132.801 126.003 132.02 125.206 130.796 125.206ZM139.57 124.189V125.457H138.95C137.638 125.457 136.827 126.253 136.827 127.64V131.459H135.441V124.263H136.738L136.827 125.354C137.122 124.602 137.844 124.1 138.832 124.1C139.083 124.1 139.29 124.13 139.57 124.189ZM145.993 120.797V130.117H150.683V131.459H144.548V120.797H145.993ZM154.689 131.636C152.566 131.636 151.106 130.102 151.106 127.861C151.106 125.605 152.536 124.041 154.63 124.041C156.68 124.041 158.022 125.457 158.022 127.595V128.112L152.448 128.126C152.551 129.645 153.347 130.486 154.719 130.486C155.795 130.486 156.503 130.043 156.739 129.218H158.037C157.683 130.766 156.474 131.636 154.689 131.636ZM154.63 125.206C153.421 125.206 152.654 125.929 152.477 127.197H156.636C156.636 126.003 155.854 125.206 154.63 125.206ZM161.051 131.459L158.146 124.248H159.62L161.198 128.274C161.449 128.952 161.655 129.557 161.773 129.999C161.891 129.527 162.127 128.908 162.378 128.274L163.985 124.248H165.431L162.422 131.459H161.051ZM169.019 131.636C166.895 131.636 165.435 130.102 165.435 127.861C165.435 125.605 166.866 124.041 168.96 124.041C171.01 124.041 172.352 125.457 172.352 127.595V128.112L166.777 128.126C166.881 129.645 167.677 130.486 169.048 130.486C170.125 130.486 170.833 130.043 171.069 129.218H172.366C172.012 130.766 170.803 131.636 169.019 131.636ZM168.96 125.206C167.751 125.206 166.984 125.929 166.807 127.197H170.965C170.965 126.003 170.184 125.206 168.96 125.206ZM175.021 131.459H173.634V120.606H175.021V131.459Z" fill="black"/>
<rect x="49.4922" y="151.393" width="557.604" height="7.37327" rx="3.68664" fill="white"/>
<rect x="368.301" y="149.549" width="11.0599" height="11.0599" rx="5.52995" fill="black"/>
<circle cx="373.831" cy="155.079" r="2.76498" fill="white"/>
</g>
<path d="M47.6504 93.3281H1024.61C1029.44 93.3281 1033.36 97.2483 1033.36 102.084V173.052C1033.36 177.887 1029.44 181.808 1024.61 181.808H47.6504C42.8148 181.808 38.8947 177.887 38.8945 173.052V102.084C38.8945 97.2483 42.8147 93.3281 47.6504 93.3281Z" stroke="white" stroke-opacity="0.02" stroke-width="0.921659"/>
<rect x="49.9922" y="197.514" width="24.8064" height="24.8064" rx="5.7724" fill="url(#paint12_linear_1870_49004)" fill-opacity="0.7"/>
<rect x="49.9922" y="197.514" width="24.8064" height="24.8064" rx="5.7724" stroke="#3EDC81"/>
<g clip-path="url(#clip2_1870_49004)">
<path d="M58.0923 207.229H59.7052C59.8478 207.229 59.9846 207.172 60.0854 207.071C60.1862 206.97 60.2429 206.834 60.2429 206.691V206.153C60.2429 205.868 60.3561 205.595 60.5578 205.393C60.7594 205.191 61.0329 205.078 61.3181 205.078C61.6033 205.078 61.8768 205.191 62.0785 205.393C62.2801 205.595 62.3934 205.868 62.3934 206.153V206.691C62.3934 206.834 62.45 206.97 62.5509 207.071C62.6517 207.172 62.7884 207.229 62.931 207.229H64.5439C64.6865 207.229 64.8233 207.285 64.9241 207.386C65.0249 207.487 65.0816 207.624 65.0816 207.766V209.379C65.0816 209.522 65.1382 209.659 65.239 209.759C65.3399 209.86 65.4766 209.917 65.6192 209.917H66.1568C66.442 209.917 66.7155 210.03 66.9172 210.232C67.1188 210.433 67.2321 210.707 67.2321 210.992C67.2321 211.277 67.1188 211.551 66.9172 211.752C66.7155 211.954 66.442 212.067 66.1568 212.067H65.6192C65.4766 212.067 65.3399 212.124 65.239 212.225C65.1382 212.326 65.0816 212.462 65.0816 212.605V214.218C65.0816 214.36 65.0249 214.497 64.9241 214.598C64.8233 214.699 64.6865 214.756 64.5439 214.756H62.931C62.7884 214.756 62.6517 214.699 62.5509 214.598C62.45 214.497 62.3934 214.36 62.3934 214.218V213.68C62.3934 213.395 62.2801 213.122 62.0785 212.92C61.8768 212.718 61.6033 212.605 61.3181 212.605C61.0329 212.605 60.7594 212.718 60.5578 212.92C60.3561 213.122 60.2429 213.395 60.2429 213.68V214.218C60.2429 214.36 60.1862 214.497 60.0854 214.598C59.9846 214.699 59.8478 214.756 59.7052 214.756H58.0923C57.9497 214.756 57.813 214.699 57.7122 214.598C57.6113 214.497 57.5547 214.36 57.5547 214.218V212.605C57.5547 212.462 57.6113 212.326 57.7122 212.225C57.813 212.124 57.9497 212.067 58.0923 212.067H58.63C58.9151 212.067 59.1886 211.954 59.3903 211.752C59.5919 211.551 59.7052 211.277 59.7052 210.992C59.7052 210.707 59.5919 210.433 59.3903 210.232C59.1886 210.03 58.9151 209.917 58.63 209.917H58.0923C57.9497 209.917 57.813 209.86 57.7122 209.759C57.6113 209.659 57.5547 209.522 57.5547 209.379V207.766C57.5547 207.624 57.6113 207.487 57.7122 207.386C57.813 207.285 57.9497 207.229 58.0923 207.229Z" stroke="#3EDC81" stroke-width="1.15207" stroke-linecap="round" stroke-linejoin="round"/>
</g>
<path d="M84.353 215.916H82.8488L86.7419 205.254H88.3493L92.2571 215.916H90.7382L89.7797 213.262H85.2968L84.353 215.916ZM87.3613 207.555L85.7392 212.008H89.3521L87.7152 207.555C87.6415 207.348 87.5677 207.098 87.5382 206.935C87.5087 207.083 87.435 207.334 87.3613 207.555ZM92.398 212.318C92.398 210.062 93.8284 208.499 95.9372 208.499C97.751 208.499 99.0192 209.531 99.2699 211.138H97.8837C97.6478 210.224 96.9105 209.737 95.9814 209.737C94.669 209.737 93.7695 210.74 93.7695 212.303C93.7695 213.852 94.61 214.854 95.9224 214.854C96.9105 214.854 97.6478 214.338 97.8985 213.483H99.2847C99.0045 215.046 97.6625 216.093 95.9224 216.093C93.7989 216.093 92.398 214.589 92.398 212.318ZM102.487 215.916H101.101V209.87H99.6855V208.705H101.101V206.449H102.487V208.705H103.903V209.87H102.487V215.916ZM105.53 206.994C105.029 206.994 104.616 206.581 104.616 206.08C104.616 205.564 105.029 205.166 105.53 205.166C106.032 205.166 106.445 205.564 106.445 206.08C106.445 206.581 106.032 206.994 105.53 206.994ZM104.852 215.916V208.705H106.238V215.916H104.852ZM109.976 215.916L107.071 208.705H108.546L110.123 212.731C110.374 213.409 110.581 214.014 110.699 214.456C110.817 213.984 111.053 213.365 111.303 212.731L112.911 208.705H114.356L111.347 215.916H109.976ZM117.944 216.093C115.82 216.093 114.361 214.559 114.361 212.318C114.361 210.062 115.791 208.499 117.885 208.499C119.935 208.499 121.277 209.914 121.277 212.052V212.569L115.703 212.583C115.806 214.102 116.602 214.943 117.973 214.943C119.05 214.943 119.758 214.5 119.994 213.675H121.291C120.938 215.223 119.728 216.093 117.944 216.093ZM117.885 209.663C116.676 209.663 115.909 210.386 115.732 211.654H119.891C119.891 210.46 119.109 209.663 117.885 209.663ZM126.946 215.916H125.442L129.335 205.254H130.942L134.85 215.916H133.331L132.372 213.262H127.889L126.946 215.916ZM129.954 207.555L128.332 212.008H131.945L130.308 207.555C130.234 207.348 130.16 207.098 130.131 206.935C130.101 207.083 130.028 207.334 129.954 207.555ZM138.353 216.093C136.259 216.093 134.991 214.53 134.991 212.333C134.991 210.121 136.274 208.499 138.412 208.499C139.518 208.499 140.447 208.985 140.934 209.87V205.063H142.305V215.916H141.066L140.948 214.604C140.476 215.592 139.503 216.093 138.353 216.093ZM138.633 214.84C140.049 214.84 140.919 213.793 140.919 212.288C140.919 210.814 140.049 209.752 138.633 209.752C137.217 209.752 136.392 210.814 136.392 212.288C136.392 213.778 137.217 214.84 138.633 214.84ZM146.9 216.093C144.806 216.093 143.538 214.53 143.538 212.333C143.538 210.121 144.821 208.499 146.959 208.499C148.065 208.499 148.994 208.985 149.481 209.87V205.063H150.852V215.916H149.614L149.496 214.604C149.024 215.592 148.05 216.093 146.9 216.093ZM147.18 214.84C148.596 214.84 149.466 213.793 149.466 212.288C149.466 210.814 148.596 209.752 147.18 209.752C145.765 209.752 144.939 210.814 144.939 212.288C144.939 213.778 145.765 214.84 147.18 214.84ZM152.483 212.628V211.389H156.981V212.628H152.483ZM168.464 210.578C168.464 213.822 166.34 216.093 163.317 216.093C160.309 216.093 158.215 213.822 158.215 210.578C158.215 207.348 160.324 205.063 163.332 205.063C166.355 205.063 168.464 207.334 168.464 210.578ZM166.945 210.578C166.945 208.1 165.5 206.463 163.332 206.463C161.164 206.463 159.734 208.1 159.734 210.578C159.734 213.055 161.164 214.707 163.332 214.707C165.5 214.707 166.945 213.04 166.945 210.578ZM171.167 215.916H169.781V208.705H171.035L171.182 209.811C171.639 208.985 172.554 208.499 173.571 208.499C175.473 208.499 176.343 209.663 176.343 211.507V215.916H174.957V211.816C174.957 210.357 174.279 209.767 173.217 209.767C171.919 209.767 171.167 210.696 171.167 212.097V215.916ZM177.292 213.822H178.619C178.619 214.559 179.18 215.002 180.094 215.002C181.067 215.002 181.628 214.604 181.628 213.94C181.628 213.453 181.392 213.158 180.64 212.967L179.371 212.672C178.088 212.362 177.484 211.728 177.484 210.666C177.484 209.339 178.605 208.499 180.197 208.499C181.775 208.499 182.807 209.383 182.837 210.755H181.51C181.48 210.032 180.994 209.575 180.153 209.575C179.283 209.575 178.796 209.958 178.796 210.622C178.796 211.109 179.15 211.433 179.858 211.61L181.126 211.92C182.35 212.215 182.955 212.775 182.955 213.852C182.955 215.223 181.775 216.093 180.064 216.093C178.369 216.093 177.292 215.193 177.292 213.822Z" fill="black"/>
<path d="M49.4922 256C49.4922 250.839 49.4922 248.258 50.4967 246.286C51.3804 244.552 52.7903 243.142 54.5245 242.258C56.4961 241.254 59.077 241.254 64.2387 241.254H125.612C130.774 241.254 133.355 241.254 135.326 242.258C137.06 243.142 138.47 244.552 139.354 246.286C140.359 248.258 140.359 250.839 140.359 256V259.687C140.359 264.849 140.359 267.43 139.354 269.401C138.47 271.135 137.06 272.545 135.326 273.429C133.355 274.434 130.774 274.434 125.612 274.434H64.2387C59.0769 274.434 56.4961 274.434 54.5245 273.429C52.7903 272.545 51.3804 271.135 50.4967 269.401C49.4922 267.43 49.4922 264.849 49.4922 259.687V256Z" fill="url(#paint13_linear_1870_49004)" fill-opacity="0.5"/>
<path d="M64.2383 241.754H125.612C128.201 241.754 130.113 241.754 131.625 241.878C133.131 242.001 134.196 242.244 135.1 242.704C136.74 243.54 138.073 244.874 138.908 246.514C139.368 247.417 139.611 248.482 139.734 249.987C139.858 251.499 139.858 253.411 139.858 256V259.688C139.858 262.276 139.858 264.188 139.734 265.7C139.611 267.206 139.368 268.27 138.908 269.174C138.073 270.814 136.74 272.148 135.1 272.983C134.196 273.444 133.131 273.687 131.625 273.81C130.113 273.933 128.201 273.934 125.612 273.934H64.2383C61.6494 273.934 59.7373 273.933 58.2256 273.81C56.72 273.687 55.6553 273.444 54.752 272.983C53.1118 272.148 51.7781 270.814 50.9424 269.174C50.4821 268.27 50.2392 267.206 50.1162 265.7C49.9927 264.188 49.9922 262.276 49.9922 259.688V256C49.9922 253.411 49.9927 251.499 50.1162 249.987C50.2393 248.482 50.4821 247.417 50.9424 246.514C51.7781 244.874 53.1118 243.54 54.752 242.704C55.6553 242.244 56.72 242.001 58.2256 241.878C59.3595 241.785 60.7189 241.762 62.4199 241.756L64.2383 241.754Z" stroke="black" stroke-opacity="0.08"/>
<path d="M62.2455 252.082C61.8369 252.082 61.4356 252.191 61.0827 252.397C60.7299 252.603 60.4382 252.899 60.2376 253.255C60.0369 253.611 59.9346 254.014 59.9409 254.422C59.9473 254.831 60.0622 255.23 60.2739 255.58C59.7482 255.682 59.2743 255.963 58.9335 256.376C58.5927 256.789 58.4062 257.308 58.4062 257.843C58.4062 258.378 58.5927 258.897 58.9335 259.31C59.2743 259.723 59.7482 260.004 60.2739 260.106M62.2455 252.082C62.2455 251.573 62.4478 251.085 62.8079 250.725C63.168 250.364 63.6563 250.162 64.1656 250.162C64.6748 250.162 65.1632 250.364 65.5233 250.725C65.8834 251.085 66.0857 251.573 66.0857 252.082M62.2455 252.082C62.2455 252.71 62.5473 253.268 63.0135 253.618M60.2739 260.106C60.0624 260.456 59.9477 260.855 59.9414 261.263C59.9351 261.672 60.0375 262.075 60.2382 262.43C60.4388 262.786 60.7304 263.082 61.0831 263.288C61.4358 263.494 61.837 263.603 62.2455 263.603C62.2455 264.112 62.4478 264.601 62.8079 264.961C63.168 265.321 63.6563 265.523 64.1656 265.523C64.6748 265.523 65.1632 265.321 65.5233 264.961C65.8834 264.601 66.0857 264.112 66.0857 263.603M60.2739 260.106C60.5495 259.65 60.9749 259.303 61.4774 259.125M66.0857 252.082V263.603M66.0857 252.082C66.0857 251.573 66.288 251.085 66.6481 250.725C67.0082 250.364 67.4966 250.162 68.0058 250.162C68.5151 250.162 69.0035 250.364 69.3636 250.725C69.7237 251.085 69.926 251.573 69.926 252.082C70.3346 252.082 70.7359 252.191 71.0887 252.397C71.4415 252.603 71.7332 252.899 71.9338 253.255C72.1345 253.611 72.2369 254.014 72.2305 254.422C72.2241 254.831 72.1092 255.23 71.8975 255.58M66.0857 263.603C66.0857 264.112 66.288 264.601 66.6481 264.961C67.0082 265.321 67.4966 265.523 68.0058 265.523C68.5151 265.523 69.0035 265.321 69.3636 264.961C69.7237 264.601 69.926 264.112 69.926 263.603M69.926 263.603C70.3344 263.603 70.7356 263.494 71.0883 263.288C71.441 263.082 71.7327 262.786 71.9333 262.43C72.1339 262.075 72.2363 261.672 72.23 261.263C72.2238 260.855 72.109 260.456 71.8975 260.106C72.4232 260.004 72.8972 259.723 73.238 259.31C73.5788 258.897 73.7652 258.378 73.7652 257.843C73.7652 257.308 73.5788 256.789 73.238 256.376C72.8972 255.963 72.4232 255.682 71.8975 255.58M69.926 263.603C69.926 262.975 69.6241 262.417 69.1579 262.067M71.8975 255.58C71.6216 256.036 71.1963 256.382 70.694 256.559" stroke="black" stroke-width="1.15207" stroke-linecap="round" stroke-linejoin="round"/>
<path d="M80.577 262.344H79.106L82.0258 254.259H83.4747L86.3945 262.344H84.9014L84.2489 260.475H81.2295L80.577 262.344ZM82.5678 256.67L81.6498 259.28H83.8397L82.9106 256.67C82.8443 256.46 82.7669 256.217 82.7447 256.051C82.7116 256.206 82.6452 256.449 82.5678 256.67ZM88.6028 254.259V262.344H87.1871V254.259H88.6028ZM93.6303 262.344H92.1593L95.0791 254.259H96.528L99.4478 262.344H97.9547L97.3022 260.475H94.2828L93.6303 262.344ZM95.6211 256.67L94.7031 259.28H96.893L95.9639 256.67C95.8976 256.46 95.8201 256.217 95.798 256.051C95.7648 256.206 95.6985 256.449 95.6211 256.67ZM101.391 262.344H100.041V256.88H101.291L101.402 257.588C101.745 257.035 102.408 256.714 103.149 256.714C104.521 256.714 105.228 257.566 105.228 258.982V262.344H103.879V259.302C103.879 258.384 103.426 257.942 102.729 257.942C101.899 257.942 101.391 258.517 101.391 259.402V262.344ZM107.959 262.488C106.797 262.488 106.09 261.813 106.09 260.784C106.09 259.778 106.82 259.147 108.114 259.048L109.75 258.926V258.805C109.75 258.064 109.308 257.765 108.622 257.765C107.826 257.765 107.384 258.097 107.384 258.672H106.233C106.233 257.488 107.207 256.714 108.689 256.714C110.16 256.714 111.067 257.511 111.067 259.026V262.344H109.883L109.784 261.536C109.551 262.1 108.81 262.488 107.959 262.488ZM108.401 261.47C109.231 261.47 109.761 260.972 109.761 260.132V259.844L108.622 259.933C107.782 260.01 107.461 260.287 107.461 260.729C107.461 261.227 107.793 261.47 108.401 261.47ZM113.531 262.344H112.193V254.115H113.531V262.344ZM114.25 264.876V263.748H115.057C115.588 263.748 115.92 263.627 116.152 262.985L116.307 262.576L114.106 256.88H115.533L116.937 260.862L118.42 256.88H119.813L117.137 263.56C116.727 264.578 116.152 264.998 115.256 264.998C114.88 264.998 114.549 264.954 114.25 264.876ZM119.819 260.685H121.102C121.113 261.16 121.467 261.459 122.086 261.459C122.717 261.459 123.06 261.205 123.06 260.806C123.06 260.53 122.916 260.331 122.429 260.22L121.445 259.988C120.461 259.767 119.985 259.302 119.985 258.429C119.985 257.356 120.892 256.714 122.153 256.714C123.38 256.714 124.21 257.422 124.221 258.484H122.938C122.927 258.019 122.617 257.721 122.098 257.721C121.567 257.721 121.257 257.964 121.257 258.373C121.257 258.683 121.5 258.882 121.965 258.993L122.949 259.225C123.867 259.435 124.332 259.855 124.332 260.696C124.332 261.802 123.392 262.488 122.042 262.488C120.682 262.488 119.819 261.758 119.819 260.685ZM125.812 255.785C125.348 255.785 124.983 255.42 124.983 254.967C124.983 254.513 125.348 254.159 125.812 254.159C126.255 254.159 126.62 254.513 126.62 254.967C126.62 255.42 126.255 255.785 125.812 255.785ZM125.138 262.344V256.88H126.487V262.344H125.138ZM127.24 260.685H128.523C128.534 261.16 128.888 261.459 129.507 261.459C130.137 261.459 130.48 261.205 130.48 260.806C130.48 260.53 130.336 260.331 129.85 260.22L128.865 259.988C127.881 259.767 127.406 259.302 127.406 258.429C127.406 257.356 128.313 256.714 129.573 256.714C130.801 256.714 131.63 257.422 131.642 258.484H130.359C130.348 258.019 130.038 257.721 129.518 257.721C128.987 257.721 128.677 257.964 128.677 258.373C128.677 258.683 128.921 258.882 129.385 258.993L130.37 259.225C131.288 259.435 131.752 259.855 131.752 260.696C131.752 261.802 130.812 262.488 129.463 262.488C128.102 262.488 127.24 261.758 127.24 260.685Z" fill="black"/>
<path d="M149.574 256C149.574 250.839 149.574 248.258 150.579 246.286C151.462 244.552 152.872 243.142 154.607 242.258C156.578 241.254 159.159 241.254 164.321 241.254H218.694C223.856 241.254 226.437 241.254 228.408 242.258C230.142 243.142 231.552 244.552 232.436 246.286C233.441 248.258 233.441 250.839 233.441 256V259.687C233.441 264.849 233.441 267.43 232.436 269.401C231.552 271.135 230.142 272.545 228.408 273.429C226.437 274.434 223.856 274.434 218.694 274.434H164.321C159.159 274.434 156.578 274.434 154.607 273.429C152.872 272.545 151.462 271.135 150.579 269.401C149.574 267.43 149.574 264.849 149.574 259.687V256Z" fill="url(#paint14_linear_1870_49004)" fill-opacity="0.5"/>
<path d="M164.32 241.754H218.694C221.283 241.754 223.195 241.754 224.707 241.878C226.213 242.001 227.278 242.244 228.182 242.704C229.822 243.54 231.155 244.874 231.99 246.514C232.45 247.417 232.693 248.482 232.816 249.987C232.94 251.499 232.94 253.411 232.94 256V259.688C232.94 262.276 232.94 264.188 232.816 265.7C232.693 267.206 232.45 268.27 231.99 269.174C231.155 270.814 229.822 272.148 228.182 272.983C227.278 273.444 226.213 273.687 224.707 273.81C223.195 273.933 221.283 273.934 218.694 273.934H164.32C161.731 273.934 159.819 273.933 158.308 273.81C156.802 273.687 155.737 273.444 154.834 272.983C153.194 272.148 151.86 270.814 151.024 269.174C150.564 268.27 150.321 267.206 150.198 265.7C150.075 264.188 150.074 262.276 150.074 259.688V256C150.074 253.411 150.075 251.499 150.198 249.987C150.321 248.482 150.564 247.417 151.024 246.514C151.86 244.874 153.194 243.54 154.834 242.704C155.737 242.244 156.802 242.001 158.308 241.878C159.819 241.754 161.731 241.754 164.32 241.754Z" stroke="black" stroke-opacity="0.08"/>
<g clip-path="url(#clip3_1870_49004)">
<path d="M160.023 263.219H172.312" stroke="black" stroke-width="1.15207" stroke-linecap="round" stroke-linejoin="round"/>
<path d="M160.023 260.147L163.096 255.539L166.168 257.075L169.24 253.234L172.312 256.307" stroke="black" stroke-width="1.15207" stroke-linecap="round" stroke-linejoin="round"/>
</g>
<path d="M179.254 255.564V254.259H185.404V255.564H183.037V262.344H181.621V255.564H179.254ZM187.581 262.488C185.955 262.488 184.816 261.304 184.816 259.612C184.816 257.898 185.933 256.714 187.537 256.714C189.174 256.714 190.213 257.809 190.213 259.512V259.922L186.099 259.933C186.198 260.895 186.707 261.382 187.603 261.382C188.344 261.382 188.831 261.094 188.986 260.574H190.235C190.003 261.769 189.008 262.488 187.581 262.488ZM187.548 257.82C186.751 257.82 186.265 258.252 186.132 259.07H188.875C188.875 258.318 188.355 257.82 187.548 257.82ZM190.751 259.601C190.751 257.909 191.868 256.714 193.483 256.714C194.976 256.714 195.994 257.544 196.137 258.86H194.788C194.633 258.241 194.18 257.92 193.538 257.92C192.676 257.92 192.101 258.572 192.101 259.601C192.101 260.629 192.631 261.271 193.494 261.271C194.169 261.271 194.644 260.939 194.788 260.342H196.148C195.983 261.614 194.921 262.488 193.494 262.488C191.835 262.488 190.751 261.337 190.751 259.601ZM198.281 262.344H196.932V254.115H198.292V257.588C198.635 257.057 199.276 256.714 200.061 256.714C201.411 256.714 202.119 257.566 202.119 258.982V262.344H200.769V259.302C200.769 258.384 200.316 257.942 199.63 257.942C198.779 257.942 198.281 258.539 198.281 259.358V262.344ZM204.572 262.344H203.223V256.88H204.473L204.584 257.588C204.926 257.035 205.59 256.714 206.331 256.714C207.702 256.714 208.41 257.566 208.41 258.982V262.344H207.061V259.302C207.061 258.384 206.607 257.942 205.911 257.942C205.081 257.942 204.572 258.517 204.572 259.402V262.344ZM210.189 255.785C209.725 255.785 209.36 255.42 209.36 254.967C209.36 254.513 209.725 254.159 210.189 254.159C210.632 254.159 210.997 254.513 210.997 254.967C210.997 255.42 210.632 255.785 210.189 255.785ZM209.515 262.344V256.88H210.864V262.344H209.515ZM211.716 259.601C211.716 257.909 212.833 256.714 214.448 256.714C215.941 256.714 216.959 257.544 217.102 258.86H215.753C215.598 258.241 215.145 257.92 214.503 257.92C213.641 257.92 213.066 258.572 213.066 259.601C213.066 260.629 213.596 261.271 214.459 261.271C215.134 261.271 215.609 260.939 215.753 260.342H217.113C216.948 261.614 215.886 262.488 214.459 262.488C212.8 262.488 211.716 261.337 211.716 259.601ZM219.522 262.488C218.361 262.488 217.653 261.813 217.653 260.784C217.653 259.778 218.383 259.147 219.677 259.048L221.314 258.926V258.805C221.314 258.064 220.872 257.765 220.186 257.765C219.39 257.765 218.947 258.097 218.947 258.672H217.797C217.797 257.488 218.77 256.714 220.252 256.714C221.723 256.714 222.63 257.511 222.63 259.026V262.344H221.447L221.347 261.536C221.115 262.1 220.374 262.488 219.522 262.488ZM219.965 261.47C220.794 261.47 221.325 260.972 221.325 260.132V259.844L220.186 259.933C219.345 260.01 219.025 260.287 219.025 260.729C219.025 261.227 219.356 261.47 219.965 261.47ZM225.095 262.344H223.757V254.115H225.095V262.344Z" fill="black"/>
<path d="M242.656 256C242.656 250.839 242.656 248.258 243.661 246.286C244.544 244.552 245.954 243.142 247.689 242.258C249.66 241.254 252.241 241.254 257.403 241.254H313.776C318.938 241.254 321.519 241.254 323.49 242.258C325.224 243.142 326.634 244.552 327.518 246.286C328.523 248.258 328.523 250.839 328.523 256V259.687C328.523 264.849 328.523 267.43 327.518 269.401C326.634 271.135 325.224 272.545 323.49 273.429C321.519 274.434 318.938 274.434 313.776 274.434H257.403C252.241 274.434 249.66 274.434 247.689 273.429C245.954 272.545 244.544 271.135 243.661 269.401C242.656 267.43 242.656 264.849 242.656 259.687V256Z" fill="url(#paint15_linear_1870_49004)" fill-opacity="0.5"/>
<path d="M257.402 241.754H313.776C316.365 241.754 318.277 241.754 319.789 241.878C321.295 242.001 322.36 242.244 323.264 242.704C324.904 243.54 326.237 244.874 327.072 246.514C327.533 247.417 327.775 248.482 327.898 249.987C328.022 251.499 328.022 253.411 328.022 256V259.688C328.022 262.276 328.022 264.188 327.898 265.7C327.775 267.206 327.533 268.27 327.072 269.174C326.237 270.814 324.904 272.148 323.264 272.983C322.36 273.444 321.295 273.687 319.789 273.81C318.277 273.933 316.365 273.934 313.776 273.934H257.402C254.813 273.934 252.901 273.933 251.39 273.81C249.884 273.687 248.819 273.444 247.916 272.983C246.276 272.148 244.942 270.814 244.106 269.174C243.646 268.27 243.403 267.206 243.28 265.7C243.157 264.188 243.156 262.276 243.156 259.688V256C243.156 253.411 243.157 251.499 243.28 249.987C243.403 248.482 243.646 247.417 244.106 246.514C244.942 244.874 246.276 243.54 247.916 242.704C248.819 242.244 249.884 242.001 251.39 241.878C252.524 241.785 253.883 241.762 255.584 241.756L257.402 241.754Z" stroke="black" stroke-opacity="0.08"/>
<g clip-path="url(#clip4_1870_49004)">
<path d="M263.086 251.698C263.086 251.494 263.167 251.299 263.311 251.155C263.455 251.011 263.65 250.93 263.854 250.93H265.39C265.594 250.93 265.789 251.011 265.933 251.155C266.077 251.299 266.158 251.494 266.158 251.698V253.234C266.158 253.438 266.077 253.633 265.933 253.777C265.789 253.921 265.594 254.002 265.39 254.002H263.854C263.65 254.002 263.455 253.921 263.311 253.777C263.167 253.633 263.086 253.438 263.086 253.234V251.698Z" stroke="black" stroke-width="1.15207" stroke-linecap="round" stroke-linejoin="round"/>
<path d="M252.336 262.45C252.336 262.246 252.417 262.051 252.561 261.907C252.705 261.763 252.9 261.682 253.104 261.682H254.64C254.844 261.682 255.039 261.763 255.183 261.907C255.327 262.051 255.408 262.246 255.408 262.45V263.986C255.408 264.189 255.327 264.385 255.183 264.529C255.039 264.673 254.844 264.754 254.64 264.754H253.104C252.9 264.754 252.705 264.673 252.561 264.529C252.417 264.385 252.336 264.189 252.336 263.986V262.45Z" stroke="black" stroke-width="1.15207" stroke-linecap="round" stroke-linejoin="round"/>
<path d="M263.084 252.465C257.994 252.465 253.867 256.592 253.867 261.681" stroke="black" stroke-width="1.15207" stroke-linecap="round" stroke-linejoin="round"/>
</g>
<path d="M277.468 259.037H274.46V262.344H273.044V254.259H278.043V255.564H274.46V257.765H277.468V259.037ZM279.574 255.785C279.109 255.785 278.744 255.42 278.744 254.967C278.744 254.513 279.109 254.159 279.574 254.159C280.016 254.159 280.381 254.513 280.381 254.967C280.381 255.42 280.016 255.785 279.574 255.785ZM278.899 262.344V256.88H280.249V262.344H278.899ZM282.671 262.344H281.421V254.115H282.771V257.676C283.125 257.068 283.855 256.703 284.684 256.703C286.244 256.703 287.195 257.92 287.195 259.645C287.195 261.326 286.166 262.488 284.596 262.488C283.777 262.488 283.08 262.123 282.76 261.492L282.671 262.344ZM282.782 259.59C282.782 260.574 283.39 261.249 284.319 261.249C285.27 261.249 285.834 260.563 285.834 259.59C285.834 258.617 285.27 257.92 284.319 257.92C283.39 257.92 282.782 258.606 282.782 259.59ZM287.727 259.601C287.727 257.898 288.955 256.725 290.647 256.725C292.339 256.725 293.567 257.898 293.567 259.601C293.567 261.304 292.339 262.476 290.647 262.476C288.955 262.476 287.727 261.304 287.727 259.601ZM289.076 259.601C289.076 260.596 289.718 261.271 290.647 261.271C291.576 261.271 292.217 260.596 292.217 259.601C292.217 258.606 291.576 257.931 290.647 257.931C289.718 257.931 289.076 258.606 289.076 259.601ZM295.764 262.344H294.415V256.88H295.665L295.775 257.588C296.118 257.035 296.782 256.714 297.523 256.714C298.894 256.714 299.602 257.566 299.602 258.982V262.344H298.253V259.302C298.253 258.384 297.799 257.942 297.103 257.942C296.273 257.942 295.764 258.517 295.764 259.402V262.344ZM302.332 262.488C301.171 262.488 300.463 261.813 300.463 260.784C300.463 259.778 301.193 259.147 302.487 259.048L304.124 258.926V258.805C304.124 258.064 303.682 257.765 302.996 257.765C302.2 257.765 301.757 258.097 301.757 258.672H300.607C300.607 257.488 301.58 256.714 303.062 256.714C304.533 256.714 305.44 257.511 305.44 259.026V262.344H304.257L304.157 261.536C303.925 262.1 303.184 262.488 302.332 262.488ZM302.775 261.47C303.604 261.47 304.135 260.972 304.135 260.132V259.844L302.996 259.933C302.156 260.01 301.835 260.287 301.835 260.729C301.835 261.227 302.167 261.47 302.775 261.47ZM306.224 259.601C306.224 257.909 307.341 256.714 308.956 256.714C310.449 256.714 311.466 257.544 311.61 258.86H310.261C310.106 258.241 309.652 257.92 309.011 257.92C308.148 257.92 307.573 258.572 307.573 259.601C307.573 260.629 308.104 261.271 308.967 261.271C309.641 261.271 310.117 260.939 310.261 260.342H311.621C311.455 261.614 310.394 262.488 308.967 262.488C307.308 262.488 306.224 261.337 306.224 259.601ZM312.084 259.601C312.084 257.909 313.201 256.714 314.815 256.714C316.308 256.714 317.326 257.544 317.47 258.86H316.12C315.966 258.241 315.512 257.92 314.871 257.92C314.008 257.92 313.433 258.572 313.433 259.601C313.433 260.629 313.964 261.271 314.826 261.271C315.501 261.271 315.977 260.939 316.12 260.342H317.481C317.315 261.614 316.253 262.488 314.826 262.488C313.167 262.488 312.084 261.337 312.084 259.601ZM318.938 255.785C318.474 255.785 318.109 255.42 318.109 254.967C318.109 254.513 318.474 254.159 318.938 254.159C319.381 254.159 319.746 254.513 319.746 254.967C319.746 255.42 319.381 255.785 318.938 255.785ZM318.264 262.344V256.88H319.613V262.344H318.264Z" fill="black"/>
<path d="M337.742 256C337.742 250.839 337.742 248.258 338.747 246.286C339.63 244.552 341.04 243.142 342.775 242.258C344.746 241.254 347.327 241.254 352.489 241.254H405.862C411.024 241.254 413.605 241.254 415.576 242.258C417.31 243.142 418.72 244.552 419.604 246.286C420.609 248.258 420.609 250.839 420.609 256V259.687C420.609 264.849 420.609 267.43 419.604 269.401C418.72 271.135 417.31 272.545 415.576 273.429C413.605 274.434 411.024 274.434 405.862 274.434H352.489C347.327 274.434 344.746 274.434 342.775 273.429C341.04 272.545 339.63 271.135 338.747 269.401C337.742 267.43 337.742 264.849 337.742 259.687V256Z" fill="url(#paint16_linear_1870_49004)" fill-opacity="0.5"/>
<path d="M352.488 241.754H405.862C408.451 241.754 410.363 241.754 411.875 241.878C413.381 242.001 414.446 242.244 415.35 242.704C416.99 243.54 418.323 244.874 419.158 246.514C419.618 247.417 419.861 248.482 419.984 249.987C420.108 251.499 420.108 253.411 420.108 256V259.688C420.108 262.276 420.108 264.188 419.984 265.7C419.861 267.206 419.618 268.27 419.158 269.174C418.323 270.814 416.99 272.148 415.35 272.983C414.446 273.444 413.381 273.687 411.875 273.81C410.363 273.933 408.451 273.934 405.862 273.934H352.488C349.899 273.934 347.987 273.933 346.476 273.81C344.97 273.687 343.905 273.444 343.002 272.983C341.362 272.148 340.028 270.814 339.192 269.174C338.732 268.27 338.489 267.206 338.366 265.7C338.243 264.188 338.242 262.276 338.242 259.688V256C338.242 253.411 338.243 251.499 338.366 249.987C338.489 248.482 338.732 247.417 339.192 246.514C340.028 244.874 341.362 243.54 343.002 242.704C343.905 242.244 344.97 242.001 346.476 241.878C347.987 241.754 349.899 241.754 352.488 241.754Z" stroke="black" stroke-opacity="0.08"/>
<g clip-path="url(#clip5_1870_49004)">
<path d="M350.496 263.986H358.177" stroke="black" stroke-width="1.15207" stroke-linecap="round" stroke-linejoin="round"/>
<path d="M349.727 253.233L354.335 252.465L358.943 253.233" stroke="black" stroke-width="1.15207" stroke-linecap="round" stroke-linejoin="round"/>
<path d="M354.336 250.93V263.987" stroke="black" stroke-width="1.15207" stroke-linecap="round" stroke-linejoin="round"/>
<path d="M352.03 257.843L349.726 253.234L347.422 257.843C347.422 258.454 347.665 259.04 348.097 259.472C348.529 259.904 349.115 260.147 349.726 260.147C350.337 260.147 350.923 259.904 351.355 259.472C351.787 259.04 352.03 258.454 352.03 257.843Z" stroke="black" stroke-width="1.15207" stroke-linecap="round" stroke-linejoin="round"/>
<path d="M361.249 257.843L358.945 253.234L356.641 257.843C356.641 258.454 356.883 259.04 357.315 259.472C357.748 259.904 358.334 260.147 358.945 260.147C359.556 260.147 360.142 259.904 360.574 259.472C361.006 259.04 361.249 258.454 361.249 257.843Z" stroke="black" stroke-width="1.15207" stroke-linecap="round" stroke-linejoin="round"/>
</g>
<path d="M369.546 262.344H368.13V254.259H371.216C373.052 254.259 374.125 255.188 374.125 256.781C374.125 257.864 373.616 258.639 372.665 259.026L374.202 262.344H372.654L371.282 259.324H369.546V262.344ZM369.546 255.52V258.075H371.216C372.112 258.075 372.643 257.599 372.643 256.781C372.643 255.973 372.112 255.52 371.216 255.52H369.546ZM375.794 255.785C375.329 255.785 374.964 255.42 374.964 254.967C374.964 254.513 375.329 254.159 375.794 254.159C376.236 254.159 376.601 254.513 376.601 254.967C376.601 255.42 376.236 255.785 375.794 255.785ZM375.119 262.344V256.88H376.469V262.344H375.119ZM377.221 260.685H378.504C378.515 261.16 378.869 261.459 379.488 261.459C380.119 261.459 380.462 261.205 380.462 260.806C380.462 260.53 380.318 260.331 379.831 260.22L378.847 259.988C377.863 259.767 377.387 259.302 377.387 258.429C377.387 257.356 378.294 256.714 379.555 256.714C380.782 256.714 381.612 257.422 381.623 258.484H380.34C380.329 258.019 380.019 257.721 379.499 257.721C378.969 257.721 378.659 257.964 378.659 258.373C378.659 258.683 378.902 258.882 379.367 258.993L380.351 259.225C381.269 259.435 381.734 259.855 381.734 260.696C381.734 261.802 380.793 262.488 379.444 262.488C378.084 262.488 377.221 261.758 377.221 260.685ZM383.9 262.344H382.562V254.115H383.9V259.17L386.024 256.88H387.716L385.637 259.048L387.672 262.344H386.123L384.696 260.043L383.9 260.873V262.344ZM394.646 262.476C392.29 262.476 390.764 260.84 390.764 258.307C390.764 255.796 392.346 254.126 394.712 254.126C396.626 254.126 398.053 255.243 398.329 256.98H396.836C396.559 256.04 395.752 255.487 394.679 255.487C393.186 255.487 392.246 256.57 392.246 258.296C392.246 260.01 393.197 261.116 394.679 261.116C395.774 261.116 396.615 260.541 396.88 259.645H398.351C398.041 261.348 396.559 262.476 394.646 262.476ZM400.718 262.488C399.557 262.488 398.849 261.813 398.849 260.784C398.849 259.778 399.579 259.147 400.873 259.048L402.51 258.926V258.805C402.51 258.064 402.068 257.765 401.382 257.765C400.586 257.765 400.143 258.097 400.143 258.672H398.993C398.993 257.488 399.966 256.714 401.448 256.714C402.919 256.714 403.826 257.511 403.826 259.026V262.344H402.643L402.543 261.536C402.311 262.1 401.57 262.488 400.718 262.488ZM401.161 261.47C401.99 261.47 402.521 260.972 402.521 260.132V259.844L401.382 259.933C400.541 260.01 400.221 260.287 400.221 260.729C400.221 261.227 400.552 261.47 401.161 261.47ZM406.291 262.344H404.953V254.115H406.291V262.344ZM407.164 259.601C407.164 257.909 408.281 256.714 409.896 256.714C411.389 256.714 412.407 257.544 412.55 258.86H411.201C411.046 258.241 410.593 257.92 409.951 257.92C409.089 257.92 408.514 258.572 408.514 259.601C408.514 260.629 409.044 261.271 409.907 261.271C410.582 261.271 411.057 260.939 411.201 260.342H412.561C412.396 261.614 411.334 262.488 409.907 262.488C408.248 262.488 407.164 261.337 407.164 259.601Z" fill="black"/>
<g opacity="0.5">
<path d="M429.824 256C429.824 250.839 429.824 248.258 430.829 246.286C431.712 244.552 433.122 243.142 434.857 242.258C436.828 241.254 439.409 241.254 444.571 241.254H543.691C548.852 241.254 551.433 241.254 553.405 242.258C555.139 243.142 556.549 244.552 557.433 246.286C558.437 248.258 558.437 250.839 558.437 256V259.687C558.437 264.849 558.437 267.43 557.433 269.401C556.549 271.135 555.139 272.545 553.405 273.429C551.433 274.434 548.852 274.434 543.691 274.434H444.571C439.409 274.434 436.828 274.434 434.857 273.429C433.122 272.545 431.712 271.135 430.829 269.401C429.824 267.43 429.824 264.849 429.824 259.687V256Z" fill="url(#paint17_linear_1870_49004)" fill-opacity="0.5"/>
<path d="M444.57 241.754H543.69C546.279 241.754 548.191 241.754 549.703 241.878C551.209 242.001 552.274 242.244 553.178 242.704C554.818 243.54 556.152 244.874 556.987 246.514C557.447 247.417 557.69 248.482 557.813 249.987C557.937 251.499 557.937 253.411 557.938 256V259.688C557.937 262.276 557.937 264.188 557.813 265.7C557.69 267.206 557.447 268.27 556.987 269.174C556.152 270.814 554.818 272.148 553.178 272.983C552.274 273.444 551.209 273.687 549.703 273.81C548.191 273.933 546.279 273.934 543.69 273.934H444.57C441.981 273.934 440.069 273.933 438.558 273.81C437.052 273.687 435.987 273.444 435.084 272.983C433.444 272.148 432.11 270.814 431.274 269.174C430.814 268.27 430.571 267.206 430.448 265.7C430.325 264.188 430.324 262.276 430.324 259.688V256C430.324 253.411 430.325 251.499 430.448 249.987C430.571 248.482 430.814 247.417 431.274 246.514C432.11 244.874 433.444 243.54 435.084 242.704C435.987 242.244 437.052 242.001 438.558 241.878C439.692 241.785 441.051 241.762 442.752 241.756L444.57 241.754Z" stroke="black" stroke-opacity="0.08"/>
<g clip-path="url(#clip6_1870_49004)">
<path d="M444.883 257.843C444.883 258.25 445.045 258.641 445.333 258.929C445.621 259.217 446.012 259.379 446.419 259.379C446.826 259.379 447.217 259.217 447.505 258.929C447.793 258.641 447.955 258.25 447.955 257.843C447.955 257.435 447.793 257.045 447.505 256.757C447.217 256.468 446.826 256.307 446.419 256.307C446.012 256.307 445.621 256.468 445.333 256.757C445.045 257.045 444.883 257.435 444.883 257.843Z" stroke="black" stroke-width="1.15207" stroke-linecap="round" stroke-linejoin="round"/>
<path d="M453.329 257.843C451.485 260.915 449.181 262.451 446.416 262.451C443.651 262.451 441.347 260.915 439.504 257.843C441.347 254.77 443.651 253.234 446.416 253.234C449.181 253.234 451.485 254.77 453.329 257.843Z" stroke="black" stroke-width="1.15207" stroke-linecap="round" stroke-linejoin="round"/>
</g>
<path d="M459.748 256.515C459.748 255.1 460.92 254.115 462.623 254.115C464.26 254.115 465.3 255.022 465.344 256.482H463.928C463.895 255.785 463.398 255.376 462.601 255.376C461.727 255.376 461.163 255.796 461.163 256.471C461.163 257.046 461.473 257.367 462.148 257.522L463.42 257.798C464.802 258.097 465.477 258.805 465.477 260.01C465.477 261.514 464.304 262.488 462.524 262.488C460.798 262.488 459.67 261.57 459.637 260.121H461.053C461.064 260.806 461.617 261.216 462.524 261.216C463.464 261.216 464.061 260.806 464.061 260.132C464.061 259.59 463.785 259.269 463.121 259.125L461.838 258.838C460.467 258.539 459.748 257.754 459.748 256.515ZM467.687 262.344H466.337V256.88H467.576L467.687 257.522C467.963 257.068 468.516 256.714 469.301 256.714C470.131 256.714 470.706 257.123 470.993 257.754C471.27 257.123 471.911 256.714 472.741 256.714C474.068 256.714 474.798 257.511 474.798 258.771V262.344H473.46V259.125C473.46 258.34 473.04 257.931 472.398 257.931C471.745 257.931 471.248 258.351 471.248 259.247V262.344H469.898V259.114C469.898 258.351 469.489 257.942 468.848 257.942C468.206 257.942 467.687 258.362 467.687 259.247V262.344ZM477.527 262.488C476.366 262.488 475.658 261.813 475.658 260.784C475.658 259.778 476.388 259.147 477.682 259.048L479.319 258.926V258.805C479.319 258.064 478.877 257.765 478.191 257.765C477.395 257.765 476.952 258.097 476.952 258.672H475.802C475.802 257.488 476.775 256.714 478.257 256.714C479.728 256.714 480.635 257.511 480.635 259.026V262.344H479.452L479.352 261.536C479.12 262.1 478.379 262.488 477.527 262.488ZM477.97 261.47C478.799 261.47 479.33 260.972 479.33 260.132V259.844L478.191 259.933C477.35 260.01 477.03 260.287 477.03 260.729C477.03 261.227 477.361 261.47 477.97 261.47ZM485.168 256.858V258.108H484.67C483.697 258.108 483.089 258.628 483.089 259.689V262.344H481.739V256.891H483.011L483.089 257.688C483.321 257.146 483.841 256.781 484.571 256.781C484.759 256.781 484.947 256.803 485.168 256.858ZM487.934 262.344H486.585V258.008H485.534V256.88H486.585V255.177H487.934V256.88H488.996V258.008H487.934V262.344ZM493.269 262.344H491.798L494.718 254.259H496.167L499.087 262.344H497.594L496.941 260.475H493.922L493.269 262.344ZM495.26 256.67L494.342 259.28H496.532L495.603 256.67C495.536 256.46 495.459 256.217 495.437 256.051C495.404 256.206 495.337 256.449 495.26 256.67ZM501.041 262.344H499.702V254.115H501.041V262.344ZM504.679 262.488C503.053 262.488 501.914 261.304 501.914 259.612C501.914 257.898 503.031 256.714 504.635 256.714C506.272 256.714 507.311 257.809 507.311 259.512V259.922L503.197 259.933C503.297 260.895 503.805 261.382 504.701 261.382C505.442 261.382 505.929 261.094 506.084 260.574H507.333C507.101 261.769 506.106 262.488 504.679 262.488ZM504.646 257.82C503.85 257.82 503.363 258.252 503.23 259.07H505.973C505.973 258.318 505.453 257.82 504.646 257.82ZM511.599 256.858V258.108H511.101C510.128 258.108 509.519 258.628 509.519 259.689V262.344H508.17V256.891H509.442L509.519 257.688C509.752 257.146 510.271 256.781 511.001 256.781C511.189 256.781 511.377 256.803 511.599 256.858ZM514.365 262.344H513.015V258.008H511.965V256.88H513.015V255.177H514.365V256.88H515.427V258.008H514.365V262.344ZM515.624 260.685H516.907C516.918 261.16 517.272 261.459 517.891 261.459C518.522 261.459 518.864 261.205 518.864 260.806C518.864 260.53 518.721 260.331 518.234 260.22L517.25 259.988C516.265 259.767 515.79 259.302 515.79 258.429C515.79 257.356 516.697 256.714 517.957 256.714C519.185 256.714 520.015 257.422 520.026 258.484H518.743C518.732 258.019 518.422 257.721 517.902 257.721C517.371 257.721 517.062 257.964 517.062 258.373C517.062 258.683 517.305 258.882 517.769 258.993L518.754 259.225C519.672 259.435 520.136 259.855 520.136 260.696C520.136 261.802 519.196 262.488 517.847 262.488C516.487 262.488 515.624 261.758 515.624 260.685Z" fill="black"/>
</g>
<path d="M49.4922 297.65C49.4922 292.56 53.6186 288.434 58.7088 288.434H205.852C210.942 288.434 215.068 292.56 215.068 297.65V316.65C215.068 321.74 210.942 325.867 205.852 325.867H58.7088C53.6186 325.867 49.4922 321.74 49.4922 316.65V297.65Z" fill="black"/>
<path d="M58.709 288.895H205.852C210.687 288.895 214.607 292.815 214.607 297.65V316.65C214.607 321.486 210.687 325.406 205.852 325.406H58.709C53.8734 325.406 49.9532 321.486 49.9531 316.65V297.65C49.9531 292.815 53.8733 288.895 58.709 288.895Z" stroke="white" stroke-opacity="0.3" stroke-width="0.921659"/>
<path d="M77.242 308.334V302.321H78.5065V308.257C78.5065 309.754 79.3323 310.579 80.8162 310.579C82.2872 310.579 83.1001 309.741 83.1001 308.257V302.321H84.3775V308.334C84.3775 310.476 83.0098 311.805 80.8162 311.805C78.6098 311.805 77.242 310.489 77.242 308.334ZM86.196 314.476V305.341H87.2928L87.3831 306.476C87.8089 305.612 88.6606 305.16 89.667 305.16C91.4735 305.16 92.596 306.515 92.596 308.45C92.596 310.373 91.538 311.818 89.667 311.818C88.6606 311.818 87.8218 311.392 87.4089 310.618V314.476H86.196ZM87.4218 308.502C87.4218 309.792 88.1702 310.721 89.4089 310.721C90.6477 310.721 91.3831 309.792 91.3831 308.502C91.3831 307.199 90.6477 306.27 89.4089 306.27C88.1702 306.27 87.4218 307.186 87.4218 308.502ZM93.4555 308.334C93.4555 306.554 94.6039 305.16 96.4362 305.16C97.4555 305.16 98.2426 305.625 98.6426 306.412L98.7329 305.341H99.8168V311.392C99.8168 313.379 98.591 314.644 96.6555 314.644C94.9394 314.644 93.7652 313.676 93.5329 312.076H94.7458C94.9007 313.005 95.5975 313.547 96.6555 313.547C97.8426 313.547 98.6168 312.773 98.6168 311.573V310.308C98.2039 311.044 97.3781 311.483 96.3845 311.483C94.591 311.483 93.4555 310.102 93.4555 308.334ZM94.6684 308.308C94.6684 309.496 95.4039 310.425 96.591 310.425C97.8168 310.425 98.5652 309.547 98.5652 308.308C98.5652 307.096 97.8426 306.218 96.6039 306.218C95.391 306.218 94.6684 307.147 94.6684 308.308ZM105.103 305.289V306.399H104.561C103.412 306.399 102.703 307.096 102.703 308.308V311.65H101.49V305.354H102.625L102.703 306.308C102.961 305.65 103.593 305.212 104.458 305.212C104.677 305.212 104.858 305.237 105.103 305.289ZM107.756 311.805C106.401 311.805 105.601 311.044 105.601 309.896C105.601 308.734 106.466 308.012 107.95 307.896L109.937 307.741V307.56C109.937 306.502 109.304 306.128 108.453 306.128C107.433 306.128 106.853 306.579 106.853 307.341H105.795C105.795 306.025 106.879 305.16 108.504 305.16C110.066 305.16 111.124 305.986 111.124 307.689V311.65H110.091L109.962 310.631C109.64 311.354 108.775 311.805 107.756 311.805ZM108.104 310.863C109.253 310.863 109.95 310.115 109.95 308.928V308.592L108.337 308.721C107.266 308.825 106.827 309.237 106.827 309.857C106.827 310.528 107.317 310.863 108.104 310.863ZM115.255 311.805C113.423 311.805 112.313 310.437 112.313 308.515C112.313 306.579 113.436 305.16 115.307 305.16C116.274 305.16 117.087 305.586 117.513 306.36V302.154H118.713V311.65H117.629L117.526 310.502C117.113 311.367 116.262 311.805 115.255 311.805ZM115.5 310.708C116.739 310.708 117.5 309.792 117.5 308.476C117.5 307.186 116.739 306.257 115.5 306.257C114.262 306.257 113.539 307.186 113.539 308.476C113.539 309.779 114.262 310.708 115.5 310.708ZM123.108 311.805C121.25 311.805 119.973 310.463 119.973 308.502C119.973 306.528 121.224 305.16 123.057 305.16C124.85 305.16 126.024 306.399 126.024 308.27V308.721L121.147 308.734C121.237 310.063 121.934 310.799 123.134 310.799C124.076 310.799 124.695 310.412 124.902 309.689H126.037C125.727 311.044 124.669 311.805 123.108 311.805ZM123.057 306.179C121.998 306.179 121.327 306.812 121.173 307.921H124.811C124.811 306.876 124.127 306.179 123.057 306.179ZM134.585 308.321H132.223V311.65H130.959V302.321H134.585C136.417 302.321 137.591 303.521 137.591 305.315C137.591 307.057 136.404 308.321 134.585 308.321ZM134.365 303.457H132.223V307.186H134.314C135.565 307.186 136.262 306.45 136.262 305.302C136.262 304.128 135.552 303.457 134.365 303.457ZM138.037 308.489C138.037 306.541 139.43 305.173 141.327 305.173C143.211 305.173 144.604 306.541 144.604 308.489C144.604 310.437 143.211 311.805 141.327 311.805C139.43 311.805 138.037 310.437 138.037 308.489ZM139.263 308.489C139.263 309.805 140.101 310.721 141.327 310.721C142.54 310.721 143.392 309.805 143.392 308.489C143.392 307.173 142.54 306.257 141.327 306.257C140.101 306.257 139.263 307.173 139.263 308.489ZM146.935 311.65L144.87 305.341H146.122L147.167 308.618C147.309 309.083 147.438 309.56 147.554 310.115C147.657 309.56 147.825 309.031 147.967 308.618L149.025 305.341H150.264L151.309 308.618C151.412 308.928 151.619 309.663 151.722 310.115C151.825 309.612 151.941 309.173 152.122 308.618L153.18 305.341H154.444L152.29 311.65H151.141L150.044 308.27C149.838 307.637 149.709 307.147 149.644 306.799C149.58 307.108 149.464 307.521 149.232 308.283L148.135 311.65H146.935ZM157.839 311.805C155.981 311.805 154.704 310.463 154.704 308.502C154.704 306.528 155.956 305.16 157.788 305.16C159.581 305.16 160.756 306.399 160.756 308.27V308.721L155.878 308.734C155.969 310.063 156.665 310.799 157.865 310.799C158.807 310.799 159.427 310.412 159.633 309.689H160.769C160.459 311.044 159.401 311.805 157.839 311.805ZM157.788 306.179C156.73 306.179 156.059 306.812 155.904 307.921H159.543C159.543 306.876 158.859 306.179 157.788 306.179ZM165.646 305.289V306.399H165.104C163.956 306.399 163.246 307.096 163.246 308.308V311.65H162.033V305.354H163.168L163.246 306.308C163.504 305.65 164.136 305.212 165.001 305.212C165.22 305.212 165.401 305.237 165.646 305.289Z" fill="#111111"/>
<circle cx="182.809" cy="307.149" r="7.68049" stroke="#111111" stroke-width="1.15207"/>
<path d="M179.837 306.84L182.909 302.701C183.149 302.377 183.599 302.578 183.599 303.01V306.214C183.599 306.472 183.776 306.682 183.994 306.682H185.488C185.827 306.682 186.008 307.156 185.784 307.458L182.712 311.598C182.472 311.922 182.022 311.72 182.022 311.289V308.085C182.022 307.826 181.845 307.617 181.627 307.617H180.133C179.794 307.617 179.613 307.142 179.837 306.84Z" stroke="#111111" stroke-width="1.15207" stroke-linecap="round" stroke-linejoin="round"/>
<path d="M38.4336 355.715C38.4336 350.554 38.4336 347.973 39.4381 346.001C40.3218 344.267 41.7317 342.857 43.4659 341.973C45.4375 340.969 48.0184 340.969 53.1801 340.969H353.026C358.188 340.969 360.769 340.969 362.741 341.973C364.475 342.857 365.885 344.267 366.768 346.001C367.773 347.973 367.773 350.554 367.773 355.715V388.185C367.773 393.347 367.773 395.928 366.768 397.9C365.885 399.634 364.475 401.044 362.741 401.927C360.769 402.932 358.188 402.932 353.026 402.932H53.1801C48.0184 402.932 45.4375 402.932 43.4659 401.927C41.7317 401.044 40.3218 399.634 39.4381 397.9C38.4336 395.928 38.4336 393.347 38.4336 388.185V355.715Z" fill="url(#paint18_linear_1870_49004)" fill-opacity="0.2"/>
<path d="M53.1797 341.43H353.026C355.615 341.43 357.528 341.43 359.042 341.554C360.55 341.677 361.621 341.92 362.531 342.384C364.179 343.223 365.518 344.563 366.357 346.21C366.821 347.12 367.065 348.191 367.188 349.699C367.312 351.213 367.312 353.127 367.312 355.715V388.186C367.312 390.774 367.312 392.687 367.188 394.201C367.065 395.71 366.821 396.78 366.357 397.69C365.518 399.338 364.179 400.677 362.531 401.517C361.621 401.98 360.55 402.223 359.042 402.347C357.528 402.47 355.615 402.471 353.026 402.471H53.1797C50.5914 402.471 48.6777 402.47 47.1641 402.347C45.6558 402.223 44.5847 401.98 43.6748 401.517C42.0275 400.677 40.688 399.338 39.8486 397.69C39.385 396.78 39.1418 395.71 39.0186 394.201C38.8949 392.687 38.8945 390.774 38.8945 388.186V355.715C38.8945 353.127 38.8949 351.213 39.0186 349.699C39.1418 348.191 39.385 347.12 39.8486 346.21C40.688 344.563 42.0275 343.223 43.6748 342.384C44.5847 341.92 45.6558 341.677 47.1641 341.554C48.6777 341.43 50.5914 341.43 53.1797 341.43Z" stroke="black" stroke-opacity="0.02" stroke-width="0.921659"/>
<path d="M51.6853 360.332H49.6613V363.186H48.5775V355.189H51.6853C53.2558 355.189 54.2623 356.218 54.2623 357.755C54.2623 359.248 53.2447 360.332 51.6853 360.332ZM51.4973 356.163H49.6613V359.359H51.453C52.5259 359.359 53.1231 358.728 53.1231 357.744C53.1231 356.738 52.5148 356.163 51.4973 356.163ZM58.3434 357.733V358.684H57.8788C56.8945 358.684 56.2862 359.281 56.2862 360.321V363.186H55.2466V357.788H56.2199L56.2862 358.607C56.5074 358.043 57.0494 357.667 57.7904 357.667C57.9784 357.667 58.1332 357.689 58.3434 357.733ZM58.7038 360.476C58.7038 358.806 59.8982 357.633 61.524 357.633C63.1388 357.633 64.3333 358.806 64.3333 360.476C64.3333 362.146 63.1388 363.318 61.524 363.318C59.8982 363.318 58.7038 362.146 58.7038 360.476ZM59.7545 360.476C59.7545 361.604 60.4733 362.389 61.524 362.389C62.5637 362.389 63.2936 361.604 63.2936 360.476C63.2936 359.348 62.5637 358.563 61.524 358.563C60.4733 358.563 59.7545 359.348 59.7545 360.476ZM65.0638 360.487C65.0638 358.795 66.1366 357.622 67.7182 357.622C69.0786 357.622 70.0297 358.397 70.2177 359.602H69.1781C69.0011 358.916 68.4481 358.551 67.7514 358.551C66.767 358.551 66.0924 359.304 66.0924 360.476C66.0924 361.637 66.7228 362.389 67.7071 362.389C68.4481 362.389 69.0011 362.002 69.1892 361.361H70.2288C70.0187 362.533 69.0122 363.318 67.7071 363.318C66.1145 363.318 65.0638 362.19 65.0638 360.487ZM73.593 363.318C72.0004 363.318 70.9054 362.168 70.9054 360.487C70.9054 358.795 71.9782 357.622 73.5487 357.622C75.0861 357.622 76.0925 358.684 76.0925 360.288V360.675L71.9119 360.686C71.9893 361.825 72.5865 362.456 73.6151 362.456C74.4225 362.456 74.9534 362.124 75.1303 361.504H76.1036C75.8381 362.666 74.9312 363.318 73.593 363.318ZM73.5487 358.496C72.6418 358.496 72.0667 359.038 71.934 359.989H75.0529C75.0529 359.093 74.4667 358.496 73.5487 358.496ZM76.745 361.615H77.7404C77.7404 362.168 78.1606 362.5 78.8464 362.5C79.5763 362.5 79.9966 362.201 79.9966 361.704C79.9966 361.339 79.8196 361.117 79.2556 360.974L78.3044 360.752C77.3422 360.52 76.8888 360.045 76.8888 359.248C76.8888 358.253 77.7293 357.622 78.9238 357.622C80.1072 357.622 80.8814 358.286 80.9035 359.315H79.9081C79.886 358.773 79.521 358.43 78.8906 358.43C78.2381 358.43 77.8731 358.717 77.8731 359.215C77.8731 359.58 78.1385 359.823 78.6694 359.956L79.6205 360.188C80.5385 360.41 80.992 360.83 80.992 361.637C80.992 362.666 80.1072 363.318 78.8242 363.318C77.5523 363.318 76.745 362.644 76.745 361.615ZM81.6361 361.615H82.6315C82.6315 362.168 83.0518 362.5 83.7375 362.5C84.4675 362.5 84.8877 362.201 84.8877 361.704C84.8877 361.339 84.7108 361.117 84.1467 360.974L83.1956 360.752C82.2334 360.52 81.7799 360.045 81.7799 359.248C81.7799 358.253 82.6205 357.622 83.8149 357.622C84.9983 357.622 85.7725 358.286 85.7947 359.315H84.7993C84.7771 358.773 84.4122 358.43 83.7818 358.43C83.1292 358.43 82.7642 358.717 82.7642 359.215C82.7642 359.58 83.0297 359.823 83.5606 359.956L84.5117 360.188C85.4297 360.41 85.8831 360.83 85.8831 361.637C85.8831 362.666 84.9983 363.318 83.7154 363.318C82.4435 363.318 81.6361 362.644 81.6361 361.615ZM87.4784 356.494C87.1024 356.494 86.7927 356.185 86.7927 355.809C86.7927 355.421 87.1024 355.123 87.4784 355.123C87.8545 355.123 88.1642 355.421 88.1642 355.809C88.1642 356.185 87.8545 356.494 87.4784 356.494ZM86.9697 363.186V357.777H88.0093V363.186H86.9697ZM90.4919 363.186H89.4523V357.777H90.3924L90.503 358.607C90.8458 357.987 91.5316 357.622 92.2947 357.622C93.7214 357.622 94.3739 358.496 94.3739 359.879V363.186H93.3343V360.111C93.3343 359.016 92.8256 358.574 92.0292 358.574C91.056 358.574 90.4919 359.27 90.4919 360.321V363.186ZM95.4047 360.343C95.4047 358.817 96.389 357.622 97.9595 357.622C98.8332 357.622 99.5079 358.021 99.8508 358.695L99.9282 357.777H100.857V362.964C100.857 364.668 99.8065 365.751 98.1475 365.751C96.6766 365.751 95.6701 364.922 95.471 363.551H96.5107C96.6434 364.347 97.2406 364.811 98.1475 364.811C99.165 364.811 99.8286 364.148 99.8286 363.119V362.035C99.4747 362.666 98.7669 363.042 97.9153 363.042C96.3779 363.042 95.4047 361.858 95.4047 360.343ZM96.4443 360.321C96.4443 361.339 97.0747 362.135 98.0922 362.135C99.1429 362.135 99.7844 361.383 99.7844 360.321C99.7844 359.281 99.165 358.529 98.1033 358.529C97.0637 358.529 96.4443 359.326 96.4443 360.321ZM108.534 360.332H106.51V363.186H105.426V355.189H108.534C110.104 355.189 111.111 356.218 111.111 357.755C111.111 359.248 110.093 360.332 108.534 360.332ZM108.346 356.163H106.51V359.359H108.302C109.374 359.359 109.972 358.728 109.972 357.744C109.972 356.738 109.363 356.163 108.346 356.163ZM111.493 360.476C111.493 358.806 112.687 357.633 114.313 357.633C115.928 357.633 117.122 358.806 117.122 360.476C117.122 362.146 115.928 363.318 114.313 363.318C112.687 363.318 111.493 362.146 111.493 360.476ZM112.543 360.476C112.543 361.604 113.262 362.389 114.313 362.389C115.353 362.389 116.083 361.604 116.083 360.476C116.083 359.348 115.353 358.563 114.313 358.563C113.262 358.563 112.543 359.348 112.543 360.476ZM119.12 363.186L117.35 357.777H118.423L119.319 360.586C119.44 360.985 119.551 361.394 119.65 361.869C119.739 361.394 119.883 360.94 120.004 360.586L120.911 357.777H121.973L122.869 360.586C122.957 360.852 123.134 361.482 123.223 361.869C123.311 361.438 123.411 361.062 123.566 360.586L124.473 357.777H125.556L123.709 363.186H122.725L121.785 360.288C121.608 359.746 121.497 359.326 121.442 359.027C121.387 359.292 121.287 359.646 121.088 360.299L120.148 363.186H119.12ZM128.467 363.318C126.874 363.318 125.779 362.168 125.779 360.487C125.779 358.795 126.852 357.622 128.422 357.622C129.96 357.622 130.966 358.684 130.966 360.288V360.675L126.785 360.686C126.863 361.825 127.46 362.456 128.489 362.456C129.296 362.456 129.827 362.124 130.004 361.504H130.977C130.712 362.666 129.805 363.318 128.467 363.318ZM128.422 358.496C127.515 358.496 126.94 359.038 126.808 359.989H129.926C129.926 359.093 129.34 358.496 128.422 358.496ZM135.158 357.733V358.684H134.693C133.709 358.684 133.101 359.281 133.101 360.321V363.186H132.061V357.788H133.034L133.101 358.607C133.322 358.043 133.864 357.667 134.605 357.667C134.793 357.667 134.948 357.689 135.158 357.733Z" fill="black"/>
<path d="M371.461 355.715C371.461 350.554 371.461 347.973 372.465 346.001C373.349 344.267 374.759 342.857 376.493 341.973C378.465 340.969 381.046 340.969 386.207 340.969H686.054C691.216 340.969 693.796 340.969 695.768 341.973C697.502 342.857 698.912 344.267 699.796 346.001C700.8 347.973 700.8 350.554 700.8 355.715V388.185C700.8 393.347 700.8 395.928 699.796 397.9C698.912 399.634 697.502 401.044 695.768 401.927C693.796 402.932 691.216 402.932 686.054 402.932H386.207C381.046 402.932 378.465 402.932 376.493 401.927C374.759 401.044 373.349 399.634 372.465 397.9C371.461 395.928 371.461 393.347 371.461 388.185V355.715Z" fill="url(#paint19_linear_1870_49004)" fill-opacity="0.2"/>
<path d="M386.207 341.43H686.054C688.642 341.43 690.556 341.43 692.069 341.554C693.578 341.677 694.649 341.92 695.559 342.384C697.206 343.223 698.545 344.563 699.385 346.21C699.848 347.12 700.093 348.191 700.216 349.699C700.339 351.213 700.34 353.127 700.34 355.715V388.186C700.34 390.774 700.339 392.687 700.216 394.201C700.093 395.71 699.848 396.78 699.385 397.69C698.545 399.338 697.206 400.677 695.559 401.517C694.649 401.98 693.578 402.223 692.069 402.347C690.556 402.47 688.642 402.471 686.054 402.471H386.207C383.619 402.471 381.705 402.47 380.191 402.347C378.683 402.223 377.612 401.98 376.702 401.517C375.055 400.677 373.715 399.338 372.876 397.69C372.412 396.78 372.169 395.71 372.046 394.201C371.922 392.687 371.922 390.774 371.922 388.186V355.715C371.922 353.127 371.922 351.213 372.046 349.699C372.169 348.191 372.412 347.12 372.876 346.21C373.715 344.563 375.055 343.223 376.702 342.384C377.612 341.92 378.683 341.677 380.191 341.554C381.705 341.43 383.619 341.43 386.207 341.43Z" stroke="black" stroke-opacity="0.02" stroke-width="0.921659"/>
<path d="M382.689 363.186H381.605V355.189H384.624C386.338 355.189 387.356 356.096 387.356 357.589C387.356 358.695 386.803 359.492 385.808 359.812L387.433 363.186H386.228L384.735 360.022H382.689V363.186ZM382.689 356.163V359.06H384.635C385.642 359.06 386.217 358.518 386.217 357.6C386.217 356.671 385.62 356.163 384.624 356.163H382.689ZM390.543 363.318C388.95 363.318 387.855 362.168 387.855 360.487C387.855 358.795 388.928 357.622 390.499 357.622C392.036 357.622 393.042 358.684 393.042 360.288V360.675L388.862 360.686C388.939 361.825 389.536 362.456 390.565 362.456C391.372 362.456 391.903 362.124 392.08 361.504H393.053C392.788 362.666 391.881 363.318 390.543 363.318ZM390.499 358.496C389.592 358.496 389.017 359.038 388.884 359.989H392.003C392.003 359.093 391.417 358.496 390.499 358.496ZM393.695 361.615H394.69C394.69 362.168 395.11 362.5 395.796 362.5C396.526 362.5 396.946 362.201 396.946 361.704C396.946 361.339 396.769 361.117 396.205 360.974L395.254 360.752C394.292 360.52 393.839 360.045 393.839 359.248C393.839 358.253 394.679 357.622 395.874 357.622C397.057 357.622 397.831 358.286 397.853 359.315H396.858C396.836 358.773 396.471 358.43 395.84 358.43C395.188 358.43 394.823 358.717 394.823 359.215C394.823 359.58 395.088 359.823 395.619 359.956L396.57 360.188C397.488 360.41 397.942 360.83 397.942 361.637C397.942 362.666 397.057 363.318 395.774 363.318C394.502 363.318 393.695 362.644 393.695 361.615ZM399.028 365.608V357.777H399.968L400.046 358.751C400.411 358.01 401.141 357.622 402.003 357.622C403.552 357.622 404.514 358.784 404.514 360.443C404.514 362.091 403.607 363.329 402.003 363.329C401.141 363.329 400.422 362.964 400.068 362.301V365.608H399.028ZM400.079 360.487C400.079 361.593 400.72 362.389 401.782 362.389C402.844 362.389 403.474 361.593 403.474 360.487C403.474 359.37 402.844 358.574 401.782 358.574C400.72 358.574 400.079 359.359 400.079 360.487ZM405.24 360.476C405.24 358.806 406.434 357.633 408.06 357.633C409.675 357.633 410.869 358.806 410.869 360.476C410.869 362.146 409.675 363.318 408.06 363.318C406.434 363.318 405.24 362.146 405.24 360.476ZM406.29 360.476C406.29 361.604 407.009 362.389 408.06 362.389C409.1 362.389 409.83 361.604 409.83 360.476C409.83 359.348 409.1 358.563 408.06 358.563C407.009 358.563 406.29 359.348 406.29 360.476ZM412.993 363.186H411.954V357.777H412.894L413.004 358.607C413.347 357.987 414.033 357.622 414.796 357.622C416.223 357.622 416.875 358.496 416.875 359.879V363.186H415.836V360.111C415.836 359.016 415.327 358.574 414.531 358.574C413.557 358.574 412.993 359.27 412.993 360.321V363.186ZM417.742 361.615H418.737C418.737 362.168 419.157 362.5 419.843 362.5C420.573 362.5 420.993 362.201 420.993 361.704C420.993 361.339 420.816 361.117 420.252 360.974L419.301 360.752C418.339 360.52 417.885 360.045 417.885 359.248C417.885 358.253 418.726 357.622 419.92 357.622C421.104 357.622 421.878 358.286 421.9 359.315H420.905C420.883 358.773 420.518 358.43 419.887 358.43C419.235 358.43 418.87 358.717 418.87 359.215C418.87 359.58 419.135 359.823 419.666 359.956L420.617 360.188C421.535 360.41 421.989 360.83 421.989 361.637C421.989 362.666 421.104 363.318 419.821 363.318C418.549 363.318 417.742 362.644 417.742 361.615ZM425.409 363.318C423.816 363.318 422.721 362.168 422.721 360.487C422.721 358.795 423.794 357.622 425.365 357.622C426.902 357.622 427.908 358.684 427.908 360.288V360.675L423.728 360.686C423.805 361.825 424.402 362.456 425.431 362.456C426.238 362.456 426.769 362.124 426.946 361.504H427.919C427.654 362.666 426.747 363.318 425.409 363.318ZM425.365 358.496C424.458 358.496 423.883 359.038 423.75 359.989H426.869C426.869 359.093 426.283 358.496 425.365 358.496ZM431.364 356.185V355.189H437.259V356.185H434.859V363.186H433.775V356.185H431.364ZM438.614 356.494C438.238 356.494 437.928 356.185 437.928 355.809C437.928 355.421 438.238 355.123 438.614 355.123C438.99 355.123 439.3 355.421 439.3 355.809C439.3 356.185 438.99 356.494 438.614 356.494ZM438.105 363.186V357.777H439.145V363.186H438.105ZM441.627 363.186H440.588V357.777H441.517L441.616 358.485C441.893 357.976 442.468 357.622 443.231 357.622C444.072 357.622 444.669 358.043 444.945 358.717C445.2 358.043 445.852 357.622 446.693 357.622C447.931 357.622 448.684 358.397 448.684 359.646V363.186H447.666V359.901C447.666 359.049 447.19 358.563 446.461 358.563C445.675 358.563 445.155 359.116 445.155 359.978V363.186H444.127V359.89C444.127 359.038 443.662 358.574 442.932 358.574C442.147 358.574 441.627 359.116 441.627 359.978V363.186ZM452.392 363.318C450.799 363.318 449.704 362.168 449.704 360.487C449.704 358.795 450.777 357.622 452.348 357.622C453.885 357.622 454.892 358.684 454.892 360.288V360.675L450.711 360.686C450.788 361.825 451.386 362.456 452.414 362.456C453.222 362.456 453.752 362.124 453.929 361.504H454.903C454.637 362.666 453.73 363.318 452.392 363.318ZM452.348 358.496C451.441 358.496 450.866 359.038 450.733 359.989H453.852C453.852 359.093 453.266 358.496 452.348 358.496Z" fill="black"/>
</g>
<path d="M16 0.5H484C492.56 0.5 499.5 7.43959 499.5 16V348C499.5 356.56 492.56 363.5 484 363.5H16C7.43959 363.5 0.5 356.56 0.5 348V16C0.5 7.43959 7.43959 0.5 16 0.5Z" stroke="black" stroke-opacity="0.08"/>
<defs>
<linearGradient id="paint0_linear_1870_49004" x1="60.1315" y1="309.046" x2="129.231" y2="2.07391" gradientUnits="userSpaceOnUse">
<stop stop-color="#3EDC81"/>
<stop offset="1" stop-color="#0276DB"/>
</linearGradient>
<linearGradient id="paint1_linear_1870_49004" x1="413.229" y1="-45.755" x2="-2.82308" y2="327.683" gradientUnits="userSpaceOnUse">
<stop stop-color="white" stop-opacity="0.2"/>
<stop offset="0.555856" stop-color="white" stop-opacity="0.661921"/>
<stop offset="0.768606" stop-color="white" stop-opacity="0.748406"/>
<stop offset="1" stop-color="white" stop-opacity="0.9"/>
</linearGradient>
<linearGradient id="paint2_linear_1870_49004" x1="536.129" y1="20" x2="536.129" y2="421.719" gradientUnits="userSpaceOnUse">
<stop stop-color="white" stop-opacity="0.1"/>
<stop offset="1" stop-color="white" stop-opacity="0.05"/>
</linearGradient>
<linearGradient id="paint3_linear_1870_49004" x1="51.3368" y1="38.4336" x2="51.3368" y2="64.24" gradientUnits="userSpaceOnUse">
<stop stop-color="white" stop-opacity="0.2"/>
<stop offset="1" stop-color="white" stop-opacity="0.1"/>
</linearGradient>
<linearGradient id="paint4_linear_1870_49004" x1="51.3368" y1="38.4336" x2="51.3368" y2="64.24" gradientUnits="userSpaceOnUse">
<stop stop-color="#EA4335"/>
<stop offset="1" stop-color="#D62F21"/>
</linearGradient>
<linearGradient id="paint5_linear_1870_49004" x1="51.3366" y1="48.6484" x2="51.3366" y2="54.0248" gradientUnits="userSpaceOnUse">
<stop stop-color="#EA4335"/>
<stop offset="1" stop-color="#D62F21"/>
</linearGradient>
<linearGradient id="paint6_linear_1870_49004" x1="51.3373" y1="45.9609" x2="51.3373" y2="56.7136" gradientUnits="userSpaceOnUse">
<stop stop-color="#EA4335"/>
<stop offset="1" stop-color="#D62F21"/>
</linearGradient>
<linearGradient id="paint7_linear_1870_49004" x1="54.0311" y1="45.9648" x2="54.0311" y2="51.3157" gradientUnits="userSpaceOnUse">
<stop stop-color="#EA4335"/>
<stop offset="1" stop-color="#D62F21"/>
</linearGradient>
<linearGradient id="paint8_linear_1870_49004" x1="62.3954" y1="112.557" x2="62.3954" y2="138.363" gradientUnits="userSpaceOnUse">
<stop stop-color="white" stop-opacity="0.2"/>
<stop offset="1" stop-color="white" stop-opacity="0.1"/>
</linearGradient>
<linearGradient id="paint9_linear_1870_49004" x1="62.3954" y1="112.557" x2="62.3954" y2="138.363" gradientUnits="userSpaceOnUse">
<stop stop-color="#FFB145"/>
<stop offset="1" stop-color="#F59D31"/>
</linearGradient>
<linearGradient id="paint10_linear_1870_49004" x1="62.3956" y1="123.309" x2="62.3956" y2="127.61" gradientUnits="userSpaceOnUse">
<stop stop-color="#FFB145"/>
<stop offset="1" stop-color="#F59D31"/>
</linearGradient>
<linearGradient id="paint11_linear_1870_49004" x1="62.3959" y1="120.352" x2="62.3959" y2="130.567" gradientUnits="userSpaceOnUse">
<stop stop-color="#FFB145"/>
<stop offset="1" stop-color="#F59D31"/>
</linearGradient>
<linearGradient id="paint12_linear_1870_49004" x1="62.3954" y1="197.014" x2="62.3954" y2="222.82" gradientUnits="userSpaceOnUse">
<stop stop-color="white" stop-opacity="0.2"/>
<stop offset="1" stop-color="white" stop-opacity="0.1"/>
</linearGradient>
<linearGradient id="paint13_linear_1870_49004" x1="94.9254" y1="241.254" x2="94.9254" y2="274.434" gradientUnits="userSpaceOnUse">
<stop stop-color="white" stop-opacity="0.2"/>
<stop offset="1" stop-color="white" stop-opacity="0.1"/>
</linearGradient>
<linearGradient id="paint14_linear_1870_49004" x1="191.507" y1="241.254" x2="191.507" y2="274.434" gradientUnits="userSpaceOnUse">
<stop stop-color="white" stop-opacity="0.2"/>
<stop offset="1" stop-color="white" stop-opacity="0.1"/>
</linearGradient>
<linearGradient id="paint15_linear_1870_49004" x1="285.589" y1="241.254" x2="285.589" y2="274.434" gradientUnits="userSpaceOnUse">
<stop stop-color="white" stop-opacity="0.2"/>
<stop offset="1" stop-color="white" stop-opacity="0.1"/>
</linearGradient>
<linearGradient id="paint16_linear_1870_49004" x1="379.175" y1="241.254" x2="379.175" y2="274.434" gradientUnits="userSpaceOnUse">
<stop stop-color="white" stop-opacity="0.2"/>
<stop offset="1" stop-color="white" stop-opacity="0.1"/>
</linearGradient>
<linearGradient id="paint17_linear_1870_49004" x1="494.131" y1="241.254" x2="494.131" y2="274.434" gradientUnits="userSpaceOnUse">
<stop stop-color="white" stop-opacity="0.2"/>
<stop offset="1" stop-color="white" stop-opacity="0.1"/>
</linearGradient>
<linearGradient id="paint18_linear_1870_49004" x1="203.103" y1="340.969" x2="203.103" y2="402.932" gradientUnits="userSpaceOnUse">
<stop stop-color="white" stop-opacity="0.2"/>
<stop offset="1" stop-color="white" stop-opacity="0.1"/>
</linearGradient>
<linearGradient id="paint19_linear_1870_49004" x1="536.131" y1="340.969" x2="536.131" y2="402.932" gradientUnits="userSpaceOnUse">
<stop stop-color="white" stop-opacity="0.2"/>
<stop offset="1" stop-color="white" stop-opacity="0.1"/>
</linearGradient>
<clipPath id="clip0_1870_49004">
<path d="M0 16C0 7.16344 7.16344 0 16 0H484C492.837 0 500 7.16344 500 16V348C500 356.837 492.837 364 484 364H16C7.16345 364 0 356.837 0 348V16Z" fill="white"/>
</clipPath>
<clipPath id="clip1_1870_49004">
<path d="M38.4336 102.084C38.4336 96.9936 42.56 92.8672 47.6502 92.8672H1024.61C1029.7 92.8672 1033.83 96.9936 1033.83 102.084V173.051C1033.83 178.142 1029.7 182.268 1024.61 182.268H47.6502C42.56 182.268 38.4336 178.142 38.4336 173.051V102.084Z" fill="white"/>
</clipPath>
<clipPath id="clip2_1870_49004">
<rect width="12.9032" height="12.9032" fill="white" transform="translate(55.9453 203.465)"/>
</clipPath>
<clipPath id="clip3_1870_49004">
<rect width="18.4332" height="18.4332" fill="white" transform="translate(156.949 248.627)"/>
</clipPath>
<clipPath id="clip4_1870_49004">
<rect width="18.4332" height="18.4332" fill="white" transform="translate(250.031 248.627)"/>
</clipPath>
<clipPath id="clip5_1870_49004">
<rect width="18.4332" height="18.4332" fill="white" transform="translate(345.117 248.627)"/>
</clipPath>
<clipPath id="clip6_1870_49004">
<rect width="18.4332" height="18.4332" fill="white" transform="translate(437.199 248.627)"/>
</clipPath>
</defs>
</svg>
