<svg width="500" height="365" viewBox="0 0 500 365" fill="none" xmlns="http://www.w3.org/2000/svg">
<g clip-path="url(#clip0_1356_166528)">
<rect y="0.351562" width="500" height="364" rx="16" fill="white" fill-opacity="0.05"/>
<path d="M20 -204.183C20 -212.226 20 -216.248 21.5654 -219.32C22.9423 -222.023 25.1395 -224.22 27.8419 -225.597C30.9141 -227.162 34.9359 -227.162 42.9795 -227.162H1002.37C1010.42 -227.162 1014.44 -227.162 1017.51 -225.597C1020.21 -224.22 1022.41 -222.023 1023.79 -219.32C1025.35 -216.248 1025.35 -212.226 1025.35 -204.183V321.304C1025.35 329.347 1025.35 333.369 1023.79 336.441C1022.41 339.144 1020.21 341.341 1017.51 342.718C1014.44 344.283 1010.42 344.283 1002.37 344.283H42.9794C34.9359 344.283 30.9141 344.283 27.8419 342.718C25.1395 341.341 22.9423 339.144 21.5654 336.441C20 333.369 20 329.347 20 321.304V-204.183Z" fill="url(#paint0_linear_1356_166528)"/>
<path d="M20 -204.183C20 -212.226 20 -216.248 21.5654 -219.32C22.9423 -222.023 25.1395 -224.22 27.8419 -225.597C30.9141 -227.162 34.9359 -227.162 42.9795 -227.162H1002.37C1010.42 -227.162 1014.44 -227.162 1017.51 -225.597C1020.21 -224.22 1022.41 -222.023 1023.79 -219.32C1025.35 -216.248 1025.35 -212.226 1025.35 -204.183V321.304C1025.35 329.347 1025.35 333.369 1023.79 336.441C1022.41 339.144 1020.21 341.341 1017.51 342.718C1014.44 344.283 1010.42 344.283 1002.37 344.283H42.9794C34.9359 344.283 30.9141 344.283 27.8419 342.718C25.1395 341.341 22.9423 339.144 21.5654 336.441C20 333.369 20 329.347 20 321.304V-204.183Z" fill="url(#paint1_linear_1356_166528)"/>
<path d="M42.9795 -226.713H1002.37C1006.4 -226.713 1009.4 -226.713 1011.77 -226.52C1014.14 -226.326 1015.84 -225.942 1017.31 -225.197C1019.92 -223.863 1022.05 -221.734 1023.39 -219.116C1024.13 -217.654 1024.51 -215.946 1024.71 -213.579C1024.9 -211.207 1024.9 -208.212 1024.9 -204.183V321.304C1024.9 325.333 1024.9 328.328 1024.71 330.7C1024.51 333.067 1024.13 334.775 1023.39 336.237C1022.05 338.855 1019.92 340.984 1017.31 342.318C1015.84 343.063 1014.14 343.447 1011.77 343.641C1009.4 343.834 1006.4 343.834 1002.37 343.834H42.9795C38.9504 343.834 35.9554 343.834 33.583 343.641C31.216 343.447 29.5081 343.063 28.0459 342.318C25.4279 340.984 23.2988 338.855 21.9648 336.237C21.2199 334.775 20.836 333.067 20.6426 330.7C20.4488 328.328 20.4492 325.333 20.4492 321.304V-204.183C20.4492 -208.212 20.4488 -211.207 20.6426 -213.579C20.836 -215.946 21.2199 -217.654 21.9648 -219.116C23.2988 -221.734 25.4279 -223.863 28.0459 -225.197C29.5081 -225.942 31.2161 -226.326 33.583 -226.52C35.9554 -226.713 38.9503 -226.713 42.9795 -226.713Z" stroke="white" stroke-opacity="0.05" stroke-width="0.897635"/>
<path d="M37.9531 -9.43668C37.9531 -14.4639 37.9531 -16.9775 38.9315 -18.8977C39.7921 -20.5867 41.1653 -21.9599 42.8543 -22.8205C44.7744 -23.7988 47.2881 -23.7988 52.3153 -23.7988H344.346C349.373 -23.7988 351.887 -23.7988 353.807 -22.8205C355.496 -21.9599 356.869 -20.5867 357.73 -18.8977C358.708 -16.9775 358.708 -14.4639 358.708 -9.43666V21.1302C358.708 26.1575 358.708 28.6711 357.73 30.5912C356.869 32.2802 355.496 33.6534 353.807 34.514C351.887 35.4924 349.373 35.4924 344.346 35.4924H52.3153C47.2881 35.4924 44.7744 35.4924 42.8543 34.514C41.1653 33.6534 39.7921 32.2802 38.9315 30.5912C37.9531 28.6711 37.9531 26.1575 37.9531 21.1302V-9.43668Z" fill="url(#paint2_linear_1356_166528)" fill-opacity="0.2"/>
<path d="M52.3154 -23.3496H344.346C346.867 -23.3496 348.731 -23.3499 350.205 -23.2295C351.674 -23.1095 352.717 -22.8725 353.604 -22.4209C355.208 -21.6034 356.513 -20.2987 357.33 -18.6943C357.782 -17.8081 358.019 -16.7649 358.139 -15.2959C358.259 -13.8216 358.259 -11.9575 358.259 -9.43652V21.1299C358.259 23.6508 358.259 25.515 358.139 26.9893C358.019 28.4583 357.782 29.5014 357.33 30.3877C356.513 31.9921 355.208 33.2967 353.604 34.1143C352.717 34.5658 351.674 34.8028 350.205 34.9229C348.731 35.0433 346.867 35.0439 344.346 35.0439H52.3154C49.7944 35.0439 47.9304 35.0433 46.4561 34.9229C44.987 34.8028 43.9439 34.5658 43.0576 34.1143C41.4532 33.2967 40.1486 31.9921 39.3311 30.3877C38.8795 29.5014 38.6425 28.4583 38.5225 26.9893C38.402 25.515 38.4023 23.6509 38.4023 21.1299V-9.43652C38.4023 -11.9575 38.402 -13.8216 38.5225 -15.2959C38.6425 -16.7649 38.8795 -17.8081 39.3311 -18.6943C40.1486 -20.2987 41.4532 -21.6034 43.0576 -22.4209C43.9439 -22.8725 44.987 -23.1095 46.4561 -23.2295C47.9304 -23.3499 49.7944 -23.3496 52.3154 -23.3496Z" stroke="white" stroke-opacity="0.02" stroke-width="0.897635"/>
<path d="M50.6217 24.9576V23.7224C48.7259 23.6075 47.4764 22.5304 47.3903 20.85H48.8265C48.8552 21.7692 49.5302 22.3724 50.6217 22.4873V18.9111L50.1047 18.7962C48.41 18.4084 47.5339 17.4605 47.5339 15.9812C47.5339 14.3439 48.7547 13.1806 50.6217 13.0226V11.7731H51.5409V13.0083C53.2787 13.1662 54.3846 14.229 54.4852 15.8951H53.092C53.0346 14.9759 52.4745 14.387 51.5409 14.2578V17.8196L52.101 17.9488C53.8245 18.3366 54.6575 19.2414 54.6575 20.6777C54.6575 22.3868 53.4367 23.5357 51.5409 23.7081V24.9576H50.6217ZM50.3919 17.5467L50.6217 17.6042V14.2578C49.5589 14.4014 48.9126 15.019 48.9126 15.9381C48.9126 16.7712 49.3866 17.3026 50.3919 17.5467ZM51.8138 19.1984L51.5409 19.1409V22.4586C52.6181 22.3149 53.2787 21.6974 53.2787 20.7926C53.2787 19.9596 52.8048 19.4282 51.8138 19.1984ZM59.3273 23.7368C57.2017 23.7368 55.823 22.3868 55.823 20.3186H57.2161C57.2161 21.6543 58.0347 22.4729 59.3561 22.4729C60.7636 22.4729 61.6684 21.5394 61.6684 20.1319C61.6684 18.7962 60.821 17.8052 59.3704 17.8052C58.4943 17.8052 57.6901 18.2217 57.2161 18.8106L56.024 18.509L57.2879 13.1806H62.487V14.4732H58.3076L57.6182 17.2307C58.164 16.8142 58.8534 16.5988 59.6289 16.5988C61.7402 16.5988 63.1046 18.0781 63.1046 20.0744C63.1046 22.2288 61.5678 23.7368 59.3273 23.7368ZM66.226 23.0043C66.226 24.0384 65.4504 24.9001 64.4307 25.0294V24.4262C65.0196 24.3256 65.4361 23.9379 65.4361 23.4926C65.3355 23.5501 65.2207 23.5788 65.0483 23.5788C64.5744 23.5788 64.1722 23.2341 64.1722 22.7027C64.1722 22.1282 64.56 21.7117 65.1345 21.7117C65.7377 21.7117 66.226 22.2144 66.226 23.0043ZM67.222 18.3797C67.222 15.1626 68.8881 12.9795 71.502 12.9795C74.1015 12.9795 75.7675 15.1626 75.7675 18.3797C75.7675 21.6112 74.1733 23.7512 71.502 23.7512C68.8162 23.7512 67.222 21.6112 67.222 18.3797ZM68.6152 18.3797C68.6152 20.9362 69.678 22.4873 71.502 22.4873C73.326 22.4873 74.3744 20.9362 74.3744 18.3797C74.3744 15.7945 73.326 14.2434 71.502 14.2434C69.678 14.2434 68.6152 15.7945 68.6152 18.3797ZM77.094 18.3797C77.094 15.1626 78.76 12.9795 81.3739 12.9795C83.9735 12.9795 85.6395 15.1626 85.6395 18.3797C85.6395 21.6112 84.0453 23.7512 81.3739 23.7512C78.6882 23.7512 77.094 21.6112 77.094 18.3797ZM78.4871 18.3797C78.4871 20.9362 79.5499 22.4873 81.3739 22.4873C83.1979 22.4873 84.2464 20.9362 84.2464 18.3797C84.2464 15.7945 83.1979 14.2434 81.3739 14.2434C79.5499 14.2434 78.4871 15.7945 78.4871 18.3797ZM86.966 18.3797C86.966 15.1626 88.632 12.9795 91.2459 12.9795C93.8455 12.9795 95.5115 15.1626 95.5115 18.3797C95.5115 21.6112 93.9173 23.7512 91.2459 23.7512C88.5602 23.7512 86.966 21.6112 86.966 18.3797ZM88.3591 18.3797C88.3591 20.9362 89.4219 22.4873 91.2459 22.4873C93.0699 22.4873 94.1183 20.9362 94.1183 18.3797C94.1183 15.7945 93.0699 14.2434 91.2459 14.2434C89.4219 14.2434 88.3591 15.7945 88.3591 18.3797ZM97.5271 23.7368C96.967 23.7368 96.493 23.2772 96.493 22.7314C96.493 22.1713 96.967 21.7117 97.5271 21.7117C98.0729 21.7117 98.5468 22.1713 98.5468 22.7314C98.5468 23.2772 98.0729 23.7368 97.5271 23.7368ZM99.5429 18.3797C99.5429 15.1626 101.209 12.9795 103.823 12.9795C106.422 12.9795 108.088 15.1626 108.088 18.3797C108.088 21.6112 106.494 23.7512 103.823 23.7512C101.137 23.7512 99.5429 21.6112 99.5429 18.3797ZM100.936 18.3797C100.936 20.9362 101.999 22.4873 103.823 22.4873C105.647 22.4873 106.695 20.9362 106.695 18.3797C106.695 15.7945 105.647 14.2434 103.823 14.2434C101.999 14.2434 100.936 15.7945 100.936 18.3797ZM109.415 18.3797C109.415 15.1626 111.081 12.9795 113.695 12.9795C116.294 12.9795 117.96 15.1626 117.96 18.3797C117.96 21.6112 116.366 23.7512 113.695 23.7512C111.009 23.7512 109.415 21.6112 109.415 18.3797ZM110.808 18.3797C110.808 20.9362 111.871 22.4873 113.695 22.4873C115.519 22.4873 116.567 20.9362 116.567 18.3797C116.567 15.7945 115.519 14.2434 113.695 14.2434C111.871 14.2434 110.808 15.7945 110.808 18.3797Z" fill="#3EDC81"/>
<path d="M362.299 -9.43668C362.299 -14.4639 362.299 -16.9775 363.277 -18.8977C364.138 -20.5867 365.511 -21.9599 367.2 -22.8205C369.12 -23.7988 371.634 -23.7988 376.661 -23.7988H668.692C673.719 -23.7988 676.232 -23.7988 678.153 -22.8205C679.842 -21.9599 681.215 -20.5867 682.075 -18.8977C683.054 -16.9775 683.054 -14.4639 683.054 -9.43666V21.1302C683.054 26.1575 683.054 28.6711 682.075 30.5912C681.215 32.2802 679.842 33.6534 678.153 34.514C676.232 35.4924 673.719 35.4924 668.692 35.4924H376.661C371.634 35.4924 369.12 35.4924 367.2 34.514C365.511 33.6534 364.138 32.2802 363.277 30.5912C362.299 28.6711 362.299 26.1575 362.299 21.1302V-9.43668Z" fill="url(#paint3_linear_1356_166528)" fill-opacity="0.2"/>
<path d="M376.661 -23.3496H668.691C671.212 -23.3496 673.076 -23.3499 674.551 -23.2295C676.02 -23.1095 677.063 -22.8725 677.949 -22.4209C679.554 -21.6034 680.858 -20.2987 681.676 -18.6943C682.127 -17.8081 682.364 -16.7649 682.484 -15.2959C682.605 -13.8216 682.604 -11.9575 682.604 -9.43652V21.1299C682.604 23.6508 682.605 25.515 682.484 26.9893C682.364 28.4583 682.127 29.5014 681.676 30.3877C680.858 31.9921 679.554 33.2967 677.949 34.1143C677.063 34.5658 676.02 34.8028 674.551 34.9229C673.076 35.0433 671.212 35.0439 668.691 35.0439H376.661C374.14 35.0439 372.276 35.0433 370.802 34.9229C369.333 34.8028 368.29 34.5658 367.403 34.1143C365.799 33.2967 364.494 31.9921 363.677 30.3877C363.225 29.5014 362.988 28.4583 362.868 26.9893C362.748 25.515 362.748 23.6509 362.748 21.1299V-9.43652C362.748 -11.9575 362.748 -13.8216 362.868 -15.2959C362.988 -16.7649 363.225 -17.8081 363.677 -18.6943C364.494 -20.2987 365.799 -21.6034 367.403 -22.4209C368.29 -22.8725 369.333 -23.1095 370.802 -23.2295C372.276 -23.3499 374.14 -23.3496 376.661 -23.3496Z" stroke="white" stroke-opacity="0.02" stroke-width="0.897635"/>
<path d="M374.965 24.9576V23.7224C373.07 23.6075 371.82 22.5304 371.734 20.85H373.17C373.199 21.7692 373.874 22.3724 374.965 22.4873V18.9111L374.448 18.7962C372.754 18.4084 371.878 17.4605 371.878 15.9812C371.878 14.3439 373.098 13.1806 374.965 13.0226V11.7731H375.885V13.0083C377.622 13.1662 378.728 14.229 378.829 15.8951H377.436C377.378 14.9759 376.818 14.387 375.885 14.2578V17.8196L376.445 17.9488C378.168 18.3366 379.001 19.2414 379.001 20.6777C379.001 22.3868 377.78 23.5357 375.885 23.7081V24.9576H374.965ZM374.736 17.5467L374.965 17.6042V14.2578C373.903 14.4014 373.256 15.019 373.256 15.9381C373.256 16.7712 373.73 17.3026 374.736 17.5467ZM376.158 19.1984L375.885 19.1409V22.4586C376.962 22.3149 377.622 21.6974 377.622 20.7926C377.622 19.9596 377.149 19.4282 376.158 19.1984ZM387.147 23.5501L380.138 23.5645V22.4873L383.484 19.6005C385.165 18.1499 385.639 17.4462 385.639 16.3403C385.639 15.0333 384.892 14.2578 383.642 14.2578C382.364 14.2578 381.531 15.1913 381.502 16.6706H380.095C380.138 14.4445 381.545 12.9939 383.657 12.9939C385.739 12.9939 387.075 14.2578 387.075 16.2541C387.075 17.7334 386.342 18.7819 384.504 20.3761L382.35 22.2431H387.147V23.5501ZM390.78 23.0043C390.78 24.0384 390.005 24.9001 388.985 25.0294V24.4262C389.574 24.3256 389.99 23.9379 389.99 23.4926C389.89 23.5501 389.775 23.5788 389.602 23.5788C389.128 23.5788 388.726 23.2341 388.726 22.7027C388.726 22.1282 389.114 21.7117 389.689 21.7117C390.292 21.7117 390.78 22.2144 390.78 23.0043ZM391.776 18.3797C391.776 15.1626 393.442 12.9795 396.056 12.9795C398.656 12.9795 400.322 15.1626 400.322 18.3797C400.322 21.6112 398.727 23.7512 396.056 23.7512C393.37 23.7512 391.776 21.6112 391.776 18.3797ZM393.169 18.3797C393.169 20.9362 394.232 22.4873 396.056 22.4873C397.88 22.4873 398.929 20.9362 398.929 18.3797C398.929 15.7945 397.88 14.2434 396.056 14.2434C394.232 14.2434 393.169 15.7945 393.169 18.3797ZM401.648 18.3797C401.648 15.1626 403.314 12.9795 405.928 12.9795C408.528 12.9795 410.194 15.1626 410.194 18.3797C410.194 21.6112 408.599 23.7512 405.928 23.7512C403.242 23.7512 401.648 21.6112 401.648 18.3797ZM403.041 18.3797C403.041 20.9362 404.104 22.4873 405.928 22.4873C407.752 22.4873 408.8 20.9362 408.8 18.3797C408.8 15.7945 407.752 14.2434 405.928 14.2434C404.104 14.2434 403.041 15.7945 403.041 18.3797ZM411.52 18.3797C411.52 15.1626 413.186 12.9795 415.8 12.9795C418.4 12.9795 420.066 15.1626 420.066 18.3797C420.066 21.6112 418.471 23.7512 415.8 23.7512C413.114 23.7512 411.52 21.6112 411.52 18.3797ZM412.913 18.3797C412.913 20.9362 413.976 22.4873 415.8 22.4873C417.624 22.4873 418.672 20.9362 418.672 18.3797C418.672 15.7945 417.624 14.2434 415.8 14.2434C413.976 14.2434 412.913 15.7945 412.913 18.3797ZM422.081 23.7368C421.521 23.7368 421.047 23.2772 421.047 22.7314C421.047 22.1713 421.521 21.7117 422.081 21.7117C422.627 21.7117 423.101 22.1713 423.101 22.7314C423.101 23.2772 422.627 23.7368 422.081 23.7368ZM424.097 18.3797C424.097 15.1626 425.763 12.9795 428.377 12.9795C430.976 12.9795 432.642 15.1626 432.642 18.3797C432.642 21.6112 431.048 23.7512 428.377 23.7512C425.691 23.7512 424.097 21.6112 424.097 18.3797ZM425.49 18.3797C425.49 20.9362 426.553 22.4873 428.377 22.4873C430.201 22.4873 431.249 20.9362 431.249 18.3797C431.249 15.7945 430.201 14.2434 428.377 14.2434C426.553 14.2434 425.49 15.7945 425.49 18.3797ZM433.969 18.3797C433.969 15.1626 435.635 12.9795 438.249 12.9795C440.848 12.9795 442.514 15.1626 442.514 18.3797C442.514 21.6112 440.92 23.7512 438.249 23.7512C435.563 23.7512 433.969 21.6112 433.969 18.3797ZM435.362 18.3797C435.362 20.9362 436.425 22.4873 438.249 22.4873C440.073 22.4873 441.121 20.9362 441.121 18.3797C441.121 15.7945 440.073 14.2434 438.249 14.2434C436.425 14.2434 435.362 15.7945 435.362 18.3797Z" fill="#EA4335"/>
<path d="M40.2403 63.6621H39.0087V54.5762H42.4395C44.3874 54.5762 45.5435 55.6067 45.5435 57.3033C45.5435 58.56 44.9152 59.4648 43.7842 59.8292L45.6315 63.6621H44.2617L42.5652 60.068H40.2403V63.6621ZM40.2403 55.6821V58.9747H42.4521C43.5957 58.9747 44.2491 58.3589 44.2491 57.3158C44.2491 56.2602 43.5705 55.6821 42.4395 55.6821H40.2403ZM47.3569 56.0591C46.9296 56.0591 46.5777 55.7073 46.5777 55.28C46.5777 54.8402 46.9296 54.5008 47.3569 54.5008C47.7842 54.5008 48.136 54.8402 48.136 55.28C48.136 55.7073 47.7842 56.0591 47.3569 56.0591ZM46.7788 63.6621V57.5169H47.9601V63.6621H46.7788ZM48.9211 61.8776H50.0521C50.0521 62.506 50.5296 62.883 51.3088 62.883C52.1382 62.883 52.6157 62.5437 52.6157 61.9781C52.6157 61.5634 52.4147 61.3121 51.7738 61.1487L50.693 60.8974C49.5997 60.6335 49.0844 60.0931 49.0844 59.1883C49.0844 58.0573 50.0395 57.341 51.3968 57.341C52.7414 57.341 53.6211 58.095 53.6462 59.2637H52.5152C52.4901 58.6479 52.0754 58.2583 51.3591 58.2583C50.6176 58.2583 50.2029 58.5851 50.2029 59.1506C50.2029 59.5653 50.5045 59.8418 51.1077 59.9926L52.1885 60.2565C53.2315 60.5078 53.7468 60.9854 53.7468 61.9027C53.7468 63.0715 52.7414 63.8129 51.2837 63.8129C49.8385 63.8129 48.9211 63.0463 48.9211 61.8776ZM56.0118 63.6621H54.8306V54.4129H56.0118V60.4073L58.7389 57.5169H60.2218L57.8717 59.9674L60.2092 63.6621H58.852L57.0549 60.822L56.0118 61.9153V63.6621ZM65.5533 54.5762V62.5185H69.5495V63.6621H64.3217V54.5762H65.5533ZM72.9639 63.8129C71.1543 63.8129 69.9101 62.506 69.9101 60.5958C69.9101 58.6731 71.1291 57.341 72.9136 57.341C74.6604 57.341 75.804 58.5474 75.804 60.3696V60.8094L71.0537 60.822C71.1417 62.1164 71.8203 62.8327 72.989 62.8327C73.9064 62.8327 74.5096 62.4557 74.7107 61.7519H75.8166C75.515 63.0715 74.4845 63.8129 72.9639 63.8129ZM72.9136 58.3337C71.8831 58.3337 71.2297 58.9495 71.0789 60.0303H74.6227C74.6227 59.0124 73.9567 58.3337 72.9136 58.3337ZM78.3851 63.6621L75.9095 57.5169H77.1661L78.5108 60.9477C78.7244 61.5257 78.9004 62.041 79.0009 62.418C79.1014 62.0158 79.3025 61.488 79.5162 60.9477L80.8859 57.5169H82.1175L79.5539 63.6621H78.3851ZM85.1754 63.8129C83.3657 63.8129 82.1216 62.506 82.1216 60.5958C82.1216 58.6731 83.3406 57.341 85.1251 57.341C86.8719 57.341 88.0155 58.5474 88.0155 60.3696V60.8094L83.2652 60.822C83.3532 62.1164 84.0318 62.8327 85.2005 62.8327C86.1179 62.8327 86.7211 62.4557 86.9222 61.7519H88.0281C87.7265 63.0715 86.696 63.8129 85.1754 63.8129ZM85.1251 58.3337C84.0946 58.3337 83.4411 58.9495 83.2903 60.0303H86.8342C86.8342 59.0124 86.1682 58.3337 85.1251 58.3337ZM90.29 63.6621H89.1087V54.4129H90.29V63.6621Z" fill="white"/>
<path d="M37.9531 89.2059C37.9531 84.1787 37.9531 81.6651 38.9315 79.7449C39.7921 78.0559 41.1653 76.6827 42.8543 75.8221C44.7744 74.8438 47.2881 74.8438 52.3153 74.8438H337.165C342.192 74.8438 344.706 74.8438 346.626 75.8221C348.315 76.6827 349.688 78.0559 350.549 79.7449C351.527 81.6651 351.527 84.1787 351.527 89.2059V96.4343C351.527 101.462 351.527 103.975 350.549 105.895C349.688 107.584 348.315 108.957 346.626 109.818C344.706 110.796 342.192 110.796 337.165 110.796H52.3153C47.2881 110.796 44.7744 110.796 42.8543 109.818C41.1653 108.957 39.7921 107.584 38.9315 105.895C37.9531 103.975 37.9531 101.462 37.9531 96.4343V89.2059Z" fill="url(#paint4_linear_1356_166528)" fill-opacity="0.2"/>
<path d="M52.3154 75.293H337.165C339.686 75.293 341.549 75.2927 343.023 75.4131C344.492 75.5331 345.536 75.7702 346.422 76.2217C348.026 77.0392 349.331 78.3439 350.148 79.9482C350.6 80.8345 350.837 81.8777 350.957 83.3467C351.077 84.821 351.078 86.685 351.078 89.2061V96.4346C351.078 98.9552 351.077 100.819 350.957 102.293C350.837 103.762 350.6 104.805 350.148 105.691C349.331 107.296 348.026 108.6 346.422 109.418C345.536 109.87 344.492 110.107 343.023 110.227C341.549 110.347 339.686 110.348 337.165 110.348H52.3154C49.7944 110.348 47.9304 110.347 46.4561 110.227C44.9871 110.107 43.9438 109.87 43.0576 109.418C41.4533 108.6 40.1485 107.296 39.3311 105.691C38.8796 104.805 38.6425 103.762 38.5225 102.293C38.402 100.819 38.4023 98.9552 38.4023 96.4346V89.2061C38.4023 86.685 38.402 84.821 38.5225 83.3467C38.6425 81.8777 38.8795 80.8345 39.3311 79.9482C40.1486 78.3439 41.4532 77.0392 43.0576 76.2217C43.9439 75.7701 44.987 75.5331 46.4561 75.4131C47.9304 75.2926 49.7944 75.293 52.3154 75.293Z" stroke="white" stroke-opacity="0.02" stroke-width="0.897635"/>
<path d="M48.8901 89.0324V95.8401H52.3155V96.8203H47.8345V89.0324H48.8901ZM52.7754 94.1813C52.7754 92.5548 53.9387 91.413 55.5222 91.413C57.0948 91.413 58.2582 92.5548 58.2582 94.1813C58.2582 95.8078 57.0948 96.9496 55.5222 96.9496C53.9387 96.9496 52.7754 95.8078 52.7754 94.1813ZM53.7987 94.1813C53.7987 95.28 54.4989 96.0448 55.5222 96.0448C56.5347 96.0448 57.2456 95.28 57.2456 94.1813C57.2456 93.0826 56.5347 92.3178 55.5222 92.3178C54.4989 92.3178 53.7987 93.0826 53.7987 94.1813ZM60.2034 96.8203L58.48 91.553H59.5248L60.3973 94.289C60.5158 94.6768 60.6235 95.0753 60.7205 95.5385C60.8067 95.0753 60.9467 94.6337 61.0652 94.289L61.9484 91.553H62.9825L63.855 94.289C63.9412 94.5475 64.1135 95.1615 64.1997 95.5385C64.2859 95.1184 64.3828 94.7522 64.5336 94.289L65.4169 91.553H66.4725L64.6737 96.8203H63.715L62.7994 93.9981C62.6271 93.4703 62.5193 93.061 62.4655 92.7702C62.4116 93.0287 62.3147 93.3734 62.1208 94.0089L61.2052 96.8203H60.2034ZM71.3846 96.8203H70.3289V89.0324H73.2696C74.9392 89.0324 75.9302 89.9157 75.9302 91.3699C75.9302 92.447 75.3916 93.2226 74.4221 93.535L76.0056 96.8203H74.8315L73.3773 93.7396H71.3846V96.8203ZM71.3846 89.9803V92.8025H73.2804C74.2606 92.8025 74.8207 92.2747 74.8207 91.3806C74.8207 90.4758 74.239 89.9803 73.2696 89.9803H71.3846ZM77.6353 90.3035C77.2691 90.3035 76.9675 90.0019 76.9675 89.6356C76.9675 89.2586 77.2691 88.9678 77.6353 88.9678C78.0015 88.9678 78.3031 89.2586 78.3031 89.6356C78.3031 90.0019 78.0015 90.3035 77.6353 90.3035ZM77.1398 96.8203V91.553H78.1523V96.8203H77.1398ZM79.1268 95.2907H80.0963C80.0963 95.8293 80.5056 96.1525 81.1734 96.1525C81.8844 96.1525 82.2937 95.8616 82.2937 95.3769C82.2937 95.0215 82.1213 94.806 81.572 94.666L80.6456 94.4506C79.7085 94.2244 79.2669 93.7612 79.2669 92.9856C79.2669 92.0162 80.0855 91.4022 81.2488 91.4022C82.4014 91.4022 83.1554 92.0485 83.177 93.0502H82.2075C82.186 92.5224 81.8305 92.1885 81.2165 92.1885C80.581 92.1885 80.2255 92.4686 80.2255 92.9533C80.2255 93.3088 80.484 93.5457 81.0011 93.675L81.9274 93.9012C82.8215 94.1166 83.2631 94.526 83.2631 95.3123C83.2631 96.314 82.4014 96.9496 81.1519 96.9496C79.9132 96.9496 79.1268 96.2925 79.1268 95.2907ZM85.3554 96.8203H84.3429V88.8924H85.3554V94.0305L87.6929 91.553H88.9639L86.9496 93.6535L88.9532 96.8203H87.7898L86.2495 94.3859L85.3554 95.3231V96.8203Z" fill="white"/>
<path d="M315.259 92.8198C315.259 88.8538 318.474 85.6387 322.44 85.6387H333.211C337.177 85.6387 340.393 88.8538 340.393 92.8198C340.393 96.7858 337.177 100.001 333.211 100.001H322.44C318.474 100.001 315.259 96.7858 315.259 92.8198Z" fill="url(#paint5_linear_1356_166528)" fill-opacity="0.3"/>
<g filter="url(#filter0_dd_1356_166528)">
<circle cx="322.803" cy="92.796" r="5.38581" fill="white"/>
</g>
<circle cx="322.802" cy="92.7972" r="1.79527" fill="#0F1525" fill-opacity="0.3"/>
<path d="M37.9531 128.749C37.9531 123.722 37.9531 121.208 38.9315 119.288C39.7921 117.599 41.1653 116.226 42.8543 115.365C44.7744 114.387 47.2881 114.387 52.3153 114.387H337.165C342.192 114.387 344.706 114.387 346.626 115.365C348.315 116.226 349.688 117.599 350.549 119.288C351.527 121.208 351.527 123.722 351.527 128.749V135.977C351.527 141.004 351.527 143.518 350.549 145.438C349.688 147.127 348.315 148.5 346.626 149.361C344.706 150.339 342.192 150.339 337.165 150.339H52.3153C47.2881 150.339 44.7744 150.339 42.8543 149.361C41.1653 148.5 39.7921 147.127 38.9315 145.438C37.9531 143.518 37.9531 141.004 37.9531 135.977V128.749Z" fill="url(#paint6_linear_1356_166528)" fill-opacity="0.2"/>
<path d="M52.3154 114.836H337.165C339.686 114.836 341.549 114.836 343.023 114.956C344.492 115.076 345.536 115.313 346.422 115.765C348.026 116.582 349.331 117.887 350.148 119.491C350.6 120.377 350.837 121.421 350.957 122.89C351.077 124.364 351.078 126.228 351.078 128.749V135.978C351.078 138.498 351.077 140.362 350.957 141.836C350.837 143.305 350.6 144.348 350.148 145.234C349.331 146.839 348.026 148.143 346.422 148.961C345.536 149.413 344.492 149.65 343.023 149.77C341.549 149.89 339.686 149.891 337.165 149.891H52.3154C49.7944 149.891 47.9304 149.89 46.4561 149.77C44.9871 149.649 43.9438 149.412 43.0576 148.961C41.4533 148.143 40.1485 146.839 39.3311 145.234C38.8796 144.348 38.6425 143.305 38.5225 141.836C38.402 140.362 38.4023 138.498 38.4023 135.978V128.749C38.4023 126.228 38.402 124.364 38.5225 122.89C38.6425 121.421 38.8795 120.377 39.3311 119.491C40.1486 117.887 41.4532 116.582 43.0576 115.765C43.9439 115.313 44.987 115.076 46.4561 114.956C47.9304 114.836 49.7944 114.836 52.3154 114.836Z" stroke="white" stroke-opacity="0.02" stroke-width="0.897635"/>
<path d="M48.8686 136.363H47.8345V128.575H48.8686L51.5507 135.125L54.2328 128.575H55.2885V136.363H54.2544V133.283C54.2544 131.828 54.2652 131.301 54.319 130.751L52.0462 136.363H51.0552L48.7932 130.773C48.847 131.15 48.8686 131.947 48.8686 133.035V136.363ZM57.3604 129.846C56.9942 129.846 56.6926 129.545 56.6926 129.179C56.6926 128.802 56.9942 128.511 57.3604 128.511C57.7266 128.511 58.0282 128.802 58.0282 129.179C58.0282 129.545 57.7266 129.846 57.3604 129.846ZM56.8649 136.363V131.096H57.8774V136.363H56.8649ZM61.394 136.493C59.8645 136.493 58.9381 135.351 58.9381 133.746C58.9381 132.13 59.8752 130.945 61.4371 130.945C62.245 130.945 62.9236 131.301 63.2791 131.947V128.435H64.2808V136.363H63.376L63.2898 135.405C62.9452 136.126 62.2342 136.493 61.394 136.493ZM61.5987 135.577C62.6328 135.577 63.2683 134.812 63.2683 133.713C63.2683 132.636 62.6328 131.861 61.5987 131.861C60.5646 131.861 59.9614 132.636 59.9614 133.713C59.9614 134.801 60.5646 135.577 61.5987 135.577ZM69.7856 136.363H68.73V128.575H71.6707C73.3403 128.575 74.3313 129.459 74.3313 130.913C74.3313 131.99 73.7927 132.766 72.8232 133.078L74.4067 136.363H73.2326L71.7784 133.283H69.7856V136.363ZM69.7856 129.523V132.345H71.6814C72.6617 132.345 73.2218 131.818 73.2218 130.924C73.2218 130.019 72.6401 129.523 71.6707 129.523H69.7856ZM76.0364 129.846C75.6701 129.846 75.3685 129.545 75.3685 129.179C75.3685 128.802 75.6701 128.511 76.0364 128.511C76.4026 128.511 76.7042 128.802 76.7042 129.179C76.7042 129.545 76.4026 129.846 76.0364 129.846ZM75.5409 136.363V131.096H76.5534V136.363H75.5409ZM77.5279 134.834H78.4974C78.4974 135.372 78.9067 135.695 79.5745 135.695C80.2854 135.695 80.6948 135.405 80.6948 134.92C80.6948 134.564 80.5224 134.349 79.9731 134.209L79.0467 133.994C78.1096 133.767 77.6679 133.304 77.6679 132.529C77.6679 131.559 78.4866 130.945 79.6499 130.945C80.8025 130.945 81.5565 131.591 81.578 132.593H80.6086C80.5871 132.065 80.2316 131.731 79.6176 131.731C78.9821 131.731 78.6266 132.012 78.6266 132.496C78.6266 132.852 78.8851 133.089 79.4022 133.218L80.3285 133.444C81.2226 133.66 81.6642 134.069 81.6642 134.855C81.6642 135.857 80.8025 136.493 79.553 136.493C78.3142 136.493 77.5279 135.835 77.5279 134.834ZM83.7565 136.363H82.744V128.435H83.7565V133.573L86.094 131.096H87.365L85.3507 133.196L87.3542 136.363H86.1909L84.6506 133.929L83.7565 134.866V136.363Z" fill="white"/>
<path d="M315.259 132.363C315.259 128.397 318.474 125.182 322.44 125.182H333.211C337.177 125.182 340.393 128.397 340.393 132.363C340.393 136.329 337.177 139.544 333.211 139.544H322.44C318.474 139.544 315.259 136.329 315.259 132.363Z" fill="url(#paint7_linear_1356_166528)"/>
<g filter="url(#filter1_dd_1356_166528)">
<circle cx="333.574" cy="132.339" r="5.38581" fill="white"/>
</g>
<circle cx="333.575" cy="132.34" r="1.79527" fill="url(#paint8_linear_1356_166528)"/>
<path d="M37.9531 168.292C37.9531 163.265 37.9531 160.751 38.9315 158.831C39.7921 157.142 41.1653 155.769 42.8543 154.908C44.7744 153.93 47.2881 153.93 52.3153 153.93H337.165C342.192 153.93 344.706 153.93 346.626 154.908C348.315 155.769 349.688 157.142 350.549 158.831C351.527 160.751 351.527 163.265 351.527 168.292V175.52C351.527 180.547 351.527 183.061 350.549 184.981C349.688 186.67 348.315 188.043 346.626 188.904C344.706 189.882 342.192 189.882 337.165 189.882H52.3153C47.2881 189.882 44.7744 189.882 42.8543 188.904C41.1653 188.043 39.7921 186.67 38.9315 184.981C37.9531 183.061 37.9531 180.547 37.9531 175.52V168.292Z" fill="url(#paint9_linear_1356_166528)" fill-opacity="0.2"/>
<path d="M52.3154 154.379H337.165C339.686 154.379 341.549 154.379 343.023 154.499C344.492 154.619 345.536 154.856 346.422 155.308C348.026 156.125 349.331 157.43 350.148 159.034C350.6 159.92 350.837 160.964 350.957 162.433C351.077 163.907 351.078 165.771 351.078 168.292V175.521C351.078 178.041 351.077 179.905 350.957 181.379C350.837 182.848 350.6 183.891 350.148 184.777C349.331 186.382 348.026 187.686 346.422 188.504C345.536 188.955 344.492 189.192 343.023 189.312C341.549 189.433 339.686 189.434 337.165 189.434H52.3154C49.7944 189.434 47.9304 189.433 46.4561 189.312C44.9871 189.192 43.9438 188.955 43.0576 188.504C41.4533 187.686 40.1485 186.382 39.3311 184.777C38.8796 183.891 38.6425 182.848 38.5225 181.379C38.402 179.905 38.4023 178.041 38.4023 175.521V168.292C38.4023 165.771 38.402 163.907 38.5225 162.433C38.6425 160.964 38.8795 159.92 39.3311 159.034C40.1486 157.43 41.4532 156.125 43.0576 155.308C43.9439 154.856 44.987 154.619 46.4561 154.499C47.9304 154.379 49.7944 154.379 52.3154 154.379Z" stroke="white" stroke-opacity="0.02" stroke-width="0.897635"/>
<path d="M48.8901 175.906H47.8345V168.118H48.8901V171.468H52.7464V168.118H53.802V175.906H52.7464V172.449H48.8901V175.906ZM55.8667 169.389C55.5004 169.389 55.1988 169.088 55.1988 168.722C55.1988 168.345 55.5004 168.054 55.8667 168.054C56.2329 168.054 56.5345 168.345 56.5345 168.722C56.5345 169.088 56.2329 169.389 55.8667 169.389ZM55.3712 175.906V170.639H56.3837V175.906H55.3712ZM57.4552 173.138C57.4552 171.651 58.4138 170.488 59.9434 170.488C60.7944 170.488 61.4514 170.876 61.7854 171.533L61.8608 170.639H62.7656V175.691C62.7656 177.35 61.7423 178.405 60.1265 178.405C58.6939 178.405 57.7137 177.597 57.5198 176.262H58.5323C58.6616 177.037 59.2433 177.49 60.1265 177.49C61.1175 177.49 61.7638 176.843 61.7638 175.842V174.786C61.4191 175.4 60.7297 175.766 59.9003 175.766C58.4031 175.766 57.4552 174.614 57.4552 173.138ZM58.4677 173.116C58.4677 174.107 59.0817 174.883 60.0727 174.883C61.096 174.883 61.7207 174.15 61.7207 173.116C61.7207 172.104 61.1175 171.371 60.0834 171.371C59.0709 171.371 58.4677 172.147 58.4677 173.116ZM65.1747 175.895H64.1622V167.978H65.1747V171.447C65.5086 170.876 66.1442 170.488 66.9628 170.488C68.3093 170.488 68.9556 171.339 68.9556 172.686V175.906H67.943V172.912C67.943 171.845 67.4368 171.414 66.6827 171.414C65.7025 171.414 65.1747 172.125 65.1747 173.03V175.895ZM74.402 175.906H73.3464V168.118H76.2871C77.9567 168.118 78.9477 169.002 78.9477 170.456C78.9477 171.533 78.4091 172.309 77.4396 172.621L79.0231 175.906H77.849L76.3948 172.826H74.402V175.906ZM74.402 169.066V171.888H76.2978C77.2781 171.888 77.8382 171.361 77.8382 170.467C77.8382 169.562 77.2565 169.066 76.2871 169.066H74.402ZM80.6528 169.389C80.2865 169.389 79.9849 169.088 79.9849 168.722C79.9849 168.345 80.2865 168.054 80.6528 168.054C81.019 168.054 81.3206 168.345 81.3206 168.722C81.3206 169.088 81.019 169.389 80.6528 169.389ZM80.1573 175.906V170.639H81.1698V175.906H80.1573ZM82.1443 174.377H83.1138C83.1138 174.915 83.5231 175.238 84.1909 175.238C84.9018 175.238 85.3112 174.948 85.3112 174.463C85.3112 174.107 85.1388 173.892 84.5895 173.752L83.6631 173.536C82.726 173.31 82.2843 172.847 82.2843 172.072C82.2843 171.102 83.103 170.488 84.2663 170.488C85.4189 170.488 86.1729 171.134 86.1944 172.136H85.225C85.2034 171.608 84.848 171.274 84.234 171.274C83.5985 171.274 83.243 171.555 83.243 172.039C83.243 172.395 83.5015 172.632 84.0186 172.761L84.9449 172.987C85.839 173.203 86.2806 173.612 86.2806 174.398C86.2806 175.4 85.4189 176.036 84.1694 176.036C82.9306 176.036 82.1443 175.378 82.1443 174.377ZM88.3729 175.906H87.3604V167.978H88.3729V173.116L90.7104 170.639H91.9814L89.9671 172.739L91.9706 175.906H90.8073L89.267 173.472L88.3729 174.409V175.906Z" fill="white"/>
<path d="M315.259 171.906C315.259 167.94 318.474 164.725 322.44 164.725H333.211C337.177 164.725 340.393 167.94 340.393 171.906C340.393 175.872 337.177 179.087 333.211 179.087H322.44C318.474 179.087 315.259 175.872 315.259 171.906Z" fill="url(#paint10_linear_1356_166528)" fill-opacity="0.3"/>
<g filter="url(#filter2_dd_1356_166528)">
<circle cx="322.803" cy="171.882" r="5.38581" fill="white"/>
</g>
<circle cx="322.802" cy="171.883" r="1.79527" fill="#0F1525" fill-opacity="0.3"/>
<path d="M366.065 55.7073V54.5762H372.763V55.7073H370.036V63.6621H368.804V55.7073H366.065ZM376.319 57.4666V58.5474H375.791C374.672 58.5474 373.981 59.226 373.981 60.4073V63.6621H372.8V57.5295H373.906L373.981 58.4594C374.232 57.8185 374.848 57.3912 375.69 57.3912C375.904 57.3912 376.08 57.4164 376.319 57.4666ZM378.727 63.8129C377.407 63.8129 376.628 63.0715 376.628 61.953C376.628 60.822 377.47 60.1182 378.915 60.0051L380.851 59.8543V59.6784C380.851 58.6479 380.235 58.2835 379.405 58.2835C378.413 58.2835 377.847 58.7233 377.847 59.4648H376.817C376.817 58.1829 377.872 57.341 379.456 57.341C380.976 57.341 382.007 58.1452 382.007 59.8041V63.6621H381.001L380.876 62.6693C380.562 63.3731 379.72 63.8129 378.727 63.8129ZM379.066 62.8955C380.185 62.8955 380.863 62.1666 380.863 61.0105V60.6838L379.292 60.8094C378.249 60.91 377.822 61.3121 377.822 61.9153C377.822 62.5688 378.3 62.8955 379.066 62.8955ZM385.855 63.8129C384.07 63.8129 382.989 62.4808 382.989 60.6084C382.989 58.7233 384.083 57.341 385.905 57.341C386.847 57.341 387.639 57.7557 388.054 58.5097V54.4129H389.222V63.6621H388.167L388.066 62.5437C387.664 63.3856 386.835 63.8129 385.855 63.8129ZM386.093 62.7447C387.3 62.7447 388.041 61.8525 388.041 60.5707C388.041 59.314 387.3 58.4091 386.093 58.4091C384.887 58.4091 384.183 59.314 384.183 60.5707C384.183 61.8399 384.887 62.7447 386.093 62.7447ZM391.253 56.0591C390.826 56.0591 390.474 55.7073 390.474 55.28C390.474 54.8402 390.826 54.5008 391.253 54.5008C391.681 54.5008 392.033 54.8402 392.033 55.28C392.033 55.7073 391.681 56.0591 391.253 56.0591ZM390.675 63.6621V57.5169H391.857V63.6621H390.675ZM394.502 63.6621H393.32V57.5169H394.388L394.514 58.4594C394.904 57.7557 395.683 57.341 396.55 57.341C398.171 57.341 398.913 58.3337 398.913 59.9046V63.6621H397.731V60.1685C397.731 58.9244 397.153 58.4217 396.248 58.4217C395.142 58.4217 394.502 59.2134 394.502 60.4073V63.6621ZM399.908 60.4324C399.908 58.6982 401.026 57.341 402.811 57.341C403.803 57.341 404.57 57.7934 404.96 58.56L405.048 57.5169H406.103V63.4108C406.103 65.3461 404.909 66.5776 403.024 66.5776C401.353 66.5776 400.209 65.6351 399.983 64.0768H401.164C401.315 64.9816 401.994 65.5094 403.024 65.5094C404.18 65.5094 404.934 64.7554 404.934 63.5867V62.3552C404.532 63.0715 403.728 63.4987 402.76 63.4987C401.014 63.4987 399.908 62.1541 399.908 60.4324ZM401.089 60.4073C401.089 61.5634 401.805 62.4683 402.961 62.4683C404.155 62.4683 404.884 61.6137 404.884 60.4073C404.884 59.226 404.18 58.3714 402.974 58.3714C401.793 58.3714 401.089 59.2763 401.089 60.4073ZM410.063 55.7073V54.5762H416.761V55.7073H414.034V63.6621H412.803V55.7073H410.063ZM416.465 66.4143V65.4466H417.257C417.823 65.4466 418.275 65.3586 418.564 64.5795L418.778 63.9888L416.302 57.5169H417.546L419.331 62.4683L421.153 57.5169H422.372L419.469 65.0445C419.054 66.1001 418.438 66.5399 417.496 66.5399C417.106 66.5399 416.779 66.4897 416.465 66.4143ZM423.064 66.4143V57.5169H424.132L424.22 58.6228C424.634 57.7808 425.464 57.341 426.444 57.341C428.203 57.341 429.297 58.6605 429.297 60.5455C429.297 62.418 428.266 63.8255 426.444 63.8255C425.464 63.8255 424.647 63.4108 424.245 62.6568V66.4143H423.064ZM424.257 60.5958C424.257 61.8525 424.986 62.7573 426.193 62.7573C427.399 62.7573 428.115 61.8525 428.115 60.5958C428.115 59.3265 427.399 58.4217 426.193 58.4217C424.986 58.4217 424.257 59.314 424.257 60.5958ZM432.999 63.8129C431.189 63.8129 429.945 62.506 429.945 60.5958C429.945 58.6731 431.164 57.341 432.949 57.341C434.696 57.341 435.839 58.5474 435.839 60.3696V60.8094L431.089 60.822C431.177 62.1164 431.855 62.8327 433.024 62.8327C433.942 62.8327 434.545 62.4557 434.746 61.7519H435.852C435.55 63.0715 434.52 63.8129 432.999 63.8129ZM432.949 58.3337C431.918 58.3337 431.265 58.9495 431.114 60.0303H434.658C434.658 59.0124 433.992 58.3337 432.949 58.3337Z" fill="white"/>
<path d="M365.889 89.2059C365.889 84.1787 365.889 81.6651 366.867 79.7449C367.728 78.0559 369.101 76.6827 370.79 75.8221C372.71 74.8438 375.224 74.8438 380.251 74.8438H665.1C670.128 74.8438 672.641 74.8438 674.561 75.8221C676.25 76.6827 677.624 78.0559 678.484 79.7449C679.462 81.6651 679.462 84.1787 679.462 89.2059V96.4343C679.462 101.462 679.462 103.975 678.484 105.895C677.624 107.584 676.25 108.957 674.561 109.818C672.641 110.796 670.128 110.796 665.1 110.796H380.251C375.224 110.796 372.71 110.796 370.79 109.818C369.101 108.957 367.728 107.584 366.867 105.895C365.889 103.975 365.889 101.462 365.889 96.4343V89.2059Z" fill="url(#paint11_linear_1356_166528)" fill-opacity="0.2"/>
<path d="M380.251 75.293H665.101C667.621 75.293 669.485 75.2927 670.959 75.4131C672.428 75.5331 673.471 75.7702 674.357 76.2217C675.962 77.0392 677.266 78.3439 678.084 79.9482C678.536 80.8345 678.773 81.8777 678.893 83.3467C679.013 84.821 679.014 86.685 679.014 89.2061V96.4346C679.014 98.9552 679.013 100.819 678.893 102.293C678.773 103.762 678.536 104.805 678.084 105.691C677.266 107.296 675.962 108.6 674.357 109.418C673.471 109.87 672.428 110.107 670.959 110.227C669.485 110.347 667.621 110.348 665.101 110.348H380.251C377.73 110.348 375.866 110.347 374.392 110.227C372.923 110.107 371.879 109.87 370.993 109.418C369.389 108.6 368.084 107.296 367.267 105.691C366.815 104.805 366.578 103.762 366.458 102.293C366.338 100.819 366.338 98.9552 366.338 96.4346V89.2061C366.338 86.685 366.338 84.821 366.458 83.3467C366.578 81.8777 366.815 80.8345 367.267 79.9482C368.084 78.3439 369.389 77.0392 370.993 76.2217C371.879 75.7701 372.923 75.5331 374.392 75.4131C375.866 75.2926 377.73 75.293 380.251 75.293Z" stroke="white" stroke-opacity="0.02" stroke-width="0.897635"/>
<path d="M378.344 96.8203H375.77V89.0324H378.301C380.628 89.0324 382.201 90.6051 382.201 92.9318C382.201 95.2477 380.65 96.8203 378.344 96.8203ZM378.226 90.0019H376.826V95.8401H378.269C380.003 95.8401 381.102 94.7198 381.102 92.9318C381.102 91.1221 380.003 90.0019 378.226 90.0019ZM384.847 96.9496C383.716 96.9496 383.048 96.314 383.048 95.3554C383.048 94.3859 383.77 93.7827 385.009 93.6858L386.667 93.5565V93.4057C386.667 92.5224 386.14 92.2101 385.429 92.2101C384.578 92.2101 384.093 92.5871 384.093 93.2226H383.21C383.21 92.1239 384.115 91.4022 385.472 91.4022C386.775 91.4022 387.658 92.0916 387.658 93.5134V96.8203H386.797L386.689 95.9694C386.42 96.5726 385.698 96.9496 384.847 96.9496ZM385.138 96.1632C386.097 96.1632 386.678 95.5385 386.678 94.5475V94.2674L385.332 94.3752C384.438 94.4613 384.072 94.806 384.072 95.3231C384.072 95.8832 384.481 96.1632 385.138 96.1632ZM388.364 99.1793V98.3499H389.042C389.527 98.3499 389.915 98.2745 390.162 97.6066L390.346 97.1004L388.224 91.553H389.29L390.82 95.797L392.381 91.553H393.426L390.938 98.0052C390.583 98.91 390.055 99.287 389.247 99.287C388.913 99.287 388.633 99.2439 388.364 99.1793ZM396.469 90.0019V89.0324H402.21V90.0019H399.873V96.8203H398.817V90.0019H396.469ZM405.409 91.5099V92.4363H404.957C403.998 92.4363 403.405 93.0179 403.405 94.0305V96.8203H402.393V91.5638H403.341L403.405 92.3609C403.621 91.8115 404.149 91.4453 404.87 91.4453C405.054 91.4453 405.204 91.4668 405.409 91.5099ZM407.624 96.9496C406.493 96.9496 405.825 96.314 405.825 95.3554C405.825 94.3859 406.547 93.7827 407.786 93.6858L409.444 93.5565V93.4057C409.444 92.5224 408.917 92.2101 408.206 92.2101C407.355 92.2101 406.87 92.5871 406.87 93.2226H405.987C405.987 92.1239 406.892 91.4022 408.249 91.4022C409.552 91.4022 410.435 92.0916 410.435 93.5134V96.8203H409.574L409.466 95.9694C409.197 96.5726 408.475 96.9496 407.624 96.9496ZM407.915 96.1632C408.874 96.1632 409.455 95.5385 409.455 94.5475V94.2674L408.109 94.3752C407.215 94.4613 406.848 94.806 406.848 95.3231C406.848 95.8832 407.258 96.1632 407.915 96.1632ZM413.884 96.9496C412.355 96.9496 411.428 95.8078 411.428 94.2028C411.428 92.5871 412.365 91.4022 413.927 91.4022C414.735 91.4022 415.414 91.7576 415.769 92.4039V88.8924H416.771V96.8203H415.866L415.78 95.8616C415.435 96.5833 414.724 96.9496 413.884 96.9496ZM414.089 96.034C415.123 96.034 415.759 95.2692 415.759 94.1705C415.759 93.0933 415.123 92.3178 414.089 92.3178C413.055 92.3178 412.452 93.0933 412.452 94.1705C412.452 95.2584 413.055 96.034 414.089 96.034ZM420.44 96.9496C418.889 96.9496 417.822 95.8293 417.822 94.192C417.822 92.544 418.867 91.4022 420.397 91.4022C421.894 91.4022 422.874 92.4363 422.874 93.9981V94.3752L418.803 94.3859C418.878 95.4954 419.46 96.1094 420.462 96.1094C421.248 96.1094 421.765 95.7862 421.937 95.183H422.885C422.627 96.314 421.743 96.9496 420.44 96.9496ZM420.397 92.2531C419.514 92.2531 418.953 92.781 418.824 93.7073H421.862C421.862 92.8348 421.291 92.2531 420.397 92.2531Z" fill="white"/>
<path d="M365.889 128.749C365.889 123.722 365.889 121.208 366.867 119.288C367.728 117.599 369.101 116.226 370.79 115.365C372.71 114.387 375.224 114.387 380.251 114.387H665.1C670.128 114.387 672.641 114.387 674.561 115.365C676.25 116.226 677.624 117.599 678.484 119.288C679.462 121.208 679.462 123.722 679.462 128.749V135.977C679.462 141.004 679.462 143.518 678.484 145.438C677.624 147.127 676.25 148.5 674.561 149.361C672.641 150.339 670.128 150.339 665.1 150.339H380.251C375.224 150.339 372.71 150.339 370.79 149.361C369.101 148.5 367.728 147.127 366.867 145.438C365.889 143.518 365.889 141.004 365.889 135.977V128.749Z" fill="url(#paint12_linear_1356_166528)" fill-opacity="0.2"/>
<path d="M380.251 114.836H665.101C667.621 114.836 669.485 114.836 670.959 114.956C672.428 115.076 673.471 115.313 674.357 115.765C675.962 116.582 677.266 117.887 678.084 119.491C678.536 120.377 678.773 121.421 678.893 122.89C679.013 124.364 679.014 126.228 679.014 128.749V135.978C679.014 138.498 679.013 140.362 678.893 141.836C678.773 143.305 678.536 144.348 678.084 145.234C677.266 146.839 675.962 148.143 674.357 148.961C673.471 149.413 672.428 149.65 670.959 149.77C669.485 149.89 667.621 149.891 665.101 149.891H380.251C377.73 149.891 375.866 149.89 374.392 149.77C372.923 149.649 371.879 149.412 370.993 148.961C369.389 148.143 368.084 146.839 367.267 145.234C366.815 144.348 366.578 143.305 366.458 141.836C366.338 140.362 366.338 138.498 366.338 135.978V128.749C366.338 126.228 366.338 124.364 366.458 122.89C366.578 121.421 366.815 120.377 367.267 119.491C368.084 117.887 369.389 116.582 370.993 115.765C371.879 115.313 372.923 115.076 374.392 114.956C375.866 114.836 377.73 114.836 380.251 114.836Z" stroke="white" stroke-opacity="0.02" stroke-width="0.897635"/>
<path d="M375.318 130.676C375.318 129.34 376.395 128.435 378 128.435C379.486 128.435 380.445 129.265 380.531 130.611H379.465C379.411 129.836 378.862 129.383 377.989 129.383C377.009 129.383 376.373 129.879 376.373 130.644C376.373 131.268 376.729 131.645 377.461 131.818L378.743 132.119C380.014 132.41 380.66 133.099 380.66 134.198C380.66 135.598 379.572 136.493 377.914 136.493C376.33 136.493 375.275 135.663 375.21 134.327H376.287C376.309 135.071 376.933 135.545 377.914 135.545C378.948 135.545 379.605 135.06 379.605 134.284C379.605 133.67 379.271 133.283 378.528 133.11L377.246 132.819C375.975 132.529 375.318 131.796 375.318 130.676ZM382.881 136.363L381.157 131.096H382.202L383.075 133.832C383.193 134.22 383.301 134.618 383.398 135.081C383.484 134.618 383.624 134.177 383.743 133.832L384.626 131.096H385.66L386.532 133.832C386.619 134.09 386.791 134.704 386.877 135.081C386.963 134.661 387.06 134.295 387.211 133.832L388.094 131.096H389.15L387.351 136.363H386.392L385.477 133.541C385.305 133.013 385.197 132.604 385.143 132.313C385.089 132.572 384.992 132.916 384.798 133.552L383.883 136.363H382.881ZM390.449 129.846C390.083 129.846 389.781 129.545 389.781 129.179C389.781 128.802 390.083 128.511 390.449 128.511C390.815 128.511 391.117 128.802 391.117 129.179C391.117 129.545 390.815 129.846 390.449 129.846ZM389.953 136.363V131.096H390.966V136.363H389.953ZM393.384 136.363H392.371V131.096H393.287L393.395 131.904C393.728 131.301 394.396 130.945 395.14 130.945C396.529 130.945 397.165 131.796 397.165 133.143V136.363H396.152V133.369C396.152 132.302 395.657 131.872 394.881 131.872C393.933 131.872 393.384 132.55 393.384 133.573V136.363ZM398.168 133.595C398.168 132.108 399.127 130.945 400.657 130.945C401.508 130.945 402.165 131.333 402.499 131.99L402.574 131.096H403.479V136.148C403.479 137.807 402.456 138.862 400.84 138.862C399.407 138.862 398.427 138.054 398.233 136.719H399.246C399.375 137.494 399.957 137.947 400.84 137.947C401.831 137.947 402.477 137.3 402.477 136.299V135.243C402.132 135.857 401.443 136.223 400.614 136.223C399.116 136.223 398.168 135.071 398.168 133.595ZM399.181 133.573C399.181 134.564 399.795 135.34 400.786 135.34C401.809 135.34 402.434 134.608 402.434 133.573C402.434 132.561 401.831 131.828 400.797 131.828C399.784 131.828 399.181 132.604 399.181 133.573ZM407.175 129.545V128.575H412.916V129.545H410.578V136.363H409.523V129.545H407.175ZM416.114 131.053V131.979H415.662C414.703 131.979 414.111 132.561 414.111 133.573V136.363H413.098V131.107H414.046L414.111 131.904C414.326 131.354 414.854 130.988 415.576 130.988C415.759 130.988 415.91 131.01 416.114 131.053ZM418.329 136.493C417.198 136.493 416.531 135.857 416.531 134.898C416.531 133.929 417.252 133.326 418.491 133.229L420.15 133.099V132.949C420.15 132.065 419.622 131.753 418.911 131.753C418.06 131.753 417.575 132.13 417.575 132.766H416.692C416.692 131.667 417.597 130.945 418.954 130.945C420.258 130.945 421.141 131.635 421.141 133.056V136.363H420.279L420.171 135.512C419.902 136.116 419.18 136.493 418.329 136.493ZM418.62 135.706C419.579 135.706 420.161 135.081 420.161 134.09V133.81L418.814 133.918C417.92 134.004 417.554 134.349 417.554 134.866C417.554 135.426 417.963 135.706 418.62 135.706ZM424.59 136.493C423.06 136.493 422.134 135.351 422.134 133.746C422.134 132.13 423.071 130.945 424.633 130.945C425.441 130.945 426.119 131.301 426.475 131.947V128.435H427.477V136.363H426.572L426.486 135.405C426.141 136.126 425.43 136.493 424.59 136.493ZM424.794 135.577C425.828 135.577 426.464 134.812 426.464 133.713C426.464 132.636 425.828 131.861 424.794 131.861C423.76 131.861 423.157 132.636 423.157 133.713C423.157 134.801 423.76 135.577 424.794 135.577ZM431.145 136.493C429.594 136.493 428.528 135.372 428.528 133.735C428.528 132.087 429.573 130.945 431.102 130.945C432.6 130.945 433.58 131.979 433.58 133.541V133.918L429.508 133.929C429.584 135.038 430.165 135.652 431.167 135.652C431.953 135.652 432.47 135.329 432.643 134.726H433.591C433.332 135.857 432.449 136.493 431.145 136.493ZM431.102 131.796C430.219 131.796 429.659 132.324 429.53 133.25H432.567C432.567 132.378 431.996 131.796 431.102 131.796Z" fill="white"/>
<path d="M38.4809 210.542C38.4809 208.984 39.7376 207.929 41.6101 207.929C43.3443 207.929 44.4628 208.896 44.5633 210.467H43.3192C43.2564 209.562 42.6154 209.034 41.5975 209.034C40.4539 209.034 39.7125 209.612 39.7125 210.505C39.7125 211.234 40.1272 211.673 40.9817 211.875L42.4772 212.226C43.9601 212.566 44.7141 213.37 44.7141 214.652C44.7141 216.285 43.4449 217.329 41.5096 217.329C39.6622 217.329 38.4307 216.361 38.3553 214.803H39.612C39.6371 215.67 40.366 216.223 41.5096 216.223C42.716 216.223 43.4826 215.657 43.4826 214.752C43.4826 214.036 43.093 213.584 42.2259 213.383L40.7304 213.043C39.2475 212.704 38.4809 211.849 38.4809 210.542ZM48.4609 217.329C46.6513 217.329 45.4072 216.022 45.4072 214.111C45.4072 212.189 46.6261 210.857 48.4106 210.857C50.1574 210.857 51.301 212.063 51.301 213.885V214.325L46.5507 214.338C46.6387 215.632 47.3173 216.348 48.486 216.348C49.4034 216.348 50.0066 215.971 50.2077 215.268H51.3136C51.012 216.587 49.9815 217.329 48.4609 217.329ZM48.4106 211.849C47.3802 211.849 46.7267 212.465 46.5759 213.546H50.1197C50.1197 212.528 49.4537 211.849 48.4106 211.849ZM53.5755 217.178H52.3943V207.929H53.5755V217.178ZM57.7148 217.329C55.9051 217.329 54.661 216.022 54.661 214.111C54.661 212.189 55.88 210.857 57.6645 210.857C59.4113 210.857 60.5549 212.063 60.5549 213.885V214.325L55.8046 214.338C55.8926 215.632 56.5712 216.348 57.7399 216.348C58.6573 216.348 59.2605 215.971 59.4616 215.268H60.5674C60.2658 216.587 59.2354 217.329 57.7148 217.329ZM57.6645 211.849C56.634 211.849 55.9805 212.465 55.8297 213.546H59.3736C59.3736 212.528 58.7075 211.849 57.6645 211.849ZM61.2208 214.111C61.2208 212.189 62.4398 210.857 64.2369 210.857C65.7826 210.857 66.8634 211.736 67.077 213.106H65.8957C65.6946 212.327 65.0663 211.912 64.2746 211.912C63.1561 211.912 62.3895 212.767 62.3895 214.099C62.3895 215.418 63.1059 216.273 64.2243 216.273C65.0663 216.273 65.6946 215.833 65.9083 215.104H67.0896C66.8508 216.436 65.7072 217.329 64.2243 217.329C62.4147 217.329 61.2208 216.047 61.2208 214.111ZM69.8188 217.178H68.6375V212.025H67.4311V211.033H68.6375V209.11H69.8188V211.033H71.0253V212.025H69.8188V217.178ZM74.3404 209.223V208.092H81.0385V209.223H78.3115V217.178H77.0799V209.223H74.3404ZM84.5944 210.982V212.063H84.0665C82.9481 212.063 82.2569 212.742 82.2569 213.923V217.178H81.0756V211.045H82.1815L82.2569 211.975C82.5083 211.334 83.124 210.907 83.966 210.907C84.1797 210.907 84.3556 210.932 84.5944 210.982ZM87.0026 217.329C85.6831 217.329 84.9039 216.587 84.9039 215.469C84.9039 214.338 85.7459 213.634 87.1911 213.521L89.1264 213.37V213.194C89.1264 212.164 88.5106 211.799 87.6812 211.799C86.6884 211.799 86.1229 212.239 86.1229 212.98H85.0924C85.0924 211.699 86.148 210.857 87.7315 210.857C89.2521 210.857 90.2825 211.661 90.2825 213.32V217.178H89.2772L89.1515 216.185C88.8374 216.889 87.9954 217.329 87.0026 217.329ZM87.3419 216.411C88.4603 216.411 89.139 215.682 89.139 214.526V214.199L87.5681 214.325C86.525 214.426 86.0978 214.828 86.0978 215.431C86.0978 216.084 86.5753 216.411 87.3419 216.411ZM94.1303 217.329C92.3458 217.329 91.265 215.996 91.265 214.124C91.265 212.239 92.3583 210.857 94.1805 210.857C95.1231 210.857 95.9148 211.271 96.3295 212.025V207.929H97.4982V217.178H96.4426L96.342 216.059C95.9399 216.901 95.1105 217.329 94.1303 217.329ZM94.369 216.26C95.5755 216.26 96.3169 215.368 96.3169 214.086C96.3169 212.83 95.5755 211.925 94.369 211.925C93.1626 211.925 92.4589 212.83 92.4589 214.086C92.4589 215.356 93.1626 216.26 94.369 216.26ZM99.5291 209.575C99.1019 209.575 98.75 209.223 98.75 208.796C98.75 208.356 99.1019 208.016 99.5291 208.016C99.9564 208.016 100.308 208.356 100.308 208.796C100.308 209.223 99.9564 209.575 99.5291 209.575ZM98.951 217.178V211.033H100.132V217.178H98.951ZM102.777 217.178H101.596V211.033H102.664L102.79 211.975C103.179 211.271 103.959 210.857 104.826 210.857C106.447 210.857 107.188 211.849 107.188 213.42V217.178H106.007V213.684C106.007 212.44 105.429 211.937 104.524 211.937C103.418 211.937 102.777 212.729 102.777 213.923V217.178ZM108.183 213.948C108.183 212.214 109.302 210.857 111.086 210.857C112.079 210.857 112.846 211.309 113.235 212.076L113.323 211.033H114.379V216.926C114.379 218.862 113.185 220.093 111.3 220.093C109.629 220.093 108.485 219.151 108.259 217.592H109.44C109.591 218.497 110.27 219.025 111.3 219.025C112.456 219.025 113.21 218.271 113.21 217.102V215.871C112.808 216.587 112.004 217.014 111.036 217.014C109.289 217.014 108.183 215.67 108.183 213.948ZM109.365 213.923C109.365 215.079 110.081 215.984 111.237 215.984C112.431 215.984 113.16 215.129 113.16 213.923C113.16 212.742 112.456 211.887 111.25 211.887C110.069 211.887 109.365 212.792 109.365 213.923ZM122.75 213.935H120.45V217.178H119.218V208.092H122.75C124.534 208.092 125.678 209.261 125.678 211.007C125.678 212.704 124.522 213.935 122.75 213.935ZM122.536 209.198H120.45V212.83H122.486C123.705 212.83 124.383 212.113 124.383 210.995C124.383 209.851 123.692 209.198 122.536 209.198ZM128.172 217.329C126.852 217.329 126.073 216.587 126.073 215.469C126.073 214.338 126.915 213.634 128.36 213.521L130.296 213.37V213.194C130.296 212.164 129.68 211.799 128.851 211.799C127.858 211.799 127.292 212.239 127.292 212.98H126.262C126.262 211.699 127.317 210.857 128.901 210.857C130.421 210.857 131.452 211.661 131.452 213.32V217.178H130.447L130.321 216.185C130.007 216.889 129.165 217.329 128.172 217.329ZM128.511 216.411C129.63 216.411 130.308 215.682 130.308 214.526V214.199L128.737 214.325C127.694 214.426 127.267 214.828 127.267 215.431C127.267 216.084 127.745 216.411 128.511 216.411ZM133.415 209.575C132.987 209.575 132.635 209.223 132.635 208.796C132.635 208.356 132.987 208.016 133.415 208.016C133.842 208.016 134.194 208.356 134.194 208.796C134.194 209.223 133.842 209.575 133.415 209.575ZM132.836 217.178V211.033H134.018V217.178H132.836ZM139 210.982V212.063H138.472C137.354 212.063 136.663 212.742 136.663 213.923V217.178H135.481V211.045H136.587L136.663 211.975C136.914 211.334 137.53 210.907 138.372 210.907C138.585 210.907 138.761 210.932 139 210.982Z" fill="white"/>
<path d="M37.9531 235.54C37.9531 231.574 41.1682 228.359 45.1342 228.359H508.314C512.28 228.359 515.495 231.574 515.495 235.54V257.131C515.495 261.097 512.28 264.312 508.314 264.312H45.1342C41.1682 264.312 37.9531 261.097 37.9531 257.131V235.54Z" fill="url(#paint13_linear_1356_166528)" fill-opacity="0.2"/>
<path d="M45.1338 228.809H508.313C512.031 228.809 515.046 231.822 515.046 235.54V257.131C515.046 260.849 512.032 263.863 508.313 263.863H45.1338C41.4159 263.863 38.4023 260.849 38.4023 257.131V235.54C38.4026 231.822 41.416 228.809 45.1338 228.809Z" stroke="white" stroke-opacity="0.05" stroke-width="0.897635"/>
<g clip-path="url(#clip1_1356_166528)">
<path d="M61.7201 250.862C65.4488 250.862 68.4715 247.839 68.4715 244.111C68.4715 240.382 65.4488 237.359 61.7201 237.359C57.9914 237.359 54.9688 240.382 54.9688 244.111C54.9688 247.839 57.9914 250.862 61.7201 250.862Z" fill="#F0F0F0"/>
<path d="M61.4277 244.111H68.4726C68.4726 243.501 68.3914 242.911 68.2401 242.35H61.4277V244.111Z" fill="#D80027"/>
<path d="M61.4277 240.587H67.4817C67.0684 239.913 66.54 239.317 65.9239 238.826H61.4277V240.587Z" fill="#D80027"/>
<path d="M61.7212 250.862C63.3101 250.862 64.7705 250.313 65.9238 249.395H57.5186C58.6718 250.313 60.1323 250.862 61.7212 250.862Z" fill="#D80027"/>
<path d="M55.9595 247.634H67.4804C67.8122 247.093 68.0695 246.501 68.2388 245.873H55.2012C55.3704 246.501 55.6277 247.093 55.9595 247.634Z" fill="#D80027"/>
<path d="M58.0961 238.414H58.7114L58.1391 238.829L58.3577 239.502L57.7854 239.086L57.2132 239.502L57.402 238.921C56.8981 239.341 56.4565 239.832 56.0925 240.38H56.2897L55.9254 240.645C55.8686 240.74 55.8142 240.836 55.762 240.934L55.936 241.469L55.6114 241.233C55.5308 241.404 55.457 241.579 55.3907 241.757L55.5823 242.347H56.2897L55.7174 242.763L55.936 243.436L55.3637 243.02L55.0209 243.269C54.9866 243.545 54.9688 243.826 54.9688 244.111H61.7201C61.7201 240.382 61.7201 239.943 61.7201 237.359C60.3864 237.359 59.1431 237.746 58.0961 238.414ZM58.3577 243.436L57.7854 243.02L57.2132 243.436L57.4318 242.763L56.8595 242.347H57.5668L57.7854 241.674L58.004 242.347H58.7114L58.1391 242.763L58.3577 243.436ZM58.1391 240.796L58.3577 241.469L57.7854 241.053L57.2132 241.469L57.4318 240.796L56.8595 240.38H57.5668L57.7854 239.708L58.004 240.38H58.7114L58.1391 240.796ZM60.7794 243.436L60.2071 243.02L59.6348 243.436L59.8534 242.763L59.2812 242.347H59.9885L60.2071 241.674L60.4257 242.347H61.133L60.5608 242.763L60.7794 243.436ZM60.5608 240.796L60.7794 241.469L60.2071 241.053L59.6348 241.469L59.8534 240.796L59.2812 240.38H59.9885L60.2071 239.708L60.4257 240.38H61.133L60.5608 240.796ZM60.5608 238.829L60.7794 239.502L60.2071 239.086L59.6348 239.502L59.8534 238.829L59.2812 238.414H59.9885L60.2071 237.741L60.4257 238.414H61.133L60.5608 238.829Z" fill="#0052B4"/>
</g>
<path d="M63.8788 250.17C62.973 253.804 59.2932 256.015 55.6596 255.109C52.0275 254.203 49.8165 250.523 50.7226 246.89C51.628 243.256 55.3078 241.045 58.9403 241.951C62.5736 242.857 64.7845 246.537 63.8787 250.17L63.8787 250.17H63.8788Z" fill="#F7931A"/>
<path fill-rule="evenodd" clip-rule="evenodd" d="M60.29 247.564C60.425 246.662 59.7379 246.177 58.7983 245.853L59.1031 244.63L58.3589 244.445L58.0622 245.635C57.8666 245.587 57.6657 245.541 57.466 245.495L57.7648 244.297L57.0211 244.111L56.7161 245.333C56.5542 245.297 56.3952 245.26 56.241 245.222L56.2418 245.218L55.2156 244.962L55.0176 245.757C55.0176 245.757 55.5697 245.883 55.5581 245.891C55.8594 245.966 55.9139 246.166 55.9049 246.324L55.5577 247.716C55.5784 247.722 55.6054 247.729 55.6351 247.741L55.6135 247.736L55.6134 247.736C55.5951 247.731 55.576 247.727 55.5564 247.722L55.0697 249.673C55.0329 249.764 54.9394 249.902 54.7287 249.85C54.7362 249.86 54.1878 249.715 54.1878 249.715L53.8184 250.567L54.7868 250.808C54.8928 250.835 54.9976 250.862 55.1014 250.889L55.1014 250.889C55.1739 250.908 55.2459 250.927 55.3174 250.945L55.0094 252.181L55.7528 252.367L56.0577 251.143C56.2608 251.199 56.4579 251.249 56.6508 251.297L56.3469 252.515L57.0911 252.7L57.399 251.466C58.668 251.706 59.6222 251.61 60.0238 250.462C60.3475 249.538 60.0077 249.005 59.3401 248.657C59.8264 248.545 60.1926 248.225 60.2903 247.564L60.2901 247.564L60.29 247.564ZM58.5907 249.949C58.3797 250.797 57.0525 250.446 56.4453 250.286C56.3907 250.271 56.3419 250.258 56.3003 250.248L56.7089 248.61C56.7597 248.623 56.8217 248.637 56.8919 248.652C57.52 248.793 58.8069 249.082 58.5907 249.949H58.5907ZM57.0184 247.891C57.5246 248.026 58.6289 248.321 58.8213 247.55H58.8213C59.0177 246.762 57.9445 246.524 57.4203 246.408C57.3613 246.395 57.3093 246.384 57.2668 246.373L56.8963 247.859C56.9313 247.868 56.9724 247.878 57.0184 247.891Z" fill="white"/>
<path d="M78.5416 251.336V242.338H81.8341C83.5683 242.338 84.6365 243.218 84.6365 244.663C84.6365 245.719 84.1715 246.435 83.2416 246.799C84.2846 247.139 84.8124 247.867 84.8124 248.973C84.8124 250.419 83.7317 251.336 82.0226 251.336H78.5416ZM81.8215 243.142H79.4464V246.435H81.9346C83.0656 246.435 83.7066 245.807 83.7066 244.738C83.7066 243.733 83.0279 243.142 81.8215 243.142ZM82.0226 247.227H79.4464V250.519H82.0226C83.2039 250.519 83.8951 249.903 83.8951 248.86C83.8951 247.842 83.1913 247.227 82.0226 247.227ZM85.2061 243.167V242.338H91.653V243.167H88.8757V251.336H87.9709V243.167H85.2061ZM96.1612 251.474C93.6478 251.474 91.9388 249.602 91.9388 246.837C91.9388 244.072 93.673 242.187 96.2115 242.187C98.1468 242.187 99.6674 243.356 100.032 245.14H99.0642C98.6872 243.846 97.5813 243.054 96.1738 243.054C94.2008 243.054 92.8813 244.562 92.8813 246.837C92.8813 249.099 94.2008 250.607 96.1738 250.607C97.5939 250.607 98.7249 249.84 99.1144 248.634H100.082C99.6674 250.331 98.0965 251.474 96.1612 251.474ZM101.087 251.336H100.233L103.739 242.338H104.619L101.087 251.336ZM105.569 248.207V242.338H106.474V248.169C106.474 249.753 107.341 250.607 108.912 250.607C110.445 250.607 111.312 249.727 111.312 248.169V242.338H112.217V248.207C112.217 250.243 110.96 251.487 108.912 251.487C106.826 251.487 105.569 250.255 105.569 248.207ZM113.729 244.675C113.729 243.167 114.936 242.175 116.746 242.175C118.367 242.175 119.435 243.079 119.573 244.588H118.656C118.555 243.57 117.864 242.992 116.733 242.992C115.464 242.992 114.634 243.645 114.634 244.663C114.634 245.455 115.099 245.957 116.042 246.196L117.587 246.573C118.995 246.912 119.724 247.717 119.724 248.936C119.724 250.494 118.517 251.487 116.658 251.487C114.911 251.487 113.729 250.569 113.616 249.099H114.546C114.597 250.042 115.426 250.657 116.658 250.657C117.977 250.657 118.819 250.016 118.819 248.986C118.819 248.182 118.367 247.654 117.399 247.428L115.878 247.051C114.471 246.711 113.729 245.907 113.729 244.675ZM124.015 251.336H121.276V242.338H123.99C126.704 242.338 128.514 244.148 128.514 246.837C128.514 249.526 126.717 251.336 124.015 251.336ZM123.952 243.167H122.18V250.507H123.977C126.177 250.507 127.584 249.074 127.584 246.837C127.584 244.588 126.177 243.167 123.952 243.167Z" fill="white"/>
<path d="M493.951 247.123L497.284 243.791L498.236 244.743L493.951 249.027L489.667 244.743L490.619 243.791L493.951 247.123Z" fill="white" fill-opacity="0.6"/>
<path d="M37.9531 292.968C37.9531 287.94 37.9531 285.427 38.9315 283.507C39.7921 281.818 41.1653 280.444 42.8543 279.584C44.7744 278.605 47.2881 278.605 52.3153 278.605H993.037C998.064 278.605 1000.58 278.605 1002.5 279.584C1004.19 280.444 1005.56 281.818 1006.42 283.507C1007.4 285.427 1007.4 287.94 1007.4 292.968V311.968C1007.4 316.995 1007.4 319.508 1006.42 321.429C1005.56 323.118 1004.19 324.491 1002.5 325.351C1000.58 326.33 998.064 326.33 993.037 326.33H52.3153C47.2881 326.33 44.7744 326.33 42.8543 325.351C41.1653 324.491 39.7921 323.118 38.9315 321.429C37.9531 319.508 37.9531 316.995 37.9531 311.968V292.968Z" fill="url(#paint14_linear_1356_166528)" fill-opacity="0.2"/>
<path opacity="0.6" d="M59.8556 307.967H53.5219V297.583H59.8556V298.876H54.9293V302.121H59.3673V303.371H54.9293V306.66H59.8556V307.967ZM63.0154 307.967H61.6653V300.944H62.8861L63.0297 302.021C63.4749 301.217 64.3654 300.743 65.3564 300.743C67.2091 300.743 68.0565 301.877 68.0565 303.673V307.967H66.7064V303.974C66.7064 302.552 66.0458 301.978 65.0117 301.978C63.7478 301.978 63.0154 302.883 63.0154 304.247V307.967ZM71.9083 307.967H70.5583V302.078H69.1795V300.944H70.5583V298.746H71.9083V300.944H73.2871V302.078H71.9083V307.967ZM77.459 308.139C75.3908 308.139 73.969 306.645 73.969 304.462C73.969 302.265 75.3621 300.743 77.4015 300.743C79.3979 300.743 80.7048 302.121 80.7048 304.204V304.707L75.2759 304.721C75.3765 306.2 76.152 307.019 77.4877 307.019C78.5361 307.019 79.2255 306.588 79.4553 305.784H80.7192C80.3745 307.292 79.1968 308.139 77.459 308.139ZM77.4015 301.877C76.2238 301.877 75.477 302.581 75.3046 303.816H79.3548C79.3548 302.653 78.5936 301.877 77.4015 301.877ZM86.2341 300.886V302.121H85.6309C84.3527 302.121 83.5628 302.897 83.5628 304.247V307.967H82.2127V300.958H83.4766L83.5628 302.021C83.85 301.288 84.5538 300.8 85.516 300.8C85.7602 300.8 85.9613 300.829 86.2341 300.886ZM90.652 298.876V297.583H98.307V298.876H95.1904V307.967H93.7829V298.876H90.652ZM102.658 300.886V302.121H102.055C100.777 302.121 99.9867 302.897 99.9867 304.247V307.967H98.6367V300.958H99.9005L99.9867 302.021C100.274 301.288 100.978 300.8 101.94 300.8C102.184 300.8 102.385 300.829 102.658 300.886ZM105.698 308.139C104.19 308.139 103.299 307.292 103.299 306.014C103.299 304.721 104.261 303.917 105.913 303.787L108.125 303.615V303.414C108.125 302.236 107.421 301.82 106.473 301.82C105.339 301.82 104.692 302.322 104.692 303.17H103.515C103.515 301.705 104.721 300.743 106.531 300.743C108.268 300.743 109.446 301.662 109.446 303.558V307.967H108.297L108.153 306.832C107.794 307.636 106.832 308.139 105.698 308.139ZM106.085 307.091C107.364 307.091 108.139 306.258 108.139 304.936V304.563L106.344 304.707C105.152 304.821 104.663 305.281 104.663 305.97C104.663 306.717 105.209 307.091 106.085 307.091ZM114.131 308.139C112.091 308.139 110.856 306.617 110.856 304.477C110.856 302.322 112.106 300.743 114.188 300.743C115.265 300.743 116.17 301.217 116.644 302.078V297.396H117.98V307.967H116.773L116.658 306.689C116.199 307.651 115.251 308.139 114.131 308.139ZM114.404 306.918C115.782 306.918 116.63 305.899 116.63 304.434C116.63 302.997 115.782 301.963 114.404 301.963C113.025 301.963 112.221 302.997 112.221 304.434C112.221 305.884 113.025 306.918 114.404 306.918ZM120.588 299.278C120.1 299.278 119.698 298.876 119.698 298.387C119.698 297.885 120.1 297.497 120.588 297.497C121.076 297.497 121.479 297.885 121.479 298.387C121.479 298.876 121.076 299.278 120.588 299.278ZM119.927 307.967V300.944H121.277V307.967H119.927ZM124.588 307.967H123.237V300.944H124.458L124.602 302.021C125.047 301.217 125.938 300.743 126.929 300.743C128.781 300.743 129.629 301.877 129.629 303.673V307.967H128.279V303.974C128.279 302.552 127.618 301.978 126.584 301.978C125.32 301.978 124.588 302.883 124.588 304.247V307.967ZM131.053 304.276C131.053 302.294 132.332 300.743 134.371 300.743C135.506 300.743 136.382 301.26 136.827 302.136L136.927 300.944H138.134V307.68C138.134 309.891 136.769 311.299 134.615 311.299C132.705 311.299 131.398 310.222 131.139 308.441H132.49C132.662 309.475 133.437 310.078 134.615 310.078C135.936 310.078 136.798 309.216 136.798 307.881V306.473C136.339 307.292 135.419 307.78 134.313 307.78C132.317 307.78 131.053 306.243 131.053 304.276ZM132.403 304.247C132.403 305.568 133.222 306.602 134.543 306.602C135.908 306.602 136.741 305.626 136.741 304.247C136.741 302.897 135.936 301.92 134.558 301.92C133.208 301.92 132.403 302.954 132.403 304.247ZM148.691 298.732C146.451 298.732 145.101 300.384 145.101 302.84C145.101 305.353 146.566 306.803 148.706 306.803C150.472 306.803 151.894 305.899 151.894 303.802V303.5H148.418V302.251H153.215V307.981H152.038L151.937 306.574C151.377 307.478 150.113 308.139 148.591 308.139C145.647 308.139 143.622 306.014 143.622 302.811C143.622 299.651 145.661 297.411 148.72 297.411C150.989 297.411 152.756 298.718 153.101 300.714H151.607C151.219 299.393 150.07 298.732 148.691 298.732ZM154.532 304.448C154.532 302.279 156.083 300.757 158.194 300.757C160.291 300.757 161.842 302.279 161.842 304.448C161.842 306.617 160.291 308.139 158.194 308.139C156.083 308.139 154.532 306.617 154.532 304.448ZM155.896 304.448C155.896 305.913 156.83 306.933 158.194 306.933C159.544 306.933 160.492 305.913 160.492 304.448C160.492 302.983 159.544 301.963 158.194 301.963C156.83 301.963 155.896 302.983 155.896 304.448ZM165.39 308.139C163.882 308.139 162.992 307.292 162.992 306.014C162.992 304.721 163.954 303.917 165.606 303.787L167.818 303.615V303.414C167.818 302.236 167.114 301.82 166.166 301.82C165.031 301.82 164.385 302.322 164.385 303.17H163.207C163.207 301.705 164.414 300.743 166.223 300.743C167.961 300.743 169.139 301.662 169.139 303.558V307.967H167.99L167.846 306.832C167.487 307.636 166.525 308.139 165.39 308.139ZM165.778 307.091C167.056 307.091 167.832 306.258 167.832 304.936V304.563L166.037 304.707C164.845 304.821 164.356 305.281 164.356 305.97C164.356 306.717 164.902 307.091 165.778 307.091ZM172.387 307.967H171.037V297.396H172.387V307.967ZM173.8 305.927H175.093C175.093 306.645 175.638 307.076 176.529 307.076C177.477 307.076 178.023 306.689 178.023 306.042C178.023 305.568 177.793 305.281 177.06 305.094L175.825 304.807C174.576 304.506 173.987 303.888 173.987 302.854C173.987 301.561 175.078 300.743 176.629 300.743C178.166 300.743 179.172 301.604 179.2 302.94H177.908C177.879 302.236 177.405 301.791 176.586 301.791C175.739 301.791 175.265 302.164 175.265 302.811C175.265 303.285 175.61 303.601 176.299 303.773L177.534 304.075C178.726 304.362 179.315 304.908 179.315 305.956C179.315 307.292 178.166 308.139 176.5 308.139C174.849 308.139 173.8 307.263 173.8 305.927ZM181.734 308.139C181.173 308.139 180.699 307.68 180.699 307.134C180.699 306.574 181.173 306.114 181.734 306.114C182.279 306.114 182.753 306.574 182.753 307.134C182.753 307.68 182.279 308.139 181.734 308.139ZM185.703 308.139C185.143 308.139 184.669 307.68 184.669 307.134C184.669 306.574 185.143 306.114 185.703 306.114C186.249 306.114 186.722 306.574 186.722 307.134C186.722 307.68 186.249 308.139 185.703 308.139ZM189.672 308.139C189.112 308.139 188.638 307.68 188.638 307.134C188.638 306.574 189.112 306.114 189.672 306.114C190.218 306.114 190.692 306.574 190.692 307.134C190.692 307.68 190.218 308.139 189.672 308.139ZM193.641 308.139C193.081 308.139 192.607 307.68 192.607 307.134C192.607 306.574 193.081 306.114 193.641 306.114C194.187 306.114 194.661 306.574 194.661 307.134C194.661 307.68 194.187 308.139 193.641 308.139Z" fill="white"/>
</g>
<rect x="0.5" y="0.851562" width="499" height="363" rx="15.5" stroke="white" stroke-opacity="0.1"/>
<defs>
<filter id="filter0_dd_1356_166528" x="310.236" y="83.8196" width="25.1336" height="25.1336" filterUnits="userSpaceOnUse" color-interpolation-filters="sRGB">
<feFlood flood-opacity="0" result="BackgroundImageFix"/>
<feColorMatrix in="SourceAlpha" type="matrix" values="0 0 0 0 0 0 0 0 0 0 0 0 0 0 0 0 0 0 127 0" result="hardAlpha"/>
<feOffset dy="1.79527"/>
<feGaussianBlur stdDeviation="1.79527"/>
<feColorMatrix type="matrix" values="0 0 0 0 0.054902 0 0 0 0 0.0705882 0 0 0 0 0.105882 0 0 0 0.08 0"/>
<feBlend mode="normal" in2="BackgroundImageFix" result="effect1_dropShadow_1356_166528"/>
<feColorMatrix in="SourceAlpha" type="matrix" values="0 0 0 0 0 0 0 0 0 0 0 0 0 0 0 0 0 0 127 0" result="hardAlpha"/>
<feOffset dy="3.59054"/>
<feGaussianBlur stdDeviation="3.59054"/>
<feColorMatrix type="matrix" values="0 0 0 0 0.105882 0 0 0 0 0.109804 0 0 0 0 0.113725 0 0 0 0.06 0"/>
<feBlend mode="normal" in2="effect1_dropShadow_1356_166528" result="effect2_dropShadow_1356_166528"/>
<feBlend mode="normal" in="SourceGraphic" in2="effect2_dropShadow_1356_166528" result="shape"/>
</filter>
<filter id="filter1_dd_1356_166528" x="321.007" y="123.363" width="25.1336" height="25.1336" filterUnits="userSpaceOnUse" color-interpolation-filters="sRGB">
<feFlood flood-opacity="0" result="BackgroundImageFix"/>
<feColorMatrix in="SourceAlpha" type="matrix" values="0 0 0 0 0 0 0 0 0 0 0 0 0 0 0 0 0 0 127 0" result="hardAlpha"/>
<feOffset dy="1.79527"/>
<feGaussianBlur stdDeviation="1.79527"/>
<feColorMatrix type="matrix" values="0 0 0 0 0.054902 0 0 0 0 0.0705882 0 0 0 0 0.105882 0 0 0 0.08 0"/>
<feBlend mode="normal" in2="BackgroundImageFix" result="effect1_dropShadow_1356_166528"/>
<feColorMatrix in="SourceAlpha" type="matrix" values="0 0 0 0 0 0 0 0 0 0 0 0 0 0 0 0 0 0 127 0" result="hardAlpha"/>
<feOffset dy="3.59054"/>
<feGaussianBlur stdDeviation="3.59054"/>
<feColorMatrix type="matrix" values="0 0 0 0 0.105882 0 0 0 0 0.109804 0 0 0 0 0.113725 0 0 0 0.06 0"/>
<feBlend mode="normal" in2="effect1_dropShadow_1356_166528" result="effect2_dropShadow_1356_166528"/>
<feBlend mode="normal" in="SourceGraphic" in2="effect2_dropShadow_1356_166528" result="shape"/>
</filter>
<filter id="filter2_dd_1356_166528" x="310.236" y="162.906" width="25.1336" height="25.1336" filterUnits="userSpaceOnUse" color-interpolation-filters="sRGB">
<feFlood flood-opacity="0" result="BackgroundImageFix"/>
<feColorMatrix in="SourceAlpha" type="matrix" values="0 0 0 0 0 0 0 0 0 0 0 0 0 0 0 0 0 0 127 0" result="hardAlpha"/>
<feOffset dy="1.79527"/>
<feGaussianBlur stdDeviation="1.79527"/>
<feColorMatrix type="matrix" values="0 0 0 0 0.054902 0 0 0 0 0.0705882 0 0 0 0 0.105882 0 0 0 0.08 0"/>
<feBlend mode="normal" in2="BackgroundImageFix" result="effect1_dropShadow_1356_166528"/>
<feColorMatrix in="SourceAlpha" type="matrix" values="0 0 0 0 0 0 0 0 0 0 0 0 0 0 0 0 0 0 127 0" result="hardAlpha"/>
<feOffset dy="3.59054"/>
<feGaussianBlur stdDeviation="3.59054"/>
<feColorMatrix type="matrix" values="0 0 0 0 0.105882 0 0 0 0 0.109804 0 0 0 0 0.113725 0 0 0 0.06 0"/>
<feBlend mode="normal" in2="effect1_dropShadow_1356_166528" result="effect2_dropShadow_1356_166528"/>
<feBlend mode="normal" in="SourceGraphic" in2="effect2_dropShadow_1356_166528" result="shape"/>
</filter>
<linearGradient id="paint0_linear_1356_166528" x1="140.907" y1="258.011" x2="227.23" y2="-233.154" gradientUnits="userSpaceOnUse">
<stop stop-color="#3EDC81"/>
<stop offset="1" stop-color="#0276DB"/>
</linearGradient>
<linearGradient id="paint1_linear_1356_166528" x1="850.881" y1="-298.993" x2="200.234" y2="448.988" gradientUnits="userSpaceOnUse">
<stop stop-color="#0F0F0F" stop-opacity="0.2"/>
<stop offset="0.555856" stop-color="#0F0F0F" stop-opacity="0.661921"/>
<stop offset="0.768606" stop-color="#0F0F0F" stop-opacity="0.748406"/>
<stop offset="1" stop-color="#0F0F0F" stop-opacity="0.9"/>
</linearGradient>
<linearGradient id="paint2_linear_1356_166528" x1="198.331" y1="-23.7988" x2="198.331" y2="35.4924" gradientUnits="userSpaceOnUse">
<stop stop-color="white" stop-opacity="0.2"/>
<stop offset="1" stop-color="white" stop-opacity="0.1"/>
</linearGradient>
<linearGradient id="paint3_linear_1356_166528" x1="522.676" y1="-23.7988" x2="522.676" y2="35.4924" gradientUnits="userSpaceOnUse">
<stop stop-color="white" stop-opacity="0.2"/>
<stop offset="1" stop-color="white" stop-opacity="0.1"/>
</linearGradient>
<linearGradient id="paint4_linear_1356_166528" x1="194.74" y1="74.8438" x2="194.74" y2="110.796" gradientUnits="userSpaceOnUse">
<stop stop-color="white" stop-opacity="0.2"/>
<stop offset="1" stop-color="white" stop-opacity="0.1"/>
</linearGradient>
<linearGradient id="paint5_linear_1356_166528" x1="315.259" y1="92.8198" x2="340.393" y2="92.8198" gradientUnits="userSpaceOnUse">
<stop stop-color="white"/>
<stop offset="1" stop-color="white" stop-opacity="0.4"/>
</linearGradient>
<linearGradient id="paint6_linear_1356_166528" x1="194.74" y1="114.387" x2="194.74" y2="150.339" gradientUnits="userSpaceOnUse">
<stop stop-color="white" stop-opacity="0.2"/>
<stop offset="1" stop-color="white" stop-opacity="0.1"/>
</linearGradient>
<linearGradient id="paint7_linear_1356_166528" x1="327.826" y1="125.182" x2="327.826" y2="139.544" gradientUnits="userSpaceOnUse">
<stop stop-color="#15B0F8"/>
<stop offset="1" stop-color="#0276DB"/>
</linearGradient>
<linearGradient id="paint8_linear_1356_166528" x1="333.575" y1="130.545" x2="333.575" y2="134.135" gradientUnits="userSpaceOnUse">
<stop stop-color="#15B0F8"/>
<stop offset="1" stop-color="#0276DB"/>
</linearGradient>
<linearGradient id="paint9_linear_1356_166528" x1="194.74" y1="153.93" x2="194.74" y2="189.882" gradientUnits="userSpaceOnUse">
<stop stop-color="white" stop-opacity="0.2"/>
<stop offset="1" stop-color="white" stop-opacity="0.1"/>
</linearGradient>
<linearGradient id="paint10_linear_1356_166528" x1="315.259" y1="171.906" x2="340.393" y2="171.906" gradientUnits="userSpaceOnUse">
<stop stop-color="white"/>
<stop offset="1" stop-color="white" stop-opacity="0.4"/>
</linearGradient>
<linearGradient id="paint11_linear_1356_166528" x1="522.676" y1="74.8438" x2="522.676" y2="110.796" gradientUnits="userSpaceOnUse">
<stop stop-color="white" stop-opacity="0.2"/>
<stop offset="1" stop-color="white" stop-opacity="0.1"/>
</linearGradient>
<linearGradient id="paint12_linear_1356_166528" x1="522.676" y1="114.387" x2="522.676" y2="150.339" gradientUnits="userSpaceOnUse">
<stop stop-color="white" stop-opacity="0.2"/>
<stop offset="1" stop-color="white" stop-opacity="0.1"/>
</linearGradient>
<linearGradient id="paint13_linear_1356_166528" x1="276.724" y1="228.359" x2="276.724" y2="264.312" gradientUnits="userSpaceOnUse">
<stop stop-color="white" stop-opacity="0.1"/>
<stop offset="1" stop-color="white" stop-opacity="0.05"/>
</linearGradient>
<linearGradient id="paint14_linear_1356_166528" x1="522.676" y1="278.605" x2="522.676" y2="326.33" gradientUnits="userSpaceOnUse">
<stop stop-color="white" stop-opacity="0.2"/>
<stop offset="1" stop-color="white" stop-opacity="0.1"/>
</linearGradient>
<clipPath id="clip0_1356_166528">
<rect y="0.351562" width="500" height="364" rx="16" fill="white"/>
</clipPath>
<clipPath id="clip1_1356_166528">
<rect width="13.5027" height="13.5027" fill="white" transform="translate(54.9688 237.359)"/>
</clipPath>
</defs>
</svg>
