<svg width="500" height="364" viewBox="0 0 500 364" fill="none" xmlns="http://www.w3.org/2000/svg">
<g clip-path="url(#clip0_1870_49154)">
<rect width="500" height="364" rx="16" fill="white" fill-opacity="0.05"/>
<path d="M20 -204.534C20 -212.578 20 -216.6 21.5654 -219.672C22.9423 -222.374 25.1395 -224.571 27.8419 -225.948C30.9141 -227.514 34.9359 -227.514 42.9795 -227.514H1002.37C1010.42 -227.514 1014.44 -227.514 1017.51 -225.948C1020.21 -224.571 1022.41 -222.374 1023.79 -219.672C1025.35 -216.6 1025.35 -212.578 1025.35 -204.534V320.952C1025.35 328.996 1025.35 333.018 1023.79 336.09C1022.41 338.792 1020.21 340.989 1017.51 342.366C1014.44 343.932 1010.42 343.932 1002.37 343.932H42.9794C34.9359 343.932 30.9141 343.932 27.8419 342.366C25.1395 340.989 22.9423 338.792 21.5654 336.09C20 333.018 20 328.996 20 320.952V-204.534Z" fill="url(#paint0_linear_1870_49154)"/>
<path d="M20 -204.534C20 -212.578 20 -216.6 21.5654 -219.672C22.9423 -222.374 25.1395 -224.571 27.8419 -225.948C30.9141 -227.514 34.9359 -227.514 42.9795 -227.514H1002.37C1010.42 -227.514 1014.44 -227.514 1017.51 -225.948C1020.21 -224.571 1022.41 -222.374 1023.79 -219.672C1025.35 -216.6 1025.35 -212.578 1025.35 -204.534V320.952C1025.35 328.996 1025.35 333.018 1023.79 336.09C1022.41 338.792 1020.21 340.989 1017.51 342.366C1014.44 343.932 1010.42 343.932 1002.37 343.932H42.9794C34.9359 343.932 30.9141 343.932 27.8419 342.366C25.1395 340.989 22.9423 338.792 21.5654 336.09C20 333.018 20 328.996 20 320.952V-204.534Z" fill="url(#paint1_linear_1870_49154)" fill-opacity="0.7"/>
<path d="M42.9795 -227.064H1002.37C1006.4 -227.064 1009.4 -227.065 1011.77 -226.871C1014.14 -226.678 1015.84 -226.294 1017.31 -225.549C1019.92 -224.215 1022.05 -222.086 1023.39 -219.468C1024.13 -218.006 1024.51 -216.298 1024.71 -213.931C1024.9 -211.558 1024.9 -208.563 1024.9 -204.534V320.952C1024.9 324.981 1024.9 327.976 1024.71 330.349C1024.51 332.716 1024.13 334.423 1023.39 335.886C1022.05 338.504 1019.92 340.633 1017.31 341.967C1015.84 342.712 1014.14 343.096 1011.77 343.289C1009.4 343.483 1006.4 343.482 1002.37 343.482H42.9795C38.9504 343.482 35.9554 343.483 33.583 343.289C31.216 343.096 29.5081 342.712 28.0459 341.967C25.4279 340.633 23.2988 338.504 21.9648 335.886C21.2199 334.424 20.836 332.716 20.6426 330.349C20.4488 327.976 20.4492 324.981 20.4492 320.952V-204.534C20.4492 -208.563 20.4488 -211.558 20.6426 -213.931C20.836 -216.298 21.2199 -218.006 21.9648 -219.468C23.2988 -222.086 25.4279 -224.215 28.0459 -225.549C29.5081 -226.294 31.2161 -226.678 33.583 -226.871C35.9554 -227.065 38.9503 -227.064 42.9795 -227.064Z" stroke="white" stroke-opacity="0.05" stroke-width="0.897635"/>
<path d="M37.9531 -9.78824C37.9531 -14.8155 37.9531 -17.3291 38.9315 -19.2492C39.7921 -20.9382 41.1653 -22.3114 42.8543 -23.172C44.7744 -24.1504 47.2881 -24.1504 52.3153 -24.1504H344.346C349.373 -24.1504 351.887 -24.1504 353.807 -23.172C355.496 -22.3114 356.869 -20.9382 357.73 -19.2492C358.708 -17.3291 358.708 -14.8155 358.708 -9.78823V20.7787C358.708 25.8059 358.708 28.3195 357.73 30.2397C356.869 31.9287 355.496 33.3019 353.807 34.1625C351.887 35.1408 349.373 35.1408 344.346 35.1408H52.3153C47.2881 35.1408 44.7744 35.1408 42.8543 34.1625C41.1653 33.3019 39.7921 31.9287 38.9315 30.2397C37.9531 28.3195 37.9531 25.8059 37.9531 20.7787V-9.78824Z" fill="url(#paint2_linear_1870_49154)" fill-opacity="0.2"/>
<path d="M52.3154 -23.7012H344.346C346.867 -23.7012 348.731 -23.7015 350.205 -23.5811C351.674 -23.461 352.717 -23.224 353.604 -22.7725C355.208 -21.9549 356.513 -20.6503 357.33 -19.0459C357.782 -18.1597 358.019 -17.1165 358.139 -15.6475C358.259 -14.1732 358.259 -12.3091 358.259 -9.78809V20.7783C358.259 23.2993 358.259 25.1634 358.139 26.6377C358.019 28.1068 357.782 29.1499 357.33 30.0361C356.513 31.6406 355.208 32.9451 353.604 33.7627C352.717 34.2143 351.674 34.4513 350.205 34.5713C348.731 34.6917 346.867 34.6924 344.346 34.6924H52.3154C49.7944 34.6924 47.9304 34.6917 46.4561 34.5713C44.987 34.4513 43.9439 34.2143 43.0576 33.7627C41.4532 32.9451 40.1486 31.6406 39.3311 30.0361C38.8795 29.1499 38.6425 28.1068 38.5225 26.6377C38.402 25.1634 38.4023 23.2993 38.4023 20.7783V-9.78809C38.4023 -12.3091 38.402 -14.1732 38.5225 -15.6475C38.6425 -17.1165 38.8795 -18.1597 39.3311 -19.0459C40.1486 -20.6503 41.4532 -21.9549 43.0576 -22.7725C43.9439 -23.224 44.987 -23.461 46.4561 -23.5811C47.9304 -23.7015 49.7944 -23.7012 52.3154 -23.7012Z" stroke="white" stroke-opacity="0.02" stroke-width="0.897635"/>
<path d="M50.6208 24.606V23.3709C48.725 23.256 47.4754 22.1788 47.3893 20.4984H48.8255C48.8542 21.4176 49.5292 22.0208 50.6208 22.1357V18.5596L50.1037 18.4447C48.409 18.0569 47.5329 17.109 47.5329 15.6297C47.5329 13.9924 48.7537 12.829 50.6208 12.6711V11.4216H51.5399V12.6567C53.2778 12.8147 54.3837 13.8775 54.4842 15.5435H53.0911C53.0336 14.6243 52.4735 14.0355 51.5399 13.9062V17.468L52.1001 17.5973C53.8235 17.9851 54.6565 18.8899 54.6565 20.3261C54.6565 22.0352 53.4357 23.1842 51.5399 23.3565V24.606H50.6208ZM50.391 17.1951L50.6208 17.2526V13.9062C49.558 14.0498 48.9117 14.6674 48.9117 15.5866C48.9117 16.4196 49.3856 16.951 50.391 17.1951ZM51.8128 18.8468L51.5399 18.7893V22.107C52.6171 21.9634 53.2778 21.3458 53.2778 20.441C53.2778 19.608 52.8038 19.0766 51.8128 18.8468ZM59.3264 23.3852C57.2008 23.3852 55.822 22.0352 55.822 19.967H57.2151C57.2151 21.3027 58.0338 22.1214 59.3551 22.1214C60.7626 22.1214 61.6674 21.1878 61.6674 19.7803C61.6674 18.4447 60.82 17.4537 59.3695 17.4537C58.4934 17.4537 57.6891 17.8702 57.2151 18.459L56.0231 18.1574L57.2869 12.829H62.486V14.1216H58.3067L57.6173 16.8792C58.163 16.4627 58.8524 16.2472 59.628 16.2472C61.7392 16.2472 63.1036 17.7265 63.1036 19.7229C63.1036 21.8772 61.5669 23.3852 59.3264 23.3852ZM66.225 22.6528C66.225 23.6868 65.4495 24.5486 64.4298 24.6778V24.0746C65.0186 23.9741 65.4351 23.5863 65.4351 23.1411C65.3346 23.1985 65.2197 23.2273 65.0473 23.2273C64.5734 23.2273 64.1712 22.8826 64.1712 22.3512C64.1712 21.7767 64.559 21.3602 65.1335 21.3602C65.7367 21.3602 66.225 21.8628 66.225 22.6528ZM67.2211 18.0281C67.2211 14.811 68.8871 12.628 71.501 12.628C74.1005 12.628 75.7666 14.811 75.7666 18.0281C75.7666 21.2596 74.1724 23.3996 71.501 23.3996C68.8153 23.3996 67.2211 21.2596 67.2211 18.0281ZM68.6142 18.0281C68.6142 20.5846 69.677 22.1357 71.501 22.1357C73.325 22.1357 74.3734 20.5846 74.3734 18.0281C74.3734 15.443 73.325 13.8918 71.501 13.8918C69.677 13.8918 68.6142 15.443 68.6142 18.0281ZM77.093 18.0281C77.093 14.811 78.759 12.628 81.373 12.628C83.9725 12.628 85.6385 14.811 85.6385 18.0281C85.6385 21.2596 84.0443 23.3996 81.373 23.3996C78.6872 23.3996 77.093 21.2596 77.093 18.0281ZM78.4862 18.0281C78.4862 20.5846 79.549 22.1357 81.373 22.1357C83.197 22.1357 84.2454 20.5846 84.2454 18.0281C84.2454 15.443 83.197 13.8918 81.373 13.8918C79.549 13.8918 78.4862 15.443 78.4862 18.0281ZM86.965 18.0281C86.965 14.811 88.631 12.628 91.2449 12.628C93.8445 12.628 95.5105 14.811 95.5105 18.0281C95.5105 21.2596 93.9163 23.3996 91.2449 23.3996C88.5592 23.3996 86.965 21.2596 86.965 18.0281ZM88.3581 18.0281C88.3581 20.5846 89.4209 22.1357 91.2449 22.1357C93.0689 22.1357 94.1174 20.5846 94.1174 18.0281C94.1174 15.443 93.0689 13.8918 91.2449 13.8918C89.4209 13.8918 88.3581 15.443 88.3581 18.0281ZM97.5261 23.3852C96.966 23.3852 96.4921 22.9256 96.4921 22.3799C96.4921 21.8198 96.966 21.3602 97.5261 21.3602C98.0719 21.3602 98.5458 21.8198 98.5458 22.3799C98.5458 22.9256 98.0719 23.3852 97.5261 23.3852ZM99.5419 18.0281C99.5419 14.811 101.208 12.628 103.822 12.628C106.421 12.628 108.087 14.811 108.087 18.0281C108.087 21.2596 106.493 23.3996 103.822 23.3996C101.136 23.3996 99.5419 21.2596 99.5419 18.0281ZM100.935 18.0281C100.935 20.5846 101.998 22.1357 103.822 22.1357C105.646 22.1357 106.694 20.5846 106.694 18.0281C106.694 15.443 105.646 13.8918 103.822 13.8918C101.998 13.8918 100.935 15.443 100.935 18.0281ZM109.414 18.0281C109.414 14.811 111.08 12.628 113.694 12.628C116.293 12.628 117.959 14.811 117.959 18.0281C117.959 21.2596 116.365 23.3996 113.694 23.3996C111.008 23.3996 109.414 21.2596 109.414 18.0281ZM110.807 18.0281C110.807 20.5846 111.87 22.1357 113.694 22.1357C115.518 22.1357 116.566 20.5846 116.566 18.0281C116.566 15.443 115.518 13.8918 113.694 13.8918C111.87 13.8918 110.807 15.443 110.807 18.0281Z" fill="#3EDC81"/>
<path d="M362.297 -9.78824C362.297 -14.8155 362.297 -17.3291 363.275 -19.2492C364.136 -20.9382 365.509 -22.3114 367.198 -23.172C369.118 -24.1504 371.632 -24.1504 376.659 -24.1504H668.69C673.717 -24.1504 676.23 -24.1504 678.151 -23.172C679.84 -22.3114 681.213 -20.9382 682.073 -19.2492C683.052 -17.3291 683.052 -14.8155 683.052 -9.78823V20.7787C683.052 25.8059 683.052 28.3195 682.073 30.2397C681.213 31.9287 679.84 33.3019 678.151 34.1625C676.23 35.1408 673.717 35.1408 668.69 35.1408H376.659C371.632 35.1408 369.118 35.1408 367.198 34.1625C365.509 33.3019 364.136 31.9287 363.275 30.2397C362.297 28.3195 362.297 25.8059 362.297 20.7787V-9.78824Z" fill="url(#paint3_linear_1870_49154)" fill-opacity="0.2"/>
<path d="M376.659 -23.7012H668.689C671.21 -23.7012 673.075 -23.7015 674.549 -23.5811C676.018 -23.461 677.061 -23.224 677.947 -22.7725C679.552 -21.9549 680.856 -20.6503 681.674 -19.0459C682.125 -18.1597 682.362 -17.1165 682.482 -15.6475C682.603 -14.1732 682.603 -12.3091 682.603 -9.78809V20.7783C682.603 23.2993 682.603 25.1634 682.482 26.6377C682.362 28.1068 682.125 29.1499 681.674 30.0361C680.856 31.6406 679.552 32.9451 677.947 33.7627C677.061 34.2143 676.018 34.4513 674.549 34.5713C673.075 34.6917 671.21 34.6924 668.689 34.6924H376.659C374.138 34.6924 372.274 34.6917 370.8 34.5713C369.331 34.4513 368.288 34.2143 367.401 33.7627C365.797 32.9451 364.492 31.6406 363.675 30.0361C363.223 29.1499 362.986 28.1068 362.866 26.6377C362.746 25.1634 362.746 23.2993 362.746 20.7783V-9.78809C362.746 -12.3091 362.746 -14.1732 362.866 -15.6475C362.986 -17.1165 363.223 -18.1597 363.675 -19.0459C364.492 -20.6503 365.797 -21.9549 367.401 -22.7725C368.288 -23.224 369.331 -23.461 370.8 -23.5811C372.274 -23.7015 374.138 -23.7012 376.659 -23.7012Z" stroke="white" stroke-opacity="0.02" stroke-width="0.897635"/>
<path d="M374.965 24.606V23.3709C373.069 23.256 371.819 22.1788 371.733 20.4984H373.169C373.198 21.4176 373.873 22.0208 374.965 22.1357V18.5596L374.447 18.4447C372.753 18.0569 371.877 17.109 371.877 15.6297C371.877 13.9924 373.097 12.829 374.965 12.6711V11.4216H375.884V12.6567C377.622 12.8147 378.727 13.8775 378.828 15.5435H377.435C377.377 14.6243 376.817 14.0355 375.884 13.9062V17.468L376.444 17.5973C378.167 17.9851 379 18.8899 379 20.3261C379 22.0352 377.779 23.1842 375.884 23.3565V24.606H374.965ZM374.735 17.1951L374.965 17.2526V13.9062C373.902 14.0498 373.255 14.6674 373.255 15.5866C373.255 16.4196 373.729 16.951 374.735 17.1951ZM376.157 18.8468L375.884 18.7893V22.107C376.961 21.9634 377.622 21.3458 377.622 20.441C377.622 19.608 377.148 19.0766 376.157 18.8468ZM387.146 23.1985L380.137 23.2129V22.1357L383.483 19.2489C385.164 17.7984 385.638 17.0946 385.638 15.9887C385.638 14.6818 384.891 13.9062 383.641 13.9062C382.363 13.9062 381.53 14.8398 381.501 16.3191H380.094C380.137 14.0929 381.545 12.6423 383.656 12.6423C385.738 12.6423 387.074 13.9062 387.074 15.9026C387.074 17.3819 386.341 18.4303 384.503 20.0245L382.349 21.8916H387.146V23.1985ZM390.779 22.6528C390.779 23.6868 390.004 24.5486 388.984 24.6778V24.0746C389.573 23.9741 389.989 23.5863 389.989 23.1411C389.889 23.1985 389.774 23.2273 389.601 23.2273C389.128 23.2273 388.725 22.8826 388.725 22.3512C388.725 21.7767 389.113 21.3602 389.688 21.3602C390.291 21.3602 390.779 21.8628 390.779 22.6528ZM391.775 18.0281C391.775 14.811 393.441 12.628 396.055 12.628C398.655 12.628 400.321 14.811 400.321 18.0281C400.321 21.2596 398.726 23.3996 396.055 23.3996C393.369 23.3996 391.775 21.2596 391.775 18.0281ZM393.168 18.0281C393.168 20.5846 394.231 22.1357 396.055 22.1357C397.879 22.1357 398.928 20.5846 398.928 18.0281C398.928 15.443 397.879 13.8918 396.055 13.8918C394.231 13.8918 393.168 15.443 393.168 18.0281ZM401.647 18.0281C401.647 14.811 403.313 12.628 405.927 12.628C408.527 12.628 410.193 14.811 410.193 18.0281C410.193 21.2596 408.598 23.3996 405.927 23.3996C403.241 23.3996 401.647 21.2596 401.647 18.0281ZM403.04 18.0281C403.04 20.5846 404.103 22.1357 405.927 22.1357C407.751 22.1357 408.8 20.5846 408.8 18.0281C408.8 15.443 407.751 13.8918 405.927 13.8918C404.103 13.8918 403.04 15.443 403.04 18.0281ZM411.519 18.0281C411.519 14.811 413.185 12.628 415.799 12.628C418.399 12.628 420.065 14.811 420.065 18.0281C420.065 21.2596 418.47 23.3996 415.799 23.3996C413.113 23.3996 411.519 21.2596 411.519 18.0281ZM412.912 18.0281C412.912 20.5846 413.975 22.1357 415.799 22.1357C417.623 22.1357 418.671 20.5846 418.671 18.0281C418.671 15.443 417.623 13.8918 415.799 13.8918C413.975 13.8918 412.912 15.443 412.912 18.0281ZM422.08 23.3852C421.52 23.3852 421.046 22.9256 421.046 22.3799C421.046 21.8198 421.52 21.3602 422.08 21.3602C422.626 21.3602 423.1 21.8198 423.1 22.3799C423.1 22.9256 422.626 23.3852 422.08 23.3852ZM424.096 18.0281C424.096 14.811 425.762 12.628 428.376 12.628C430.975 12.628 432.641 14.811 432.641 18.0281C432.641 21.2596 431.047 23.3996 428.376 23.3996C425.69 23.3996 424.096 21.2596 424.096 18.0281ZM425.489 18.0281C425.489 20.5846 426.552 22.1357 428.376 22.1357C430.2 22.1357 431.248 20.5846 431.248 18.0281C431.248 15.443 430.2 13.8918 428.376 13.8918C426.552 13.8918 425.489 15.443 425.489 18.0281ZM433.968 18.0281C433.968 14.811 435.634 12.628 438.248 12.628C440.847 12.628 442.513 14.811 442.513 18.0281C442.513 21.2596 440.919 23.3996 438.248 23.3996C435.562 23.3996 433.968 21.2596 433.968 18.0281ZM435.361 18.0281C435.361 20.5846 436.424 22.1357 438.248 22.1357C440.072 22.1357 441.12 20.5846 441.12 18.0281C441.12 15.443 440.072 13.8918 438.248 13.8918C436.424 13.8918 435.361 15.443 435.361 18.0281Z" fill="#EA4335"/>
<path d="M40.2403 63.3105H39.0087V54.2247H42.4395C44.3874 54.2247 45.5435 55.2552 45.5435 56.9517C45.5435 58.2084 44.9152 59.1132 43.7842 59.4776L45.6315 63.3105H44.2617L42.5652 59.7164H40.2403V63.3105ZM40.2403 55.3306V58.6231H42.4521C43.5957 58.6231 44.2491 58.0073 44.2491 56.9643C44.2491 55.9086 43.5705 55.3306 42.4395 55.3306H40.2403ZM47.3569 55.7076C46.9296 55.7076 46.5777 55.3557 46.5777 54.9284C46.5777 54.4886 46.9296 54.1493 47.3569 54.1493C47.7842 54.1493 48.136 54.4886 48.136 54.9284C48.136 55.3557 47.7842 55.7076 47.3569 55.7076ZM46.7788 63.3105V57.1653H47.9601V63.3105H46.7788ZM48.9211 61.526H50.0521C50.0521 62.1544 50.5296 62.5314 51.3088 62.5314C52.1382 62.5314 52.6157 62.1921 52.6157 61.6266C52.6157 61.2119 52.4147 60.9605 51.7738 60.7972L50.693 60.5458C49.5997 60.2819 49.0844 59.7415 49.0844 58.8367C49.0844 57.7057 50.0395 56.9894 51.3968 56.9894C52.7414 56.9894 53.6211 57.7434 53.6462 58.9121H52.5152C52.4901 58.2964 52.0754 57.9068 51.3591 57.9068C50.6176 57.9068 50.2029 58.2335 50.2029 58.799C50.2029 59.2137 50.5045 59.4902 51.1077 59.641L52.1885 59.9049C53.2315 60.1563 53.7468 60.6338 53.7468 61.5512C53.7468 62.7199 52.7414 63.4613 51.2837 63.4613C49.8385 63.4613 48.9211 62.6948 48.9211 61.526ZM56.0118 63.3105H54.8306V54.0613H56.0118V60.0557L58.7389 57.1653H60.2218L57.8717 59.6159L60.2092 63.3105H58.852L57.0549 60.4704L56.0118 61.5637V63.3105ZM65.5533 54.2247V62.167H69.5495V63.3105H64.3217V54.2247H65.5533ZM72.9639 63.4613C71.1543 63.4613 69.9101 62.1544 69.9101 60.2442C69.9101 58.3215 71.1291 56.9894 72.9136 56.9894C74.6604 56.9894 75.804 58.1958 75.804 60.018V60.4579L71.0537 60.4704C71.1417 61.7648 71.8203 62.4811 72.989 62.4811C73.9064 62.4811 74.5096 62.1041 74.7107 61.4004H75.8166C75.515 62.7199 74.4845 63.4613 72.9639 63.4613ZM72.9136 57.9822C71.8831 57.9822 71.2297 58.598 71.0789 59.6787H74.6227C74.6227 58.6608 73.9567 57.9822 72.9136 57.9822ZM78.3851 63.3105L75.9095 57.1653H77.1661L78.5108 60.5961C78.7244 61.1742 78.9004 61.6894 79.0009 62.0664C79.1014 61.6643 79.3025 61.1365 79.5162 60.5961L80.8859 57.1653H82.1175L79.5539 63.3105H78.3851ZM85.1754 63.4613C83.3657 63.4613 82.1216 62.1544 82.1216 60.2442C82.1216 58.3215 83.3406 56.9894 85.1251 56.9894C86.8719 56.9894 88.0155 58.1958 88.0155 60.018V60.4579L83.2652 60.4704C83.3532 61.7648 84.0318 62.4811 85.2005 62.4811C86.1179 62.4811 86.7211 62.1041 86.9222 61.4004H88.0281C87.7265 62.7199 86.696 63.4613 85.1754 63.4613ZM85.1251 57.9822C84.0946 57.9822 83.4411 58.598 83.2903 59.6787H86.8342C86.8342 58.6608 86.1682 57.9822 85.1251 57.9822ZM90.29 63.3105H89.1087V54.0613H90.29V63.3105Z" fill="white"/>
<path d="M37.9531 88.8543C37.9531 83.8271 37.9531 81.3135 38.9315 79.3934C39.7921 77.7044 41.1653 76.3311 42.8543 75.4706C44.7744 74.4922 47.2881 74.4922 52.3153 74.4922H337.165C342.192 74.4922 344.706 74.4922 346.626 75.4706C348.315 76.3311 349.688 77.7044 350.549 79.3934C351.527 81.3135 351.527 83.8271 351.527 88.8544V96.0827C351.527 101.11 351.527 103.624 350.549 105.544C349.688 107.233 348.315 108.606 346.626 109.467C344.706 110.445 342.192 110.445 337.165 110.445H52.3153C47.2881 110.445 44.7744 110.445 42.8543 109.467C41.1653 108.606 39.7921 107.233 38.9315 105.544C37.9531 103.624 37.9531 101.11 37.9531 96.0827V88.8543Z" fill="url(#paint4_linear_1870_49154)" fill-opacity="0.2"/>
<path d="M52.3154 74.9414H337.165C339.686 74.9414 341.549 74.9411 343.023 75.0615C344.492 75.1815 345.536 75.4186 346.422 75.8701C348.026 76.6876 349.331 77.9923 350.148 79.5967C350.6 80.4829 350.837 81.5261 350.957 82.9951C351.077 84.4694 351.078 86.3335 351.078 88.8545V96.083C351.078 98.6037 351.077 100.467 350.957 101.941C350.837 103.41 350.6 104.454 350.148 105.34C349.331 106.944 348.026 108.249 346.422 109.066C345.536 109.518 344.492 109.755 343.023 109.875C341.549 109.995 339.686 109.996 337.165 109.996H52.3154C49.7944 109.996 47.9304 109.995 46.4561 109.875C44.9871 109.755 43.9438 109.518 43.0576 109.066C41.4533 108.249 40.1485 106.944 39.3311 105.34C38.8796 104.454 38.6425 103.41 38.5225 101.941C38.402 100.467 38.4023 98.6036 38.4023 96.083V88.8545C38.4023 86.3335 38.402 84.4694 38.5225 82.9951C38.6425 81.5261 38.8795 80.4829 39.3311 79.5967C40.1486 77.9923 41.4532 76.6877 43.0576 75.8701C43.9439 75.4186 44.987 75.1816 46.4561 75.0615C47.9304 74.9411 49.7944 74.9414 52.3154 74.9414Z" stroke="white" stroke-opacity="0.02" stroke-width="0.897635"/>
<path d="M48.8901 88.6809V95.4885H52.3155V96.4688H47.8345V88.6809H48.8901ZM52.7754 93.8297C52.7754 92.2032 53.9387 91.0614 55.5222 91.0614C57.0948 91.0614 58.2582 92.2032 58.2582 93.8297C58.2582 95.4562 57.0948 96.598 55.5222 96.598C53.9387 96.598 52.7754 95.4562 52.7754 93.8297ZM53.7987 93.8297C53.7987 94.9284 54.4989 95.6932 55.5222 95.6932C56.5347 95.6932 57.2456 94.9284 57.2456 93.8297C57.2456 92.731 56.5347 91.9662 55.5222 91.9662C54.4989 91.9662 53.7987 92.731 53.7987 93.8297ZM60.2034 96.4688L58.48 91.2014H59.5248L60.3973 93.9374C60.5158 94.3252 60.6235 94.7237 60.7205 95.1869C60.8067 94.7237 60.9467 94.2821 61.0652 93.9374L61.9484 91.2014H62.9825L63.855 93.9374C63.9412 94.1959 64.1135 94.8099 64.1997 95.1869C64.2859 94.7668 64.3828 94.4006 64.5336 93.9374L65.4169 91.2014H66.4725L64.6737 96.4688H63.715L62.7994 93.6466C62.6271 93.1188 62.5193 92.7095 62.4655 92.4186C62.4116 92.6771 62.3147 93.0218 62.1208 93.6574L61.2052 96.4688H60.2034ZM71.3846 96.4688H70.3289V88.6809H73.2696C74.9392 88.6809 75.9302 89.5641 75.9302 91.0183C75.9302 92.0955 75.3916 92.871 74.4221 93.1834L76.0056 96.4688H74.8315L73.3773 93.3881H71.3846V96.4688ZM71.3846 89.6288V92.4509H73.2804C74.2606 92.4509 74.8207 91.9231 74.8207 91.0291C74.8207 90.1243 74.239 89.6288 73.2696 89.6288H71.3846ZM77.6353 89.9519C77.2691 89.9519 76.9675 89.6503 76.9675 89.2841C76.9675 88.9071 77.2691 88.6162 77.6353 88.6162C78.0015 88.6162 78.3031 88.9071 78.3031 89.2841C78.3031 89.6503 78.0015 89.9519 77.6353 89.9519ZM77.1398 96.4688V91.2014H78.1523V96.4688H77.1398ZM79.1268 94.9392H80.0963C80.0963 95.4778 80.5056 95.8009 81.1734 95.8009C81.8844 95.8009 82.2937 95.5101 82.2937 95.0254C82.2937 94.6699 82.1213 94.4545 81.572 94.3144L80.6456 94.099C79.7085 93.8728 79.2669 93.4096 79.2669 92.6341C79.2669 91.6646 80.0855 91.0506 81.2488 91.0506C82.4014 91.0506 83.1554 91.6969 83.177 92.6987H82.2075C82.186 92.1709 81.8305 91.837 81.2165 91.837C80.581 91.837 80.2255 92.117 80.2255 92.6017C80.2255 92.9572 80.484 93.1942 81.0011 93.3234L81.9274 93.5496C82.8215 93.7651 83.2631 94.1744 83.2631 94.9607C83.2631 95.9625 82.4014 96.598 81.1519 96.598C79.9132 96.598 79.1268 95.9409 79.1268 94.9392ZM85.3554 96.4688H84.3429V88.5408H85.3554V93.6789L87.6929 91.2014H88.9639L86.9496 93.3019L88.9532 96.4688H87.7898L86.2495 94.0344L85.3554 94.9715V96.4688Z" fill="white"/>
<path d="M315.262 92.4682C315.262 88.5022 318.477 85.2871 322.443 85.2871H333.214C337.18 85.2871 340.396 88.5022 340.396 92.4682C340.396 96.4342 337.18 99.6493 333.214 99.6493H322.443C318.477 99.6493 315.262 96.4342 315.262 92.4682Z" fill="url(#paint5_linear_1870_49154)" fill-opacity="0.3"/>
<g filter="url(#filter0_dd_1870_49154)">
<circle cx="322.804" cy="92.4444" r="5.38581" fill="white"/>
</g>
<circle cx="322.803" cy="92.4457" r="1.79527" fill="#0F1525" fill-opacity="0.3"/>
<path d="M37.9531 128.397C37.9531 123.37 37.9531 120.856 38.9315 118.936C39.7921 117.247 41.1653 115.874 42.8543 115.014C44.7744 114.035 47.2881 114.035 52.3153 114.035H337.165C342.192 114.035 344.706 114.035 346.626 115.014C348.315 115.874 349.688 117.247 350.549 118.936C351.527 120.856 351.527 123.37 351.527 128.397V135.626C351.527 140.653 351.527 143.167 350.549 145.087C349.688 146.776 348.315 148.149 346.626 149.009C344.706 149.988 342.192 149.988 337.165 149.988H52.3153C47.2881 149.988 44.7744 149.988 42.8543 149.009C41.1653 148.149 39.7921 146.776 38.9315 145.087C37.9531 143.167 37.9531 140.653 37.9531 135.626V128.397Z" fill="url(#paint6_linear_1870_49154)" fill-opacity="0.2"/>
<path d="M52.3154 114.484H337.165C339.686 114.484 341.549 114.484 343.023 114.604C344.492 114.725 345.536 114.962 346.422 115.413C348.026 116.231 349.331 117.535 350.148 119.14C350.6 120.026 350.837 121.069 350.957 122.538C351.077 124.012 351.078 125.876 351.078 128.397V135.626C351.078 138.147 351.077 140.01 350.957 141.484C350.837 142.953 350.6 143.997 350.148 144.883C349.331 146.487 348.026 147.792 346.422 148.609C345.536 149.061 344.492 149.298 343.023 149.418C341.549 149.538 339.686 149.539 337.165 149.539H52.3154C49.7944 149.539 47.9304 149.538 46.4561 149.418C44.9871 149.298 43.9438 149.061 43.0576 148.609C41.4533 147.792 40.1485 146.487 39.3311 144.883C38.8796 143.997 38.6425 142.953 38.5225 141.484C38.402 140.01 38.4023 138.147 38.4023 135.626V128.397C38.4023 125.876 38.402 124.012 38.5225 122.538C38.6425 121.069 38.8795 120.026 39.3311 119.14C40.1486 117.535 41.4532 116.231 43.0576 115.413C43.9439 114.962 44.987 114.725 46.4561 114.604C47.9304 114.484 49.7944 114.484 52.3154 114.484Z" stroke="white" stroke-opacity="0.02" stroke-width="0.897635"/>
<path d="M48.8686 136.012H47.8345V128.224H48.8686L51.5507 134.773L54.2328 128.224H55.2885V136.012H54.2544V132.931C54.2544 131.477 54.2652 130.949 54.319 130.4L52.0462 136.012H51.0552L48.7932 130.421C48.847 130.798 48.8686 131.595 48.8686 132.683V136.012ZM57.3604 129.495C56.9942 129.495 56.6926 129.193 56.6926 128.827C56.6926 128.45 56.9942 128.159 57.3604 128.159C57.7266 128.159 58.0282 128.45 58.0282 128.827C58.0282 129.193 57.7266 129.495 57.3604 129.495ZM56.8649 136.012V130.744H57.8774V136.012H56.8649ZM61.394 136.141C59.8645 136.141 58.9381 134.999 58.9381 133.394C58.9381 131.778 59.8752 130.594 61.4371 130.594C62.245 130.594 62.9236 130.949 63.2791 131.595V128.084H64.2808V136.012H63.376L63.2898 135.053C62.9452 135.775 62.2342 136.141 61.394 136.141ZM61.5987 135.225C62.6328 135.225 63.2683 134.461 63.2683 133.362C63.2683 132.285 62.6328 131.509 61.5987 131.509C60.5646 131.509 59.9614 132.285 59.9614 133.362C59.9614 134.45 60.5646 135.225 61.5987 135.225ZM69.7856 136.012H68.73V128.224H71.6707C73.3403 128.224 74.3313 129.107 74.3313 130.561C74.3313 131.638 73.7927 132.414 72.8232 132.726L74.4067 136.012H73.2326L71.7784 132.931H69.7856V136.012ZM69.7856 129.172V131.994H71.6814C72.6617 131.994 73.2218 131.466 73.2218 130.572C73.2218 129.667 72.6401 129.172 71.6707 129.172H69.7856ZM76.0364 129.495C75.6701 129.495 75.3685 129.193 75.3685 128.827C75.3685 128.45 75.6701 128.159 76.0364 128.159C76.4026 128.159 76.7042 128.45 76.7042 128.827C76.7042 129.193 76.4026 129.495 76.0364 129.495ZM75.5409 136.012V130.744H76.5534V136.012H75.5409ZM77.5279 134.482H78.4974C78.4974 135.021 78.9067 135.344 79.5745 135.344C80.2854 135.344 80.6948 135.053 80.6948 134.568C80.6948 134.213 80.5224 133.997 79.9731 133.857L79.0467 133.642C78.1096 133.416 77.6679 132.953 77.6679 132.177C77.6679 131.208 78.4866 130.594 79.6499 130.594C80.8025 130.594 81.5565 131.24 81.578 132.242H80.6086C80.5871 131.714 80.2316 131.38 79.6176 131.38C78.9821 131.38 78.6266 131.66 78.6266 132.145C78.6266 132.5 78.8851 132.737 79.4022 132.866L80.3285 133.093C81.2226 133.308 81.6642 133.717 81.6642 134.504C81.6642 135.505 80.8025 136.141 79.553 136.141C78.3142 136.141 77.5279 135.484 77.5279 134.482ZM83.7565 136.012H82.744V128.084H83.7565V133.222L86.094 130.744H87.365L85.3507 132.845L87.3542 136.012H86.1909L84.6506 133.577L83.7565 134.514V136.012Z" fill="white"/>
<path d="M315.262 132.011C315.262 128.045 318.477 124.83 322.443 124.83H333.214C337.18 124.83 340.396 128.045 340.396 132.011C340.396 135.977 337.18 139.192 333.214 139.192H322.443C318.477 139.192 315.262 135.977 315.262 132.011Z" fill="url(#paint7_linear_1870_49154)"/>
<g filter="url(#filter1_dd_1870_49154)">
<circle cx="333.577" cy="131.987" r="5.38581" fill="white"/>
</g>
<circle cx="333.577" cy="131.989" r="1.79527" fill="url(#paint8_linear_1870_49154)"/>
<path d="M37.9531 167.94C37.9531 162.913 37.9531 160.399 38.9315 158.479C39.7921 156.79 41.1653 155.417 42.8543 154.556C44.7744 153.578 47.2881 153.578 52.3153 153.578H337.165C342.192 153.578 344.706 153.578 346.626 154.556C348.315 155.417 349.688 156.79 350.549 158.479C351.527 160.399 351.527 162.913 351.527 167.94V175.169C351.527 180.196 351.527 182.71 350.549 184.63C349.688 186.319 348.315 187.692 346.626 188.552C344.706 189.531 342.192 189.531 337.165 189.531H52.3153C47.2881 189.531 44.7744 189.531 42.8543 188.552C41.1653 187.692 39.7921 186.319 38.9315 184.63C37.9531 182.71 37.9531 180.196 37.9531 175.169V167.94Z" fill="url(#paint9_linear_1870_49154)" fill-opacity="0.2"/>
<path d="M52.3154 154.027H337.165C339.686 154.027 341.549 154.027 343.023 154.147C344.492 154.267 345.536 154.505 346.422 154.956C348.026 155.774 349.331 157.078 350.148 158.683C350.6 159.569 350.837 160.612 350.957 162.081C351.077 163.555 351.078 165.419 351.078 167.94V175.169C351.078 177.69 351.077 179.553 350.957 181.027C350.837 182.496 350.6 183.54 350.148 184.426C349.331 186.03 348.026 187.335 346.422 188.152C345.536 188.604 344.492 188.841 343.023 188.961C341.549 189.081 339.686 189.082 337.165 189.082H52.3154C49.7944 189.082 47.9304 189.081 46.4561 188.961C44.9871 188.841 43.9438 188.604 43.0576 188.152C41.4533 187.335 40.1485 186.03 39.3311 184.426C38.8796 183.54 38.6425 182.496 38.5225 181.027C38.402 179.553 38.4023 177.69 38.4023 175.169V167.94C38.4023 165.419 38.402 163.555 38.5225 162.081C38.6425 160.612 38.8795 159.569 39.3311 158.683C40.1486 157.078 41.4532 155.774 43.0576 154.956C43.9439 154.504 44.987 154.267 46.4561 154.147C47.9304 154.027 49.7944 154.027 52.3154 154.027Z" stroke="white" stroke-opacity="0.02" stroke-width="0.897635"/>
<path d="M48.8901 175.555H47.8345V167.767H48.8901V171.117H52.7464V167.767H53.802V175.555H52.7464V172.097H48.8901V175.555ZM55.8667 169.038C55.5004 169.038 55.1988 168.736 55.1988 168.37C55.1988 167.993 55.5004 167.702 55.8667 167.702C56.2329 167.702 56.5345 167.993 56.5345 168.37C56.5345 168.736 56.2329 169.038 55.8667 169.038ZM55.3712 175.555V170.287H56.3837V175.555H55.3712ZM57.4552 172.786C57.4552 171.3 58.4138 170.137 59.9434 170.137C60.7944 170.137 61.4514 170.524 61.7854 171.181L61.8608 170.287H62.7656V175.339C62.7656 176.998 61.7423 178.054 60.1265 178.054C58.6939 178.054 57.7137 177.246 57.5198 175.91H58.5323C58.6616 176.686 59.2433 177.138 60.1265 177.138C61.1175 177.138 61.7638 176.492 61.7638 175.49V174.434C61.4191 175.048 60.7297 175.415 59.9003 175.415C58.4031 175.415 57.4552 174.262 57.4552 172.786ZM58.4677 172.765C58.4677 173.756 59.0817 174.531 60.0727 174.531C61.096 174.531 61.7207 173.799 61.7207 172.765C61.7207 171.752 61.1175 171.02 60.0834 171.02C59.0709 171.02 58.4677 171.795 58.4677 172.765ZM65.1747 175.544H64.1622V167.627H65.1747V171.095C65.5086 170.524 66.1442 170.137 66.9628 170.137C68.3093 170.137 68.9556 170.988 68.9556 172.334V175.555H67.943V172.56C67.943 171.494 67.4368 171.063 66.6827 171.063C65.7025 171.063 65.1747 171.774 65.1747 172.679V175.544ZM74.402 175.555H73.3464V167.767H76.2871C77.9567 167.767 78.9477 168.65 78.9477 170.104C78.9477 171.181 78.4091 171.957 77.4396 172.269L79.0231 175.555H77.849L76.3948 172.474H74.402V175.555ZM74.402 168.715V171.537H76.2978C77.2781 171.537 77.8382 171.009 77.8382 170.115C77.8382 169.21 77.2565 168.715 76.2871 168.715H74.402ZM80.6528 169.038C80.2865 169.038 79.9849 168.736 79.9849 168.37C79.9849 167.993 80.2865 167.702 80.6528 167.702C81.019 167.702 81.3206 167.993 81.3206 168.37C81.3206 168.736 81.019 169.038 80.6528 169.038ZM80.1573 175.555V170.287H81.1698V175.555H80.1573ZM82.1443 174.025H83.1138C83.1138 174.564 83.5231 174.887 84.1909 174.887C84.9018 174.887 85.3112 174.596 85.3112 174.111C85.3112 173.756 85.1388 173.54 84.5895 173.4L83.6631 173.185C82.726 172.959 82.2843 172.496 82.2843 171.72C82.2843 170.751 83.103 170.137 84.2663 170.137C85.4189 170.137 86.1729 170.783 86.1944 171.785H85.225C85.2034 171.257 84.848 170.923 84.234 170.923C83.5985 170.923 83.243 171.203 83.243 171.688C83.243 172.043 83.5015 172.28 84.0186 172.409L84.9449 172.636C85.839 172.851 86.2806 173.26 86.2806 174.047C86.2806 175.048 85.4189 175.684 84.1694 175.684C82.9306 175.684 82.1443 175.027 82.1443 174.025ZM88.3729 175.555H87.3604V167.627H88.3729V172.765L90.7104 170.287H91.9814L89.9671 172.388L91.9706 175.555H90.8073L89.267 173.12L88.3729 174.057V175.555Z" fill="white"/>
<path d="M315.262 171.554C315.262 167.588 318.477 164.373 322.443 164.373H333.214C337.18 164.373 340.396 167.588 340.396 171.554C340.396 175.52 337.18 178.735 333.214 178.735H322.443C318.477 178.735 315.262 175.52 315.262 171.554Z" fill="url(#paint10_linear_1870_49154)" fill-opacity="0.3"/>
<g filter="url(#filter2_dd_1870_49154)">
<circle cx="322.804" cy="171.53" r="5.38581" fill="white"/>
</g>
<circle cx="322.803" cy="171.532" r="1.79527" fill="#0F1525" fill-opacity="0.3"/>
<path d="M366.067 55.3557V54.2247H372.765V55.3557H370.038V63.3105H368.806V55.3557H366.067ZM376.321 57.1151V58.1958H375.793C374.674 58.1958 373.983 58.8744 373.983 60.0557V63.3105H372.802V57.1779H373.908L373.983 58.1079C374.234 57.4669 374.85 57.0397 375.692 57.0397C375.906 57.0397 376.082 57.0648 376.321 57.1151ZM378.729 63.4613C377.409 63.4613 376.63 62.7199 376.63 61.6014C376.63 60.4704 377.472 59.7667 378.917 59.6536L380.853 59.5028V59.3268C380.853 58.2964 380.237 57.9319 379.407 57.9319C378.415 57.9319 377.849 58.3718 377.849 59.1132H376.819C376.819 57.8314 377.874 56.9894 379.458 56.9894C380.978 56.9894 382.009 57.7937 382.009 59.4525V63.3105H381.003L380.878 62.3178C380.564 63.0215 379.722 63.4613 378.729 63.4613ZM379.068 62.544C380.187 62.544 380.865 61.8151 380.865 60.6589V60.3322L379.294 60.4579C378.251 60.5584 377.824 60.9605 377.824 61.5637C377.824 62.2172 378.302 62.544 379.068 62.544ZM385.856 63.4613C384.072 63.4613 382.991 62.1293 382.991 60.2568C382.991 58.3718 384.085 56.9894 385.907 56.9894C386.849 56.9894 387.641 57.4041 388.056 58.1581V54.0613H389.224V63.3105H388.169L388.068 62.1921C387.666 63.0341 386.837 63.4613 385.856 63.4613ZM386.095 62.3932C387.302 62.3932 388.043 61.5009 388.043 60.2191C388.043 58.9624 387.302 58.0576 386.095 58.0576C384.889 58.0576 384.185 58.9624 384.185 60.2191C384.185 61.4883 384.889 62.3932 386.095 62.3932ZM391.255 55.7076C390.828 55.7076 390.476 55.3557 390.476 54.9284C390.476 54.4886 390.828 54.1493 391.255 54.1493C391.683 54.1493 392.034 54.4886 392.034 54.9284C392.034 55.3557 391.683 55.7076 391.255 55.7076ZM390.677 63.3105V57.1653H391.859V63.3105H390.677ZM394.503 63.3105H393.322V57.1653H394.39L394.516 58.1079C394.906 57.4041 395.685 56.9894 396.552 56.9894C398.173 56.9894 398.914 57.9822 398.914 59.553V63.3105H397.733V59.817C397.733 58.5728 397.155 58.0702 396.25 58.0702C395.144 58.0702 394.503 58.8619 394.503 60.0557V63.3105ZM399.91 60.0809C399.91 58.3466 401.028 56.9894 402.813 56.9894C403.805 56.9894 404.572 57.4418 404.962 58.2084L405.05 57.1653H406.105V63.0592C406.105 64.9945 404.911 66.2261 403.026 66.2261C401.355 66.2261 400.211 65.2835 399.985 63.7253H401.166C401.317 64.6301 401.996 65.1579 403.026 65.1579C404.182 65.1579 404.936 64.4039 404.936 63.2351V62.0036C404.534 62.7199 403.73 63.1472 402.762 63.1472C401.016 63.1472 399.91 61.8025 399.91 60.0809ZM401.091 60.0557C401.091 61.2119 401.807 62.1167 402.963 62.1167C404.157 62.1167 404.886 61.2621 404.886 60.0557C404.886 58.8744 404.182 58.0199 402.976 58.0199C401.795 58.0199 401.091 58.9247 401.091 60.0557ZM410.065 55.3557V54.2247H416.763V55.3557H414.036V63.3105H412.804V55.3557H410.065ZM416.467 66.0627V65.095H417.259C417.824 65.095 418.277 65.0071 418.566 64.2279L418.78 63.6373L416.304 57.1653H417.548L419.333 62.1167L421.155 57.1653H422.374L419.471 64.6929C419.056 65.7485 418.44 66.1884 417.498 66.1884C417.108 66.1884 416.781 66.1381 416.467 66.0627ZM423.065 66.0627V57.1653H424.134L424.222 58.2712C424.636 57.4292 425.466 56.9894 426.446 56.9894C428.205 56.9894 429.299 58.3089 429.299 60.194C429.299 62.0664 428.268 63.4739 426.446 63.4739C425.466 63.4739 424.649 63.0592 424.247 62.3052V66.0627H423.065ZM424.259 60.2442C424.259 61.5009 424.988 62.4057 426.195 62.4057C427.401 62.4057 428.117 61.5009 428.117 60.2442C428.117 58.975 427.401 58.0702 426.195 58.0702C424.988 58.0702 424.259 58.9624 424.259 60.2442ZM433.001 63.4613C431.191 63.4613 429.947 62.1544 429.947 60.2442C429.947 58.3215 431.166 56.9894 432.951 56.9894C434.697 56.9894 435.841 58.1958 435.841 60.018V60.4579L431.091 60.4704C431.179 61.7648 431.857 62.4811 433.026 62.4811C433.943 62.4811 434.547 62.1041 434.748 61.4004H435.854C435.552 62.7199 434.522 63.4613 433.001 63.4613ZM432.951 57.9822C431.92 57.9822 431.267 58.598 431.116 59.6787H434.66C434.66 58.6608 433.994 57.9822 432.951 57.9822Z" fill="white"/>
<path d="M365.891 88.8543C365.891 83.8271 365.891 81.3135 366.869 79.3934C367.73 77.7044 369.103 76.3311 370.792 75.4706C372.712 74.4922 375.226 74.4922 380.253 74.4922H665.102C670.13 74.4922 672.643 74.4922 674.563 75.4706C676.252 76.3311 677.625 77.7044 678.486 79.3934C679.464 81.3135 679.464 83.8271 679.464 88.8544V96.0827C679.464 101.11 679.464 103.624 678.486 105.544C677.625 107.233 676.252 108.606 674.563 109.467C672.643 110.445 670.13 110.445 665.102 110.445H380.253C375.226 110.445 372.712 110.445 370.792 109.467C369.103 108.606 367.73 107.233 366.869 105.544C365.891 103.624 365.891 101.11 365.891 96.0827V88.8543Z" fill="url(#paint11_linear_1870_49154)" fill-opacity="0.2"/>
<path d="M380.253 74.9414H665.103C667.623 74.9414 669.487 74.9411 670.961 75.0615C672.43 75.1815 673.473 75.4186 674.359 75.8701C675.964 76.6876 677.268 77.9923 678.086 79.5967C678.537 80.4829 678.774 81.5261 678.895 82.9951C679.015 84.4694 679.016 86.3335 679.016 88.8545V96.083C679.016 98.6037 679.015 100.467 678.895 101.941C678.775 103.41 678.538 104.454 678.086 105.34C677.268 106.944 675.964 108.249 674.359 109.066C673.473 109.518 672.43 109.755 670.961 109.875C669.487 109.995 667.623 109.996 665.103 109.996H380.253C377.732 109.996 375.868 109.995 374.394 109.875C372.925 109.755 371.881 109.518 370.995 109.066C369.391 108.249 368.086 106.944 367.269 105.34C366.817 104.454 366.58 103.41 366.46 101.941C366.34 100.467 366.34 98.6036 366.34 96.083V88.8545C366.34 86.3335 366.34 84.4694 366.46 82.9951C366.58 81.5261 366.817 80.4829 367.269 79.5967C368.086 77.9923 369.391 76.6877 370.995 75.8701C371.881 75.4186 372.925 75.1816 374.394 75.0615C375.868 74.9411 377.732 74.9414 380.253 74.9414Z" stroke="white" stroke-opacity="0.02" stroke-width="0.897635"/>
<path d="M378.346 96.4688H375.772V88.6809H378.303C380.63 88.6809 382.203 90.2535 382.203 92.5802C382.203 94.8961 380.652 96.4688 378.346 96.4688ZM378.228 89.6503H376.828V95.4885H378.271C380.005 95.4885 381.104 94.3683 381.104 92.5802C381.104 90.7706 380.005 89.6503 378.228 89.6503ZM384.849 96.598C383.718 96.598 383.05 95.9625 383.05 95.0038C383.05 94.0344 383.772 93.4312 385.011 93.3342L386.669 93.2049V93.0541C386.669 92.1709 386.142 91.8585 385.431 91.8585C384.58 91.8585 384.095 92.2355 384.095 92.871H383.212C383.212 91.7723 384.117 91.0506 385.474 91.0506C386.777 91.0506 387.66 91.74 387.66 93.1619V96.4688H386.799L386.691 95.6178C386.422 96.221 385.7 96.598 384.849 96.598ZM385.14 95.8117C386.099 95.8117 386.68 95.1869 386.68 94.1959V93.9159L385.334 94.0236C384.44 94.1098 384.073 94.4545 384.073 94.9715C384.073 95.5316 384.483 95.8117 385.14 95.8117ZM388.366 98.8277V97.9983H389.044C389.529 97.9983 389.917 97.9229 390.164 97.2551L390.348 96.7488L388.226 91.2014H389.292L390.821 95.4454L392.383 91.2014H393.428L390.94 97.6536C390.584 98.5584 390.057 98.9355 389.249 98.9355C388.915 98.9355 388.635 98.8924 388.366 98.8277ZM396.471 89.6503V88.6809H402.212V89.6503H399.875V96.4688H398.819V89.6503H396.471ZM405.411 91.1583V92.0847H404.959C404 92.0847 403.407 92.6664 403.407 93.6789V96.4688H402.395V91.2122H403.343L403.407 92.0093C403.623 91.4599 404.151 91.0937 404.872 91.0937C405.055 91.0937 405.206 91.1153 405.411 91.1583ZM407.626 96.598C406.495 96.598 405.827 95.9625 405.827 95.0038C405.827 94.0344 406.549 93.4312 407.788 93.3342L409.446 93.2049V93.0541C409.446 92.1709 408.919 91.8585 408.208 91.8585C407.357 91.8585 406.872 92.2355 406.872 92.871H405.989C405.989 91.7723 406.893 91.0506 408.251 91.0506C409.554 91.0506 410.437 91.74 410.437 93.1619V96.4688H409.576L409.468 95.6178C409.199 96.221 408.477 96.598 407.626 96.598ZM407.917 95.8117C408.875 95.8117 409.457 95.1869 409.457 94.1959V93.9159L408.111 94.0236C407.217 94.1098 406.85 94.4545 406.85 94.9715C406.85 95.5316 407.26 95.8117 407.917 95.8117ZM413.886 96.598C412.357 96.598 411.43 95.4562 411.43 93.8512C411.43 92.2355 412.367 91.0506 413.929 91.0506C414.737 91.0506 415.416 91.4061 415.771 92.0524V88.5408H416.773V96.4688H415.868L415.782 95.5101C415.437 96.2318 414.726 96.598 413.886 96.598ZM414.091 95.6824C415.125 95.6824 415.76 94.9176 415.76 93.8189C415.76 92.7418 415.125 91.9662 414.091 91.9662C413.057 91.9662 412.454 92.7418 412.454 93.8189C412.454 94.9069 413.057 95.6824 414.091 95.6824ZM420.442 96.598C418.891 96.598 417.824 95.4778 417.824 93.8405C417.824 92.1924 418.869 91.0506 420.399 91.0506C421.896 91.0506 422.876 92.0847 422.876 93.6466V94.0236L418.805 94.0344C418.88 95.1438 419.462 95.7578 420.463 95.7578C421.25 95.7578 421.767 95.4347 421.939 94.8315H422.887C422.629 95.9625 421.745 96.598 420.442 96.598ZM420.399 91.9016C419.516 91.9016 418.955 92.4294 418.826 93.3558H421.864C421.864 92.4832 421.293 91.9016 420.399 91.9016Z" fill="white"/>
<path d="M365.891 128.397C365.891 123.37 365.891 120.856 366.869 118.936C367.73 117.247 369.103 115.874 370.792 115.014C372.712 114.035 375.226 114.035 380.253 114.035H665.102C670.13 114.035 672.643 114.035 674.563 115.014C676.252 115.874 677.625 117.247 678.486 118.936C679.464 120.856 679.464 123.37 679.464 128.397V135.626C679.464 140.653 679.464 143.167 678.486 145.087C677.625 146.776 676.252 148.149 674.563 149.009C672.643 149.988 670.13 149.988 665.102 149.988H380.253C375.226 149.988 372.712 149.988 370.792 149.009C369.103 148.149 367.73 146.776 366.869 145.087C365.891 143.167 365.891 140.653 365.891 135.626V128.397Z" fill="url(#paint12_linear_1870_49154)" fill-opacity="0.2"/>
<path d="M380.253 114.484H665.103C667.623 114.484 669.487 114.484 670.961 114.604C672.43 114.725 673.473 114.962 674.359 115.413C675.964 116.231 677.268 117.535 678.086 119.14C678.537 120.026 678.774 121.069 678.895 122.538C679.015 124.012 679.016 125.876 679.016 128.397V135.626C679.016 138.147 679.015 140.01 678.895 141.484C678.775 142.953 678.538 143.997 678.086 144.883C677.268 146.487 675.964 147.792 674.359 148.609C673.473 149.061 672.43 149.298 670.961 149.418C669.487 149.538 667.623 149.539 665.103 149.539H380.253C377.732 149.539 375.868 149.538 374.394 149.418C372.925 149.298 371.881 149.061 370.995 148.609C369.391 147.792 368.086 146.487 367.269 144.883C366.817 143.997 366.58 142.953 366.46 141.484C366.34 140.01 366.34 138.147 366.34 135.626V128.397C366.34 125.876 366.34 124.012 366.46 122.538C366.58 121.069 366.817 120.026 367.269 119.14C368.086 117.535 369.391 116.231 370.995 115.413C371.881 114.962 372.925 114.725 374.394 114.604C375.868 114.484 377.732 114.484 380.253 114.484Z" stroke="white" stroke-opacity="0.02" stroke-width="0.897635"/>
<path d="M375.32 130.324C375.32 128.989 376.397 128.084 378.002 128.084C379.488 128.084 380.447 128.913 380.533 130.26H379.467C379.413 129.484 378.863 129.032 377.991 129.032C377.011 129.032 376.375 129.527 376.375 130.292C376.375 130.917 376.731 131.294 377.463 131.466L378.745 131.768C380.016 132.059 380.662 132.748 380.662 133.847C380.662 135.247 379.574 136.141 377.916 136.141C376.332 136.141 375.277 135.312 375.212 133.976H376.289C376.311 134.719 376.935 135.193 377.916 135.193C378.95 135.193 379.607 134.708 379.607 133.933C379.607 133.319 379.273 132.931 378.53 132.759L377.248 132.468C375.977 132.177 375.32 131.445 375.32 130.324ZM382.883 136.012L381.159 130.744H382.204L383.077 133.48C383.195 133.868 383.303 134.267 383.4 134.73C383.486 134.267 383.626 133.825 383.745 133.48L384.628 130.744H385.662L386.534 133.48C386.621 133.739 386.793 134.353 386.879 134.73C386.965 134.31 387.062 133.944 387.213 133.48L388.096 130.744H389.152L387.353 136.012H386.394L385.479 133.19C385.306 132.662 385.199 132.252 385.145 131.962C385.091 132.22 384.994 132.565 384.8 133.2L383.885 136.012H382.883ZM390.451 129.495C390.085 129.495 389.783 129.193 389.783 128.827C389.783 128.45 390.085 128.159 390.451 128.159C390.817 128.159 391.119 128.45 391.119 128.827C391.119 129.193 390.817 129.495 390.451 129.495ZM389.955 136.012V130.744H390.968V136.012H389.955ZM393.386 136.012H392.373V130.744H393.289L393.396 131.552C393.73 130.949 394.398 130.594 395.141 130.594C396.531 130.594 397.167 131.445 397.167 132.791V136.012H396.154V133.017C396.154 131.951 395.659 131.52 394.883 131.52C393.935 131.52 393.386 132.199 393.386 133.222V136.012ZM398.17 133.243C398.17 131.757 399.129 130.594 400.659 130.594C401.51 130.594 402.167 130.981 402.501 131.638L402.576 130.744H403.481V135.796C403.481 137.455 402.458 138.511 400.842 138.511C399.409 138.511 398.429 137.703 398.235 136.367H399.248C399.377 137.143 399.959 137.595 400.842 137.595C401.833 137.595 402.479 136.949 402.479 135.947V134.891C402.134 135.505 401.445 135.872 400.616 135.872C399.118 135.872 398.17 134.719 398.17 133.243ZM399.183 133.222C399.183 134.213 399.797 134.988 400.788 134.988C401.811 134.988 402.436 134.256 402.436 133.222C402.436 132.209 401.833 131.477 400.799 131.477C399.786 131.477 399.183 132.252 399.183 133.222ZM407.176 129.193V128.224H412.918V129.193H410.58V136.012H409.525V129.193H407.176ZM416.116 130.701V131.628H415.664C414.705 131.628 414.113 132.209 414.113 133.222V136.012H413.1V130.755H414.048L414.113 131.552C414.328 131.003 414.856 130.637 415.578 130.637C415.761 130.637 415.912 130.658 416.116 130.701ZM418.331 136.141C417.2 136.141 416.533 135.505 416.533 134.547C416.533 133.577 417.254 132.974 418.493 132.877L420.152 132.748V132.597C420.152 131.714 419.624 131.401 418.913 131.401C418.062 131.401 417.577 131.778 417.577 132.414H416.694C416.694 131.315 417.599 130.594 418.956 130.594C420.26 130.594 421.143 131.283 421.143 132.705V136.012H420.281L420.173 135.161C419.904 135.764 419.182 136.141 418.331 136.141ZM418.622 135.355C419.581 135.355 420.163 134.73 420.163 133.739V133.459L418.816 133.567C417.922 133.653 417.556 133.997 417.556 134.514C417.556 135.075 417.965 135.355 418.622 135.355ZM424.592 136.141C423.062 136.141 422.136 134.999 422.136 133.394C422.136 131.778 423.073 130.594 424.635 130.594C425.443 130.594 426.121 130.949 426.477 131.595V128.084H427.478V136.012H426.574L426.487 135.053C426.143 135.775 425.432 136.141 424.592 136.141ZM424.796 135.225C425.83 135.225 426.466 134.461 426.466 133.362C426.466 132.285 425.83 131.509 424.796 131.509C423.762 131.509 423.159 132.285 423.159 133.362C423.159 134.45 423.762 135.225 424.796 135.225ZM431.147 136.141C429.596 136.141 428.53 135.021 428.53 133.383C428.53 131.735 429.575 130.594 431.104 130.594C432.602 130.594 433.582 131.628 433.582 133.19V133.567L429.51 133.577C429.586 134.687 430.167 135.301 431.169 135.301C431.955 135.301 432.472 134.978 432.645 134.374H433.593C433.334 135.505 432.451 136.141 431.147 136.141ZM431.104 131.445C430.221 131.445 429.661 131.972 429.532 132.899H432.569C432.569 132.026 431.998 131.445 431.104 131.445Z" fill="white"/>
<path d="M38.4809 210.191C38.4809 208.633 39.7376 207.577 41.6101 207.577C43.3443 207.577 44.4628 208.545 44.5633 210.115H43.3192C43.2564 209.211 42.6154 208.683 41.5975 208.683C40.4539 208.683 39.7125 209.261 39.7125 210.153C39.7125 210.882 40.1272 211.322 40.9817 211.523L42.4772 211.875C43.9601 212.214 44.7141 213.018 44.7141 214.3C44.7141 215.934 43.4449 216.977 41.5096 216.977C39.6622 216.977 38.4307 216.009 38.3553 214.451H39.612C39.6371 215.318 40.366 215.871 41.5096 215.871C42.716 215.871 43.4826 215.306 43.4826 214.401C43.4826 213.684 43.093 213.232 42.2259 213.031L40.7304 212.692C39.2475 212.352 38.4809 211.498 38.4809 210.191ZM48.4609 216.977C46.6513 216.977 45.4072 215.67 45.4072 213.76C45.4072 211.837 46.6261 210.505 48.4106 210.505C50.1574 210.505 51.301 211.711 51.301 213.534V213.973L46.5507 213.986C46.6387 215.28 47.3173 215.997 48.486 215.997C49.4034 215.997 50.0066 215.62 50.2077 214.916H51.3136C51.012 216.236 49.9815 216.977 48.4609 216.977ZM48.4106 211.498C47.3802 211.498 46.7267 212.114 46.5759 213.194H50.1197C50.1197 212.176 49.4537 211.498 48.4106 211.498ZM53.5755 216.826H52.3943V207.577H53.5755V216.826ZM57.7148 216.977C55.9051 216.977 54.661 215.67 54.661 213.76C54.661 211.837 55.88 210.505 57.6645 210.505C59.4113 210.505 60.5549 211.711 60.5549 213.534V213.973L55.8046 213.986C55.8926 215.28 56.5712 215.997 57.7399 215.997C58.6573 215.997 59.2605 215.62 59.4616 214.916H60.5674C60.2658 216.236 59.2354 216.977 57.7148 216.977ZM57.6645 211.498C56.634 211.498 55.9805 212.114 55.8297 213.194H59.3736C59.3736 212.176 58.7075 211.498 57.6645 211.498ZM61.2208 213.76C61.2208 211.837 62.4398 210.505 64.2369 210.505C65.7826 210.505 66.8634 211.385 67.077 212.754H65.8957C65.6946 211.975 65.0663 211.561 64.2746 211.561C63.1561 211.561 62.3895 212.415 62.3895 213.747C62.3895 215.067 63.1059 215.921 64.2243 215.921C65.0663 215.921 65.6946 215.482 65.9083 214.753H67.0896C66.8508 216.085 65.7072 216.977 64.2243 216.977C62.4147 216.977 61.2208 215.695 61.2208 213.76ZM69.8188 216.826H68.6375V211.674H67.4311V210.681H68.6375V208.758H69.8188V210.681H71.0253V211.674H69.8188V216.826ZM74.3404 208.871V207.74H81.0385V208.871H78.3115V216.826H77.0799V208.871H74.3404ZM84.5944 210.631V211.711H84.0665C82.9481 211.711 82.2569 212.39 82.2569 213.571V216.826H81.0756V210.694H82.1815L82.2569 211.623C82.5083 210.983 83.124 210.555 83.966 210.555C84.1797 210.555 84.3556 210.58 84.5944 210.631ZM87.0026 216.977C85.6831 216.977 84.9039 216.236 84.9039 215.117C84.9039 213.986 85.7459 213.282 87.1911 213.169L89.1264 213.018V212.842C89.1264 211.812 88.5106 211.448 87.6812 211.448C86.6884 211.448 86.1229 211.887 86.1229 212.629H85.0924C85.0924 211.347 86.148 210.505 87.7315 210.505C89.2521 210.505 90.2825 211.309 90.2825 212.968V216.826H89.2772L89.1515 215.833C88.8374 216.537 87.9954 216.977 87.0026 216.977ZM87.3419 216.06C88.4603 216.06 89.139 215.331 89.139 214.175V213.848L87.5681 213.973C86.525 214.074 86.0978 214.476 86.0978 215.079C86.0978 215.733 86.5753 216.06 87.3419 216.06ZM94.1303 216.977C92.3458 216.977 91.265 215.645 91.265 213.772C91.265 211.887 92.3583 210.505 94.1805 210.505C95.1231 210.505 95.9148 210.92 96.3295 211.674V207.577H97.4982V216.826H96.4426L96.342 215.708C95.9399 216.55 95.1105 216.977 94.1303 216.977ZM94.369 215.909C95.5755 215.909 96.3169 215.017 96.3169 213.735C96.3169 212.478 95.5755 211.573 94.369 211.573C93.1626 211.573 92.4589 212.478 92.4589 213.735C92.4589 215.004 93.1626 215.909 94.369 215.909ZM99.5291 209.223C99.1019 209.223 98.75 208.871 98.75 208.444C98.75 208.004 99.1019 207.665 99.5291 207.665C99.9564 207.665 100.308 208.004 100.308 208.444C100.308 208.871 99.9564 209.223 99.5291 209.223ZM98.951 216.826V210.681H100.132V216.826H98.951ZM102.777 216.826H101.596V210.681H102.664L102.79 211.623C103.179 210.92 103.959 210.505 104.826 210.505C106.447 210.505 107.188 211.498 107.188 213.069V216.826H106.007V213.333C106.007 212.088 105.429 211.586 104.524 211.586C103.418 211.586 102.777 212.377 102.777 213.571V216.826ZM108.183 213.596C108.183 211.862 109.302 210.505 111.086 210.505C112.079 210.505 112.846 210.957 113.235 211.724L113.323 210.681H114.379V216.575C114.379 218.51 113.185 219.742 111.3 219.742C109.629 219.742 108.485 218.799 108.259 217.241H109.44C109.591 218.146 110.27 218.674 111.3 218.674C112.456 218.674 113.21 217.919 113.21 216.751V215.519C112.808 216.236 112.004 216.663 111.036 216.663C109.289 216.663 108.183 215.318 108.183 213.596ZM109.365 213.571C109.365 214.728 110.081 215.632 111.237 215.632C112.431 215.632 113.16 214.778 113.16 213.571C113.16 212.39 112.456 211.536 111.25 211.536C110.069 211.536 109.365 212.44 109.365 213.571ZM122.75 213.584H120.45V216.826H119.218V207.74H122.75C124.534 207.74 125.678 208.909 125.678 210.656C125.678 212.352 124.522 213.584 122.75 213.584ZM122.536 208.846H120.45V212.478H122.486C123.705 212.478 124.383 211.762 124.383 210.643C124.383 209.5 123.692 208.846 122.536 208.846ZM128.172 216.977C126.852 216.977 126.073 216.236 126.073 215.117C126.073 213.986 126.915 213.282 128.36 213.169L130.296 213.018V212.842C130.296 211.812 129.68 211.448 128.851 211.448C127.858 211.448 127.292 211.887 127.292 212.629H126.262C126.262 211.347 127.317 210.505 128.901 210.505C130.421 210.505 131.452 211.309 131.452 212.968V216.826H130.447L130.321 215.833C130.007 216.537 129.165 216.977 128.172 216.977ZM128.511 216.06C129.63 216.06 130.308 215.331 130.308 214.175V213.848L128.737 213.973C127.694 214.074 127.267 214.476 127.267 215.079C127.267 215.733 127.745 216.06 128.511 216.06ZM133.415 209.223C132.987 209.223 132.635 208.871 132.635 208.444C132.635 208.004 132.987 207.665 133.415 207.665C133.842 207.665 134.194 208.004 134.194 208.444C134.194 208.871 133.842 209.223 133.415 209.223ZM132.836 216.826V210.681H134.018V216.826H132.836ZM139 210.631V211.711H138.472C137.354 211.711 136.663 212.39 136.663 213.571V216.826H135.481V210.694H136.587L136.663 211.623C136.914 210.983 137.53 210.555 138.372 210.555C138.585 210.555 138.761 210.58 139 210.631Z" fill="white"/>
<path d="M37.9531 235.189C37.9531 231.223 41.1682 228.008 45.1342 228.008H508.314C512.28 228.008 515.495 231.223 515.495 235.189V256.779C515.495 260.745 512.28 263.961 508.314 263.961H45.1342C41.1682 263.961 37.9531 260.745 37.9531 256.779V235.189Z" fill="url(#paint13_linear_1870_49154)" fill-opacity="0.2"/>
<path d="M45.1338 228.457H508.313C512.031 228.457 515.046 231.471 515.046 235.188V256.779C515.046 260.497 512.032 263.512 508.313 263.512H45.1338C41.4159 263.511 38.4023 260.497 38.4023 256.779V235.188C38.4026 231.471 41.416 228.457 45.1338 228.457Z" stroke="white" stroke-opacity="0.05" stroke-width="0.897635"/>
<g clip-path="url(#clip1_1870_49154)">
<path d="M61.7201 250.511C65.4488 250.511 68.4715 247.488 68.4715 243.759C68.4715 240.031 65.4488 237.008 61.7201 237.008C57.9914 237.008 54.9688 240.031 54.9688 243.759C54.9688 247.488 57.9914 250.511 61.7201 250.511Z" fill="#F0F0F0"/>
<path d="M61.4297 243.759H68.4746C68.4746 243.15 68.3934 242.56 68.242 241.998H61.4297V243.759Z" fill="#D80027"/>
<path d="M61.4297 240.236H67.4837C67.0704 239.561 66.542 238.965 65.9258 238.475H61.4297V240.236Z" fill="#D80027"/>
<path d="M61.7261 250.511C63.315 250.511 64.7754 249.961 65.9287 249.043H57.5234C58.6767 249.961 60.1371 250.511 61.7261 250.511Z" fill="#D80027"/>
<path d="M55.9615 247.283H67.4824C67.8142 246.741 68.0715 246.15 68.2407 245.521H55.2031C55.3724 246.15 55.6297 246.741 55.9615 247.283Z" fill="#D80027"/>
<path d="M58.0961 238.062H58.7114L58.1391 238.478L58.3577 239.151L57.7854 238.735L57.2132 239.151L57.402 238.569C56.8981 238.989 56.4565 239.481 56.0925 240.029H56.2897L55.9254 240.293C55.8686 240.388 55.8142 240.484 55.762 240.582L55.936 241.117L55.6114 240.882C55.5308 241.052 55.457 241.227 55.3907 241.406L55.5823 241.996H56.2897L55.7174 242.411L55.936 243.084L55.3637 242.668L55.0209 242.917C54.9866 243.193 54.9688 243.474 54.9688 243.759H61.7201C61.7201 240.031 61.7201 239.591 61.7201 237.008C60.3864 237.008 59.1431 237.395 58.0961 238.062ZM58.3577 243.084L57.7854 242.668L57.2132 243.084L57.4318 242.411L56.8595 241.996H57.5668L57.7854 241.323L58.004 241.996H58.7114L58.1391 242.411L58.3577 243.084ZM58.1391 240.445L58.3577 241.117L57.7854 240.702L57.2132 241.117L57.4318 240.445L56.8595 240.029H57.5668L57.7854 239.356L58.004 240.029H58.7114L58.1391 240.445ZM60.7794 243.084L60.2071 242.668L59.6348 243.084L59.8534 242.411L59.2812 241.996H59.9885L60.2071 241.323L60.4257 241.996H61.133L60.5608 242.411L60.7794 243.084ZM60.5608 240.445L60.7794 241.117L60.2071 240.702L59.6348 241.117L59.8534 240.445L59.2812 240.029H59.9885L60.2071 239.356L60.4257 240.029H61.133L60.5608 240.445ZM60.5608 238.478L60.7794 239.151L60.2071 238.735L59.6348 239.151L59.8534 238.478L59.2812 238.062H59.9885L60.2071 237.389L60.4257 238.062H61.133L60.5608 238.478Z" fill="#0052B4"/>
</g>
<path d="M63.8788 249.819C62.973 253.452 59.2932 255.663 55.6596 254.757C52.0275 253.851 49.8165 250.171 50.7226 246.538C51.628 242.905 55.3078 240.694 58.9403 241.599C62.5736 242.505 64.7845 246.186 63.8787 249.819L63.8787 249.819H63.8788Z" fill="#F7931A"/>
<path fill-rule="evenodd" clip-rule="evenodd" d="M60.292 247.213C60.427 246.31 59.7399 245.825 58.8003 245.501L59.1051 244.279L58.3609 244.093L58.0642 245.284C57.8685 245.235 57.6676 245.189 57.4679 245.143L57.7668 243.945L57.0231 243.76L56.7181 244.982C56.5562 244.945 56.3972 244.909 56.2429 244.87L56.2438 244.866L55.2175 244.61L55.0195 245.405C55.0195 245.405 55.5717 245.532 55.56 245.539C55.8614 245.615 55.9159 245.814 55.9068 245.972L55.5596 247.365C55.5804 247.37 55.6073 247.378 55.637 247.39L55.6154 247.384L55.6154 247.384C55.597 247.38 55.5779 247.375 55.5583 247.37L55.0717 249.321C55.0349 249.413 54.9414 249.55 54.7307 249.498C54.7381 249.509 54.1898 249.363 54.1898 249.363L53.8203 250.215L54.7888 250.456C54.8948 250.483 54.9996 250.51 55.1033 250.537L55.1033 250.537C55.1758 250.556 55.2478 250.575 55.3193 250.593L55.0114 251.83L55.7547 252.015L56.0597 250.792C56.2628 250.847 56.4598 250.898 56.6528 250.946L56.3488 252.163L57.093 252.349L57.401 251.115C58.67 251.355 59.6242 251.258 60.0258 250.11C60.3494 249.186 60.0097 248.653 59.3421 248.305C59.8283 248.193 60.1946 247.873 60.2922 247.213L60.292 247.213L60.292 247.213ZM58.5943 249.597C58.3833 250.445 57.0562 250.095 56.4489 249.934C56.3943 249.92 56.3455 249.907 56.3039 249.897L56.7126 248.258C56.7633 248.271 56.8253 248.285 56.8955 248.301C57.5236 248.442 58.8105 248.73 58.5943 249.597H58.5943ZM57.0187 247.539C57.5249 247.674 58.6292 247.969 58.8216 247.198H58.8216C59.018 246.41 57.9448 246.173 57.4206 246.057C57.3616 246.044 57.3096 246.032 57.2671 246.021L56.8966 247.507C56.9316 247.516 56.9727 247.527 57.0187 247.539Z" fill="white"/>
<path d="M78.5425 250.984V241.986H81.8351C83.5693 241.986 84.6375 242.866 84.6375 244.311C84.6375 245.367 84.1725 246.083 83.2426 246.448C84.2856 246.787 84.8134 247.516 84.8134 248.622C84.8134 250.067 83.7327 250.984 82.0236 250.984H78.5425ZM81.8225 242.791H79.4474V246.083H81.9356C83.0666 246.083 83.7075 245.455 83.7075 244.387C83.7075 243.381 83.0289 242.791 81.8225 242.791ZM82.0236 246.875H79.4474V250.168H82.0236C83.2049 250.168 83.896 249.552 83.896 248.509C83.896 247.491 83.1923 246.875 82.0236 246.875ZM85.2071 242.816V241.986H91.6539V242.816H88.8766V250.984H87.9718V242.816H85.2071ZM96.1622 251.123C93.6488 251.123 91.9397 249.25 91.9397 246.485C91.9397 243.721 93.674 241.836 96.2125 241.836C98.1478 241.836 99.6684 243.004 100.033 244.789H99.0652C98.6881 243.495 97.5823 242.703 96.1748 242.703C94.2018 242.703 92.8822 244.211 92.8822 246.485C92.8822 248.747 94.2018 250.255 96.1748 250.255C97.5948 250.255 98.7258 249.489 99.1154 248.282H100.083C99.6684 249.979 98.0975 251.123 96.1622 251.123ZM101.088 250.984H100.234L103.74 241.986H104.62L101.088 250.984ZM105.57 247.855V241.986H106.475V247.818C106.475 249.401 107.342 250.255 108.913 250.255C110.446 250.255 111.313 249.376 111.313 247.818V241.986H112.218V247.855C112.218 249.891 110.961 251.135 108.913 251.135C106.827 251.135 105.57 249.904 105.57 247.855ZM113.73 244.324C113.73 242.816 114.937 241.823 116.746 241.823C118.368 241.823 119.436 242.728 119.574 244.236H118.657C118.556 243.218 117.865 242.64 116.734 242.64C115.465 242.64 114.635 243.293 114.635 244.311C114.635 245.103 115.1 245.606 116.043 245.845L117.588 246.222C118.996 246.561 119.725 247.365 119.725 248.584C119.725 250.142 118.518 251.135 116.659 251.135C114.912 251.135 113.73 250.218 113.617 248.747H114.547C114.598 249.69 115.427 250.306 116.659 250.306C117.978 250.306 118.82 249.665 118.82 248.634C118.82 247.83 118.368 247.302 117.4 247.076L115.879 246.699C114.472 246.36 113.73 245.555 113.73 244.324ZM124.016 250.984H121.277V241.986H123.991C126.705 241.986 128.515 243.796 128.515 246.485C128.515 249.175 126.718 250.984 124.016 250.984ZM123.953 242.816H122.181V250.155H123.978C126.178 250.155 127.585 248.722 127.585 246.485C127.585 244.236 126.178 242.816 123.953 242.816Z" fill="white"/>
<path d="M493.952 246.772L497.285 243.439L498.237 244.391L493.952 248.676L489.668 244.391L490.62 243.439L493.952 246.772Z" fill="white" fill-opacity="0.6"/>
<path d="M37.9531 292.616C37.9531 287.589 37.9531 285.075 38.9315 283.155C39.7921 281.466 41.1653 280.093 42.8543 279.232C44.7744 278.254 47.2881 278.254 52.3153 278.254H993.037C998.064 278.254 1000.58 278.254 1002.5 279.232C1004.19 280.093 1005.56 281.466 1006.42 283.155C1007.4 285.075 1007.4 287.589 1007.4 292.616V311.616C1007.4 316.643 1007.4 319.157 1006.42 321.077C1005.56 322.766 1004.19 324.139 1002.5 325C1000.58 325.978 998.064 325.978 993.037 325.978H52.3153C47.2881 325.978 44.7744 325.978 42.8543 325C41.1653 324.139 39.7921 322.766 38.9315 321.077C37.9531 319.157 37.9531 316.643 37.9531 311.616V292.616Z" fill="url(#paint14_linear_1870_49154)" fill-opacity="0.2"/>
<path opacity="0.6" d="M59.8565 307.615H53.5228V297.231H59.8565V298.524H54.9303V301.77H59.3682V303.019H54.9303V306.308H59.8565V307.615ZM63.0163 307.615H61.6663V300.592H62.8871L63.0307 301.669C63.4759 300.865 64.3664 300.391 65.3574 300.391C67.2101 300.391 68.0574 301.526 68.0574 303.321V307.615H66.7074V303.623C66.7074 302.201 66.0467 301.626 65.0127 301.626C63.7488 301.626 63.0163 302.531 63.0163 303.895V307.615ZM71.9093 307.615H70.5593V301.727H69.1805V300.592H70.5593V298.395H71.9093V300.592H73.2881V301.727H71.9093V307.615ZM77.46 307.788C75.3918 307.788 73.9699 306.294 73.9699 304.111C73.9699 301.913 75.3631 300.391 77.4025 300.391C79.3988 300.391 80.7058 301.77 80.7058 303.852V304.355L75.2769 304.369C75.3774 305.849 76.153 306.667 77.4887 306.667C78.5371 306.667 79.2265 306.236 79.4563 305.432H80.7202C80.3755 306.94 79.1978 307.788 77.46 307.788ZM77.4025 301.526C76.2248 301.526 75.478 302.229 75.3056 303.465H79.3558C79.3558 302.301 78.5946 301.526 77.4025 301.526ZM86.2351 300.535V301.77H85.6319C84.3537 301.77 83.5638 302.545 83.5638 303.895V307.615H82.2137V300.606H83.4776L83.5638 301.669C83.851 300.937 84.5547 300.449 85.517 300.449C85.7612 300.449 85.9622 300.477 86.2351 300.535ZM90.6529 298.524V297.231H98.308V298.524H95.1914V307.615H93.7839V298.524H90.6529ZM102.659 300.535V301.77H102.056C100.778 301.77 99.9877 302.545 99.9877 303.895V307.615H98.6376V300.606H99.9015L99.9877 301.669C100.275 300.937 100.979 300.449 101.941 300.449C102.185 300.449 102.386 300.477 102.659 300.535ZM105.699 307.788C104.191 307.788 103.3 306.94 103.3 305.662C103.3 304.369 104.262 303.565 105.914 303.436L108.126 303.263V303.062C108.126 301.885 107.422 301.468 106.474 301.468C105.339 301.468 104.693 301.971 104.693 302.818H103.515C103.515 301.353 104.722 300.391 106.532 300.391C108.269 300.391 109.447 301.31 109.447 303.206V307.615H108.298L108.154 306.481C107.795 307.285 106.833 307.788 105.699 307.788ZM106.086 306.739C107.365 306.739 108.14 305.906 108.14 304.585V304.211L106.345 304.355C105.153 304.47 104.664 304.93 104.664 305.619C104.664 306.366 105.21 306.739 106.086 306.739ZM114.132 307.788C112.092 307.788 110.857 306.265 110.857 304.125C110.857 301.971 112.107 300.391 114.189 300.391C115.266 300.391 116.171 300.865 116.645 301.727V297.045H117.981V307.615H116.774L116.659 306.337C116.2 307.299 115.252 307.788 114.132 307.788ZM114.405 306.567C115.783 306.567 116.631 305.547 116.631 304.082C116.631 302.646 115.783 301.612 114.405 301.612C113.026 301.612 112.222 302.646 112.222 304.082C112.222 305.533 113.026 306.567 114.405 306.567ZM120.589 298.926C120.101 298.926 119.699 298.524 119.699 298.036C119.699 297.533 120.101 297.145 120.589 297.145C121.077 297.145 121.48 297.533 121.48 298.036C121.48 298.524 121.077 298.926 120.589 298.926ZM119.928 307.615V300.592H121.278V307.615H119.928ZM124.588 307.615H123.238V300.592H124.459L124.603 301.669C125.048 300.865 125.939 300.391 126.93 300.391C128.782 300.391 129.63 301.526 129.63 303.321V307.615H128.28V303.623C128.28 302.201 127.619 301.626 126.585 301.626C125.321 301.626 124.588 302.531 124.588 303.895V307.615ZM131.054 303.924C131.054 301.942 132.332 300.391 134.372 300.391C135.507 300.391 136.383 300.908 136.828 301.784L136.928 300.592H138.135V307.328C138.135 309.54 136.77 310.947 134.616 310.947C132.706 310.947 131.399 309.87 131.14 308.089H132.49C132.663 309.123 133.438 309.726 134.616 309.726C135.937 309.726 136.799 308.865 136.799 307.529V306.122C136.34 306.94 135.42 307.429 134.314 307.429C132.318 307.429 131.054 305.892 131.054 303.924ZM132.404 303.895C132.404 305.217 133.223 306.251 134.544 306.251C135.909 306.251 136.742 305.274 136.742 303.895C136.742 302.545 135.937 301.569 134.559 301.569C133.209 301.569 132.404 302.603 132.404 303.895ZM148.692 298.38C146.452 298.38 145.102 300.032 145.102 302.488C145.102 305.001 146.567 306.452 148.707 306.452C150.473 306.452 151.895 305.547 151.895 303.45V303.149H148.419V301.899H153.216V307.63H152.039L151.938 306.222C151.378 307.127 150.114 307.788 148.592 307.788C145.648 307.788 143.623 305.662 143.623 302.459C143.623 299.3 145.662 297.059 148.721 297.059C150.99 297.059 152.757 298.366 153.102 300.362H151.608C151.22 299.041 150.071 298.38 148.692 298.38ZM154.533 304.097C154.533 301.928 156.084 300.405 158.195 300.405C160.292 300.405 161.843 301.928 161.843 304.097C161.843 306.265 160.292 307.788 158.195 307.788C156.084 307.788 154.533 306.265 154.533 304.097ZM155.897 304.097C155.897 305.561 156.831 306.581 158.195 306.581C159.545 306.581 160.493 305.561 160.493 304.097C160.493 302.632 159.545 301.612 158.195 301.612C156.831 301.612 155.897 302.632 155.897 304.097ZM165.391 307.788C163.883 307.788 162.993 306.94 162.993 305.662C162.993 304.369 163.955 303.565 165.607 303.436L167.818 303.263V303.062C167.818 301.885 167.115 301.468 166.167 301.468C165.032 301.468 164.386 301.971 164.386 302.818H163.208C163.208 301.353 164.415 300.391 166.224 300.391C167.962 300.391 169.14 301.31 169.14 303.206V307.615H167.991L167.847 306.481C167.488 307.285 166.526 307.788 165.391 307.788ZM165.779 306.739C167.057 306.739 167.833 305.906 167.833 304.585V304.211L166.038 304.355C164.846 304.47 164.357 304.93 164.357 305.619C164.357 306.366 164.903 306.739 165.779 306.739ZM172.388 307.615H171.038V297.045H172.388V307.615ZM173.801 305.576H175.094C175.094 306.294 175.639 306.725 176.53 306.725C177.478 306.725 178.024 306.337 178.024 305.691C178.024 305.217 177.794 304.93 177.061 304.743L175.826 304.456C174.577 304.154 173.988 303.536 173.988 302.502C173.988 301.21 175.079 300.391 176.63 300.391C178.167 300.391 179.173 301.253 179.201 302.588H177.909C177.88 301.885 177.406 301.44 176.587 301.44C175.74 301.44 175.266 301.813 175.266 302.459C175.266 302.933 175.611 303.249 176.3 303.421L177.535 303.723C178.727 304.01 179.316 304.556 179.316 305.605C179.316 306.94 178.167 307.788 176.501 307.788C174.85 307.788 173.801 306.911 173.801 305.576ZM181.735 307.788C181.174 307.788 180.7 307.328 180.7 306.782C180.7 306.222 181.174 305.763 181.735 305.763C182.28 305.763 182.754 306.222 182.754 306.782C182.754 307.328 182.28 307.788 181.735 307.788ZM185.704 307.788C185.144 307.788 184.67 307.328 184.67 306.782C184.67 306.222 185.144 305.763 185.704 305.763C186.25 305.763 186.723 306.222 186.723 306.782C186.723 307.328 186.25 307.788 185.704 307.788ZM189.673 307.788C189.113 307.788 188.639 307.328 188.639 306.782C188.639 306.222 189.113 305.763 189.673 305.763C190.219 305.763 190.693 306.222 190.693 306.782C190.693 307.328 190.219 307.788 189.673 307.788ZM193.642 307.788C193.082 307.788 192.608 307.328 192.608 306.782C192.608 306.222 193.082 305.763 193.642 305.763C194.188 305.763 194.662 306.222 194.662 306.782C194.662 307.328 194.188 307.788 193.642 307.788Z" fill="white"/>
</g>
<rect x="0.5" y="0.5" width="499" height="363" rx="15.5" stroke="white" stroke-opacity="0.1"/>
<defs>
<filter id="filter0_dd_1870_49154" x="310.237" y="83.4681" width="25.1356" height="25.1336" filterUnits="userSpaceOnUse" color-interpolation-filters="sRGB">
<feFlood flood-opacity="0" result="BackgroundImageFix"/>
<feColorMatrix in="SourceAlpha" type="matrix" values="0 0 0 0 0 0 0 0 0 0 0 0 0 0 0 0 0 0 127 0" result="hardAlpha"/>
<feOffset dy="1.79527"/>
<feGaussianBlur stdDeviation="1.79527"/>
<feColorMatrix type="matrix" values="0 0 0 0 0.054902 0 0 0 0 0.0705882 0 0 0 0 0.105882 0 0 0 0.08 0"/>
<feBlend mode="normal" in2="BackgroundImageFix" result="effect1_dropShadow_1870_49154"/>
<feColorMatrix in="SourceAlpha" type="matrix" values="0 0 0 0 0 0 0 0 0 0 0 0 0 0 0 0 0 0 127 0" result="hardAlpha"/>
<feOffset dy="3.59054"/>
<feGaussianBlur stdDeviation="3.59054"/>
<feColorMatrix type="matrix" values="0 0 0 0 0.105882 0 0 0 0 0.109804 0 0 0 0 0.113725 0 0 0 0.06 0"/>
<feBlend mode="normal" in2="effect1_dropShadow_1870_49154" result="effect2_dropShadow_1870_49154"/>
<feBlend mode="normal" in="SourceGraphic" in2="effect2_dropShadow_1870_49154" result="shape"/>
</filter>
<filter id="filter1_dd_1870_49154" x="321.01" y="123.011" width="25.1356" height="25.1336" filterUnits="userSpaceOnUse" color-interpolation-filters="sRGB">
<feFlood flood-opacity="0" result="BackgroundImageFix"/>
<feColorMatrix in="SourceAlpha" type="matrix" values="0 0 0 0 0 0 0 0 0 0 0 0 0 0 0 0 0 0 127 0" result="hardAlpha"/>
<feOffset dy="1.79527"/>
<feGaussianBlur stdDeviation="1.79527"/>
<feColorMatrix type="matrix" values="0 0 0 0 0.054902 0 0 0 0 0.0705882 0 0 0 0 0.105882 0 0 0 0.08 0"/>
<feBlend mode="normal" in2="BackgroundImageFix" result="effect1_dropShadow_1870_49154"/>
<feColorMatrix in="SourceAlpha" type="matrix" values="0 0 0 0 0 0 0 0 0 0 0 0 0 0 0 0 0 0 127 0" result="hardAlpha"/>
<feOffset dy="3.59054"/>
<feGaussianBlur stdDeviation="3.59054"/>
<feColorMatrix type="matrix" values="0 0 0 0 0.105882 0 0 0 0 0.109804 0 0 0 0 0.113725 0 0 0 0.06 0"/>
<feBlend mode="normal" in2="effect1_dropShadow_1870_49154" result="effect2_dropShadow_1870_49154"/>
<feBlend mode="normal" in="SourceGraphic" in2="effect2_dropShadow_1870_49154" result="shape"/>
</filter>
<filter id="filter2_dd_1870_49154" x="310.237" y="162.554" width="25.1356" height="25.1336" filterUnits="userSpaceOnUse" color-interpolation-filters="sRGB">
<feFlood flood-opacity="0" result="BackgroundImageFix"/>
<feColorMatrix in="SourceAlpha" type="matrix" values="0 0 0 0 0 0 0 0 0 0 0 0 0 0 0 0 0 0 127 0" result="hardAlpha"/>
<feOffset dy="1.79527"/>
<feGaussianBlur stdDeviation="1.79527"/>
<feColorMatrix type="matrix" values="0 0 0 0 0.054902 0 0 0 0 0.0705882 0 0 0 0 0.105882 0 0 0 0.08 0"/>
<feBlend mode="normal" in2="BackgroundImageFix" result="effect1_dropShadow_1870_49154"/>
<feColorMatrix in="SourceAlpha" type="matrix" values="0 0 0 0 0 0 0 0 0 0 0 0 0 0 0 0 0 0 127 0" result="hardAlpha"/>
<feOffset dy="3.59054"/>
<feGaussianBlur stdDeviation="3.59054"/>
<feColorMatrix type="matrix" values="0 0 0 0 0.105882 0 0 0 0 0.109804 0 0 0 0 0.113725 0 0 0 0.06 0"/>
<feBlend mode="normal" in2="effect1_dropShadow_1870_49154" result="effect2_dropShadow_1870_49154"/>
<feBlend mode="normal" in="SourceGraphic" in2="effect2_dropShadow_1870_49154" result="shape"/>
</filter>
<linearGradient id="paint0_linear_1870_49154" x1="140.907" y1="257.659" x2="227.23" y2="-233.505" gradientUnits="userSpaceOnUse">
<stop stop-color="#3EDC81"/>
<stop offset="1" stop-color="#0276DB"/>
</linearGradient>
<linearGradient id="paint1_linear_1870_49154" x1="850.881" y1="-299.345" x2="200.234" y2="448.636" gradientUnits="userSpaceOnUse">
<stop stop-color="#0F0F0F" stop-opacity="0.2"/>
<stop offset="0.555856" stop-color="#0F0F0F" stop-opacity="0.661921"/>
<stop offset="0.768606" stop-color="#0F0F0F" stop-opacity="0.748406"/>
<stop offset="1" stop-color="#0F0F0F" stop-opacity="0.9"/>
</linearGradient>
<linearGradient id="paint2_linear_1870_49154" x1="198.331" y1="-24.1504" x2="198.331" y2="35.1408" gradientUnits="userSpaceOnUse">
<stop stop-color="white" stop-opacity="0.2"/>
<stop offset="1" stop-color="white" stop-opacity="0.1"/>
</linearGradient>
<linearGradient id="paint3_linear_1870_49154" x1="522.674" y1="-24.1504" x2="522.674" y2="35.1408" gradientUnits="userSpaceOnUse">
<stop stop-color="white" stop-opacity="0.2"/>
<stop offset="1" stop-color="white" stop-opacity="0.1"/>
</linearGradient>
<linearGradient id="paint4_linear_1870_49154" x1="194.74" y1="74.4922" x2="194.74" y2="110.445" gradientUnits="userSpaceOnUse">
<stop stop-color="white" stop-opacity="0.2"/>
<stop offset="1" stop-color="white" stop-opacity="0.1"/>
</linearGradient>
<linearGradient id="paint5_linear_1870_49154" x1="315.262" y1="92.4682" x2="340.396" y2="92.4682" gradientUnits="userSpaceOnUse">
<stop stop-color="white"/>
<stop offset="1" stop-color="white" stop-opacity="0.4"/>
</linearGradient>
<linearGradient id="paint6_linear_1870_49154" x1="194.74" y1="114.035" x2="194.74" y2="149.988" gradientUnits="userSpaceOnUse">
<stop stop-color="white" stop-opacity="0.2"/>
<stop offset="1" stop-color="white" stop-opacity="0.1"/>
</linearGradient>
<linearGradient id="paint7_linear_1870_49154" x1="327.829" y1="124.83" x2="327.829" y2="139.192" gradientUnits="userSpaceOnUse">
<stop stop-color="#15B0F8"/>
<stop offset="1" stop-color="#0276DB"/>
</linearGradient>
<linearGradient id="paint8_linear_1870_49154" x1="333.577" y1="130.193" x2="333.577" y2="133.784" gradientUnits="userSpaceOnUse">
<stop stop-color="#15B0F8"/>
<stop offset="1" stop-color="#0276DB"/>
</linearGradient>
<linearGradient id="paint9_linear_1870_49154" x1="194.74" y1="153.578" x2="194.74" y2="189.531" gradientUnits="userSpaceOnUse">
<stop stop-color="white" stop-opacity="0.2"/>
<stop offset="1" stop-color="white" stop-opacity="0.1"/>
</linearGradient>
<linearGradient id="paint10_linear_1870_49154" x1="315.262" y1="171.554" x2="340.396" y2="171.554" gradientUnits="userSpaceOnUse">
<stop stop-color="white"/>
<stop offset="1" stop-color="white" stop-opacity="0.4"/>
</linearGradient>
<linearGradient id="paint11_linear_1870_49154" x1="522.678" y1="74.4922" x2="522.678" y2="110.445" gradientUnits="userSpaceOnUse">
<stop stop-color="white" stop-opacity="0.2"/>
<stop offset="1" stop-color="white" stop-opacity="0.1"/>
</linearGradient>
<linearGradient id="paint12_linear_1870_49154" x1="522.678" y1="114.035" x2="522.678" y2="149.988" gradientUnits="userSpaceOnUse">
<stop stop-color="white" stop-opacity="0.2"/>
<stop offset="1" stop-color="white" stop-opacity="0.1"/>
</linearGradient>
<linearGradient id="paint13_linear_1870_49154" x1="276.724" y1="228.008" x2="276.724" y2="263.961" gradientUnits="userSpaceOnUse">
<stop stop-color="white" stop-opacity="0.1"/>
<stop offset="1" stop-color="white" stop-opacity="0.05"/>
</linearGradient>
<linearGradient id="paint14_linear_1870_49154" x1="522.676" y1="278.254" x2="522.676" y2="325.978" gradientUnits="userSpaceOnUse">
<stop stop-color="white" stop-opacity="0.2"/>
<stop offset="1" stop-color="white" stop-opacity="0.1"/>
</linearGradient>
<clipPath id="clip0_1870_49154">
<rect width="500" height="364" rx="16" fill="white"/>
</clipPath>
<clipPath id="clip1_1870_49154">
<rect width="13.5027" height="13.5027" fill="white" transform="translate(54.9688 237.008)"/>
</clipPath>
</defs>
</svg>
