<svg width="500" height="365" viewBox="0 0 500 365" fill="none" xmlns="http://www.w3.org/2000/svg">
<g clip-path="url(#clip0_1356_167217)">
<path d="M0 16.3516C0 7.51501 7.16344 0.351562 16 0.351562H484C492.837 0.351562 500 7.51501 500 16.3516V348.352C500 357.188 492.837 364.352 484 364.352H16C7.16345 364.352 0 357.188 0 348.352V16.3516Z" fill="url(#paint0_linear_1356_167217)" fill-opacity="0.2"/>
<path d="M0 16.3516C0 7.51501 7.16344 0.351562 16 0.351562H484C492.837 0.351562 500 7.51501 500 16.3516V348.352C500 357.188 492.837 364.352 484 364.352H16C7.16345 364.352 0 357.188 0 348.352V16.3516Z" fill="url(#paint1_linear_1356_167217)"/>
<path d="M-760 49.2636C-760 39.4935 -760 34.6084 -758.099 30.8767C-756.426 27.5942 -753.757 24.9255 -750.475 23.253C-746.743 21.3516 -741.858 21.3516 -732.088 21.3516H433.238C443.008 21.3516 447.894 21.3516 451.625 23.253C454.908 24.9255 457.577 27.5942 459.249 30.8767C461.15 34.6084 461.15 39.4935 461.15 49.2636V690.255C461.15 700.025 461.15 704.91 459.249 708.642C457.577 711.924 454.908 714.593 451.625 716.265C447.894 718.167 443.009 718.167 433.238 718.167H-732.088C-741.858 718.167 -746.743 718.167 -750.475 716.265C-753.757 714.593 -756.426 711.924 -758.099 708.642C-760 704.91 -760 700.025 -760 690.255V49.2636Z" fill="url(#paint2_linear_1356_167217)"/>
<path d="M-760 49.2636C-760 39.4935 -760 34.6084 -758.099 30.8767C-756.426 27.5942 -753.757 24.9255 -750.475 23.253C-746.743 21.3516 -741.858 21.3516 -732.088 21.3516H433.238C443.008 21.3516 447.894 21.3516 451.625 23.253C454.908 24.9255 457.577 27.5942 459.249 30.8767C461.15 34.6084 461.15 39.4935 461.15 49.2636V690.255C461.15 700.025 461.15 704.91 459.249 708.642C457.577 711.924 454.908 714.593 451.625 716.265C447.894 718.167 443.009 718.167 433.238 718.167H-732.088C-741.858 718.167 -746.743 718.167 -750.475 716.265C-753.757 714.593 -756.426 711.924 -758.099 708.642C-760 704.91 -760 700.025 -760 690.255V49.2636Z" fill="url(#paint3_linear_1356_167217)"/>
<path d="M-732.088 21.8965H433.238C438.132 21.8965 441.77 21.8974 444.651 22.1328C447.527 22.3677 449.602 22.8333 451.378 23.7383C454.558 25.3585 457.143 27.9441 458.764 31.124C459.669 32.9002 460.134 34.9753 460.369 37.8506C460.605 40.7322 460.605 44.3699 460.605 49.2637V690.255C460.605 695.149 460.605 698.786 460.369 701.668C460.134 704.543 459.669 706.618 458.764 708.395C457.143 711.574 454.558 714.159 451.378 715.779C449.602 716.684 447.527 717.151 444.651 717.386C441.77 717.621 438.132 717.622 433.238 717.622H-732.088C-736.982 717.622 -740.619 717.621 -743.501 717.386C-746.376 717.151 -748.451 716.684 -750.228 715.779C-753.407 714.159 -755.993 711.574 -757.613 708.395C-758.518 706.618 -758.984 704.543 -759.219 701.668C-759.454 698.786 -759.455 695.149 -759.455 690.255V49.2637C-759.455 44.3699 -759.454 40.7322 -759.219 37.8506C-758.984 34.9753 -758.518 32.9002 -757.613 31.124C-755.993 27.9441 -753.407 25.3585 -750.228 23.7383C-748.451 22.8333 -746.376 22.3677 -743.501 22.1328C-740.619 21.8974 -736.982 21.8965 -732.088 21.8965Z" stroke="white" stroke-opacity="0.05" stroke-width="1.09031"/>
<path d="M165.384 60.5214C165.384 50.932 173.158 43.1582 182.747 43.1582H297.259C306.848 43.1582 314.622 50.932 314.622 60.5214V69.6012C314.622 79.1907 306.848 86.9645 297.259 86.9645H182.747C173.158 86.9645 165.384 79.1907 165.384 69.6012V60.5214Z" fill="white"/>
<path d="M182.747 43.7031H297.259C306.547 43.7032 314.077 51.2331 314.077 60.5215V69.6016C314.077 78.8898 306.547 86.4189 297.259 86.4189H182.747C173.459 86.4189 165.929 78.8898 165.929 69.6016V60.5215C165.929 51.2331 173.459 43.7031 182.747 43.7031Z" stroke="white" stroke-opacity="0.3" stroke-width="1.09031"/>
<path d="M199.781 71.0605H198.285V60.0244H202.452C204.818 60.0244 206.223 61.2761 206.223 63.3368C206.223 64.8632 205.459 65.9622 204.086 66.4049L206.329 71.0605H204.666L202.605 66.6949H199.781V71.0605ZM199.781 61.3677V65.3669H202.468C203.857 65.3669 204.65 64.619 204.65 63.352C204.65 62.0698 203.826 61.3677 202.452 61.3677H199.781ZM212.873 63.5963H214.292V71.0605H213.01L212.857 69.931C212.43 70.7095 211.438 71.2437 210.339 71.2437C208.598 71.2437 207.622 70.0684 207.622 68.2366V63.5963H209.056V67.7634C209.056 69.3662 209.743 69.9768 210.842 69.9768C212.155 69.9768 212.873 69.1372 212.873 67.5345V63.5963ZM217.717 71.0605H216.282V63.5963H217.58L217.732 64.7411C218.206 63.8863 219.152 63.3826 220.205 63.3826C222.174 63.3826 223.075 64.5884 223.075 66.4965V71.0605H221.64V66.817C221.64 65.3059 220.938 64.6953 219.839 64.6953C218.496 64.6953 217.717 65.657 217.717 67.1071V71.0605ZM229.755 71.0605H228.198L232.228 60.0244H233.892L237.937 71.0605H236.365L235.372 68.313H230.732L229.755 71.0605ZM232.869 62.4056L231.19 67.0155H234.93L233.235 62.4056C233.159 62.1919 233.083 61.9324 233.052 61.7645C233.022 61.9172 232.945 62.1767 232.869 62.4056ZM240.503 71.0605H239.068V63.5963H240.366L240.518 64.7411C240.991 63.8863 241.938 63.3826 242.991 63.3826C244.96 63.3826 245.861 64.5884 245.861 66.4965V71.0605H244.426V66.817C244.426 65.3059 243.724 64.6953 242.625 64.6953C241.281 64.6953 240.503 65.657 240.503 67.1071V71.0605ZM249.939 71.2437C248.337 71.2437 247.39 70.3431 247.39 68.9846C247.39 67.6108 248.413 66.756 250.168 66.6186L252.519 66.4354V66.2217C252.519 64.9701 251.771 64.5274 250.764 64.5274C249.558 64.5274 248.871 65.0616 248.871 65.9622H247.619C247.619 64.4053 248.901 63.3826 250.825 63.3826C252.672 63.3826 253.923 64.3595 253.923 66.3744V71.0605H252.702L252.55 69.8547C252.168 70.7095 251.145 71.2437 249.939 71.2437ZM250.351 70.1294C251.71 70.1294 252.534 69.2441 252.534 67.8398V67.4429L250.626 67.5955C249.359 67.7176 248.84 68.2061 248.84 68.9388C248.84 69.7325 249.42 70.1294 250.351 70.1294ZM257.284 71.0605H255.849V59.826H257.284V71.0605ZM258.587 74.4034V73.2281H259.549C260.236 73.2281 260.786 73.1212 261.137 72.1748L261.396 71.4574L258.389 63.5963H259.9L262.068 69.6104L264.281 63.5963H265.762L262.236 72.7396C261.732 74.0218 260.984 74.5561 259.839 74.5561C259.366 74.5561 258.969 74.495 258.587 74.4034ZM266.101 68.893H267.475C267.475 69.6562 268.055 70.1142 269.001 70.1142C270.008 70.1142 270.588 69.702 270.588 69.0151C270.588 68.5114 270.344 68.2061 269.566 68.0077L268.253 67.7024C266.925 67.3818 266.299 66.7255 266.299 65.6264C266.299 64.2526 267.459 63.3826 269.108 63.3826C270.741 63.3826 271.81 64.2984 271.84 65.718H270.466C270.436 64.9701 269.932 64.4969 269.062 64.4969C268.161 64.4969 267.658 64.8937 267.658 65.5806C267.658 66.0844 268.024 66.4202 268.757 66.6033L270.069 66.9239C271.336 67.2292 271.962 67.8092 271.962 68.9235C271.962 70.3431 270.741 71.2437 268.97 71.2437C267.215 71.2437 266.101 70.3126 266.101 68.893ZM274.164 61.8256C273.645 61.8256 273.218 61.3982 273.218 60.8792C273.218 60.345 273.645 59.9328 274.164 59.9328C274.683 59.9328 275.11 60.345 275.11 60.8792C275.11 61.3982 274.683 61.8256 274.164 61.8256ZM273.462 71.0605V63.5963H274.897V71.0605H273.462ZM276.278 68.893H277.651C277.651 69.6562 278.232 70.1142 279.178 70.1142C280.185 70.1142 280.765 69.702 280.765 69.0151C280.765 68.5114 280.521 68.2061 279.743 68.0077L278.43 67.7024C277.102 67.3818 276.476 66.7255 276.476 65.6264C276.476 64.2526 277.636 63.3826 279.285 63.3826C280.918 63.3826 281.987 64.2984 282.017 65.718H280.643C280.613 64.9701 280.109 64.4969 279.239 64.4969C278.338 64.4969 277.835 64.8937 277.835 65.5806C277.835 66.0844 278.201 66.4202 278.934 66.6033L280.246 66.9239C281.513 67.2292 282.139 67.8092 282.139 68.9235C282.139 70.3431 280.918 71.2437 279.147 71.2437C277.392 71.2437 276.278 70.3126 276.278 68.893Z" fill="#111111"/>
<path d="M327.16 60.8677H324.84V59.5244H328.595V70.5605H327.16V60.8677ZM331.278 70.5605H329.859L334.163 59.5397H335.598L331.278 70.5605ZM343.22 70.5453L335.771 70.5605V69.4157L339.327 66.3476C341.113 64.8059 341.617 64.0579 341.617 62.8826C341.617 61.4935 340.823 60.6692 339.495 60.6692C338.137 60.6692 337.252 61.6614 337.221 63.2336H335.725C335.771 60.8677 337.267 59.326 339.511 59.326C341.724 59.326 343.144 60.6692 343.144 62.791C343.144 64.3632 342.365 65.4775 340.411 67.1719L338.122 69.1562H343.22V70.5453ZM344.291 65.0501C344.291 61.6309 346.062 59.3107 348.84 59.3107C351.603 59.3107 353.374 61.6309 353.374 65.0501C353.374 68.4846 351.679 70.759 348.84 70.759C345.986 70.759 344.291 68.4846 344.291 65.0501ZM345.772 65.0501C345.772 67.7672 346.902 69.4157 348.84 69.4157C350.779 69.4157 351.893 67.7672 351.893 65.0501C351.893 62.3025 350.779 60.654 348.84 60.654C346.902 60.654 345.772 62.3025 345.772 65.0501ZM359.431 70.5605H357.874L361.903 59.5244H363.567L367.612 70.5605H366.04L365.048 67.813H360.407L359.431 70.5605ZM362.544 61.9056L360.865 66.5155H364.605L362.911 61.9056C362.835 61.6919 362.758 61.4324 362.728 61.2645C362.697 61.4172 362.621 61.6767 362.544 61.9056ZM369.965 70.5605H368.53V63.0963H369.827L369.98 64.2411C370.453 63.3863 371.4 62.8826 372.453 62.8826C374.422 62.8826 375.322 64.0884 375.322 65.9965V70.5605H373.888V66.317C373.888 64.8059 373.185 64.1953 372.086 64.1953C370.743 64.1953 369.965 65.157 369.965 66.6071V70.5605ZM379.187 70.7437C377.585 70.7437 376.638 69.8431 376.638 68.4846C376.638 67.1108 377.661 66.256 379.416 66.1186L381.767 65.9354V65.7217C381.767 64.4701 381.019 64.0274 380.012 64.0274C378.806 64.0274 378.119 64.5616 378.119 65.4622H376.867C376.867 63.9053 378.149 62.8826 380.073 62.8826C381.92 62.8826 383.171 63.8595 383.171 65.8744V70.5605H381.95L381.798 69.3547C381.416 70.2095 380.393 70.7437 379.187 70.7437ZM379.599 69.6294C380.958 69.6294 381.782 68.7441 381.782 67.3398V66.9429L379.874 67.0955C378.607 67.2176 378.088 67.7061 378.088 68.4388C378.088 69.2325 378.668 69.6294 379.599 69.6294ZM386.319 70.5605H384.884V59.326H386.319V70.5605ZM387.408 73.9034V72.7281H388.37C389.057 72.7281 389.606 72.6212 389.957 71.6748L390.217 70.9574L387.21 63.0963H388.721L390.888 69.1104L393.102 63.0963H394.582L391.056 72.2396C390.552 73.5218 389.805 74.0561 388.66 74.0561C388.187 74.0561 387.79 73.995 387.408 73.9034ZM394.708 68.393H396.081C396.081 69.1562 396.661 69.6142 397.608 69.6142C398.615 69.6142 399.195 69.202 399.195 68.5151C399.195 68.0114 398.951 67.7061 398.173 67.5077L396.86 67.2024C395.532 66.8818 394.906 66.2255 394.906 65.1264C394.906 63.7526 396.066 62.8826 397.715 62.8826C399.348 62.8826 400.417 63.7984 400.447 65.218H399.073C399.043 64.4701 398.539 63.9969 397.669 63.9969C396.768 63.9969 396.265 64.3937 396.265 65.0806C396.265 65.5844 396.631 65.9202 397.364 66.1033L398.676 66.4239C399.943 66.7292 400.569 67.3092 400.569 68.4235C400.569 69.8431 399.348 70.7437 397.577 70.7437C395.822 70.7437 394.708 69.8126 394.708 68.393ZM402.557 61.3256C402.038 61.3256 401.611 60.8982 401.611 60.3792C401.611 59.845 402.038 59.4328 402.557 59.4328C403.076 59.4328 403.504 59.845 403.504 60.3792C403.504 60.8982 403.076 61.3256 402.557 61.3256ZM401.855 70.5605V63.0963H403.29V70.5605H401.855ZM404.457 68.393H405.831C405.831 69.1562 406.411 69.6142 407.357 69.6142C408.365 69.6142 408.945 69.202 408.945 68.5151C408.945 68.0114 408.701 67.7061 407.922 67.5077L406.609 67.2024C405.281 66.8818 404.656 66.2255 404.656 65.1264C404.656 63.7526 405.816 62.8826 407.464 62.8826C409.098 62.8826 410.166 63.7984 410.197 65.218H408.823C408.792 64.4701 408.289 63.9969 407.418 63.9969C406.518 63.9969 406.014 64.3937 406.014 65.0806C406.014 65.5844 406.38 65.9202 407.113 66.1033L408.426 66.4239C409.693 66.7292 410.319 67.3092 410.319 68.4235C410.319 69.8431 409.098 70.7437 407.327 70.7437C405.571 70.7437 404.457 69.8126 404.457 68.393ZM417.213 59.5244V69.1715H422.067V70.5605H415.717V59.5244H417.213ZM426.215 70.7437C424.017 70.7437 422.505 69.1562 422.505 66.836C422.505 64.5006 423.986 62.8826 426.154 62.8826C428.275 62.8826 429.664 64.3479 429.664 66.5613V67.0955L423.894 67.1108C424.001 68.683 424.826 69.5531 426.245 69.5531C427.359 69.5531 428.092 69.0952 428.336 68.2404H429.68C429.313 69.8431 428.062 70.7437 426.215 70.7437ZM426.154 64.0884C424.902 64.0884 424.108 64.8364 423.925 66.1491H428.23C428.23 64.9127 427.421 64.0884 426.154 64.0884ZM430.168 63.0963H431.267V61.9056C431.267 60.0739 432.259 59.326 433.557 59.326C433.831 59.326 434.167 59.3412 434.442 59.387V60.6234H433.801C432.931 60.6234 432.702 61.0966 432.702 61.9056V63.0963H436.197V60.7608H437.632V63.0963H439.098V64.3022H437.632V70.5605H436.197V64.3022H432.702V70.5605H431.267V64.3022H430.168V63.0963Z" fill="white" fill-opacity="0.8"/>
<path d="M-738.193 125.328C-738.193 119.221 -738.193 116.168 -737.005 113.836C-735.96 111.784 -734.292 110.117 -732.24 109.071C-729.908 107.883 -726.855 107.883 -720.748 107.883H421.9C428.006 107.883 431.059 107.883 433.391 109.071C435.443 110.117 437.111 111.784 438.156 113.836C439.345 116.168 439.345 119.221 439.345 125.328V134.244C439.345 140.35 439.345 143.404 438.156 145.736C437.111 147.787 435.443 149.455 433.391 150.501C431.059 151.689 428.006 151.689 421.9 151.689H-720.748C-726.855 151.689 -729.908 151.689 -732.24 150.501C-734.292 149.455 -735.96 147.787 -737.005 145.736C-738.193 143.404 -738.193 140.35 -738.193 134.244V125.328Z" fill="url(#paint4_linear_1356_167217)" fill-opacity="0.2"/>
<path d="M-145.063 122.711C-145.063 119.047 -145.063 117.215 -144.35 115.816C-143.723 114.585 -142.722 113.584 -141.492 112.957C-140.092 112.244 -138.26 112.244 -134.596 112.244H423.426C427.089 112.244 428.921 112.244 430.321 112.957C431.552 113.584 432.552 114.585 433.18 115.816C433.893 117.215 433.893 119.047 433.893 122.711V136.861C433.893 140.525 433.893 142.357 433.18 143.756C432.552 144.987 431.552 145.988 430.321 146.615C428.921 147.328 427.089 147.328 423.426 147.328H-134.597C-138.26 147.328 -140.092 147.328 -141.492 146.615C-142.722 145.988 -143.723 144.987 -144.35 143.756C-145.063 142.357 -145.063 140.525 -145.063 136.861V122.711Z" fill="white"/>
<path d="M105.145 129.785V135.237" stroke="#111111" stroke-width="1.36289" stroke-linecap="round"/>
<path d="M105.144 135.238C103.623 135.238 102.3 136.158 101.617 137.514C101.29 138.162 101.759 138.873 102.381 138.873H107.907C108.53 138.873 108.998 138.162 108.672 137.514C107.988 136.158 106.665 135.238 105.144 135.238Z" stroke="#111111" stroke-width="1.36289" stroke-linecap="round"/>
<path d="M98.7844 123.426H97.8619C96.9655 123.426 96.5174 123.426 96.2405 123.762C95.9636 124.099 96.0448 124.476 96.2072 125.23C96.5174 126.67 97.1902 127.935 98.1019 128.877" stroke="#111111" stroke-width="1.36289" stroke-linecap="round"/>
<path d="M111.505 123.426H112.427C113.324 123.426 113.772 123.426 114.049 123.762C114.326 124.099 114.244 124.476 114.082 125.23C113.772 126.67 113.099 127.935 112.187 128.877" stroke="#111111" stroke-width="1.36289" stroke-linecap="round"/>
<path d="M105.144 129.785C108.657 129.785 111.504 126.953 111.504 123.46C111.504 123.368 111.503 123.277 111.499 123.186C111.46 122.278 111.44 121.824 110.825 121.262C110.21 120.699 109.528 120.699 108.165 120.699H102.124C100.761 120.699 100.079 120.699 99.4635 121.262C98.8482 121.824 98.8288 122.278 98.79 123.186C98.7861 123.277 98.7842 123.368 98.7842 123.46C98.7842 126.953 101.632 129.785 105.144 129.785Z" stroke="#111111" stroke-width="1.36289" stroke-linecap="round"/>
<path d="M124.053 135.785V124.749H128.266C130.418 124.749 131.731 125.848 131.731 127.665C131.731 128.931 131.181 129.786 130.082 130.244C131.303 130.641 131.929 131.526 131.929 132.839C131.929 134.671 130.601 135.785 128.418 135.785H124.053ZM128.174 126.077H125.549V129.618H128.266C129.502 129.618 130.204 128.947 130.204 127.802C130.204 126.703 129.472 126.077 128.174 126.077ZM128.388 130.916H125.549V134.457H128.388C129.67 134.457 130.387 133.801 130.387 132.656C130.387 131.557 129.655 130.916 128.388 130.916ZM136.687 135.968C134.488 135.968 132.977 134.381 132.977 132.061C132.977 129.725 134.458 128.107 136.626 128.107C138.747 128.107 140.136 129.573 140.136 131.786V132.32L134.366 132.335C134.473 133.908 135.298 134.778 136.717 134.778C137.831 134.778 138.564 134.32 138.808 133.465H140.152C139.785 135.068 138.534 135.968 136.687 135.968ZM136.626 129.313C135.374 129.313 134.58 130.061 134.397 131.374H138.701C138.701 130.137 137.892 129.313 136.626 129.313ZM141.037 133.618H142.411C142.411 134.381 142.991 134.839 143.937 134.839C144.944 134.839 145.525 134.427 145.525 133.74C145.525 133.236 145.28 132.931 144.502 132.732L143.189 132.427C141.861 132.106 141.235 131.45 141.235 130.351C141.235 128.977 142.395 128.107 144.044 128.107C145.677 128.107 146.746 129.023 146.776 130.443H145.402C145.372 129.695 144.868 129.221 143.998 129.221C143.097 129.221 142.594 129.618 142.594 130.305C142.594 130.809 142.96 131.145 143.693 131.328L145.006 131.649C146.272 131.954 146.898 132.534 146.898 133.648C146.898 135.068 145.677 135.968 143.906 135.968C142.151 135.968 141.037 135.037 141.037 133.618ZM150.504 135.785H149.07V129.527H147.604V128.321H149.07V125.985H150.504V128.321H151.97V129.527H150.504V135.785ZM156.424 126.123V124.749H164.56V126.123H161.247V135.785H159.752V126.123H156.424ZM169.093 128.26V129.573H168.452C167.093 129.573 166.253 130.397 166.253 131.832V135.785H164.819V128.336H166.162L166.253 129.466C166.559 128.687 167.307 128.168 168.329 128.168C168.589 128.168 168.803 128.199 169.093 128.26ZM172.231 135.968C170.629 135.968 169.682 135.068 169.682 133.709C169.682 132.335 170.705 131.481 172.46 131.343L174.811 131.16V130.946C174.811 129.695 174.063 129.252 173.056 129.252C171.85 129.252 171.163 129.786 171.163 130.687H169.911C169.911 129.13 171.193 128.107 173.117 128.107C174.964 128.107 176.215 129.084 176.215 131.099V135.785H174.994L174.842 134.579C174.46 135.434 173.437 135.968 172.231 135.968ZM172.644 134.854C174.002 134.854 174.826 133.969 174.826 132.564V132.167L172.918 132.32C171.651 132.442 171.132 132.931 171.132 133.663C171.132 134.457 171.712 134.854 172.644 134.854ZM181.103 135.968C178.935 135.968 177.623 134.35 177.623 132.076C177.623 129.786 178.951 128.107 181.164 128.107C182.309 128.107 183.27 128.611 183.774 129.527V124.551H185.194V135.785H183.911L183.789 134.427C183.301 135.449 182.293 135.968 181.103 135.968ZM181.393 134.671C182.858 134.671 183.759 133.587 183.759 132.03C183.759 130.504 182.858 129.405 181.393 129.405C179.927 129.405 179.073 130.504 179.073 132.03C179.073 133.572 179.927 134.671 181.393 134.671ZM190.393 135.968C188.195 135.968 186.684 134.381 186.684 132.061C186.684 129.725 188.164 128.107 190.332 128.107C192.454 128.107 193.843 129.573 193.843 131.786V132.32L188.073 132.335C188.18 133.908 189.004 134.778 190.423 134.778C191.538 134.778 192.27 134.32 192.515 133.465H193.858C193.492 135.068 192.24 135.968 190.393 135.968ZM190.332 129.313C189.08 129.313 188.286 130.061 188.103 131.374H192.408C192.408 130.137 191.599 129.313 190.332 129.313Z" fill="#111111"/>
<path d="M-140.702 179.956C-140.702 173.934 -135.821 169.053 -129.799 169.053H428.441C434.463 169.053 439.344 173.934 439.344 179.956V239.581C439.344 245.603 434.463 250.485 428.441 250.485H-129.799C-135.821 250.485 -140.702 245.603 -140.702 239.581V179.956Z" fill="white" fill-opacity="0.03"/>
<path d="M-129.799 169.598H428.441C434.162 169.598 438.799 174.236 438.799 179.956V239.581C438.799 245.302 434.162 249.939 428.441 249.939H-129.799C-135.519 249.939 -140.157 245.302 -140.157 239.581V179.956C-140.157 174.236 -135.519 169.598 -129.799 169.598Z" stroke="white" stroke-opacity="0.02" stroke-width="1.09031"/>
<path d="M364.623 201.586V200.46C362.896 200.356 361.758 199.374 361.679 197.844H362.988C363.014 198.681 363.629 199.23 364.623 199.335V196.077L364.152 195.973C362.608 195.619 361.81 194.756 361.81 193.408C361.81 191.917 362.922 190.857 364.623 190.713V189.575H365.461V190.7C367.044 190.844 368.051 191.812 368.143 193.33H366.874C366.821 192.492 366.311 191.956 365.461 191.838V195.083L365.971 195.201C367.541 195.554 368.3 196.378 368.3 197.687C368.3 199.244 367.188 200.29 365.461 200.447V201.586H364.623ZM364.414 194.834L364.623 194.887V191.838C363.655 191.969 363.066 192.532 363.066 193.369C363.066 194.128 363.498 194.612 364.414 194.834ZM365.709 196.339L365.461 196.287V199.309C366.442 199.178 367.044 198.616 367.044 197.791C367.044 197.032 366.612 196.548 365.709 196.339ZM375.537 200.303L369.152 200.316V199.335L372.201 196.705C373.732 195.384 374.163 194.743 374.163 193.735C374.163 192.545 373.483 191.838 372.345 191.838C371.18 191.838 370.421 192.689 370.395 194.036H369.113C369.152 192.008 370.434 190.687 372.358 190.687C374.255 190.687 375.472 191.838 375.472 193.657C375.472 195.004 374.804 195.96 373.13 197.412L371.167 199.113H375.537V200.303ZM378.664 199.806C378.664 200.748 377.957 201.533 377.028 201.651V201.101C377.565 201.01 377.944 200.657 377.944 200.251C377.853 200.303 377.748 200.329 377.591 200.329C377.159 200.329 376.793 200.015 376.793 199.531C376.793 199.008 377.146 198.629 377.67 198.629C378.219 198.629 378.664 199.087 378.664 199.806ZM379.388 195.593C379.388 192.662 380.906 190.674 383.287 190.674C385.655 190.674 387.173 192.662 387.173 195.593C387.173 198.537 385.721 200.486 383.287 200.486C380.84 200.486 379.388 198.537 379.388 195.593ZM380.657 195.593C380.657 197.922 381.625 199.335 383.287 199.335C384.949 199.335 385.904 197.922 385.904 195.593C385.904 193.238 384.949 191.825 383.287 191.825C381.625 191.825 380.657 193.238 380.657 195.593ZM388.198 195.593C388.198 192.662 389.716 190.674 392.097 190.674C394.465 190.674 395.983 192.662 395.983 195.593C395.983 198.537 394.531 200.486 392.097 200.486C389.65 200.486 388.198 198.537 388.198 195.593ZM389.467 195.593C389.467 197.922 390.435 199.335 392.097 199.335C393.759 199.335 394.714 197.922 394.714 195.593C394.714 193.238 393.759 191.825 392.097 191.825C390.435 191.825 389.467 193.238 389.467 195.593ZM397.008 195.593C397.008 192.662 398.526 190.674 400.907 190.674C403.275 190.674 404.793 192.662 404.793 195.593C404.793 198.537 403.341 200.486 400.907 200.486C398.461 200.486 397.008 198.537 397.008 195.593ZM398.277 195.593C398.277 197.922 399.246 199.335 400.907 199.335C402.569 199.335 403.524 197.922 403.524 195.593C403.524 193.238 402.569 191.825 400.907 191.825C399.246 191.825 398.277 193.238 398.277 195.593ZM406.446 200.473C405.936 200.473 405.504 200.055 405.504 199.558C405.504 199.047 405.936 198.629 406.446 198.629C406.943 198.629 407.375 199.047 407.375 199.558C407.375 200.055 406.943 200.473 406.446 200.473ZM408.099 195.593C408.099 192.662 409.617 190.674 411.998 190.674C414.366 190.674 415.884 192.662 415.884 195.593C415.884 198.537 414.432 200.486 411.998 200.486C409.552 200.486 408.099 198.537 408.099 195.593ZM409.368 195.593C409.368 197.922 410.337 199.335 411.998 199.335C413.66 199.335 414.615 197.922 414.615 195.593C414.615 193.238 413.66 191.825 411.998 191.825C410.337 191.825 409.368 193.238 409.368 195.593ZM416.909 195.593C416.909 192.662 418.427 190.674 420.808 190.674C423.176 190.674 424.694 192.662 424.694 195.593C424.694 198.537 423.242 200.486 420.808 200.486C418.362 200.486 416.909 198.537 416.909 195.593ZM418.178 195.593C418.178 197.922 419.147 199.335 420.808 199.335C422.47 199.335 423.425 197.922 423.425 195.593C423.425 193.238 422.47 191.825 420.808 191.825C419.147 191.825 418.178 193.238 418.178 195.593Z" fill="#EA4335"/>
<rect x="-127.618" y="221.859" width="503.725" height="8.7225" rx="4.36125" fill="white" fill-opacity="0.2"/>
<path d="M413.794 231.208L407.409 231.221V230.239L410.458 227.61C411.989 226.288 412.421 225.647 412.421 224.64C412.421 223.449 411.74 222.742 410.602 222.742C409.437 222.742 408.679 223.593 408.652 224.941H407.37C407.409 222.913 408.692 221.591 410.615 221.591C412.512 221.591 413.729 222.742 413.729 224.561C413.729 225.909 413.062 226.864 411.387 228.316L409.424 230.017H413.794V231.208ZM419.397 223.998C419.397 225.398 418.402 226.406 417.002 226.406C415.616 226.406 414.621 225.398 414.621 223.998C414.621 222.585 415.616 221.578 417.002 221.578C418.402 221.578 419.397 222.585 419.397 223.998ZM424.382 221.774L417.199 231.221H415.943L423.126 221.774H424.382ZM418.389 223.998C418.389 223.148 417.827 222.559 417.002 222.559C416.191 222.559 415.629 223.148 415.629 223.998C415.629 224.836 416.191 225.425 417.002 225.425C417.814 225.425 418.389 224.836 418.389 223.998ZM425.729 228.983C425.729 230.383 424.722 231.391 423.335 231.391C421.948 231.391 420.941 230.383 420.941 228.983C420.941 227.57 421.948 226.576 423.335 226.576C424.722 226.576 425.729 227.57 425.729 228.983ZM424.709 228.983C424.709 228.133 424.159 227.544 423.335 227.544C422.524 227.544 421.961 228.133 421.961 228.983C421.961 229.821 422.524 230.41 423.335 230.41C424.146 230.41 424.709 229.821 424.709 228.983Z" fill="#EA4335"/>
<path d="M-344.227 286.287C-344.227 280.18 -344.227 277.127 -343.038 274.795C-341.993 272.743 -340.325 271.075 -338.273 270.03C-335.941 268.842 -332.888 268.842 -326.782 268.842H27.9336C34.0399 268.842 37.093 268.842 39.4253 270.03C41.4769 271.075 43.1448 272.743 44.1902 274.795C45.3785 277.127 45.3785 280.18 45.3785 286.287V323.551C45.3785 329.658 45.3785 332.711 44.1902 335.043C43.1448 337.095 41.4769 338.763 39.4253 339.808C37.093 340.996 34.0399 340.996 27.9335 340.996H-326.782C-332.888 340.996 -335.941 340.996 -338.273 339.808C-340.325 338.763 -341.993 337.095 -343.038 335.043C-344.227 332.711 -344.227 329.658 -344.227 323.551V286.287Z" fill="url(#paint5_linear_1356_167217)" fill-opacity="0.2"/>
<path d="M-326.781 269.387H27.9336C30.9957 269.387 33.26 269.387 35.0508 269.533C36.8348 269.679 38.1014 269.967 39.1777 270.516C41.1267 271.509 42.711 273.094 43.7041 275.043C44.2525 276.119 44.5407 277.386 44.6865 279.17C44.8328 280.961 44.833 283.225 44.833 286.287V323.551C44.833 326.613 44.8328 328.877 44.6865 330.668C44.5407 332.452 44.2526 333.719 43.7041 334.796C42.711 336.745 41.1266 338.329 39.1777 339.322C38.1013 339.871 36.8341 340.159 35.0498 340.305C33.2591 340.451 30.9954 340.451 27.9336 340.451H-326.781C-329.843 340.451 -332.108 340.451 -333.898 340.305C-335.683 340.159 -336.949 339.871 -338.025 339.322C-339.974 338.329 -341.56 336.745 -342.553 334.796C-343.101 333.719 -343.389 332.452 -343.535 330.668C-343.681 328.877 -343.682 326.613 -343.682 323.551V286.287C-343.682 283.225 -343.681 280.961 -343.535 279.17C-343.389 277.386 -343.101 276.119 -342.553 275.043C-341.56 273.094 -339.974 271.509 -338.025 270.516C-336.949 269.967 -335.683 269.679 -333.898 269.533C-332.108 269.387 -329.843 269.387 -326.781 269.387Z" stroke="white" stroke-opacity="0.02" stroke-width="1.09031"/>
<path d="M49.7393 286.287C49.7393 280.18 49.7393 277.127 50.9276 274.795C51.9729 272.743 53.6409 271.075 55.6925 270.03C58.0248 268.842 61.0779 268.842 67.1843 268.842H421.899C428.006 268.842 431.059 268.842 433.391 270.03C435.443 271.075 437.111 272.743 438.156 274.795C439.344 277.127 439.344 280.18 439.344 286.287V323.551C439.344 329.658 439.344 332.711 438.156 335.043C437.111 337.095 435.443 338.763 433.391 339.808C431.059 340.996 428.006 340.996 421.899 340.996H67.1842C61.0779 340.996 58.0248 340.996 55.6925 339.808C53.6409 338.763 51.9729 337.095 50.9276 335.043C49.7393 332.711 49.7393 329.658 49.7393 323.551V286.287Z" fill="url(#paint6_linear_1356_167217)" fill-opacity="0.2"/>
<path d="M67.1846 269.387H421.899C424.962 269.387 427.226 269.387 429.017 269.533C430.801 269.679 432.067 269.967 433.144 270.516C435.093 271.509 436.677 273.094 437.67 275.043C438.218 276.119 438.507 277.386 438.652 279.17C438.799 280.961 438.799 283.225 438.799 286.287V323.551C438.799 326.613 438.799 328.877 438.652 330.668C438.507 332.452 438.218 333.719 437.67 334.796C436.677 336.745 435.092 338.329 433.144 339.322C432.067 339.871 430.8 340.159 429.016 340.305C427.225 340.451 424.961 340.451 421.899 340.451H67.1846C64.1224 340.451 61.8582 340.451 60.0674 340.305C58.2833 340.159 57.0168 339.871 55.9404 339.322C53.9915 338.329 52.4061 336.745 51.4131 334.796C50.8646 333.719 50.5765 332.452 50.4307 330.668C50.2844 328.877 50.2842 326.613 50.2842 323.551V286.287C50.2842 283.225 50.2844 280.961 50.4307 279.17C50.5764 277.386 50.8648 276.119 51.4131 275.043C52.4061 273.094 53.9915 271.509 55.9404 270.516C57.0168 269.967 58.2833 269.679 60.0674 269.533C61.8582 269.387 64.1224 269.387 67.1846 269.387Z" stroke="white" stroke-opacity="0.02" stroke-width="1.09031"/>
<path d="M63.0238 295.744H61.7416V286.285H65.3135C67.3415 286.285 68.5452 287.357 68.5452 289.124C68.5452 290.432 67.891 291.374 66.7134 291.754L68.6368 295.744H67.2106L65.4443 292.002H63.0238V295.744ZM63.0238 287.436V290.864H65.3266C66.5172 290.864 67.1975 290.223 67.1975 289.137C67.1975 288.038 66.491 287.436 65.3135 287.436H63.0238ZM70.6163 287.828C70.1714 287.828 69.8051 287.462 69.8051 287.017C69.8051 286.559 70.1714 286.206 70.6163 286.206C71.0611 286.206 71.4275 286.559 71.4275 287.017C71.4275 287.462 71.0611 287.828 70.6163 287.828ZM70.0144 295.744V289.346H71.2443V295.744H70.0144ZM72.428 293.886H73.6055C73.6055 294.54 74.1027 294.933 74.9139 294.933C75.7774 294.933 76.2746 294.58 76.2746 293.991C76.2746 293.559 76.0653 293.297 75.398 293.127L74.2728 292.866C73.1345 292.591 72.5981 292.028 72.5981 291.086C72.5981 289.909 73.5924 289.163 75.0055 289.163C76.4054 289.163 77.3213 289.948 77.3475 291.165H76.1699C76.1438 290.524 75.712 290.118 74.9662 290.118C74.1943 290.118 73.7625 290.458 73.7625 291.047C73.7625 291.479 74.0765 291.767 74.7045 291.924L75.8298 292.198C76.9157 292.46 77.4521 292.957 77.4521 293.912C77.4521 295.129 76.4054 295.901 74.8877 295.901C73.3831 295.901 72.428 295.103 72.428 293.886ZM79.9936 295.744H78.7637V286.114H79.9936V292.355L82.8327 289.346H84.3766L81.93 291.898L84.3635 295.744H82.9505L81.0795 292.787L79.9936 293.925V295.744ZM85.6302 295.744H84.4134L88.103 286.298H89.3329L85.6302 295.744ZM91.6353 295.744H90.3531V286.285H93.925C95.953 286.285 97.1567 287.357 97.1567 289.124C97.1567 290.432 96.5025 291.374 95.325 291.754L97.2483 295.744H95.8221L94.0558 292.002H91.6353V295.744ZM91.6353 287.436V290.864H93.9381C95.1287 290.864 95.8091 290.223 95.8091 289.137C95.8091 288.038 95.1025 287.436 93.925 287.436H91.6353ZM100.927 295.901C99.0426 295.901 97.7473 294.54 97.7473 292.552C97.7473 290.55 99.0164 289.163 100.874 289.163C102.693 289.163 103.884 290.419 103.884 292.316V292.774L98.9379 292.787C99.0295 294.135 99.736 294.881 100.953 294.881C101.908 294.881 102.536 294.488 102.745 293.755H103.897C103.583 295.129 102.51 295.901 100.927 295.901ZM100.874 290.197C99.8014 290.197 99.1211 290.838 98.9641 291.963H102.654C102.654 290.903 101.96 290.197 100.874 290.197ZM106.335 295.744L104.242 289.346H105.511L106.571 292.669C106.715 293.14 106.846 293.625 106.963 294.187C107.068 293.625 107.238 293.088 107.382 292.669L108.455 289.346H109.711L110.771 292.669C110.875 292.983 111.085 293.729 111.189 294.187C111.294 293.677 111.412 293.232 111.595 292.669L112.668 289.346H113.95L111.765 295.744H110.601L109.489 292.316C109.279 291.675 109.148 291.178 109.083 290.825C109.018 291.139 108.9 291.557 108.664 292.329L107.552 295.744H106.335ZM116.503 295.901C115.129 295.901 114.318 295.129 114.318 293.965C114.318 292.787 115.195 292.055 116.699 291.937L118.714 291.78V291.597C118.714 290.524 118.073 290.144 117.209 290.144C116.176 290.144 115.587 290.602 115.587 291.374H114.514C114.514 290.04 115.613 289.163 117.262 289.163C118.845 289.163 119.918 290 119.918 291.727V295.744H118.871L118.74 294.711C118.413 295.443 117.537 295.901 116.503 295.901ZM116.856 294.946C118.021 294.946 118.727 294.187 118.727 292.983V292.643L117.092 292.774C116.006 292.879 115.561 293.297 115.561 293.925C115.561 294.606 116.058 294.946 116.856 294.946ZM125.206 289.294V290.419H124.656C123.492 290.419 122.772 291.126 122.772 292.355V295.744H121.543V289.359H122.694L122.772 290.327C123.034 289.66 123.675 289.215 124.552 289.215C124.774 289.215 124.957 289.242 125.206 289.294ZM128.615 295.901C126.758 295.901 125.632 294.514 125.632 292.565C125.632 290.602 126.771 289.163 128.668 289.163C129.649 289.163 130.473 289.595 130.905 290.38V286.114H132.122V295.744H131.023L130.918 294.58C130.5 295.456 129.636 295.901 128.615 295.901ZM128.864 294.789C130.12 294.789 130.892 293.86 130.892 292.526C130.892 291.217 130.12 290.275 128.864 290.275C127.608 290.275 126.875 291.217 126.875 292.526C126.875 293.847 127.608 294.789 128.864 294.789Z" fill="white"/>
<path d="M63.9048 315.208H61.2532V313.672H65.5446V326.285H63.9048V315.208ZM69.4742 319.953C68.7939 319.953 68.2182 319.394 68.2182 318.749C68.2182 318.069 68.7939 317.51 69.4742 317.51C70.1372 317.51 70.7128 318.069 70.7128 318.749C70.7128 319.394 70.1372 319.953 69.4742 319.953ZM69.4742 326.494C68.7939 326.494 68.2182 325.936 68.2182 325.273C68.2182 324.593 68.7939 324.035 69.4742 324.035C70.1372 324.035 70.7128 324.593 70.7128 325.273C70.7128 325.936 70.1372 326.494 69.4742 326.494ZM81.2653 326.268L72.7521 326.285V324.977L76.8168 321.47C78.8579 319.708 79.4336 318.854 79.4336 317.51C79.4336 315.923 78.5264 314.981 77.0087 314.981C75.4561 314.981 74.4443 316.115 74.4094 317.912H72.6998C72.7521 315.208 74.4618 313.446 77.0262 313.446C79.5557 313.446 81.1781 314.981 81.1781 317.406C81.1781 319.202 80.2884 320.476 78.0554 322.412L75.4387 324.68H81.2653V326.268ZM84.44 326.494C83.7597 326.494 83.184 325.936 83.184 325.273C83.184 324.593 83.7597 324.035 84.44 324.035C85.1029 324.035 85.6786 324.593 85.6786 325.273C85.6786 325.936 85.1029 326.494 84.44 326.494ZM91.4683 326.494C88.8865 326.494 87.2117 324.855 87.2117 322.343H88.9039C88.9039 323.965 89.8983 324.959 91.5032 324.959C93.2128 324.959 94.3119 323.825 94.3119 322.116C94.3119 320.493 93.2826 319.29 91.5206 319.29C90.4565 319.29 89.4796 319.796 88.9039 320.511L87.456 320.145L88.9911 313.672H95.3062V315.242H90.2297L89.3924 318.592C90.0553 318.086 90.8926 317.824 91.8347 317.824C94.3991 317.824 96.0564 319.621 96.0564 322.046C96.0564 324.663 94.1897 326.494 91.4683 326.494ZM97.4314 319.988C97.4314 316.08 99.455 313.428 102.63 313.428C105.788 313.428 107.811 316.08 107.811 319.988C107.811 323.913 105.875 326.512 102.63 326.512C99.3678 326.512 97.4314 323.913 97.4314 319.988ZM99.1235 319.988C99.1235 323.093 100.414 324.977 102.63 324.977C104.846 324.977 106.119 323.093 106.119 319.988C106.119 316.847 104.846 314.963 102.63 314.963C100.414 314.963 99.1235 316.847 99.1235 319.988Z" fill="url(#paint7_linear_1356_167217)"/>
<path d="M58.6756 365.689V364.315H66.8115V365.689H63.4992V375.352H62.0033V365.689H58.6756ZM71.1306 367.826V369.139H70.4895C69.131 369.139 68.2915 369.963 68.2915 371.398V375.352H66.8566V367.903H68.1999L68.2915 369.032C68.5967 368.254 69.3447 367.735 70.3674 367.735C70.6269 367.735 70.8406 367.765 71.1306 367.826ZM74.0558 375.535C72.453 375.535 71.5066 374.634 71.5066 373.276C71.5066 371.902 72.5294 371.047 74.2848 370.91L76.6355 370.726V370.513C76.6355 369.261 75.8875 368.818 74.8801 368.818C73.6742 368.818 72.9873 369.353 72.9873 370.253H71.7356C71.7356 368.696 73.0178 367.674 74.9411 367.674C76.7881 367.674 78.0398 368.65 78.0398 370.665V375.352H76.8186L76.666 374.146C76.2844 375 75.2617 375.535 74.0558 375.535ZM74.4679 374.42C75.8265 374.42 76.6507 373.535 76.6507 372.131V371.734L74.7427 371.887C73.4757 372.009 72.9568 372.497 72.9568 373.23C72.9568 374.024 73.5368 374.42 74.4679 374.42ZM82.7134 375.535C80.5459 375.535 79.2332 373.917 79.2332 371.642C79.2332 369.353 80.5612 367.674 82.7745 367.674C83.9193 367.674 84.881 368.177 85.3847 369.093V364.117H86.8043V375.352H85.5221L85.4 373.993C84.9115 375.016 83.9041 375.535 82.7134 375.535ZM83.0035 374.237C84.4688 374.237 85.3694 373.153 85.3694 371.597C85.3694 370.07 84.4688 368.971 83.0035 368.971C81.5381 368.971 80.6833 370.07 80.6833 371.597C80.6833 373.138 81.5381 374.237 83.0035 374.237ZM89.2712 366.117C88.7522 366.117 88.3248 365.689 88.3248 365.17C88.3248 364.636 88.7522 364.224 89.2712 364.224C89.7901 364.224 90.2176 364.636 90.2176 365.17C90.2176 365.689 89.7901 366.117 89.2712 366.117ZM88.569 375.352V367.887H90.0038V375.352H88.569ZM93.2165 375.352H91.7817V367.887H93.0791L93.2318 369.032C93.705 368.177 94.6514 367.674 95.7046 367.674C97.6737 367.674 98.5743 368.879 98.5743 370.788V375.352H97.1395V371.108C97.1395 369.597 96.4373 368.986 95.3383 368.986C93.995 368.986 93.2165 369.948 93.2165 371.398V375.352ZM99.7832 371.429C99.7832 369.322 101.142 367.674 103.309 367.674C104.515 367.674 105.446 368.223 105.919 369.154L106.026 367.887H107.309V375.046C107.309 377.397 105.858 378.893 103.569 378.893C101.539 378.893 100.15 377.748 99.8748 375.855H101.31C101.493 376.954 102.317 377.595 103.569 377.595C104.973 377.595 105.889 376.68 105.889 375.26V373.764C105.4 374.634 104.424 375.153 103.248 375.153C101.126 375.153 99.7832 373.52 99.7832 371.429ZM101.218 371.398C101.218 372.802 102.088 373.901 103.492 373.901C104.943 373.901 105.828 372.863 105.828 371.398C105.828 369.963 104.973 368.925 103.508 368.925C102.073 368.925 101.218 370.024 101.218 371.398ZM116.255 375.352L112.057 364.315H113.66L116.346 371.368C116.591 371.993 116.804 372.619 117.033 373.444C117.293 372.573 117.552 371.841 117.736 371.352L120.407 364.315H121.964L117.812 375.352H116.255ZM124.862 375.535C122.664 375.535 121.152 373.947 121.152 371.627C121.152 369.292 122.633 367.674 124.801 367.674C126.922 367.674 128.311 369.139 128.311 371.352V371.887L122.541 371.902C122.648 373.474 123.473 374.344 124.892 374.344C126.006 374.344 126.739 373.886 126.983 373.031H128.327C127.96 374.634 126.709 375.535 124.862 375.535ZM124.801 368.879C123.549 368.879 122.755 369.627 122.572 370.94H126.877C126.877 369.704 126.068 368.879 124.801 368.879ZM133.883 367.826V369.139H133.242C131.883 369.139 131.044 369.963 131.044 371.398V375.352H129.609V367.903H130.952L131.044 369.032C131.349 368.254 132.097 367.735 133.12 367.735C133.379 367.735 133.593 367.765 133.883 367.826ZM134.313 373.184H135.686C135.686 373.947 136.266 374.405 137.213 374.405C138.22 374.405 138.8 373.993 138.8 373.306C138.8 372.802 138.556 372.497 137.778 372.299L136.465 371.993C135.137 371.673 134.511 371.016 134.511 369.917C134.511 368.544 135.671 367.674 137.32 367.674C138.953 367.674 140.022 368.589 140.052 370.009H138.678C138.648 369.261 138.144 368.788 137.274 368.788C136.373 368.788 135.87 369.185 135.87 369.872C135.87 370.375 136.236 370.711 136.969 370.894L138.281 371.215C139.548 371.52 140.174 372.1 140.174 373.215C140.174 374.634 138.953 375.535 137.182 375.535C135.427 375.535 134.313 374.604 134.313 373.184ZM142.162 366.117C141.643 366.117 141.216 365.689 141.216 365.17C141.216 364.636 141.643 364.224 142.162 364.224C142.681 364.224 143.109 364.636 143.109 365.17C143.109 365.689 142.681 366.117 142.162 366.117ZM141.46 375.352V367.887H142.895V375.352H141.46ZM144.184 371.612C144.184 369.307 145.833 367.689 148.077 367.689C150.305 367.689 151.954 369.307 151.954 371.612C151.954 373.917 150.305 375.535 148.077 375.535C145.833 375.535 144.184 373.917 144.184 371.612ZM145.634 371.612C145.634 373.169 146.627 374.253 148.077 374.253C149.512 374.253 150.519 373.169 150.519 371.612C150.519 370.055 149.512 368.971 148.077 368.971C146.627 368.971 145.634 370.055 145.634 371.612ZM154.672 375.352H153.237V367.887H154.534L154.687 369.032C155.16 368.177 156.107 367.674 157.16 367.674C159.129 367.674 160.03 368.879 160.03 370.788V375.352H158.595V371.108C158.595 369.597 157.893 368.986 156.794 368.986C155.45 368.986 154.672 369.948 154.672 371.398V375.352Z" fill="white"/>
</g>
<path d="M16 0.851562H484C492.56 0.851562 499.5 7.79115 499.5 16.3516V348.352C499.5 356.912 492.56 363.852 484 363.852H16C7.43959 363.852 0.5 356.912 0.5 348.352V16.3516C0.5 7.79115 7.43959 0.851562 16 0.851562Z" stroke="white" stroke-opacity="0.3"/>
<defs>
<linearGradient id="paint0_linear_1356_167217" x1="60.1315" y1="309.398" x2="129.231" y2="2.42548" gradientUnits="userSpaceOnUse">
<stop stop-color="#3EDC81"/>
<stop offset="1" stop-color="#0276DB"/>
</linearGradient>
<linearGradient id="paint1_linear_1356_167217" x1="413.229" y1="-45.4034" x2="-2.82308" y2="328.035" gradientUnits="userSpaceOnUse">
<stop stop-color="#0F0F0F" stop-opacity="0.2"/>
<stop offset="0.555856" stop-color="#0F0F0F" stop-opacity="0.661921"/>
<stop offset="0.768606" stop-color="#0F0F0F" stop-opacity="0.748406"/>
<stop offset="1" stop-color="#0F0F0F" stop-opacity="0.9"/>
</linearGradient>
<linearGradient id="paint2_linear_1356_167217" x1="-613.141" y1="612.967" x2="-507.492" y2="14.1859" gradientUnits="userSpaceOnUse">
<stop stop-color="#3EDC81"/>
<stop offset="1" stop-color="#0276DB"/>
</linearGradient>
<linearGradient id="paint3_linear_1356_167217" x1="249.23" y1="-66.2384" x2="-544.585" y2="842.78" gradientUnits="userSpaceOnUse">
<stop stop-color="#0F0F0F" stop-opacity="0.2"/>
<stop offset="0.555856" stop-color="#0F0F0F" stop-opacity="0.661921"/>
<stop offset="0.768606" stop-color="#0F0F0F" stop-opacity="0.748406"/>
<stop offset="1" stop-color="#0F0F0F" stop-opacity="0.9"/>
</linearGradient>
<linearGradient id="paint4_linear_1356_167217" x1="-149.424" y1="107.883" x2="-149.424" y2="151.689" gradientUnits="userSpaceOnUse">
<stop stop-color="white" stop-opacity="0.2"/>
<stop offset="1" stop-color="white" stop-opacity="0.1"/>
</linearGradient>
<linearGradient id="paint5_linear_1356_167217" x1="-149.424" y1="268.842" x2="-149.424" y2="340.996" gradientUnits="userSpaceOnUse">
<stop stop-color="white" stop-opacity="0.2"/>
<stop offset="1" stop-color="white" stop-opacity="0.1"/>
</linearGradient>
<linearGradient id="paint6_linear_1356_167217" x1="244.542" y1="268.842" x2="244.542" y2="340.996" gradientUnits="userSpaceOnUse">
<stop stop-color="white" stop-opacity="0.2"/>
<stop offset="1" stop-color="white" stop-opacity="0.1"/>
</linearGradient>
<linearGradient id="paint7_linear_1356_167217" x1="100.984" y1="308.285" x2="100.984" y2="330.091" gradientUnits="userSpaceOnUse">
<stop stop-color="#15B0F8"/>
<stop offset="1" stop-color="#0276DB"/>
</linearGradient>
<clipPath id="clip0_1356_167217">
<path d="M0 16.3516C0 7.51501 7.16344 0.351562 16 0.351562H484C492.837 0.351562 500 7.51501 500 16.3516V348.352C500 357.188 492.837 364.352 484 364.352H16C7.16345 364.352 0 357.188 0 348.352V16.3516Z" fill="white"/>
</clipPath>
</defs>
</svg>
