<svg width="500" height="364" viewBox="0 0 500 364" fill="none" xmlns="http://www.w3.org/2000/svg">
<g clip-path="url(#clip0_1870_49843)">
<path d="M0 16C0 7.16344 7.16344 0 16 0H484C492.837 0 500 7.16344 500 16V348C500 356.837 492.837 364 484 364H16C7.16345 364 0 356.837 0 348V16Z" fill="url(#paint0_linear_1870_49843)" fill-opacity="0.2"/>
<path d="M0 16C0 7.16344 7.16344 0 16 0H484C492.837 0 500 7.16344 500 16V348C500 356.837 492.837 364 484 364H16C7.16345 364 0 356.837 0 348V16Z" fill="url(#paint1_linear_1870_49843)"/>
<path d="M-760 48.912C-760 39.1419 -760 34.2568 -758.099 30.5251C-756.426 27.2427 -753.757 24.5739 -750.475 22.9014C-746.743 21 -741.858 21 -732.088 21H433.238C443.008 21 447.894 21 451.625 22.9014C454.908 24.5739 457.577 27.2427 459.249 30.5251C461.15 34.2568 461.15 39.1419 461.15 48.912V689.903C461.15 699.673 461.15 704.558 459.249 708.29C457.577 711.573 454.908 714.241 451.625 715.914C447.894 717.815 443.009 717.815 433.238 717.815H-732.088C-741.858 717.815 -746.743 717.815 -750.475 715.914C-753.757 714.241 -756.426 711.573 -758.099 708.29C-760 704.558 -760 699.673 -760 689.903V48.912Z" fill="url(#paint2_linear_1870_49843)"/>
<path d="M-760 48.912C-760 39.1419 -760 34.2568 -758.099 30.5251C-756.426 27.2427 -753.757 24.5739 -750.475 22.9014C-746.743 21 -741.858 21 -732.088 21H433.238C443.008 21 447.894 21 451.625 22.9014C454.908 24.5739 457.577 27.2427 459.249 30.5251C461.15 34.2568 461.15 39.1419 461.15 48.912V689.903C461.15 699.673 461.15 704.558 459.249 708.29C457.577 711.573 454.908 714.241 451.625 715.914C447.894 717.815 443.009 717.815 433.238 717.815H-732.088C-741.858 717.815 -746.743 717.815 -750.475 715.914C-753.757 714.241 -756.426 711.573 -758.099 708.29C-760 704.558 -760 699.673 -760 689.903V48.912Z" fill="url(#paint3_linear_1870_49843)"/>
<path d="M-732.088 21.5449H433.238C438.132 21.5449 441.77 21.5458 444.651 21.7812C447.527 22.0162 449.602 22.4817 451.378 23.3867C454.558 25.007 457.143 27.5926 458.764 30.7725C459.669 32.5486 460.134 34.6238 460.369 37.499C460.605 40.3806 460.605 44.0183 460.605 48.9121V689.903C460.605 694.797 460.605 698.435 460.369 701.316C460.134 704.192 459.669 706.267 458.764 708.043C457.143 711.223 454.558 713.807 451.378 715.428C449.602 716.333 447.527 716.799 444.651 717.034C441.77 717.27 438.132 717.271 433.238 717.271H-732.088C-736.982 717.271 -740.619 717.27 -743.501 717.034C-746.376 716.799 -748.451 716.333 -750.228 715.428C-753.407 713.807 -755.993 711.223 -757.613 708.043C-758.518 706.267 -758.984 704.192 -759.219 701.316C-759.454 698.435 -759.455 694.797 -759.455 689.903V48.9121C-759.455 44.0183 -759.454 40.3806 -759.219 37.499C-758.984 34.6238 -758.518 32.5486 -757.613 30.7725C-755.993 27.5925 -753.407 25.007 -750.228 23.3867C-748.451 22.4817 -746.376 22.0162 -743.501 21.7812C-740.619 21.5458 -736.982 21.5449 -732.088 21.5449Z" stroke="white" stroke-opacity="0.05" stroke-width="1.09031"/>
<path d="M165.383 60.1699C165.383 50.5804 173.157 42.8066 182.746 42.8066H297.258C306.847 42.8066 314.621 50.5804 314.621 60.1699V69.2497C314.621 78.8391 306.847 86.6129 297.258 86.6129H182.746C173.157 86.6129 165.383 78.8391 165.383 69.2497V60.1699Z" fill="white"/>
<path d="M182.746 43.3516H297.258C306.546 43.3516 314.076 50.8816 314.076 60.1699V69.25C314.076 78.5382 306.546 86.0673 297.258 86.0674H182.746C173.458 86.0674 165.928 78.5382 165.928 69.25V60.1699C165.928 50.8816 173.458 43.3516 182.746 43.3516Z" stroke="white" stroke-opacity="0.3" stroke-width="1.09031"/>
<path d="M199.778 70.709H198.282V59.6728H202.449C204.815 59.6728 206.22 60.9245 206.22 62.9852C206.22 64.5116 205.456 65.6107 204.083 66.0533L206.327 70.709H204.663L202.602 66.3434H199.778V70.709ZM199.778 61.0161V65.0154H202.465C203.854 65.0154 204.647 64.2674 204.647 63.0005C204.647 61.7183 203.823 61.0161 202.449 61.0161H199.778ZM212.87 63.2447H214.289V70.709H213.007L212.854 69.5794C212.427 70.3579 211.435 70.8922 210.336 70.8922C208.596 70.8922 207.619 69.7168 207.619 67.8851V63.2447H209.053V67.4119C209.053 69.0146 209.74 69.6252 210.839 69.6252C212.152 69.6252 212.87 68.7857 212.87 67.1829V63.2447ZM217.714 70.709H216.279V63.2447H217.577L217.73 64.3895C218.203 63.5347 219.149 63.031 220.202 63.031C222.171 63.031 223.072 64.2369 223.072 66.1449V70.709H221.637V66.4655C221.637 64.9543 220.935 64.3437 219.836 64.3437C218.493 64.3437 217.714 65.3054 217.714 66.7555V70.709ZM229.752 70.709H228.195L232.225 59.6728H233.889L237.934 70.709H236.362L235.37 67.9614H230.729L229.752 70.709ZM232.866 62.0541L231.187 66.6639H234.927L233.233 62.0541C233.156 61.8404 233.08 61.5809 233.049 61.413C233.019 61.5656 232.942 61.8251 232.866 62.0541ZM240.5 70.709H239.065V63.2447H240.363L240.515 64.3895C240.988 63.5347 241.935 63.031 242.988 63.031C244.957 63.031 245.858 64.2369 245.858 66.1449V70.709H244.423V66.4655C244.423 64.9543 243.721 64.3437 242.622 64.3437C241.279 64.3437 240.5 65.3054 240.5 66.7555V70.709ZM249.936 70.8922C248.334 70.8922 247.387 69.9916 247.387 68.633C247.387 67.2592 248.41 66.4044 250.165 66.267L252.516 66.0839V65.8702C252.516 64.6185 251.768 64.1758 250.761 64.1758C249.555 64.1758 248.868 64.7101 248.868 65.6107H247.616C247.616 64.0537 248.898 63.031 250.822 63.031C252.669 63.031 253.92 64.0079 253.92 66.0228V70.709H252.699L252.547 69.5031C252.165 70.3579 251.142 70.8922 249.936 70.8922ZM250.349 69.7779C251.707 69.7779 252.531 68.8925 252.531 67.4882V67.0913L250.623 67.244C249.356 67.3661 248.837 67.8545 248.837 68.5872C248.837 69.381 249.417 69.7779 250.349 69.7779ZM257.281 70.709H255.846V59.4744H257.281V70.709ZM258.585 74.0519V72.8765H259.546C260.233 72.8765 260.783 72.7697 261.134 71.8233L261.393 71.1059L258.386 63.2447H259.897L262.065 69.2589L264.278 63.2447H265.759L262.233 72.3881C261.729 73.6703 260.981 74.2045 259.836 74.2045C259.363 74.2045 258.966 74.1435 258.585 74.0519ZM266.098 68.5414H267.472C267.472 69.3047 268.052 69.7626 268.998 69.7626C270.005 69.7626 270.586 69.3505 270.586 68.6636C270.586 68.1598 270.341 67.8545 269.563 67.6561L268.25 67.3508C266.922 67.0303 266.296 66.3739 266.296 65.2749C266.296 63.9011 267.456 63.031 269.105 63.031C270.738 63.031 271.807 63.9469 271.837 65.3665H270.463C270.433 64.6185 269.929 64.1453 269.059 64.1453C268.158 64.1453 267.655 64.5422 267.655 65.2291C267.655 65.7328 268.021 66.0686 268.754 66.2518L270.067 66.5723C271.333 66.8776 271.959 67.4577 271.959 68.572C271.959 69.9916 270.738 70.8922 268.968 70.8922C267.212 70.8922 266.098 69.961 266.098 68.5414ZM274.161 61.474C273.642 61.474 273.215 61.0466 273.215 60.5276C273.215 59.9934 273.642 59.5812 274.161 59.5812C274.68 59.5812 275.107 59.9934 275.107 60.5276C275.107 61.0466 274.68 61.474 274.161 61.474ZM273.459 70.709V63.2447H274.894V70.709H273.459ZM276.275 68.5414H277.649C277.649 69.3047 278.229 69.7626 279.175 69.7626C280.182 69.7626 280.762 69.3505 280.762 68.6636C280.762 68.1598 280.518 67.8545 279.74 67.6561L278.427 67.3508C277.099 67.0303 276.473 66.3739 276.473 65.2749C276.473 63.9011 277.633 63.031 279.282 63.031C280.915 63.031 281.984 63.9469 282.014 65.3665H280.64C280.61 64.6185 280.106 64.1453 279.236 64.1453C278.335 64.1453 277.832 64.5422 277.832 65.2291C277.832 65.7328 278.198 66.0686 278.931 66.2518L280.243 66.5723C281.51 66.8776 282.136 67.4577 282.136 68.572C282.136 69.9916 280.915 70.8922 279.144 70.8922C277.389 70.8922 276.275 69.961 276.275 68.5414Z" fill="#111111"/>
<path d="M327.159 60.5161H324.839V59.1728H328.594V70.209H327.159V60.5161ZM331.277 70.209H329.858L334.162 59.1881H335.597L331.277 70.209ZM343.219 70.1937L335.77 70.209V69.0642L339.327 65.996C341.112 64.4543 341.616 63.7064 341.616 62.531C341.616 61.1419 340.822 60.3177 339.494 60.3177C338.136 60.3177 337.251 61.3098 337.22 62.8821H335.724C335.77 60.5161 337.266 58.9744 339.51 58.9744C341.723 58.9744 343.143 60.3177 343.143 62.4394C343.143 64.0116 342.364 65.1259 340.41 66.8203L338.121 68.8047H343.219V70.1937ZM344.29 64.6985C344.29 61.2793 346.061 58.9591 348.839 58.9591C351.602 58.9591 353.373 61.2793 353.373 64.6985C353.373 68.133 351.678 70.4074 348.839 70.4074C345.985 70.4074 344.29 68.133 344.29 64.6985ZM345.771 64.6985C345.771 67.4156 346.901 69.0642 348.839 69.0642C350.778 69.0642 351.892 67.4156 351.892 64.6985C351.892 61.951 350.778 60.3024 348.839 60.3024C346.901 60.3024 345.771 61.951 345.771 64.6985ZM359.43 70.209H357.873L361.902 59.1728H363.566L367.611 70.209H366.039L365.047 67.4614H360.407L359.43 70.209ZM362.544 61.5541L360.864 66.1639H364.604L362.91 61.5541C362.834 61.3404 362.757 61.0809 362.727 60.913C362.696 61.0656 362.62 61.3251 362.544 61.5541ZM369.964 70.209H368.529V62.7447H369.826L369.979 63.8895C370.452 63.0347 371.399 62.531 372.452 62.531C374.421 62.531 375.321 63.7369 375.321 65.6449V70.209H373.887V65.9655C373.887 64.4543 373.184 63.8437 372.085 63.8437C370.742 63.8437 369.964 64.8054 369.964 66.2555V70.209ZM379.186 70.3922C377.584 70.3922 376.637 69.4916 376.637 68.133C376.637 66.7592 377.66 65.9044 379.415 65.767L381.766 65.5839V65.3702C381.766 64.1185 381.018 63.6758 380.011 63.6758C378.805 63.6758 378.118 64.2101 378.118 65.1107H376.866C376.866 63.5537 378.148 62.531 380.072 62.531C381.919 62.531 383.17 63.5079 383.17 65.5228V70.209H381.949L381.797 69.0031C381.415 69.8579 380.392 70.3922 379.186 70.3922ZM379.598 69.2779C380.957 69.2779 381.781 68.3925 381.781 66.9882V66.5913L379.873 66.744C378.606 66.8661 378.087 67.3545 378.087 68.0872C378.087 68.881 378.667 69.2779 379.598 69.2779ZM386.318 70.209H384.883V58.9744H386.318V70.209ZM387.407 73.5519V72.3765H388.369C389.056 72.3765 389.605 72.2697 389.956 71.3233L390.216 70.6059L387.209 62.7447H388.72L390.887 68.7589L393.101 62.7447H394.581L391.055 71.8881C390.552 73.1703 389.804 73.7045 388.659 73.7045C388.186 73.7045 387.789 73.6435 387.407 73.5519ZM394.707 68.0414H396.08C396.08 68.8047 396.66 69.2626 397.607 69.2626C398.614 69.2626 399.194 68.8505 399.194 68.1636C399.194 67.6598 398.95 67.3545 398.172 67.1561L396.859 66.8508C395.531 66.5303 394.905 65.8739 394.905 64.7749C394.905 63.4011 396.065 62.531 397.714 62.531C399.347 62.531 400.416 63.4469 400.446 64.8665H399.072C399.042 64.1185 398.538 63.6453 397.668 63.6453C396.767 63.6453 396.264 64.0422 396.264 64.7291C396.264 65.2328 396.63 65.5686 397.363 65.7518L398.675 66.0723C399.942 66.3776 400.568 66.9577 400.568 68.072C400.568 69.4916 399.347 70.3922 397.576 70.3922C395.821 70.3922 394.707 69.461 394.707 68.0414ZM402.556 60.974C402.037 60.974 401.61 60.5466 401.61 60.0276C401.61 59.4934 402.037 59.0812 402.556 59.0812C403.075 59.0812 403.503 59.4934 403.503 60.0276C403.503 60.5466 403.075 60.974 402.556 60.974ZM401.854 70.209V62.7447H403.289V70.209H401.854ZM404.456 68.0414H405.83C405.83 68.8047 406.41 69.2626 407.356 69.2626C408.364 69.2626 408.944 68.8505 408.944 68.1636C408.944 67.6598 408.7 67.3545 407.921 67.1561L406.608 66.8508C405.28 66.5303 404.655 65.8739 404.655 64.7749C404.655 63.4011 405.815 62.531 407.463 62.531C409.097 62.531 410.165 63.4469 410.196 64.8665H408.822C408.791 64.1185 408.288 63.6453 407.417 63.6453C406.517 63.6453 406.013 64.0422 406.013 64.7291C406.013 65.2328 406.379 65.5686 407.112 65.7518L408.425 66.0723C409.692 66.3776 410.318 66.9577 410.318 68.072C410.318 69.4916 409.097 70.3922 407.326 70.3922C405.57 70.3922 404.456 69.461 404.456 68.0414ZM417.212 59.1728V68.8199H422.066V70.209H415.716V59.1728H417.212ZM426.214 70.3922C424.016 70.3922 422.504 68.8047 422.504 66.4845C422.504 64.149 423.985 62.531 426.153 62.531C428.274 62.531 429.663 63.9964 429.663 66.2097V66.744L423.893 66.7592C424 68.3315 424.825 69.2015 426.244 69.2015C427.358 69.2015 428.091 68.7436 428.335 67.8888H429.679C429.312 69.4916 428.061 70.3922 426.214 70.3922ZM426.153 63.7369C424.901 63.7369 424.107 64.4848 423.924 65.7976H428.229C428.229 64.5612 427.42 63.7369 426.153 63.7369ZM430.167 62.7447H431.266V61.5541C431.266 59.7224 432.258 58.9744 433.556 58.9744C433.83 58.9744 434.166 58.9897 434.441 59.0355V60.2719H433.8C432.93 60.2719 432.701 60.7451 432.701 61.5541V62.7447H436.196V60.4093H437.631V62.7447H439.097V63.9506H437.631V70.209H436.196V63.9506H432.701V70.209H431.266V63.9506H430.167V62.7447Z" fill="white" fill-opacity="0.8"/>
<path d="M-738.195 124.976C-738.195 118.87 -738.195 115.817 -737.007 113.484C-735.962 111.433 -734.294 109.765 -732.242 108.72C-729.91 107.531 -726.857 107.531 -720.75 107.531H421.898C428.004 107.531 431.057 107.531 433.389 108.72C435.441 109.765 437.109 111.433 438.154 113.484C439.343 115.817 439.343 118.87 439.343 124.976V133.893C439.343 139.999 439.343 143.052 438.154 145.384C437.109 147.436 435.441 149.104 433.389 150.149C431.057 151.338 428.004 151.338 421.898 151.338H-720.75C-726.857 151.338 -729.91 151.338 -732.242 150.149C-734.294 149.104 -735.962 147.436 -737.007 145.384C-738.195 143.052 -738.195 139.999 -738.195 133.893V124.976Z" fill="url(#paint4_linear_1870_49843)" fill-opacity="0.2"/>
<path d="M-145.066 122.36C-145.066 118.696 -145.066 116.864 -144.353 115.465C-143.726 114.234 -142.725 113.233 -141.494 112.606C-140.095 111.893 -138.263 111.893 -134.599 111.893H423.423C427.087 111.893 428.918 111.893 430.318 112.606C431.549 113.233 432.55 114.234 433.177 115.465C433.89 116.864 433.89 118.696 433.89 122.36V136.509C433.89 140.173 433.89 142.005 433.177 143.404C432.55 144.635 431.549 145.636 430.318 146.263C428.918 146.976 427.087 146.976 423.423 146.976H-134.599C-138.263 146.976 -140.095 146.976 -141.494 146.263C-142.725 145.636 -143.726 144.635 -144.353 143.404C-145.066 142.005 -145.066 140.173 -145.066 136.509V122.36Z" fill="white"/>
<path d="M105.141 129.434V134.885" stroke="#111111" stroke-width="1.36289" stroke-linecap="round"/>
<path d="M105.142 134.887C103.622 134.887 102.298 135.806 101.615 137.163C101.288 137.811 101.757 138.521 102.379 138.521H107.905C108.528 138.521 108.996 137.811 108.67 137.163C107.986 135.806 106.663 134.887 105.142 134.887Z" stroke="#111111" stroke-width="1.36289" stroke-linecap="round"/>
<path d="M98.7805 123.074H97.858C96.9616 123.074 96.5135 123.074 96.2366 123.411C95.9597 123.748 96.0409 124.125 96.2033 124.879C96.5135 126.319 97.1863 127.584 98.098 128.526" stroke="#111111" stroke-width="1.36289" stroke-linecap="round"/>
<path d="M111.5 123.074H112.422C113.319 123.074 113.767 123.074 114.044 123.411C114.321 123.748 114.24 124.125 114.077 124.879C113.767 126.319 113.094 127.584 112.182 128.526" stroke="#111111" stroke-width="1.36289" stroke-linecap="round"/>
<path d="M105.141 129.434C108.654 129.434 111.502 126.602 111.502 123.108C111.502 123.017 111.5 122.925 111.496 122.835C111.457 121.927 111.437 121.473 110.822 120.91C110.207 120.348 109.525 120.348 108.162 120.348H102.121C100.758 120.348 100.076 120.348 99.4606 120.91C98.8453 121.473 98.8259 121.927 98.7871 122.835C98.7832 122.925 98.7812 123.017 98.7812 123.108C98.7812 126.602 101.629 129.434 105.141 129.434Z" stroke="#111111" stroke-width="1.36289" stroke-linecap="round"/>
<path d="M124.05 135.434V124.397H128.263C130.415 124.397 131.728 125.496 131.728 127.313C131.728 128.58 131.178 129.435 130.079 129.893C131.3 130.289 131.926 131.175 131.926 132.488C131.926 134.319 130.598 135.434 128.415 135.434H124.05ZM128.171 125.725H125.546V129.267H128.263C129.499 129.267 130.201 128.595 130.201 127.45C130.201 126.351 129.469 125.725 128.171 125.725ZM128.385 130.564H125.546V134.106H128.385C129.667 134.106 130.384 133.449 130.384 132.304C130.384 131.205 129.652 130.564 128.385 130.564ZM136.684 135.617C134.486 135.617 132.974 134.029 132.974 131.709C132.974 129.374 134.455 127.756 136.623 127.756C138.744 127.756 140.133 129.221 140.133 131.434V131.969L134.363 131.984C134.47 133.556 135.295 134.426 136.714 134.426C137.828 134.426 138.561 133.968 138.805 133.113H140.149C139.782 134.716 138.531 135.617 136.684 135.617ZM136.623 128.961C135.371 128.961 134.577 129.709 134.394 131.022H138.699C138.699 129.786 137.89 128.961 136.623 128.961ZM141.034 133.266H142.408C142.408 134.029 142.988 134.487 143.934 134.487C144.942 134.487 145.522 134.075 145.522 133.388C145.522 132.884 145.277 132.579 144.499 132.381L143.186 132.075C141.858 131.755 141.232 131.099 141.232 129.999C141.232 128.626 142.392 127.756 144.041 127.756C145.674 127.756 146.743 128.671 146.773 130.091H145.399C145.369 129.343 144.865 128.87 143.995 128.87C143.095 128.87 142.591 129.267 142.591 129.954C142.591 130.457 142.957 130.793 143.69 130.976L145.003 131.297C146.27 131.602 146.895 132.182 146.895 133.297C146.895 134.716 145.674 135.617 143.904 135.617C142.148 135.617 141.034 134.686 141.034 133.266ZM150.501 135.434H149.067V129.175H147.601V127.969H149.067V125.634H150.501V127.969H151.967V129.175H150.501V135.434ZM156.421 125.771V124.397H164.557V125.771H161.245V135.434H159.749V125.771H156.421ZM169.09 127.908V129.221H168.449C167.09 129.221 166.251 130.045 166.251 131.48V135.434H164.816V127.985H166.159L166.251 129.114C166.556 128.336 167.304 127.817 168.326 127.817C168.586 127.817 168.8 127.847 169.09 127.908ZM172.229 135.617C170.626 135.617 169.679 134.716 169.679 133.358C169.679 131.984 170.702 131.129 172.458 130.992L174.808 130.808V130.595C174.808 129.343 174.06 128.9 173.053 128.9C171.847 128.9 171.16 129.435 171.16 130.335H169.908C169.908 128.778 171.191 127.756 173.114 127.756C174.961 127.756 176.213 128.733 176.213 130.747V135.434H174.991L174.839 134.228C174.457 135.083 173.434 135.617 172.229 135.617ZM172.641 134.502C173.999 134.502 174.823 133.617 174.823 132.213V131.816L172.915 131.969C171.648 132.091 171.13 132.579 171.13 133.312C171.13 134.106 171.71 134.502 172.641 134.502ZM181.1 135.617C178.932 135.617 177.62 133.999 177.62 131.724C177.62 129.435 178.948 127.756 181.161 127.756C182.306 127.756 183.267 128.259 183.771 129.175V124.199H185.191V135.434H183.909L183.786 134.075C183.298 135.098 182.291 135.617 181.1 135.617ZM181.39 134.319C182.855 134.319 183.756 133.236 183.756 131.679C183.756 130.152 182.855 129.053 181.39 129.053C179.925 129.053 179.07 130.152 179.07 131.679C179.07 133.22 179.925 134.319 181.39 134.319ZM190.39 135.617C188.192 135.617 186.681 134.029 186.681 131.709C186.681 129.374 188.161 127.756 190.329 127.756C192.451 127.756 193.84 129.221 193.84 131.434V131.969L188.07 131.984C188.177 133.556 189.001 134.426 190.42 134.426C191.535 134.426 192.267 133.968 192.512 133.113H193.855C193.489 134.716 192.237 135.617 190.39 135.617ZM190.329 128.961C189.077 128.961 188.283 129.709 188.1 131.022H192.405C192.405 129.786 191.596 128.961 190.329 128.961Z" fill="#111111"/>
<path d="M-140.703 179.604C-140.703 173.583 -135.822 168.701 -129.8 168.701H428.44C434.462 168.701 439.343 173.583 439.343 179.604V239.23C439.343 245.252 434.462 250.133 428.44 250.133H-129.8C-135.822 250.133 -140.703 245.252 -140.703 239.23V179.604Z" fill="white" fill-opacity="0.03"/>
<path d="M-129.8 169.246H428.44C434.161 169.246 438.798 173.884 438.798 179.604V239.229C438.798 244.95 434.161 249.588 428.44 249.588H-129.8C-135.52 249.588 -140.158 244.95 -140.158 239.229V179.604C-140.158 173.884 -135.52 169.246 -129.8 169.246Z" stroke="white" stroke-opacity="0.02" stroke-width="1.09031"/>
<path d="M364.62 201.234V200.109C362.893 200.004 361.755 199.023 361.676 197.492H362.985C363.011 198.329 363.626 198.879 364.62 198.984V195.726L364.149 195.621C362.605 195.268 361.807 194.404 361.807 193.057C361.807 191.565 362.919 190.505 364.62 190.361V189.223H365.458V190.348C367.041 190.492 368.048 191.46 368.14 192.978H366.871C366.818 192.141 366.308 191.604 365.458 191.487V194.731L365.968 194.849C367.538 195.202 368.297 196.027 368.297 197.335C368.297 198.892 367.185 199.939 365.458 200.096V201.234H364.62ZM364.411 194.483L364.62 194.535V191.487C363.652 191.617 363.063 192.18 363.063 193.017C363.063 193.776 363.495 194.26 364.411 194.483ZM365.706 195.987L365.458 195.935V198.957C366.439 198.827 367.041 198.264 367.041 197.44C367.041 196.681 366.609 196.197 365.706 195.987ZM375.534 199.952L369.149 199.965V198.984L372.198 196.354C373.729 195.032 374.16 194.391 374.16 193.384C374.16 192.193 373.48 191.487 372.342 191.487C371.177 191.487 370.418 192.337 370.392 193.685H369.11C369.149 191.657 370.431 190.335 372.355 190.335C374.252 190.335 375.469 191.487 375.469 193.305C375.469 194.653 374.801 195.608 373.127 197.06L371.164 198.761H375.534V199.952ZM378.661 199.455C378.661 200.397 377.954 201.182 377.025 201.299V200.75C377.562 200.658 377.941 200.305 377.941 199.899C377.85 199.952 377.745 199.978 377.588 199.978C377.156 199.978 376.79 199.664 376.79 199.18C376.79 198.656 377.143 198.277 377.667 198.277C378.216 198.277 378.661 198.735 378.661 199.455ZM379.385 195.242C379.385 192.311 380.903 190.322 383.284 190.322C385.652 190.322 387.17 192.311 387.17 195.242C387.17 198.185 385.718 200.135 383.284 200.135C380.837 200.135 379.385 198.185 379.385 195.242ZM380.654 195.242C380.654 197.571 381.622 198.984 383.284 198.984C384.946 198.984 385.901 197.571 385.901 195.242C385.901 192.887 384.946 191.473 383.284 191.473C381.622 191.473 380.654 192.887 380.654 195.242ZM388.195 195.242C388.195 192.311 389.713 190.322 392.094 190.322C394.462 190.322 395.98 192.311 395.98 195.242C395.98 198.185 394.528 200.135 392.094 200.135C389.648 200.135 388.195 198.185 388.195 195.242ZM389.464 195.242C389.464 197.571 390.433 198.984 392.094 198.984C393.756 198.984 394.711 197.571 394.711 195.242C394.711 192.887 393.756 191.473 392.094 191.473C390.433 191.473 389.464 192.887 389.464 195.242ZM397.005 195.242C397.005 192.311 398.523 190.322 400.904 190.322C403.272 190.322 404.79 192.311 404.79 195.242C404.79 198.185 403.338 200.135 400.904 200.135C398.458 200.135 397.005 198.185 397.005 195.242ZM398.274 195.242C398.274 197.571 399.243 198.984 400.904 198.984C402.566 198.984 403.521 197.571 403.521 195.242C403.521 192.887 402.566 191.473 400.904 191.473C399.243 191.473 398.274 192.887 398.274 195.242ZM406.443 200.122C405.933 200.122 405.501 199.703 405.501 199.206C405.501 198.696 405.933 198.277 406.443 198.277C406.94 198.277 407.372 198.696 407.372 199.206C407.372 199.703 406.94 200.122 406.443 200.122ZM408.096 195.242C408.096 192.311 409.614 190.322 411.995 190.322C414.363 190.322 415.881 192.311 415.881 195.242C415.881 198.185 414.429 200.135 411.995 200.135C409.549 200.135 408.096 198.185 408.096 195.242ZM409.365 195.242C409.365 197.571 410.334 198.984 411.995 198.984C413.657 198.984 414.612 197.571 414.612 195.242C414.612 192.887 413.657 191.473 411.995 191.473C410.334 191.473 409.365 192.887 409.365 195.242ZM416.906 195.242C416.906 192.311 418.424 190.322 420.805 190.322C423.174 190.322 424.691 192.311 424.691 195.242C424.691 198.185 423.239 200.135 420.805 200.135C418.359 200.135 416.906 198.185 416.906 195.242ZM418.176 195.242C418.176 197.571 419.144 198.984 420.805 198.984C422.467 198.984 423.422 197.571 423.422 195.242C423.422 192.887 422.467 191.473 420.805 191.473C419.144 191.473 418.176 192.887 418.176 195.242Z" fill="#EA4335"/>
<rect x="-127.621" y="221.508" width="503.725" height="8.7225" rx="4.36125" fill="white" fill-opacity="0.2"/>
<path d="M413.792 230.856L407.408 230.869V229.888L410.456 227.258C411.987 225.937 412.419 225.295 412.419 224.288C412.419 223.097 411.738 222.391 410.6 222.391C409.436 222.391 408.677 223.241 408.65 224.589H407.368C407.408 222.561 408.69 221.239 410.613 221.239C412.51 221.239 413.727 222.391 413.727 224.21C413.727 225.557 413.06 226.512 411.385 227.965L409.422 229.665H413.792V230.856ZM419.395 223.647C419.395 225.047 418.4 226.054 417 226.054C415.614 226.054 414.619 225.047 414.619 223.647C414.619 222.234 415.614 221.226 417 221.226C418.4 221.226 419.395 222.234 419.395 223.647ZM424.38 221.423L417.197 230.869H415.941L423.124 221.423H424.38ZM418.387 223.647C418.387 222.796 417.825 222.208 417 222.208C416.189 222.208 415.627 222.796 415.627 223.647C415.627 224.484 416.189 225.073 417 225.073C417.812 225.073 418.387 224.484 418.387 223.647ZM425.727 228.632C425.727 230.032 424.72 231.039 423.333 231.039C421.946 231.039 420.939 230.032 420.939 228.632C420.939 227.219 421.946 226.224 423.333 226.224C424.72 226.224 425.727 227.219 425.727 228.632ZM424.707 228.632C424.707 227.781 424.157 227.193 423.333 227.193C422.522 227.193 421.959 227.781 421.959 228.632C421.959 229.469 422.522 230.058 423.333 230.058C424.144 230.058 424.707 229.469 424.707 228.632Z" fill="#EA4335"/>
<path d="M-344.23 285.935C-344.23 279.829 -344.23 276.776 -343.042 274.443C-341.997 272.392 -340.329 270.724 -338.277 269.679C-335.945 268.49 -332.892 268.49 -326.785 268.49H27.9297C34.0359 268.49 37.0891 268.49 39.4214 269.679C41.473 270.724 43.1409 272.392 44.1862 274.443C45.3746 276.776 45.3746 279.829 45.3746 285.935V323.2C45.3746 329.306 45.3746 332.359 44.1862 334.691C43.1409 336.743 41.473 338.411 39.4214 339.456C37.0891 340.645 34.0359 340.645 27.9296 340.645H-326.785C-332.892 340.645 -335.945 340.645 -338.277 339.456C-340.329 338.411 -341.997 336.743 -343.042 334.691C-344.23 332.359 -344.23 329.306 -344.23 323.2V285.935Z" fill="url(#paint5_linear_1870_49843)" fill-opacity="0.2"/>
<path d="M-326.785 269.035H27.9297C30.9918 269.035 33.2561 269.035 35.0469 269.182C36.8309 269.327 38.0975 269.616 39.1738 270.164C41.1228 271.157 42.7071 272.742 43.7002 274.691C44.2486 275.768 44.5368 277.034 44.6826 278.818C44.8289 280.609 44.8291 282.873 44.8291 285.936V323.199C44.8291 326.261 44.8289 328.526 44.6826 330.316C44.5368 332.101 44.2487 333.368 43.7002 334.444C42.7071 336.393 41.1227 337.978 39.1738 338.971C38.0974 339.519 36.8302 339.807 35.0459 339.953C33.2552 340.099 30.9915 340.1 27.9297 340.1H-326.785C-329.847 340.1 -332.112 340.099 -333.902 339.953C-335.686 339.807 -336.953 339.519 -338.029 338.971C-339.978 337.978 -341.564 336.393 -342.557 334.444C-343.105 333.368 -343.393 332.101 -343.539 330.316C-343.685 328.526 -343.686 326.261 -343.686 323.199V285.936C-343.686 282.873 -343.685 280.609 -343.539 278.818C-343.393 277.034 -343.105 275.768 -342.557 274.691C-341.564 272.742 -339.978 271.157 -338.029 270.164C-336.953 269.616 -335.686 269.327 -333.902 269.182C-332.112 269.035 -329.847 269.035 -326.785 269.035Z" stroke="white" stroke-opacity="0.02" stroke-width="1.09031"/>
<path d="M49.7383 285.935C49.7383 279.829 49.7383 276.776 50.9267 274.443C51.972 272.392 53.6399 270.724 55.6915 269.679C58.0238 268.49 61.077 268.49 67.1833 268.49H421.898C428.005 268.49 431.058 268.49 433.39 269.679C435.442 270.724 437.11 272.392 438.155 274.443C439.343 276.776 439.343 279.829 439.343 285.935V323.2C439.343 329.306 439.343 332.359 438.155 334.691C437.11 336.743 435.442 338.411 433.39 339.456C431.058 340.645 428.005 340.645 421.898 340.645H67.1833C61.077 340.645 58.0238 340.645 55.6915 339.456C53.6399 338.411 51.972 336.743 50.9267 334.691C49.7383 332.359 49.7383 329.306 49.7383 323.2V285.935Z" fill="url(#paint6_linear_1870_49843)" fill-opacity="0.2"/>
<path d="M67.1836 269.035H421.898C424.961 269.035 427.225 269.035 429.016 269.182C430.8 269.327 432.066 269.616 433.143 270.164C435.092 271.157 436.676 272.742 437.669 274.691C438.217 275.768 438.506 277.034 438.651 278.818C438.798 280.609 438.798 282.873 438.798 285.936V323.199C438.798 326.261 438.798 328.526 438.651 330.316C438.506 332.101 438.217 333.368 437.669 334.444C436.676 336.393 435.091 337.978 433.143 338.971C432.066 339.519 430.799 339.807 429.015 339.953C427.224 340.099 424.96 340.1 421.898 340.1H67.1836C64.1214 340.1 61.8572 340.099 60.0664 339.953C58.2823 339.807 57.0158 339.519 55.9395 338.971C53.9905 337.978 52.4052 336.393 51.4121 334.444C50.8636 333.368 50.5755 332.101 50.4297 330.316C50.2834 328.526 50.2832 326.261 50.2832 323.199V285.936C50.2832 282.873 50.2834 280.609 50.4297 278.818C50.5755 277.034 50.8638 275.768 51.4121 274.691C52.4052 272.742 53.9905 271.157 55.9395 270.164C57.0158 269.616 58.2823 269.327 60.0664 269.182C61.8572 269.035 64.1214 269.035 67.1836 269.035Z" stroke="white" stroke-opacity="0.02" stroke-width="1.09031"/>
<path d="M63.0219 295.393H61.7397V285.933H65.3115C67.3395 285.933 68.5432 287.006 68.5432 288.772C68.5432 290.081 67.889 291.023 66.7115 291.402L68.6348 295.393H67.2087L65.4424 291.651H63.0219V295.393ZM63.0219 287.084V290.512H65.3246C66.5152 290.512 67.1956 289.871 67.1956 288.785C67.1956 287.686 66.4891 287.084 65.3115 287.084H63.0219ZM70.6143 287.477C70.1695 287.477 69.8031 287.111 69.8031 286.666C69.8031 286.208 70.1695 285.855 70.6143 285.855C71.0592 285.855 71.4255 286.208 71.4255 286.666C71.4255 287.111 71.0592 287.477 70.6143 287.477ZM70.0125 295.393V288.995H71.2424V295.393H70.0125ZM72.426 293.535H73.6036C73.6036 294.189 74.1007 294.581 74.9119 294.581C75.7755 294.581 76.2726 294.228 76.2726 293.639C76.2726 293.208 76.0633 292.946 75.396 292.776L74.2708 292.514C73.1325 292.239 72.5961 291.677 72.5961 290.735C72.5961 289.557 73.5905 288.811 75.0035 288.811C76.4035 288.811 77.3193 289.596 77.3455 290.813H76.168C76.1418 290.172 75.71 289.767 74.9643 289.767C74.1923 289.767 73.7606 290.107 73.7606 290.696C73.7606 291.127 74.0746 291.415 74.7026 291.572L75.8278 291.847C76.9138 292.109 77.4502 292.606 77.4502 293.561C77.4502 294.778 76.4035 295.55 74.8858 295.55C73.3811 295.55 72.426 294.751 72.426 293.535ZM79.9916 295.393H78.7617V285.763H79.9916V292.004L82.8308 288.995H84.3747L81.928 291.546L84.3616 295.393H82.9485L81.0776 292.436L79.9916 293.574V295.393ZM85.6282 295.393H84.4115L88.1011 285.946H89.3309L85.6282 295.393ZM91.6334 295.393H90.3512V285.933H93.923C95.951 285.933 97.1547 287.006 97.1547 288.772C97.1547 290.081 96.5005 291.023 95.323 291.402L97.2463 295.393H95.8202L94.0539 291.651H91.6334V295.393ZM91.6334 287.084V290.512H93.9361C95.1267 290.512 95.8071 289.871 95.8071 288.785C95.8071 287.686 95.1006 287.084 93.923 287.084H91.6334ZM100.925 295.55C99.0406 295.55 97.7453 294.189 97.7453 292.2C97.7453 290.198 99.0145 288.811 100.872 288.811C102.691 288.811 103.882 290.067 103.882 291.965V292.423L98.936 292.436C99.0275 293.783 99.7341 294.529 100.951 294.529C101.906 294.529 102.534 294.137 102.743 293.404H103.895C103.581 294.778 102.508 295.55 100.925 295.55ZM100.872 289.845C99.7995 289.845 99.1191 290.486 98.9621 291.611H102.652C102.652 290.552 101.958 289.845 100.872 289.845ZM106.333 295.393L104.24 288.995H105.509L106.569 292.318C106.713 292.789 106.844 293.273 106.961 293.836C107.066 293.273 107.236 292.737 107.38 292.318L108.453 288.995H109.709L110.769 292.318C110.873 292.632 111.083 293.378 111.187 293.836C111.292 293.325 111.41 292.88 111.593 292.318L112.666 288.995H113.948L111.763 295.393H110.599L109.487 291.965C109.277 291.324 109.146 290.826 109.081 290.473C109.016 290.787 108.898 291.206 108.662 291.978L107.55 295.393H106.333ZM116.501 295.55C115.127 295.55 114.316 294.778 114.316 293.613C114.316 292.436 115.193 291.703 116.697 291.585L118.712 291.428V291.245C118.712 290.172 118.071 289.793 117.208 289.793C116.174 289.793 115.585 290.251 115.585 291.023H114.512C114.512 289.688 115.611 288.811 117.26 288.811C118.843 288.811 119.916 289.649 119.916 291.376V295.393H118.869L118.738 294.359C118.411 295.092 117.535 295.55 116.501 295.55ZM116.854 294.594C118.019 294.594 118.725 293.836 118.725 292.632V292.292L117.09 292.423C116.004 292.527 115.559 292.946 115.559 293.574C115.559 294.254 116.056 294.594 116.854 294.594ZM125.204 288.942V290.067H124.655C123.49 290.067 122.77 290.774 122.77 292.004V295.393H121.541V289.008H122.692L122.77 289.976C123.032 289.309 123.673 288.864 124.55 288.864C124.772 288.864 124.955 288.89 125.204 288.942ZM128.613 295.55C126.756 295.55 125.63 294.163 125.63 292.213C125.63 290.251 126.769 288.811 128.666 288.811C129.647 288.811 130.471 289.243 130.903 290.028V285.763H132.12V295.393H131.021L130.916 294.228C130.498 295.105 129.634 295.55 128.613 295.55ZM128.862 294.437C130.118 294.437 130.89 293.509 130.89 292.174C130.89 290.866 130.118 289.924 128.862 289.924C127.606 289.924 126.873 290.866 126.873 292.174C126.873 293.495 127.606 294.437 128.862 294.437Z" fill="white"/>
<path d="M63.9028 314.856H61.2512V313.321H65.5427V325.934H63.9028V314.856ZM69.4723 319.601C68.7919 319.601 68.2163 319.043 68.2163 318.397C68.2163 317.717 68.7919 317.159 69.4723 317.159C70.1352 317.159 70.7109 317.717 70.7109 318.397C70.7109 319.043 70.1352 319.601 69.4723 319.601ZM69.4723 326.143C68.7919 326.143 68.2163 325.585 68.2163 324.922C68.2163 324.241 68.7919 323.683 69.4723 323.683C70.1352 323.683 70.7109 324.241 70.7109 324.922C70.7109 325.585 70.1352 326.143 69.4723 326.143ZM81.2634 325.916L72.7502 325.934V324.625L76.8149 321.119C78.8559 319.357 79.4316 318.502 79.4316 317.159C79.4316 315.571 78.5245 314.629 77.0068 314.629C75.4542 314.629 74.4424 315.763 74.4075 317.56H72.6979C72.7502 314.856 74.4598 313.094 77.0242 313.094C79.5537 313.094 81.1761 314.629 81.1761 317.054C81.1761 318.851 80.2864 320.124 78.0535 322.061L75.4367 324.329H81.2634V325.916ZM84.4381 326.143C83.7577 326.143 83.182 325.585 83.182 324.922C83.182 324.241 83.7577 323.683 84.4381 323.683C85.101 323.683 85.6767 324.241 85.6767 324.922C85.6767 325.585 85.101 326.143 84.4381 326.143ZM91.4664 326.143C88.8845 326.143 87.2098 324.503 87.2098 321.991H88.9019C88.9019 323.613 89.8963 324.608 91.5013 324.608C93.2109 324.608 94.3099 323.474 94.3099 321.764C94.3099 320.142 93.2806 318.938 91.5187 318.938C90.4546 318.938 89.4776 319.444 88.9019 320.159L87.454 319.793L88.9892 313.321H95.3043V314.891H90.2278L89.3904 318.24C90.0533 317.734 90.8907 317.473 91.8327 317.473C94.3971 317.473 96.0544 319.27 96.0544 321.694C96.0544 324.311 94.1878 326.143 91.4664 326.143ZM97.4294 319.636C97.4294 315.728 99.453 313.077 102.628 313.077C105.786 313.077 107.809 315.728 107.809 319.636C107.809 323.561 105.873 326.16 102.628 326.16C99.3658 326.16 97.4294 323.561 97.4294 319.636ZM99.1216 319.636C99.1216 322.741 100.413 324.625 102.628 324.625C104.844 324.625 106.117 322.741 106.117 319.636C106.117 316.496 104.844 314.612 102.628 314.612C100.413 314.612 99.1216 316.496 99.1216 319.636Z" fill="url(#paint7_linear_1870_49843)"/>
<path d="M58.6746 365.338V363.964H66.8106V365.338H63.4982V375H62.0023V365.338H58.6746ZM71.1297 367.475V368.787H70.4886C69.13 368.787 68.2905 369.612 68.2905 371.047V375H66.8556V367.551H68.1989L68.2905 368.681C68.5958 367.902 69.3437 367.383 70.3664 367.383C70.6259 367.383 70.8396 367.414 71.1297 367.475ZM74.0548 375.183C72.4521 375.183 71.5057 374.283 71.5057 372.924C71.5057 371.55 72.5284 370.695 74.2838 370.558L76.6345 370.375V370.161C76.6345 368.91 75.8865 368.467 74.8791 368.467C73.6732 368.467 72.9863 369.001 72.9863 369.902H71.7346C71.7346 368.345 73.0168 367.322 74.9401 367.322C76.7871 367.322 78.0388 368.299 78.0388 370.314V375H76.8177L76.665 373.794C76.2834 374.649 75.2607 375.183 74.0548 375.183ZM74.467 374.069C75.8255 374.069 76.6498 373.184 76.6498 371.779V371.382L74.7417 371.535C73.4748 371.657 72.9558 372.146 72.9558 372.878C72.9558 373.672 73.5358 374.069 74.467 374.069ZM82.7125 375.183C80.5449 375.183 79.2322 373.565 79.2322 371.291C79.2322 369.001 80.5602 367.322 82.7735 367.322C83.9183 367.322 84.88 367.826 85.3837 368.742V363.765H86.8033V375H85.5211L85.399 373.641C84.9105 374.664 83.9031 375.183 82.7125 375.183ZM83.0025 373.886C84.4679 373.886 85.3685 372.802 85.3685 371.245C85.3685 369.719 84.4679 368.619 83.0025 368.619C81.5371 368.619 80.6823 369.719 80.6823 371.245C80.6823 372.787 81.5371 373.886 83.0025 373.886ZM89.2702 365.765C88.7512 365.765 88.3238 365.338 88.3238 364.819C88.3238 364.284 88.7512 363.872 89.2702 363.872C89.7892 363.872 90.2166 364.284 90.2166 364.819C90.2166 365.338 89.7892 365.765 89.2702 365.765ZM88.568 375V367.536H90.0029V375H88.568ZM93.2155 375H91.7807V367.536H93.0782L93.2308 368.681C93.704 367.826 94.6504 367.322 95.7036 367.322C97.6727 367.322 98.5733 368.528 98.5733 370.436V375H97.1385V370.757C97.1385 369.245 96.4363 368.635 95.3373 368.635C93.994 368.635 93.2155 369.596 93.2155 371.047V375ZM99.7822 371.077C99.7822 368.971 101.141 367.322 103.308 367.322C104.514 367.322 105.445 367.872 105.918 368.803L106.025 367.536H107.308V374.695C107.308 377.045 105.857 378.541 103.568 378.541C101.538 378.541 100.149 377.397 99.8738 375.504H101.309C101.492 376.603 102.316 377.244 103.568 377.244C104.972 377.244 105.888 376.328 105.888 374.908V373.413C105.4 374.283 104.423 374.802 103.247 374.802C101.125 374.802 99.7822 373.168 99.7822 371.077ZM101.217 371.047C101.217 372.451 102.087 373.55 103.491 373.55C104.942 373.55 105.827 372.512 105.827 371.047C105.827 369.612 104.972 368.574 103.507 368.574C102.072 368.574 101.217 369.673 101.217 371.047ZM116.254 375L112.056 363.964H113.659L116.345 371.016C116.59 371.642 116.803 372.268 117.032 373.092C117.292 372.222 117.551 371.489 117.735 371.001L120.406 363.964H121.963L117.811 375H116.254ZM124.861 375.183C122.663 375.183 121.151 373.596 121.151 371.275C121.151 368.94 122.632 367.322 124.8 367.322C126.921 367.322 128.31 368.787 128.31 371.001V371.535L122.54 371.55C122.647 373.122 123.472 373.993 124.891 373.993C126.005 373.993 126.738 373.535 126.982 372.68H128.326C127.959 374.283 126.708 375.183 124.861 375.183ZM124.8 368.528C123.548 368.528 122.754 369.276 122.571 370.589H126.876C126.876 369.352 126.067 368.528 124.8 368.528ZM133.882 367.475V368.787H133.241C131.882 368.787 131.043 369.612 131.043 371.047V375H129.608V367.551H130.951L131.043 368.681C131.348 367.902 132.096 367.383 133.119 367.383C133.378 367.383 133.592 367.414 133.882 367.475ZM134.312 372.832H135.685C135.685 373.596 136.266 374.054 137.212 374.054C138.219 374.054 138.799 373.641 138.799 372.955C138.799 372.451 138.555 372.146 137.777 371.947L136.464 371.642C135.136 371.321 134.51 370.665 134.51 369.566C134.51 368.192 135.67 367.322 137.319 367.322C138.952 367.322 140.021 368.238 140.051 369.657H138.677C138.647 368.91 138.143 368.436 137.273 368.436C136.372 368.436 135.869 368.833 135.869 369.52C135.869 370.024 136.235 370.36 136.968 370.543L138.28 370.863C139.547 371.169 140.173 371.749 140.173 372.863C140.173 374.283 138.952 375.183 137.181 375.183C135.426 375.183 134.312 374.252 134.312 372.832ZM142.161 365.765C141.642 365.765 141.215 365.338 141.215 364.819C141.215 364.284 141.642 363.872 142.161 363.872C142.68 363.872 143.108 364.284 143.108 364.819C143.108 365.338 142.68 365.765 142.161 365.765ZM141.459 375V367.536H142.894V375H141.459ZM144.183 371.26C144.183 368.955 145.832 367.337 148.076 367.337C150.304 367.337 151.953 368.955 151.953 371.26C151.953 373.565 150.304 375.183 148.076 375.183C145.832 375.183 144.183 373.565 144.183 371.26ZM145.633 371.26C145.633 372.817 146.626 373.901 148.076 373.901C149.511 373.901 150.518 372.817 150.518 371.26C150.518 369.703 149.511 368.619 148.076 368.619C146.626 368.619 145.633 369.703 145.633 371.26ZM154.671 375H153.236V367.536H154.533L154.686 368.681C155.159 367.826 156.106 367.322 157.159 367.322C159.128 367.322 160.029 368.528 160.029 370.436V375H158.594V370.757C158.594 369.245 157.892 368.635 156.793 368.635C155.449 368.635 154.671 369.596 154.671 371.047V375Z" fill="white"/>
</g>
<path d="M16 0.5H484C492.56 0.5 499.5 7.43959 499.5 16V348C499.5 356.56 492.56 363.5 484 363.5H16C7.43959 363.5 0.5 356.56 0.5 348V16C0.5 7.43959 7.43959 0.5 16 0.5Z" stroke="black" stroke-opacity="0.1"/>
<defs>
<linearGradient id="paint0_linear_1870_49843" x1="60.1315" y1="309.046" x2="129.231" y2="2.07391" gradientUnits="userSpaceOnUse">
<stop stop-color="#3EDC81"/>
<stop offset="1" stop-color="#0276DB"/>
</linearGradient>
<linearGradient id="paint1_linear_1870_49843" x1="413.229" y1="-45.755" x2="-2.82308" y2="327.683" gradientUnits="userSpaceOnUse">
<stop stop-color="white" stop-opacity="0.2"/>
<stop offset="0.555856" stop-color="white" stop-opacity="0.661921"/>
<stop offset="0.768606" stop-color="white" stop-opacity="0.748406"/>
<stop offset="1" stop-color="white" stop-opacity="0.9"/>
</linearGradient>
<linearGradient id="paint2_linear_1870_49843" x1="-613.141" y1="612.616" x2="-507.492" y2="13.8343" gradientUnits="userSpaceOnUse">
<stop stop-color="#3EDC81"/>
<stop offset="1" stop-color="#0276DB"/>
</linearGradient>
<linearGradient id="paint3_linear_1870_49843" x1="249.23" y1="-66.59" x2="-544.585" y2="842.429" gradientUnits="userSpaceOnUse">
<stop stop-color="#0F0F0F" stop-opacity="0.2"/>
<stop offset="0.555856" stop-color="#0F0F0F" stop-opacity="0.661921"/>
<stop offset="0.768606" stop-color="#0F0F0F" stop-opacity="0.748406"/>
<stop offset="1" stop-color="#0F0F0F" stop-opacity="0.9"/>
</linearGradient>
<linearGradient id="paint4_linear_1870_49843" x1="-149.426" y1="107.531" x2="-149.426" y2="151.338" gradientUnits="userSpaceOnUse">
<stop stop-color="white" stop-opacity="0.2"/>
<stop offset="1" stop-color="white" stop-opacity="0.1"/>
</linearGradient>
<linearGradient id="paint5_linear_1870_49843" x1="-149.428" y1="268.49" x2="-149.428" y2="340.645" gradientUnits="userSpaceOnUse">
<stop stop-color="white" stop-opacity="0.2"/>
<stop offset="1" stop-color="white" stop-opacity="0.1"/>
</linearGradient>
<linearGradient id="paint6_linear_1870_49843" x1="244.541" y1="268.49" x2="244.541" y2="340.645" gradientUnits="userSpaceOnUse">
<stop stop-color="white" stop-opacity="0.2"/>
<stop offset="1" stop-color="white" stop-opacity="0.1"/>
</linearGradient>
<linearGradient id="paint7_linear_1870_49843" x1="100.982" y1="307.934" x2="100.982" y2="329.74" gradientUnits="userSpaceOnUse">
<stop stop-color="#15B0F8"/>
<stop offset="1" stop-color="#0276DB"/>
</linearGradient>
<clipPath id="clip0_1870_49843">
<path d="M0 16C0 7.16344 7.16344 0 16 0H484C492.837 0 500 7.16344 500 16V348C500 356.837 492.837 364 484 364H16C7.16345 364 0 356.837 0 348V16Z" fill="white"/>
</clipPath>
</defs>
</svg>
