<svg width="440" height="413" viewBox="0 0 440 413" fill="none" xmlns="http://www.w3.org/2000/svg">
<path d="M26.8193 1.02344H413.181C417.883 1.02344 421.379 1.02378 424.147 1.25C426.91 1.47572 428.904 1.92437 430.61 2.79395C433.665 4.3507 436.149 6.83455 437.706 9.88965C438.576 11.5963 439.024 13.5898 439.25 16.3525C439.476 19.1213 439.477 22.617 439.477 27.3193V555.015C439.477 559.717 439.476 563.212 439.25 565.98C439.024 568.743 438.576 570.737 437.706 572.443C436.149 575.499 433.666 577.983 430.61 579.54C428.904 580.41 426.91 580.857 424.147 581.083C421.379 581.309 417.883 581.31 413.181 581.31H26.8193C22.1169 581.31 18.6213 581.309 15.8525 581.083C13.0898 580.857 11.0963 580.41 9.38965 579.54C6.33433 577.983 3.85073 575.499 2.29395 572.443C1.42437 570.737 0.975721 568.743 0.75 565.98C0.523818 563.212 0.523438 559.717 0.523438 555.015V27.3193C0.523438 22.617 0.523786 19.1213 0.75 16.3525C0.975721 13.5899 1.42437 11.5963 2.29395 9.88965C3.8507 6.83455 6.33455 4.3507 9.38965 2.79395C11.0963 1.92437 13.0898 1.47572 15.8525 1.25C18.6213 1.02378 22.117 1.02344 26.8193 1.02344Z" fill="url(#paint0_linear_2213_3828)" fill-opacity="0.2"/>
<path d="M26.8193 1.02344H413.181C417.883 1.02344 421.379 1.02378 424.147 1.25C426.91 1.47572 428.904 1.92437 430.61 2.79395C433.665 4.3507 436.149 6.83455 437.706 9.88965C438.576 11.5963 439.024 13.5898 439.25 16.3525C439.476 19.1213 439.477 22.617 439.477 27.3193V555.015C439.477 559.717 439.476 563.212 439.25 565.98C439.024 568.743 438.576 570.737 437.706 572.443C436.149 575.499 433.666 577.983 430.61 579.54C428.904 580.41 426.91 580.857 424.147 581.083C421.379 581.309 417.883 581.31 413.181 581.31H26.8193C22.1169 581.31 18.6213 581.309 15.8525 581.083C13.0898 580.857 11.0963 580.41 9.38965 579.54C6.33433 577.983 3.85073 575.499 2.29395 572.443C1.42437 570.737 0.975721 568.743 0.75 565.98C0.523818 563.212 0.523438 559.717 0.523438 555.015V27.3193C0.523438 22.617 0.523786 19.1213 0.75 16.3525C0.975721 13.5899 1.42437 11.5963 2.29395 9.88965C3.8507 6.83455 6.33455 4.3507 9.38965 2.79395C11.0963 1.92437 13.0898 1.47572 15.8525 1.25C18.6213 1.02378 22.117 1.02344 26.8193 1.02344Z" stroke="white" stroke-opacity="0.05" stroke-width="1.04762"/>
<path d="M26.8193 1.02344H413.181C417.883 1.02344 421.379 1.02378 424.147 1.25C426.91 1.47572 428.904 1.92437 430.61 2.79395C433.665 4.3507 436.149 6.83455 437.706 9.88965C438.576 11.5963 439.024 13.5898 439.25 16.3525C439.476 19.1213 439.477 22.617 439.477 27.3193V555.015C439.477 559.717 439.476 563.212 439.25 565.98C439.024 568.743 438.576 570.737 437.706 572.443C436.149 575.499 433.666 577.983 430.61 579.54C428.904 580.41 426.91 580.857 424.147 581.083C421.379 581.309 417.883 581.31 413.181 581.31H26.8193C22.1169 581.31 18.6213 581.309 15.8525 581.083C13.0898 580.857 11.0963 580.41 9.38965 579.54C6.33433 577.983 3.85073 575.499 2.29395 572.443C1.42437 570.737 0.975721 568.743 0.75 565.98C0.523818 563.212 0.523438 559.717 0.523438 555.015V27.3193C0.523438 22.617 0.523786 19.1213 0.75 16.3525C0.975721 13.5899 1.42437 11.5963 2.29395 9.88965C3.8507 6.83455 6.33455 4.3507 9.38965 2.79395C11.0963 1.92437 13.0898 1.47572 15.8525 1.25C18.6213 1.02378 22.117 1.02344 26.8193 1.02344Z" stroke="url(#paint1_linear_2213_3828)" stroke-width="1.04762"/>
<rect x="20.9531" y="21.4523" width="29.3333" height="29.3333" rx="7.12963" fill="url(#paint2_linear_2213_3828)" fill-opacity="0.7"/>
<path d="M38.6756 36.119C38.6756 37.8066 37.3075 39.1746 35.62 39.1746C33.9325 39.1746 32.5645 37.8066 32.5645 36.119C32.5645 34.4315 33.9325 33.0635 35.62 33.0635" stroke="#3EDC81" stroke-width="0.916667" stroke-linecap="round"/>
<path d="M36.8431 30.1302C36.4482 30.05 36.0394 30.0079 35.6209 30.0079C32.2458 30.0079 29.5098 32.744 29.5098 36.119C29.5098 39.4941 32.2458 42.2302 35.6209 42.2302C38.9959 42.2302 41.732 39.4941 41.732 36.119C41.732 35.7005 41.6899 35.2917 41.6098 34.8968" stroke="#3EDC81" stroke-width="0.916667" stroke-linecap="round"/>
<path d="M35.6387 36.0961L38.421 33.3137M40.3504 31.4407L40.0124 30.2263C39.9501 30.0263 39.7094 29.9466 39.5471 30.0791C38.6695 30.7963 37.7135 31.7623 38.4942 33.286C40.0673 34.0195 40.9653 33.0303 41.6539 32.1989C41.7909 32.0335 41.7083 31.7848 41.5019 31.7251L40.3504 31.4407Z" stroke="#3EDC81" stroke-width="0.916667" stroke-linecap="round" stroke-linejoin="round"/>
<path d="M60.5788 38.4523H58.8691L63.2943 26.3334H65.1213L69.5632 38.4523H67.8367L66.7472 35.4351H61.6516L60.5788 38.4523ZM63.9983 28.9483L62.1544 34.0104H66.2611L64.4005 28.9483C64.3167 28.7136 64.2329 28.4287 64.1994 28.2443C64.1659 28.4119 64.0821 28.6968 63.9983 28.9483ZM72.7163 26.3334V38.4523H71.0736V26.3334H72.7163ZM84.9531 38.6367C81.5002 38.6367 79.2038 36.1559 79.2038 32.4012C79.2038 28.6633 81.5672 26.1323 85.0369 26.1323C87.7691 26.1323 89.8644 27.7582 90.3169 30.2389H88.5569C88.1044 28.6633 86.7467 27.7079 84.9866 27.7079C82.5394 27.7079 80.9303 29.5517 80.9303 32.3845C80.9303 35.2172 82.5394 37.061 84.9866 37.061C86.7634 37.061 88.1714 36.1056 88.624 34.6138H90.3672C89.8476 37.0275 87.6853 38.6367 84.9531 38.6367ZM91.4763 34.3456C91.4763 31.8146 93.2865 30.0378 95.7505 30.0378C98.1978 30.0378 100.008 31.8146 100.008 34.3456C100.008 36.8767 98.1978 38.6534 95.7505 38.6534C93.2865 38.6534 91.4763 36.8767 91.4763 34.3456ZM93.0686 34.3456C93.0686 36.0553 94.1582 37.2454 95.7505 37.2454C97.3262 37.2454 98.4324 36.0553 98.4324 34.3456C98.4324 32.6359 97.3262 31.4458 95.7505 31.4458C94.1582 31.4458 93.0686 32.6359 93.0686 34.3456ZM103.227 38.4523H101.652V30.2557H103.076L103.244 31.5128C103.764 30.5742 104.803 30.021 105.959 30.021C108.122 30.021 109.111 31.3452 109.111 33.4405V38.4523H107.535V33.7925C107.535 32.133 106.764 31.4626 105.557 31.4626C104.082 31.4626 103.227 32.5186 103.227 34.1109V38.4523ZM113.506 38.4523H111.93V31.5799H110.321V30.2557H111.93V27.6911H113.506V30.2557H115.115V31.5799H113.506V38.4523ZM121.122 30.1887V31.6302H120.418C118.926 31.6302 118.004 32.5353 118.004 34.1109V38.4523H116.428V30.2725H117.903L118.004 31.5128C118.339 30.658 119.16 30.0881 120.283 30.0881C120.568 30.0881 120.803 30.1216 121.122 30.1887ZM121.668 34.3456C121.668 31.8146 123.478 30.0378 125.942 30.0378C128.389 30.0378 130.2 31.8146 130.2 34.3456C130.2 36.8767 128.389 38.6534 125.942 38.6534C123.478 38.6534 121.668 36.8767 121.668 34.3456ZM123.26 34.3456C123.26 36.0553 124.35 37.2454 125.942 37.2454C127.518 37.2454 128.624 36.0553 128.624 34.3456C128.624 32.6359 127.518 31.4458 125.942 31.4458C124.35 31.4458 123.26 32.6359 123.26 34.3456ZM133.452 38.4523H131.877V26.1155H133.452V38.4523ZM145.132 34.1277H142.065V38.4523H140.422V26.3334H145.132C147.512 26.3334 149.038 27.8923 149.038 30.2222C149.038 32.485 147.496 34.1277 145.132 34.1277ZM144.847 27.8085H142.065V32.6527H144.78C146.406 32.6527 147.311 31.6972 147.311 30.2054C147.311 28.6801 146.389 27.8085 144.847 27.8085ZM152.599 38.6534C150.839 38.6534 149.8 37.6645 149.8 36.1727C149.8 34.6641 150.923 33.7254 152.851 33.5746L155.432 33.3734V33.1387C155.432 31.7643 154.611 31.2782 153.504 31.2782C152.18 31.2782 151.426 31.8648 151.426 32.8538H150.051C150.051 31.1441 151.459 30.021 153.571 30.021C155.599 30.021 156.974 31.0938 156.974 33.3064V38.4523H155.633L155.465 37.1281C155.046 38.0667 153.923 38.6534 152.599 38.6534ZM153.052 37.4298C154.543 37.4298 155.449 36.4576 155.449 34.9155V34.4797L153.353 34.6473C151.962 34.7814 151.392 35.3178 151.392 36.1224C151.392 36.994 152.029 37.4298 153.052 37.4298ZM160.631 38.4523H159.055V30.2557H160.48L160.648 31.5128C161.167 30.5742 162.207 30.021 163.363 30.021C165.526 30.021 166.514 31.3452 166.514 33.4405V38.4523H164.939V33.7925C164.939 32.133 164.168 31.4626 162.961 31.4626C161.486 31.4626 160.631 32.5186 160.631 34.1109V38.4523ZM172.133 38.6534C169.719 38.6534 168.06 36.9102 168.06 34.3624C168.06 31.7978 169.686 30.021 172.066 30.021C174.396 30.021 175.921 31.6302 175.921 34.0607V34.6473L169.585 34.6641C169.703 36.3906 170.608 37.346 172.167 37.346C173.39 37.346 174.195 36.8431 174.463 35.9045H175.938C175.536 37.6645 174.161 38.6534 172.133 38.6534ZM172.066 31.3452C170.691 31.3452 169.82 32.1666 169.619 33.6081H174.346C174.346 32.2504 173.457 31.3452 172.066 31.3452ZM179.19 38.4523H177.614V26.1155H179.19V38.4523Z" fill="white"/>
<path d="M62.8333 62.6427L58.8146 52.1414H59.944L62.7453 59.4454C62.9653 60.0174 63.1706 60.5894 63.4053 61.3227C63.6253 60.56 63.8893 59.8267 64.0506 59.4307L66.8373 52.1414H67.9226L63.9333 62.6427H62.8333ZM69.3251 53.5934C68.9145 53.5934 68.5771 53.256 68.5771 52.8454C68.5771 52.4347 68.9145 52.0827 69.3251 52.0827C69.7358 52.0827 70.0878 52.4347 70.0878 52.8454C70.0878 53.256 69.7358 53.5934 69.3251 53.5934ZM68.8265 62.6427V55.544H69.8385V62.6427H68.8265ZM74.6329 62.8187C72.5502 62.8187 71.1569 61.3227 71.1569 59.0934C71.1569 56.8787 72.5355 55.3534 74.5595 55.3534C76.4809 55.3534 77.7862 56.7174 77.7862 58.7267V59.2254H72.1395C72.2129 60.956 73.1222 61.9534 74.6475 61.9534C75.8062 61.9534 76.5542 61.4547 76.8182 60.516H77.7862C77.4049 62.012 76.3049 62.8187 74.6329 62.8187ZM74.5595 56.2187C73.2249 56.2187 72.3449 57.0987 72.1689 58.492H76.7742C76.7742 57.128 75.8942 56.2187 74.5595 56.2187ZM80.4207 62.6427L78.074 55.544H79.1154L80.5087 59.8267C80.67 60.296 80.802 60.78 80.9487 61.352C81.066 60.78 81.3007 60.0614 81.374 59.8267L82.782 55.544H83.8234L85.2167 59.8267C85.3487 60.208 85.5247 60.824 85.6567 61.352C85.8034 60.7654 85.8327 60.5894 86.082 59.8267L87.49 55.544H88.546L86.1407 62.6427H85.158L83.6914 58.184C83.5154 57.656 83.398 57.216 83.31 56.7907C83.2074 57.172 83.09 57.5974 82.8994 58.184L81.4327 62.6427H80.4207ZM95.3298 62.8187C93.8192 62.8187 92.9245 61.968 92.9245 60.7214C92.9245 59.416 93.9218 58.5947 95.5792 58.4627L97.9258 58.272V58.0374C97.9258 56.644 97.0898 56.204 96.0485 56.204C94.8165 56.204 94.0832 56.7614 94.0832 57.7147H93.1592C93.1592 56.2774 94.3325 55.3534 96.0778 55.3534C97.7205 55.3534 98.9232 56.1747 98.9232 58.052V62.6427H98.0725L97.9405 61.396C97.5005 62.2907 96.5325 62.8187 95.3298 62.8187ZM95.5645 61.9974C97.0605 61.9974 97.9258 60.956 97.9258 59.416V59.0347L95.8285 59.196C94.4938 59.3134 93.9512 59.9 93.9512 60.692C93.9512 61.5574 94.5965 61.9974 95.5645 61.9974ZM101.673 62.6427H100.661V55.544H101.541L101.687 56.776C102.157 55.8667 103.095 55.3534 104.122 55.3534C106.073 55.3534 106.879 56.512 106.879 58.3014V62.6427H105.867V58.5214C105.867 56.864 105.119 56.2774 103.946 56.2774C102.494 56.2774 101.673 57.3334 101.673 58.932V62.6427ZM111.39 62.8187C109.322 62.8187 108.104 61.2347 108.104 59.108C108.104 56.9667 109.322 55.3534 111.434 55.3534C112.607 55.3534 113.546 55.8667 114.044 56.8934V51.9507H115.056V62.6427H114.176L114.074 61.1907C113.575 62.2907 112.578 62.8187 111.39 62.8187ZM111.566 61.8947C113.12 61.8947 114.03 60.7214 114.03 59.0787C114.03 57.4507 113.12 56.2627 111.566 56.2627C110.026 56.2627 109.131 57.4507 109.131 59.0787C109.131 60.7214 110.026 61.8947 111.566 61.8947ZM120.15 59.108C120.15 56.8787 121.514 55.3534 123.582 55.3534C125.225 55.3534 126.428 56.3067 126.706 57.7734H125.694C125.43 56.7907 124.58 56.248 123.597 56.248C122.16 56.248 121.148 57.348 121.148 59.0934C121.148 60.78 122.086 61.9094 123.524 61.9094C124.58 61.9094 125.43 61.3227 125.709 60.4134H126.736C126.398 61.8654 125.137 62.8187 123.524 62.8187C121.514 62.8187 120.15 61.3374 120.15 59.108ZM132.962 55.544H133.974V62.6427H133.094L132.962 61.44C132.566 62.2614 131.584 62.8187 130.469 62.8187C128.797 62.8187 127.888 61.6747 127.888 59.944V55.5294H128.914V59.6214C128.914 61.308 129.662 61.9094 130.792 61.9094C132.156 61.9094 132.962 61 132.962 59.3134V55.544ZM135.044 60.648H136.012C136.012 61.4694 136.628 61.9827 137.626 61.9827C138.726 61.9827 139.371 61.5134 139.371 60.7507C139.371 60.164 139.078 59.8267 138.242 59.6214L137.024 59.3134C135.792 59.0054 135.191 58.36 135.191 57.392C135.191 56.1454 136.232 55.3534 137.758 55.3534C139.254 55.3534 140.222 56.1747 140.266 57.4947H139.283C139.254 56.6734 138.682 56.1894 137.728 56.1894C136.731 56.1894 136.174 56.6147 136.174 57.3774C136.174 57.92 136.555 58.3014 137.332 58.492L138.55 58.8C139.782 59.108 140.339 59.68 140.339 60.7067C140.339 61.9827 139.254 62.8187 137.64 62.8187C136.042 62.8187 135.044 61.968 135.044 60.648ZM143.34 62.6427H142.342V56.3947H140.92V55.544H142.342V53.3H143.34V55.544H144.762V56.3947H143.34V62.6427ZM145.217 59.0934C145.217 56.9227 146.742 55.3534 148.825 55.3534C150.907 55.3534 152.433 56.9227 152.433 59.0934C152.433 61.2494 150.907 62.8187 148.825 62.8187C146.742 62.8187 145.217 61.2494 145.217 59.0934ZM146.243 59.0787C146.243 60.7507 147.299 61.9094 148.825 61.9094C150.335 61.9094 151.406 60.7507 151.406 59.0787C151.406 57.436 150.335 56.2627 148.825 56.2627C147.299 56.2627 146.243 57.436 146.243 59.0787ZM154.77 62.6427H153.758V55.544H154.638L154.755 56.556C155.107 55.808 155.899 55.3534 156.897 55.3534C158.011 55.3534 158.847 55.94 159.185 56.864C159.507 55.94 160.373 55.3534 161.517 55.3534C163.057 55.3534 164.069 56.3507 164.069 57.9934V62.6427H163.086V58.1987C163.086 56.9814 162.411 56.2627 161.326 56.2627C160.138 56.2627 159.434 57.1574 159.434 58.2574V62.6427H158.437V58.184C158.437 56.9814 157.747 56.2774 156.677 56.2774C155.489 56.2774 154.77 57.1574 154.77 58.2427V62.6427ZM166.31 53.5934C165.899 53.5934 165.562 53.256 165.562 52.8454C165.562 52.4347 165.899 52.0827 166.31 52.0827C166.72 52.0827 167.072 52.4347 167.072 52.8454C167.072 53.256 166.72 53.5934 166.31 53.5934ZM165.811 62.6427V55.544H166.823V62.6427H165.811ZM173.509 62.6427H168.156V61.836L172.263 56.3947H168.156V55.544H173.509V56.3654L169.388 61.792H173.509V62.6427ZM177.597 62.8187C175.515 62.8187 174.121 61.3227 174.121 59.0934C174.121 56.8787 175.5 55.3534 177.524 55.3534C179.445 55.3534 180.751 56.7174 180.751 58.7267V59.2254H175.104C175.177 60.956 176.087 61.9534 177.612 61.9534C178.771 61.9534 179.519 61.4547 179.783 60.516H180.751C180.369 62.012 179.269 62.8187 177.597 62.8187ZM177.524 56.2187C176.189 56.2187 175.309 57.0987 175.133 58.492H179.739C179.739 57.128 178.859 56.2187 177.524 56.2187ZM185.131 65.7374V64.9014H185.909C186.525 64.9014 187.141 64.8574 187.493 63.904L187.801 63.068L184.926 55.544H185.997L188.285 61.7334L190.529 55.544H191.57L188.314 64.2707C187.903 65.3854 187.214 65.84 186.202 65.84C185.777 65.84 185.454 65.8107 185.131 65.7374ZM191.718 59.0934C191.718 56.9227 193.243 55.3534 195.326 55.3534C197.409 55.3534 198.934 56.9227 198.934 59.0934C198.934 61.2494 197.409 62.8187 195.326 62.8187C193.243 62.8187 191.718 61.2494 191.718 59.0934ZM192.745 59.0787C192.745 60.7507 193.801 61.9094 195.326 61.9094C196.837 61.9094 197.907 60.7507 197.907 59.0787C197.907 57.436 196.837 56.2627 195.326 56.2627C193.801 56.2627 192.745 57.436 192.745 59.0787ZM205.074 55.544H206.086V62.6427H205.206L205.074 61.44C204.678 62.2614 203.695 62.8187 202.581 62.8187C200.909 62.8187 199.999 61.6747 199.999 59.944V55.5294H201.026V59.6214C201.026 61.308 201.774 61.9094 202.903 61.9094C204.267 61.9094 205.074 61 205.074 59.3134V55.544ZM211.612 55.456V56.3654H211.054C209.749 56.3654 208.913 57.2454 208.913 58.5947V62.6427H207.901V55.544H208.854L208.928 56.644C209.206 55.8814 209.954 55.3827 210.952 55.3827C211.172 55.3827 211.362 55.3974 211.612 55.456ZM216.658 62.6427H215.587L219.445 52.1414H220.75L224.651 62.6427H223.551L222.525 59.856H217.685L216.658 62.6427ZM219.958 53.6227L218.007 58.932H222.187L220.222 53.6227C220.178 53.476 220.105 53.3 220.09 53.1974C220.075 53.2854 220.017 53.476 219.958 53.6227ZM226.874 52.1414V62.6427H225.818V52.1414H226.874ZM58.844 73.1094V72.1414H66.368V73.1094H63.1266V82.6427H62.0706V73.1094H58.844ZM70.1452 75.456V76.3654H69.5879C68.2825 76.3654 67.4465 77.2454 67.4465 78.5947V82.6427H66.4345V75.544H67.3879L67.4612 76.644C67.7399 75.8814 68.4879 75.3827 69.4852 75.3827C69.7052 75.3827 69.8959 75.3974 70.1452 75.456ZM72.9494 82.8187C71.4387 82.8187 70.5441 81.968 70.5441 80.7214C70.5441 79.416 71.5414 78.5947 73.1987 78.4627L75.5454 78.272V78.0374C75.5454 76.644 74.7094 76.204 73.6681 76.204C72.4361 76.204 71.7027 76.7614 71.7027 77.7147H70.7787C70.7787 76.2774 71.9521 75.3534 73.6974 75.3534C75.3401 75.3534 76.5427 76.1747 76.5427 78.052V82.6427H75.6921L75.5601 81.396C75.1201 82.2907 74.1521 82.8187 72.9494 82.8187ZM73.1841 81.9974C74.6801 81.9974 75.5454 80.956 75.5454 79.416V79.0347L73.4481 79.196C72.1134 79.3134 71.5707 79.9 71.5707 80.692C71.5707 81.5574 72.2161 81.9974 73.1841 81.9974ZM81.0668 82.8187C78.9988 82.8187 77.7815 81.2347 77.7815 79.108C77.7815 76.9667 78.9988 75.3534 81.1108 75.3534C82.2842 75.3534 83.2228 75.8667 83.7215 76.8934V71.9507H84.7335V82.6427H83.8535L83.7508 81.1907C83.2522 82.2907 82.2548 82.8187 81.0668 82.8187ZM81.2428 81.8947C82.7975 81.8947 83.7068 80.7214 83.7068 79.0787C83.7068 77.4507 82.7975 76.2627 81.2428 76.2627C79.7028 76.2627 78.8082 77.4507 78.8082 79.0787C78.8082 80.7214 79.7028 81.8947 81.2428 81.8947ZM87.0506 73.5934C86.6399 73.5934 86.3026 73.256 86.3026 72.8454C86.3026 72.4347 86.6399 72.0827 87.0506 72.0827C87.4613 72.0827 87.8133 72.4347 87.8133 72.8454C87.8133 73.256 87.4613 73.5934 87.0506 73.5934ZM86.5519 82.6427V75.544H87.5639V82.6427H86.5519ZM90.393 82.6427H89.381V75.544H90.261L90.4077 76.776C90.877 75.8667 91.8157 75.3534 92.8423 75.3534C94.793 75.3534 95.5997 76.512 95.5997 78.3014V82.6427H94.5877V78.5214C94.5877 76.864 93.8397 76.2774 92.6663 76.2774C91.2143 76.2774 90.393 77.3334 90.393 78.932V82.6427ZM96.8393 78.888C96.8393 76.952 98.086 75.3534 100.169 75.3534C101.401 75.3534 102.339 75.9254 102.794 76.9667L102.897 75.544H103.777V82.4227C103.777 84.5347 102.427 85.9134 100.345 85.9134C98.526 85.9134 97.25 84.8867 96.9713 83.1707H97.9833C98.2033 84.3147 99.0833 84.9894 100.359 84.9894C101.811 84.9894 102.779 84.0067 102.779 82.5254V80.8387C102.295 81.836 101.313 82.4227 100.095 82.4227C98.0713 82.4227 96.8393 80.824 96.8393 78.888ZM97.8513 78.8734C97.8513 80.3254 98.746 81.5134 100.242 81.5134C101.782 81.5134 102.691 80.3987 102.691 78.8734C102.691 77.3627 101.811 76.248 100.257 76.248C98.7313 76.248 97.8513 77.436 97.8513 78.8734ZM113.872 82.804C110.939 82.804 108.944 80.6187 108.944 77.392C108.944 74.1654 110.968 71.9654 113.931 71.9654C116.189 71.9654 117.964 73.3294 118.389 75.412H117.26C116.82 73.9014 115.529 72.9774 113.887 72.9774C111.584 72.9774 110.044 74.7374 110.044 77.392C110.044 80.032 111.584 81.792 113.887 81.792C115.544 81.792 116.864 80.8974 117.319 79.4894H118.448C117.964 81.4694 116.131 82.804 113.872 82.804ZM119.262 79.0934C119.262 76.9227 120.788 75.3534 122.87 75.3534C124.953 75.3534 126.478 76.9227 126.478 79.0934C126.478 81.2494 124.953 82.8187 122.87 82.8187C120.788 82.8187 119.262 81.2494 119.262 79.0934ZM120.289 79.0787C120.289 80.7507 121.345 81.9094 122.87 81.9094C124.381 81.9094 125.452 80.7507 125.452 79.0787C125.452 77.436 124.381 76.2627 122.87 76.2627C121.345 76.2627 120.289 77.436 120.289 79.0787ZM128.816 82.6427H127.804V75.544H128.684L128.801 76.556C129.153 75.808 129.945 75.3534 130.942 75.3534C132.057 75.3534 132.893 75.94 133.23 76.864C133.553 75.94 134.418 75.3534 135.562 75.3534C137.102 75.3534 138.114 76.3507 138.114 77.9934V82.6427H137.132V78.1987C137.132 76.9814 136.457 76.2627 135.372 76.2627C134.184 76.2627 133.48 77.1574 133.48 78.2574V82.6427H132.482V78.184C132.482 76.9814 131.793 76.2774 130.722 76.2774C129.534 76.2774 128.816 77.1574 128.816 78.2427V82.6427ZM139.857 85.7374V75.544H140.737L140.839 76.9814C141.338 75.8814 142.335 75.3534 143.523 75.3534C145.577 75.3534 146.809 76.9227 146.809 79.064C146.809 81.2054 145.621 82.8187 143.523 82.8187C142.321 82.8187 141.367 82.3054 140.869 81.2787V85.7374H139.857ZM140.883 79.0934C140.883 80.7214 141.793 81.9094 143.347 81.9094C144.887 81.9094 145.782 80.7214 145.782 79.0934C145.782 77.4507 144.887 76.2774 143.347 76.2774C141.793 76.2774 140.883 77.4507 140.883 79.0934ZM150.167 82.8187C148.656 82.8187 147.762 81.968 147.762 80.7214C147.762 79.416 148.759 78.5947 150.416 78.4627L152.763 78.272V78.0374C152.763 76.644 151.927 76.204 150.886 76.204C149.654 76.204 148.92 76.7614 148.92 77.7147H147.996C147.996 76.2774 149.17 75.3534 150.915 75.3534C152.558 75.3534 153.76 76.1747 153.76 78.052V82.6427H152.91L152.778 81.396C152.338 82.2907 151.37 82.8187 150.167 82.8187ZM150.402 81.9974C151.898 81.9974 152.763 80.956 152.763 79.416V79.0347L150.666 79.196C149.331 79.3134 148.788 79.9 148.788 80.692C148.788 81.5574 149.434 81.9974 150.402 81.9974ZM156.51 82.6427H155.498V75.544H156.378L156.525 76.776C156.994 75.8667 157.933 75.3534 158.959 75.3534C160.91 75.3534 161.717 76.512 161.717 78.3014V82.6427H160.705V78.5214C160.705 76.864 159.957 76.2774 158.783 76.2774C157.331 76.2774 156.51 77.3334 156.51 78.932V82.6427ZM163.939 73.5934C163.528 73.5934 163.191 73.256 163.191 72.8454C163.191 72.4347 163.528 72.0827 163.939 72.0827C164.35 72.0827 164.702 72.4347 164.702 72.8454C164.702 73.256 164.35 73.5934 163.939 73.5934ZM163.44 82.6427V75.544H164.452V82.6427H163.44ZM165.771 79.0934C165.771 76.9227 167.296 75.3534 169.379 75.3534C171.461 75.3534 172.987 76.9227 172.987 79.0934C172.987 81.2494 171.461 82.8187 169.379 82.8187C167.296 82.8187 165.771 81.2494 165.771 79.0934ZM166.797 79.0787C166.797 80.7507 167.853 81.9094 169.379 81.9094C170.889 81.9094 171.96 80.7507 171.96 79.0787C171.96 77.436 170.889 76.2627 169.379 76.2627C167.853 76.2627 166.797 77.436 166.797 79.0787ZM175.324 82.6427H174.312V75.544H175.192L175.339 76.776C175.808 75.8667 176.747 75.3534 177.773 75.3534C179.724 75.3534 180.531 76.512 180.531 78.3014V82.6427H179.519V78.5214C179.519 76.864 178.771 76.2774 177.597 76.2774C176.145 76.2774 175.324 77.3334 175.324 78.932V82.6427ZM186.029 85.7374V75.544H186.909L187.011 76.9814C187.51 75.8814 188.507 75.3534 189.695 75.3534C191.749 75.3534 192.981 76.9227 192.981 79.064C192.981 81.2054 191.793 82.8187 189.695 82.8187C188.493 82.8187 187.539 82.3054 187.041 81.2787V85.7374H186.029ZM187.055 79.0934C187.055 80.7214 187.965 81.9094 189.519 81.9094C191.059 81.9094 191.954 80.7214 191.954 79.0934C191.954 77.4507 191.059 76.2774 189.519 76.2774C187.965 76.2774 187.055 77.4507 187.055 79.0934ZM193.802 79.0934C193.802 76.9227 195.327 75.3534 197.41 75.3534C199.492 75.3534 201.018 76.9227 201.018 79.0934C201.018 81.2494 199.492 82.8187 197.41 82.8187C195.327 82.8187 193.802 81.2494 193.802 79.0934ZM194.828 79.0787C194.828 80.7507 195.884 81.9094 197.41 81.9094C198.92 81.9094 199.991 80.7507 199.991 79.0787C199.991 77.436 198.92 76.2627 197.41 76.2627C195.884 76.2627 194.828 77.436 194.828 79.0787ZM203.524 82.6427L201.177 75.544H202.219L203.612 79.8267C203.773 80.296 203.905 80.78 204.052 81.352C204.169 80.78 204.404 80.0614 204.477 79.8267L205.885 75.544H206.927L208.32 79.8267C208.452 80.208 208.628 80.824 208.76 81.352C208.907 80.7654 208.936 80.5894 209.185 79.8267L210.593 75.544H211.649L209.244 82.6427H208.261L206.795 78.184C206.619 77.656 206.501 77.216 206.413 76.7907C206.311 77.172 206.193 77.5974 206.003 78.184L204.536 82.6427H203.524ZM215.282 82.8187C213.2 82.8187 211.806 81.3227 211.806 79.0934C211.806 76.8787 213.185 75.3534 215.209 75.3534C217.13 75.3534 218.436 76.7174 218.436 78.7267V79.2254H212.789C212.862 80.956 213.772 81.9534 215.297 81.9534C216.456 81.9534 217.204 81.4547 217.468 80.516H218.436C218.054 82.012 216.954 82.8187 215.282 82.8187ZM215.209 76.2187C213.874 76.2187 212.994 77.0987 212.818 78.492H217.424C217.424 77.128 216.544 76.2187 215.209 76.2187ZM223.471 75.456V76.3654H222.914C221.608 76.3654 220.772 77.2454 220.772 78.5947V82.6427H219.76V75.544H220.714L220.787 76.644C221.066 75.8814 221.814 75.3827 222.811 75.3827C223.031 75.3827 223.222 75.3974 223.471 75.456ZM223.922 80.648H224.89C224.89 81.4694 225.506 81.9827 226.503 81.9827C227.603 81.9827 228.248 81.5134 228.248 80.7507C228.248 80.164 227.955 79.8267 227.119 79.6214L225.902 79.3134C224.67 79.0054 224.068 78.36 224.068 77.392C224.068 76.1454 225.11 75.3534 226.635 75.3534C228.131 75.3534 229.099 76.1747 229.143 77.4947H228.16C228.131 76.6734 227.559 76.1894 226.606 76.1894C225.608 76.1894 225.051 76.6147 225.051 77.3774C225.051 77.92 225.432 78.3014 226.21 78.492L227.427 78.8C228.659 79.108 229.216 79.68 229.216 80.7067C229.216 81.9827 228.131 82.8187 226.518 82.8187C224.919 82.8187 223.922 81.968 223.922 80.648Z" fill="white" fill-opacity="0.8"/>
<path d="M241.619 31.9285C241.619 26.1426 246.309 21.4523 252.095 21.4523H408.572C414.357 21.4523 419.048 26.1426 419.048 31.9285V52.9285C419.048 58.7143 414.357 63.4047 408.572 63.4047H252.095C246.309 63.4047 241.619 58.7143 241.619 52.9285V31.9285Z" fill="white"/>
<path d="M252.096 21.9757H408.571C414.068 21.9757 418.523 26.4323 418.523 31.9288V52.9288C418.523 58.4252 414.068 62.881 408.571 62.881H252.096C246.599 62.881 242.143 58.4252 242.143 52.9288V31.9288C242.143 26.4323 246.599 21.9757 252.096 21.9757Z" stroke="white" stroke-opacity="0.3" stroke-width="1.04762"/>
<path d="M267.922 44.1591V37.3245H269.36V44.0711C269.36 45.7725 270.298 46.7111 271.985 46.7111C273.657 46.7111 274.581 45.7578 274.581 44.0711V37.3245H276.033V44.1591C276.033 46.5938 274.478 48.1045 271.985 48.1045C269.477 48.1045 267.922 46.6085 267.922 44.1591ZM278.1 51.1405V40.7565H279.347L279.449 42.0471C279.933 41.0645 280.901 40.5511 282.045 40.5511C284.099 40.5511 285.375 42.0911 285.375 44.2911C285.375 46.4765 284.172 48.1191 282.045 48.1191C280.901 48.1191 279.948 47.6351 279.479 46.7551V51.1405H278.1ZM279.493 44.3498C279.493 45.8165 280.344 46.8725 281.752 46.8725C283.16 46.8725 283.996 45.8165 283.996 44.3498C283.996 42.8685 283.16 41.8125 281.752 41.8125C280.344 41.8125 279.493 42.8538 279.493 44.3498ZM286.352 44.1591C286.352 42.1351 287.657 40.5511 289.74 40.5511C290.898 40.5511 291.793 41.0791 292.248 41.9738L292.35 40.7565H293.582V47.6351C293.582 49.8938 292.189 51.3311 289.989 51.3311C288.038 51.3311 286.704 50.2311 286.44 48.4125H287.818C287.994 49.4685 288.786 50.0845 289.989 50.0845C291.338 50.0845 292.218 49.2045 292.218 47.8405V46.4031C291.749 47.2391 290.81 47.7378 289.681 47.7378C287.642 47.7378 286.352 46.1685 286.352 44.1591ZM287.73 44.1298C287.73 45.4791 288.566 46.5351 289.916 46.5351C291.309 46.5351 292.16 45.5378 292.16 44.1298C292.16 42.7511 291.338 41.7538 289.93 41.7538C288.552 41.7538 287.73 42.8098 287.73 44.1298ZM299.591 40.6978V41.9591H298.975C297.669 41.9591 296.863 42.7511 296.863 44.1298V47.9285H295.484V40.7711H296.775L296.863 41.8565C297.156 41.1085 297.875 40.6098 298.857 40.6098C299.107 40.6098 299.312 40.6391 299.591 40.6978ZM302.607 48.1045C301.067 48.1045 300.157 47.2391 300.157 45.9338C300.157 44.6138 301.14 43.7925 302.827 43.6605L305.085 43.4845V43.2791C305.085 42.0765 304.367 41.6511 303.399 41.6511C302.24 41.6511 301.58 42.1645 301.58 43.0298H300.377C300.377 41.5338 301.609 40.5511 303.457 40.5511C305.232 40.5511 306.435 41.4898 306.435 43.4258V47.9285H305.261L305.115 46.7698C304.748 47.5911 303.765 48.1045 302.607 48.1045ZM303.003 47.0338C304.308 47.0338 305.1 46.1831 305.1 44.8338V44.4525L303.267 44.5991C302.049 44.7165 301.551 45.1858 301.551 45.8898C301.551 46.6525 302.108 47.0338 303.003 47.0338ZM311.131 48.1045C309.048 48.1045 307.787 46.5498 307.787 44.3645C307.787 42.1645 309.063 40.5511 311.189 40.5511C312.289 40.5511 313.213 41.0351 313.697 41.9151V37.1338H315.061V47.9285H313.829L313.712 46.6231C313.243 47.6058 312.275 48.1045 311.131 48.1045ZM311.409 46.8578C312.817 46.8578 313.683 45.8165 313.683 44.3205C313.683 42.8538 312.817 41.7978 311.409 41.7978C310.001 41.7978 309.18 42.8538 309.18 44.3205C309.18 45.8018 310.001 46.8578 311.409 46.8578ZM320.057 48.1045C317.945 48.1045 316.493 46.5791 316.493 44.3498C316.493 42.1058 317.916 40.5511 319.998 40.5511C322.037 40.5511 323.372 41.9591 323.372 44.0858V44.5991L317.828 44.6138C317.93 46.1245 318.722 46.9605 320.086 46.9605C321.157 46.9605 321.861 46.5205 322.096 45.6991H323.386C323.034 47.2391 321.832 48.1045 320.057 48.1045ZM319.998 41.7098C318.796 41.7098 318.033 42.4285 317.857 43.6898H321.993C321.993 42.5018 321.216 41.7098 319.998 41.7098ZM333.102 44.1445H330.418V47.9285H328.98V37.3245H333.102C335.184 37.3245 336.519 38.6885 336.519 40.7271C336.519 42.7071 335.17 44.1445 333.102 44.1445ZM332.852 38.6151H330.418V42.8538H332.794C334.216 42.8538 335.008 42.0178 335.008 40.7125C335.008 39.3778 334.202 38.6151 332.852 38.6151ZM337.026 44.3351C337.026 42.1205 338.61 40.5658 340.766 40.5658C342.907 40.5658 344.491 42.1205 344.491 44.3351C344.491 46.5498 342.907 48.1045 340.766 48.1045C338.61 48.1045 337.026 46.5498 337.026 44.3351ZM338.419 44.3351C338.419 45.8311 339.372 46.8725 340.766 46.8725C342.144 46.8725 343.112 45.8311 343.112 44.3351C343.112 42.8391 342.144 41.7978 340.766 41.7978C339.372 41.7978 338.419 42.8391 338.419 44.3351ZM347.14 47.9285L344.793 40.7565H346.216L347.404 44.4818C347.565 45.0098 347.712 45.5525 347.844 46.1831C347.961 45.5525 348.152 44.9511 348.313 44.4818L349.516 40.7565H350.924L352.112 44.4818C352.229 44.8338 352.464 45.6698 352.581 46.1831C352.698 45.6111 352.83 45.1125 353.036 44.4818L354.238 40.7565H355.676L353.226 47.9285H351.921L350.674 44.0858C350.44 43.3671 350.293 42.8098 350.22 42.4138C350.146 42.7658 350.014 43.2351 349.75 44.1005L348.504 47.9285H347.14ZM359.535 48.1045C357.423 48.1045 355.971 46.5791 355.971 44.3498C355.971 42.1058 357.393 40.5511 359.476 40.5511C361.515 40.5511 362.849 41.9591 362.849 44.0858V44.5991L357.305 44.6138C357.408 46.1245 358.2 46.9605 359.564 46.9605C360.635 46.9605 361.339 46.5205 361.573 45.6991H362.864C362.512 47.2391 361.309 48.1045 359.535 48.1045ZM359.476 41.7098C358.273 41.7098 357.511 42.4285 357.335 43.6898H361.471C361.471 42.5018 360.693 41.7098 359.476 41.7098ZM368.408 40.6978V41.9591H367.792C366.487 41.9591 365.68 42.7511 365.68 44.1298V47.9285H364.301V40.7711H365.592L365.68 41.8565C365.973 41.1085 366.692 40.6098 367.675 40.6098C367.924 40.6098 368.129 40.6391 368.408 40.6978Z" fill="#111111"/>
<circle cx="387.619" cy="42.4284" r="8.73016" stroke="#111111" stroke-width="1.30952"/>
<path d="M384.24 42.0772L387.731 37.3718C388.004 37.0038 388.516 37.2329 388.516 37.7231V41.365C388.516 41.6587 388.716 41.8967 388.964 41.8967H390.662C391.048 41.8967 391.253 42.4362 390.998 42.7796L387.507 47.485C387.234 47.853 386.722 47.6239 386.722 47.1337V43.4918C386.722 43.1981 386.522 42.9601 386.274 42.9601H384.576C384.19 42.9601 383.985 42.4206 384.24 42.0772Z" stroke="#111111" stroke-width="1.30952" stroke-linecap="round" stroke-linejoin="round"/>
<g clip-path="url(#clip0_2213_3828)">
<path d="M20.9531 113.881C20.9531 108.095 25.6435 103.405 31.4293 103.405H408.572C414.358 103.405 419.048 108.095 419.048 113.881V179.071C419.048 184.857 414.358 189.548 408.572 189.548H31.4293C25.6435 189.548 20.9531 184.857 20.9531 179.071V113.881Z" fill="white" fill-opacity="0.03"/>
<rect x="33.5254" y="118.071" width="29.3333" height="29.3333" rx="7.12963" fill="url(#paint3_linear_2213_3828)" fill-opacity="0.7"/>
<path d="M48.4985 130.294L46.9707 132.738H49.4151L47.8874 135.182" stroke="#3EDC81" stroke-width="0.916667" stroke-linecap="round" stroke-linejoin="round"/>
<path d="M53.6999 134.045C54.0188 133.958 54.1783 133.914 54.2413 133.83C54.3043 133.746 54.3043 133.611 54.3043 133.341V132.135C54.3043 131.865 54.3043 131.73 54.2413 131.646C54.1783 131.563 54.0188 131.519 53.6999 131.431C52.508 131.103 51.762 129.831 52.0696 128.623C52.1542 128.291 52.1965 128.125 52.1561 128.027C52.1157 127.93 51.9998 127.863 51.768 127.729L50.714 127.118C50.4865 126.986 50.3728 126.92 50.2707 126.934C50.1686 126.948 50.0535 127.066 49.8231 127.3C48.9314 128.208 47.4559 128.208 46.5641 127.3C46.3338 127.066 46.2186 126.948 46.1165 126.934C46.0145 126.92 45.9007 126.986 45.6732 127.118L44.6193 127.729C44.3875 127.863 44.2716 127.93 44.2312 128.027C44.1908 128.125 44.2331 128.291 44.3176 128.623C44.6251 129.831 43.8785 131.103 42.6864 131.431C42.3675 131.519 42.208 131.563 42.145 131.646C42.082 131.73 42.082 131.865 42.082 132.135V133.341C42.082 133.611 42.082 133.746 42.145 133.83C42.208 133.914 42.3675 133.958 42.6864 134.045C43.8783 134.373 44.6243 135.645 44.3167 136.853C44.2321 137.185 44.1898 137.351 44.2302 137.449C44.2706 137.546 44.3865 137.613 44.6183 137.748L45.6723 138.358C45.8998 138.49 46.0135 138.556 46.1156 138.542C46.2177 138.528 46.3328 138.41 46.5631 138.176C47.4554 137.268 48.9319 137.268 49.8241 138.176C50.0544 138.41 50.1696 138.528 50.2716 138.542C50.3737 138.556 50.4875 138.49 50.715 138.358L51.769 137.747C52.0008 137.613 52.1167 137.546 52.1571 137.449C52.1975 137.351 52.1552 137.185 52.0705 136.853C51.7628 135.645 52.5082 134.373 53.6999 134.045Z" stroke="#3EDC81" stroke-width="0.916667" stroke-linecap="round"/>
<path d="M73.1511 139.238H71.4414L75.8665 127.119H77.6936L82.1355 139.238H80.409L79.3195 136.221H74.2239L73.1511 139.238ZM76.5705 129.734L74.7267 134.796H78.8334L76.9728 129.734C76.889 129.499 76.8052 129.214 76.7717 129.03C76.7381 129.198 76.6543 129.483 76.5705 129.734ZM85.0539 127.119V139.238H83.4112V127.119H85.0539ZM96.5029 134.913H93.4355V139.238H91.7928V127.119H96.5029C98.8831 127.119 100.408 128.678 100.408 131.008C100.408 133.271 98.8663 134.913 96.5029 134.913ZM96.218 128.594H93.4355V133.438H96.1509C97.7768 133.438 98.682 132.483 98.682 130.991C98.682 129.466 97.7601 128.594 96.218 128.594ZM100.753 135.131C100.753 132.6 102.563 130.824 105.027 130.824C107.474 130.824 109.285 132.6 109.285 135.131C109.285 137.662 107.474 139.439 105.027 139.439C102.563 139.439 100.753 137.662 100.753 135.131ZM102.345 135.131C102.345 136.841 103.435 138.031 105.027 138.031C106.603 138.031 107.709 136.841 107.709 135.131C107.709 133.422 106.603 132.232 105.027 132.232C103.435 132.232 102.345 133.422 102.345 135.131ZM112.077 139.238L109.395 131.041H111.021L112.379 135.299C112.563 135.902 112.731 136.523 112.882 137.243C113.016 136.523 113.234 135.835 113.418 135.299L114.792 131.041H116.402L117.759 135.299C117.893 135.701 118.162 136.657 118.296 137.243C118.43 136.59 118.581 136.02 118.815 135.299L120.19 131.041H121.832L119.033 139.238H117.541L116.117 134.846C115.848 134.025 115.681 133.388 115.597 132.936C115.513 133.338 115.362 133.874 115.061 134.863L113.636 139.238H112.077ZM126.008 139.439C123.594 139.439 121.935 137.696 121.935 135.148C121.935 132.584 123.561 130.807 125.941 130.807C128.271 130.807 129.796 132.416 129.796 134.846V135.433L123.46 135.45C123.578 137.176 124.483 138.132 126.042 138.132C127.265 138.132 128.07 137.629 128.338 136.69H129.813C129.411 138.45 128.036 139.439 126.008 139.439ZM125.941 132.131C124.567 132.131 123.695 132.952 123.494 134.394H128.221C128.221 133.036 127.332 132.131 125.941 132.131ZM135.914 130.974V132.416H135.21C133.718 132.416 132.796 133.321 132.796 134.897V139.238H131.221V131.058H132.696L132.796 132.299C133.132 131.444 133.953 130.874 135.076 130.874C135.361 130.874 135.596 130.907 135.914 130.974ZM143.216 127.119V137.713H148.546V139.238H141.573V127.119H143.216ZM153.1 139.439C150.686 139.439 149.027 137.696 149.027 135.148C149.027 132.584 150.653 130.807 153.033 130.807C155.363 130.807 156.888 132.416 156.888 134.846V135.433L150.552 135.45C150.67 137.176 151.575 138.132 153.134 138.132C154.357 138.132 155.162 137.629 155.43 136.69H156.905C156.503 138.45 155.128 139.439 153.1 139.439ZM153.033 132.131C151.659 132.131 150.787 132.952 150.586 134.394H155.313C155.313 133.036 154.424 132.131 153.033 132.131ZM160.331 139.238L157.029 131.041H158.705L160.499 135.617C160.784 136.389 161.018 137.076 161.152 137.579C161.287 137.042 161.555 136.338 161.84 135.617L163.667 131.041H165.309L161.89 139.238H160.331ZM169.388 139.439C166.974 139.439 165.315 137.696 165.315 135.148C165.315 132.584 166.941 130.807 169.321 130.807C171.651 130.807 173.176 132.416 173.176 134.846V135.433L166.84 135.45C166.958 137.176 167.863 138.132 169.422 138.132C170.645 138.132 171.45 137.629 171.718 136.69H173.193C172.791 138.45 171.416 139.439 169.388 139.439ZM169.321 132.131C167.946 132.131 167.075 132.952 166.874 134.394H171.601C171.601 133.036 170.712 132.131 169.321 132.131ZM176.21 139.238H174.634V126.901H176.21V139.238Z" fill="white"/>
<rect x="33.5254" y="162.191" width="217.905" height="8.38095" rx="4.19048" fill="white" fill-opacity="0.2"/>
<rect x="184.383" y="160.095" width="12.5714" height="12.5714" rx="6.28571" fill="white"/>
<circle cx="190.668" cy="166.381" r="3.14286" fill="#4A4A4A"/>
<path d="M263.306 164.671L265.43 161.792H266.863L264.588 164.809C264.902 164.683 265.229 164.62 265.543 164.62C267.429 164.62 268.699 165.978 268.699 167.776C268.699 169.674 267.266 171.032 265.392 171.032C263.507 171.032 262.048 169.611 262.048 167.776C262.048 166.695 262.375 165.94 263.306 164.671ZM263.306 167.788C263.306 169.033 264.16 169.926 265.392 169.926C266.599 169.926 267.454 169.033 267.454 167.788C267.454 166.544 266.599 165.664 265.392 165.664C264.16 165.664 263.306 166.544 263.306 167.788ZM269.583 166.343C269.583 163.527 271.041 161.616 273.329 161.616C275.605 161.616 277.063 163.527 277.063 166.343C277.063 169.171 275.667 171.044 273.329 171.044C270.978 171.044 269.583 169.171 269.583 166.343ZM270.802 166.343C270.802 168.58 271.733 169.938 273.329 169.938C274.926 169.938 275.843 168.58 275.843 166.343C275.843 164.08 274.926 162.722 273.329 162.722C271.733 162.722 270.802 164.08 270.802 166.343ZM282.548 163.942C282.548 165.287 281.593 166.255 280.248 166.255C278.915 166.255 277.96 165.287 277.96 163.942C277.96 162.584 278.915 161.616 280.248 161.616C281.593 161.616 282.548 162.584 282.548 163.942ZM287.338 161.804L280.436 170.881H279.23L286.131 161.804H287.338ZM281.58 163.942C281.58 163.124 281.04 162.559 280.248 162.559C279.468 162.559 278.928 163.124 278.928 163.942C278.928 164.746 279.468 165.312 280.248 165.312C281.027 165.312 281.58 164.746 281.58 163.942ZM288.633 168.731C288.633 170.076 287.665 171.044 286.332 171.044C285 171.044 284.032 170.076 284.032 168.731C284.032 167.374 285 166.418 286.332 166.418C287.665 166.418 288.633 167.374 288.633 168.731ZM287.652 168.731C287.652 167.914 287.124 167.348 286.332 167.348C285.553 167.348 285.012 167.914 285.012 168.731C285.012 169.536 285.553 170.102 286.332 170.102C287.112 170.102 287.652 169.536 287.652 168.731Z" fill="white"/>
<path opacity="0.1" d="M308.927 160.574C303.961 159.75 301.977 152.782 297.523 147.789V189.31H421.25V140.118C419.523 143.583 418.136 144.974 415.833 145.552C411.373 146.67 410.335 133.384 405.855 132.767C399.199 131.85 398.837 152.989 392.314 156.099C383.441 160.33 380.114 136.718 371.075 135.005C356.613 132.263 352.227 177.057 337.863 172.399C330.274 169.938 327.855 153 320.188 153.222C315.608 153.355 313.495 161.331 308.927 160.574Z" fill="url(#paint4_linear_2213_3828)"/>
<path d="M297.523 147.323C301.977 152.161 303.961 158.913 308.927 159.711C313.495 160.445 315.608 152.717 320.188 152.588C327.855 152.373 330.274 168.786 337.863 171.171C352.227 175.685 356.613 132.278 371.075 134.934C380.114 136.595 383.441 159.475 392.314 155.375C398.837 152.361 399.199 131.878 405.855 132.766C410.335 133.364 411.373 146.238 415.833 145.155C418.136 144.595 419.523 143.247 421.25 139.89" stroke="url(#paint5_linear_2213_3828)" stroke-width="2.07702"/>
<g filter="url(#filter0_d_2213_3828)">
<circle cx="374.886" cy="137.111" r="4.37267" fill="white"/>
<circle cx="374.886" cy="137.111" r="3.34381" stroke="url(#paint6_linear_2213_3828)" stroke-width="2.05773"/>
</g>
</g>
<path d="M31.4297 103.928H408.572C414.069 103.928 418.524 108.385 418.524 113.881V179.072C418.524 184.568 414.069 189.024 408.572 189.024H31.4297C25.9332 189.024 21.4767 184.568 21.4766 179.072V113.881C21.4766 108.385 25.9331 103.928 31.4297 103.928Z" stroke="white" stroke-opacity="0.02" stroke-width="1.04762"/>
<rect x="33.5254" y="206.31" width="29.3333" height="29.3333" rx="7.12963" fill="url(#paint7_linear_2213_3828)" fill-opacity="0.7"/>
<g clip-path="url(#clip1_2213_3828)">
<path d="M43.3045 217.921H45.1378C45.2999 217.921 45.4553 217.856 45.5699 217.742C45.6845 217.627 45.7489 217.472 45.7489 217.31V216.699C45.7489 216.375 45.8777 216.064 46.1069 215.834C46.3361 215.605 46.647 215.476 46.9711 215.476C47.2953 215.476 47.6062 215.605 47.8354 215.834C48.0646 216.064 48.1934 216.375 48.1934 216.699V217.31C48.1934 217.472 48.2577 217.627 48.3723 217.742C48.487 217.856 48.6424 217.921 48.8045 217.921H50.6378C50.7999 217.921 50.9553 217.985 51.0699 218.1C51.1845 218.214 51.2489 218.37 51.2489 218.532V220.365C51.2489 220.527 51.3133 220.683 51.4279 220.797C51.5425 220.912 51.6979 220.976 51.86 220.976H52.4711C52.7953 220.976 53.1062 221.105 53.3354 221.334C53.5646 221.564 53.6934 221.875 53.6934 222.199C53.6934 222.523 53.5646 222.834 53.3354 223.063C53.1062 223.292 52.7953 223.421 52.4711 223.421H51.86C51.6979 223.421 51.5425 223.485 51.4279 223.6C51.3133 223.714 51.2489 223.87 51.2489 224.032V225.865C51.2489 226.027 51.1845 226.183 51.0699 226.297C50.9553 226.412 50.7999 226.476 50.6378 226.476H48.8045C48.6424 226.476 48.487 226.412 48.3723 226.297C48.2577 226.183 48.1934 226.027 48.1934 225.865V225.254C48.1934 224.93 48.0646 224.619 47.8354 224.39C47.6062 224.161 47.2953 224.032 46.9711 224.032C46.647 224.032 46.3361 224.161 46.1069 224.39C45.8777 224.619 45.7489 224.93 45.7489 225.254V225.865C45.7489 226.027 45.6845 226.183 45.5699 226.297C45.4553 226.412 45.2999 226.476 45.1378 226.476H43.3045C43.1424 226.476 42.987 226.412 42.8723 226.297C42.7577 226.183 42.6934 226.027 42.6934 225.865V224.032C42.6934 223.87 42.7577 223.714 42.8723 223.6C42.987 223.485 43.1424 223.421 43.3045 223.421H43.9156C44.2397 223.421 44.5506 223.292 44.7798 223.063C45.009 222.834 45.1378 222.523 45.1378 222.199C45.1378 221.875 45.009 221.564 44.7798 221.334C44.5506 221.105 44.2397 220.976 43.9156 220.976H43.3045C43.1424 220.976 42.987 220.912 42.8723 220.797C42.7577 220.683 42.6934 220.527 42.6934 220.365V218.532C42.6934 218.37 42.7577 218.214 42.8723 218.1C42.987 217.985 43.1424 217.921 43.3045 217.921Z" stroke="#3EDC81" stroke-width="1.30952" stroke-linecap="round" stroke-linejoin="round"/>
</g>
<path d="M73.1511 227.476H71.4414L75.8665 215.357H77.6936L82.1355 227.476H80.409L79.3195 224.459H74.2239L73.1511 227.476ZM76.5705 217.972L74.7267 223.034H78.8334L76.9728 217.972C76.889 217.738 76.8052 217.453 76.7717 217.268C76.7381 217.436 76.6543 217.721 76.5705 217.972ZM82.2956 223.386C82.2956 220.822 83.9215 219.045 86.3185 219.045C88.3802 219.045 89.8217 220.218 90.1067 222.045H88.5311C88.2629 221.006 87.4248 220.453 86.3688 220.453C84.877 220.453 83.8545 221.593 83.8545 223.37C83.8545 225.13 84.8099 226.269 86.3017 226.269C87.4248 226.269 88.2629 225.683 88.5478 224.71H90.1234C89.805 226.487 88.2796 227.677 86.3017 227.677C83.888 227.677 82.2956 225.968 82.2956 223.386ZM93.7638 227.476H92.1882V220.604H90.579V219.28H92.1882V216.715H93.7638V219.28H95.3729V220.604H93.7638V227.476ZM97.2228 217.335C96.6529 217.335 96.1835 216.866 96.1835 216.296C96.1835 215.709 96.6529 215.257 97.2228 215.257C97.7927 215.257 98.262 215.709 98.262 216.296C98.262 216.866 97.7927 217.335 97.2228 217.335ZM96.4517 227.476V219.28H98.0273V227.476H96.4517ZM102.276 227.476L98.9739 219.28H100.65L102.444 223.856C102.729 224.627 102.963 225.314 103.097 225.817C103.231 225.28 103.5 224.576 103.785 223.856L105.612 219.28H107.254L103.835 227.476H102.276ZM111.333 227.677C108.919 227.677 107.26 225.934 107.26 223.386C107.26 220.822 108.886 219.045 111.266 219.045C113.596 219.045 115.121 220.654 115.121 223.085V223.671L108.785 223.688C108.902 225.414 109.808 226.37 111.366 226.37C112.59 226.37 113.395 225.867 113.663 224.928H115.138C114.736 226.688 113.361 227.677 111.333 227.677ZM111.266 220.369C109.891 220.369 109.02 221.19 108.819 222.632H113.545C113.545 221.274 112.657 220.369 111.266 220.369ZM121.565 227.476H119.855L124.28 215.357H126.107L130.549 227.476H128.823L127.733 224.459H122.638L121.565 227.476ZM124.984 217.972L123.14 223.034H127.247L125.387 217.972C125.303 217.738 125.219 217.453 125.185 217.268C125.152 217.436 125.068 217.721 124.984 217.972ZM134.531 227.677C132.151 227.677 130.709 225.901 130.709 223.403C130.709 220.889 132.168 219.045 134.598 219.045C135.855 219.045 136.911 219.598 137.464 220.604V215.139H139.023V227.476H137.615L137.481 225.984C136.945 227.107 135.839 227.677 134.531 227.677ZM134.85 226.253C136.459 226.253 137.448 225.062 137.448 223.353C137.448 221.677 136.459 220.47 134.85 220.47C133.24 220.47 132.302 221.677 132.302 223.353C132.302 225.046 133.24 226.253 134.85 226.253ZM144.246 227.677C141.866 227.677 140.425 225.901 140.425 223.403C140.425 220.889 141.883 219.045 144.314 219.045C145.571 219.045 146.627 219.598 147.18 220.604V215.139H148.739V227.476H147.331L147.197 225.984C146.66 227.107 145.554 227.677 144.246 227.677ZM144.565 226.253C146.174 226.253 147.163 225.062 147.163 223.353C147.163 221.677 146.174 220.47 144.565 220.47C142.956 220.47 142.017 221.677 142.017 223.353C142.017 225.046 142.956 226.253 144.565 226.253ZM150.593 223.738V222.33H155.705V223.738H150.593ZM168.757 221.408C168.757 225.096 166.343 227.677 162.907 227.677C159.488 227.677 157.107 225.096 157.107 221.408C157.107 217.738 159.504 215.139 162.924 215.139C166.36 215.139 168.757 217.721 168.757 221.408ZM167.03 221.408C167.03 218.592 165.388 216.732 162.924 216.732C160.46 216.732 158.834 218.592 158.834 221.408C158.834 224.224 160.46 226.102 162.924 226.102C165.388 226.102 167.03 224.208 167.03 221.408ZM171.83 227.476H170.255V219.28H171.679L171.847 220.537C172.367 219.598 173.406 219.045 174.562 219.045C176.725 219.045 177.714 220.369 177.714 222.464V227.476H176.138V222.816C176.138 221.157 175.367 220.486 174.16 220.486C172.685 220.486 171.83 221.542 171.83 223.135V227.476ZM178.792 225.096H180.301C180.301 225.934 180.937 226.437 181.977 226.437C183.083 226.437 183.72 225.984 183.72 225.23C183.72 224.677 183.452 224.342 182.597 224.124L181.155 223.789C179.697 223.437 179.01 222.716 179.01 221.509C179.01 220 180.284 219.045 182.094 219.045C183.888 219.045 185.061 220.051 185.094 221.61H183.586C183.552 220.788 182.999 220.269 182.044 220.269C181.055 220.269 180.502 220.704 180.502 221.459C180.502 222.012 180.904 222.381 181.709 222.582L183.15 222.934C184.541 223.269 185.229 223.906 185.229 225.13C185.229 226.688 183.888 227.677 181.943 227.677C180.016 227.677 178.792 226.655 178.792 225.096Z" fill="white"/>
<path d="M33.5254 273.357C33.5254 267.49 33.5254 264.556 34.6672 262.315C35.6716 260.344 37.2743 258.742 39.2455 257.737C41.4865 256.595 44.4201 256.595 50.2873 256.595H119.668C125.535 256.595 128.469 256.595 130.71 257.737C132.681 258.742 134.284 260.344 135.288 262.315C136.43 264.556 136.43 267.49 136.43 273.357V277.548C136.43 283.415 136.43 286.349 135.288 288.59C134.284 290.561 132.681 292.163 130.71 293.168C128.469 294.31 125.535 294.31 119.668 294.31H50.2873C44.4201 294.31 41.4865 294.31 39.2455 293.168C37.2743 292.163 35.6716 290.561 34.6672 288.59C33.5254 286.349 33.5254 283.415 33.5254 277.548V273.357Z" fill="url(#paint8_linear_2213_3828)" fill-opacity="0.5"/>
<path d="M48.0182 268.904C47.5538 268.904 47.0976 269.027 46.6966 269.262C46.2955 269.496 45.964 269.832 45.7359 270.237C45.5079 270.642 45.3915 271.1 45.3987 271.564C45.406 272.028 45.5366 272.483 45.7772 272.88C45.1796 272.995 44.6409 273.315 44.2536 273.785C43.8662 274.254 43.6543 274.844 43.6543 275.452C43.6543 276.061 43.8662 276.65 44.2536 277.12C44.6409 277.589 45.1796 277.909 45.7772 278.024M48.0182 268.904C48.0182 268.325 48.2482 267.77 48.6575 267.361C49.0668 266.952 49.6219 266.722 50.2008 266.722C50.7796 266.722 51.3347 266.952 51.744 267.361C52.1533 267.77 52.3833 268.325 52.3833 268.904M48.0182 268.904C48.0182 269.618 48.3613 270.252 48.8912 270.65M45.7772 278.024C45.5368 278.422 45.4064 278.876 45.3993 279.34C45.3921 279.804 45.5085 280.262 45.7366 280.667C45.9646 281.071 46.2961 281.408 46.697 281.642C47.0979 281.876 47.5539 281.999 48.0182 281.999C48.0182 282.578 48.2482 283.133 48.6575 283.543C49.0668 283.952 49.6219 284.182 50.2008 284.182C50.7796 284.182 51.3347 283.952 51.744 283.543C52.1533 283.133 52.3833 282.578 52.3833 281.999M45.7772 278.024C46.0905 277.506 46.574 277.112 47.1452 276.91M52.3833 268.904V281.999M52.3833 268.904C52.3833 268.325 52.6132 267.77 53.0225 267.361C53.4319 266.952 53.987 266.722 54.5658 266.722C55.1447 266.722 55.6998 266.952 56.1091 267.361C56.5184 267.77 56.7484 268.325 56.7484 268.904C57.2128 268.904 57.6689 269.027 58.07 269.262C58.4711 269.496 58.8026 269.832 59.0307 270.237C59.2587 270.642 59.3751 271.1 59.3679 271.564C59.3606 272.028 59.23 272.483 58.9894 272.88M52.3833 281.999C52.3833 282.578 52.6132 283.133 53.0225 283.543C53.4319 283.952 53.987 284.182 54.5658 284.182C55.1447 284.182 55.6998 283.952 56.1091 283.543C56.5184 283.133 56.7484 282.578 56.7484 281.999M56.7484 281.999C57.2127 281.999 57.6687 281.876 58.0696 281.642C58.4705 281.408 58.802 281.071 59.03 280.667C59.2581 280.262 59.3745 279.804 59.3673 279.34C59.3602 278.876 59.2298 278.422 58.9894 278.024C59.5869 277.909 60.1257 277.589 60.513 277.12C60.9004 276.65 61.1123 276.061 61.1123 275.452C61.1123 274.844 60.9004 274.254 60.513 273.785C60.1257 273.315 59.5869 272.995 58.9894 272.88M56.7484 281.999C56.7484 281.285 56.4053 280.651 55.8754 280.253M58.9894 272.88C58.6758 273.398 58.1924 273.791 57.6214 273.993" stroke="white" stroke-width="1.30952" stroke-linecap="round" stroke-linejoin="round"/>
<path d="M68.8591 279.953H67.1871L70.506 270.763H72.1528L75.4717 279.953H73.7745L73.0328 277.828H69.6008L68.8591 279.953ZM71.122 273.503L70.0785 276.47H72.5677L71.5117 273.503C71.4363 273.265 71.3483 272.988 71.3231 272.799C71.2854 272.975 71.21 273.252 71.122 273.503ZM77.9817 270.763V279.953H76.3726V270.763H77.9817ZM83.6963 279.953H82.0243L85.3432 270.763H86.9901L90.3089 279.953H88.6118L87.8701 277.828H84.4381L83.6963 279.953ZM85.9592 273.503L84.9158 276.47H87.4049L86.3489 273.503C86.2735 273.265 86.1855 272.988 86.1603 272.799C86.1226 272.975 86.0472 273.252 85.9592 273.503ZM92.5173 279.953H90.9836V273.742H92.4041L92.5298 274.547C92.9196 273.918 93.6738 273.554 94.5161 273.554C96.075 273.554 96.8796 274.522 96.8796 276.131V279.953H95.3458V276.495C95.3458 275.452 94.8304 274.949 94.0384 274.949C93.0956 274.949 92.5173 275.603 92.5173 276.609V279.953ZM99.983 280.116C98.663 280.116 97.8585 279.349 97.8585 278.18C97.8585 277.036 98.6882 276.319 100.159 276.206L102.02 276.068V275.93C102.02 275.087 101.517 274.748 100.737 274.748C99.8322 274.748 99.3293 275.125 99.3293 275.779H98.0219C98.0219 274.434 99.1282 273.554 100.813 273.554C102.485 273.554 103.516 274.459 103.516 276.181V279.953H102.17L102.057 279.035C101.793 279.676 100.951 280.116 99.983 280.116ZM100.486 278.959C101.429 278.959 102.032 278.394 102.032 277.438V277.111L100.737 277.212C99.7819 277.3 99.4173 277.614 99.4173 278.117C99.4173 278.683 99.7945 278.959 100.486 278.959ZM106.317 279.953H104.796V270.599H106.317V279.953ZM107.134 282.831V281.549H108.052C108.655 281.549 109.032 281.411 109.296 280.682L109.472 280.217L106.971 273.742H108.592L110.189 278.268L111.873 273.742H113.457L110.415 281.335C109.95 282.492 109.296 282.97 108.278 282.97C107.851 282.97 107.473 282.919 107.134 282.831ZM113.464 278.067H114.923C114.935 278.607 115.338 278.947 116.042 278.947C116.758 278.947 117.148 278.658 117.148 278.205C117.148 277.891 116.984 277.665 116.431 277.539L115.312 277.275C114.194 277.023 113.653 276.495 113.653 275.502C113.653 274.283 114.684 273.554 116.117 273.554C117.512 273.554 118.455 274.358 118.468 275.565H117.01C116.997 275.037 116.645 274.698 116.054 274.698C115.451 274.698 115.099 274.974 115.099 275.439C115.099 275.791 115.375 276.018 115.903 276.143L117.022 276.407C118.066 276.646 118.594 277.124 118.594 278.079C118.594 279.337 117.525 280.116 115.991 280.116C114.445 280.116 113.464 279.286 113.464 278.067ZM120.277 272.498C119.749 272.498 119.334 272.083 119.334 271.567C119.334 271.052 119.749 270.65 120.277 270.65C120.78 270.65 121.194 271.052 121.194 271.567C121.194 272.083 120.78 272.498 120.277 272.498ZM119.51 279.953V273.742H121.044V279.953H119.51ZM121.899 278.067H123.357C123.37 278.607 123.772 278.947 124.476 278.947C125.193 278.947 125.582 278.658 125.582 278.205C125.582 277.891 125.419 277.665 124.866 277.539L123.747 277.275C122.628 277.023 122.088 276.495 122.088 275.502C122.088 274.283 123.118 273.554 124.552 273.554C125.947 273.554 126.89 274.358 126.902 275.565H125.444C125.432 275.037 125.08 274.698 124.489 274.698C123.885 274.698 123.533 274.974 123.533 275.439C123.533 275.791 123.81 276.018 124.338 276.143L125.457 276.407C126.5 276.646 127.028 277.124 127.028 278.079C127.028 279.337 125.96 280.116 124.426 280.116C122.88 280.116 121.899 279.286 121.899 278.067Z" fill="white"/>
<path d="M151.098 273.357C151.098 267.49 151.098 264.556 152.239 262.315C153.244 260.344 154.847 258.742 156.818 257.737C159.059 256.595 161.992 256.595 167.86 256.595H230.241C236.108 256.595 239.041 256.595 241.282 257.737C243.254 258.742 244.856 260.344 245.861 262.315C247.002 264.556 247.002 267.49 247.002 273.357V277.548C247.002 283.415 247.002 286.349 245.861 288.59C244.856 290.561 243.254 292.163 241.282 293.168C239.041 294.31 236.108 294.31 230.241 294.31H167.86C161.992 294.31 159.059 294.31 156.818 293.168C154.847 292.163 153.244 290.561 152.239 288.59C151.098 286.349 151.098 283.415 151.098 277.548V273.357Z" fill="url(#paint9_linear_2213_3828)" fill-opacity="0.5"/>
<g clip-path="url(#clip2_2213_3828)">
<path d="M162.973 281.564H176.941" stroke="white" stroke-width="1.30952" stroke-linecap="round" stroke-linejoin="round"/>
<path d="M162.973 278.071L166.465 272.833L169.957 274.579L173.449 270.214L176.941 273.706" stroke="white" stroke-width="1.30952" stroke-linecap="round" stroke-linejoin="round"/>
</g>
<path d="M184.835 272.246V270.763H191.825V272.246H189.134V279.953H187.525V272.246H184.835ZM194.299 280.116C192.451 280.116 191.156 278.771 191.156 276.847C191.156 274.899 192.426 273.554 194.249 273.554C196.11 273.554 197.291 274.798 197.291 276.734V277.199L192.615 277.212C192.728 278.306 193.306 278.859 194.324 278.859C195.167 278.859 195.72 278.532 195.896 277.941H197.316C197.052 279.299 195.921 280.116 194.299 280.116ZM194.262 274.811C193.356 274.811 192.803 275.301 192.652 276.231H195.77C195.77 275.377 195.179 274.811 194.262 274.811ZM197.903 276.835C197.903 274.911 199.173 273.554 201.008 273.554C202.705 273.554 203.862 274.497 204.025 275.993H202.491C202.315 275.289 201.8 274.924 201.071 274.924C200.09 274.924 199.437 275.666 199.437 276.835C199.437 278.004 200.04 278.733 201.021 278.733C201.787 278.733 202.328 278.356 202.491 277.677H204.038C203.849 279.123 202.642 280.116 201.021 280.116C199.135 280.116 197.903 278.809 197.903 276.835ZM206.461 279.953H204.928V270.599H206.474V274.547C206.864 273.943 207.593 273.554 208.485 273.554C210.019 273.554 210.824 274.522 210.824 276.131V279.953H209.29V276.495C209.29 275.452 208.775 274.949 207.995 274.949C207.027 274.949 206.461 275.628 206.461 276.558V279.953ZM213.613 279.953H212.079V273.742H213.5L213.626 274.547C214.015 273.918 214.77 273.554 215.612 273.554C217.171 273.554 217.975 274.522 217.975 276.131V279.953H216.442V276.495C216.442 275.452 215.926 274.949 215.134 274.949C214.191 274.949 213.613 275.603 213.613 276.609V279.953ZM219.998 272.498C219.47 272.498 219.055 272.083 219.055 271.567C219.055 271.052 219.47 270.65 219.998 270.65C220.5 270.65 220.915 271.052 220.915 271.567C220.915 272.083 220.5 272.498 219.998 272.498ZM219.231 279.953V273.742H220.764V279.953H219.231ZM221.733 276.835C221.733 274.911 223.003 273.554 224.838 273.554C226.535 273.554 227.692 274.497 227.855 275.993H226.322C226.146 275.289 225.63 274.924 224.901 274.924C223.92 274.924 223.267 275.666 223.267 276.835C223.267 278.004 223.87 278.733 224.851 278.733C225.618 278.733 226.158 278.356 226.322 277.677H227.868C227.679 279.123 226.472 280.116 224.851 280.116C222.965 280.116 221.733 278.809 221.733 276.835ZM230.606 280.116C229.286 280.116 228.481 279.349 228.481 278.18C228.481 277.036 229.311 276.319 230.782 276.206L232.643 276.068V275.93C232.643 275.087 232.14 274.748 231.36 274.748C230.455 274.748 229.952 275.125 229.952 275.779H228.645C228.645 274.434 229.751 273.554 231.436 273.554C233.108 273.554 234.139 274.459 234.139 276.181V279.953H232.793L232.68 279.035C232.416 279.676 231.574 280.116 230.606 280.116ZM231.109 278.959C232.052 278.959 232.655 278.394 232.655 277.438V277.111L231.36 277.212C230.405 277.3 230.04 277.614 230.04 278.117C230.04 278.683 230.417 278.959 231.109 278.959ZM236.94 279.953H235.419V270.599H236.94V279.953Z" fill="white"/>
<path d="M261.668 273.357C261.668 267.49 261.668 264.556 262.81 262.315C263.814 260.344 265.417 258.742 267.388 257.737C269.629 256.595 272.563 256.595 278.43 256.595H341.811C347.678 256.595 350.612 256.595 352.853 257.737C354.824 258.742 356.427 260.344 357.431 262.315C358.573 264.556 358.573 267.49 358.573 273.357V277.548C358.573 283.415 358.573 286.349 357.431 288.59C356.427 290.561 354.824 292.163 352.853 293.168C350.612 294.31 347.678 294.31 341.811 294.31H278.43C272.563 294.31 269.629 294.31 267.388 293.168C265.417 292.163 263.814 290.561 262.81 288.59C261.668 286.349 261.668 283.415 261.668 277.548V273.357Z" fill="url(#paint10_linear_2213_3828)" fill-opacity="0.5"/>
<g clip-path="url(#clip3_2213_3828)">
<path d="M284.887 268.468C284.887 268.237 284.979 268.015 285.142 267.851C285.306 267.687 285.528 267.595 285.76 267.595H287.506C287.737 267.595 287.959 267.687 288.123 267.851C288.287 268.015 288.379 268.237 288.379 268.468V270.214C288.379 270.446 288.287 270.668 288.123 270.832C287.959 270.995 287.737 271.087 287.506 271.087H285.76C285.528 271.087 285.306 270.995 285.142 270.832C284.979 270.668 284.887 270.446 284.887 270.214V268.468Z" stroke="white" stroke-width="1.30952" stroke-linecap="round" stroke-linejoin="round"/>
<path d="M272.668 280.691C272.668 280.459 272.76 280.237 272.924 280.074C273.087 279.91 273.309 279.818 273.541 279.818H275.287C275.519 279.818 275.741 279.91 275.904 280.074C276.068 280.237 276.16 280.459 276.16 280.691V282.437C276.16 282.668 276.068 282.891 275.904 283.054C275.741 283.218 275.519 283.31 275.287 283.31H273.541C273.309 283.31 273.087 283.218 272.924 283.054C272.76 282.891 272.668 282.668 272.668 282.437V280.691Z" stroke="white" stroke-width="1.30952" stroke-linecap="round" stroke-linejoin="round"/>
<path d="M284.886 269.341C279.101 269.341 274.41 274.031 274.41 279.817" stroke="white" stroke-width="1.30952" stroke-linecap="round" stroke-linejoin="round"/>
</g>
<path d="M301.238 276.194H297.819V279.953H296.21V270.763H301.892V272.246H297.819V274.748H301.238V276.194ZM303.632 272.498C303.104 272.498 302.689 272.083 302.689 271.567C302.689 271.052 303.104 270.65 303.632 270.65C304.135 270.65 304.549 271.052 304.549 271.567C304.549 272.083 304.135 272.498 303.632 272.498ZM302.865 279.953V273.742H304.399V279.953H302.865ZM307.152 279.953H305.732V270.599H307.265V274.647C307.668 273.956 308.497 273.541 309.44 273.541C311.213 273.541 312.294 274.924 312.294 276.885C312.294 278.796 311.125 280.116 309.34 280.116C308.409 280.116 307.617 279.701 307.253 278.985L307.152 279.953ZM307.278 276.822C307.278 277.941 307.969 278.708 309.025 278.708C310.107 278.708 310.748 277.929 310.748 276.822C310.748 275.716 310.107 274.924 309.025 274.924C307.969 274.924 307.278 275.703 307.278 276.822ZM312.899 276.835C312.899 274.899 314.295 273.566 316.218 273.566C318.141 273.566 319.537 274.899 319.537 276.835C319.537 278.771 318.141 280.103 316.218 280.103C314.295 280.103 312.899 278.771 312.899 276.835ZM314.433 276.835C314.433 277.966 315.162 278.733 316.218 278.733C317.274 278.733 318.003 277.966 318.003 276.835C318.003 275.703 317.274 274.937 316.218 274.937C315.162 274.937 314.433 275.703 314.433 276.835ZM322.035 279.953H320.501V273.742H321.922L322.047 274.547C322.437 273.918 323.191 273.554 324.034 273.554C325.593 273.554 326.397 274.522 326.397 276.131V279.953H324.863V276.495C324.863 275.452 324.348 274.949 323.556 274.949C322.613 274.949 322.035 275.603 322.035 276.609V279.953ZM329.501 280.116C328.181 280.116 327.376 279.349 327.376 278.18C327.376 277.036 328.206 276.319 329.677 276.206L331.537 276.068V275.93C331.537 275.087 331.034 274.748 330.255 274.748C329.35 274.748 328.847 275.125 328.847 275.779H327.539C327.539 274.434 328.646 273.554 330.33 273.554C332.002 273.554 333.033 274.459 333.033 276.181V279.953H331.688L331.575 279.035C331.311 279.676 330.469 280.116 329.501 280.116ZM330.003 278.959C330.946 278.959 331.55 278.394 331.55 277.438V277.111L330.255 277.212C329.299 277.3 328.935 277.614 328.935 278.117C328.935 278.683 329.312 278.959 330.003 278.959ZM333.924 276.835C333.924 274.911 335.194 273.554 337.029 273.554C338.726 273.554 339.883 274.497 340.046 275.993H338.512C338.336 275.289 337.821 274.924 337.092 274.924C336.111 274.924 335.458 275.666 335.458 276.835C335.458 278.004 336.061 278.733 337.042 278.733C337.808 278.733 338.349 278.356 338.512 277.677H340.059C339.87 279.123 338.663 280.116 337.042 280.116C335.156 280.116 333.924 278.809 333.924 276.835ZM340.584 276.835C340.584 274.911 341.854 273.554 343.689 273.554C345.387 273.554 346.543 274.497 346.707 275.993H345.173C344.997 275.289 344.481 274.924 343.752 274.924C342.772 274.924 342.118 275.666 342.118 276.835C342.118 278.004 342.721 278.733 343.702 278.733C344.469 278.733 345.009 278.356 345.173 277.677H346.719C346.531 279.123 345.324 280.116 343.702 280.116C341.816 280.116 340.584 278.809 340.584 276.835ZM348.376 272.498C347.848 272.498 347.433 272.083 347.433 271.567C347.433 271.052 347.848 270.65 348.376 270.65C348.879 270.65 349.294 271.052 349.294 271.567C349.294 272.083 348.879 272.498 348.376 272.498ZM347.609 279.953V273.742H349.143V279.953H347.609Z" fill="white"/>
<path d="M33.5254 325.071C33.5254 319.204 33.5254 316.271 34.6672 314.03C35.6716 312.058 37.2743 310.456 39.2455 309.451C41.4865 308.31 44.4201 308.31 50.2873 308.31H110.668C116.535 308.31 119.469 308.31 121.71 309.451C123.681 310.456 125.284 312.058 126.288 314.03C127.43 316.271 127.43 319.204 127.43 325.071V329.262C127.43 335.129 127.43 338.063 126.288 340.304C125.284 342.275 123.681 343.878 121.71 344.882C119.469 346.024 116.535 346.024 110.668 346.024H50.2873C44.4201 346.024 41.4865 346.024 39.2455 344.882C37.2743 343.878 35.6716 342.275 34.6672 340.304C33.5254 338.063 33.5254 335.129 33.5254 329.262V325.071Z" fill="url(#paint11_linear_2213_3828)" fill-opacity="0.5"/>
<g clip-path="url(#clip4_2213_3828)">
<path d="M48.0215 334.15H56.7516" stroke="white" stroke-width="1.30952" stroke-linecap="round" stroke-linejoin="round"/>
<path d="M47.1445 321.929L52.3826 321.056L57.6207 321.929" stroke="white" stroke-width="1.30952" stroke-linecap="round" stroke-linejoin="round"/>
<path d="M52.3828 319.31V334.151" stroke="white" stroke-width="1.30952" stroke-linecap="round" stroke-linejoin="round"/>
<path d="M49.7635 327.167L47.1444 321.929L44.5254 327.167C44.5254 327.861 44.8013 328.528 45.2925 329.019C45.7837 329.51 46.4498 329.786 47.1444 329.786C47.8391 329.786 48.5052 329.51 48.9964 329.019C49.4876 328.528 49.7635 327.861 49.7635 327.167Z" stroke="white" stroke-width="1.30952" stroke-linecap="round" stroke-linejoin="round"/>
<path d="M60.24 327.167L57.621 321.929L55.002 327.167C55.002 327.861 55.2779 328.528 55.7691 329.019C56.2602 329.51 56.9264 329.786 57.621 329.786C58.3156 329.786 58.9818 329.51 59.4729 329.019C59.9641 328.528 60.24 327.861 60.24 327.167Z" stroke="white" stroke-width="1.30952" stroke-linecap="round" stroke-linejoin="round"/>
</g>
<path d="M69.6763 331.667H68.0671V322.477H71.5745C73.6614 322.477 74.8808 323.533 74.8808 325.343C74.8808 326.575 74.3025 327.455 73.2214 327.895L74.9688 331.667H73.2088L71.65 328.235H69.6763V331.667ZM69.6763 323.91V326.814H71.5745C72.5928 326.814 73.1963 326.274 73.1963 325.343C73.1963 324.426 72.5928 323.91 71.5745 323.91H69.6763ZM76.7781 324.212C76.2501 324.212 75.8353 323.797 75.8353 323.282C75.8353 322.766 76.2501 322.364 76.7781 322.364C77.281 322.364 77.6958 322.766 77.6958 323.282C77.6958 323.797 77.281 324.212 76.7781 324.212ZM76.0113 331.667V325.456H77.545V331.667H76.0113ZM78.4004 329.781H79.8587C79.8713 330.322 80.2736 330.661 80.9776 330.661C81.6942 330.661 82.0839 330.372 82.0839 329.919C82.0839 329.605 81.9204 329.379 81.3673 329.253L80.2484 328.989C79.1296 328.738 78.589 328.21 78.589 327.216C78.589 325.997 79.6199 325.268 81.053 325.268C82.4484 325.268 83.3913 326.072 83.4039 327.279H81.9456C81.933 326.751 81.581 326.412 80.9902 326.412C80.3867 326.412 80.0347 326.688 80.0347 327.154C80.0347 327.506 80.3113 327.732 80.8393 327.858L81.9582 328.122C83.0016 328.36 83.5296 328.838 83.5296 329.794C83.5296 331.051 82.461 331.83 80.9273 331.83C79.381 331.83 78.4004 331 78.4004 329.781ZM85.9922 331.667H84.4711V322.314H85.9922V328.059L88.4059 325.456H90.3293L87.9659 327.92L90.2791 331.667H88.5191L86.8973 329.052L85.9922 329.995V331.667ZM98.2068 331.818C95.5291 331.818 93.7942 329.957 93.7942 327.078C93.7942 324.224 95.592 322.326 98.2822 322.326C100.457 322.326 102.079 323.596 102.393 325.57H100.696C100.382 324.501 99.464 323.872 98.2445 323.872C96.5474 323.872 95.4788 325.104 95.4788 327.066C95.4788 329.014 96.56 330.271 98.2445 330.271C99.4891 330.271 100.445 329.618 100.746 328.599H102.418C102.066 330.535 100.382 331.818 98.2068 331.818ZM105.109 331.83C103.789 331.83 102.984 331.063 102.984 329.894C102.984 328.75 103.814 328.034 105.285 327.92L107.145 327.782V327.644C107.145 326.802 106.643 326.462 105.863 326.462C104.958 326.462 104.455 326.839 104.455 327.493H103.148C103.148 326.148 104.254 325.268 105.939 325.268C107.611 325.268 108.641 326.173 108.641 327.895V331.667H107.296L107.183 330.749C106.919 331.39 106.077 331.83 105.109 331.83ZM105.612 330.674C106.555 330.674 107.158 330.108 107.158 329.152V328.826L105.863 328.926C104.908 329.014 104.543 329.328 104.543 329.831C104.543 330.397 104.92 330.674 105.612 330.674ZM111.443 331.667H109.922V322.314H111.443V331.667ZM112.436 328.549C112.436 326.626 113.706 325.268 115.541 325.268C117.238 325.268 118.395 326.211 118.558 327.707H117.024C116.848 327.003 116.333 326.638 115.604 326.638C114.623 326.638 113.97 327.38 113.97 328.549C113.97 329.718 114.573 330.447 115.554 330.447C116.32 330.447 116.861 330.07 117.024 329.391H118.571C118.382 330.837 117.175 331.83 115.554 331.83C113.668 331.83 112.436 330.523 112.436 328.549Z" fill="white"/>
<g opacity="0.5">
<path d="M142.098 325.071C142.098 319.204 142.098 316.271 143.239 314.03C144.244 312.058 145.847 310.456 147.818 309.451C150.059 308.31 152.992 308.31 158.86 308.31H271.002C276.87 308.31 279.803 308.31 282.044 309.451C284.015 310.456 285.618 312.058 286.622 314.03C287.764 316.271 287.764 319.204 287.764 325.071V329.262C287.764 335.129 287.764 338.063 286.622 340.304C285.618 342.275 284.015 343.878 282.044 344.882C279.803 346.024 276.87 346.024 271.002 346.024H158.86C152.992 346.024 150.059 346.024 147.818 344.882C145.847 343.878 144.244 342.275 143.239 340.304C142.098 338.063 142.098 335.129 142.098 329.262V325.071Z" fill="url(#paint12_linear_2213_3828)" fill-opacity="0.5"/>
<g clip-path="url(#clip5_2213_3828)">
<path d="M159.211 327.167C159.211 327.63 159.395 328.075 159.722 328.402C160.05 328.729 160.494 328.913 160.957 328.913C161.42 328.913 161.864 328.729 162.192 328.402C162.519 328.075 162.703 327.63 162.703 327.167C162.703 326.704 162.519 326.26 162.192 325.933C161.864 325.605 161.42 325.421 160.957 325.421C160.494 325.421 160.05 325.605 159.722 325.933C159.395 326.26 159.211 326.704 159.211 327.167Z" stroke="white" stroke-width="1.30952" stroke-linecap="round" stroke-linejoin="round"/>
<path d="M168.812 327.167C166.717 330.659 164.098 332.405 160.955 332.405C157.812 332.405 155.193 330.659 153.098 327.167C155.193 323.675 157.812 321.929 160.955 321.929C164.098 321.929 166.717 323.675 168.812 327.167Z" stroke="white" stroke-width="1.30952" stroke-linecap="round" stroke-linejoin="round"/>
</g>
<path d="M176.111 325.042C176.111 323.432 177.444 322.314 179.38 322.314C181.241 322.314 182.422 323.344 182.473 325.004H180.863C180.826 324.212 180.26 323.747 179.355 323.747C178.362 323.747 177.721 324.224 177.721 324.991C177.721 325.645 178.073 326.01 178.839 326.186L180.285 326.5C181.857 326.839 182.623 327.644 182.623 329.014C182.623 330.724 181.291 331.83 179.267 331.83C177.306 331.83 176.023 330.787 175.986 329.14H177.595C177.607 329.919 178.236 330.384 179.267 330.384C180.335 330.384 181.014 329.919 181.014 329.152C181.014 328.536 180.7 328.172 179.946 328.008L178.487 327.682C176.929 327.342 176.111 326.45 176.111 325.042ZM185.135 331.667H183.601V325.456H185.009L185.135 326.186C185.449 325.67 186.078 325.268 186.971 325.268C187.913 325.268 188.567 325.733 188.894 326.45C189.208 325.733 189.937 325.268 190.88 325.268C192.389 325.268 193.219 326.173 193.219 327.606V331.667H191.697V328.008C191.697 327.116 191.22 326.651 190.491 326.651C189.749 326.651 189.183 327.128 189.183 328.147V331.667H187.649V327.996C187.649 327.128 187.184 326.663 186.455 326.663C185.726 326.663 185.135 327.141 185.135 328.147V331.667ZM196.321 331.83C195.001 331.83 194.196 331.063 194.196 329.894C194.196 328.75 195.026 328.034 196.497 327.92L198.357 327.782V327.644C198.357 326.802 197.854 326.462 197.075 326.462C196.17 326.462 195.667 326.839 195.667 327.493H194.36C194.36 326.148 195.466 325.268 197.15 325.268C198.822 325.268 199.853 326.173 199.853 327.895V331.667H198.508L198.395 330.749C198.131 331.39 197.289 331.83 196.321 331.83ZM196.824 330.674C197.766 330.674 198.37 330.108 198.37 329.152V328.826L197.075 328.926C196.12 329.014 195.755 329.328 195.755 329.831C195.755 330.397 196.132 330.674 196.824 330.674ZM205.006 325.431V326.852H204.44C203.334 326.852 202.642 327.443 202.642 328.65V331.667H201.109V325.469H202.554L202.642 326.374C202.906 325.758 203.497 325.343 204.327 325.343C204.541 325.343 204.754 325.368 205.006 325.431ZM208.15 331.667H206.616V326.739H205.422V325.456H206.616V323.52H208.15V325.456H209.357V326.739H208.15V331.667ZM214.214 331.667H212.542L215.861 322.477H217.508L220.827 331.667H219.13L218.388 329.542H214.956L214.214 331.667ZM216.477 325.218L215.434 328.184H217.923L216.867 325.218C216.791 324.979 216.703 324.702 216.678 324.514C216.64 324.69 216.565 324.966 216.477 325.218ZM223.048 331.667H221.526V322.314H223.048V331.667ZM227.183 331.83C225.335 331.83 224.04 330.485 224.04 328.562C224.04 326.613 225.31 325.268 227.133 325.268C228.994 325.268 230.175 326.512 230.175 328.448V328.914L225.499 328.926C225.612 330.02 226.19 330.573 227.208 330.573C228.051 330.573 228.604 330.246 228.78 329.655H230.2C229.936 331.013 228.805 331.83 227.183 331.83ZM227.146 326.525C226.24 326.525 225.687 327.015 225.536 327.946H228.654C228.654 327.091 228.063 326.525 227.146 326.525ZM235.048 325.431V326.852H234.483C233.376 326.852 232.685 327.443 232.685 328.65V331.667H231.151V325.469H232.597L232.685 326.374C232.949 325.758 233.54 325.343 234.37 325.343C234.583 325.343 234.797 325.368 235.048 325.431ZM238.193 331.667H236.659V326.739H235.465V325.456H236.659V323.52H238.193V325.456H239.4V326.739H238.193V331.667ZM239.624 329.781H241.082C241.095 330.322 241.497 330.661 242.201 330.661C242.918 330.661 243.307 330.372 243.307 329.919C243.307 329.605 243.144 329.379 242.591 329.253L241.472 328.989C240.353 328.738 239.812 328.21 239.812 327.216C239.812 325.997 240.843 325.268 242.276 325.268C243.672 325.268 244.615 326.072 244.627 327.279H243.169C243.156 326.751 242.804 326.412 242.214 326.412C241.61 326.412 241.258 326.688 241.258 327.154C241.258 327.506 241.535 327.732 242.063 327.858L243.182 328.122C244.225 328.36 244.753 328.838 244.753 329.794C244.753 331.051 243.684 331.83 242.151 331.83C240.604 331.83 239.624 331 239.624 329.781Z" fill="white"/>
<rect x="249.812" y="318.072" width="29.5714" height="18.1905" rx="2.09524" fill="#3EDC81" fill-opacity="0.1"/>
<path d="M259.094 331.167L256.202 323.509H257.627L259.303 327.919C259.471 328.38 259.618 328.831 259.785 329.449C259.974 328.778 260.131 328.307 260.278 327.919L261.933 323.509H263.326L260.477 331.167H259.094ZM265.413 323.509V331.167H264.072V323.509H265.413ZM269.929 328.527H268.242V331.167H266.901V323.509H269.929C271.469 323.509 272.464 324.514 272.464 326.013C272.464 327.49 271.458 328.527 269.929 328.527ZM269.667 324.703H268.242V327.333H269.646C270.568 327.333 271.06 326.84 271.06 326.002C271.06 325.164 270.557 324.703 269.667 324.703Z" fill="#3EDC81"/>
</g>
<g opacity="0.5">
<path d="M33.5254 376.786C33.5254 370.919 33.5254 367.985 34.6672 365.744C35.6716 363.773 37.2743 362.17 39.2455 361.166C41.4865 360.024 44.4201 360.024 50.2873 360.024H157.43C163.297 360.024 166.231 360.024 168.472 361.166C170.443 362.17 172.046 363.773 173.05 365.744C174.192 367.985 174.192 370.919 174.192 376.786V380.976C174.192 386.844 174.192 389.777 173.05 392.018C172.046 393.989 170.443 395.592 168.472 396.596C166.231 397.738 163.297 397.738 157.43 397.738H50.2873C44.4201 397.738 41.4865 397.738 39.2455 396.596C37.2743 395.592 35.6716 393.989 34.6672 392.018C33.5254 389.777 33.5254 386.844 33.5254 380.976V376.786Z" fill="url(#paint13_linear_2213_3828)" fill-opacity="0.5"/>
<g clip-path="url(#clip6_2213_3828)">
<path d="M50.6387 378.882C50.6387 379.345 50.8226 379.789 51.1501 380.116C51.4775 380.444 51.9216 380.628 52.3847 380.628C52.8478 380.628 53.2919 380.444 53.6193 380.116C53.9468 379.789 54.1307 379.345 54.1307 378.882C54.1307 378.419 53.9468 377.974 53.6193 377.647C53.2919 377.32 52.8478 377.136 52.3847 377.136C51.9216 377.136 51.4775 377.32 51.1501 377.647C50.8226 377.974 50.6387 378.419 50.6387 378.882Z" stroke="white" stroke-width="1.30952" stroke-linecap="round" stroke-linejoin="round"/>
<path d="M60.2397 378.881C58.1444 382.373 55.5254 384.119 52.3825 384.119C49.2397 384.119 46.6206 382.373 44.5254 378.881C46.6206 375.389 49.2397 373.643 52.3825 373.643C55.5254 373.643 58.1444 375.389 60.2397 378.881Z" stroke="white" stroke-width="1.30952" stroke-linecap="round" stroke-linejoin="round"/>
</g>
<path d="M71.7003 380.213H69.6763V383.381H68.0671V374.191H71.7003C73.5483 374.191 74.7425 375.398 74.7425 377.196C74.7425 378.969 73.5357 380.213 71.7003 380.213ZM71.386 375.625H69.6763V378.78H71.3608C72.4671 378.78 73.058 378.189 73.058 377.183C73.058 376.178 72.4545 375.625 71.386 375.625ZM75.0548 381.495H76.5131C76.5256 382.036 76.9279 382.375 77.6319 382.375C78.3485 382.375 78.7382 382.086 78.7382 381.634C78.7382 381.319 78.5748 381.093 78.0216 380.967L76.9028 380.703C75.7839 380.452 75.2433 379.924 75.2433 378.931C75.2433 377.711 76.2742 376.982 77.7073 376.982C79.1028 376.982 80.0456 377.787 80.0582 378.994H78.5999C78.5873 378.466 78.2353 378.126 77.6445 378.126C77.0411 378.126 76.6891 378.403 76.6891 378.868C76.6891 379.22 76.9656 379.446 77.4936 379.572L78.6125 379.836C79.6559 380.075 80.1839 380.553 80.1839 381.508C80.1839 382.765 79.1153 383.545 77.5816 383.545C76.0353 383.545 75.0548 382.715 75.0548 381.495ZM80.4369 386.26V384.978H81.3546C81.9581 384.978 82.3352 384.839 82.5992 384.11L82.7752 383.645L80.2735 377.171H81.8952L83.4918 381.697L85.1763 377.171H86.7603L83.7181 384.764C83.2529 385.921 82.5992 386.398 81.5809 386.398C81.1535 386.398 80.7763 386.348 80.4369 386.26ZM86.7331 380.263C86.7331 378.34 88.0028 376.982 89.8383 376.982C91.5354 376.982 92.692 377.925 92.8554 379.421H91.3217C91.1457 378.717 90.6303 378.353 89.9011 378.353C88.9206 378.353 88.2668 379.094 88.2668 380.263C88.2668 381.433 88.8703 382.162 89.8508 382.162C90.6177 382.162 91.1583 381.785 91.3217 381.106H92.868C92.6794 382.551 91.4726 383.545 89.8508 383.545C87.9651 383.545 86.7331 382.237 86.7331 380.263ZM95.2918 383.381H93.7581V374.028H95.3044V377.975C95.6941 377.372 96.4232 376.982 97.3158 376.982C98.8495 376.982 99.6541 377.95 99.6541 379.559V383.381H98.1204V379.924C98.1204 378.881 97.605 378.378 96.8255 378.378C95.8575 378.378 95.2918 379.057 95.2918 379.987V383.381ZM100.545 380.263C100.545 378.327 101.94 376.995 103.864 376.995C105.787 376.995 107.183 378.327 107.183 380.263C107.183 382.199 105.787 383.532 103.864 383.532C101.94 383.532 100.545 382.199 100.545 380.263ZM102.079 380.263C102.079 381.395 102.808 382.162 103.864 382.162C104.92 382.162 105.649 381.395 105.649 380.263C105.649 379.132 104.92 378.365 103.864 378.365C102.808 378.365 102.079 379.132 102.079 380.263ZM109.693 383.381H108.172V374.028H109.693V383.381ZM110.686 380.263C110.686 378.327 112.082 376.995 114.005 376.995C115.928 376.995 117.324 378.327 117.324 380.263C117.324 382.199 115.928 383.532 114.005 383.532C112.082 383.532 110.686 382.199 110.686 380.263ZM112.22 380.263C112.22 381.395 112.949 382.162 114.005 382.162C115.061 382.162 115.79 381.395 115.79 380.263C115.79 379.132 115.061 378.365 114.005 378.365C112.949 378.365 112.22 379.132 112.22 380.263ZM117.936 380.138C117.936 378.327 119.118 376.97 120.89 376.97C121.821 376.97 122.55 377.359 122.914 378.026L123.002 377.171H124.423V383.067C124.423 385.141 123.178 386.436 121.167 386.436C119.382 386.436 118.162 385.418 117.974 383.758H119.508C119.608 384.563 120.224 385.041 121.167 385.041C122.223 385.041 122.902 384.374 122.902 383.343V382.313C122.512 382.891 121.745 383.255 120.853 383.255C119.093 383.255 117.936 381.935 117.936 380.138ZM119.482 380.1C119.482 381.143 120.149 381.923 121.154 381.923C122.21 381.923 122.864 381.181 122.864 380.1C122.864 379.044 122.223 378.315 121.154 378.315C120.136 378.315 119.482 379.082 119.482 380.1ZM125.218 386.26V384.978H126.136C126.739 384.978 127.116 384.839 127.38 384.11L127.556 383.645L125.055 377.171H126.676L128.273 381.697L129.958 377.171H131.542L128.499 384.764C128.034 385.921 127.38 386.398 126.362 386.398C125.935 386.398 125.558 386.348 125.218 386.26Z" fill="white"/>
<rect x="136.24" y="369.786" width="29.5714" height="18.1905" rx="2.09524" fill="#3EDC81" fill-opacity="0.1"/>
<path d="M145.522 382.881L142.63 375.223H144.055L145.731 379.633C145.899 380.094 146.045 380.545 146.213 381.163C146.402 380.493 146.559 380.021 146.705 379.633L148.361 375.223H149.754L146.904 382.881H145.522ZM151.841 375.223V382.881H150.5V375.223H151.841ZM156.356 380.241H154.67V382.881H153.329V375.223H156.356C157.896 375.223 158.892 376.229 158.892 377.727C158.892 379.204 157.886 380.241 156.356 380.241ZM156.095 376.417H154.67V379.047H156.074C156.995 379.047 157.488 378.554 157.488 377.716C157.488 376.878 156.985 376.417 156.095 376.417Z" fill="#3EDC81"/>
</g>
<g opacity="0.5">
<path d="M188.859 376.786C188.859 370.919 188.859 367.985 190.001 365.744C191.006 363.773 192.608 362.17 194.579 361.166C196.82 360.024 199.754 360.024 205.621 360.024H321.764C327.631 360.024 330.565 360.024 332.806 361.166C334.777 362.17 336.38 363.773 337.384 365.744C338.526 367.985 338.526 370.919 338.526 376.786V380.976C338.526 386.844 338.526 389.777 337.384 392.018C336.38 393.989 334.777 395.592 332.806 396.596C330.565 397.738 327.631 397.738 321.764 397.738H205.621C199.754 397.738 196.82 397.738 194.579 396.596C192.608 395.592 191.006 393.989 190.001 392.018C188.859 389.777 188.859 386.844 188.859 380.976V376.786Z" fill="url(#paint14_linear_2213_3828)" fill-opacity="0.5"/>
<g clip-path="url(#clip7_2213_3828)">
<path d="M211.211 373.644H213.83C214.061 373.644 214.283 373.736 214.447 373.899C214.611 374.063 214.703 374.285 214.703 374.517V384.12C214.703 384.583 214.519 385.027 214.191 385.354C213.864 385.682 213.42 385.866 212.957 385.866M212.957 385.866C212.494 385.866 212.049 385.682 211.722 385.354C211.395 385.027 211.211 384.583 211.211 384.12V372.771C211.211 372.539 211.119 372.317 210.955 372.153C210.791 371.99 210.569 371.898 210.338 371.898H201.607C201.376 371.898 201.154 371.99 200.99 372.153C200.826 372.317 200.734 372.539 200.734 372.771V383.247C200.734 383.941 201.01 384.608 201.501 385.099C201.993 385.59 202.659 385.866 203.353 385.866H212.957Z" stroke="white" stroke-width="1.30952" stroke-linecap="round" stroke-linejoin="round"/>
<path d="M204.221 375.388H207.713" stroke="white" stroke-width="1.30952" stroke-linecap="round" stroke-linejoin="round"/>
<path d="M204.221 378.881H207.713" stroke="white" stroke-width="1.30952" stroke-linecap="round" stroke-linejoin="round"/>
<path d="M204.221 382.374H207.713" stroke="white" stroke-width="1.30952" stroke-linecap="round" stroke-linejoin="round"/>
</g>
<path d="M224.985 383.381H223.401V374.191H224.998L229.31 380.703V374.191H230.894V383.381H229.31L224.985 376.869V383.381ZM235.228 383.545C233.38 383.545 232.086 382.199 232.086 380.276C232.086 378.327 233.355 376.982 235.178 376.982C237.039 376.982 238.22 378.227 238.22 380.163V380.628L233.544 380.641C233.657 381.734 234.235 382.287 235.254 382.287C236.096 382.287 236.649 381.961 236.825 381.37H238.246C237.982 382.727 236.85 383.545 235.228 383.545ZM235.191 378.239C234.286 378.239 233.732 378.73 233.582 379.66H236.699C236.699 378.805 236.108 378.239 235.191 378.239ZM240.297 383.381L238.285 377.171H239.882L240.699 379.836C240.837 380.326 240.963 380.867 241.076 381.445C241.189 380.842 241.302 380.452 241.504 379.836L242.358 377.171H243.917L244.747 379.836C244.822 380.087 245.074 381.018 245.149 381.433C245.25 380.967 245.451 380.226 245.564 379.836L246.394 377.171H248.016L245.866 383.381H244.433L243.578 380.691C243.326 379.874 243.188 379.283 243.138 378.969C243.075 379.258 242.962 379.698 242.648 380.716L241.793 383.381H240.297ZM248.08 381.495H249.538C249.551 382.036 249.953 382.375 250.657 382.375C251.374 382.375 251.764 382.086 251.764 381.634C251.764 381.319 251.6 381.093 251.047 380.967L249.928 380.703C248.809 380.452 248.269 379.924 248.269 378.931C248.269 377.711 249.3 376.982 250.733 376.982C252.128 376.982 253.071 377.787 253.084 378.994H251.625C251.613 378.466 251.261 378.126 250.67 378.126C250.066 378.126 249.714 378.403 249.714 378.868C249.714 379.22 249.991 379.446 250.519 379.572L251.638 379.836C252.681 380.075 253.209 380.553 253.209 381.508C253.209 382.765 252.141 383.545 250.607 383.545C249.061 383.545 248.08 382.715 248.08 381.495ZM259.098 374.191V383.381H257.489V374.191H259.098ZM262.191 383.381H260.657V377.171H262.065L262.191 377.9C262.505 377.385 263.134 376.982 264.026 376.982C264.969 376.982 265.623 377.447 265.95 378.164C266.264 377.447 266.993 376.982 267.936 376.982C269.445 376.982 270.274 377.887 270.274 379.321V383.381H268.753V379.723C268.753 378.83 268.276 378.365 267.546 378.365C266.805 378.365 266.239 378.843 266.239 379.861V383.381H264.705V379.71C264.705 378.843 264.24 378.378 263.511 378.378C262.782 378.378 262.191 378.855 262.191 379.861V383.381ZM271.529 386.26V377.171H272.949L273.05 378.114C273.427 377.397 274.244 376.982 275.187 376.982C276.934 376.982 278.091 378.252 278.091 380.201C278.091 382.137 277.035 383.545 275.187 383.545C274.257 383.545 273.452 383.18 273.062 382.551V386.26H271.529ZM273.075 380.276C273.075 381.395 273.766 382.162 274.822 382.162C275.904 382.162 276.545 381.382 276.545 380.276C276.545 379.17 275.904 378.378 274.822 378.378C273.766 378.378 273.075 379.157 273.075 380.276ZM280.909 383.545C279.589 383.545 278.784 382.778 278.784 381.609C278.784 380.465 279.614 379.748 281.085 379.635L282.945 379.497V379.358C282.945 378.516 282.442 378.177 281.663 378.177C280.758 378.177 280.255 378.554 280.255 379.207H278.948C278.948 377.862 280.054 376.982 281.738 376.982C283.41 376.982 284.441 377.887 284.441 379.61V383.381H283.096L282.983 382.463C282.719 383.105 281.877 383.545 280.909 383.545ZM281.412 382.388C282.354 382.388 282.958 381.822 282.958 380.867V380.54L281.663 380.641C280.708 380.729 280.343 381.043 280.343 381.546C280.343 382.111 280.72 382.388 281.412 382.388ZM285.332 380.263C285.332 378.34 286.602 376.982 288.437 376.982C290.134 376.982 291.291 377.925 291.454 379.421H289.921C289.745 378.717 289.229 378.353 288.5 378.353C287.519 378.353 286.866 379.094 286.866 380.263C286.866 381.433 287.469 382.162 288.45 382.162C289.217 382.162 289.757 381.785 289.921 381.106H291.467C291.278 382.551 290.071 383.545 288.45 383.545C286.564 383.545 285.332 382.237 285.332 380.263ZM294.469 383.381H292.935V378.453H291.741V377.171H292.935V375.235H294.469V377.171H295.676V378.453H294.469V383.381Z" fill="white"/>
<rect x="300.574" y="369.786" width="29.5714" height="18.1905" rx="2.09524" fill="#3EDC81" fill-opacity="0.1"/>
<path d="M309.856 382.881L306.964 375.223H308.389L310.065 379.633C310.233 380.094 310.379 380.545 310.547 381.163C310.736 380.493 310.893 380.021 311.039 379.633L312.695 375.223H314.088L311.238 382.881H309.856ZM316.175 375.223V382.881H314.834V375.223H316.175ZM320.69 380.241H319.004V382.881H317.663V375.223H320.69C322.23 375.223 323.226 376.229 323.226 377.727C323.226 379.204 322.22 380.241 320.69 380.241ZM320.428 376.417H319.004V379.047H320.408C321.329 379.047 321.822 378.554 321.822 377.716C321.822 376.878 321.319 376.417 320.428 376.417Z" fill="#3EDC81"/>
</g>
<g opacity="0.5">
<path d="M33.5254 428.5C33.5254 422.633 33.5254 419.699 34.6672 417.458C35.6716 415.487 37.2743 413.884 39.2455 412.88C41.4865 411.738 44.4201 411.738 50.2873 411.738H181.708C187.575 411.738 190.509 411.738 192.749 412.88C194.721 413.884 196.323 415.487 197.328 417.458C198.47 419.699 198.47 422.633 198.47 428.5V432.691C198.47 438.558 198.47 441.492 197.328 443.732C196.323 445.704 194.721 447.306 192.749 448.311C190.509 449.453 187.575 449.453 181.708 449.453H50.2873C44.4201 449.453 41.4865 449.453 39.2455 448.311C37.2743 447.306 35.6716 445.704 34.6672 443.732C33.5254 441.492 33.5254 438.558 33.5254 432.691V428.5Z" fill="url(#paint15_linear_2213_3828)" fill-opacity="0.5"/>
</g>
<path d="M213.137 422.214C213.137 416.429 217.827 411.738 223.613 411.738H380.089C385.875 411.738 390.565 416.429 390.565 422.214V443.214C390.565 449 385.875 453.691 380.089 453.691H223.613C217.827 453.691 213.137 449 213.137 443.214V422.214Z" fill="white"/>
<path d="M223.613 412.262H380.089C385.585 412.262 390.041 416.718 390.041 422.215V443.215C390.041 448.711 385.585 453.167 380.089 453.167H223.613C218.117 453.167 213.66 448.711 213.66 443.215V422.215C213.66 416.718 218.117 412.262 223.613 412.262Z" stroke="white" stroke-opacity="0.3" stroke-width="1.04762"/>
<defs>
<filter id="filter0_d_2213_3828" x="360.718" y="124.902" width="28.3374" height="28.3367" filterUnits="userSpaceOnUse" color-interpolation-filters="sRGB">
<feFlood flood-opacity="0" result="BackgroundImageFix"/>
<feColorMatrix in="SourceAlpha" type="matrix" values="0 0 0 0 0 0 0 0 0 0 0 0 0 0 0 0 0 0 127 0" result="hardAlpha"/>
<feOffset dy="1.95913"/>
<feGaussianBlur stdDeviation="4.89782"/>
<feColorMatrix type="matrix" values="0 0 0 0 0 0 0 0 0 0 0 0 0 0 0 0 0 0 0.1 0"/>
<feBlend mode="normal" in2="BackgroundImageFix" result="effect1_dropShadow_2213_3828"/>
<feBlend mode="normal" in="SourceGraphic" in2="effect1_dropShadow_2213_3828" result="shape"/>
</filter>
<linearGradient id="paint0_linear_2213_3828" x1="220" y1="0.5" x2="220" y2="581.833" gradientUnits="userSpaceOnUse">
<stop stop-color="white" stop-opacity="0.1"/>
<stop offset="1" stop-color="white" stop-opacity="0.05"/>
</linearGradient>
<linearGradient id="paint1_linear_2213_3828" x1="52.9158" y1="494.068" x2="233.25" y2="52.6417" gradientUnits="userSpaceOnUse">
<stop stop-color="#0276DB"/>
<stop offset="1" stop-color="#3EDC81"/>
</linearGradient>
<linearGradient id="paint2_linear_2213_3828" x1="35.6198" y1="21.4523" x2="35.6198" y2="50.7856" gradientUnits="userSpaceOnUse">
<stop stop-color="white" stop-opacity="0.2"/>
<stop offset="1" stop-color="white" stop-opacity="0.1"/>
</linearGradient>
<linearGradient id="paint3_linear_2213_3828" x1="48.1921" y1="118.071" x2="48.1921" y2="147.405" gradientUnits="userSpaceOnUse">
<stop stop-color="white" stop-opacity="0.2"/>
<stop offset="1" stop-color="white" stop-opacity="0.1"/>
</linearGradient>
<linearGradient id="paint4_linear_2213_3828" x1="359.387" y1="132.738" x2="289.034" y2="149.817" gradientUnits="userSpaceOnUse">
<stop stop-color="#3EDC81"/>
<stop offset="0.954817" stop-color="#3EDC81" stop-opacity="0"/>
</linearGradient>
<linearGradient id="paint5_linear_2213_3828" x1="297.523" y1="152.119" x2="421.25" y2="152.119" gradientUnits="userSpaceOnUse">
<stop stop-color="#3EDC81"/>
<stop offset="1" stop-color="#249D57"/>
</linearGradient>
<linearGradient id="paint6_linear_2213_3828" x1="374.886" y1="132.738" x2="374.886" y2="141.484" gradientUnits="userSpaceOnUse">
<stop stop-color="#3EDC81"/>
<stop offset="1" stop-color="#20BE63"/>
</linearGradient>
<linearGradient id="paint7_linear_2213_3828" x1="48.1921" y1="206.31" x2="48.1921" y2="235.643" gradientUnits="userSpaceOnUse">
<stop stop-color="white" stop-opacity="0.2"/>
<stop offset="1" stop-color="white" stop-opacity="0.1"/>
</linearGradient>
<linearGradient id="paint8_linear_2213_3828" x1="84.9778" y1="256.595" x2="84.9778" y2="294.31" gradientUnits="userSpaceOnUse">
<stop stop-color="white" stop-opacity="0.2"/>
<stop offset="1" stop-color="white" stop-opacity="0.1"/>
</linearGradient>
<linearGradient id="paint9_linear_2213_3828" x1="199.05" y1="256.595" x2="199.05" y2="294.31" gradientUnits="userSpaceOnUse">
<stop stop-color="white" stop-opacity="0.2"/>
<stop offset="1" stop-color="white" stop-opacity="0.1"/>
</linearGradient>
<linearGradient id="paint10_linear_2213_3828" x1="310.12" y1="256.595" x2="310.12" y2="294.31" gradientUnits="userSpaceOnUse">
<stop stop-color="white" stop-opacity="0.2"/>
<stop offset="1" stop-color="white" stop-opacity="0.1"/>
</linearGradient>
<linearGradient id="paint11_linear_2213_3828" x1="80.4778" y1="308.31" x2="80.4778" y2="346.024" gradientUnits="userSpaceOnUse">
<stop stop-color="white" stop-opacity="0.2"/>
<stop offset="1" stop-color="white" stop-opacity="0.1"/>
</linearGradient>
<linearGradient id="paint12_linear_2213_3828" x1="214.931" y1="308.31" x2="214.931" y2="346.024" gradientUnits="userSpaceOnUse">
<stop stop-color="white" stop-opacity="0.2"/>
<stop offset="1" stop-color="white" stop-opacity="0.1"/>
</linearGradient>
<linearGradient id="paint13_linear_2213_3828" x1="103.859" y1="360.024" x2="103.859" y2="397.738" gradientUnits="userSpaceOnUse">
<stop stop-color="white" stop-opacity="0.2"/>
<stop offset="1" stop-color="white" stop-opacity="0.1"/>
</linearGradient>
<linearGradient id="paint14_linear_2213_3828" x1="263.693" y1="360.024" x2="263.693" y2="397.738" gradientUnits="userSpaceOnUse">
<stop stop-color="white" stop-opacity="0.2"/>
<stop offset="1" stop-color="white" stop-opacity="0.1"/>
</linearGradient>
<linearGradient id="paint15_linear_2213_3828" x1="115.997" y1="411.738" x2="115.997" y2="449.453" gradientUnits="userSpaceOnUse">
<stop stop-color="white" stop-opacity="0.2"/>
<stop offset="1" stop-color="white" stop-opacity="0.1"/>
</linearGradient>
<clipPath id="clip0_2213_3828">
<path d="M20.9531 113.881C20.9531 108.095 25.6435 103.405 31.4293 103.405H408.572C414.358 103.405 419.048 108.095 419.048 113.881V179.071C419.048 184.857 414.358 189.548 408.572 189.548H31.4293C25.6435 189.548 20.9531 184.857 20.9531 179.071V113.881Z" fill="white"/>
</clipPath>
<clipPath id="clip1_2213_3828">
<rect width="14.6667" height="14.6667" fill="white" transform="translate(40.8594 213.643)"/>
</clipPath>
<clipPath id="clip2_2213_3828">
<rect width="20.9524" height="20.9524" fill="white" transform="translate(159.479 264.976)"/>
</clipPath>
<clipPath id="clip3_2213_3828">
<rect width="20.9524" height="20.9524" fill="white" transform="translate(270.049 264.976)"/>
</clipPath>
<clipPath id="clip4_2213_3828">
<rect width="20.9524" height="20.9524" fill="white" transform="translate(41.9062 316.691)"/>
</clipPath>
<clipPath id="clip5_2213_3828">
<rect width="20.9524" height="20.9524" fill="white" transform="translate(150.479 316.691)"/>
</clipPath>
<clipPath id="clip6_2213_3828">
<rect width="20.9524" height="20.9524" fill="white" transform="translate(41.9062 368.405)"/>
</clipPath>
<clipPath id="clip7_2213_3828">
<rect width="20.9524" height="20.9524" fill="white" transform="translate(197.24 368.405)"/>
</clipPath>
</defs>
</svg>
