<svg width="311" height="220" viewBox="0 0 311 220" fill="none" xmlns="http://www.w3.org/2000/svg">
<path d="M23.8447 0.956055H287.155C291.248 0.956055 294.291 0.956409 296.701 1.15332C299.106 1.3498 300.841 1.73929 302.326 2.49609C304.986 3.85124 307.149 6.0142 308.504 8.67383C309.261 10.1593 309.65 11.8943 309.847 14.2988C310.044 16.7089 310.044 19.7516 310.044 23.8447V486.271C310.044 490.365 310.044 493.407 309.847 495.817C309.65 498.222 309.261 499.957 308.504 501.442C307.149 504.102 304.986 506.265 302.326 507.62C300.841 508.377 299.106 508.766 296.701 508.963C294.291 509.16 291.248 509.16 287.155 509.16H23.8447C19.7516 509.16 16.7089 509.16 14.2988 508.963C11.8943 508.766 10.1593 508.377 8.67383 507.62C6.0142 506.265 3.85124 504.102 2.49609 501.442C1.73931 499.957 1.34979 498.222 1.15332 495.817C0.956408 493.407 0.956055 490.365 0.956055 486.271V23.8447C0.956055 19.7516 0.956409 16.7089 1.15332 14.2988C1.3498 11.8943 1.73929 10.1593 2.49609 8.67383C3.85124 6.01421 6.01421 3.85124 8.67383 2.49609C10.1593 1.73929 11.8943 1.3498 14.2988 1.15332C16.7089 0.956409 19.7516 0.956055 23.8447 0.956055Z" fill="url(#paint0_linear_468_3475)"/>
<path d="M23.8447 0.956055H287.155C291.248 0.956055 294.291 0.956409 296.701 1.15332C299.106 1.3498 300.841 1.73929 302.326 2.49609C304.986 3.85124 307.149 6.0142 308.504 8.67383C309.261 10.1593 309.65 11.8943 309.847 14.2988C310.044 16.7089 310.044 19.7516 310.044 23.8447V486.271C310.044 490.365 310.044 493.407 309.847 495.817C309.65 498.222 309.261 499.957 308.504 501.442C307.149 504.102 304.986 506.265 302.326 507.62C300.841 508.377 299.106 508.766 296.701 508.963C294.291 509.16 291.248 509.16 287.155 509.16H23.8447C19.7516 509.16 16.7089 509.16 14.2988 508.963C11.8943 508.766 10.1593 508.377 8.67383 507.62C6.0142 506.265 3.85124 504.102 2.49609 501.442C1.73931 499.957 1.34979 498.222 1.15332 495.817C0.956408 493.407 0.956055 490.365 0.956055 486.271V23.8447C0.956055 19.7516 0.956409 16.7089 1.15332 14.2988C1.3498 11.8943 1.73929 10.1593 2.49609 8.67383C3.85124 6.01421 6.01421 3.85124 8.67383 2.49609C10.1593 1.73929 11.8943 1.3498 14.2988 1.15332C16.7089 0.956409 19.7516 0.956055 23.8447 0.956055Z" fill="url(#paint1_radial_468_3475)"/>
<path d="M23.8447 0.956055H287.155C291.248 0.956055 294.291 0.956409 296.701 1.15332C299.106 1.3498 300.841 1.73929 302.326 2.49609C304.986 3.85124 307.149 6.0142 308.504 8.67383C309.261 10.1593 309.65 11.8943 309.847 14.2988C310.044 16.7089 310.044 19.7516 310.044 23.8447V486.271C310.044 490.365 310.044 493.407 309.847 495.817C309.65 498.222 309.261 499.957 308.504 501.442C307.149 504.102 304.986 506.265 302.326 507.62C300.841 508.377 299.106 508.766 296.701 508.963C294.291 509.16 291.248 509.16 287.155 509.16H23.8447C19.7516 509.16 16.7089 509.16 14.2988 508.963C11.8943 508.766 10.1593 508.377 8.67383 507.62C6.0142 506.265 3.85124 504.102 2.49609 501.442C1.73931 499.957 1.34979 498.222 1.15332 495.817C0.956408 493.407 0.956055 490.365 0.956055 486.271V23.8447C0.956055 19.7516 0.956409 16.7089 1.15332 14.2988C1.3498 11.8943 1.73929 10.1593 2.49609 8.67383C3.85124 6.01421 6.01421 3.85124 8.67383 2.49609C10.1593 1.73929 11.8943 1.3498 14.2988 1.15332C16.7089 0.956409 19.7516 0.956055 23.8447 0.956055Z" stroke="url(#paint2_linear_468_3475)" stroke-width="0.911919"/>
<g clip-path="url(#clip0_468_3475)">
<g clip-path="url(#clip1_468_3475)">
<path d="M30.5387 21.5533V20.5132M33.2647 22.2885L33.9992 21.5525M34.0067 25.019H35.0445M35.0445 28.0229C35.0445 31.5629 35.0445 33.333 33.9444 34.4324C32.8457 35.5326 31.0749 35.5326 27.5348 35.5326C23.9948 35.5326 22.2247 35.5326 21.1246 34.4324C20.0251 33.3337 20.0251 31.5629 20.0251 28.0229C20.0251 24.4828 20.0251 22.7128 21.1246 21.6126C22.2255 20.5132 23.9948 20.5132 27.5348 20.5132" stroke="white" stroke-width="1.12645" stroke-linecap="round" stroke-linejoin="round"/>
<path d="M27.4235 25.0244H29.8431C30.1278 25.0244 30.3583 25.261 30.3583 25.5523V28.0493M20.5957 29.4934C22.3027 29.6932 26.5862 29.16 29.7057 25.6875" stroke="white" stroke-width="1.12645" stroke-linecap="round" stroke-linejoin="round"/>
</g>
<path d="M45.3996 33.5232H43.9289L47.7354 23.0985H49.307L53.128 33.5232H51.6428L50.7056 30.9278H46.3224L45.3996 33.5232ZM48.341 25.3478L46.7549 29.7023H50.2875L48.687 25.3478C48.6149 25.146 48.5428 24.9009 48.514 24.7423C48.4852 24.8864 48.4131 25.1316 48.341 25.3478ZM55.6384 23.0985V33.5232H54.2253V23.0985H55.6384ZM60.4259 24.3962V23.0985H68.111V24.3962H64.9822V33.5232H63.5692V24.3962H60.4259ZM72.1908 26.4148V27.6548H71.5852C70.302 27.6548 69.509 28.4334 69.509 29.7888V33.5232H68.1536V26.4869H69.4224L69.509 27.5539C69.7973 26.8185 70.5038 26.3283 71.4699 26.3283C71.715 26.3283 71.9169 26.3571 72.1908 26.4148ZM75.9625 33.6962C73.8862 33.6962 72.4588 32.1967 72.4588 30.0051C72.4588 27.799 73.8574 26.2706 75.9048 26.2706C77.909 26.2706 79.2211 27.6548 79.2211 29.7455V30.2502L73.7709 30.2646C73.8718 31.7497 74.6504 32.5716 75.9914 32.5716C77.0439 32.5716 77.736 32.139 77.9667 31.3316H79.2355C78.8895 32.8455 77.7072 33.6962 75.9625 33.6962ZM75.9048 27.4097C74.7225 27.4097 73.9727 28.1162 73.7997 29.3562H77.8658C77.8658 28.1883 77.1016 27.4097 75.9048 27.4097ZM81.8019 33.5232H80.4466V26.4725H81.6722L81.8164 27.5539C82.2633 26.7464 83.1573 26.2706 84.1522 26.2706C86.0122 26.2706 86.8629 27.4097 86.8629 29.212V33.5232H85.5075V29.5148C85.5075 28.0874 84.8443 27.5106 83.8061 27.5106C82.5373 27.5106 81.8019 28.419 81.8019 29.7888V33.5232ZM91.2778 33.6962C89.2303 33.6962 87.9903 32.1678 87.9903 30.0195C87.9903 27.8567 89.2448 26.2706 91.3355 26.2706C92.4168 26.2706 93.3252 26.7464 93.801 27.6116V22.9111H95.142V33.5232H93.9308L93.8155 32.2399C93.3541 33.206 92.4024 33.6962 91.2778 33.6962ZM91.5517 32.4706C92.9359 32.4706 93.7866 31.4469 93.7866 29.9762C93.7866 28.5344 92.9359 27.4962 91.5517 27.4962C90.1675 27.4962 89.3601 28.5344 89.3601 29.9762C89.3601 31.4325 90.1675 32.4706 91.5517 32.4706ZM106.202 29.0967H102.107V33.5232H100.694V23.0985H106.98V24.3962H102.107V27.8134H106.202V29.0967ZM107.162 29.9906C107.162 27.8134 108.719 26.2851 110.839 26.2851C112.944 26.2851 114.501 27.8134 114.501 29.9906C114.501 32.1678 112.944 33.6962 110.839 33.6962C108.719 33.6962 107.162 32.1678 107.162 29.9906ZM108.532 29.9906C108.532 31.4613 109.469 32.4851 110.839 32.4851C112.194 32.4851 113.146 31.4613 113.146 29.9906C113.146 28.5199 112.194 27.4962 110.839 27.4962C109.469 27.4962 108.532 28.5199 108.532 29.9906ZM119.75 26.4148V27.6548H119.145C117.861 27.6548 117.068 28.4334 117.068 29.7888V33.5232H115.713V26.4869H116.982L117.068 27.5539C117.357 26.8185 118.063 26.3283 119.029 26.3283C119.274 26.3283 119.476 26.3571 119.75 26.4148ZM123.522 33.6962C121.446 33.6962 120.018 32.1967 120.018 30.0051C120.018 27.799 121.417 26.2706 123.464 26.2706C125.468 26.2706 126.781 27.6548 126.781 29.7455V30.2502L121.33 30.2646C121.431 31.7497 122.21 32.5716 123.551 32.5716C124.603 32.5716 125.295 32.139 125.526 31.3316H126.795C126.449 32.8455 125.267 33.6962 123.522 33.6962ZM123.464 27.4097C122.282 27.4097 121.532 28.1162 121.359 29.3562H125.425C125.425 28.1883 124.661 27.4097 123.464 27.4097ZM127.545 30.0051C127.545 27.799 128.943 26.2706 131.005 26.2706C132.779 26.2706 134.019 27.2799 134.264 28.8516H132.908C132.678 27.9576 131.957 27.4818 131.048 27.4818C129.765 27.4818 128.886 28.4623 128.886 29.9906C128.886 31.5046 129.707 32.4851 130.991 32.4851C131.957 32.4851 132.678 31.9804 132.923 31.1441H134.278C134.004 32.6725 132.692 33.6962 130.991 33.6962C128.914 33.6962 127.545 32.2255 127.545 30.0051ZM137.482 33.6962C135.968 33.6962 135.074 32.8455 135.074 31.5623C135.074 30.2646 136.04 29.4571 137.698 29.3274L139.918 29.1544V28.9525C139.918 27.7702 139.212 27.352 138.26 27.352C137.121 27.352 136.472 27.8567 136.472 28.7074H135.29C135.29 27.2367 136.501 26.2706 138.318 26.2706C140.063 26.2706 141.245 27.1934 141.245 29.0967V33.5232H140.091L139.947 32.3841C139.587 33.1916 138.621 33.6962 137.482 33.6962ZM137.871 32.6437C139.154 32.6437 139.933 31.8074 139.933 30.4809V30.106L138.13 30.2502C136.934 30.3655 136.443 30.8269 136.443 31.519C136.443 32.2688 136.991 32.6437 137.871 32.6437ZM142.257 31.4758H143.554C143.554 32.1967 144.102 32.6292 144.996 32.6292C145.948 32.6292 146.496 32.2399 146.496 31.5911C146.496 31.1153 146.265 30.8269 145.53 30.6395L144.29 30.3511C143.035 30.0483 142.444 29.4283 142.444 28.3902C142.444 27.0925 143.54 26.2706 145.097 26.2706C146.64 26.2706 147.649 27.1358 147.678 28.4767H146.381C146.352 27.7702 145.876 27.3232 145.054 27.3232C144.203 27.3232 143.727 27.6981 143.727 28.3469C143.727 28.8227 144.074 29.1399 144.766 29.313L146.006 29.6158C147.202 29.9041 147.794 30.452 147.794 31.5046C147.794 32.8455 146.64 33.6962 144.967 33.6962C143.309 33.6962 142.257 32.8167 142.257 31.4758ZM150.998 33.5232H149.643V27.6116H148.258V26.4725H149.643V24.2664H150.998V26.4725H152.382V27.6116H150.998V33.5232Z" fill="white"/>
<path d="M280.461 23.5173H280.465M280.461 28.0231H280.465M280.461 32.529H280.465M286.464 23.5173H286.469M286.464 28.0231H286.469M286.464 32.529H286.469" stroke="white" stroke-width="1.12645" stroke-linecap="round" stroke-linejoin="round"/>
<path d="M25.0458 69.5466H19.0909V68.8275L21.9801 66.3042C23.6454 64.8534 24.0744 64.2226 24.0744 63.1502C24.0744 61.9264 23.3426 61.182 22.1441 61.182C20.8951 61.182 20.075 62.0904 20.0371 63.4908H19.1288C19.1792 61.5984 20.3778 60.3494 22.1567 60.3494C23.8599 60.3494 24.9953 61.447 24.9953 63.0997C24.9953 64.4118 24.4024 65.2823 22.5983 66.8594L20.4913 68.7013H25.0458V69.5466ZM32.1892 67.629H31.1294V69.5466H30.2463V67.629H25.5026V66.8215L29.9183 60.5134H31.1294V66.8215H32.1892V67.629ZM26.4866 66.8215H30.2463V61.447L26.4866 66.8215ZM34.4343 69.534H33.5638V60.3494H34.4343V64.5001C34.8254 63.7684 35.5698 63.2763 36.5917 63.2763C38.1939 63.2763 38.9131 64.273 38.9131 65.8122V69.5466H38.0425V66.0015C38.0425 64.5758 37.3739 64.0712 36.4277 64.0712C35.1156 64.0712 34.4343 65.0426 34.4343 66.2159V69.534ZM43.8317 69.5466H42.9108L46.2288 60.5134H47.3517L50.7076 69.5466H49.7614L48.8783 67.1495H44.7149L43.8317 69.5466ZM46.6704 61.7876L44.9924 66.3547H48.5881L46.8975 61.7876C46.8597 61.6615 46.7966 61.5101 46.784 61.4217C46.7713 61.4974 46.7209 61.6615 46.6704 61.7876ZM52.6194 60.5134V69.5466H51.711V60.5134H52.6194ZM62.4151 65.5725H58.7186V69.5466H57.8102V60.5134H63.1343V61.346H58.7186V64.7524H62.4151V65.5725ZM63.3094 66.4935C63.3094 64.6263 64.6215 63.2763 66.413 63.2763C68.2045 63.2763 69.5166 64.6263 69.5166 66.4935C69.5166 68.3481 68.2045 69.698 66.413 69.698C64.6215 69.698 63.3094 68.3481 63.3094 66.4935ZM64.1925 66.4809C64.1925 67.9191 65.1009 68.9158 66.413 68.9158C67.7125 68.9158 68.6335 67.9191 68.6335 66.4809C68.6335 65.0679 67.7125 64.0585 66.413 64.0585C65.1009 64.0585 64.1925 65.0679 64.1925 66.4809ZM73.8485 63.3647V64.1469H73.3691C72.2463 64.1469 71.5271 64.9038 71.5271 66.0645V69.5466H70.6566V63.4404H71.4767L71.5398 64.3866C71.7795 63.7305 72.4229 63.3016 73.2808 63.3016C73.47 63.3016 73.6341 63.3142 73.8485 63.3647ZM77.0805 69.698C75.289 69.698 74.0904 68.4112 74.0904 66.4935C74.0904 64.5884 75.2763 63.2763 77.0174 63.2763C78.6701 63.2763 79.793 64.4497 79.793 66.1781V66.607H74.9357C74.9988 68.0958 75.781 68.9537 77.0931 68.9537C78.0898 68.9537 78.7332 68.5247 78.9603 67.7173H79.793C79.465 69.0041 78.5187 69.698 77.0805 69.698ZM77.0174 64.0207C75.8693 64.0207 75.1123 64.7777 74.9609 65.9762H78.9225C78.9225 64.8029 78.1655 64.0207 77.0174 64.0207ZM80.5035 66.5061C80.5035 64.5884 81.6768 63.2763 83.4557 63.2763C84.8688 63.2763 85.9033 64.0964 86.143 65.358H85.2725C85.0454 64.5127 84.3136 64.0459 83.4683 64.0459C82.232 64.0459 81.3614 64.9922 81.3614 66.4935C81.3614 67.9444 82.1689 68.9158 83.4053 68.9158C84.3136 68.9158 85.0454 68.4112 85.2851 67.629H86.1682C85.8781 68.878 84.7931 69.698 83.4053 69.698C81.6768 69.698 80.5035 68.4238 80.5035 66.5061ZM88.9884 69.698C87.6889 69.698 86.9193 68.9663 86.9193 67.8939C86.9193 66.771 87.7772 66.0645 89.2028 65.951L91.2214 65.787V65.5851C91.2214 64.3866 90.5023 64.0081 89.6066 64.0081C88.5468 64.0081 87.916 64.4875 87.916 65.3076H87.1212C87.1212 64.0712 88.1305 63.2763 89.6318 63.2763C91.0448 63.2763 92.0794 63.9829 92.0794 65.5977V69.5466H91.3476L91.2341 68.4742C90.8556 69.2438 90.0229 69.698 88.9884 69.698ZM89.1902 68.9915C90.4771 68.9915 91.2214 68.0958 91.2214 66.771V66.443L89.4173 66.5818C88.2692 66.6827 87.8024 67.1874 87.8024 67.8687C87.8024 68.613 88.3576 68.9915 89.1902 68.9915ZM93.0566 67.8308H93.8893C93.8893 68.5373 94.4192 68.9789 95.2771 68.9789C96.2233 68.9789 96.7784 68.5752 96.7784 67.9191C96.7784 67.4145 96.5261 67.1243 95.807 66.9477L94.7598 66.6827C93.7001 66.4178 93.1828 65.8627 93.1828 65.03C93.1828 63.9576 94.0785 63.2763 95.3906 63.2763C96.6775 63.2763 97.5102 63.9829 97.548 65.1183H96.7027C96.6775 64.4118 96.1855 63.9955 95.3654 63.9955C94.5075 63.9955 94.0281 64.3613 94.0281 65.0174C94.0281 65.4842 94.3561 65.8122 95.0248 65.9762L96.0719 66.2412C97.1317 66.5061 97.6111 66.9981 97.6111 67.8813C97.6111 68.9789 96.6775 69.698 95.2897 69.698C93.9145 69.698 93.0566 68.9663 93.0566 67.8308ZM100.192 69.5466H99.3344V64.1721H98.1106V63.4404H99.3344V61.5101H100.192V63.4404H101.416V64.1721H100.192V69.5466Z" fill="white"/>
<path d="M180.036 70.5466H178.652V60.122H180.036L183.626 68.8885L187.216 60.122H188.629V70.5466H187.245V66.4229C187.245 64.4764 187.26 63.7699 187.332 63.0345L184.289 70.5466H182.963L179.935 63.0634C180.007 63.568 180.036 64.635 180.036 66.0913V70.5466ZM190.076 67.0141C190.076 64.8369 191.634 63.3085 193.753 63.3085C195.858 63.3085 197.415 64.8369 197.415 67.0141C197.415 69.1913 195.858 70.7197 193.753 70.7197C191.634 70.7197 190.076 69.1913 190.076 67.0141ZM191.446 67.0141C191.446 68.4848 192.383 69.5085 193.753 69.5085C195.108 69.5085 196.06 68.4848 196.06 67.0141C196.06 65.5434 195.108 64.5197 193.753 64.5197C192.383 64.5197 191.446 65.5434 191.446 67.0141ZM201.453 70.7197C199.406 70.7197 198.166 69.1913 198.166 67.0429C198.166 64.8801 199.42 63.2941 201.511 63.2941C202.593 63.2941 203.501 63.7699 203.977 64.635V59.9345H205.318V70.5466H204.106L203.991 69.2634C203.53 70.2294 202.578 70.7197 201.453 70.7197ZM201.727 69.4941C203.112 69.4941 203.962 68.4704 203.962 66.9997C203.962 65.5578 203.112 64.5197 201.727 64.5197C200.343 64.5197 199.536 65.5578 199.536 66.9997C199.536 68.4559 200.343 69.4941 201.727 69.4941ZM210.027 70.7197C207.951 70.7197 206.523 69.2201 206.523 67.0285C206.523 64.8224 207.922 63.2941 209.969 63.2941C211.973 63.2941 213.286 64.6783 213.286 66.769V67.2736L207.835 67.288C207.936 68.7731 208.715 69.595 210.056 69.595C211.108 69.595 211.8 69.1624 212.031 68.355H213.3C212.954 69.869 211.772 70.7197 210.027 70.7197ZM209.969 64.4331C208.787 64.4331 208.037 65.1397 207.864 66.3797H211.93C211.93 65.2117 211.166 64.4331 209.969 64.4331ZM218.548 63.4383V64.6783H217.943C216.659 64.6783 215.866 65.4569 215.866 66.8122V70.5466H214.511V63.5104H215.78L215.866 64.5773C216.155 63.842 216.861 63.3517 217.827 63.3517C218.072 63.3517 218.274 63.3806 218.548 63.4383ZM221.311 70.7197C219.797 70.7197 218.903 69.869 218.903 68.5857C218.903 67.288 219.869 66.4806 221.528 66.3508L223.748 66.1778V65.9759C223.748 64.7936 223.042 64.3755 222.09 64.3755C220.951 64.3755 220.302 64.8801 220.302 65.7308H219.12C219.12 64.2601 220.331 63.2941 222.148 63.2941C223.892 63.2941 225.075 64.2169 225.075 66.1201V70.5466H223.921L223.777 69.4076C223.416 70.215 222.45 70.7197 221.311 70.7197ZM221.701 69.6671C222.984 69.6671 223.762 68.8308 223.762 67.5043V67.1294L221.96 67.2736C220.763 67.389 220.273 67.8504 220.273 68.5424C220.273 69.2922 220.821 69.6671 221.701 69.6671ZM228.54 70.5466H227.185V64.635H225.801V63.4959H227.185V61.2899H228.54V63.4959H229.924V64.635H228.54V70.5466ZM233.824 70.7197C231.748 70.7197 230.321 69.2201 230.321 67.0285C230.321 64.8224 231.719 63.2941 233.767 63.2941C235.771 63.2941 237.083 64.6783 237.083 66.769V67.2736L231.633 67.288C231.734 68.7731 232.512 69.595 233.853 69.595C234.906 69.595 235.598 69.1624 235.829 68.355H237.097C236.751 69.869 235.569 70.7197 233.824 70.7197ZM233.767 64.4331C232.584 64.4331 231.835 65.1397 231.662 66.3797H235.728C235.728 65.2117 234.963 64.4331 233.767 64.4331ZM242.121 66.841V60.122H243.534V66.7545C243.534 68.4271 244.457 69.3499 246.115 69.3499C247.759 69.3499 248.667 68.4127 248.667 66.7545V60.122H250.095V66.841C250.095 69.2345 248.566 70.7197 246.115 70.7197C243.65 70.7197 242.121 69.249 242.121 66.841ZM251.925 73.7043V63.4959H253.151L253.252 64.7648C253.727 63.7987 254.679 63.2941 255.804 63.2941C257.822 63.2941 259.077 64.808 259.077 66.9708C259.077 69.1192 257.894 70.7341 255.804 70.7341C254.679 70.7341 253.742 70.2583 253.28 69.3931V73.7043H251.925ZM253.295 67.0285C253.295 68.4704 254.131 69.5085 255.515 69.5085C256.899 69.5085 257.721 68.4704 257.721 67.0285C257.721 65.5722 256.899 64.5341 255.515 64.5341C254.131 64.5341 253.295 65.5578 253.295 67.0285ZM262.202 70.5466H260.846V64.635H259.462V63.4959H260.846V61.2899H262.202V63.4959H263.586V64.635H262.202V70.5466ZM268.551 63.4383V64.6783H267.945C266.662 64.6783 265.869 65.4569 265.869 66.8122V70.5466H264.514V63.5104H265.783L265.869 64.5773C266.157 63.842 266.864 63.3517 267.83 63.3517C268.075 63.3517 268.277 63.3806 268.551 63.4383ZM272.323 70.7197C270.246 70.7197 268.819 69.2201 268.819 67.0285C268.819 64.8224 270.217 63.2941 272.265 63.2941C274.269 63.2941 275.581 64.6783 275.581 66.769V67.2736L270.131 67.288C270.232 68.7731 271.011 69.595 272.351 69.595C273.404 69.595 274.096 69.1624 274.327 68.355H275.596C275.25 69.869 274.067 70.7197 272.323 70.7197ZM272.265 64.4331C271.083 64.4331 270.333 65.1397 270.16 66.3797H274.226C274.226 65.2117 273.462 64.4331 272.265 64.4331ZM278.162 70.5466H276.807V63.4959H278.032L278.176 64.5773C278.623 63.7699 279.517 63.2941 280.512 63.2941C282.372 63.2941 283.223 64.4331 283.223 66.2355V70.5466H281.868V66.5383C281.868 65.1108 281.204 64.5341 280.166 64.5341C278.897 64.5341 278.162 65.4424 278.162 66.8122V70.5466ZM287.638 70.7197C285.59 70.7197 284.35 69.1913 284.35 67.0429C284.35 64.8801 285.605 63.2941 287.696 63.2941C288.777 63.2941 289.685 63.7699 290.161 64.635V59.9345H291.502V70.5466H290.291L290.176 69.2634C289.714 70.2294 288.763 70.7197 287.638 70.7197ZM287.912 69.4941C289.296 69.4941 290.147 68.4704 290.147 66.9997C290.147 65.5578 289.296 64.5197 287.912 64.5197C286.528 64.5197 285.72 65.5578 285.72 66.9997C285.72 68.4559 286.528 69.4941 287.912 69.4941Z" fill="#F59D31"/>
<path d="M25.0332 97.5583H19.6208V88.5251H25.0206V89.3578H20.5292V92.6128H24.6042V93.4328H20.5292V96.7257H25.0332V97.5583ZM26.6758 97.5583H25.6539L27.8365 94.5052L25.6665 91.4521H26.6884L28.4168 93.8996L30.1326 91.4521H31.1419L28.9719 94.5178L31.1293 97.5583H30.0948L28.379 95.1108L26.6758 97.5583ZM31.9251 100.22V91.4521H32.6821L32.7704 92.6885C33.1994 91.7422 34.0573 91.2881 35.0792 91.2881C36.8455 91.2881 37.9052 92.638 37.9052 94.48C37.9052 96.322 36.8833 97.7097 35.0792 97.7097C34.0447 97.7097 33.2246 97.2682 32.7957 96.385V100.22H31.9251ZM32.8083 94.5052C32.8083 95.9056 33.5905 96.9275 34.9278 96.9275C36.2525 96.9275 37.0221 95.9056 37.0221 94.5052C37.0221 93.0922 36.2525 92.0829 34.9278 92.0829C33.5905 92.0829 32.8083 93.0922 32.8083 94.5052ZM41.6016 97.7097C39.8101 97.7097 38.6116 96.4229 38.6116 94.5052C38.6116 92.6002 39.7975 91.2881 41.5385 91.2881C43.1913 91.2881 44.3141 92.4614 44.3141 94.1898V94.6188H39.4569C39.5199 96.1075 40.3021 96.9654 41.6142 96.9654C42.6109 96.9654 43.2544 96.5364 43.4814 95.729H44.3141C43.9861 97.0158 43.0399 97.7097 41.6016 97.7097ZM41.5385 92.0324C40.3905 92.0324 39.6335 92.7894 39.4821 93.9879H43.4436C43.4436 92.8146 42.6866 92.0324 41.5385 92.0324ZM45.0247 94.5178C45.0247 92.6002 46.198 91.2881 47.9769 91.2881C49.3899 91.2881 50.4244 92.1081 50.6642 93.3697H49.7936C49.5665 92.5245 48.8348 92.0577 47.9895 92.0577C46.7531 92.0577 45.8826 93.0039 45.8826 94.5052C45.8826 95.9561 46.69 96.9275 47.9264 96.9275C48.8348 96.9275 49.5665 96.4229 49.8062 95.6407H50.6894C50.3992 96.8897 49.3142 97.7097 47.9264 97.7097C46.198 97.7097 45.0247 96.4355 45.0247 94.5178ZM53.1563 97.5583H52.2984V92.1838H51.0746V91.4521H52.2984V89.5218H53.1563V91.4521H54.38V92.1838H53.1563V97.5583ZM57.7608 97.7097C55.9693 97.7097 54.7708 96.4229 54.7708 94.5052C54.7708 92.6002 55.9567 91.2881 57.6977 91.2881C59.3505 91.2881 60.4733 92.4614 60.4733 94.1898V94.6188H55.616C55.6791 96.1075 56.4613 96.9654 57.7734 96.9654C58.7701 96.9654 59.4135 96.5364 59.6406 95.729H60.4733C60.1453 97.0158 59.1991 97.7097 57.7608 97.7097ZM57.6977 92.0324C56.5496 92.0324 55.7927 92.7894 55.6413 93.9879H59.6028C59.6028 92.8146 58.8458 92.0324 57.6977 92.0324ZM64.0099 97.7097C62.231 97.7097 61.1839 96.3472 61.1839 94.5178C61.1839 92.6758 62.231 91.2881 64.0478 91.2881C65.0571 91.2881 65.8645 91.7296 66.2935 92.6128V88.3611H67.164V97.5583H66.407L66.3187 96.3093C65.8897 97.2556 65.0318 97.7097 64.0099 97.7097ZM64.1613 96.9149C65.4986 96.9149 66.2808 95.9056 66.2808 94.4926C66.2808 93.0922 65.4986 92.0703 64.1613 92.0703C62.8366 92.0703 62.067 93.0922 62.067 94.4926C62.067 95.9056 62.8366 96.9149 64.1613 96.9149ZM73.0725 97.5583H72.1642V88.5251H75.5327C77.3621 88.5251 78.4723 89.5344 78.4723 91.1367C78.4723 92.4361 77.791 93.3445 76.6303 93.6599L78.5606 97.5583H77.5513L75.7093 93.8113H73.0725V97.5583ZM73.0725 89.3452V92.9913H75.5579C76.807 92.9913 77.5387 92.31 77.5387 91.1619C77.5387 89.9886 76.7691 89.3452 75.5327 89.3452H73.0725ZM81.2998 97.7097C80.0004 97.7097 79.2308 96.978 79.2308 95.9056C79.2308 94.7828 80.0887 94.0763 81.5143 93.9627L83.5329 93.7987V93.5968C83.5329 92.3983 82.8138 92.0198 81.918 92.0198C80.8583 92.0198 80.2274 92.4992 80.2274 93.3193H79.4326C79.4326 92.0829 80.4419 91.2881 81.9433 91.2881C83.3563 91.2881 84.3908 91.9946 84.3908 93.6095V97.5583H83.6591L83.5455 96.486C83.167 97.2556 82.3344 97.7097 81.2998 97.7097ZM81.5017 97.0032C82.7886 97.0032 83.5329 96.1075 83.5329 94.7828V94.4547L81.7288 94.5935C80.5807 94.6945 80.1139 95.1991 80.1139 95.8804C80.1139 96.6247 80.669 97.0032 81.5017 97.0032ZM86.7559 97.5583H85.8854V91.4521H86.6423L86.7685 92.5118C87.1722 91.7296 87.9797 91.2881 88.8628 91.2881C90.5408 91.2881 91.2347 92.2847 91.2347 93.8239V97.5583H90.3641V94.0132C90.3641 92.5875 89.7207 92.0829 88.7114 92.0829C87.4624 92.0829 86.7559 92.9913 86.7559 94.3664V97.5583ZM92.301 94.3286C92.301 92.6632 93.3734 91.2881 95.1649 91.2881C96.2247 91.2881 97.0321 91.7801 97.4232 92.6758L97.5115 91.4521H98.2685V97.3691C98.2685 99.1858 97.1078 100.372 95.3163 100.372C93.7519 100.372 92.6543 99.4886 92.4146 98.0125H93.2851C93.4743 98.9966 94.2313 99.577 95.3289 99.577C96.5779 99.577 97.4106 98.7317 97.4106 97.4574V96.0065C96.9943 96.8645 96.149 97.3691 95.1018 97.3691C93.3608 97.3691 92.301 95.9939 92.301 94.3286ZM93.1715 94.316C93.1715 95.565 93.9411 96.5869 95.228 96.5869C96.5527 96.5869 97.3349 95.6281 97.3349 94.316C97.3349 93.0165 96.5779 92.0577 95.2406 92.0577C93.9285 92.0577 93.1715 93.0796 93.1715 94.316ZM102.394 97.7097C100.602 97.7097 99.4038 96.4229 99.4038 94.5052C99.4038 92.6002 100.59 91.2881 102.331 91.2881C103.984 91.2881 105.106 92.4614 105.106 94.1898V94.6188H100.249C100.312 96.1075 101.094 96.9654 102.406 96.9654C103.403 96.9654 104.047 96.5364 104.274 95.729H105.106C104.778 97.0158 103.832 97.7097 102.394 97.7097ZM102.331 92.0324C101.183 92.0324 100.426 92.7894 100.274 93.9879H104.236C104.236 92.8146 103.479 92.0324 102.331 92.0324Z" fill="white"/>
<path d="M173.732 99.957V98.717C171.829 98.6016 170.575 97.5202 170.488 95.8332H171.93C171.959 96.756 172.636 97.3616 173.732 97.477V93.8867L173.213 93.7714C171.512 93.3821 170.632 92.4304 170.632 90.9453C170.632 89.3016 171.858 88.1337 173.732 87.9751V86.7207H174.655V87.9607C176.4 88.1193 177.51 89.1863 177.611 90.8588H176.212C176.155 89.936 175.592 89.3449 174.655 89.2151V92.7909L175.217 92.9207C176.948 93.31 177.784 94.2183 177.784 95.6602C177.784 97.376 176.558 98.5295 174.655 98.7025V99.957H173.732ZM173.502 92.517L173.732 92.5746V89.2151C172.665 89.3593 172.016 89.9793 172.016 90.9021C172.016 91.7383 172.492 92.2718 173.502 92.517ZM174.929 94.1751L174.655 94.1174V97.4481C175.736 97.3039 176.4 96.6839 176.4 95.7756C176.4 94.9393 175.924 94.4058 174.929 94.1751ZM180.756 89.4025H178.565V88.1337H182.112V98.5583H180.756V89.4025ZM185.013 98.7314C184.451 98.7314 183.975 98.27 183.975 97.7221C183.975 97.1597 184.451 96.6983 185.013 96.6983C185.561 96.6983 186.037 97.1597 186.037 97.7221C186.037 98.27 185.561 98.7314 185.013 98.7314ZM194.42 98.5439L187.383 98.5583V97.477L190.743 94.5788C192.43 93.1225 192.906 92.416 192.906 91.3058C192.906 89.9937 192.156 89.2151 190.901 89.2151C189.618 89.2151 188.782 90.1523 188.753 91.6374H187.34C187.383 89.4025 188.796 87.9463 190.916 87.9463C193.007 87.9463 194.348 89.2151 194.348 91.2193C194.348 92.7044 193.612 93.757 191.767 95.3574L189.604 97.2318H194.42V98.5439ZM195.432 93.3532C195.432 90.1235 197.104 87.9318 199.729 87.9318C202.338 87.9318 204.011 90.1235 204.011 93.3532C204.011 96.5974 202.41 98.7458 199.729 98.7458C197.032 98.7458 195.432 96.5974 195.432 93.3532ZM196.83 93.3532C196.83 95.9197 197.897 97.477 199.729 97.477C201.56 97.477 202.612 95.9197 202.612 93.3532C202.612 90.7579 201.56 89.2007 199.729 89.2007C197.897 89.2007 196.83 90.7579 196.83 93.3532ZM205.141 93.3532C205.141 90.1235 206.813 87.9318 209.437 87.9318C212.047 87.9318 213.72 90.1235 213.72 93.3532C213.72 96.5974 212.119 98.7458 209.437 98.7458C206.741 98.7458 205.141 96.5974 205.141 93.3532ZM206.539 93.3532C206.539 95.9197 207.606 97.477 209.437 97.477C211.269 97.477 212.321 95.9197 212.321 93.3532C212.321 90.7579 211.269 89.2007 209.437 89.2007C207.606 89.2007 206.539 90.7579 206.539 93.3532ZM214.85 93.3532C214.85 90.1235 216.522 87.9318 219.146 87.9318C221.756 87.9318 223.429 90.1235 223.429 93.3532C223.429 96.5974 221.828 98.7458 219.146 98.7458C216.45 98.7458 214.85 96.5974 214.85 93.3532ZM216.248 93.3532C216.248 95.9197 217.315 97.477 219.146 97.477C220.977 97.477 222.03 95.9197 222.03 93.3532C222.03 90.7579 220.977 89.2007 219.146 89.2007C217.315 89.2007 216.248 90.7579 216.248 93.3532ZM228.472 95.3574V94.1463H240.252V95.3574H228.472ZM248.292 99.957V98.717C246.389 98.6016 245.134 97.5202 245.048 95.8332H246.49C246.519 96.756 247.196 97.3616 248.292 97.477V93.8867L247.773 93.7714C246.072 93.3821 245.192 92.4304 245.192 90.9453C245.192 89.3016 246.418 88.1337 248.292 87.9751V86.7207H249.215V87.9607C250.96 88.1193 252.07 89.1863 252.171 90.8588H250.772C250.714 89.936 250.152 89.3449 249.215 89.2151V92.7909L249.777 92.9207C251.508 93.31 252.344 94.2183 252.344 95.6602C252.344 97.376 251.118 98.5295 249.215 98.7025V99.957H248.292ZM248.061 92.517L248.292 92.5746V89.2151C247.225 89.3593 246.576 89.9793 246.576 90.9021C246.576 91.7383 247.052 92.2718 248.061 92.517ZM249.489 94.1751L249.215 94.1174V97.4481C250.296 97.3039 250.96 96.6839 250.96 95.7756C250.96 94.9393 250.484 94.4058 249.489 94.1751ZM255.316 89.4025H253.125V88.1337H256.672V98.5583H255.316V89.4025ZM259.573 98.7314C259.011 98.7314 258.535 98.27 258.535 97.7221C258.535 97.1597 259.011 96.6983 259.573 96.6983C260.121 96.6983 260.597 97.1597 260.597 97.7221C260.597 98.27 260.121 98.7314 259.573 98.7314ZM268.98 98.5439L261.943 98.5583V97.477L265.303 94.5788C266.99 93.1225 267.466 92.416 267.466 91.3058C267.466 89.9937 266.716 89.2151 265.461 89.2151C264.178 89.2151 263.342 90.1523 263.313 91.6374H261.9C261.943 89.4025 263.356 87.9463 265.476 87.9463C267.567 87.9463 268.908 89.2151 268.908 91.2193C268.908 92.7044 268.172 93.757 266.327 95.3574L264.164 97.2318H268.98V98.5439ZM272.038 89.4025H269.846V88.1337H273.393V98.5583H272.038V89.4025ZM278.459 98.7314C276.325 98.7314 274.941 97.376 274.941 95.2997H276.34C276.34 96.6407 277.161 97.4625 278.488 97.4625C279.901 97.4625 280.809 96.5253 280.809 95.1123C280.809 93.7714 279.959 92.7765 278.502 92.7765C277.623 92.7765 276.815 93.1946 276.34 93.7858L275.143 93.483L276.412 88.1337H281.631V89.4314H277.435L276.743 92.1997C277.291 91.7816 277.983 91.5653 278.762 91.5653C280.881 91.5653 282.251 93.0504 282.251 95.0546C282.251 97.2174 280.708 98.7314 278.459 98.7314ZM283.186 93.3532C283.186 90.1235 284.858 87.9318 287.483 87.9318C290.092 87.9318 291.765 90.1235 291.765 93.3532C291.765 96.5974 290.164 98.7458 287.483 98.7458C284.786 98.7458 283.186 96.5974 283.186 93.3532ZM284.584 93.3532C284.584 95.9197 285.651 97.477 287.483 97.477C289.314 97.477 290.366 95.9197 290.366 93.3532C290.366 90.7579 289.314 89.2007 287.483 89.2007C285.651 89.2007 284.584 90.7579 284.584 93.3532Z" fill="white"/>
<path d="M23.3048 125.709C20.7815 125.709 19.0657 123.829 19.0657 121.053C19.0657 118.278 20.8067 116.385 23.3552 116.385C25.2981 116.385 26.8247 117.558 27.1906 119.35H26.2191C25.8406 118.051 24.7304 117.256 23.3174 117.256C21.3366 117.256 20.0119 118.77 20.0119 121.053C20.0119 123.324 21.3366 124.838 23.3174 124.838C24.743 124.838 25.8785 124.068 26.2696 122.857H27.241C26.8247 124.561 25.2477 125.709 23.3048 125.709ZM27.9414 122.517C27.9414 120.649 29.2535 119.3 31.045 119.3C32.8366 119.3 34.1487 120.649 34.1487 122.517C34.1487 124.371 32.8366 125.721 31.045 125.721C29.2535 125.721 27.9414 124.371 27.9414 122.517ZM28.8246 122.504C28.8246 123.942 29.733 124.939 31.045 124.939C32.3445 124.939 33.2655 123.942 33.2655 122.504C33.2655 121.091 32.3445 120.082 31.045 120.082C29.733 120.082 28.8246 121.091 28.8246 122.504ZM36.1592 125.57H35.2887V119.464H36.0456L36.1718 120.523C36.5755 119.741 37.383 119.3 38.2661 119.3C39.9441 119.3 40.638 120.296 40.638 121.835V125.57H39.7674V122.025C39.7674 120.599 39.124 120.094 38.1147 120.094C36.8657 120.094 36.1592 121.003 36.1592 122.378V125.57ZM46.1453 125.57V120.195H43.2435V125.57H42.373V120.195H41.4394V119.464H42.373V118.278C42.373 116.902 43.1173 116.373 44.0257 116.373C44.2402 116.373 44.5051 116.385 44.707 116.423V117.18H44.1771C43.4454 117.18 43.2435 117.558 43.2435 118.278V119.464H47.0158V125.57H46.1453ZM46.5742 117.722C46.221 117.722 45.9686 117.47 45.9686 117.117C45.9686 116.764 46.221 116.499 46.5742 116.499C46.9148 116.499 47.1798 116.764 47.1798 117.117C47.1798 117.47 46.9148 117.722 46.5742 117.722ZM50.9432 125.721C49.1643 125.721 48.1171 124.359 48.1171 122.529C48.1171 120.687 49.1643 119.3 50.981 119.3C51.9903 119.3 52.7978 119.741 53.2267 120.624V116.373H54.0973V125.57H53.3403L53.252 124.321C52.823 125.267 51.9651 125.721 50.9432 125.721ZM51.0946 124.926C52.4319 124.926 53.2141 123.917 53.2141 122.504C53.2141 121.104 52.4319 120.082 51.0946 120.082C49.7699 120.082 49.0003 121.104 49.0003 122.504C49.0003 123.917 49.7699 124.926 51.0946 124.926ZM58.2226 125.721C56.4311 125.721 55.2325 124.434 55.2325 122.517C55.2325 120.612 56.4185 119.3 58.1595 119.3C59.8122 119.3 60.9351 120.473 60.9351 122.201V122.63H56.0778C56.1409 124.119 56.9231 124.977 58.2352 124.977C59.2319 124.977 59.8753 124.548 60.1024 123.74H60.9351C60.6071 125.027 59.6608 125.721 58.2226 125.721ZM58.1595 120.044C57.0114 120.044 56.2544 120.801 56.103 121.999H60.0646C60.0646 120.826 59.3076 120.044 58.1595 120.044ZM62.9451 125.57H62.0746V119.464H62.8316L62.9577 120.523C63.3615 119.741 64.1689 119.3 65.052 119.3C66.73 119.3 67.4239 120.296 67.4239 121.835V125.57H66.5534V122.025C66.5534 120.599 65.9099 120.094 64.9006 120.094C63.6516 120.094 62.9451 121.003 62.9451 122.378V125.57ZM68.4776 122.529C68.4776 120.612 69.651 119.3 71.4299 119.3C72.8429 119.3 73.8774 120.12 74.1171 121.381H73.2466C73.0195 120.536 72.2878 120.069 71.4425 120.069C70.2061 120.069 69.3356 121.015 69.3356 122.517C69.3356 123.968 70.143 124.939 71.3794 124.939C72.2878 124.939 73.0195 124.434 73.2592 123.652H74.1424C73.8522 124.901 72.7672 125.721 71.3794 125.721C69.651 125.721 68.4776 124.447 68.4776 122.529ZM77.7699 125.721C75.9784 125.721 74.7799 124.434 74.7799 122.517C74.7799 120.612 75.9658 119.3 77.7068 119.3C79.3596 119.3 80.4824 120.473 80.4824 122.201V122.63H75.6252C75.6882 124.119 76.4705 124.977 77.7825 124.977C78.7792 124.977 79.4227 124.548 79.6498 123.74H80.4824C80.1544 125.027 79.2082 125.721 77.7699 125.721ZM77.7068 120.044C76.5588 120.044 75.8018 120.801 75.6504 121.999H79.6119C79.6119 120.826 78.8549 120.044 77.7068 120.044Z" fill="white"/>
<path d="M261.578 123.672C261.578 122.417 262.313 121.408 263.466 120.99C262.486 120.572 261.952 119.75 261.952 118.697C261.952 117.068 263.351 115.958 265.427 115.958C267.475 115.958 268.859 117.068 268.859 118.712C268.859 119.779 268.311 120.601 267.331 120.99C268.498 121.365 269.248 122.403 269.248 123.686C269.248 125.517 267.72 126.743 265.413 126.743C263.092 126.743 261.578 125.517 261.578 123.672ZM263.25 118.784C263.25 119.807 264.101 120.471 265.398 120.471C266.711 120.471 267.532 119.822 267.532 118.813C267.532 117.818 266.711 117.183 265.398 117.183C264.101 117.183 263.25 117.818 263.25 118.784ZM262.962 123.571C262.962 124.739 263.928 125.488 265.413 125.488C266.884 125.488 267.85 124.739 267.85 123.571C267.85 122.417 266.898 121.682 265.398 121.682C263.913 121.682 262.962 122.417 262.962 123.571ZM270.33 121.365C270.33 118.135 272.002 115.943 274.626 115.943C277.236 115.943 278.909 118.135 278.909 121.365C278.909 124.609 277.308 126.757 274.626 126.757C271.93 126.757 270.33 124.609 270.33 121.365ZM271.728 121.365C271.728 123.931 272.795 125.488 274.626 125.488C276.458 125.488 277.51 123.931 277.51 121.365C277.51 118.769 276.458 117.212 274.626 117.212C272.795 117.212 271.728 118.769 271.728 121.365ZM285.2 118.611C285.2 120.154 284.105 121.264 282.562 121.264C281.033 121.264 279.938 120.154 279.938 118.611C279.938 117.054 281.033 115.943 282.562 115.943C284.105 115.943 285.2 117.054 285.2 118.611ZM290.694 116.16L282.778 126.57H281.394L289.31 116.16H290.694ZM284.09 118.611C284.09 117.674 283.47 117.025 282.562 117.025C281.668 117.025 281.048 117.674 281.048 118.611C281.048 119.534 281.668 120.182 282.562 120.182C283.456 120.182 284.09 119.534 284.09 118.611ZM292.179 124.104C292.179 125.647 291.069 126.757 289.54 126.757C288.012 126.757 286.902 125.647 286.902 124.104C286.902 122.547 288.012 121.451 289.54 121.451C291.069 121.451 292.179 122.547 292.179 124.104ZM291.054 124.104C291.054 123.167 290.449 122.518 289.54 122.518C288.646 122.518 288.026 123.167 288.026 124.104C288.026 125.027 288.646 125.676 289.54 125.676C290.434 125.676 291.054 125.027 291.054 124.104Z" fill="#3EDC81"/>
</g>
<line x1="18.5232" y1="151.747" x2="292.477" y2="151.747" stroke="white" stroke-opacity="0.05" stroke-width="0.901163"/>
<g clip-path="url(#clip2_468_3475)">
<path fill-rule="evenodd" clip-rule="evenodd" d="M30.351 186.851C30.351 187.159 30.6063 187.414 30.9142 187.414L30.9067 187.422C31.6426 187.422 32.0106 187.422 32.3561 187.354C33.0483 187.218 33.6845 186.879 34.1833 186.38C34.6822 185.881 35.0212 185.245 35.1572 184.553C35.2248 184.208 35.2248 183.84 35.2248 183.104C35.2248 182.796 34.9694 182.54 34.6615 182.54C34.3536 182.54 34.0983 182.796 34.0983 183.104C34.0983 183.764 34.0983 184.095 34.0532 184.328C33.9597 184.801 33.7278 185.235 33.3868 185.576C33.0459 185.917 32.6113 186.149 32.1383 186.243C31.9055 186.288 31.575 186.288 30.9142 186.288C30.6063 186.288 30.351 186.543 30.351 186.851ZM24.1555 187.414L24.148 187.407C24.4559 187.407 24.7112 187.151 24.7112 186.843C24.7112 186.536 24.4559 186.28 24.148 186.28C23.4946 186.28 23.1567 186.28 22.9239 186.235C22.4509 186.142 22.0163 185.91 21.6754 185.569C21.3344 185.228 21.1024 184.793 21.0089 184.32C20.9639 184.087 20.9639 183.757 20.9639 183.096C20.9639 182.788 20.7085 182.533 20.4006 182.533C20.0927 182.533 19.8374 182.788 19.8374 183.096C19.8374 183.832 19.8374 184.2 19.905 184.545C20.0419 185.237 20.3812 185.873 20.8799 186.372C21.3786 186.87 22.0142 187.21 22.7061 187.347C23.0515 187.414 23.4195 187.414 24.1555 187.414ZM34.1058 176.337C34.1058 176.645 34.3611 176.901 34.669 176.901L34.6766 176.908C34.9844 176.908 35.2398 176.653 35.2398 176.345C35.2398 175.609 35.2398 175.241 35.1722 174.895C35.0353 174.204 34.696 173.568 34.1973 173.069C33.6986 172.571 33.063 172.231 32.3711 172.094C32.0256 172.027 31.6577 172.027 30.9217 172.027C30.6138 172.027 30.3585 172.282 30.3585 172.59C30.3585 172.898 30.6138 173.153 30.9217 173.153C31.575 173.153 31.913 173.153 32.1458 173.198C33.1145 173.386 33.8655 174.145 34.0608 175.113C34.1058 175.346 34.1058 175.677 34.1058 176.337ZM19.8374 176.337C19.8374 176.645 20.0927 176.901 20.4006 176.901L20.4081 176.893C20.716 176.893 20.9714 176.638 20.9714 176.33C20.9714 175.669 20.9714 175.339 21.0164 175.106C21.11 174.633 21.3419 174.198 21.6829 173.857C22.0238 173.516 22.4584 173.284 22.9314 173.191C23.1642 173.146 23.4946 173.146 24.1555 173.146C24.4634 173.146 24.7187 172.89 24.7187 172.583C24.7187 172.275 24.4634 172.019 24.1555 172.019C23.4195 172.019 23.0515 172.019 22.7061 172.087C22.0138 172.223 21.3777 172.562 20.8788 173.061C20.3799 173.56 20.0409 174.196 19.905 174.888C19.8374 175.233 19.8374 175.601 19.8374 176.337ZM26.7839 183.659H28.2858C29.8028 183.659 30.6438 183.659 31.2446 183.051C31.8529 182.45 31.8529 181.609 31.8529 180.092C31.8529 178.575 31.8454 177.742 31.2446 177.133C30.6438 176.525 29.8028 176.525 28.2858 176.525H28.0981V175.586C28.0981 175.278 27.8427 175.023 27.5348 175.023C27.2269 175.023 26.9716 175.278 26.9716 175.586V176.525H26.7839C25.2669 176.525 24.4258 176.525 23.825 177.133C23.2168 177.734 23.2168 178.575 23.2168 180.092C23.2168 181.609 23.2243 182.443 23.825 183.051C24.4258 183.659 25.2669 183.659 26.7839 183.659ZM24.6211 177.929C24.8839 177.659 25.4697 177.652 26.7839 177.652H28.2858C29.5925 177.652 30.1858 177.667 30.4486 177.929C30.7189 178.192 30.7265 178.786 30.7265 180.092C30.7265 181.399 30.7114 181.992 30.4486 182.255C30.1858 182.525 29.6 182.533 28.2858 182.533H26.7839C25.4772 182.533 24.8839 182.518 24.6211 182.255C24.3507 181.992 24.3432 181.399 24.3432 180.092C24.3432 178.786 24.3582 178.192 24.6211 177.929ZM28.4735 179.717C28.4735 180.025 28.7289 180.28 29.0368 180.28C29.3447 180.28 29.6 180.025 29.6 179.717V179.341C29.6 179.033 29.3447 178.778 29.0368 178.778C28.7289 178.778 28.4735 179.033 28.4735 179.341V179.717ZM25.4697 179.717C25.4697 180.025 25.725 180.28 26.0329 180.28C26.3408 180.28 26.5961 180.025 26.5961 179.717V179.341C26.5961 179.033 26.3408 178.778 26.0329 178.778C25.725 178.778 25.4697 179.033 25.4697 179.341V179.717Z" fill="white"/>
<path d="M43.9577 176.094V174.796H51.6428V176.094H48.514V185.221H47.101V176.094H43.9577ZM55.7226 178.113V179.353H55.117C53.8338 179.353 53.0408 180.131 53.0408 181.487V185.221H51.6854V178.185H52.9543L53.0408 179.252C53.3291 178.516 54.0356 178.026 55.0017 178.026C55.2468 178.026 55.4487 178.055 55.7226 178.113ZM58.4857 185.394C56.9717 185.394 56.0778 184.543 56.0778 183.26C56.0778 181.962 57.0438 181.155 58.702 181.025L60.9224 180.852V180.65C60.9224 179.468 60.2159 179.05 59.2643 179.05C58.1252 179.05 57.4764 179.554 57.4764 180.405H56.2941C56.2941 178.934 57.5052 177.968 59.322 177.968C61.0666 177.968 62.249 178.891 62.249 180.794V185.221H61.0955L60.9513 184.082C60.5908 184.889 59.6248 185.394 58.4857 185.394ZM58.875 184.341C60.1583 184.341 60.9369 183.505 60.9369 182.179V181.804L59.1345 181.948C57.9378 182.063 57.4476 182.525 57.4476 183.217C57.4476 183.967 57.9955 184.341 58.875 184.341ZM66.6636 185.394C64.6162 185.394 63.3762 183.866 63.3762 181.717C63.3762 179.554 64.6306 177.968 66.7213 177.968C67.8027 177.968 68.7111 178.444 69.1869 179.309V174.609H70.5278V185.221H69.3167L69.2013 183.938C68.7399 184.904 67.7883 185.394 66.6636 185.394ZM66.9376 184.168C68.3218 184.168 69.1725 183.145 69.1725 181.674C69.1725 180.232 68.3218 179.194 66.9376 179.194C65.5534 179.194 64.746 180.232 64.746 181.674C64.746 183.13 65.5534 184.168 66.9376 184.168ZM75.2371 185.394C73.1608 185.394 71.7334 183.894 71.7334 181.703C71.7334 179.497 73.132 177.968 75.1794 177.968C77.1836 177.968 78.4957 179.353 78.4957 181.443V181.948L73.0455 181.962C73.1464 183.447 73.925 184.269 75.2659 184.269C76.3185 184.269 77.0106 183.837 77.2413 183.029H78.5101C78.1641 184.543 76.9817 185.394 75.2371 185.394ZM75.1794 179.107C73.9971 179.107 73.2473 179.814 73.0743 181.054H77.1403C77.1403 179.886 76.3762 179.107 75.1794 179.107ZM87.6577 181.501H85.0191V185.221H83.6061V174.796H87.6577C89.7051 174.796 91.0172 176.137 91.0172 178.141C91.0172 180.088 89.6907 181.501 87.6577 181.501ZM87.4126 176.065H85.0191V180.232H87.3549C88.7535 180.232 89.5321 179.41 89.5321 178.127C89.5321 176.815 88.7391 176.065 87.4126 176.065ZM96.1358 178.113V179.353H95.5303C94.247 179.353 93.454 180.131 93.454 181.487V185.221H92.0986V178.185H93.3675L93.454 179.252C93.7423 178.516 94.4489 178.026 95.4149 178.026C95.66 178.026 95.8619 178.055 96.1358 178.113ZM96.4038 181.688C96.4038 179.511 97.961 177.983 100.081 177.983C102.186 177.983 103.743 179.511 103.743 181.688C103.743 183.866 102.186 185.394 100.081 185.394C97.961 185.394 96.4038 183.866 96.4038 181.688ZM97.7736 181.688C97.7736 183.159 98.7108 184.183 100.081 184.183C101.436 184.183 102.388 183.159 102.388 181.688C102.388 180.218 101.436 179.194 100.081 179.194C98.7108 179.194 97.7736 180.218 97.7736 181.688ZM106.18 185.221H104.955V174.609H106.31V179.381C106.772 178.459 107.723 177.968 108.877 177.968C110.895 177.968 112.106 179.554 112.106 181.732C112.106 183.866 110.838 185.394 108.79 185.394C107.68 185.394 106.743 184.904 106.281 183.938L106.18 185.221ZM106.325 181.674C106.325 183.145 107.161 184.168 108.545 184.168C109.929 184.168 110.751 183.13 110.751 181.674C110.751 180.232 109.929 179.194 108.545 179.194C107.161 179.194 106.325 180.232 106.325 181.674ZM115.374 185.394C113.86 185.394 112.966 184.543 112.966 183.26C112.966 181.962 113.932 181.155 115.59 181.025L117.811 180.852V180.65C117.811 179.468 117.104 179.05 116.152 179.05C115.013 179.05 114.365 179.554 114.365 180.405H113.182C113.182 178.934 114.393 177.968 116.21 177.968C117.955 177.968 119.137 178.891 119.137 180.794V185.221H117.984L117.839 184.082C117.479 184.889 116.513 185.394 115.374 185.394ZM115.763 184.341C117.046 184.341 117.825 183.505 117.825 182.179V181.804L116.023 181.948C114.826 182.063 114.336 182.525 114.336 183.217C114.336 183.967 114.884 184.341 115.763 184.341ZM121.951 185.221H120.726V174.609H122.081V179.381C122.542 178.459 123.494 177.968 124.648 177.968C126.666 177.968 127.877 179.554 127.877 181.732C127.877 183.866 126.609 185.394 124.561 185.394C123.451 185.394 122.514 184.904 122.052 183.938L121.951 185.221ZM122.096 181.674C122.096 183.145 122.932 184.168 124.316 184.168C125.7 184.168 126.522 183.13 126.522 181.674C126.522 180.232 125.7 179.194 124.316 179.194C122.932 179.194 122.096 180.232 122.096 181.674ZM129.746 176.498C129.256 176.498 128.852 176.094 128.852 175.604C128.852 175.099 129.256 174.71 129.746 174.71C130.236 174.71 130.64 175.099 130.64 175.604C130.64 176.094 130.236 176.498 129.746 176.498ZM129.083 185.221V178.17H130.438V185.221H129.083ZM133.502 185.221H132.146V174.609H133.502V185.221ZM135.872 176.498C135.382 176.498 134.978 176.094 134.978 175.604C134.978 175.099 135.382 174.71 135.872 174.71C136.362 174.71 136.766 175.099 136.766 175.604C136.766 176.094 136.362 176.498 135.872 176.498ZM135.209 185.221V178.17H136.564V185.221H135.209ZM140.233 185.221H138.878V179.309H137.493V178.17H138.878V175.964H140.233V178.17H141.617V179.309H140.233V185.221ZM141.867 188.379V187.268H142.776C143.425 187.268 143.944 187.167 144.275 186.274L144.521 185.596L141.68 178.17H143.107L145.155 183.851L147.246 178.17H148.644L145.314 186.807C144.838 188.018 144.131 188.523 143.05 188.523C142.603 188.523 142.228 188.465 141.867 188.379ZM156.134 187.715H155.01C153.683 186.057 152.804 183.548 152.804 180.939C152.804 178.487 153.597 175.921 155.01 174.176H156.134C154.995 175.762 154.188 178.242 154.188 180.939C154.188 183.491 154.909 186.028 156.134 187.715ZM158.475 185.221H157.062V174.796H158.475L163.809 182.856V174.796H165.222V185.221H163.809L158.475 177.161V185.221ZM170.173 185.394C168.097 185.394 166.67 183.894 166.67 181.703C166.67 179.497 168.068 177.968 170.116 177.968C172.12 177.968 173.432 179.353 173.432 181.443V181.948L167.982 181.962C168.083 183.447 168.861 184.269 170.202 184.269C171.255 184.269 171.947 183.837 172.178 183.029H173.446C173.1 184.543 171.918 185.394 170.173 185.394ZM170.116 179.107C168.933 179.107 168.184 179.814 168.011 181.054H172.077C172.077 179.886 171.313 179.107 170.116 179.107ZM175.111 185.221H173.554L176.019 181.732L173.568 178.17H175.14L176.928 180.794L178.672 178.17H180.215L177.764 181.732L180.172 185.221H178.6L176.841 182.64L175.111 185.221ZM183.329 185.221H181.974V179.309H180.589V178.17H181.974V175.964H183.329V178.17H184.713V179.309H183.329V185.221ZM192.525 185.394C190.391 185.394 189.007 184.039 189.007 181.962H190.405C190.405 183.303 191.227 184.125 192.554 184.125C193.967 184.125 194.875 183.188 194.875 181.775C194.875 180.434 194.025 179.439 192.568 179.439C191.689 179.439 190.881 179.857 190.405 180.448L189.209 180.146L190.478 174.796H195.697V176.094H191.501L190.809 178.862C191.357 178.444 192.049 178.228 192.828 178.228C194.947 178.228 196.317 179.713 196.317 181.717C196.317 183.88 194.774 185.394 192.525 185.394ZM204.857 185.221H201.411V174.796H204.799C207.913 174.796 210.018 176.901 210.018 180.016C210.018 183.116 207.942 185.221 204.857 185.221ZM204.698 176.094H202.824V183.909H204.756C207.077 183.909 208.548 182.409 208.548 180.016C208.548 177.594 207.077 176.094 204.698 176.094ZM213.359 185.394C211.845 185.394 210.951 184.543 210.951 183.26C210.951 181.962 211.917 181.155 213.575 181.025L215.796 180.852V180.65C215.796 179.468 215.089 179.05 214.138 179.05C212.999 179.05 212.35 179.554 212.35 180.405H211.167C211.167 178.934 212.379 177.968 214.195 177.968C215.94 177.968 217.122 178.891 217.122 180.794V185.221H215.969L215.825 184.082C215.464 184.889 214.498 185.394 213.359 185.394ZM213.748 184.341C215.032 184.341 215.81 183.505 215.81 182.179V181.804L214.008 181.948C212.811 182.063 212.321 182.525 212.321 183.217C212.321 183.967 212.869 184.341 213.748 184.341ZM217.864 188.379V187.268H218.773C219.421 187.268 219.941 187.167 220.272 186.274L220.517 185.596L217.677 178.17H219.104L221.152 183.851L223.242 178.17H224.641L221.31 186.807C220.834 188.018 220.128 188.523 219.047 188.523C218.6 188.523 218.225 188.465 217.864 188.379ZM224.759 183.174H226.057C226.057 183.894 226.605 184.327 227.499 184.327C228.451 184.327 228.998 183.938 228.998 183.289C228.998 182.813 228.768 182.525 228.032 182.337L226.792 182.049C225.538 181.746 224.947 181.126 224.947 180.088C224.947 178.79 226.043 177.968 227.6 177.968C229.143 177.968 230.152 178.834 230.181 180.174H228.883C228.854 179.468 228.378 179.021 227.557 179.021C226.706 179.021 226.23 179.396 226.23 180.045C226.23 180.52 226.576 180.838 227.268 181.011L228.508 181.314C229.705 181.602 230.296 182.15 230.296 183.202C230.296 184.543 229.143 185.394 227.47 185.394C225.812 185.394 224.759 184.514 224.759 183.174ZM231.669 187.715H230.53C231.756 186.028 232.477 183.491 232.477 180.939C232.477 178.242 231.684 175.762 230.53 174.176H231.669C233.068 175.921 233.861 178.487 233.861 180.939C233.861 183.548 232.981 186.057 231.669 187.715Z" fill="white"/>
<path d="M280.461 175.215H280.465M280.461 179.721H280.465M280.461 184.227H280.465M286.464 175.215H286.469M286.464 179.721H286.469M286.464 184.227H286.469" stroke="white" stroke-width="1.12645" stroke-linecap="round" stroke-linejoin="round"/>
<path d="M20.5292 221.244H19.6208V212.211H20.5292V216.236H25.4117V212.211H26.3074V221.244H25.4117V217.081H20.5292V221.244ZM28.756 213.46C28.4027 213.46 28.1126 213.17 28.1126 212.817C28.1126 212.463 28.4027 212.161 28.756 212.161C29.1092 212.161 29.412 212.463 29.412 212.817C29.412 213.17 29.1092 213.46 28.756 213.46ZM28.327 221.244V215.138H29.1976V221.244H28.327ZM32.4133 221.244H31.5554V215.87H30.3316V215.138H31.5554V213.208H32.4133V215.138H33.6371V215.87H32.4133V221.244ZM37.5128 213.044V212.211H43.9849V213.044H41.1967V221.244H40.2883V213.044H37.5128ZM45.8634 221.396C44.5639 221.396 43.7943 220.664 43.7943 219.592C43.7943 218.469 44.6522 217.762 46.0778 217.649L48.0964 217.485V217.283C48.0964 216.084 47.3773 215.706 46.4816 215.706C45.4218 215.706 44.791 216.185 44.791 217.005H43.9962C43.9962 215.769 45.0055 214.974 46.5068 214.974C47.9198 214.974 48.9544 215.681 48.9544 217.295V221.244H48.2226L48.1091 220.172C47.7306 220.942 46.8979 221.396 45.8634 221.396ZM46.0652 220.689C47.3521 220.689 48.0964 219.794 48.0964 218.469V218.141L46.2923 218.28C45.1442 218.38 44.6774 218.885 44.6774 219.566C44.6774 220.311 45.2325 220.689 46.0652 220.689ZM51.6096 221.244H50.7391V212.047H51.6096V218.292L54.6375 215.138H55.7351L53.3885 217.573L55.7477 221.244H54.7384L52.7955 218.191L51.6096 219.415V221.244ZM59.1392 221.396C57.3477 221.396 56.1492 220.109 56.1492 218.191C56.1492 216.286 57.3351 214.974 59.0762 214.974C60.7289 214.974 61.8517 216.147 61.8517 217.876V218.305H56.9945C57.0575 219.794 57.8398 220.651 59.1519 220.651C60.1485 220.651 60.792 220.222 61.0191 219.415H61.8517C61.5237 220.702 60.5775 221.396 59.1392 221.396ZM59.0762 215.718C57.9281 215.718 57.1711 216.475 57.0197 217.674H60.9812C60.9812 216.501 60.2242 215.718 59.0762 215.718ZM63.1426 218.317V217.535H66.8014V218.317H63.1426ZM72.1503 217.926H69.6144V221.244H68.706V212.211H72.1503C73.8913 212.211 74.9889 213.347 74.9889 215.05C74.9889 216.69 73.8787 217.926 72.1503 217.926ZM72.0241 213.031H69.6144V217.106H71.9736C73.2857 217.106 74.0427 216.274 74.0427 215.037C74.0427 213.788 73.2731 213.031 72.0241 213.031ZM79.4583 215.062V215.845H78.9789C77.8561 215.845 77.137 216.602 77.137 217.762V221.244H76.2664V215.138H77.0865L77.1496 216.084C77.3893 215.428 78.0327 214.999 78.8906 214.999C79.0799 214.999 79.2439 215.012 79.4583 215.062ZM79.9525 218.191C79.9525 216.324 81.2646 214.974 83.0562 214.974C84.8477 214.974 86.1598 216.324 86.1598 218.191C86.1598 220.046 84.8477 221.396 83.0562 221.396C81.2646 221.396 79.9525 220.046 79.9525 218.191ZM80.8357 218.179C80.8357 219.617 81.7441 220.614 83.0562 220.614C84.3556 220.614 85.2766 219.617 85.2766 218.179C85.2766 216.766 84.3556 215.756 83.0562 215.756C81.7441 215.756 80.8357 216.766 80.8357 218.179ZM91.5274 221.244V215.87H88.6257V221.244H87.7551V215.87H86.8215V215.138H87.7551V213.952C87.7551 212.577 88.4995 212.047 89.4079 212.047C89.6223 212.047 89.8873 212.06 90.0891 212.098V212.855H89.5593C88.8275 212.855 88.6257 213.233 88.6257 213.952V215.138H92.3979V221.244H91.5274ZM91.9563 213.397C91.6031 213.397 91.3508 213.145 91.3508 212.791C91.3508 212.438 91.6031 212.173 91.9563 212.173C92.297 212.173 92.5619 212.438 92.5619 212.791C92.5619 213.145 92.297 213.397 91.9563 213.397ZM95.581 221.244H94.7231V215.87H93.4993V215.138H94.7231V213.208H95.581V215.138H96.8047V215.87H95.581V221.244Z" fill="#999999"/>
<path d="M266.151 215.122L268.587 211.82H270.231L267.621 215.28C267.982 215.136 268.357 215.064 268.717 215.064C270.88 215.064 272.336 216.621 272.336 218.683C272.336 220.86 270.692 222.417 268.544 222.417C266.381 222.417 264.709 220.788 264.709 218.683C264.709 217.443 265.084 216.578 266.151 215.122ZM266.151 218.697C266.151 220.125 267.131 221.149 268.544 221.149C269.928 221.149 270.909 220.125 270.909 218.697C270.909 217.27 269.928 216.261 268.544 216.261C267.131 216.261 266.151 217.27 266.151 218.697ZM271.956 211.82H279.238V213.117L275.287 222.244H273.816L277.81 213.117H271.956V211.82ZM284.912 214.285C284.912 215.828 283.816 216.938 282.273 216.938C280.745 216.938 279.649 215.828 279.649 214.285C279.649 212.728 280.745 211.618 282.273 211.618C283.816 211.618 284.912 212.728 284.912 214.285ZM290.405 211.834L282.49 222.244H281.105L289.021 211.834H290.405ZM283.802 214.285C283.802 213.348 283.182 212.699 282.273 212.699C281.379 212.699 280.759 213.348 280.759 214.285C280.759 215.208 281.379 215.857 282.273 215.857C283.167 215.857 283.802 215.208 283.802 214.285ZM291.891 219.779C291.891 221.322 290.78 222.432 289.252 222.432C287.724 222.432 286.613 221.322 286.613 219.779C286.613 218.222 287.724 217.126 289.252 217.126C290.78 217.126 291.891 218.222 291.891 219.779ZM290.766 219.779C290.766 218.842 290.16 218.193 289.252 218.193C288.358 218.193 287.738 218.842 287.738 219.779C287.738 220.702 288.358 221.35 289.252 221.35C290.146 221.35 290.766 220.702 290.766 219.779Z" fill="white"/>
</g>
<defs>
<linearGradient id="paint0_linear_468_3475" x1="37.7816" y1="432.754" x2="388.955" y2="51.9337" gradientUnits="userSpaceOnUse">
<stop stop-color="#0276DB"/>
<stop offset="1" stop-color="#3EDC81"/>
</linearGradient>
<radialGradient id="paint1_radial_468_3475" cx="0" cy="0" r="1" gradientUnits="userSpaceOnUse" gradientTransform="translate(155.697 0.867853) rotate(90.0222) scale(508.748 309.776)">
<stop stop-color="#161616" stop-opacity="0.6"/>
<stop offset="0.740127" stop-color="#161616" stop-opacity="0.946662"/>
<stop offset="1" stop-color="#161616"/>
</radialGradient>
<linearGradient id="paint2_linear_468_3475" x1="37.7816" y1="432.754" x2="219.897" y2="74.1254" gradientUnits="userSpaceOnUse">
<stop stop-color="#0276DB"/>
<stop offset="1" stop-color="#3EDC81"/>
</linearGradient>
<clipPath id="clip0_468_3475">
<path d="M18.5232 41.593C18.5232 33.5178 18.5232 29.4802 20.0947 26.3959C21.4771 23.6829 23.6829 21.4771 26.3959 20.0947C29.4802 18.5232 33.5178 18.5232 41.593 18.5232H269.407C277.482 18.5232 281.52 18.5232 284.604 20.0947C287.317 21.4771 289.523 23.6829 290.905 26.3959C292.477 29.4802 292.477 33.5178 292.477 41.593V111.105C292.477 119.18 292.477 123.217 290.905 126.302C289.523 129.015 287.317 131.22 284.604 132.603C281.52 134.174 277.482 134.174 269.407 134.174H41.593C33.5178 134.174 29.4802 134.174 26.3959 132.603C23.6829 131.22 21.4771 129.015 20.0947 126.302C18.5232 123.217 18.5232 119.18 18.5232 111.105V41.593Z" fill="white"/>
</clipPath>
<clipPath id="clip1_468_3475">
<rect width="18.0233" height="18.0233" fill="white" transform="translate(18.5232 19.0115)"/>
</clipPath>
<clipPath id="clip2_468_3475">
<path d="M18.5232 193.291C18.5232 185.216 18.5232 181.178 20.0947 178.094C21.4771 175.381 23.6829 173.175 26.3959 171.792C29.4802 170.221 33.5178 170.221 41.593 170.221H269.407C277.482 170.221 281.52 170.221 284.604 171.792C287.317 173.175 289.523 175.381 290.905 178.094C292.477 181.178 292.477 185.216 292.477 193.291V290.814C292.477 298.889 292.477 302.927 290.905 306.011C289.523 308.724 287.317 310.93 284.604 312.312C281.52 313.884 277.482 313.884 269.407 313.884H41.593C33.5178 313.884 29.4802 313.884 26.3959 312.312C23.6829 310.93 21.4771 308.724 20.0947 306.011C18.5232 302.927 18.5232 298.889 18.5232 290.814V193.291Z" fill="white"/>
</clipPath>
</defs>
</svg>
