<svg width="22" height="22" viewBox="0 0 22 22" fill="none" xmlns="http://www.w3.org/2000/svg">
<g clip-path="url(#clip0_1792_33156)">
<path d="M11 20.625C16.3157 20.625 20.625 16.3157 20.625 11C20.625 5.68426 16.3157 1.375 11 1.375C5.68426 1.375 1.375 5.68426 1.375 11C1.375 16.3157 5.68426 20.625 11 20.625Z" fill="#F0F0F0"/>
<path d="M10.582 11H20.6255C20.6255 10.1313 20.5097 9.2897 20.2939 8.48914H10.582V11Z" fill="#D80027"/>
<path d="M10.582 5.97829H19.2128C18.6236 5.01684 17.8703 4.16702 16.9919 3.46741H10.582V5.97829Z" fill="#D80027"/>
<path d="M10.9992 20.625C13.2644 20.625 15.3465 19.842 16.9906 18.5326H5.00781C6.65196 19.842 8.734 20.625 10.9992 20.625Z" fill="#D80027"/>
<path d="M2.78815 16.0217H19.2128C19.6858 15.2499 20.0526 14.4062 20.2939 13.5109H1.70703C1.9483 14.4062 2.31514 15.2499 2.78815 16.0217V16.0217Z" fill="#D80027"/>
<path d="M5.83348 2.87808H6.7106L5.89473 3.47081L6.20637 4.42988L5.39054 3.83716L4.57471 4.42988L4.84391 3.60135C4.12557 4.19971 3.49596 4.90076 2.97711 5.68189H3.25815L2.73882 6.05918C2.65791 6.19415 2.58031 6.33127 2.50594 6.47042L2.75393 7.23369L2.29125 6.89753C2.17624 7.1412 2.07105 7.39036 1.97649 7.64471L2.24971 8.48569H3.25815L2.44228 9.07842L2.75393 10.0375L1.9381 9.44477L1.44941 9.79985C1.40049 10.193 1.375 10.5935 1.375 11H11C11 5.68429 11 5.05762 11 1.375C9.09861 1.375 7.32615 1.92656 5.83348 2.87808V2.87808ZM6.20637 10.0375L5.39054 9.44477L4.57471 10.0375L4.88636 9.07842L4.07049 8.48569H5.07893L5.39054 7.52662L5.70215 8.48569H6.7106L5.89473 9.07842L6.20637 10.0375ZM5.89473 6.27461L6.20637 7.23369L5.39054 6.64097L4.57471 7.23369L4.88636 6.27461L4.07049 5.68189H5.07893L5.39054 4.72281L5.70215 5.68189H6.7106L5.89473 6.27461ZM9.65882 10.0375L8.84298 9.44477L8.02715 10.0375L8.3388 9.07842L7.52293 8.48569H8.53138L8.84298 7.52662L9.15459 8.48569H10.163L9.34717 9.07842L9.65882 10.0375ZM9.34717 6.27461L9.65882 7.23369L8.84298 6.64097L8.02715 7.23369L8.3388 6.27461L7.52293 5.68189H8.53138L8.84298 4.72281L9.15459 5.68189H10.163L9.34717 6.27461ZM9.34717 3.47081L9.65882 4.42988L8.84298 3.83716L8.02715 4.42988L8.3388 3.47081L7.52293 2.87808H8.53138L8.84298 1.919L9.15459 2.87808H10.163L9.34717 3.47081Z" fill="#0052B4"/>
</g>
<defs>
<clipPath id="clip0_1792_33156">
<rect width="19.25" height="19.25" fill="white" transform="translate(1.375 1.375)"/>
</clipPath>
</defs>
</svg>
