<svg width="22" height="22" viewBox="0 0 22 22" fill="none" xmlns="http://www.w3.org/2000/svg">
<path d="M7.17915 9.46401L10.9175 5.72579L14.6579 9.46599L16.8331 7.29074L10.9175 1.375L5.00391 7.28877L7.17915 9.46401Z" fill="#F3BA2F"/>
<path d="M5.64396 10.9999L3.46875 8.82471L1.29344 11L3.46864 13.1752L5.64396 10.9999Z" fill="#F3BA2F"/>
<path d="M7.17844 12.5358L10.9168 16.274L14.657 12.5339L16.8335 14.708L16.8324 14.7092L10.9168 20.6248L5.00304 14.7112L5 14.7081L7.17844 12.5358Z" fill="#F3BA2F"/>
<path d="M18.3677 13.1764L20.543 11.0011L18.3678 8.82589L16.1925 11.0012L18.3677 13.1764Z" fill="#F3BA2F"/>
<path d="M13.1218 10.9987H13.1227L10.9154 8.79138L9.28418 10.4226H9.28402L9.09671 10.6101L8.71007 10.9967L8.70703 10.9998L8.71007 11.003L10.9154 13.2083L13.1227 11.001L13.1238 10.9998L13.1218 10.9987Z" fill="#F3BA2F"/>
</svg>
