<svg width="353" height="757" viewBox="0 0 353 757" fill="none" xmlns="http://www.w3.org/2000/svg">
<g opacity="0.2">
<path d="M489.917 539.093L381.967 445.126L135.721 756.451H-88.0391C-22.3449 673.619 129.576 482.814 132.005 479.69L249.054 329.293L284.212 284.148L353.574 195.069L489.631 20.3359L489.727 165.695V306.67L489.774 313.774L489.917 539.143V539.093Z" fill="url(#paint0_linear_1692_10944)"/>
<path d="M489.917 539.093L381.967 445.126L135.721 756.451H-88.0391C-22.3449 673.619 129.576 482.814 132.005 479.69L249.054 329.293L284.212 284.148L353.574 195.069L489.631 20.3359L489.727 165.695V306.67L489.774 313.774L489.917 539.143V539.093Z" fill="url(#paint1_linear_1692_10944)"/>
<path opacity="0.56" d="M489.913 539.102L381.963 445.136L135.717 756.46H28.0527L489.722 165.704L489.77 306.679V313.784L489.913 539.102Z" fill="url(#paint2_linear_1692_10944)"/>
<path d="M471.526 -23.9626L354.239 126.535L346.855 136.008H102.801L101.705 135.453L-17.0115 71.4653C-17.0115 71.4653 66.595 158.983 67.9765 160.494C69.4057 162.006 64.0225 164.626 64.0225 164.626L6.80803 130.062L45.2527 170.722L36.6301 176.265L38.6309 217.882L40.1077 247.357L21.2426 282.021L10.5715 301.671L31.1516 324.143L47.3012 341.777H97.5603C100.99 342.18 115.234 344.246 126.477 357.447C132.337 364.299 133.909 387.627 134.052 408.99L78.6 480.132L-136.49 756.037L-136.871 756.49L-136.871 144.674C-136.871 7.4268 -31.6366 -103.872 98.132 -103.872H298.835C301.122 -103.872 303.408 -103.872 305.647 -103.721C306.695 -103.721 307.743 -103.721 308.744 -103.62C310.316 -103.57 311.793 -103.469 313.365 -103.368C313.937 -103.368 314.461 -103.368 315.032 -103.267C317.128 -103.116 319.272 -102.965 321.368 -102.713C321.606 -102.713 321.749 -102.713 321.988 -102.663C324.417 -102.411 326.847 -102.109 329.276 -101.806C385.3 -94.1983 435.13 -65.6808 471.574 -23.9122L471.526 -23.9626Z" fill="url(#paint3_linear_1692_10944)"/>
<path d="M471.526 -23.9626L354.239 126.535L346.855 136.008H102.801L101.705 135.453L-17.0115 71.4653C-17.0115 71.4653 66.595 158.983 67.9765 160.494C69.4057 162.006 64.0225 164.626 64.0225 164.626L6.80803 130.062L45.2527 170.722L36.6301 176.265L38.6309 217.882L40.1077 247.357L21.2426 282.021L10.5715 301.671L31.1516 324.143L47.3012 341.777H97.5603C100.99 342.18 115.234 344.246 126.477 357.447C132.337 364.299 133.909 387.627 134.052 408.99L78.6 480.132L-136.49 756.037L-136.871 756.49L-136.871 144.674C-136.871 7.4268 -31.6366 -103.872 98.132 -103.872H298.835C301.122 -103.872 303.408 -103.872 305.647 -103.721C306.695 -103.721 307.743 -103.721 308.744 -103.62C310.316 -103.57 311.793 -103.469 313.365 -103.368C313.937 -103.368 314.461 -103.368 315.032 -103.267C317.128 -103.116 319.272 -102.965 321.368 -102.713C321.606 -102.713 321.749 -102.713 321.988 -102.663C324.417 -102.411 326.847 -102.109 329.276 -101.806C385.3 -94.1983 435.13 -65.6808 471.574 -23.9122L471.526 -23.9626Z" fill="url(#paint4_linear_1692_10944)"/>
<path d="M101.706 135.365L-17.0106 71.3766C-17.0106 71.3766 66.5959 158.894 67.9774 160.406C69.4066 161.917 64.0233 164.537 64.0233 164.537L6.80887 129.974L45.2536 170.634L36.6309 176.176L38.6317 217.793L-136.918 447.546V144.585C-136.918 7.3381 -31.6834 -103.961 98.0852 -103.961H284.497L101.658 135.365H101.706Z" fill="url(#paint5_linear_1692_10944)"/>
</g>
<defs>
<linearGradient id="paint0_linear_1692_10944" x1="514.785" y1="98.1293" x2="81.2766" y2="776.863" gradientUnits="userSpaceOnUse">
<stop stop-color="#114FEE"/>
<stop offset="1" stop-color="#15B0F8"/>
</linearGradient>
<linearGradient id="paint1_linear_1692_10944" x1="898.85" y1="-91.4669" x2="81.2509" y2="571.787" gradientUnits="userSpaceOnUse">
<stop stop-color="#020C6A"/>
<stop offset="1" stop-color="#15B0F8" stop-opacity="0"/>
</linearGradient>
<linearGradient id="paint2_linear_1692_10944" x1="319.079" y1="-16.4856" x2="245.781" y2="707.564" gradientUnits="userSpaceOnUse">
<stop stop-color="#BFE6ED"/>
<stop offset="1" stop-color="white" stop-opacity="0"/>
</linearGradient>
<linearGradient id="paint3_linear_1692_10944" x1="-63.6976" y1="626.6" x2="216.123" y2="-13.39" gradientUnits="userSpaceOnUse">
<stop stop-color="#0276DB"/>
<stop offset="1" stop-color="#3EDC81"/>
</linearGradient>
<linearGradient id="paint4_linear_1692_10944" x1="-63.6976" y1="626.6" x2="216.123" y2="-13.39" gradientUnits="userSpaceOnUse">
<stop stop-color="#0276DB"/>
<stop offset="1" stop-color="#3EDC81"/>
</linearGradient>
<linearGradient id="paint5_linear_1692_10944" x1="181.977" y1="-167.395" x2="-194.929" y2="282.934" gradientUnits="userSpaceOnUse">
<stop offset="0.03" stop-color="#5EFCA1"/>
<stop offset="1" stop-color="#5EFCA1" stop-opacity="0"/>
</linearGradient>
</defs>
</svg>
