<svg width="1139" height="430" viewBox="0 0 1139 430" fill="none" xmlns="http://www.w3.org/2000/svg">
<g opacity="0.2">
<path d="M1139 733.803L942.849 572.363L495.404 1107.24H88.8164C208.187 964.927 484.237 637.112 488.652 631.745L701.337 373.354L765.221 295.793L891.257 142.749L1138.48 -157.452L1138.65 92.2832V334.487L1138.74 346.692L1139 733.889V733.803Z" fill="url(#paint0_linear_1471_2958)"/>
<path d="M1139 733.803L942.849 572.363L495.404 1107.24H88.8164C208.187 964.927 484.237 637.112 488.652 631.745L701.337 373.354L765.221 295.793L891.257 142.749L1138.48 -157.452L1138.65 92.2832V334.487L1138.74 346.692L1139 733.889V733.803Z" fill="url(#paint1_linear_1471_2958)"/>
<path opacity="0.56" d="M1138.99 733.82L942.842 572.379L495.397 1107.25H299.764L1138.65 92.2998L1138.73 334.503V346.709L1138.99 733.82Z" fill="url(#paint2_linear_1471_2958)"/>
<path d="M1105.58 -233.555L892.466 25.009L879.048 41.283L435.585 41.283L433.594 40.3309L217.879 -69.6045C217.879 -69.6045 369.797 80.7559 372.308 83.3528C374.905 85.9497 365.123 90.451 365.123 90.451L261.16 31.0686L331.017 100.925L315.349 110.447L318.985 181.948L321.668 232.588L287.389 292.143L267.999 325.903L305.394 364.51L334.739 394.807H426.063C432.296 395.5 458.178 399.049 478.607 421.728C489.254 433.501 492.111 473.579 492.371 510.282L391.611 632.509L0.778459 1106.53L0.0859375 1107.31L0.0859375 56.1718C0.0859375 -179.626 191.304 -370.844 427.102 -370.844H791.793C795.948 -370.844 800.103 -370.844 804.171 -370.585C806.076 -370.585 807.98 -370.585 809.798 -370.412C812.655 -370.325 815.338 -370.152 818.195 -369.979C819.233 -369.979 820.186 -369.979 821.224 -369.806C825.033 -369.546 828.928 -369.286 832.737 -368.853C833.17 -368.853 833.43 -368.853 833.862 -368.767C838.277 -368.334 842.692 -367.814 847.107 -367.295C948.905 -354.224 1039.45 -305.229 1105.67 -233.469L1105.58 -233.555Z" fill="url(#paint3_linear_1471_2958)"/>
<path d="M1105.58 -233.555L892.466 25.009L879.048 41.283L435.585 41.283L433.594 40.3309L217.879 -69.6045C217.879 -69.6045 369.797 80.7559 372.308 83.3528C374.905 85.9497 365.123 90.451 365.123 90.451L261.16 31.0686L331.017 100.925L315.349 110.447L318.985 181.948L321.668 232.588L287.389 292.143L267.999 325.903L305.394 364.51L334.739 394.807H426.063C432.296 395.5 458.178 399.049 478.607 421.728C489.254 433.501 492.111 473.579 492.371 510.282L391.611 632.509L0.778459 1106.53L0.0859375 1107.31L0.0859375 56.1718C0.0859375 -179.626 191.304 -370.844 427.102 -370.844H791.793C795.948 -370.844 800.103 -370.844 804.171 -370.585C806.076 -370.585 807.98 -370.585 809.798 -370.412C812.655 -370.325 815.338 -370.152 818.195 -369.979C819.233 -369.979 820.186 -369.979 821.224 -369.806C825.033 -369.546 828.928 -369.286 832.737 -368.853C833.17 -368.853 833.43 -368.853 833.862 -368.767C838.277 -368.334 842.692 -367.814 847.107 -367.295C948.905 -354.224 1039.45 -305.229 1105.67 -233.469L1105.58 -233.555Z" fill="url(#paint4_linear_1471_2958)"/>
<path d="M433.595 40.1751L217.88 -69.7599C217.88 -69.7599 369.798 80.6002 372.308 83.1971C374.905 85.7939 365.124 90.2953 365.124 90.2953L261.161 30.9131L331.018 100.769L315.35 110.291L318.985 181.793L0 576.521V56.0164C0 -179.782 191.218 -371 427.016 -371H765.738L433.508 40.1751H433.595Z" fill="url(#paint5_linear_1471_2958)"/>
</g>
<defs>
<linearGradient id="paint0_linear_1471_2958" x1="1184.19" y1="-23.7981" x2="457.662" y2="1179.26" gradientUnits="userSpaceOnUse">
<stop stop-color="#114FEE"/>
<stop offset="1" stop-color="#15B0F8"/>
</linearGradient>
<linearGradient id="paint1_linear_1471_2958" x1="1882.06" y1="-349.535" x2="463.202" y2="867.802" gradientUnits="userSpaceOnUse">
<stop stop-color="#020C6A"/>
<stop offset="1" stop-color="#15B0F8" stop-opacity="0"/>
</linearGradient>
<linearGradient id="paint2_linear_1471_2958" x1="828.578" y1="-220.713" x2="709.381" y2="1024.59" gradientUnits="userSpaceOnUse">
<stop stop-color="#BFE6ED"/>
<stop offset="1" stop-color="white" stop-opacity="0"/>
</linearGradient>
<linearGradient id="paint3_linear_1471_2958" x1="133.047" y1="884.149" x2="595.468" y2="-234.421" gradientUnits="userSpaceOnUse">
<stop stop-color="#0276DB"/>
<stop offset="1" stop-color="#3EDC81"/>
</linearGradient>
<linearGradient id="paint4_linear_1471_2958" x1="133.047" y1="884.149" x2="595.468" y2="-234.421" gradientUnits="userSpaceOnUse">
<stop stop-color="#0276DB"/>
<stop offset="1" stop-color="#3EDC81"/>
</linearGradient>
<linearGradient id="paint5_linear_1471_2958" x1="579.454" y1="-479.983" x2="-60.7674" y2="329.037" gradientUnits="userSpaceOnUse">
<stop offset="0.03" stop-color="#5EFCA1"/>
<stop offset="1" stop-color="#5EFCA1" stop-opacity="0"/>
</linearGradient>
</defs>
</svg>
