<svg width="50" height="49" viewBox="0 0 50 49" fill="none" xmlns="http://www.w3.org/2000/svg">
<path d="M16.9793 46.9898C16.8577 47.3361 17.0396 47.7162 17.389 47.8283C20.5458 48.8413 23.8776 49.2038 27.1827 48.8911C30.7085 48.5575 34.1201 47.4635 37.1823 45.6844C40.2446 43.9054 42.8847 41.4836 44.9209 38.5859C46.957 35.6882 48.3408 32.3836 48.9767 28.8996C49.6127 25.4157 49.4858 21.8352 48.6048 18.4051C47.7237 14.9749 46.1095 11.7765 43.8733 9.03022C41.6371 6.28398 38.8321 4.05518 35.6516 2.4974C32.6701 1.0371 29.4251 0.19901 26.114 0.0313506C25.7476 0.0127939 25.4431 0.304134 25.4345 0.670975L25.2932 6.6905C25.2846 7.05734 25.5751 7.36037 25.9413 7.38318C28.19 7.52327 30.3914 8.10525 32.4186 9.09818C34.645 10.1886 36.6085 11.7488 38.1738 13.6712C39.7392 15.5935 40.8691 17.8324 41.4858 20.2335C42.1026 22.6347 42.1914 25.141 41.7462 27.5797C41.301 30.0185 40.3324 32.3318 38.9071 34.3601C37.4818 36.3885 35.6337 38.0838 33.4901 39.3291C31.3466 40.5744 28.9585 41.3402 26.4904 41.5737C24.2431 41.7864 21.9781 41.5531 19.825 40.8896C19.4743 40.7816 19.0954 40.9624 18.9739 41.3086L16.9793 46.9898Z" fill="url(#paint0_linear_1350_87733)"/>
<path d="M3.29246 14.3581C2.9659 14.2047 2.57591 14.3447 2.43121 14.6752C1.18639 17.5189 0.492505 20.5751 0.388674 23.6816C0.277563 27.0058 0.84448 30.3178 2.05488 33.4158C3.26527 36.5138 5.0938 39.333 7.42904 41.7014C9.61127 43.9147 12.1933 45.691 15.0361 46.9376C15.3666 47.0825 15.7482 46.9211 15.8842 46.5869L18.1627 40.9895C18.2988 40.6553 18.1375 40.2753 17.8088 40.1266C15.8893 39.2587 14.1444 38.0437 12.6628 36.541C11.0282 34.8831 9.74819 32.9097 8.90091 30.7411C8.05364 28.5725 7.65679 26.254 7.73457 23.9271C7.80507 21.818 8.26413 19.7419 9.08678 17.8026C9.22769 17.4705 9.08858 17.0818 8.76201 16.9283L3.29246 14.3581Z" fill="#3EDC81"/>
<path d="M23.8721 0.685513C23.8567 0.318896 23.5468 0.0332754 23.1808 0.0586487C19.184 0.33568 15.3124 1.58903 11.9075 3.71311C8.50263 5.83718 5.67457 8.76325 3.66831 12.2311C3.48456 12.5487 3.60484 12.9526 3.92732 13.1277L9.21898 16.0005C9.54146 16.1755 9.9437 16.0553 10.1311 15.7398C11.5288 13.3875 13.4708 11.4008 15.7978 9.94917C18.1247 8.49756 20.763 7.6269 23.4903 7.40599C23.856 7.37637 24.1409 7.06799 24.1255 6.70137L23.8721 0.685513Z" fill="url(#paint1_linear_1350_87733)"/>
<defs>
<linearGradient id="paint0_linear_1350_87733" x1="6.26789" y1="41.6024" x2="18.5212" y2="1.97408" gradientUnits="userSpaceOnUse">
<stop stop-color="#0276DB"/>
<stop offset="1" stop-color="#3EDC81"/>
</linearGradient>
<linearGradient id="paint1_linear_1350_87733" x1="24.875" y1="0" x2="24.875" y2="49" gradientUnits="userSpaceOnUse">
<stop stop-color="#15B0F8"/>
<stop offset="1" stop-color="#0276DB"/>
</linearGradient>
</defs>
</svg>
