<svg width="24" height="25" viewBox="0 0 24 25" fill="none" xmlns="http://www.w3.org/2000/svg">
<g clip-path="url(#clip0_1692_11563)">
<path d="M7.36789 0.119141L7.20703 0.665903V16.5317L7.36789 16.6923L14.7326 12.339L7.36789 0.119141Z" fill="#343434"/>
<path d="M7.36863 0.119141L0.00390625 12.339L7.36863 16.6923V8.99154V0.119141Z" fill="#8C8C8C"/>
<path d="M7.36799 18.0874L7.27734 18.1979V23.8497L7.36799 24.1145L14.7371 13.7363L7.36799 18.0874Z" fill="#3C3C3B"/>
<path d="M7.36863 24.1145V18.0874L0.00390625 13.7363L7.36863 24.1145Z" fill="#8C8C8C"/>
<path d="M11.5704 0.679688L11.416 1.20458V16.4357L11.5704 16.5899L18.6406 12.4108L11.5704 0.679688Z" fill="#343434"/>
<path d="M11.5701 0.679688L4.5 12.4108L11.5701 16.5899V9.1972V0.679688Z" fill="#8C8C8C"/>
<path d="M11.5694 17.929L11.4824 18.0351V23.4607L11.5694 23.715L18.6438 13.752L11.5694 17.929Z" fill="#3C3C3B"/>
<path d="M11.5701 23.715V17.929L4.5 13.752L11.5701 23.715Z" fill="#8C8C8C"/>
<path d="M11.5703 16.5919L18.6403 12.4128L11.5703 9.19922V16.5919Z" fill="#141414"/>
<path d="M4.5 12.4128L11.57 16.5919V9.19922L4.5 12.4128Z" fill="#393939"/>
<path d="M7.36719 16.6929L14.7318 12.3396L7.36719 8.99219V16.6929Z" fill="#141414"/>
<path d="M0.00390625 12.3396L7.36851 16.6929V8.99219L0.00390625 12.3396Z" fill="#393939"/>
</g>
<defs>
<clipPath id="clip0_1692_11563">
<rect width="24" height="24" fill="white" transform="translate(0 0.119141)"/>
</clipPath>
</defs>
</svg>
