<svg width="500" height="365" viewBox="0 0 500 365" fill="none" xmlns="http://www.w3.org/2000/svg">
<g clip-path="url(#clip0_1086_2164)">
<g filter="url(#filter0_f_1086_2164)">
<circle cx="250" cy="182.77" r="90" fill="#3EDC81"/>
</g>
<path d="M60 62.9317C60 54.8243 60 50.7705 61.5778 47.6739C62.9657 44.95 65.1803 42.7355 67.9041 41.3476C71.0008 39.7698 75.0545 39.7698 83.1619 39.7698H416.838C424.946 39.7698 428.999 39.7698 432.096 41.3476C434.82 42.7355 437.034 44.95 438.422 47.6739C440 50.7705 440 54.8243 440 62.9317V353.054C440 361.162 440 365.215 438.422 368.312C437.034 371.036 434.82 373.25 432.096 374.638C428.999 376.216 424.946 376.216 416.838 376.216H83.1619C75.0545 376.216 71.0008 376.216 67.9041 374.638C65.1803 373.25 62.9657 371.036 61.5778 368.312C60 365.215 60 361.162 60 353.054V62.9317Z" fill="url(#paint0_linear_1086_2164)" fill-opacity="0.4"/>
<path d="M60 62.9317C60 54.8243 60 50.7705 61.5778 47.6739C62.9657 44.95 65.1803 42.7355 67.9041 41.3476C71.0008 39.7698 75.0545 39.7698 83.1619 39.7698H416.838C424.946 39.7698 428.999 39.7698 432.096 41.3476C434.82 42.7355 437.034 44.95 438.422 47.6739C440 50.7705 440 54.8243 440 62.9317V353.054C440 361.162 440 365.215 438.422 368.312C437.034 371.036 434.82 373.25 432.096 374.638C428.999 376.216 424.946 376.216 416.838 376.216H83.1619C75.0545 376.216 71.0008 376.216 67.9041 374.638C65.1803 373.25 62.9657 371.036 61.5778 368.312C60 365.215 60 361.162 60 353.054V62.9317Z" fill="url(#paint1_radial_1086_2164)"/>
<path d="M83.1621 40.2219H416.838C420.899 40.2219 423.918 40.2228 426.31 40.4182C428.695 40.6132 430.417 40.9993 431.891 41.7502C434.529 43.0948 436.675 45.2404 438.02 47.8792C438.77 49.353 439.157 51.0745 439.352 53.4602C439.547 55.8514 439.548 58.8707 439.548 62.9319V353.054C439.548 357.115 439.547 360.134 439.352 362.526C439.157 364.911 438.77 366.633 438.02 368.107C436.675 370.745 434.529 372.891 431.891 374.236C430.417 374.987 428.695 375.373 426.31 375.568C423.918 375.763 420.899 375.764 416.838 375.764H83.1621C79.1009 375.764 76.0817 375.763 73.6904 375.568C71.3047 375.373 69.5832 374.987 68.1094 374.236C65.4706 372.891 63.325 370.745 61.9805 368.107C61.2295 366.633 60.8434 364.911 60.6484 362.526C60.4531 360.134 60.4521 357.115 60.4521 353.054V62.9319C60.4521 58.8707 60.4531 55.8514 60.6484 53.4602C60.8434 51.0745 61.2295 49.353 61.9805 47.8792C63.325 45.2404 65.4706 43.0948 68.1094 41.7502C69.5832 40.9993 71.3047 40.6132 73.6904 40.4182C76.0817 40.2228 79.1009 40.2219 83.1621 40.2219Z" stroke="white" stroke-opacity="0.3" stroke-width="0.904762"/>
<path d="M88.2093 70.0945L91.5916 66.7123L94.9758 70.0963L96.9438 68.1282L91.5916 62.7759L86.2412 68.1264L88.2093 70.0945Z" fill="#F3BA2F"/>
<path d="M86.8196 71.4839L84.8516 69.5159L82.8834 71.484L84.8515 73.4521L86.8196 71.4839Z" fill="#F3BA2F"/>
<path d="M88.2092 72.874L91.5916 76.2562L94.9756 72.8723L96.9448 74.8393L96.9438 74.8404L91.5916 80.1926L86.241 74.8422L86.2383 74.8394L88.2092 72.874Z" fill="#F3BA2F"/>
<path d="M98.3317 73.453L100.3 71.4849L98.3318 69.5168L96.3636 71.485L98.3317 73.453Z" fill="#F3BA2F"/>
<path d="M93.5871 71.4829H93.5879L91.5908 69.4858L90.115 70.9617H90.1148L89.9453 71.1313L89.5955 71.4812L89.5928 71.4839L89.5955 71.4868L91.5908 73.4821L93.5879 71.485L93.5889 71.4839L93.5871 71.4829Z" fill="#F3BA2F"/>
<path d="M111.925 77.4841V67.1192H115.718C117.716 67.1192 118.946 68.1325 118.946 69.7973C118.946 71.0133 118.411 71.8384 117.34 72.2582C118.541 72.6491 119.149 73.4887 119.149 74.7626C119.149 76.4274 117.904 77.4841 115.935 77.4841H111.925ZM115.704 68.0457H112.968V71.8384H115.834C117.137 71.8384 117.875 71.1146 117.875 69.8841C117.875 68.726 117.093 68.0457 115.704 68.0457ZM115.935 72.7504H112.968V76.5432H115.935C117.296 76.5432 118.092 75.8338 118.092 74.6323C118.092 73.4597 117.282 72.7504 115.935 72.7504ZM121.305 68.5523C120.899 68.5523 120.566 68.2194 120.566 67.814C120.566 67.4087 120.899 67.0613 121.305 67.0613C121.71 67.0613 122.057 67.4087 122.057 67.814C122.057 68.2194 121.71 68.5523 121.305 68.5523ZM120.812 77.4841V70.4777H121.811V77.4841H120.812ZM124.893 77.4841H123.894V70.4777H124.763L124.908 71.6937C125.371 70.7961 126.297 70.2895 127.311 70.2895C129.236 70.2895 130.032 71.4331 130.032 73.1992V77.4841H129.033V73.4163C129.033 71.7805 128.295 71.2015 127.137 71.2015C125.704 71.2015 124.893 72.2437 124.893 73.8217V77.4841ZM134.035 77.6578C132.544 77.6578 131.661 76.8182 131.661 75.5877C131.661 74.2994 132.646 73.4887 134.281 73.3584L136.598 73.1702V72.9386C136.598 71.5634 135.772 71.1291 134.745 71.1291C133.529 71.1291 132.805 71.6792 132.805 72.6201H131.893C131.893 71.2015 133.051 70.2895 134.774 70.2895C136.395 70.2895 137.582 71.1001 137.582 72.9531V77.4841H136.742L136.612 76.2537C136.178 77.1367 135.222 77.6578 134.035 77.6578ZM134.267 76.8472C135.743 76.8472 136.598 75.8194 136.598 74.2994V73.923L134.527 74.0822C133.21 74.198 132.674 74.7771 132.674 75.5588C132.674 76.4129 133.311 76.8472 134.267 76.8472ZM140.585 77.4841H139.586V70.4777H140.455L140.6 71.6937C141.063 70.7961 141.989 70.2895 143.003 70.2895C144.928 70.2895 145.724 71.4331 145.724 73.1992V77.4841H144.725V73.4163C144.725 71.7805 143.987 71.2015 142.829 71.2015C141.396 71.2015 140.585 72.2437 140.585 73.8217V77.4841ZM147.223 73.9954C147.223 71.795 148.569 70.2895 150.61 70.2895C152.232 70.2895 153.419 71.2304 153.694 72.678H152.695C152.434 71.7081 151.595 71.1725 150.625 71.1725C149.206 71.1725 148.207 72.2582 148.207 73.9809C148.207 75.6457 149.134 76.7603 150.552 76.7603C151.595 76.7603 152.434 76.1813 152.709 75.2837H153.723C153.39 76.7169 152.145 77.6578 150.552 77.6578C148.569 77.6578 147.223 76.1957 147.223 73.9954ZM158.175 77.6578C156.119 77.6578 154.744 76.1813 154.744 73.9809C154.744 71.795 156.104 70.2895 158.102 70.2895C159.999 70.2895 161.287 71.6357 161.287 73.619V74.1112H155.714C155.786 75.8194 156.683 76.8037 158.189 76.8037C159.333 76.8037 160.071 76.3116 160.331 75.3851H161.287C160.911 76.8617 159.825 77.6578 158.175 77.6578ZM158.102 71.1436C156.785 71.1436 155.916 72.0121 155.743 73.3874H160.288C160.288 72.0411 159.419 71.1436 158.102 71.1436Z" fill="white"/>
<g clip-path="url(#clip1_1086_2164)">
<path d="M402 71.4842C402 67.4867 405.241 64.2461 409.238 64.2461C413.236 64.2461 416.476 67.4867 416.476 71.4842C416.476 75.4817 413.236 78.7223 409.238 78.7223C405.241 78.7223 402 75.4817 402 71.4842Z" fill="white" fill-opacity="0.6"/>
<g filter="url(#filter1_d_1086_2164)">
<path d="M403.357 71.4842C403.357 68.2363 405.99 65.6033 409.238 65.6033C412.486 65.6033 415.119 68.2363 415.119 71.4842C415.119 74.7322 412.486 77.3652 409.238 77.3652C405.99 77.3652 403.357 74.7322 403.357 71.4842Z" fill="#1F2020"/>
</g>
</g>
<g clip-path="url(#clip2_1086_2164)">
<path d="M97.2839 98.3452H86.0486C83.6546 98.3452 81.7139 100.286 81.7139 102.68V113.915C81.7139 116.309 83.6546 118.25 86.0486 118.25H97.2839C99.6779 118.25 101.619 116.309 101.619 113.915V102.68C101.619 100.286 99.6779 98.3452 97.2839 98.3452Z" fill="#00F0FF"/>
<path d="M90.8992 106.192H94.6157L98.4177 109.97C98.665 110.216 98.6663 110.615 98.4202 110.862L93.5444 115.763H89.7158L90.8733 114.638L95.1229 110.415L90.9272 106.192" fill="#1B1B1B"/>
<path d="M92.4255 110.405H88.709L84.907 106.627C84.6597 106.381 84.6584 105.982 84.9045 105.735L89.7803 100.834H93.6089L92.4514 101.959L88.2017 106.182L92.3975 110.405" fill="#1B1B1B"/>
</g>
<path d="M111.925 114.298V103.933H115.718C117.716 103.933 118.946 104.946 118.946 106.611C118.946 107.827 118.411 108.652 117.34 109.072C118.541 109.463 119.149 110.303 119.149 111.577C119.149 113.241 117.904 114.298 115.935 114.298H111.925ZM115.704 104.86H112.968V108.652H115.834C117.137 108.652 117.875 107.929 117.875 106.698C117.875 105.54 117.093 104.86 115.704 104.86ZM115.935 109.564H112.968V113.357H115.935C117.296 113.357 118.092 112.648 118.092 111.446C118.092 110.274 117.282 109.564 115.935 109.564ZM121.305 105.366C120.899 105.366 120.566 105.033 120.566 104.628C120.566 104.223 120.899 103.875 121.305 103.875C121.71 103.875 122.057 104.223 122.057 104.628C122.057 105.033 121.71 105.366 121.305 105.366ZM120.812 114.298V107.292H121.811V114.298H120.812ZM125.501 114.298H124.517V108.131H123.113V107.292H124.517V105.077H125.501V107.292H126.905V108.131H125.501V114.298ZM127.658 110.592C127.658 108.681 128.888 107.103 130.944 107.103C132.16 107.103 133.086 107.668 133.535 108.696L133.636 107.292H134.505V114.081C134.505 116.166 133.173 117.526 131.117 117.526C129.322 117.526 128.063 116.513 127.788 114.819H128.787C129.004 115.948 129.873 116.614 131.132 116.614C132.565 116.614 133.521 115.644 133.521 114.182V112.518C133.043 113.502 132.073 114.081 130.871 114.081C128.874 114.081 127.658 112.503 127.658 110.592ZM128.657 110.578C128.657 112.011 129.54 113.183 131.016 113.183C132.536 113.183 133.434 112.083 133.434 110.578C133.434 109.087 132.565 107.986 131.031 107.986C129.525 107.986 128.657 109.159 128.657 110.578ZM139.528 114.472C137.472 114.472 136.097 112.995 136.097 110.795C136.097 108.609 137.458 107.103 139.456 107.103C141.352 107.103 142.64 108.45 142.64 110.433V110.925H137.067C137.139 112.633 138.037 113.618 139.542 113.618C140.686 113.618 141.424 113.126 141.685 112.199H142.64C142.264 113.676 141.178 114.472 139.528 114.472ZM139.456 107.958C138.138 107.958 137.27 108.826 137.096 110.201H141.641C141.641 108.855 140.773 107.958 139.456 107.958ZM145.773 114.298H144.789V108.131H143.385V107.292H144.789V105.077H145.773V107.292H147.178V108.131H145.773V114.298Z" fill="white"/>
<g clip-path="url(#clip3_1086_2164)">
<path d="M402 108.298C402 104.301 405.241 101.06 409.238 101.06C413.236 101.06 416.476 104.301 416.476 108.298C416.476 112.296 413.236 115.536 409.238 115.536C405.241 115.536 402 112.296 402 108.298Z" fill="white" fill-opacity="0.6"/>
<g filter="url(#filter2_d_1086_2164)">
<path d="M403.357 108.298C403.357 105.05 405.99 102.417 409.238 102.417C412.486 102.417 415.119 105.05 415.119 108.298C415.119 111.546 412.486 114.179 409.238 114.179C405.99 114.179 403.357 111.546 403.357 108.298Z" fill="#1F2020"/>
</g>
</g>
<path d="M95.3711 146.794V142.295H96.2707V146.794H95.3711Z" fill="#F3BA2F"/>
<path d="M84.8867 148.13H82.958V143.631H84.8091C85.7088 143.631 86.233 144.124 86.233 144.895C86.233 145.394 85.8963 145.717 85.6633 145.824C85.9414 145.95 86.2975 146.235 86.2975 146.835C86.2975 147.675 85.7088 148.13 84.8867 148.13ZM84.7379 144.415H83.8576V145.451H84.7379C85.1197 145.451 85.3333 145.243 85.3333 144.933C85.3333 144.623 85.1197 144.415 84.7379 144.415ZM84.7961 146.241H83.8576V147.347H84.7961C85.2039 147.347 85.3978 147.094 85.3978 146.791C85.3978 146.488 85.2036 146.241 84.7961 146.241Z" fill="white"/>
<path d="M89.0411 146.285V148.13H88.1478V146.285L86.7627 143.631H87.7399L88.6008 145.445L89.4486 143.631H90.4258L89.0411 146.285Z" fill="white"/>
<path d="M92.9765 148.13H91.0479V143.631H92.899C93.7986 143.631 94.3228 144.124 94.3228 144.895C94.3228 145.394 93.9861 145.717 93.7531 145.824C94.0313 145.95 94.3873 146.235 94.3873 146.835C94.3873 147.675 93.7986 148.13 92.9765 148.13ZM92.8278 144.415H91.9475V145.451H92.8278C93.2095 145.451 93.4232 145.243 93.4232 144.933C93.4232 144.623 93.2095 144.415 92.8278 144.415ZM92.8859 146.241H91.9475V147.347H92.8859C93.2938 147.347 93.4877 147.094 93.4877 146.791C93.4877 146.488 93.2938 146.241 92.8859 146.241Z" fill="white"/>
<path d="M99.1709 144.415V148.131H98.2713V144.415H97.0674V143.631H100.375V144.415H99.1709Z" fill="white"/>
<path d="M111.925 151.112V140.747H115.718C117.716 140.747 118.946 141.76 118.946 143.425C118.946 144.641 118.411 145.466 117.34 145.886C118.541 146.277 119.149 147.117 119.149 148.391C119.149 150.055 117.904 151.112 115.935 151.112H111.925ZM115.704 141.674H112.968V145.466H115.834C117.137 145.466 117.875 144.743 117.875 143.512C117.875 142.354 117.093 141.674 115.704 141.674ZM115.935 146.378H112.968V150.171H115.935C117.296 150.171 118.092 149.462 118.092 148.26C118.092 147.088 117.282 146.378 115.935 146.378ZM119.962 154.167V153.341H120.729C121.337 153.341 121.945 153.298 122.292 152.357L122.596 151.532L119.759 144.106H120.816L123.074 150.215L125.289 144.106H126.317L123.103 152.719C122.698 153.819 122.017 154.268 121.019 154.268C120.599 154.268 120.28 154.239 119.962 154.167ZM128.354 151.112H127.485V140.559H128.484V145.466C128.976 144.439 129.932 143.917 131.119 143.917C133.16 143.917 134.347 145.51 134.347 147.623C134.347 149.722 133.131 151.286 131.09 151.286C129.917 151.286 128.947 150.765 128.455 149.679L128.354 151.112ZM128.498 147.594C128.498 149.216 129.396 150.374 130.93 150.374C132.45 150.374 133.333 149.216 133.333 147.594C133.333 145.987 132.45 144.815 130.93 144.815C129.396 144.815 128.498 145.987 128.498 147.594ZM136.431 142.18C136.026 142.18 135.693 141.847 135.693 141.442C135.693 141.037 136.026 140.689 136.431 140.689C136.836 140.689 137.184 141.037 137.184 141.442C137.184 141.847 136.836 142.18 136.431 142.18ZM135.939 151.112V144.106H136.938V151.112H135.939ZM140.628 151.112H139.643V144.945H138.239V144.106H139.643V141.891H140.628V144.106H142.032V144.945H140.628V151.112Z" fill="white"/>
<g clip-path="url(#clip4_1086_2164)">
<path d="M402 145.112C402 141.115 405.241 137.874 409.238 137.874C413.236 137.874 416.476 141.115 416.476 145.112C416.476 149.11 413.236 152.35 409.238 152.35C405.241 152.35 402 149.11 402 145.112Z" fill="white" fill-opacity="0.6"/>
<g filter="url(#filter3_d_1086_2164)">
<path d="M403.357 145.112C403.357 141.864 405.99 139.231 409.238 139.231C412.486 139.231 415.119 141.864 415.119 145.112C415.119 148.36 412.486 150.993 409.238 150.993C405.99 150.993 403.357 148.36 403.357 145.112Z" fill="#1F2020"/>
</g>
</g>
<path d="M94.0119 179.225H89.3367C89.1383 179.225 88.9756 179.388 88.9756 179.586V184.266C88.9756 184.465 89.1383 184.628 89.3367 184.628H94.0119C94.2103 184.628 94.373 184.465 94.373 184.266V179.586C94.373 179.388 94.2103 179.225 94.0119 179.225Z" fill="white"/>
<path d="M88.6164 173.84H83.9412C83.7428 173.84 83.5801 174.002 83.5801 174.201V178.881C83.5801 179.08 83.7428 179.243 83.9412 179.243H88.6164C88.8148 179.243 88.9775 179.08 88.9775 178.881V174.201C88.9763 174.002 88.8148 173.84 88.6164 173.84Z" fill="white"/>
<path d="M99.3917 173.84H94.7166C94.5182 173.84 94.3555 174.002 94.3555 174.201V178.881C94.3555 179.08 94.5182 179.243 94.7166 179.243H99.3917C99.5902 179.243 99.7529 179.08 99.7529 178.881V174.201C99.7529 174.002 99.5902 173.84 99.3917 173.84Z" fill="white"/>
<path d="M88.6164 184.609H83.9412C83.7428 184.609 83.5801 184.772 83.5801 184.971V189.651C83.5801 189.849 83.7428 190.012 83.9412 190.012H88.6164C88.8148 190.012 88.9775 189.849 88.9775 189.651V184.971C88.9763 184.772 88.8148 184.609 88.6164 184.609Z" fill="white"/>
<path d="M99.3917 184.609H94.7166C94.5182 184.609 94.3555 184.772 94.3555 184.971V189.651C94.3555 189.849 94.5182 190.012 94.7166 190.012H99.3917C99.5902 190.012 99.7529 189.849 99.7529 189.651V184.971C99.7529 184.772 99.5902 184.609 99.3917 184.609Z" fill="white"/>
<path d="M121.161 182.744C121.161 185.885 119.12 188.1 116.225 188.1C113.315 188.1 111.288 185.885 111.288 182.744C111.288 179.602 113.33 177.373 116.225 177.373C119.135 177.373 121.161 179.588 121.161 182.744ZM120.09 182.744C120.09 180.152 118.512 178.386 116.225 178.386C113.938 178.386 112.374 180.152 112.374 182.744C112.374 185.335 113.938 187.101 116.225 187.101C118.512 187.101 120.09 185.32 120.09 182.744ZM124.093 177.561V183.8L129.088 177.561H130.333L126.815 181.947L130.391 187.926H129.175L126.135 182.816L124.093 185.349V187.926H123.051V177.561H124.093ZM134.534 182.758L130.915 177.561H132.145L134.071 180.283C134.563 180.977 134.896 181.528 135.142 181.991L138.153 177.561H139.354L135.793 182.729L139.412 187.926H138.167L136.199 185.147C135.851 184.654 135.431 184.017 135.171 183.554L132.145 187.926H130.929L134.534 182.758Z" fill="white"/>
<g clip-path="url(#clip5_1086_2164)">
<path d="M402 181.926C402 177.929 405.241 174.688 409.238 174.688C413.236 174.688 416.476 177.929 416.476 181.926C416.476 185.924 413.236 189.164 409.238 189.164C405.241 189.164 402 185.924 402 181.926Z" fill="white" fill-opacity="0.6"/>
<g filter="url(#filter4_d_1086_2164)">
<path d="M403.357 181.926C403.357 178.678 405.99 176.045 409.238 176.045C412.486 176.045 415.119 178.678 415.119 181.926C415.119 185.174 412.486 187.807 409.238 187.807C405.99 187.807 403.357 185.174 403.357 181.926Z" fill="#1F2020"/>
</g>
</g>
<path fill-rule="evenodd" clip-rule="evenodd" d="M86.5856 210.032H96.7464C98.7507 210.032 100.375 211.779 100.375 213.934V223.546C100.375 225.701 98.7507 227.448 96.7471 227.448H86.5856C84.5819 227.448 82.958 225.701 82.958 223.546V213.934C82.958 211.779 84.5819 210.032 86.5856 210.032Z" fill="#0052FF"/>
<path fill-rule="evenodd" clip-rule="evenodd" d="M91.6671 212.554C95.0836 212.554 97.8529 215.323 97.8529 218.74C97.8529 222.156 95.0836 224.926 91.6671 224.926C88.2507 224.926 85.4814 222.156 85.4814 218.74C85.4814 215.323 88.2507 212.554 91.6671 212.554Z" fill="white"/>
<path fill-rule="evenodd" clip-rule="evenodd" d="M90.143 216.763H93.1895C93.4403 216.763 93.643 216.982 93.643 217.251V220.229C93.643 220.498 93.4396 220.717 93.1895 220.717H90.143C89.8922 220.717 89.6895 220.498 89.6895 220.229V217.251C89.6895 216.982 89.8929 216.763 90.143 216.763Z" fill="#0052FF"/>
<path d="M116.152 224.899C113.257 224.899 111.288 222.742 111.288 219.558C111.288 216.373 113.286 214.201 116.21 214.201C118.44 214.201 120.191 215.548 120.611 217.603H119.496C119.062 216.112 117.788 215.2 116.167 215.2C113.894 215.2 112.374 216.937 112.374 219.558C112.374 222.163 113.894 223.9 116.167 223.9C117.803 223.9 119.106 223.017 119.554 221.628H120.669C120.191 223.582 118.382 224.899 116.152 224.899ZM121.762 221.237C121.762 219.094 123.268 217.545 125.323 217.545C127.379 217.545 128.885 219.094 128.885 221.237C128.885 223.365 127.379 224.914 125.323 224.914C123.268 224.914 121.762 223.365 121.762 221.237ZM122.776 221.222C122.776 222.873 123.818 224.016 125.323 224.016C126.814 224.016 127.871 222.873 127.871 221.222C127.871 219.601 126.814 218.443 125.323 218.443C123.818 218.443 122.776 219.601 122.776 221.222ZM130.974 215.808C130.569 215.808 130.236 215.475 130.236 215.07C130.236 214.665 130.569 214.317 130.974 214.317C131.38 214.317 131.727 214.665 131.727 215.07C131.727 215.475 131.38 215.808 130.974 215.808ZM130.482 224.74V217.734H131.481V224.74H130.482ZM134.563 224.74H133.564V217.734H134.433L134.577 218.95C135.041 218.052 135.967 217.545 136.98 217.545C138.906 217.545 139.702 218.689 139.702 220.455V224.74H138.703V220.672C138.703 219.036 137.965 218.457 136.807 218.457C135.373 218.457 134.563 219.5 134.563 221.078V224.74ZM142.561 224.74H141.693V214.187H142.692V219.094C143.184 218.066 144.139 217.545 145.326 217.545C147.367 217.545 148.554 219.138 148.554 221.251C148.554 223.35 147.338 224.914 145.297 224.914C144.125 224.914 143.155 224.393 142.663 223.307L142.561 224.74ZM142.706 221.222C142.706 222.844 143.604 224.002 145.138 224.002C146.658 224.002 147.541 222.844 147.541 221.222C147.541 219.615 146.658 218.443 145.138 218.443C143.604 218.443 142.706 219.615 142.706 221.222ZM152.159 224.914C150.668 224.914 149.785 224.074 149.785 222.844C149.785 221.555 150.769 220.745 152.405 220.614L154.721 220.426V220.194C154.721 218.819 153.896 218.385 152.868 218.385C151.652 218.385 150.928 218.935 150.928 219.876H150.016C150.016 218.457 151.174 217.545 152.897 217.545C154.518 217.545 155.705 218.356 155.705 220.209V224.74H154.866L154.736 223.51C154.301 224.393 153.346 224.914 152.159 224.914ZM152.39 224.103C153.867 224.103 154.721 223.075 154.721 221.555V221.179L152.651 221.338C151.334 221.454 150.798 222.033 150.798 222.815C150.798 223.669 151.435 224.103 152.39 224.103ZM157.116 222.771H158.072C158.072 223.582 158.68 224.089 159.664 224.089C160.75 224.089 161.387 223.625 161.387 222.873C161.387 222.294 161.097 221.961 160.272 221.758L159.071 221.454C157.855 221.15 157.261 220.513 157.261 219.558C157.261 218.327 158.289 217.545 159.794 217.545C161.271 217.545 162.226 218.356 162.27 219.659H161.3C161.271 218.848 160.706 218.37 159.765 218.37C158.781 218.37 158.231 218.79 158.231 219.543C158.231 220.079 158.607 220.455 159.375 220.643L160.576 220.947C161.792 221.251 162.342 221.816 162.342 222.829C162.342 224.089 161.271 224.914 159.679 224.914C158.101 224.914 157.116 224.074 157.116 222.771ZM166.925 224.914C164.87 224.914 163.494 223.437 163.494 221.237C163.494 219.051 164.855 217.545 166.853 217.545C168.749 217.545 170.038 218.892 170.038 220.875V221.367H164.464C164.537 223.075 165.434 224.06 166.94 224.06C168.083 224.06 168.822 223.567 169.082 222.641H170.038C169.661 224.118 168.576 224.914 166.925 224.914ZM166.853 218.399C165.536 218.399 164.667 219.268 164.493 220.643H169.039C169.039 219.297 168.17 218.399 166.853 218.399Z" fill="white"/>
<g clip-path="url(#clip6_1086_2164)">
<path d="M402 218.74C402 214.743 405.241 211.502 409.238 211.502C413.236 211.502 416.476 214.743 416.476 218.74C416.476 222.738 413.236 225.978 409.238 225.978C405.241 225.978 402 222.738 402 218.74Z" fill="white" fill-opacity="0.6"/>
<g filter="url(#filter5_d_1086_2164)">
<path d="M403.357 218.74C403.357 215.492 405.99 212.859 409.238 212.859C412.486 212.859 415.119 215.492 415.119 218.74C415.119 221.988 412.486 224.621 409.238 224.621C405.99 224.621 403.357 221.988 403.357 218.74Z" fill="#1F2020"/>
</g>
</g>
<path d="M88.3639 257.216H82.7779V248.058H88.3639V249.198H84.0192V252.061H87.9332V253.163H84.0192V256.063H88.3639V257.216ZM91.0746 257.216H89.884V251.022H90.9606L91.0873 251.972C91.48 251.263 92.2653 250.845 93.1393 250.845C94.7733 250.845 95.5206 251.845 95.5206 253.429V257.216H94.33V253.695C94.33 252.441 93.7473 251.934 92.8353 251.934C91.7206 251.934 91.0746 252.732 91.0746 253.935V257.216ZM98.8418 257.216H97.6511V252.023H96.4351V251.022H97.6511V249.084H98.8418V251.022H100.058V252.023H98.8418V257.216ZM103.661 257.368C101.837 257.368 100.583 256.051 100.583 254.125C100.583 252.187 101.812 250.845 103.61 250.845C105.371 250.845 106.524 252.061 106.524 253.897V254.341L101.736 254.353C101.824 255.658 102.508 256.38 103.686 256.38C104.611 256.38 105.219 256 105.422 255.291H106.536C106.232 256.621 105.194 257.368 103.661 257.368ZM103.61 251.845C102.572 251.845 101.913 252.466 101.761 253.555H105.333C105.333 252.529 104.662 251.845 103.61 251.845ZM111.324 250.971V252.061H110.792C109.665 252.061 108.968 252.745 108.968 253.935V257.216H107.778V251.035H108.892L108.968 251.972C109.222 251.326 109.842 250.895 110.691 250.895C110.906 250.895 111.084 250.921 111.324 250.971ZM118.121 253.492L115.018 248.058H116.411L118.451 251.719C118.577 251.934 118.653 252.111 118.755 252.327C118.869 252.099 118.894 252.023 119.059 251.719L121.085 248.058H122.441L119.363 253.492V257.216H118.121V253.492ZM121.704 254.113C121.704 252.2 123.072 250.857 124.934 250.857C126.783 250.857 128.151 252.2 128.151 254.113C128.151 256.025 126.783 257.368 124.934 257.368C123.072 257.368 121.704 256.025 121.704 254.113ZM122.907 254.113C122.907 255.405 123.73 256.304 124.934 256.304C126.124 256.304 126.96 255.405 126.96 254.113C126.96 252.821 126.124 251.921 124.934 251.921C123.73 251.921 122.907 252.821 122.907 254.113ZM133.526 251.022H134.704V257.216H133.64L133.513 256.279C133.159 256.925 132.335 257.368 131.423 257.368C129.979 257.368 129.169 256.393 129.169 254.873V251.022H130.359V254.48C130.359 255.81 130.929 256.317 131.841 256.317C132.931 256.317 133.526 255.62 133.526 254.29V251.022ZM139.902 250.971V252.061H139.37C138.243 252.061 137.546 252.745 137.546 253.935V257.216H136.355V251.035H137.47L137.546 251.972C137.799 251.326 138.42 250.895 139.269 250.895C139.484 250.895 139.661 250.921 139.902 250.971ZM144.913 257.216H143.621L146.965 248.058H148.346L151.702 257.216H150.398L149.574 254.936H145.724L144.913 257.216ZM147.497 250.034L146.104 253.859H149.207L147.801 250.034C147.738 249.857 147.674 249.641 147.649 249.502C147.624 249.629 147.56 249.844 147.497 250.034ZM156.403 253.948H154.085V257.216H152.844V248.058H156.403C158.202 248.058 159.354 249.236 159.354 250.997C159.354 252.707 158.189 253.948 156.403 253.948ZM156.188 249.173H154.085V252.833H156.137C157.366 252.833 158.05 252.111 158.05 250.984C158.05 249.831 157.353 249.173 156.188 249.173ZM161.926 248.058V257.216H160.684V248.058H161.926ZM165.569 256.722C165.569 257.634 164.885 258.394 163.985 258.508V257.976C164.505 257.887 164.872 257.545 164.872 257.153C164.783 257.203 164.682 257.229 164.53 257.229C164.112 257.229 163.757 256.925 163.757 256.456C163.757 255.949 164.099 255.582 164.606 255.582C165.138 255.582 165.569 256.025 165.569 256.722ZM168.651 248.058V253.251L172.73 248.058H174.212L171.147 251.947L174.263 257.216H172.819L170.323 252.998L168.651 255.113V257.216H167.41V248.058H168.651ZM177.51 257.368C175.686 257.368 174.432 256.051 174.432 254.125C174.432 252.187 175.661 250.845 177.46 250.845C179.22 250.845 180.373 252.061 180.373 253.897V254.341L175.585 254.353C175.674 255.658 176.358 256.38 177.536 256.38C178.46 256.38 179.068 256 179.271 255.291H180.386C180.082 256.621 179.043 257.368 177.51 257.368ZM177.46 251.845C176.421 251.845 175.762 252.466 175.61 253.555H179.182C179.182 252.529 178.511 251.845 177.46 251.845ZM180.858 259.99V259.015H181.656C182.226 259.015 182.682 258.926 182.974 258.141L183.189 257.545L180.694 251.022H181.948L183.746 256.013L185.583 251.022H186.812L183.886 258.609C183.468 259.673 182.847 260.117 181.897 260.117C181.504 260.117 181.175 260.066 180.858 259.99Z" fill="white"/>
<path d="M189.783 250.034L188.96 249.743L189.213 249.084L189.999 249.35C190.455 249.502 190.708 249.641 190.974 249.819C190.898 249.502 190.86 249.198 190.86 248.755V247.881H191.569V248.755C191.569 249.198 191.519 249.527 191.455 249.819C191.721 249.654 191.975 249.502 192.418 249.35L193.216 249.071L193.482 249.743L192.646 250.034C192.228 250.186 191.899 250.237 191.607 250.275C191.873 250.503 192.063 250.705 192.304 251.085L192.798 251.795L192.215 252.2L191.721 251.503C191.455 251.123 191.316 250.832 191.202 250.566C191.101 250.87 190.961 251.161 190.708 251.503L190.201 252.2L189.606 251.795L190.1 251.085C190.366 250.705 190.581 250.49 190.822 250.275C190.442 250.224 190.151 250.173 189.783 250.034Z" fill="url(#paint2_linear_1086_2164)"/>
<g filter="url(#filter6_d_1086_2164)">
<path d="M81.7139 274.883C81.7139 269.886 85.7646 265.835 90.7615 265.835H409.238C414.235 265.835 418.285 269.886 418.285 274.883V293.883C418.285 298.88 414.235 302.93 409.238 302.93H90.7615C85.7646 302.93 81.7139 298.88 81.7139 293.883V274.883Z" fill="url(#paint3_linear_1086_2164)" fill-opacity="0.2" shape-rendering="crispEdges"/>
<path d="M90.7617 266.287H409.237C413.984 266.287 417.833 270.136 417.833 274.883V293.883C417.833 298.63 413.984 302.478 409.237 302.478H90.7617C86.0148 302.478 82.1661 298.63 82.166 293.883V274.883C82.166 270.136 86.0147 266.287 90.7617 266.287Z" stroke="white" stroke-opacity="0.3" stroke-width="0.904762" shape-rendering="crispEdges"/>
<path d="M100.776 284.266L106.102 278.94L107.062 279.899L106.102 280.86L107.781 282.538L106.821 283.499L105.142 281.819L104.182 282.779L105.622 284.218L104.662 285.178L103.223 283.738L101.736 285.226C102.197 285.927 102.382 286.775 102.255 287.605C102.128 288.436 101.698 289.189 101.047 289.72C100.396 290.252 99.5719 290.523 98.733 290.482C97.894 290.44 97.1003 290.089 96.5051 289.496C95.9086 288.902 95.5544 288.108 95.5113 287.267C95.4682 286.426 95.7392 285.599 96.2717 284.947C96.8042 284.295 97.5601 283.864 98.3926 283.738C99.225 283.612 100.075 283.8 100.776 284.266ZM100.344 288.536C100.541 288.349 100.7 288.125 100.809 287.875C100.918 287.626 100.977 287.358 100.98 287.086C100.984 286.814 100.933 286.544 100.831 286.291C100.729 286.039 100.577 285.81 100.384 285.618C100.192 285.425 99.9629 285.274 99.7108 285.171C99.4587 285.069 99.1887 285.018 98.9166 285.022C98.6445 285.026 98.376 285.084 98.1268 285.193C97.8776 285.303 97.6529 285.461 97.466 285.658C97.0951 286.042 96.8899 286.557 96.8946 287.09C96.8992 287.624 97.1133 288.135 97.4908 288.512C97.8682 288.89 98.3788 289.104 98.9125 289.108C99.4463 289.113 99.9605 288.908 100.344 288.537L100.344 288.536Z" fill="white" fill-opacity="0.6"/>
<path d="M124.44 288.883H119.006V279.813H124.428V280.649H119.918V283.917H124.01V284.741H119.918V288.047H124.44V288.883ZM126.9 288.883H126.026V282.752H126.786L126.913 283.816C127.318 283.031 128.129 282.587 129.015 282.587C130.7 282.587 131.397 283.588 131.397 285.133V288.883H130.523V285.323C130.523 283.892 129.877 283.385 128.863 283.385C127.609 283.385 126.9 284.297 126.9 285.678V288.883ZM134.469 288.883H133.607V283.487H132.379V282.752H133.607V280.814H134.469V282.752H135.697V283.487H134.469V288.883ZM139.269 289.035C137.47 289.035 136.267 287.743 136.267 285.817C136.267 283.905 137.458 282.587 139.206 282.587C140.865 282.587 141.992 283.765 141.992 285.501V285.931H137.116C137.179 287.426 137.964 288.287 139.282 288.287C140.282 288.287 140.928 287.857 141.156 287.046H141.992C141.663 288.338 140.713 289.035 139.269 289.035ZM139.206 283.335C138.053 283.335 137.293 284.095 137.141 285.298H141.118C141.118 284.12 140.358 283.335 139.206 283.335ZM146.518 282.676V283.461H146.037C144.91 283.461 144.188 284.221 144.188 285.387V288.883H143.314V282.752H144.137L144.2 283.702C144.441 283.043 145.087 282.613 145.948 282.613C146.138 282.613 146.303 282.625 146.518 282.676ZM150.421 291.555V290.833H151.092C151.624 290.833 152.156 290.795 152.46 289.972L152.726 289.25L150.243 282.752H151.168L153.144 288.097L155.082 282.752H155.981L153.169 290.289C152.815 291.251 152.219 291.644 151.345 291.644C150.978 291.644 150.699 291.619 150.421 291.555ZM156.287 285.817C156.287 283.943 157.604 282.587 159.403 282.587C161.201 282.587 162.519 283.943 162.519 285.817C162.519 287.679 161.201 289.035 159.403 289.035C157.604 289.035 156.287 287.679 156.287 285.817ZM157.173 285.805C157.173 287.249 158.085 288.249 159.403 288.249C160.707 288.249 161.632 287.249 161.632 285.805C161.632 284.386 160.707 283.373 159.403 283.373C158.085 283.373 157.173 284.386 157.173 285.805ZM167.999 282.752H168.873V288.883H168.113L167.999 287.844C167.657 288.553 166.808 289.035 165.845 289.035C164.401 289.035 163.616 288.047 163.616 286.552V282.739H164.503V286.273C164.503 287.73 165.149 288.249 166.124 288.249C167.302 288.249 167.999 287.464 167.999 286.007V282.752ZM173.822 282.676V283.461H173.341C172.213 283.461 171.491 284.221 171.491 285.387V288.883H170.617V282.752H171.441L171.504 283.702C171.745 283.043 172.391 282.613 173.252 282.613C173.442 282.613 173.607 282.625 173.822 282.676ZM178.535 288.883H177.61L180.942 279.813H182.069L185.438 288.883H184.488L183.602 286.476H179.422L178.535 288.883ZM181.385 281.093L179.7 285.678H183.31L181.613 281.093C181.575 280.966 181.512 280.814 181.499 280.725C181.486 280.801 181.436 280.966 181.385 281.093ZM190.081 285.551H187.535V288.883H186.623V279.813H190.081C191.829 279.813 192.931 280.953 192.931 282.663C192.931 284.31 191.816 285.551 190.081 285.551ZM189.954 280.637H187.535V284.728H189.904C191.221 284.728 191.981 283.892 191.981 282.651C191.981 281.397 191.208 280.637 189.954 280.637ZM195.24 279.813V288.883H194.328V279.813H195.24ZM201.528 288.883H200.654V279.649H201.528V285.919L204.568 282.752H205.67L203.314 285.197L205.682 288.883H204.669L202.718 285.817L201.528 287.046V288.883ZM209.011 289.035C207.213 289.035 206.009 287.743 206.009 285.817C206.009 283.905 207.2 282.587 208.948 282.587C210.607 282.587 211.735 283.765 211.735 285.501V285.931H206.858C206.921 287.426 207.707 288.287 209.024 288.287C210.025 288.287 210.671 287.857 210.899 287.046H211.735C211.405 288.338 210.455 289.035 209.011 289.035ZM208.948 283.335C207.795 283.335 207.035 284.095 206.883 285.298H210.861C210.861 284.12 210.101 283.335 208.948 283.335ZM212.287 291.555V290.833H212.958C213.49 290.833 214.022 290.795 214.326 289.972L214.592 289.25L212.11 282.752H213.034L215.01 288.097L216.948 282.752H217.848L215.036 290.289C214.681 291.251 214.086 291.644 213.212 291.644C212.844 291.644 212.566 291.619 212.287 291.555Z" fill="url(#paint4_linear_1086_2164)" fill-opacity="0.3"/>
<path d="M400.191 278.276C403.85 278.276 406.894 280.908 407.533 284.383C406.895 287.857 403.85 290.49 400.191 290.49C396.532 290.49 393.488 287.857 392.85 284.383C393.487 280.908 396.532 278.276 400.191 278.276ZM400.191 289.133C401.575 289.132 402.918 288.662 404 287.799C405.082 286.937 405.839 285.732 406.147 284.383C405.838 283.035 405.08 281.831 403.998 280.97C402.916 280.108 401.574 279.639 400.191 279.639C398.808 279.639 397.466 280.108 396.384 280.97C395.302 281.831 394.545 283.035 394.235 284.383C394.543 285.732 395.3 286.937 396.382 287.799C397.464 288.662 398.807 289.132 400.191 289.133ZM400.191 287.436C399.381 287.436 398.605 287.115 398.032 286.542C397.459 285.969 397.138 285.193 397.138 284.383C397.138 283.573 397.459 282.796 398.032 282.224C398.605 281.651 399.381 281.329 400.191 281.329C401.001 281.329 401.778 281.651 402.35 282.224C402.923 282.796 403.245 283.573 403.245 284.383C403.245 285.193 402.923 285.969 402.35 286.542C401.778 287.115 401.001 287.436 400.191 287.436ZM400.191 286.079C400.641 286.079 401.072 285.9 401.391 285.582C401.709 285.264 401.888 284.833 401.888 284.383C401.888 283.933 401.709 283.501 401.391 283.183C401.072 282.865 400.641 282.686 400.191 282.686C399.741 282.686 399.31 282.865 398.992 283.183C398.673 283.501 398.495 283.933 398.495 284.383C398.495 284.833 398.673 285.264 398.992 285.582C399.31 285.9 399.741 286.079 400.191 286.079Z" fill="white" fill-opacity="0.6"/>
</g>
<g opacity="0.3">
<path d="M81.7139 326.602C81.7139 321.523 85.8307 317.406 90.909 317.406H409.09C414.168 317.406 418.285 321.523 418.285 326.602V345.307C418.285 350.385 414.169 354.502 409.09 354.502H90.909C85.8307 354.502 81.7139 350.385 81.7139 345.307V326.602Z" fill="url(#paint5_linear_1086_2164)" fill-opacity="0.2"/>
<path d="M90.9092 317.859H409.09C413.918 317.859 417.833 321.773 417.833 326.602V345.307C417.833 350.135 413.918 354.049 409.09 354.049H90.9092C86.0808 354.049 82.1662 350.135 82.166 345.307V326.602C82.166 321.773 86.0807 317.859 90.9092 317.859Z" stroke="white" stroke-opacity="0.3" stroke-width="0.904762"/>
<path d="M230.364 340.593C227.755 340.593 226.019 338.719 226.019 335.881C226.019 333.057 227.805 331.144 230.427 331.144C232.492 331.144 234.075 332.373 234.417 334.247H233.087C232.745 333.057 231.719 332.335 230.389 332.335C228.54 332.335 227.324 333.728 227.324 335.869C227.324 338.009 228.54 339.403 230.389 339.403C231.732 339.403 232.796 338.681 233.138 337.553H234.455C234.063 339.377 232.429 340.593 230.364 340.593ZM235.293 337.351C235.293 335.438 236.661 334.095 238.523 334.095C240.373 334.095 241.741 335.438 241.741 337.351C241.741 339.263 240.373 340.606 238.523 340.606C236.661 340.606 235.293 339.263 235.293 337.351ZM236.497 337.351C236.497 338.643 237.32 339.542 238.523 339.542C239.714 339.542 240.55 338.643 240.55 337.351C240.55 336.059 239.714 335.159 238.523 335.159C237.32 335.159 236.497 336.059 236.497 337.351ZM244.173 340.454H242.983V334.26H244.059L244.186 335.21C244.579 334.501 245.364 334.083 246.238 334.083C247.872 334.083 248.619 335.083 248.619 336.667V340.454H247.429V336.933C247.429 335.679 246.846 335.172 245.934 335.172C244.819 335.172 244.173 335.97 244.173 337.173V340.454ZM251.383 340.454H250.193V334.26H251.269L251.396 335.21C251.789 334.501 252.574 334.083 253.448 334.083C255.082 334.083 255.829 335.083 255.829 336.667V340.454H254.639V336.933C254.639 335.679 254.056 335.172 253.144 335.172C252.029 335.172 251.383 335.97 251.383 337.173V340.454ZM260.075 340.606C258.251 340.606 256.997 339.289 256.997 337.363C256.997 335.425 258.226 334.083 260.024 334.083C261.785 334.083 262.938 335.299 262.938 337.135V337.579L258.15 337.591C258.238 338.896 258.922 339.618 260.1 339.618C261.025 339.618 261.633 339.238 261.836 338.529H262.95C262.646 339.859 261.608 340.606 260.075 340.606ZM260.024 335.083C258.986 335.083 258.327 335.704 258.175 336.793H261.747C261.747 335.767 261.076 335.083 260.024 335.083ZM263.786 337.363C263.786 335.425 265.015 334.083 266.826 334.083C268.384 334.083 269.474 334.969 269.689 336.35H268.498C268.296 335.565 267.662 335.147 266.864 335.147C265.737 335.147 264.964 336.008 264.964 337.351C264.964 338.681 265.686 339.542 266.814 339.542C267.662 339.542 268.296 339.099 268.511 338.364H269.702C269.461 339.707 268.308 340.606 266.814 340.606C264.99 340.606 263.786 339.314 263.786 337.363ZM272.63 340.454H271.439V335.261H270.223V334.26H271.439V332.322H272.63V334.26H273.846V335.261H272.63V340.454Z" fill="white"/>
</g>
</g>
<defs>
<filter id="filter0_f_1086_2164" x="-160" y="-227.23" width="820" height="820" filterUnits="userSpaceOnUse" color-interpolation-filters="sRGB">
<feFlood flood-opacity="0" result="BackgroundImageFix"/>
<feBlend mode="normal" in="SourceGraphic" in2="BackgroundImageFix" result="shape"/>
<feGaussianBlur stdDeviation="160" result="effect1_foregroundBlur_1086_2164"/>
</filter>
<filter id="filter1_d_1086_2164" x="401.548" y="65.6033" width="15.3808" height="15.381" filterUnits="userSpaceOnUse" color-interpolation-filters="sRGB">
<feFlood flood-opacity="0" result="BackgroundImageFix"/>
<feColorMatrix in="SourceAlpha" type="matrix" values="0 0 0 0 0 0 0 0 0 0 0 0 0 0 0 0 0 0 127 0" result="hardAlpha"/>
<feOffset dy="1.80952"/>
<feGaussianBlur stdDeviation="0.904762"/>
<feColorMatrix type="matrix" values="0 0 0 0 0.105882 0 0 0 0 0.109804 0 0 0 0 0.113725 0 0 0 0.12 0"/>
<feBlend mode="normal" in2="BackgroundImageFix" result="effect1_dropShadow_1086_2164"/>
<feBlend mode="normal" in="SourceGraphic" in2="effect1_dropShadow_1086_2164" result="shape"/>
</filter>
<filter id="filter2_d_1086_2164" x="401.548" y="102.417" width="15.3808" height="15.381" filterUnits="userSpaceOnUse" color-interpolation-filters="sRGB">
<feFlood flood-opacity="0" result="BackgroundImageFix"/>
<feColorMatrix in="SourceAlpha" type="matrix" values="0 0 0 0 0 0 0 0 0 0 0 0 0 0 0 0 0 0 127 0" result="hardAlpha"/>
<feOffset dy="1.80952"/>
<feGaussianBlur stdDeviation="0.904762"/>
<feColorMatrix type="matrix" values="0 0 0 0 0.105882 0 0 0 0 0.109804 0 0 0 0 0.113725 0 0 0 0.12 0"/>
<feBlend mode="normal" in2="BackgroundImageFix" result="effect1_dropShadow_1086_2164"/>
<feBlend mode="normal" in="SourceGraphic" in2="effect1_dropShadow_1086_2164" result="shape"/>
</filter>
<filter id="filter3_d_1086_2164" x="401.548" y="139.231" width="15.3808" height="15.381" filterUnits="userSpaceOnUse" color-interpolation-filters="sRGB">
<feFlood flood-opacity="0" result="BackgroundImageFix"/>
<feColorMatrix in="SourceAlpha" type="matrix" values="0 0 0 0 0 0 0 0 0 0 0 0 0 0 0 0 0 0 127 0" result="hardAlpha"/>
<feOffset dy="1.80952"/>
<feGaussianBlur stdDeviation="0.904762"/>
<feColorMatrix type="matrix" values="0 0 0 0 0.105882 0 0 0 0 0.109804 0 0 0 0 0.113725 0 0 0 0.12 0"/>
<feBlend mode="normal" in2="BackgroundImageFix" result="effect1_dropShadow_1086_2164"/>
<feBlend mode="normal" in="SourceGraphic" in2="effect1_dropShadow_1086_2164" result="shape"/>
</filter>
<filter id="filter4_d_1086_2164" x="401.548" y="176.045" width="15.3808" height="15.381" filterUnits="userSpaceOnUse" color-interpolation-filters="sRGB">
<feFlood flood-opacity="0" result="BackgroundImageFix"/>
<feColorMatrix in="SourceAlpha" type="matrix" values="0 0 0 0 0 0 0 0 0 0 0 0 0 0 0 0 0 0 127 0" result="hardAlpha"/>
<feOffset dy="1.80952"/>
<feGaussianBlur stdDeviation="0.904762"/>
<feColorMatrix type="matrix" values="0 0 0 0 0.105882 0 0 0 0 0.109804 0 0 0 0 0.113725 0 0 0 0.12 0"/>
<feBlend mode="normal" in2="BackgroundImageFix" result="effect1_dropShadow_1086_2164"/>
<feBlend mode="normal" in="SourceGraphic" in2="effect1_dropShadow_1086_2164" result="shape"/>
</filter>
<filter id="filter5_d_1086_2164" x="401.548" y="212.859" width="15.3808" height="15.381" filterUnits="userSpaceOnUse" color-interpolation-filters="sRGB">
<feFlood flood-opacity="0" result="BackgroundImageFix"/>
<feColorMatrix in="SourceAlpha" type="matrix" values="0 0 0 0 0 0 0 0 0 0 0 0 0 0 0 0 0 0 127 0" result="hardAlpha"/>
<feOffset dy="1.80952"/>
<feGaussianBlur stdDeviation="0.904762"/>
<feColorMatrix type="matrix" values="0 0 0 0 0.105882 0 0 0 0 0.109804 0 0 0 0 0.113725 0 0 0 0.12 0"/>
<feBlend mode="normal" in2="BackgroundImageFix" result="effect1_dropShadow_1086_2164"/>
<feBlend mode="normal" in="SourceGraphic" in2="effect1_dropShadow_1086_2164" result="shape"/>
</filter>
<filter id="filter6_d_1086_2164" x="79.7139" y="264.835" width="340.571" height="41.0952" filterUnits="userSpaceOnUse" color-interpolation-filters="sRGB">
<feFlood flood-opacity="0" result="BackgroundImageFix"/>
<feColorMatrix in="SourceAlpha" type="matrix" values="0 0 0 0 0 0 0 0 0 0 0 0 0 0 0 0 0 0 127 0" result="hardAlpha"/>
<feOffset dy="1"/>
<feGaussianBlur stdDeviation="1"/>
<feComposite in2="hardAlpha" operator="out"/>
<feColorMatrix type="matrix" values="0 0 0 0 0.0392157 0 0 0 0 0.0509804 0 0 0 0 0.0784314 0 0 0 0.03 0"/>
<feBlend mode="normal" in2="BackgroundImageFix" result="effect1_dropShadow_1086_2164"/>
<feBlend mode="normal" in="SourceGraphic" in2="effect1_dropShadow_1086_2164" result="shape"/>
</filter>
<linearGradient id="paint0_linear_1086_2164" x1="105.7" y1="325.422" x2="291.324" y2="-47.9631" gradientUnits="userSpaceOnUse">
<stop stop-color="white" stop-opacity="0"/>
<stop offset="1" stop-color="white"/>
</linearGradient>
<radialGradient id="paint1_radial_1086_2164" cx="0" cy="0" r="1" gradientUnits="userSpaceOnUse" gradientTransform="translate(250.241 40.0129) rotate(90.0411) scale(336.203 379.725)">
<stop stop-color="#161616" stop-opacity="0.6"/>
<stop offset="0.740127" stop-color="#161616" stop-opacity="0.946662"/>
<stop offset="1" stop-color="#161616"/>
</radialGradient>
<linearGradient id="paint2_linear_1086_2164" x1="191.618" y1="243.216" x2="191.618" y2="262.216" gradientUnits="userSpaceOnUse">
<stop stop-color="#15B0F8"/>
<stop offset="1" stop-color="#0276DB"/>
</linearGradient>
<linearGradient id="paint3_linear_1086_2164" x1="250" y1="265.835" x2="250" y2="302.93" gradientUnits="userSpaceOnUse">
<stop stop-color="white" stop-opacity="0.2"/>
<stop offset="1" stop-color="white" stop-opacity="0.1"/>
</linearGradient>
<linearGradient id="paint4_linear_1086_2164" x1="250.904" y1="274.883" x2="250.904" y2="293.883" gradientUnits="userSpaceOnUse">
<stop stop-opacity="0.2"/>
<stop offset="1" stop-opacity="0.05"/>
</linearGradient>
<linearGradient id="paint5_linear_1086_2164" x1="250" y1="317.406" x2="250" y2="354.502" gradientUnits="userSpaceOnUse">
<stop stop-color="white" stop-opacity="0.2"/>
<stop offset="1" stop-color="white" stop-opacity="0.1"/>
</linearGradient>
<clipPath id="clip0_1086_2164">
<rect width="500" height="364" fill="white" transform="translate(0 0.769775)"/>
</clipPath>
<clipPath id="clip1_1086_2164">
<rect width="18.0952" height="18.0952" fill="white" transform="translate(400.19 62.4365)"/>
</clipPath>
<clipPath id="clip2_1086_2164">
<rect width="19.9048" height="19.9048" fill="white" transform="translate(81.7139 98.3457)"/>
</clipPath>
<clipPath id="clip3_1086_2164">
<rect width="18.0952" height="18.0952" fill="white" transform="translate(400.19 99.2505)"/>
</clipPath>
<clipPath id="clip4_1086_2164">
<rect width="18.0952" height="18.0952" fill="white" transform="translate(400.19 136.064)"/>
</clipPath>
<clipPath id="clip5_1086_2164">
<rect width="18.0952" height="18.0952" fill="white" transform="translate(400.19 172.878)"/>
</clipPath>
<clipPath id="clip6_1086_2164">
<rect width="18.0952" height="18.0952" fill="white" transform="translate(400.19 209.692)"/>
</clipPath>
</defs>
</svg>
