<svg width="250" height="106" viewBox="0 0 250 106" fill="none" xmlns="http://www.w3.org/2000/svg">
<rect x="123.123" y="0.465088" width="126.012" height="58.4174" rx="3.17519" fill="white" fill-opacity="0.03"/>
<rect x="123.282" y="0.623847" width="125.694" height="58.0999" rx="3.01643" stroke="url(#paint0_linear_705_16659)" stroke-opacity="0.5" stroke-width="0.317519"/>
<path d="M127.755 11.3795C127.755 10.8282 128.2 10.4548 128.862 10.4548C129.475 10.4548 129.871 10.7971 129.907 11.3528H129.466C129.444 11.0327 129.218 10.846 128.857 10.846C128.453 10.846 128.191 11.0505 128.191 11.3661C128.191 11.624 128.337 11.7795 128.64 11.8507L129.169 11.9751C129.693 12.0951 129.96 12.3796 129.96 12.8331C129.96 13.4109 129.511 13.7799 128.826 13.7799C128.173 13.7799 127.737 13.4376 127.711 12.8864H128.155C128.164 13.1931 128.422 13.3887 128.826 13.3887C129.253 13.3887 129.524 13.1887 129.524 12.8686C129.524 12.6152 129.386 12.4552 129.08 12.3841L128.551 12.2641C128.026 12.144 127.755 11.8418 127.755 11.3795ZM130.267 12.6375C130.267 11.9662 130.747 11.495 131.401 11.495C132.05 11.495 132.53 11.9662 132.53 12.6375C132.53 13.3087 132.05 13.7799 131.401 13.7799C130.747 13.7799 130.267 13.3087 130.267 12.6375ZM130.69 12.6375C130.69 13.0909 130.979 13.4065 131.401 13.4065C131.819 13.4065 132.112 13.0909 132.112 12.6375C132.112 12.1841 131.819 11.8684 131.401 11.8684C130.979 11.8684 130.69 12.1841 130.69 12.6375ZM132.824 12.6419C132.824 11.9618 133.255 11.4906 133.89 11.4906C134.437 11.4906 134.819 11.8018 134.895 12.2863H134.477C134.406 12.0107 134.184 11.864 133.904 11.864C133.508 11.864 133.237 12.1663 133.237 12.6375C133.237 13.1042 133.49 13.4065 133.886 13.4065C134.184 13.4065 134.406 13.2509 134.482 12.9931H134.9C134.815 13.4643 134.411 13.7799 133.886 13.7799C133.246 13.7799 132.824 13.3265 132.824 12.6419ZM135.518 11.0372C135.367 11.0372 135.243 10.9127 135.243 10.7616C135.243 10.606 135.367 10.486 135.518 10.486C135.669 10.486 135.794 10.606 135.794 10.7616C135.794 10.9127 135.669 11.0372 135.518 11.0372ZM135.314 13.7266V11.5528H135.732V13.7266H135.314ZM136.947 13.7799C136.48 13.7799 136.205 13.5176 136.205 13.122C136.205 12.7219 136.503 12.473 137.014 12.433L137.698 12.3796V12.3174C137.698 11.9529 137.481 11.824 137.187 11.824C136.836 11.824 136.636 11.9796 136.636 12.2418H136.272C136.272 11.7884 136.645 11.4906 137.205 11.4906C137.743 11.4906 138.107 11.7751 138.107 12.3619V13.7266H137.752L137.707 13.3754C137.596 13.6243 137.298 13.7799 136.947 13.7799ZM137.067 13.4554C137.463 13.4554 137.703 13.1976 137.703 12.7886V12.673L137.147 12.7175C136.778 12.753 136.627 12.8953 136.627 13.1087C136.627 13.3398 136.796 13.4554 137.067 13.4554ZM139.086 13.7266H138.668V10.4548H139.086V13.7266ZM141.828 13.7266L140.606 10.5126H141.072L141.855 12.5663C141.926 12.7486 141.988 12.9309 142.055 13.1709C142.13 12.9175 142.206 12.7042 142.259 12.5619L143.037 10.5126H143.491L142.281 13.7266H141.828ZM143.317 12.6375C143.317 11.9662 143.797 11.495 144.45 11.495C145.099 11.495 145.579 11.9662 145.579 12.6375C145.579 13.3087 145.099 13.7799 144.45 13.7799C143.797 13.7799 143.317 13.3087 143.317 12.6375ZM143.739 12.6375C143.739 13.0909 144.028 13.4065 144.45 13.4065C144.868 13.4065 145.161 13.0909 145.161 12.6375C145.161 12.1841 144.868 11.8684 144.45 11.8684C144.028 11.8684 143.739 12.1841 143.739 12.6375ZM146.442 13.7266H146.024V10.4548H146.442V13.7266ZM148.533 11.5528H148.946V13.7266H148.573L148.528 13.3976C148.404 13.6243 148.115 13.7799 147.795 13.7799C147.288 13.7799 147.004 13.4376 147.004 12.9042V11.5528H147.421V12.7664C147.421 13.2331 147.621 13.4109 147.942 13.4109C148.324 13.4109 148.533 13.1665 148.533 12.6997V11.5528ZM149.944 13.7266H149.526V11.5528H149.899L149.939 11.8373C150.05 11.6328 150.281 11.4906 150.588 11.4906C150.926 11.4906 151.166 11.6595 151.277 11.9307C151.379 11.6595 151.642 11.4906 151.98 11.4906C152.477 11.4906 152.78 11.8018 152.78 12.3041V13.7266H152.371V12.4063C152.371 12.064 152.18 11.8684 151.886 11.8684C151.571 11.8684 151.362 12.0907 151.362 12.4374V13.7266H150.948V12.4019C150.948 12.0596 150.762 11.8729 150.468 11.8729C150.153 11.8729 149.944 12.0907 149.944 12.4374V13.7266ZM154.27 13.7799C153.63 13.7799 153.19 13.3176 153.19 12.6419C153.19 11.9618 153.621 11.4906 154.252 11.4906C154.87 11.4906 155.275 11.9173 155.275 12.5619V12.7175L153.595 12.7219C153.626 13.1798 153.866 13.4332 154.279 13.4332C154.604 13.4332 154.817 13.2998 154.888 13.0509H155.279C155.173 13.5176 154.808 13.7799 154.27 13.7799ZM154.252 11.8418C153.888 11.8418 153.657 12.0596 153.603 12.4419H154.857C154.857 12.0818 154.621 11.8418 154.252 11.8418Z" fill="white"/>
<path d="M128.724 33.1572H128.102V28.5659H128.724V30.5409H130.998V28.5659H131.62V33.1572H130.998V31.1188H128.724V33.1572ZM132.837 29.3152C132.621 29.3152 132.443 29.1374 132.443 28.9215C132.443 28.6993 132.621 28.5278 132.837 28.5278C133.053 28.5278 133.231 28.6993 133.231 28.9215C133.231 29.1374 133.053 29.3152 132.837 29.3152ZM132.545 33.1572V30.0519H133.142V33.1572H132.545ZM133.774 31.5252C133.774 30.6488 134.339 29.963 135.241 29.963C135.742 29.963 136.13 30.1916 136.326 30.579L136.371 30.0519H136.904V33.0302C136.904 34.0082 136.301 34.6305 135.349 34.6305C134.504 34.6305 133.926 34.1542 133.812 33.3668H134.409C134.485 33.824 134.828 34.0907 135.349 34.0907C135.933 34.0907 136.314 33.7097 136.314 33.1191V32.4968C136.111 32.8588 135.704 33.0747 135.215 33.0747C134.332 33.0747 133.774 32.3952 133.774 31.5252ZM134.371 31.5125C134.371 32.0967 134.733 32.5539 135.317 32.5539C135.92 32.5539 136.288 32.1221 136.288 31.5125C136.288 30.9155 135.933 30.4837 135.323 30.4837C134.726 30.4837 134.371 30.9409 134.371 31.5125ZM138.325 33.1509H137.728V28.4833H138.325V30.5282C138.522 30.1916 138.896 29.963 139.379 29.963C140.173 29.963 140.554 30.4647 140.554 31.2585V33.1572H139.957V31.3918C139.957 30.7631 139.658 30.5091 139.214 30.5091C138.636 30.5091 138.325 30.9282 138.325 31.4617V33.1509Z" fill="white"/>
<rect opacity="0.3" x="127.568" y="37.9531" width="102.453" height="3.17519" rx="1.5876" fill="white" fill-opacity="0.1"/>
<rect x="127.568" y="37.9531" width="50.7847" height="3.17519" rx="1.5876" fill="url(#paint1_linear_705_16659)"/>
<rect x="127.61" y="37.9949" width="50.7011" height="3.09159" rx="1.54579" stroke="white" stroke-opacity="0.3" stroke-width="0.0836048"/>
<circle opacity="0.4" cx="180.957" cy="39.4074" r="0.396899" fill="#454459"/>
<circle opacity="0.4" cx="183.497" cy="39.4074" r="0.396899" fill="#454459"/>
<circle opacity="0.4" cx="186.038" cy="39.4074" r="0.396899" fill="#454459"/>
<circle opacity="0.4" cx="188.578" cy="39.4074" r="0.396899" fill="#454459"/>
<circle opacity="0.4" cx="191.118" cy="39.4074" r="0.396899" fill="#454459"/>
<circle opacity="0.4" cx="193.659" cy="39.4074" r="0.396899" fill="#454459"/>
<circle opacity="0.4" cx="196.199" cy="39.4074" r="0.396899" fill="#454459"/>
<circle opacity="0.4" cx="198.739" cy="39.4074" r="0.396899" fill="#454459"/>
<circle opacity="0.4" cx="201.279" cy="39.4074" r="0.396899" fill="#454459"/>
<circle opacity="0.4" cx="203.819" cy="39.4074" r="0.396899" fill="#454459"/>
<circle opacity="0.4" cx="206.359" cy="39.4074" r="0.396899" fill="#454459"/>
<circle opacity="0.4" cx="208.899" cy="39.4074" r="0.396899" fill="#454459"/>
<circle opacity="0.4" cx="211.439" cy="39.4074" r="0.396899" fill="#454459"/>
<circle opacity="0.4" cx="213.98" cy="39.4074" r="0.396899" fill="#454459"/>
<circle cx="176.448" cy="39.5406" r="1.90511" fill="#454459"/>
<path d="M132.331 47.8589V46.6682H131.141" stroke="#3EDC81" stroke-width="0.396899" stroke-linecap="round" stroke-linejoin="round"/>
<path d="M132.332 46.6682L131.141 47.8589C130.931 48.0692 130.826 48.1742 130.697 48.1859C130.675 48.1878 130.654 48.1878 130.633 48.1859C130.504 48.174 130.399 48.0692 130.188 47.8589C129.978 47.6486 129.873 47.5436 129.744 47.5319C129.723 47.53 129.701 47.53 129.68 47.5319C129.551 47.5439 129.446 47.6486 129.236 47.8589L128.521 48.5733" stroke="#3EDC81" stroke-width="0.396899" stroke-linecap="round" stroke-linejoin="round"/>
<path d="M134.909 47.945H135.843V47.0115H136.198V47.945H137.132V48.3006H136.198V49.2386H135.843V48.3006H134.909V47.945ZM139.773 49.6164L137.604 49.6208V49.2875L138.64 48.394C139.16 47.945 139.306 47.7272 139.306 47.3849C139.306 46.9804 139.075 46.7403 138.689 46.7403C138.293 46.7403 138.035 47.0293 138.026 47.4871H137.591C137.604 46.7981 138.039 46.3491 138.693 46.3491C139.338 46.3491 139.751 46.7403 139.751 47.3582C139.751 47.8161 139.524 48.1406 138.955 48.634L138.288 49.2119H139.773V49.6164ZM142.394 48.9718H142.012V49.6208H141.594V48.9718H139.932V48.5851L141.448 46.4069H142.012V48.5851H142.394V48.9718ZM140.403 48.5851H141.594V46.8692L140.403 48.5851ZM144.327 47.1671C144.327 47.6427 143.989 47.985 143.513 47.985C143.042 47.985 142.704 47.6427 142.704 47.1671C142.704 46.687 143.042 46.3447 143.513 46.3447C143.989 46.3447 144.327 46.687 144.327 47.1671ZM146.021 46.4114L143.58 49.6208H143.153L145.594 46.4114H146.021ZM143.985 47.1671C143.985 46.8781 143.793 46.6781 143.513 46.6781C143.238 46.6781 143.047 46.8781 143.047 47.1671C143.047 47.4516 143.238 47.6516 143.513 47.6516C143.789 47.6516 143.985 47.4516 143.985 47.1671ZM146.478 48.8607C146.478 49.3364 146.136 49.6786 145.665 49.6786C145.194 49.6786 144.851 49.3364 144.851 48.8607C144.851 48.3806 145.194 48.0428 145.665 48.0428C146.136 48.0428 146.478 48.3806 146.478 48.8607ZM146.132 48.8607C146.132 48.5718 145.945 48.3717 145.665 48.3717C145.389 48.3717 145.198 48.5718 145.198 48.8607C145.198 49.1452 145.389 49.3452 145.665 49.3452C145.941 49.3452 146.132 49.1452 146.132 48.8607Z" fill="#3EDC81"/>
<g clip-path="url(#clip0_705_16659)">
<rect x="204.473" y="16.7476" width="0.336669" height="5" fill="url(#paint2_linear_705_16659)"/>
<rect x="202.789" y="17.6833" width="4" height="2.80754" fill="url(#paint3_linear_705_16659)"/>
</g>
<g clip-path="url(#clip1_705_16659)">
<rect x="208.72" y="15.1736" width="0.229469" height="7" fill="url(#paint4_linear_705_16659)"/>
<rect x="207.572" y="16.5962" width="3" height="4.26747" fill="url(#paint5_linear_705_16659)"/>
</g>
<g clip-path="url(#clip2_705_16659)">
<rect x="214.037" y="13.0933" width="0.336669" height="10" fill="url(#paint6_linear_705_16659)"/>
<rect x="212.354" y="15.0273" width="4" height="5.80226" fill="url(#paint7_linear_705_16659)"/>
</g>
<g clip-path="url(#clip3_705_16659)">
<rect x="218.819" y="13.5022" width="0.336669" height="6" fill="url(#paint8_linear_705_16659)"/>
<rect x="217.136" y="14.6384" width="4" height="3.40915" fill="url(#paint9_linear_705_16659)"/>
</g>
<g clip-path="url(#clip4_705_16659)">
<rect x="223.602" y="10.4939" width="0.336669" height="9" fill="url(#paint10_linear_705_16659)"/>
<rect x="221.918" y="12.2988" width="4" height="5.41454" fill="url(#paint11_linear_705_16659)"/>
</g>
<g clip-path="url(#clip5_705_16659)">
<rect x="237.42" y="10.4939" width="0.336669" height="8" fill="url(#paint12_linear_705_16659)"/>
<rect x="235.736" y="12.0537" width="4" height="4.67925" fill="url(#paint13_linear_705_16659)"/>
</g>
<g clip-path="url(#clip6_705_16659)">
<rect x="228.384" y="8.72656" width="0.336669" height="14" fill="url(#paint14_linear_705_16659)"/>
<rect x="226.7" y="11.4717" width="4" height="8.23547" fill="url(#paint15_linear_705_16659)"/>
</g>
<g clip-path="url(#clip7_705_16659)">
<rect x="242.198" y="8.72656" width="0.336669" height="14" fill="url(#paint16_linear_705_16659)"/>
<rect x="240.515" y="11.4717" width="4" height="8.23547" fill="url(#paint17_linear_705_16659)"/>
</g>
<g clip-path="url(#clip8_705_16659)">
<rect x="233.168" y="14.3413" width="0.336669" height="6" fill="url(#paint18_linear_705_16659)"/>
<rect x="231.484" y="15.5891" width="4" height="3.7434" fill="url(#paint19_linear_705_16659)"/>
</g>
<rect y="17.7703" width="126.014" height="58.4184" rx="3.17526" fill="#101010"/>
<rect x="0.158763" y="17.929" width="125.697" height="58.1008" rx="3.0165" stroke="url(#paint20_linear_705_16659)" stroke-opacity="0.5" stroke-width="0.317526"/>
<path d="M5.24548 31.032H4.81872V27.818H5.24548L6.35237 30.5208L7.45927 27.818H7.89491V31.032H7.46816V29.7606C7.46816 29.1605 7.4726 28.9427 7.49483 28.7159L6.55686 31.032H6.14789L5.21436 28.7248C5.23659 28.8804 5.24548 29.2094 5.24548 29.6584V31.032ZM9.18119 31.0853C8.71442 31.0853 8.43881 30.8231 8.43881 30.4274C8.43881 30.0273 8.73665 29.7784 9.24787 29.7384L9.93245 29.685V29.6228C9.93245 29.2583 9.71463 29.1294 9.42124 29.1294C9.07005 29.1294 8.87001 29.285 8.87001 29.5472H8.50549C8.50549 29.0938 8.8789 28.796 9.43902 28.796C9.97691 28.796 10.3414 29.0805 10.3414 29.6673V31.032H9.9858L9.94134 30.6808C9.83021 30.9297 9.53237 31.0853 9.18119 31.0853ZM9.30121 30.7608C9.69685 30.7608 9.9369 30.503 9.9369 30.094V29.9784L9.38123 30.0229C9.01226 30.0584 8.86112 30.2007 8.86112 30.4141C8.86112 30.6452 9.03004 30.7608 9.30121 30.7608ZM12.1382 28.8404V29.2227H11.9514C11.5558 29.2227 11.3113 29.4628 11.3113 29.8806V31.032H10.8935V28.8626H11.2846L11.3113 29.1916C11.4002 28.9649 11.618 28.8137 11.9159 28.8137C11.9915 28.8137 12.0537 28.8226 12.1382 28.8404ZM12.9302 31.032H12.5123V27.7602H12.9302V29.8806L13.8948 28.8582H14.4194L13.5881 29.725L14.4149 31.032H13.9348L13.2991 30.0273L12.9302 30.4141V31.032ZM15.5896 31.0853C14.9495 31.0853 14.5094 30.623 14.5094 29.9473C14.5094 29.2672 14.9406 28.796 15.5718 28.796C16.1898 28.796 16.5943 29.2227 16.5943 29.8673V30.0229L14.9139 30.0273C14.9451 30.4852 15.1851 30.7386 15.5985 30.7386C15.923 30.7386 16.1364 30.6052 16.2075 30.3563H16.5987C16.492 30.8231 16.1275 31.0853 15.5896 31.0853ZM15.5718 29.1471C15.2073 29.1471 14.9762 29.365 14.9228 29.7473H16.1764C16.1764 29.3872 15.9408 29.1471 15.5718 29.1471ZM17.6261 31.032H17.2082V29.2094H16.7815V28.8582H17.2082V28.1781H17.6261V28.8582H18.0528V29.2094H17.6261V31.032ZM19.4745 28.6848C19.4745 28.1336 19.919 27.7602 20.5814 27.7602C21.1948 27.7602 21.5905 28.1025 21.626 28.6582H21.1859C21.1637 28.3381 20.937 28.1514 20.5769 28.1514C20.1724 28.1514 19.9101 28.3559 19.9101 28.6715C19.9101 28.9293 20.0568 29.0849 20.3591 29.156L20.8881 29.2805C21.4126 29.4005 21.6794 29.685 21.6794 30.1385C21.6794 30.7164 21.2304 31.0853 20.5458 31.0853C19.8923 31.0853 19.4567 30.743 19.43 30.1918H19.8745C19.8834 30.4985 20.1413 30.6941 20.5458 30.6941C20.9725 30.6941 21.2437 30.4941 21.2437 30.174C21.2437 29.9206 21.1059 29.7606 20.7992 29.6895L20.2702 29.5695C19.7456 29.4494 19.4745 29.1471 19.4745 28.6848ZM23.067 31.0853C22.4268 31.0853 21.9868 30.623 21.9868 29.9473C21.9868 29.2672 22.418 28.796 23.0492 28.796C23.6671 28.796 24.0716 29.2227 24.0716 29.8673V30.0229L22.3913 30.0273C22.4224 30.4852 22.6624 30.7386 23.0759 30.7386C23.4004 30.7386 23.6138 30.6052 23.6849 30.3563H24.0761C23.9694 30.8231 23.6049 31.0853 23.067 31.0853ZM23.0492 29.1471C22.6847 29.1471 22.4535 29.365 22.4002 29.7473H23.6538C23.6538 29.3872 23.4182 29.1471 23.0492 29.1471ZM24.9295 31.032H24.5117V28.8582H24.8895L24.934 29.1916C25.0718 28.9427 25.3474 28.796 25.6541 28.796C26.2276 28.796 26.4899 29.1471 26.4899 29.7028V31.032H26.072V29.7962C26.072 29.3561 25.8675 29.1783 25.5475 29.1783C25.1563 29.1783 24.9295 29.4583 24.9295 29.8806V31.032ZM27.6554 31.032H27.2376V29.2094H26.8108V28.8582H27.2376V28.1781H27.6554V28.8582H28.0822V29.2094H27.6554V31.032ZM28.635 28.3425C28.4839 28.3425 28.3594 28.2181 28.3594 28.0669C28.3594 27.9113 28.4839 27.7913 28.635 27.7913C28.7861 27.7913 28.9106 27.9113 28.9106 28.0669C28.9106 28.2181 28.7861 28.3425 28.635 28.3425ZM28.4305 31.032V28.8582H28.8484V31.032H28.4305ZM29.8462 31.032H29.4284V28.8582H29.8018L29.8418 29.1427C29.9529 28.9382 30.1841 28.796 30.4908 28.796C30.8286 28.796 31.0687 28.9649 31.1798 29.2361C31.2821 28.9649 31.5443 28.796 31.8822 28.796C32.3801 28.796 32.6824 29.1071 32.6824 29.6095V31.032H32.2734V29.7117C32.2734 29.3694 32.0822 29.1738 31.7888 29.1738C31.4732 29.1738 31.2643 29.3961 31.2643 29.7428V31.032H30.8509V29.7073C30.8509 29.365 30.6642 29.1783 30.3708 29.1783C30.0552 29.1783 29.8462 29.3961 29.8462 29.7428V31.032ZM34.1729 31.0853C33.5328 31.0853 33.0927 30.623 33.0927 29.9473C33.0927 29.2672 33.5239 28.796 34.1551 28.796C34.773 28.796 35.1776 29.2227 35.1776 29.8673V30.0229L33.4972 30.0273C33.5283 30.4852 33.7684 30.7386 34.1818 30.7386C34.5063 30.7386 34.7197 30.6052 34.7908 30.3563H35.182C35.0753 30.8231 34.7108 31.0853 34.1729 31.0853ZM34.1551 29.1471C33.7906 29.1471 33.5595 29.365 33.5061 29.7473H34.7597C34.7597 29.3872 34.5241 29.1471 34.1551 29.1471ZM36.0355 31.032H35.6176V28.8582H35.9955L36.0399 29.1916C36.1777 28.9427 36.4534 28.796 36.7601 28.796C37.3335 28.796 37.5958 29.1471 37.5958 29.7028V31.032H37.1779V29.7962C37.1779 29.3561 36.9735 29.1783 36.6534 29.1783C36.2622 29.1783 36.0355 29.4583 36.0355 29.8806V31.032ZM38.7614 31.032H38.3435V29.2094H37.9167V28.8582H38.3435V28.1781H38.7614V28.8582H39.1881V29.2094H38.7614V31.032Z" fill="white"/>
<path d="M4.97876 50.4629V45.8715H6.7315C7.62692 45.8715 8.17307 46.3287 8.17307 47.0844C8.17307 47.6115 7.94445 47.9671 7.48721 48.1577C7.99525 48.3228 8.25562 48.6911 8.25562 49.2372C8.25562 49.9993 7.70313 50.4629 6.795 50.4629H4.97876ZM6.6934 46.424H5.60111V47.8973H6.7315C7.24589 47.8973 7.53801 47.6179 7.53801 47.1416C7.53801 46.6843 7.23319 46.424 6.6934 46.424ZM6.7823 48.4371H5.60111V49.9104H6.7823C7.31575 49.9104 7.61422 49.6373 7.61422 49.161C7.61422 48.7038 7.3094 48.4371 6.7823 48.4371ZM11.0414 47.3575H11.632V50.4629H11.0986L11.0351 49.993C10.8573 50.3168 10.4445 50.5391 9.98723 50.5391C9.26327 50.5391 8.85684 50.0501 8.85684 49.288V47.3575H9.45379V49.0912C9.45379 49.758 9.73956 50.012 10.1968 50.012C10.7429 50.012 11.0414 49.6627 11.0414 48.9959V47.3575ZM13.0697 50.4629H12.4727V45.7889H13.0697V50.4629ZM14.52 50.4629H13.923V45.7889H14.52V50.4629ZM15.6527 46.6208C15.4368 46.6208 15.259 46.443 15.259 46.2271C15.259 46.0048 15.4368 45.8334 15.6527 45.8334C15.8687 45.8334 16.0465 46.0048 16.0465 46.2271C16.0465 46.443 15.8687 46.6208 15.6527 46.6208ZM15.3606 50.4629V47.3575H15.9576V50.4629H15.3606ZM16.5321 49.5611H17.1036C17.1036 49.8786 17.345 50.0692 17.7387 50.0692C18.1578 50.0692 18.3991 49.8977 18.3991 49.6119C18.3991 49.4024 18.2975 49.2753 17.9737 49.1928L17.4275 49.0658C16.875 48.9324 16.6146 48.6593 16.6146 48.2021C16.6146 47.6306 17.0973 47.2686 17.7831 47.2686C18.4626 47.2686 18.9072 47.6496 18.9199 48.2402H18.3483C18.3356 47.929 18.1261 47.7322 17.7641 47.7322C17.3894 47.7322 17.1798 47.8973 17.1798 48.1831C17.1798 48.3926 17.3323 48.5323 17.6371 48.6085L18.1832 48.7419C18.7103 48.8689 18.9707 49.1102 18.9707 49.5738C18.9707 50.1644 18.4626 50.5391 17.726 50.5391C16.9957 50.5391 16.5321 50.1517 16.5321 49.5611ZM20.1915 50.4565H19.5946V45.7889H20.1915V47.8338C20.3884 47.4972 20.7631 47.2686 21.2457 47.2686C22.0395 47.2686 22.4206 47.7703 22.4206 48.5641V50.4629H21.8236V48.6974C21.8236 48.0687 21.5251 47.8147 21.0806 47.8147C20.5027 47.8147 20.1915 48.2339 20.1915 48.7673V50.4565Z" fill="white"/>
<rect opacity="0.3" x="4.44531" y="55.2588" width="102.455" height="3.17526" rx="1.58763" fill="white" fill-opacity="0.1"/>
<rect x="4.44531" y="55.2588" width="50.7858" height="3.17526" rx="1.58763" fill="url(#paint21_linear_705_16659)"/>
<rect x="4.48712" y="55.3006" width="50.7022" height="3.09165" rx="1.54583" stroke="white" stroke-opacity="0.3" stroke-width="0.0836066"/>
<circle opacity="0.4" cx="57.8364" cy="56.7133" r="0.396907" fill="#454459"/>
<circle opacity="0.4" cx="60.3764" cy="56.7133" r="0.396907" fill="#454459"/>
<circle opacity="0.4" cx="62.9164" cy="56.7133" r="0.396907" fill="#454459"/>
<circle opacity="0.4" cx="65.4575" cy="56.7133" r="0.396907" fill="#454459"/>
<circle opacity="0.4" cx="67.9975" cy="56.7133" r="0.396907" fill="#454459"/>
<circle opacity="0.4" cx="70.5375" cy="56.7133" r="0.396907" fill="#454459"/>
<circle opacity="0.4" cx="73.0776" cy="56.7133" r="0.396907" fill="#454459"/>
<circle opacity="0.4" cx="75.6176" cy="56.7133" r="0.396907" fill="#454459"/>
<circle opacity="0.4" cx="78.1576" cy="56.7133" r="0.396907" fill="#454459"/>
<circle opacity="0.4" cx="80.6987" cy="56.7133" r="0.396907" fill="#454459"/>
<circle opacity="0.4" cx="83.2387" cy="56.7133" r="0.396907" fill="#454459"/>
<circle opacity="0.4" cx="85.7787" cy="56.7133" r="0.396907" fill="#454459"/>
<circle opacity="0.4" cx="88.3188" cy="56.7133" r="0.396907" fill="#454459"/>
<circle opacity="0.4" cx="90.8588" cy="56.7133" r="0.396907" fill="#454459"/>
<circle cx="53.3261" cy="56.8463" r="1.90516" fill="#454459"/>
<path d="M9.2083 65.1651V63.9744H8.01758" stroke="#3EDC81" stroke-width="0.396907" stroke-linecap="round" stroke-linejoin="round"/>
<path d="M9.20875 63.9744L8.01803 65.1651C7.80774 65.3754 7.70272 65.4804 7.57389 65.4921C7.55245 65.494 7.53102 65.494 7.50959 65.4921C7.38075 65.4802 7.27573 65.3754 7.06545 65.1651C6.85517 64.9548 6.75015 64.8498 6.62131 64.8381C6.59992 64.8362 6.5784 64.8362 6.55701 64.8381C6.42817 64.85 6.32315 64.9548 6.11287 65.1651L5.39844 65.8795" stroke="#3EDC81" stroke-width="0.396907" stroke-linecap="round" stroke-linejoin="round"/>
<path d="M11.6174 64.5799C11.6174 64.0286 12.0619 63.6552 12.7243 63.6552C13.3377 63.6552 13.7334 63.9975 13.7689 64.5532H13.3288C13.3066 64.2331 13.0799 64.0464 12.7198 64.0464C12.3153 64.0464 12.053 64.2509 12.053 64.5665C12.053 64.8243 12.1997 64.9799 12.502 65.0511L13.031 65.1755C13.5555 65.2956 13.8223 65.5801 13.8223 66.0335C13.8223 66.6114 13.3733 66.9803 12.6887 66.9803C12.0352 66.9803 11.5996 66.6381 11.5729 66.0868H12.0175C12.0263 66.3936 12.2842 66.5892 12.6887 66.5892C13.1155 66.5892 13.3866 66.3891 13.3866 66.069C13.3866 65.8157 13.2488 65.6556 12.9421 65.5845L12.4131 65.4645C11.8885 65.3445 11.6174 65.0422 11.6174 64.5799ZM14.8231 66.927H14.4053V65.1044H13.9785V64.7532H14.4053V64.0731H14.8231V64.7532H15.2499V65.1044H14.8231V66.927ZM16.7807 64.7354V65.1177H16.594C16.1984 65.1177 15.9539 65.3578 15.9539 65.7757V66.927H15.536V64.7577H15.9272L15.9539 65.0866C16.0428 64.8599 16.2606 64.7088 16.5584 64.7088C16.634 64.7088 16.6962 64.7177 16.7807 64.7354ZM16.8633 65.8379C16.8633 65.1666 17.3434 64.6954 17.9969 64.6954C18.6459 64.6954 19.126 65.1666 19.126 65.8379C19.126 66.5091 18.6459 66.9803 17.9969 66.9803C17.3434 66.9803 16.8633 66.5091 16.8633 65.8379ZM17.2856 65.8379C17.2856 66.2913 17.5746 66.6069 17.9969 66.6069C18.4147 66.6069 18.7081 66.2913 18.7081 65.8379C18.7081 65.3845 18.4147 65.0688 17.9969 65.0688C17.5746 65.0688 17.2856 65.3845 17.2856 65.8379ZM19.9175 66.927H19.4997V64.7532H19.8775L19.922 65.0866C20.0598 64.8377 20.3354 64.691 20.6421 64.691C21.2156 64.691 21.4778 65.0422 21.4778 65.5978V66.927H21.06V65.6912C21.06 65.2511 20.8555 65.0733 20.5354 65.0733C20.1442 65.0733 19.9175 65.3533 19.9175 65.7757V66.927ZM21.8299 65.7845C21.8299 65.1711 22.2255 64.691 22.8568 64.691C23.208 64.691 23.4791 64.851 23.6169 65.1222L23.648 64.7532H24.0215V66.8381C24.0215 67.5227 23.5992 67.9583 22.9323 67.9583C22.3411 67.9583 21.9366 67.6249 21.8566 67.0737H22.2744C22.3278 67.3938 22.5678 67.5805 22.9323 67.5805C23.3413 67.5805 23.608 67.3137 23.608 66.9003V66.4647C23.4658 66.7181 23.1813 66.8692 22.839 66.8692C22.2211 66.8692 21.8299 66.3936 21.8299 65.7845ZM22.2478 65.7757C22.2478 66.1846 22.5011 66.5047 22.9101 66.5047C23.3324 66.5047 23.5903 66.2024 23.5903 65.7757C23.5903 65.3578 23.3413 65.0555 22.9146 65.0555C22.4967 65.0555 22.2478 65.3756 22.2478 65.7757Z" fill="#3EDC81"/>
<g clip-path="url(#clip9_705_16659)">
<rect x="80.8145" y="34.053" width="0.229474" height="4" fill="url(#paint22_linear_705_16659)"/>
<rect x="79.667" y="34.9421" width="3" height="2.66722" fill="url(#paint23_linear_705_16659)"/>
</g>
<g clip-path="url(#clip10_705_16659)">
<rect x="85.5996" y="32.4792" width="0.229474" height="7" fill="url(#paint24_linear_705_16659)"/>
<rect x="84.4521" y="33.9019" width="3" height="4.26756" fill="url(#paint25_linear_705_16659)"/>
</g>
<g clip-path="url(#clip11_705_16659)">
<rect x="90.3789" y="30.3994" width="0.229474" height="9" fill="url(#paint26_linear_705_16659)"/>
<rect x="89.2314" y="32.2368" width="3" height="5.51227" fill="url(#paint27_linear_705_16659)"/>
</g>
<g clip-path="url(#clip12_705_16659)">
<rect x="95.1621" y="30.8076" width="0.229474" height="5" fill="url(#paint28_linear_705_16659)"/>
<rect x="94.0146" y="31.8872" width="3" height="3.23877" fill="url(#paint29_linear_705_16659)"/>
</g>
<g clip-path="url(#clip13_705_16659)">
<rect x="99.9463" y="27.7993" width="0.229474" height="9" fill="url(#paint30_linear_705_16659)"/>
<rect x="98.7988" y="29.5139" width="3" height="5.14392" fill="url(#paint31_linear_705_16659)"/>
</g>
<g clip-path="url(#clip14_705_16659)">
<rect x="113.764" y="27.7993" width="0.229474" height="7" fill="url(#paint32_linear_705_16659)"/>
<rect x="112.616" y="29.281" width="3" height="4.44538" fill="url(#paint33_linear_705_16659)"/>
</g>
<g clip-path="url(#clip15_705_16659)">
<rect x="104.729" y="26.032" width="0.229474" height="13" fill="url(#paint34_linear_705_16659)"/>
<rect x="103.582" y="28.6399" width="3" height="7.82387" fill="url(#paint35_linear_705_16659)"/>
</g>
<g clip-path="url(#clip16_705_16659)">
<rect x="118.543" y="26.032" width="0.229474" height="13" fill="url(#paint36_linear_705_16659)"/>
<rect x="117.396" y="28.6399" width="3" height="7.82387" fill="url(#paint37_linear_705_16659)"/>
</g>
<g clip-path="url(#clip17_705_16659)">
<rect x="109.512" y="31.647" width="0.229474" height="6" fill="url(#paint38_linear_705_16659)"/>
<rect x="108.364" y="32.8323" width="3" height="3.5563" fill="url(#paint39_linear_705_16659)"/>
</g>
<rect x="101.164" y="47.2993" width="126.012" height="58.4174" rx="3.17519" fill="#101010"/>
<rect x="101.323" y="47.4581" width="125.694" height="58.0999" rx="3.01643" stroke="url(#paint40_linear_705_16659)" stroke-opacity="0.5" stroke-width="0.317519"/>
<path d="M107.681 59.1961H106.418V60.5608H105.983V57.3469H107.921V57.7469H106.418V58.8005H107.681V59.1961ZM109.119 60.6141C108.479 60.6141 108.039 60.1518 108.039 59.4761C108.039 58.796 108.47 58.3248 109.102 58.3248C109.719 58.3248 110.124 58.7516 110.124 59.3961V59.5517L108.444 59.5562C108.475 60.014 108.715 60.2674 109.128 60.2674C109.453 60.2674 109.666 60.134 109.737 59.8851H110.128C110.022 60.3519 109.657 60.6141 109.119 60.6141ZM109.102 58.676C108.737 58.676 108.506 58.8938 108.453 59.2761H109.706C109.706 58.916 109.471 58.676 109.102 58.676ZM111.178 60.6141C110.711 60.6141 110.436 60.3519 110.436 59.9562C110.436 59.5562 110.733 59.3072 111.245 59.2672L111.929 59.2139V59.1516C111.929 58.7871 111.711 58.6582 111.418 58.6582C111.067 58.6582 110.867 58.8138 110.867 59.0761H110.502C110.502 58.6227 110.876 58.3248 111.436 58.3248C111.974 58.3248 112.338 58.6093 112.338 59.1961V60.5608H111.983L111.938 60.2096C111.827 60.4585 111.529 60.6141 111.178 60.6141ZM111.298 60.2896C111.694 60.2896 111.934 60.0318 111.934 59.6228V59.5073L111.378 59.5517C111.009 59.5873 110.858 59.7295 110.858 59.9429C110.858 60.1741 111.027 60.2896 111.298 60.2896ZM114.135 58.3693V58.7516H113.948C113.553 58.7516 113.308 58.9916 113.308 59.4095V60.5608H112.89V58.3915H113.281L113.308 58.7205C113.397 58.4937 113.615 58.3426 113.913 58.3426C113.988 58.3426 114.05 58.3515 114.135 58.3693ZM117.848 60.5608L117.595 60.2718C117.346 60.4941 117.004 60.6186 116.599 60.6186C115.91 60.6186 115.457 60.263 115.457 59.7251C115.457 59.3295 115.71 59.0138 116.243 58.7382C115.968 58.4226 115.866 58.227 115.866 57.987C115.866 57.5825 116.181 57.2935 116.635 57.2935C117.075 57.2935 117.377 57.5647 117.377 57.9603C117.377 58.2804 117.212 58.5293 116.799 58.8094L117.568 59.6851C117.639 59.5117 117.679 59.2983 117.679 59.0583H118.084C118.084 59.4228 117.995 59.7429 117.839 59.9918L118.337 60.5608H117.848ZM116.261 57.9825C116.261 58.1515 116.337 58.2848 116.586 58.5693C116.857 58.4048 116.986 58.2092 116.986 57.9692C116.986 57.7603 116.852 57.6314 116.63 57.6314C116.403 57.6314 116.261 57.7692 116.261 57.9825ZM115.892 59.694C115.892 60.0451 116.172 60.2585 116.639 60.2585C116.937 60.2585 117.177 60.1696 117.355 59.9962L116.452 58.9738C116.052 59.1961 115.892 59.405 115.892 59.694ZM121.131 57.7025C120.437 57.7025 120.019 58.2137 120.019 58.9738C120.019 59.7518 120.473 60.2007 121.135 60.2007C121.682 60.2007 122.122 59.9207 122.122 59.2717V59.1783H121.046V58.7916H122.531V60.5652H122.166L122.135 60.1296C121.962 60.4097 121.571 60.6141 121.1 60.6141C120.188 60.6141 119.562 59.9562 119.562 58.9649C119.562 57.987 120.193 57.2935 121.14 57.2935C121.842 57.2935 122.389 57.698 122.495 58.3159H122.033C121.913 57.907 121.557 57.7025 121.131 57.7025ZM123.992 60.6141C123.352 60.6141 122.912 60.1518 122.912 59.4761C122.912 58.796 123.343 58.3248 123.974 58.3248C124.592 58.3248 124.997 58.7516 124.997 59.3961V59.5517L123.316 59.5562C123.347 60.014 123.587 60.2674 124.001 60.2674C124.325 60.2674 124.539 60.134 124.61 59.8851H125.001C124.894 60.3519 124.53 60.6141 123.992 60.6141ZM123.974 58.676C123.61 58.676 123.378 58.8938 123.325 59.2761H124.579C124.579 58.916 124.343 58.676 123.974 58.676ZM126.051 60.6141C125.584 60.6141 125.308 60.3519 125.308 59.9562C125.308 59.5562 125.606 59.3072 126.117 59.2672L126.802 59.2139V59.1516C126.802 58.7871 126.584 58.6582 126.291 58.6582C125.939 58.6582 125.739 58.8138 125.739 59.0761H125.375C125.375 58.6227 125.748 58.3248 126.308 58.3248C126.846 58.3248 127.211 58.6093 127.211 59.1961V60.5608H126.855L126.811 60.2096C126.7 60.4585 126.402 60.6141 126.051 60.6141ZM126.171 60.2896C126.566 60.2896 126.806 60.0318 126.806 59.6228V59.5073L126.251 59.5517C125.882 59.5873 125.73 59.7295 125.73 59.9429C125.73 60.1741 125.899 60.2896 126.171 60.2896ZM129.007 58.3693V58.7516H128.821C128.425 58.7516 128.181 58.9916 128.181 59.4095V60.5608H127.763V58.3915H128.154L128.181 58.7205C128.27 58.4937 128.487 58.3426 128.785 58.3426C128.861 58.3426 128.923 58.3515 129.007 58.3693Z" fill="white"/>
<path d="M106.143 79.9915V75.4001H107.896C108.791 75.4001 109.337 75.8574 109.337 76.6131C109.337 77.1401 109.108 77.4958 108.651 77.6863C109.159 77.8514 109.42 78.2197 109.42 78.7658C109.42 79.5279 108.867 79.9915 107.959 79.9915H106.143ZM107.857 75.9526H106.765V77.4259H107.896C108.41 77.4259 108.702 77.1465 108.702 76.6702C108.702 76.213 108.397 75.9526 107.857 75.9526ZM107.946 77.9657H106.765V79.439H107.946C108.48 79.439 108.778 79.1659 108.778 78.6896C108.778 78.2324 108.473 77.9657 107.946 77.9657ZM112.205 76.8861H112.796V79.9915H112.262L112.199 79.5215C112.021 79.8454 111.608 80.0677 111.151 80.0677C110.427 80.0677 110.021 79.5787 110.021 78.8166V76.8861H110.618V78.6198C110.618 79.2866 110.904 79.5406 111.361 79.5406C111.907 79.5406 112.205 79.1913 112.205 78.5245V76.8861ZM114.234 79.9915H113.637V75.3176H114.234V79.9915ZM115.684 79.9915H115.087V75.3176H115.684V79.9915ZM116.817 76.1495C116.601 76.1495 116.423 75.9717 116.423 75.7558C116.423 75.5335 116.601 75.362 116.817 75.362C117.032 75.362 117.21 75.5335 117.21 75.7558C117.21 75.9717 117.032 76.1495 116.817 76.1495ZM116.524 79.9915V76.8861H117.121V79.9915H116.524ZM117.696 79.0897H118.267C118.267 79.4072 118.509 79.5977 118.902 79.5977C119.322 79.5977 119.563 79.4263 119.563 79.1405C119.563 78.9309 119.461 78.8039 119.137 78.7214L118.591 78.5944C118.039 78.461 117.778 78.1879 117.778 77.7307C117.778 77.1592 118.261 76.7972 118.947 76.7972C119.626 76.7972 120.071 77.1782 120.084 77.7688H119.512C119.499 77.4577 119.29 77.2608 118.928 77.2608C118.553 77.2608 118.344 77.4259 118.344 77.7117C118.344 77.9212 118.496 78.0609 118.801 78.1371L119.347 78.2705C119.874 78.3975 120.134 78.6388 120.134 79.1024C120.134 79.693 119.626 80.0677 118.89 80.0677C118.159 80.0677 117.696 79.6803 117.696 79.0897ZM121.355 79.9851H120.758V75.3176H121.355V77.3624C121.552 77.0258 121.927 76.7972 122.409 76.7972C123.203 76.7972 123.584 77.2989 123.584 78.0927V79.9915H122.987V78.226C122.987 77.5974 122.689 77.3433 122.244 77.3433C121.666 77.3433 121.355 77.7625 121.355 78.2959V79.9851Z" fill="white"/>
<rect opacity="0.3" x="105.609" y="84.7874" width="102.453" height="3.17519" rx="1.5876" fill="white" fill-opacity="0.1"/>
<rect x="105.609" y="84.7874" width="50.7847" height="3.17519" rx="1.5876" fill="url(#paint41_linear_705_16659)"/>
<rect x="105.651" y="84.8292" width="50.7011" height="3.09159" rx="1.54579" stroke="white" stroke-opacity="0.3" stroke-width="0.0836048"/>
<circle opacity="0.4" cx="158.998" cy="86.2416" r="0.396899" fill="#454459"/>
<circle opacity="0.4" cx="161.538" cy="86.2416" r="0.396899" fill="#454459"/>
<circle opacity="0.4" cx="164.079" cy="86.2416" r="0.396899" fill="#454459"/>
<circle opacity="0.4" cx="166.619" cy="86.2416" r="0.396899" fill="#454459"/>
<circle opacity="0.4" cx="169.159" cy="86.2416" r="0.396899" fill="#454459"/>
<circle opacity="0.4" cx="171.699" cy="86.2416" r="0.396899" fill="#454459"/>
<circle opacity="0.4" cx="174.24" cy="86.2416" r="0.396899" fill="#454459"/>
<circle opacity="0.4" cx="176.78" cy="86.2416" r="0.396899" fill="#454459"/>
<circle opacity="0.4" cx="179.32" cy="86.2416" r="0.396899" fill="#454459"/>
<circle opacity="0.4" cx="181.86" cy="86.2416" r="0.396899" fill="#454459"/>
<circle opacity="0.4" cx="184.4" cy="86.2416" r="0.396899" fill="#454459"/>
<circle opacity="0.4" cx="186.94" cy="86.2416" r="0.396899" fill="#454459"/>
<circle opacity="0.4" cx="189.48" cy="86.2416" r="0.396899" fill="#454459"/>
<circle opacity="0.4" cx="192.021" cy="86.2416" r="0.396899" fill="#454459"/>
<circle cx="154.489" cy="86.3746" r="1.90511" fill="#454459"/>
<circle cx="108.466" cy="95.8839" r="0.714418" stroke="url(#paint42_linear_705_16659)" stroke-width="0.357209"/>
<path d="M108.467 95.1669L109.232 94.2202" stroke="url(#paint43_linear_705_16659)" stroke-width="0.357209" stroke-linecap="round"/>
<path d="M110.848 94.6932C110.848 93.378 109.782 92.3118 108.466 92.3118C107.151 92.3118 106.085 93.378 106.085 94.6932" stroke="url(#paint44_linear_705_16659)" stroke-width="0.357209" stroke-linecap="round"/>
<path d="M114.346 93.5965C113.653 93.5965 113.235 94.1077 113.235 94.8679C113.235 95.6458 113.688 96.0948 114.351 96.0948C114.897 96.0948 115.337 95.8147 115.337 95.1657V95.0724H114.262V94.6856H115.746V96.4593H115.382L115.351 96.0236C115.177 96.3037 114.786 96.5082 114.315 96.5082C113.404 96.5082 112.777 95.8503 112.777 94.859C112.777 93.881 113.408 93.1876 114.355 93.1876C115.057 93.1876 115.604 93.5921 115.711 94.21H115.249C115.129 93.801 114.773 93.5965 114.346 93.5965ZM117.452 94.2633V94.6456H117.265C116.87 94.6456 116.625 94.8857 116.625 95.3035V96.4548H116.207V94.2855H116.598L116.625 94.6145C116.714 94.3878 116.932 94.2366 117.23 94.2366C117.305 94.2366 117.367 94.2455 117.452 94.2633ZM118.615 96.5082C117.975 96.5082 117.534 96.0459 117.534 95.3702C117.534 94.6901 117.966 94.2189 118.597 94.2189C119.215 94.2189 119.619 94.6456 119.619 95.2902V95.4458L117.939 95.4502C117.97 95.9081 118.21 96.1614 118.624 96.1614C118.948 96.1614 119.161 96.0281 119.233 95.7792H119.624C119.517 96.2459 119.153 96.5082 118.615 96.5082ZM118.597 94.57C118.232 94.57 118.001 94.7879 117.948 95.1702H119.201C119.201 94.8101 118.966 94.57 118.597 94.57ZM120.935 96.5082C120.295 96.5082 119.855 96.0459 119.855 95.3702C119.855 94.6901 120.286 94.2189 120.917 94.2189C121.535 94.2189 121.94 94.6456 121.94 95.2902V95.4458L120.259 95.4502C120.29 95.9081 120.531 96.1614 120.944 96.1614C121.268 96.1614 121.482 96.0281 121.553 95.7792H121.944C121.837 96.2459 121.473 96.5082 120.935 96.5082ZM120.917 94.57C120.553 94.57 120.322 94.7879 120.268 95.1702H121.522C121.522 94.8101 121.286 94.57 120.917 94.57ZM123.189 96.5082C122.558 96.5082 122.175 96.037 122.175 95.3746C122.175 94.7078 122.562 94.2189 123.207 94.2189C123.54 94.2189 123.82 94.3656 123.967 94.6323V93.1831H124.38V96.4548H124.007L123.971 96.0592C123.829 96.357 123.535 96.5082 123.189 96.5082ZM123.273 96.1303C123.7 96.1303 123.962 95.8147 123.962 95.3613C123.962 94.9168 123.7 94.5967 123.273 94.5967C122.846 94.5967 122.598 94.9168 122.598 95.3613C122.598 95.8103 122.846 96.1303 123.273 96.1303Z" fill="url(#paint45_linear_705_16659)"/>
<g clip-path="url(#clip18_705_16659)">
<rect x="182.514" y="63.582" width="0.336669" height="5" fill="url(#paint46_linear_705_16659)"/>
<rect x="180.83" y="64.5178" width="4" height="2.80754" fill="url(#paint47_linear_705_16659)"/>
</g>
<g clip-path="url(#clip19_705_16659)">
<rect x="187.295" y="62.0081" width="0.336669" height="7" fill="url(#paint48_linear_705_16659)"/>
<rect x="185.611" y="63.5054" width="4" height="4.49207" fill="url(#paint49_linear_705_16659)"/>
</g>
<g clip-path="url(#clip20_705_16659)">
<rect x="191.542" y="59.9277" width="0.229469" height="9" fill="url(#paint50_linear_705_16659)"/>
<rect x="190.395" y="61.7651" width="3" height="5.51215" fill="url(#paint51_linear_705_16659)"/>
</g>
<g clip-path="url(#clip21_705_16659)">
<rect x="196.861" y="60.3364" width="0.336669" height="6" fill="url(#paint52_linear_705_16659)"/>
<rect x="195.178" y="61.4727" width="4" height="3.40915" fill="url(#paint53_linear_705_16659)"/>
</g>
<g clip-path="url(#clip22_705_16659)">
<rect x="201.643" y="57.3276" width="0.336669" height="9" fill="url(#paint54_linear_705_16659)"/>
<rect x="199.959" y="59.1326" width="4" height="5.41454" fill="url(#paint55_linear_705_16659)"/>
</g>
<g clip-path="url(#clip23_705_16659)">
<rect x="215.46" y="57.3276" width="0.336669" height="8" fill="url(#paint56_linear_705_16659)"/>
<rect x="213.776" y="58.8875" width="4" height="4.67925" fill="url(#paint57_linear_705_16659)"/>
</g>
<g clip-path="url(#clip24_705_16659)">
<rect x="206.426" y="55.5608" width="0.336669" height="14" fill="url(#paint58_linear_705_16659)"/>
<rect x="204.742" y="58.3059" width="4" height="8.23547" fill="url(#paint59_linear_705_16659)"/>
</g>
<g clip-path="url(#clip25_705_16659)">
<rect x="220.241" y="55.5608" width="0.336669" height="14" fill="url(#paint60_linear_705_16659)"/>
<rect x="218.558" y="58.3059" width="4" height="8.23547" fill="url(#paint61_linear_705_16659)"/>
</g>
<g clip-path="url(#clip26_705_16659)">
<rect x="211.211" y="61.1758" width="0.336669" height="6" fill="url(#paint62_linear_705_16659)"/>
<rect x="209.527" y="62.4236" width="4" height="3.7434" fill="url(#paint63_linear_705_16659)"/>
</g>
<defs>
<linearGradient id="paint0_linear_705_16659" x1="138.278" y1="50.0631" x2="145.548" y2="-0.656221" gradientUnits="userSpaceOnUse">
<stop stop-color="#0276DB"/>
<stop offset="1" stop-color="#3EDC81"/>
</linearGradient>
<linearGradient id="paint1_linear_705_16659" x1="121.115" y1="41.1945" x2="122.047" y2="34.1764" gradientUnits="userSpaceOnUse">
<stop stop-color="#0276DB"/>
<stop offset="1" stop-color="#3EDC81"/>
</linearGradient>
<linearGradient id="paint2_linear_705_16659" x1="204.513" y1="20.9927" x2="205.434" y2="20.7921" gradientUnits="userSpaceOnUse">
<stop stop-color="#0276DB"/>
<stop offset="1" stop-color="#3EDC81"/>
</linearGradient>
<linearGradient id="paint3_linear_705_16659" x1="203.27" y1="20.067" x2="203.786" y2="17.6913" gradientUnits="userSpaceOnUse">
<stop stop-color="#0276DB"/>
<stop offset="1" stop-color="#3EDC81"/>
</linearGradient>
<linearGradient id="paint4_linear_705_16659" x1="208.747" y1="21.1168" x2="209.398" y2="21.0478" gradientUnits="userSpaceOnUse">
<stop stop-color="#0276DB"/>
<stop offset="1" stop-color="#3EDC81"/>
</linearGradient>
<linearGradient id="paint5_linear_705_16659" x1="207.933" y1="20.2194" x2="209.327" y2="17.0511" gradientUnits="userSpaceOnUse">
<stop stop-color="#0276DB"/>
<stop offset="1" stop-color="#3EDC81"/>
</linearGradient>
<linearGradient id="paint6_linear_705_16659" x1="214.078" y1="21.5835" x2="215.031" y2="21.4797" gradientUnits="userSpaceOnUse">
<stop stop-color="#0276DB"/>
<stop offset="1" stop-color="#3EDC81"/>
</linearGradient>
<linearGradient id="paint7_linear_705_16659" x1="212.835" y1="19.9536" x2="214.754" y2="15.6735" gradientUnits="userSpaceOnUse">
<stop stop-color="#0276DB"/>
<stop offset="1" stop-color="#3EDC81"/>
</linearGradient>
<linearGradient id="paint8_linear_705_16659" x1="218.86" y1="18.5964" x2="219.794" y2="18.4269" gradientUnits="userSpaceOnUse">
<stop stop-color="#0276DB"/>
<stop offset="1" stop-color="#3EDC81"/>
</linearGradient>
<linearGradient id="paint9_linear_705_16659" x1="217.617" y1="17.5329" x2="218.361" y2="14.7083" gradientUnits="userSpaceOnUse">
<stop stop-color="#0276DB"/>
<stop offset="1" stop-color="#3EDC81"/>
</linearGradient>
<linearGradient id="paint10_linear_705_16659" x1="223.642" y1="18.1351" x2="224.593" y2="18.0201" gradientUnits="userSpaceOnUse">
<stop stop-color="#0276DB"/>
<stop offset="1" stop-color="#3EDC81"/>
</linearGradient>
<linearGradient id="paint11_linear_705_16659" x1="222.399" y1="16.8959" x2="224.108" y2="12.8135" gradientUnits="userSpaceOnUse">
<stop stop-color="#0276DB"/>
<stop offset="1" stop-color="#3EDC81"/>
</linearGradient>
<linearGradient id="paint12_linear_705_16659" x1="237.46" y1="17.2861" x2="238.408" y2="17.1572" gradientUnits="userSpaceOnUse">
<stop stop-color="#0276DB"/>
<stop offset="1" stop-color="#3EDC81"/>
</linearGradient>
<linearGradient id="paint13_linear_705_16659" x1="236.217" y1="16.0265" x2="237.544" y2="12.3601" gradientUnits="userSpaceOnUse">
<stop stop-color="#0276DB"/>
<stop offset="1" stop-color="#3EDC81"/>
</linearGradient>
<linearGradient id="paint14_linear_705_16659" x1="228.424" y1="20.613" x2="229.383" y2="20.5384" gradientUnits="userSpaceOnUse">
<stop stop-color="#0276DB"/>
<stop offset="1" stop-color="#3EDC81"/>
</linearGradient>
<linearGradient id="paint15_linear_705_16659" x1="227.181" y1="18.4638" x2="230.487" y2="13.2711" gradientUnits="userSpaceOnUse">
<stop stop-color="#0276DB"/>
<stop offset="1" stop-color="#3EDC81"/>
</linearGradient>
<linearGradient id="paint16_linear_705_16659" x1="242.239" y1="20.613" x2="243.198" y2="20.5384" gradientUnits="userSpaceOnUse">
<stop stop-color="#0276DB"/>
<stop offset="1" stop-color="#3EDC81"/>
</linearGradient>
<linearGradient id="paint17_linear_705_16659" x1="240.996" y1="18.4638" x2="244.301" y2="13.2711" gradientUnits="userSpaceOnUse">
<stop stop-color="#0276DB"/>
<stop offset="1" stop-color="#3EDC81"/>
</linearGradient>
<linearGradient id="paint18_linear_705_16659" x1="233.208" y1="19.4355" x2="234.142" y2="19.266" gradientUnits="userSpaceOnUse">
<stop stop-color="#0276DB"/>
<stop offset="1" stop-color="#3EDC81"/>
</linearGradient>
<linearGradient id="paint19_linear_705_16659" x1="231.965" y1="18.7674" x2="232.851" y2="15.7068" gradientUnits="userSpaceOnUse">
<stop stop-color="#0276DB"/>
<stop offset="1" stop-color="#3EDC81"/>
</linearGradient>
<linearGradient id="paint20_linear_705_16659" x1="15.1549" y1="67.3691" x2="22.4252" y2="16.6489" gradientUnits="userSpaceOnUse">
<stop stop-color="#0276DB"/>
<stop offset="1" stop-color="#3EDC81"/>
</linearGradient>
<linearGradient id="paint21_linear_705_16659" x1="-2.00863" y1="58.5002" x2="-1.07582" y2="51.4819" gradientUnits="userSpaceOnUse">
<stop stop-color="#0276DB"/>
<stop offset="1" stop-color="#3EDC81"/>
</linearGradient>
<linearGradient id="paint22_linear_705_16659" x1="80.8421" y1="37.4491" x2="81.4778" y2="37.3311" gradientUnits="userSpaceOnUse">
<stop stop-color="#0276DB"/>
<stop offset="1" stop-color="#3EDC81"/>
</linearGradient>
<linearGradient id="paint23_linear_705_16659" x1="80.0278" y1="37.2067" x2="80.6318" y2="35.0094" gradientUnits="userSpaceOnUse">
<stop stop-color="#0276DB"/>
<stop offset="1" stop-color="#3EDC81"/>
</linearGradient>
<linearGradient id="paint24_linear_705_16659" x1="85.6272" y1="38.4224" x2="86.2775" y2="38.3535" gradientUnits="userSpaceOnUse">
<stop stop-color="#0276DB"/>
<stop offset="1" stop-color="#3EDC81"/>
</linearGradient>
<linearGradient id="paint25_linear_705_16659" x1="84.8129" y1="37.5251" x2="86.2065" y2="34.3568" gradientUnits="userSpaceOnUse">
<stop stop-color="#0276DB"/>
<stop offset="1" stop-color="#3EDC81"/>
</linearGradient>
<linearGradient id="paint26_linear_705_16659" x1="90.4065" y1="38.0407" x2="91.0596" y2="37.9868" gradientUnits="userSpaceOnUse">
<stop stop-color="#0276DB"/>
<stop offset="1" stop-color="#3EDC81"/>
</linearGradient>
<linearGradient id="paint27_linear_705_16659" x1="89.5922" y1="36.9169" x2="91.69" y2="33.2245" gradientUnits="userSpaceOnUse">
<stop stop-color="#0276DB"/>
<stop offset="1" stop-color="#3EDC81"/>
</linearGradient>
<linearGradient id="paint28_linear_705_16659" x1="95.1897" y1="35.0528" x2="95.8331" y2="34.9573" gradientUnits="userSpaceOnUse">
<stop stop-color="#0276DB"/>
<stop offset="1" stop-color="#3EDC81"/>
</linearGradient>
<linearGradient id="paint29_linear_705_16659" x1="94.3754" y1="34.637" x2="95.2374" y2="32.055" gradientUnits="userSpaceOnUse">
<stop stop-color="#0276DB"/>
<stop offset="1" stop-color="#3EDC81"/>
</linearGradient>
<linearGradient id="paint30_linear_705_16659" x1="99.9739" y1="35.4406" x2="100.627" y2="35.3867" gradientUnits="userSpaceOnUse">
<stop stop-color="#0276DB"/>
<stop offset="1" stop-color="#3EDC81"/>
</linearGradient>
<linearGradient id="paint31_linear_705_16659" x1="99.1596" y1="33.8812" x2="101.046" y2="30.3235" gradientUnits="userSpaceOnUse">
<stop stop-color="#0276DB"/>
<stop offset="1" stop-color="#3EDC81"/>
</linearGradient>
<linearGradient id="paint32_linear_705_16659" x1="113.791" y1="33.7425" x2="114.442" y2="33.6736" gradientUnits="userSpaceOnUse">
<stop stop-color="#0276DB"/>
<stop offset="1" stop-color="#3EDC81"/>
</linearGradient>
<linearGradient id="paint33_linear_705_16659" x1="112.977" y1="33.0553" x2="114.469" y2="29.7998" gradientUnits="userSpaceOnUse">
<stop stop-color="#0276DB"/>
<stop offset="1" stop-color="#3EDC81"/>
</linearGradient>
<linearGradient id="paint34_linear_705_16659" x1="104.757" y1="37.0693" x2="105.413" y2="37.0319" gradientUnits="userSpaceOnUse">
<stop stop-color="#0276DB"/>
<stop offset="1" stop-color="#3EDC81"/>
</linearGradient>
<linearGradient id="paint35_linear_705_16659" x1="103.943" y1="35.2826" x2="107.33" y2="31.0818" gradientUnits="userSpaceOnUse">
<stop stop-color="#0276DB"/>
<stop offset="1" stop-color="#3EDC81"/>
</linearGradient>
<linearGradient id="paint36_linear_705_16659" x1="118.571" y1="37.0693" x2="119.226" y2="37.0319" gradientUnits="userSpaceOnUse">
<stop stop-color="#0276DB"/>
<stop offset="1" stop-color="#3EDC81"/>
</linearGradient>
<linearGradient id="paint37_linear_705_16659" x1="117.756" y1="35.2826" x2="121.144" y2="31.0818" gradientUnits="userSpaceOnUse">
<stop stop-color="#0276DB"/>
<stop offset="1" stop-color="#3EDC81"/>
</linearGradient>
<linearGradient id="paint38_linear_705_16659" x1="109.539" y1="36.7411" x2="110.187" y2="36.661" gradientUnits="userSpaceOnUse">
<stop stop-color="#0276DB"/>
<stop offset="1" stop-color="#3EDC81"/>
</linearGradient>
<linearGradient id="paint39_linear_705_16659" x1="108.725" y1="35.8517" x2="109.743" y2="33.0738" gradientUnits="userSpaceOnUse">
<stop stop-color="#0276DB"/>
<stop offset="1" stop-color="#3EDC81"/>
</linearGradient>
<linearGradient id="paint40_linear_705_16659" x1="116.319" y1="96.8973" x2="123.589" y2="46.178" gradientUnits="userSpaceOnUse">
<stop stop-color="#0276DB"/>
<stop offset="1" stop-color="#3EDC81"/>
</linearGradient>
<linearGradient id="paint41_linear_705_16659" x1="99.1556" y1="88.0287" x2="100.088" y2="81.0106" gradientUnits="userSpaceOnUse">
<stop stop-color="#0276DB"/>
<stop offset="1" stop-color="#3EDC81"/>
</linearGradient>
<linearGradient id="paint42_linear_705_16659" x1="108.466" y1="95.1694" x2="108.466" y2="96.5983" gradientUnits="userSpaceOnUse">
<stop stop-color="#FFB145"/>
<stop offset="1" stop-color="#F59D31"/>
</linearGradient>
<linearGradient id="paint43_linear_705_16659" x1="109.621" y1="94.5345" x2="108.856" y2="95.4812" gradientUnits="userSpaceOnUse">
<stop stop-color="#FFB145"/>
<stop offset="1" stop-color="#F59D31"/>
</linearGradient>
<linearGradient id="paint44_linear_705_16659" x1="108.466" y1="92.3118" x2="108.466" y2="94.6932" gradientUnits="userSpaceOnUse">
<stop stop-color="#FFB145"/>
<stop offset="1" stop-color="#F59D31"/>
</linearGradient>
<linearGradient id="paint45_linear_705_16659" x1="119.095" y1="91.4548" x2="119.095" y2="97.4548" gradientUnits="userSpaceOnUse">
<stop stop-color="#FFB145"/>
<stop offset="1" stop-color="#F59D31"/>
</linearGradient>
<linearGradient id="paint46_linear_705_16659" x1="182.554" y1="67.8272" x2="183.475" y2="67.6266" gradientUnits="userSpaceOnUse">
<stop stop-color="#0276DB"/>
<stop offset="1" stop-color="#3EDC81"/>
</linearGradient>
<linearGradient id="paint47_linear_705_16659" x1="181.311" y1="66.9015" x2="181.827" y2="64.5257" gradientUnits="userSpaceOnUse">
<stop stop-color="#0276DB"/>
<stop offset="1" stop-color="#3EDC81"/>
</linearGradient>
<linearGradient id="paint48_linear_705_16659" x1="187.335" y1="67.9513" x2="188.277" y2="67.8047" gradientUnits="userSpaceOnUse">
<stop stop-color="#0276DB"/>
<stop offset="1" stop-color="#3EDC81"/>
</linearGradient>
<linearGradient id="paint49_linear_705_16659" x1="186.092" y1="67.3193" x2="187.326" y2="63.7673" gradientUnits="userSpaceOnUse">
<stop stop-color="#0276DB"/>
<stop offset="1" stop-color="#3EDC81"/>
</linearGradient>
<linearGradient id="paint50_linear_705_16659" x1="191.57" y1="67.569" x2="192.223" y2="67.5151" gradientUnits="userSpaceOnUse">
<stop stop-color="#0276DB"/>
<stop offset="1" stop-color="#3EDC81"/>
</linearGradient>
<linearGradient id="paint51_linear_705_16659" x1="190.755" y1="66.4451" x2="192.853" y2="62.7528" gradientUnits="userSpaceOnUse">
<stop stop-color="#0276DB"/>
<stop offset="1" stop-color="#3EDC81"/>
</linearGradient>
<linearGradient id="paint52_linear_705_16659" x1="196.902" y1="65.4306" x2="197.836" y2="65.2611" gradientUnits="userSpaceOnUse">
<stop stop-color="#0276DB"/>
<stop offset="1" stop-color="#3EDC81"/>
</linearGradient>
<linearGradient id="paint53_linear_705_16659" x1="195.659" y1="64.3671" x2="196.403" y2="61.5426" gradientUnits="userSpaceOnUse">
<stop stop-color="#0276DB"/>
<stop offset="1" stop-color="#3EDC81"/>
</linearGradient>
<linearGradient id="paint54_linear_705_16659" x1="201.683" y1="64.9689" x2="202.634" y2="64.8539" gradientUnits="userSpaceOnUse">
<stop stop-color="#0276DB"/>
<stop offset="1" stop-color="#3EDC81"/>
</linearGradient>
<linearGradient id="paint55_linear_705_16659" x1="200.44" y1="63.7297" x2="202.149" y2="59.6472" gradientUnits="userSpaceOnUse">
<stop stop-color="#0276DB"/>
<stop offset="1" stop-color="#3EDC81"/>
</linearGradient>
<linearGradient id="paint56_linear_705_16659" x1="215.5" y1="64.1199" x2="216.448" y2="63.9909" gradientUnits="userSpaceOnUse">
<stop stop-color="#0276DB"/>
<stop offset="1" stop-color="#3EDC81"/>
</linearGradient>
<linearGradient id="paint57_linear_705_16659" x1="214.257" y1="62.8603" x2="215.584" y2="59.1939" gradientUnits="userSpaceOnUse">
<stop stop-color="#0276DB"/>
<stop offset="1" stop-color="#3EDC81"/>
</linearGradient>
<linearGradient id="paint58_linear_705_16659" x1="206.466" y1="67.4472" x2="207.425" y2="67.3726" gradientUnits="userSpaceOnUse">
<stop stop-color="#0276DB"/>
<stop offset="1" stop-color="#3EDC81"/>
</linearGradient>
<linearGradient id="paint59_linear_705_16659" x1="205.223" y1="65.2981" x2="208.529" y2="60.1054" gradientUnits="userSpaceOnUse">
<stop stop-color="#0276DB"/>
<stop offset="1" stop-color="#3EDC81"/>
</linearGradient>
<linearGradient id="paint60_linear_705_16659" x1="220.282" y1="67.4472" x2="221.241" y2="67.3726" gradientUnits="userSpaceOnUse">
<stop stop-color="#0276DB"/>
<stop offset="1" stop-color="#3EDC81"/>
</linearGradient>
<linearGradient id="paint61_linear_705_16659" x1="219.039" y1="65.2981" x2="222.344" y2="60.1054" gradientUnits="userSpaceOnUse">
<stop stop-color="#0276DB"/>
<stop offset="1" stop-color="#3EDC81"/>
</linearGradient>
<linearGradient id="paint62_linear_705_16659" x1="211.251" y1="66.2699" x2="212.185" y2="66.1005" gradientUnits="userSpaceOnUse">
<stop stop-color="#0276DB"/>
<stop offset="1" stop-color="#3EDC81"/>
</linearGradient>
<linearGradient id="paint63_linear_705_16659" x1="210.008" y1="65.6018" x2="210.894" y2="62.5412" gradientUnits="userSpaceOnUse">
<stop stop-color="#0276DB"/>
<stop offset="1" stop-color="#3EDC81"/>
</linearGradient>
<clipPath id="clip0_705_16659">
<path d="M202.789 17.416C202.789 17.0468 203.088 16.7476 203.458 16.7476H205.824C206.193 16.7476 206.492 17.0468 206.492 17.416V21.4268H202.789V17.416Z" fill="white"/>
</clipPath>
<clipPath id="clip1_705_16659">
<path d="M207.572 15.842C207.572 15.4729 207.872 15.1736 208.241 15.1736H209.428C209.797 15.1736 210.096 15.4729 210.096 15.842V22.286H207.572V15.842Z" fill="white"/>
</clipPath>
<clipPath id="clip2_705_16659">
<path d="M212.354 13.7617C212.354 13.3925 212.653 13.0933 213.022 13.0933H215.388C215.758 13.0933 216.057 13.3925 216.057 13.7617V22.7637H212.354V13.7617Z" fill="white"/>
</clipPath>
<clipPath id="clip3_705_16659">
<path d="M217.136 14.1707C217.136 13.8015 217.435 13.5022 217.804 13.5022H220.171C220.54 13.5022 220.839 13.8015 220.839 14.1707V19.1841H217.136V14.1707Z" fill="white"/>
</clipPath>
<clipPath id="clip4_705_16659">
<path d="M221.918 11.1624C221.918 10.7932 222.217 10.4939 222.586 10.4939H224.953C225.322 10.4939 225.621 10.7932 225.621 11.1624V19.5181H221.918V11.1624Z" fill="white"/>
</clipPath>
<clipPath id="clip5_705_16659">
<path d="M235.736 11.1624C235.736 10.7932 236.036 10.4939 236.405 10.4939H238.771C239.14 10.4939 239.44 10.7932 239.44 11.1624V18.2926H235.736V11.1624Z" fill="white"/>
</clipPath>
<clipPath id="clip6_705_16659">
<path d="M226.7 9.39502C226.7 9.02584 226.999 8.72656 227.369 8.72656H229.735C230.104 8.72656 230.404 9.02584 230.404 9.39502V22.4523H226.7V9.39502Z" fill="white"/>
</clipPath>
<clipPath id="clip7_705_16659">
<path d="M240.515 9.39502C240.515 9.02584 240.814 8.72656 241.183 8.72656H243.55C243.919 8.72656 244.218 9.02584 244.218 9.39502V22.4523H240.515V9.39502Z" fill="white"/>
</clipPath>
<clipPath id="clip8_705_16659">
<path d="M231.484 15.0098C231.484 14.6406 231.784 14.3413 232.153 14.3413H234.519C234.888 14.3413 235.188 14.6406 235.188 15.0098V20.5803H231.484V15.0098Z" fill="white"/>
</clipPath>
<clipPath id="clip9_705_16659">
<path d="M79.667 34.7215C79.667 34.3523 79.9663 34.053 80.3355 34.053H81.5227C81.8919 34.053 82.1912 34.3523 82.1912 34.7215V38.4983H79.667V34.7215Z" fill="white"/>
</clipPath>
<clipPath id="clip10_705_16659">
<path d="M84.4521 33.1477C84.4521 32.7785 84.7514 32.4792 85.1206 32.4792H86.3079C86.6771 32.4792 86.9764 32.7785 86.9764 33.1477V39.5919H84.4521V33.1477Z" fill="white"/>
</clipPath>
<clipPath id="clip11_705_16659">
<path d="M89.2314 31.0679C89.2314 30.6987 89.5307 30.3994 89.8999 30.3994H91.0872C91.4564 30.3994 91.7557 30.6987 91.7557 31.0679V39.5865H89.2314V31.0679Z" fill="white"/>
</clipPath>
<clipPath id="clip12_705_16659">
<path d="M94.0146 31.4761C94.0146 31.1069 94.3139 30.8076 94.6831 30.8076H95.8704C96.2396 30.8076 96.5389 31.1069 96.5389 31.4761V36.2056H94.0146V31.4761Z" fill="white"/>
</clipPath>
<clipPath id="clip13_705_16659">
<path d="M98.7988 28.4678C98.7988 28.0986 99.0981 27.7993 99.4673 27.7993H100.655C101.024 27.7993 101.323 28.0986 101.323 28.4678V36.3725H98.7988V28.4678Z" fill="white"/>
</clipPath>
<clipPath id="clip14_705_16659">
<path d="M112.616 28.4678C112.616 28.0986 112.915 27.7993 113.285 27.7993H114.472C114.841 27.7993 115.14 28.0986 115.14 28.4678V35.2083H112.616V28.4678Z" fill="white"/>
</clipPath>
<clipPath id="clip15_705_16659">
<path d="M103.582 26.7005C103.582 26.3313 103.881 26.032 104.251 26.032H105.438C105.807 26.032 106.106 26.3313 106.106 26.7005V39.0718H103.582V26.7005Z" fill="white"/>
</clipPath>
<clipPath id="clip16_705_16659">
<path d="M117.396 26.7005C117.396 26.3313 117.695 26.032 118.064 26.032H119.251C119.62 26.032 119.92 26.3313 119.92 26.7005V39.0718H117.396V26.7005Z" fill="white"/>
</clipPath>
<clipPath id="clip17_705_16659">
<path d="M108.364 32.3154C108.364 31.9463 108.664 31.647 109.033 31.647H110.22C110.589 31.647 110.888 31.9463 110.888 32.3154V37.5741H108.364V32.3154Z" fill="white"/>
</clipPath>
<clipPath id="clip18_705_16659">
<path d="M180.83 64.2505C180.83 63.8813 181.129 63.582 181.499 63.582H183.865C184.234 63.582 184.533 63.8813 184.533 64.2505V68.2613H180.83V64.2505Z" fill="white"/>
</clipPath>
<clipPath id="clip19_705_16659">
<path d="M185.611 62.6765C185.611 62.3073 185.911 62.0081 186.28 62.0081H188.646C189.015 62.0081 189.315 62.3073 189.315 62.6765V69.4948H185.611V62.6765Z" fill="white"/>
</clipPath>
<clipPath id="clip20_705_16659">
<path d="M190.395 60.5962C190.395 60.227 190.694 59.9277 191.063 59.9277H192.25C192.619 59.9277 192.919 60.227 192.919 60.5962V69.1147H190.395V60.5962Z" fill="white"/>
</clipPath>
<clipPath id="clip21_705_16659">
<path d="M195.178 61.0049C195.178 60.6357 195.477 60.3364 195.846 60.3364H198.213C198.582 60.3364 198.881 60.6357 198.881 61.0049V66.0183H195.178V61.0049Z" fill="white"/>
</clipPath>
<clipPath id="clip22_705_16659">
<path d="M199.959 57.9961C199.959 57.6269 200.258 57.3276 200.627 57.3276H202.994C203.363 57.3276 203.662 57.6269 203.662 57.9961V66.3519H199.959V57.9961Z" fill="white"/>
</clipPath>
<clipPath id="clip23_705_16659">
<path d="M213.776 57.9961C213.776 57.6269 214.076 57.3276 214.445 57.3276H216.811C217.18 57.3276 217.48 57.6269 217.48 57.9961V65.1264H213.776V57.9961Z" fill="white"/>
</clipPath>
<clipPath id="clip24_705_16659">
<path d="M204.742 56.2293C204.742 55.8601 205.041 55.5608 205.411 55.5608H207.777C208.146 55.5608 208.446 55.8601 208.446 56.2293V69.2866H204.742V56.2293Z" fill="white"/>
</clipPath>
<clipPath id="clip25_705_16659">
<path d="M218.558 56.2293C218.558 55.8601 218.857 55.5608 219.226 55.5608H221.593C221.962 55.5608 222.261 55.8601 222.261 56.2293V69.2866H218.558V56.2293Z" fill="white"/>
</clipPath>
<clipPath id="clip26_705_16659">
<path d="M209.527 61.8442C209.527 61.4751 209.827 61.1758 210.196 61.1758H212.562C212.931 61.1758 213.231 61.4751 213.231 61.8442V67.4148H209.527V61.8442Z" fill="white"/>
</clipPath>
</defs>
</svg>
