<svg width="550" height="468" viewBox="0 0 550 468" fill="none" xmlns="http://www.w3.org/2000/svg">
<g clip-path="url(#clip0_1657_12532)">
<rect y="-0.000732422" width="550" height="468" rx="10" fill="url(#paint0_linear_1657_12532)" fill-opacity="0.05"/>
<g filter="url(#filter0_dddd_1657_12532)">
<path d="M395.664 311.058L354.334 277.031L260.042 389.754H174.355C199.505 359.766 257.675 290.682 258.607 289.559L303.432 235.111L316.893 218.768L343.443 186.518L395.548 123.25L395.583 175.87L395.606 226.905V229.474L395.664 311.064V311.058Z" fill="url(#paint1_linear_1657_12532)" fill-opacity="0.2"/>
<path d="M395.664 311.058L354.334 277.031L260.042 389.754H174.355C199.505 359.766 257.675 290.682 258.607 289.559L303.432 235.111L316.893 218.768L343.443 186.518L395.548 123.25L395.583 175.87L395.606 226.905V229.474L395.664 311.064V311.058Z" fill="url(#paint2_linear_1657_12532)" fill-opacity="0.2"/>
<path opacity="0.56" d="M395.664 311.058L354.334 277.025L260.042 389.748H218.805L395.583 175.87L395.606 226.899V229.468L395.664 311.058Z" fill="url(#paint3_linear_1657_12532)"/>
<path d="M388.621 107.203L343.715 161.686C343.715 161.686 343.704 161.686 343.704 161.675L340.885 165.1H247.427L247.016 164.892L201.566 141.721C201.566 141.721 233.579 173.405 234.111 173.96C234.655 174.504 232.595 175.447 232.595 175.447L210.68 162.942L225.402 177.664L222.109 179.66L222.885 194.735L223.44 205.412L216.224 217.952L216.212 217.964L212.133 225.058L220.014 233.195L226.201 239.578V239.589L245.442 239.578C246.75 239.722 252.207 240.475 256.507 245.255C258.746 247.737 259.354 256.186 259.412 263.912L238.174 289.675L155.809 389.574L155.664 389.742V168.225C155.664 118.539 195.958 78.2449 245.645 78.2449H322.489C323.374 78.2449 324.231 78.2564 325.104 78.2912C325.504 78.2912 325.903 78.3027 326.291 78.3259C326.887 78.349 327.465 78.3722 328.056 78.4243C328.276 78.4243 328.478 78.4358 328.698 78.459C329.497 78.5053 330.318 78.5689 331.117 78.65C331.204 78.65 331.262 78.6615 331.348 78.6731C332.28 78.7599 333.212 78.8641 334.132 78.9856C355.584 81.7459 374.669 92.0755 388.616 107.185L388.621 107.203Z" fill="url(#paint4_linear_1657_12532)" fill-opacity="0.2"/>
<path d="M388.621 107.203L343.715 161.686C343.715 161.686 343.704 161.686 343.704 161.675L340.885 165.1H247.427L247.016 164.892L201.566 141.721C201.566 141.721 233.579 173.405 234.111 173.96C234.655 174.504 232.595 175.447 232.595 175.447L210.68 162.942L225.402 177.664L222.109 179.66L222.885 194.735L223.44 205.412L216.224 217.952L216.212 217.964L212.133 225.058L220.014 233.195L226.201 239.578V239.589L245.442 239.578C246.75 239.722 252.207 240.475 256.507 245.255C258.746 247.737 259.354 256.186 259.412 263.912L238.174 289.675L155.809 389.574L155.664 389.742V168.225C155.664 118.539 195.958 78.2449 245.645 78.2449H322.489C323.374 78.2449 324.231 78.2564 325.104 78.2912C325.504 78.2912 325.903 78.3027 326.291 78.3259C326.887 78.349 327.465 78.3722 328.056 78.4243C328.276 78.4243 328.478 78.4358 328.698 78.459C329.497 78.5053 330.318 78.5689 331.117 78.65C331.204 78.65 331.262 78.6615 331.348 78.6731C332.28 78.7599 333.212 78.8641 334.132 78.9856C355.584 81.7459 374.669 92.0755 388.616 107.185L388.621 107.203Z" fill="url(#paint5_linear_1657_12532)" fill-opacity="0.2"/>
<path d="M247.016 164.892L201.566 141.721C201.566 141.721 233.579 173.405 234.111 173.96C234.655 174.504 232.595 175.447 232.595 175.447L210.68 162.942L225.402 177.664L222.109 179.66L222.885 194.735L155.664 277.922V168.231C155.664 118.545 195.958 78.2507 245.645 78.2507H317.014L247.01 164.892H247.016Z" fill="url(#paint6_linear_1657_12532)" fill-opacity="0.2"/>
<mask id="path-9-inside-1_1657_12532" fill="white">
<path d="M321.827 78.5084C322.714 78.5084 323.574 78.5179 324.442 78.5553C324.844 78.5553 325.245 78.5644 325.628 78.5924C326.225 78.6204 326.804 78.6395 327.393 78.6862C327.607 78.6862 327.813 78.6953 328.037 78.7233C328.84 78.77 329.662 78.8355 330.456 78.9196C330.54 78.9196 330.606 78.9283 330.689 78.9469C331.623 79.0309 332.557 79.1429 333.472 79.2643C354.928 82.028 374.004 92.3536 387.954 107.46L343.053 161.941C343.053 161.941 343.043 161.941 343.043 161.932L340.223 165.359H246.771L246.359 165.154L200.914 141.978C201.552 142.61 232.92 173.657 233.447 174.212C233.449 174.213 233.45 174.215 233.451 174.216C233.453 174.218 233.454 174.219 233.455 174.22C233.993 174.758 231.97 175.693 231.942 175.706L210.028 163.203L224.744 177.919H224.743L224.752 177.927L221.455 179.926L222.23 194.998L222.791 205.679L215.572 218.22H215.563L211.482 225.327L219.364 233.46L225.555 239.838H244.791L245.465 239.928C247.445 240.237 252.098 241.331 255.856 245.514C258.098 247.998 258.704 256.449 258.76 264.172L237.526 289.934L155.157 389.831L155.008 389.999V278.169L155 278.178V168.487C155 118.801 195.292 78.5087 244.979 78.5084H321.827ZM394.907 176.116V176.133L394.914 176.126L394.933 227.157V229.724L394.997 311.306L395.001 311.309L394.997 311.307L394.998 311.309L394.992 311.304L394.982 311.299L394.981 311.296L353.67 277.283L259.379 389.999H173.695C198.838 360.01 257 290.944 257.94 289.804L302.763 235.355L316.218 219.014L342.766 186.761L394.87 123.498L394.907 176.116ZM387.958 107.464C387.957 107.463 387.956 107.461 387.954 107.46L387.958 107.456V107.464Z"/>
</mask>
<path d="M324.442 78.5553L324.27 82.5516L324.356 82.5553L324.442 82.5553L324.442 78.5553ZM325.628 78.5924L325.336 82.5817L325.388 82.5856L325.441 82.588L325.628 78.5924ZM327.393 78.6862L327.076 82.6736L327.234 82.6862H327.393V78.6862ZM328.037 78.7233L327.541 82.6924L327.673 82.7088L327.805 82.7165L328.037 78.7233ZM330.456 78.9196L330.035 82.8973L330.244 82.9195L330.455 82.9196L330.456 78.9196ZM330.689 78.9469L329.822 82.8516L330.074 82.9077L330.331 82.9308L330.689 78.9469ZM333.472 79.2643L332.946 83.2295L332.953 83.2305L332.961 83.2315L333.472 79.2643ZM343.053 161.941L343.235 165.937L345.01 165.856L346.139 164.485L343.053 161.941ZM343.043 161.932L347.043 161.902L346.959 150.88L339.954 159.39L343.043 161.932ZM340.223 165.359V169.359H342.111L343.311 167.901L340.223 165.359ZM246.771 165.359L244.985 168.938L245.828 169.359H246.771V165.359ZM246.359 165.154L244.542 168.717L244.558 168.725L244.574 168.733L246.359 165.154ZM200.914 141.978L202.731 138.415L198.1 144.821L200.914 141.978ZM233.447 174.212L230.547 176.967L230.581 177.002L230.616 177.037L233.447 174.212ZM233.451 174.216L236.334 171.444L236.325 171.434L233.451 174.216ZM233.455 174.22L230.555 176.975L230.59 177.012L230.626 177.048L233.455 174.22ZM231.942 175.706L229.96 179.18L231.747 180.199L233.615 179.339L231.942 175.706ZM210.028 163.203L212.011 159.728L207.2 166.031L210.028 163.203ZM224.744 177.919V181.919H234.401L227.573 175.09L224.744 177.919ZM224.743 177.919V173.919H215.086L221.915 180.747L224.743 177.919ZM224.752 177.927L226.826 181.348L231.186 178.704L227.58 175.099L224.752 177.927ZM221.455 179.926L219.381 176.506L217.338 177.745L217.46 180.132L221.455 179.926ZM222.23 194.998L218.236 195.203L218.236 195.207L222.23 194.998ZM222.791 205.679L226.258 207.675L226.847 206.65L226.786 205.47L222.791 205.679ZM215.572 218.22V222.22H217.885L219.039 220.216L215.572 218.22ZM215.563 218.22V214.22H213.248L212.095 216.228L215.563 218.22ZM211.482 225.327L208.014 223.335L206.513 225.947L208.61 228.111L211.482 225.327ZM219.364 233.46L216.492 236.243L216.494 236.246L219.364 233.46ZM225.555 239.838L222.684 242.623L223.863 243.838H225.555V239.838ZM244.791 239.838L245.325 235.873L245.059 235.838H244.791V239.838ZM245.465 239.928L246.08 235.976L246.04 235.97L245.999 235.964L245.465 239.928ZM255.856 245.514L252.881 248.188L252.887 248.194L255.856 245.514ZM258.76 264.172L261.846 266.716L262.77 265.595L262.76 264.142L258.76 264.172ZM237.526 289.934L240.613 292.479L240.613 292.478L237.526 289.934ZM155.157 389.831L158.146 392.489L158.196 392.433L158.243 392.375L155.157 389.831ZM155.008 389.999H151.008V400.514L157.996 392.657L155.008 389.999ZM155.008 278.169H159.008V266.765L151.884 275.67L155.008 278.169ZM155 278.178H151V289.581L158.123 280.677L155 278.178ZM155 168.487L151 168.487V168.487H155ZM244.979 78.5084V74.5084H244.978L244.979 78.5084ZM394.907 176.116H398.907V176.113L394.907 176.116ZM394.907 176.133H390.907V186.779L397.918 178.767L394.907 176.133ZM394.914 176.126L398.914 176.124L398.91 165.484L391.904 173.492L394.914 176.126ZM394.933 227.157H398.933V227.155L394.933 227.157ZM394.933 229.724H390.933V229.727L394.933 229.724ZM394.997 311.306L390.997 311.309L390.999 313.307L392.597 314.506L394.997 311.306ZM395.001 311.309L393.212 314.887L397.401 308.109L395.001 311.309ZM394.997 311.307L396.786 307.73L386.053 302.363L391.419 313.096L394.997 311.307ZM394.998 311.309L392.437 314.382L398.576 309.52L394.998 311.309ZM394.992 311.304L397.553 308.231L397.196 307.934L396.781 307.727L394.992 311.304ZM394.982 311.299L391.102 312.27L391.548 314.054L393.194 314.877L394.982 311.299ZM394.981 311.296L398.862 310.325L398.542 309.046L397.524 308.208L394.981 311.296ZM353.67 277.283L356.212 274.195L353.148 271.672L350.602 274.716L353.67 277.283ZM259.379 389.999V393.999H261.248L262.447 392.565L259.379 389.999ZM173.695 389.999L170.63 387.429L165.122 393.999H173.695V389.999ZM257.94 289.804L261.025 292.35L261.029 292.347L257.94 289.804ZM302.763 235.355L299.675 232.812L299.674 232.813L302.763 235.355ZM316.218 219.014L319.306 221.557L319.306 221.556L316.218 219.014ZM342.766 186.761L339.678 184.218L339.677 184.219L342.766 186.761ZM394.87 123.498L398.87 123.495L398.862 112.359L391.783 120.955L394.87 123.498ZM387.958 107.464L385.019 110.178L391.958 117.693V107.464H387.958ZM387.958 107.456H391.958V97.7988L385.13 104.627L387.958 107.456ZM321.827 78.5084V82.5084C322.688 82.5084 323.484 82.5178 324.27 82.5516L324.442 78.5553L324.614 74.559C323.664 74.5181 322.74 74.5084 321.827 74.5084V78.5084ZM324.442 78.5553L324.442 82.5553C324.79 82.5553 325.086 82.5634 325.336 82.5817L325.628 78.5924L325.92 74.6031C325.404 74.5654 324.898 74.5553 324.442 74.5553L324.442 78.5553ZM325.628 78.5924L325.441 82.588C326.111 82.6195 326.574 82.6337 327.076 82.6736L327.393 78.6862L327.709 74.6987C327.035 74.6452 326.34 74.6214 325.815 74.5968L325.628 78.5924ZM327.393 78.6862V82.6862C327.443 82.6862 327.474 82.6872 327.494 82.6883C327.513 82.6893 327.527 82.6906 327.541 82.6924L328.037 78.7233L328.533 74.7542C328.105 74.7007 327.728 74.6862 327.393 74.6862V78.6862ZM328.037 78.7233L327.805 82.7165C328.551 82.7599 329.31 82.8206 330.035 82.8973L330.456 78.9196L330.877 74.9418C330.015 74.8505 329.129 74.78 328.269 74.73L328.037 78.7233ZM330.456 78.9196L330.455 82.9196C330.351 82.9195 330.229 82.9137 330.095 82.8976C329.966 82.882 329.868 82.862 329.822 82.8516L330.689 78.9469L331.557 75.0422C331.245 74.9729 330.885 74.9197 330.458 74.9196L330.456 78.9196ZM330.689 78.9469L330.331 82.9308C331.188 83.008 332.062 83.1123 332.946 83.2295L333.472 79.2643L333.998 75.299C333.052 75.1735 332.058 75.0539 331.048 74.963L330.689 78.9469ZM333.472 79.2643L332.961 83.2315C353.453 85.8711 371.68 95.7328 385.015 110.173L387.954 107.46L390.893 104.746C376.328 88.9743 356.402 78.1849 333.983 75.2971L333.472 79.2643ZM387.954 107.46L384.867 104.916L339.966 159.397L343.053 161.941L346.139 164.485L391.041 110.004L387.954 107.46ZM343.053 161.941C342.87 157.945 342.872 157.945 342.874 157.945C342.874 157.945 342.876 157.945 342.878 157.945C342.88 157.945 342.883 157.945 342.885 157.945C342.89 157.944 342.895 157.944 342.9 157.944C342.911 157.944 342.921 157.943 342.931 157.943C342.953 157.942 342.974 157.942 342.997 157.941C343.042 157.941 343.09 157.941 343.142 157.942C343.243 157.944 343.364 157.951 343.5 157.966C343.75 157.994 344.158 158.064 344.624 158.264C345.104 158.469 345.75 158.861 346.274 159.577C346.822 160.327 347.037 161.164 347.043 161.902L343.043 161.932L339.043 161.963C339.049 162.705 339.265 163.545 339.816 164.298C340.341 165.017 340.99 165.41 341.471 165.616C341.94 165.817 342.351 165.887 342.603 165.916C342.739 165.931 342.861 165.938 342.963 165.94C343.015 165.941 343.063 165.941 343.108 165.941C343.131 165.94 343.153 165.94 343.174 165.939C343.185 165.939 343.195 165.939 343.205 165.938C343.21 165.938 343.215 165.938 343.22 165.938C343.223 165.937 343.225 165.937 343.228 165.937C343.229 165.937 343.231 165.937 343.232 165.937C343.233 165.937 343.235 165.937 343.053 161.941ZM343.043 161.932L339.954 159.39L337.134 162.817L340.223 165.359L343.311 167.901L346.131 164.474L343.043 161.932ZM340.223 165.359V161.359H246.771V165.359V169.359H340.223V165.359ZM246.771 165.359L248.556 161.78L248.145 161.575L246.359 165.154L244.574 168.733L244.985 168.938L246.771 165.359ZM246.359 165.154L248.177 161.591L202.731 138.415L200.914 141.978L199.097 145.542L244.542 168.717L246.359 165.154ZM200.914 141.978L198.1 144.821C198.419 145.137 206.42 153.056 214.408 160.966C218.402 164.921 222.391 168.873 225.415 171.871C226.928 173.37 228.197 174.629 229.105 175.531C229.56 175.982 229.922 176.343 230.178 176.598C230.467 176.886 230.563 176.983 230.547 176.967L233.447 174.212L236.347 171.457C235.764 170.843 204.31 139.711 203.728 139.135L200.914 141.978ZM233.447 174.212L230.616 177.037C230.543 176.964 230.48 176.895 230.429 176.836C230.378 176.778 230.336 176.726 230.303 176.685C230.271 176.644 230.246 176.61 230.23 176.589C230.222 176.578 230.216 176.569 230.212 176.563C230.207 176.557 230.204 176.553 230.204 176.552C230.202 176.55 230.205 176.554 230.207 176.557C230.21 176.561 230.215 176.568 230.222 176.577C230.234 176.594 230.257 176.624 230.285 176.661C230.314 176.699 230.353 176.748 230.401 176.804C230.449 176.86 230.507 176.926 230.577 176.998L233.451 174.216L236.325 171.434C236.395 171.506 236.453 171.572 236.5 171.628C236.548 171.683 236.586 171.732 236.615 171.769C236.643 171.806 236.665 171.836 236.678 171.853C236.684 171.861 236.689 171.868 236.692 171.872C236.694 171.874 236.696 171.878 236.695 171.876C236.694 171.875 236.682 171.859 236.667 171.838C236.651 171.816 236.625 171.782 236.593 171.741C236.561 171.699 236.518 171.647 236.467 171.588C236.415 171.528 236.352 171.46 236.279 171.386L233.447 174.212ZM233.451 174.216L230.568 176.989C230.595 177.017 230.617 177.04 230.632 177.054C230.639 177.061 230.645 177.067 230.649 177.071C230.651 177.073 230.653 177.075 230.654 177.076C230.655 177.077 230.656 177.078 230.656 177.078C230.656 177.078 230.656 177.077 230.655 177.077C230.654 177.076 230.653 177.074 230.651 177.073C230.647 177.069 230.641 177.063 230.633 177.055C230.625 177.047 230.614 177.036 230.602 177.023C230.589 177.01 230.573 176.994 230.555 176.975L233.455 174.22L236.355 171.465C236.337 171.446 236.321 171.43 236.308 171.416C236.295 171.403 236.284 171.392 236.275 171.384C236.267 171.376 236.26 171.369 236.257 171.365C236.255 171.363 236.253 171.362 236.252 171.361C236.252 171.36 236.251 171.36 236.251 171.36C236.251 171.36 236.251 171.359 236.251 171.359C236.251 171.359 236.251 171.359 236.251 171.359C236.251 171.359 236.251 171.359 236.251 171.359C236.25 171.359 236.253 171.362 236.256 171.365C236.26 171.368 236.265 171.374 236.272 171.381C236.286 171.395 236.308 171.417 236.334 171.444L233.451 174.216ZM233.455 174.22L230.626 177.048C229.965 176.387 229.492 175.385 229.551 174.236C229.6 173.272 230.002 172.627 230.173 172.383C230.491 171.929 230.792 171.763 230.651 171.859C230.503 171.96 230.249 172.082 230.27 172.072L231.942 175.706L233.615 179.339C233.663 179.317 234.434 178.965 235.17 178.461C235.471 178.255 236.179 177.754 236.726 176.972C237.011 176.565 237.484 175.758 237.54 174.641C237.607 173.337 237.08 172.188 236.284 171.392L233.455 174.22ZM231.942 175.706L233.925 172.231L212.011 159.728L210.028 163.203L208.046 166.677L229.96 179.18L231.942 175.706ZM210.028 163.203L207.2 166.031L221.916 180.747L224.744 177.919L227.573 175.09L212.857 160.374L210.028 163.203ZM224.744 177.919V173.919H224.743V177.919V181.919H224.744V177.919ZM224.743 177.919L221.915 180.747L221.924 180.756L224.752 177.927L227.58 175.099L227.572 175.09L224.743 177.919ZM224.752 177.927L222.678 174.507L219.381 176.506L221.455 179.926L223.529 183.347L226.826 181.348L224.752 177.927ZM221.455 179.926L217.46 180.132L218.236 195.203L222.23 194.998L226.225 194.792L225.45 179.721L221.455 179.926ZM222.23 194.998L218.236 195.207L218.797 205.889L222.791 205.679L226.786 205.47L226.225 194.788L222.23 194.998ZM222.791 205.679L219.324 203.684L212.106 216.225L215.572 218.22L219.039 220.216L226.258 207.675L222.791 205.679ZM215.572 218.22V214.22H215.563V218.22V222.22H215.572V218.22ZM215.563 218.22L212.095 216.228L208.014 223.335L211.482 225.327L214.951 227.319L219.032 220.212L215.563 218.22ZM211.482 225.327L208.61 228.111L216.492 236.243L219.364 233.46L222.237 230.676L214.355 222.543L211.482 225.327ZM219.364 233.46L216.494 236.246L222.684 242.623L225.555 239.838L228.425 237.052L222.235 230.674L219.364 233.46ZM225.555 239.838V243.838H244.791V239.838V235.838H225.555V239.838ZM244.791 239.838L244.257 243.802L244.931 243.893L245.465 239.928L245.999 235.964L245.325 235.873L244.791 239.838ZM245.465 239.928L244.849 243.881C246.408 244.123 250.003 244.984 252.881 248.188L255.856 245.514L258.832 242.841C254.192 237.677 248.482 236.35 246.08 235.976L245.465 239.928ZM255.856 245.514L252.887 248.194C252.842 248.145 253.093 248.447 253.412 249.525C253.702 250.509 253.956 251.812 254.161 253.392C254.569 256.546 254.732 260.404 254.76 264.201L258.76 264.172L262.76 264.142C262.731 260.216 262.563 255.988 262.094 252.365C261.86 250.557 261.539 248.799 261.084 247.258C260.656 245.811 259.991 244.126 258.826 242.835L255.856 245.514ZM258.76 264.172L255.673 261.627L234.44 287.39L237.526 289.934L240.613 292.478L261.846 266.716L258.76 264.172ZM237.526 289.934L234.44 287.39L152.071 387.286L155.157 389.831L158.243 392.375L240.613 292.479L237.526 289.934ZM155.157 389.831L152.169 387.172L152.019 387.34L155.008 389.999L157.996 392.657L158.146 392.489L155.157 389.831ZM155.008 389.999H159.008V278.169H155.008H151.008V389.999H155.008ZM155.008 278.169L151.884 275.67L151.877 275.68L155 278.178L158.123 280.677L158.131 280.667L155.008 278.169ZM155 278.178H159V168.487H155H151V278.178H155ZM155 168.487L159 168.487C159 121.01 197.502 82.5087 244.979 82.5084L244.979 78.5084L244.978 74.5084C193.083 74.5087 151 116.592 151 168.487L155 168.487ZM244.979 78.5084V82.5084H321.827V78.5084V74.5084H244.979V78.5084ZM394.907 176.116H390.907V176.133H394.907H398.907V176.116H394.907ZM394.907 176.133L397.918 178.767L397.924 178.76L394.914 176.126L391.904 173.492L391.897 173.499L394.907 176.133ZM394.914 176.126L390.914 176.127L390.933 227.158L394.933 227.157L398.933 227.155L398.914 176.124L394.914 176.126ZM394.933 227.157H390.933V229.724H394.933H398.933V227.157H394.933ZM394.933 229.724L390.933 229.727L390.997 311.309L394.997 311.306L398.997 311.303L398.933 229.721L394.933 229.724ZM394.997 311.306L392.597 314.506L392.601 314.509L395.001 311.309L397.401 308.109L397.397 308.106L394.997 311.306ZM395.001 311.309L396.79 307.731L396.786 307.73L394.997 311.307L393.208 314.885L393.212 314.887L395.001 311.309ZM394.997 311.307L391.419 313.096L391.42 313.098L394.998 311.309L398.576 309.52L398.575 309.518L394.997 311.307ZM394.998 311.309L397.559 308.236L397.553 308.231L394.992 311.304L392.431 314.377L392.437 314.382L394.998 311.309ZM394.992 311.304L396.781 307.727L396.771 307.722L394.982 311.299L393.194 314.877L393.203 314.882L394.992 311.304ZM394.982 311.299L398.863 310.329L398.862 310.325L394.981 311.296L391.101 312.266L391.102 312.27L394.982 311.299ZM394.981 311.296L397.524 308.208L356.212 274.195L353.67 277.283L351.127 280.371L392.439 314.384L394.981 311.296ZM353.67 277.283L350.602 274.716L256.311 387.432L259.379 389.999L262.447 392.565L356.738 279.849L353.67 277.283ZM259.379 389.999V385.999H173.695V389.999V393.999H259.379V389.999ZM173.695 389.999L176.761 392.569C201.877 362.611 260.073 293.504 261.025 292.35L257.94 289.804L254.855 287.258C254.855 287.259 254.855 287.258 254.854 287.26C254.853 287.261 254.852 287.262 254.85 287.265C254.846 287.269 254.841 287.275 254.835 287.282C254.823 287.297 254.807 287.317 254.786 287.341C254.746 287.389 254.691 287.455 254.623 287.536C254.485 287.7 254.295 287.927 254.053 288.215C253.57 288.79 252.885 289.604 252.021 290.632C250.291 292.688 247.844 295.596 244.856 299.148C238.878 306.251 230.734 315.929 221.833 326.508C204.033 347.665 183.204 372.431 170.63 387.429L173.695 389.999ZM257.94 289.804L261.029 292.347L305.851 237.897L302.763 235.355L299.674 232.813L254.852 287.262L257.94 289.804ZM302.763 235.355L305.851 237.898L319.306 221.557L316.218 219.014L313.13 216.472L299.675 232.812L302.763 235.355ZM316.218 219.014L319.306 221.556L345.854 189.303L342.766 186.761L339.677 184.219L313.129 216.472L316.218 219.014ZM342.766 186.761L345.853 189.304L397.958 126.041L394.87 123.498L391.783 120.955L339.678 184.218L342.766 186.761ZM394.87 123.498L390.87 123.501L390.907 176.119L394.907 176.116L398.907 176.113L398.87 123.495L394.87 123.498ZM387.958 107.464L390.897 104.751C390.945 104.803 390.986 104.85 391.019 104.89C391.053 104.93 391.081 104.965 391.102 104.992C391.124 105.019 391.14 105.041 391.15 105.054C391.155 105.061 391.159 105.067 391.162 105.07C391.164 105.073 391.166 105.075 391.166 105.075C391.166 105.075 391.165 105.075 391.165 105.074C391.165 105.074 391.165 105.074 391.164 105.073C391.164 105.072 391.163 105.071 391.161 105.069C391.159 105.066 391.155 105.06 391.149 105.053C391.139 105.039 391.122 105.017 391.1 104.99C391.079 104.962 391.05 104.927 391.016 104.886C390.982 104.845 390.941 104.798 390.893 104.746L387.954 107.46L385.015 110.173C384.968 110.122 384.927 110.074 384.893 110.034C384.859 109.994 384.831 109.959 384.81 109.932C384.789 109.905 384.772 109.883 384.762 109.87C384.757 109.863 384.753 109.858 384.75 109.854C384.748 109.851 384.746 109.849 384.747 109.849C384.747 109.849 384.747 109.849 384.747 109.849C384.747 109.849 384.747 109.85 384.747 109.85C384.747 109.85 384.747 109.85 384.748 109.851C384.748 109.852 384.749 109.853 384.751 109.855C384.753 109.858 384.758 109.864 384.763 109.871C384.773 109.885 384.79 109.907 384.812 109.934C384.833 109.962 384.862 109.997 384.896 110.038C384.93 110.078 384.971 110.126 385.019 110.178L387.958 107.464ZM387.954 107.46L390.783 110.288L390.786 110.284L387.958 107.456L385.13 104.627L385.126 104.631L387.954 107.46ZM387.958 107.456H383.958V107.464H387.958H391.958V107.456H387.958Z" fill="white" mask="url(#path-9-inside-1_1657_12532)"/>
</g>
</g>
<rect x="0.5" y="0.499268" width="549" height="467" rx="9.5" stroke="white" stroke-opacity="0.1"/>
<defs>
<filter id="filter0_dddd_1657_12532" x="-127" y="-204.001" width="852.664" height="924" filterUnits="userSpaceOnUse" color-interpolation-filters="sRGB">
<feFlood flood-opacity="0" result="BackgroundImageFix"/>
<feColorMatrix in="SourceAlpha" type="matrix" values="0 0 0 0 0 0 0 0 0 0 0 0 0 0 0 0 0 0 127 0" result="hardAlpha"/>
<feOffset dx="94" dy="94"/>
<feGaussianBlur stdDeviation="118"/>
<feColorMatrix type="matrix" values="0 0 0 0 0.243137 0 0 0 0 0.568627 0 0 0 0 0.905882 0 0 0 0.5 0"/>
<feBlend mode="normal" in2="BackgroundImageFix" result="effect1_dropShadow_1657_12532"/>
<feColorMatrix in="SourceAlpha" type="matrix" values="0 0 0 0 0 0 0 0 0 0 0 0 0 0 0 0 0 0 127 0" result="hardAlpha"/>
<feOffset dx="-94" dy="-94"/>
<feGaussianBlur stdDeviation="94"/>
<feColorMatrix type="matrix" values="0 0 0 0 0.337255 0 0 0 0 0.956863 0 0 0 0 0.603922 0 0 0 0.5 0"/>
<feBlend mode="normal" in2="effect1_dropShadow_1657_12532" result="effect2_dropShadow_1657_12532"/>
<feColorMatrix in="SourceAlpha" type="matrix" values="0 0 0 0 0 0 0 0 0 0 0 0 0 0 0 0 0 0 127 0" result="hardAlpha"/>
<feOffset dx="94" dy="-94"/>
<feGaussianBlur stdDeviation="94"/>
<feColorMatrix type="matrix" values="0 0 0 0 0.243137 0 0 0 0 0.862745 0 0 0 0 0.505882 0 0 0 0.5 0"/>
<feBlend mode="normal" in2="effect2_dropShadow_1657_12532" result="effect3_dropShadow_1657_12532"/>
<feColorMatrix in="SourceAlpha" type="matrix" values="0 0 0 0 0 0 0 0 0 0 0 0 0 0 0 0 0 0 127 0" result="hardAlpha"/>
<feOffset dx="-94" dy="94"/>
<feGaussianBlur stdDeviation="94"/>
<feColorMatrix type="matrix" values="0 0 0 0 0.0745098 0 0 0 0 0.576471 0 0 0 0 0.760784 0 0 0 0.5 0"/>
<feBlend mode="normal" in2="effect3_dropShadow_1657_12532" result="effect4_dropShadow_1657_12532"/>
<feBlend mode="normal" in="SourceGraphic" in2="effect4_dropShadow_1657_12532" result="shape"/>
</filter>
<linearGradient id="paint0_linear_1657_12532" x1="275" y1="-0.000732422" x2="275" y2="467.999" gradientUnits="userSpaceOnUse">
<stop stop-color="white" stop-opacity="0.4"/>
<stop offset="1" stop-color="white" stop-opacity="0"/>
</linearGradient>
<linearGradient id="paint1_linear_1657_12532" x1="405.177" y1="151.397" x2="252.091" y2="404.921" gradientUnits="userSpaceOnUse">
<stop stop-color="#114FEE"/>
<stop offset="1" stop-color="#15B0F8"/>
</linearGradient>
<linearGradient id="paint2_linear_1657_12532" x1="552.24" y1="82.7704" x2="253.248" y2="339.286" gradientUnits="userSpaceOnUse">
<stop stop-color="#020C6A"/>
<stop offset="1" stop-color="#15B0F8" stop-opacity="0"/>
</linearGradient>
<linearGradient id="paint3_linear_1657_12532" x1="330.249" y1="109.893" x2="305.139" y2="372.329" gradientUnits="userSpaceOnUse">
<stop stop-color="#BFE6ED"/>
<stop offset="1" stop-color="white" stop-opacity="0"/>
</linearGradient>
<linearGradient id="paint4_linear_1657_12532" x1="183.684" y1="342.729" x2="281.13" y2="107.029" gradientUnits="userSpaceOnUse">
<stop stop-color="#0276DB"/>
<stop offset="1" stop-color="#3EDC81"/>
</linearGradient>
<linearGradient id="paint5_linear_1657_12532" x1="183.684" y1="342.729" x2="281.13" y2="107.029" gradientUnits="userSpaceOnUse">
<stop stop-color="#0276DB"/>
<stop offset="1" stop-color="#3EDC81"/>
</linearGradient>
<linearGradient id="paint6_linear_1657_12532" x1="277.756" y1="55.2652" x2="142.834" y2="225.759" gradientUnits="userSpaceOnUse">
<stop offset="0.03" stop-color="#5EFCA1"/>
<stop offset="1" stop-color="#5EFCA1" stop-opacity="0"/>
</linearGradient>
<clipPath id="clip0_1657_12532">
<rect y="-0.000732422" width="550" height="468" rx="10" fill="white"/>
</clipPath>
</defs>
</svg>
