<svg width="36" height="37" viewBox="0 0 36 37" fill="none" xmlns="http://www.w3.org/2000/svg">
<path d="M27.4045 0.5H8.59546C3.84832 0.5 0 4.34832 0 9.09546V27.9045C0 32.6517 3.84832 36.5 8.59546 36.5H27.4045C32.1517 36.5 36 32.6517 36 27.9045V9.09546C36 4.34832 32.1517 0.5 27.4045 0.5Z" fill="url(#paint0_linear_1356_172187)"/>
<path d="M26.4779 23.9437L23.5582 21.5398L16.8969 29.5027H10.8438C12.6202 27.3838 16.73 22.5036 16.7953 22.4244L19.9617 18.5779L20.9122 17.4235L22.7877 15.145L26.4686 10.6758L26.4713 14.393L26.4726 17.9981V18.1795L26.4765 23.943L26.4779 23.9437Z" fill="black"/>
<path d="M26.4779 23.9437L23.5582 21.5398L16.8969 29.5027H10.8438C12.6202 27.3838 16.73 22.5036 16.7953 22.4244L19.9617 18.5779L20.9122 17.4235L22.7877 15.145L26.4686 10.6758L26.4713 14.393L26.4726 17.9981V18.1795L26.4765 23.943L26.4779 23.9437Z" fill="white"/>
<path opacity="0.56" d="M26.4785 23.9445L23.5588 21.5407L16.8975 29.5035H13.9844L26.4725 14.3945L26.4738 17.9996V18.181L26.4785 23.9445Z" fill="white"/>
<path d="M25.9801 9.54106L22.8078 13.3902C22.8078 13.3902 22.8072 13.3902 22.8072 13.3896L22.6079 13.6317H16.006L15.977 13.6171L12.7664 11.9798C12.7664 11.9798 15.0277 14.2181 15.0653 14.2577C15.1036 14.2959 14.9584 14.3626 14.9584 14.3626L13.4102 13.4793L14.4505 14.5196L14.2176 14.6607L14.2724 15.7254L14.312 16.4801L13.802 17.366H13.8014L13.5131 17.868L14.0699 18.4426L14.5072 18.8932H15.8661C15.9585 18.9037 16.3444 18.9565 16.6478 19.2942C16.8062 19.4697 16.849 20.0667 16.853 20.6122L15.3529 22.4323L9.53399 29.4894L9.52344 29.5013V13.8526C9.52344 10.3426 12.3699 7.49609 15.88 7.49609H21.3084C21.3711 7.49609 21.4317 7.49675 21.4931 7.49939C21.5215 7.49939 21.5498 7.50005 21.5769 7.50203C21.6191 7.50401 21.66 7.50533 21.7015 7.50863C21.7167 7.50863 21.7312 7.50929 21.7471 7.51127C21.8038 7.51457 21.8618 7.51918 21.9179 7.52512C21.9239 7.52512 21.9285 7.52578 21.9344 7.5271C22.0004 7.53304 22.0663 7.54095 22.131 7.54953C23.6469 7.74479 24.9946 8.47438 25.9801 9.54172V9.54106Z" fill="black"/>
<path d="M25.9801 9.54106L22.8078 13.3902C22.8078 13.3902 22.8072 13.3902 22.8072 13.3896L22.6079 13.6317H16.006L15.977 13.6171L12.7664 11.9798C12.7664 11.9798 15.0277 14.2181 15.0653 14.2577C15.1036 14.2959 14.9584 14.3626 14.9584 14.3626L13.4102 13.4793L14.4505 14.5196L14.2176 14.6607L14.2724 15.7254L14.312 16.4801L13.802 17.366H13.8014L13.5131 17.868L14.0699 18.4426L14.5072 18.8932H15.8661C15.9585 18.9037 16.3444 18.9565 16.6478 19.2942C16.8062 19.4697 16.849 20.0667 16.853 20.6122L15.3529 22.4323L9.53399 29.4894L9.52344 29.5013V13.8526C9.52344 10.3426 12.3699 7.49609 15.88 7.49609H21.3084C21.3711 7.49609 21.4317 7.49675 21.4931 7.49939C21.5215 7.49939 21.5498 7.50005 21.5769 7.50203C21.6191 7.50401 21.66 7.50533 21.7015 7.50863C21.7167 7.50863 21.7312 7.50929 21.7471 7.51127C21.8038 7.51457 21.8618 7.51918 21.9179 7.52512C21.9239 7.52512 21.9285 7.52578 21.9344 7.5271C22.0004 7.53304 22.0663 7.54095 22.131 7.54953C23.6469 7.74479 24.9946 8.47438 25.9801 9.54172V9.54106Z" fill="white"/>
<path d="M15.977 13.6165L12.7664 11.9792C12.7664 11.9792 15.0277 14.2174 15.0653 14.257C15.1036 14.2953 14.9584 14.3619 14.9584 14.3619L13.4102 13.4786L14.4505 14.5189L14.2176 14.6601L14.2724 15.7248L9.52344 21.6017V13.8526C9.52344 10.3426 12.3699 7.49609 15.88 7.49609H20.9218L15.9763 13.6165H15.977Z" fill="white"/>
<defs>
<linearGradient id="paint0_linear_1356_172187" x1="21.1001" y1="14.5812" x2="-1.16233" y2="42.718" gradientUnits="userSpaceOnUse">
<stop stop-color="#0276DB"/>
<stop offset="1" stop-color="#3EDC81"/>
</linearGradient>
</defs>
</svg>
