<svg width="48" height="49" viewBox="0 0 48 49" fill="none" xmlns="http://www.w3.org/2000/svg">
<path d="M36.5394 0.5H11.4606C5.13109 0.5 0 5.63109 0 11.9606V37.0394C0 43.3689 5.13109 48.5 11.4606 48.5H36.5394C42.8689 48.5 48 43.3689 48 37.0394V11.9606C48 5.63109 42.8689 0.5 36.5394 0.5Z" fill="#F9F9F9"/>
<path d="M35.3025 31.7569L31.4096 28.5518L22.5278 39.1689H14.457C16.8257 36.3438 22.3053 29.8368 22.3924 29.7313L26.6143 24.6026L27.8817 23.0634L30.3823 20.0254L35.2902 14.0664L35.2937 19.0227L35.2955 23.8295V24.0714L35.3007 31.756L35.3025 31.7569Z" fill="url(#paint0_linear_1753_89774)"/>
<path d="M35.3025 31.7569L31.4096 28.5518L22.5278 39.1689H14.457C16.8257 36.3438 22.3053 29.8368 22.3924 29.7313L26.6143 24.6026L27.8817 23.0634L30.3823 20.0254L35.2902 14.0664L35.2937 19.0227L35.2955 23.8295V24.0714L35.3007 31.756L35.3025 31.7569Z" fill="url(#paint1_linear_1753_89774)"/>
<path opacity="0.56" d="M35.3023 31.7568L31.4094 28.5517L22.5277 39.1688H18.6436L35.2944 19.0234L35.2962 23.8302V24.0721L35.3023 31.7568Z" fill="url(#paint2_linear_1753_89774)"/>
<path d="M34.6386 12.5567L30.4088 17.6889C30.4088 17.6889 30.4079 17.6889 30.4079 17.688L30.1423 18.0108H21.3397L21.301 17.9915L17.0202 15.8084C17.0202 15.8084 20.0353 18.7928 20.0854 18.8455C20.1365 18.8965 19.943 18.9854 19.943 18.9854L17.8786 17.8077L19.2657 19.1947L18.9552 19.3829L19.0282 20.8025L19.081 21.8088L18.4011 22.99H18.4002L18.0158 23.6593L18.7582 24.4254L19.3413 25.0262H21.1532C21.2764 25.0402 21.7909 25.1106 22.1955 25.5609C22.4066 25.7949 22.4638 26.5909 22.469 27.3183L20.4689 29.745L12.7104 39.1545L12.6963 39.1703V18.3055C12.6963 13.6254 16.4916 9.83008 21.1717 9.83008H28.4096C28.4931 9.83008 28.574 9.83096 28.6558 9.83448C28.6937 9.83448 28.7315 9.83536 28.7675 9.83799C28.8238 9.84063 28.8784 9.84239 28.9338 9.84679C28.954 9.84679 28.9733 9.84767 28.9945 9.85031C29.0701 9.85471 29.1475 9.86086 29.2223 9.86878C29.2302 9.86878 29.2363 9.86966 29.2443 9.87142C29.3322 9.87933 29.4202 9.88989 29.5064 9.90132C31.5276 10.1617 33.3245 11.1345 34.6386 12.5576V12.5567Z" fill="url(#paint3_linear_1753_89774)"/>
<path d="M34.6386 12.5567L30.4088 17.6889C30.4088 17.6889 30.4079 17.6889 30.4079 17.688L30.1423 18.0108H21.3397L21.301 17.9915L17.0202 15.8084C17.0202 15.8084 20.0353 18.7928 20.0854 18.8455C20.1365 18.8965 19.943 18.9854 19.943 18.9854L17.8786 17.8077L19.2657 19.1947L18.9552 19.3829L19.0282 20.8025L19.081 21.8088L18.4011 22.99H18.4002L18.0158 23.6593L18.7582 24.4254L19.3413 25.0262H21.1532C21.2764 25.0402 21.7909 25.1106 22.1955 25.5609C22.4066 25.7949 22.4638 26.5909 22.469 27.3183L20.4689 29.745L12.7104 39.1545L12.6963 39.1703V18.3055C12.6963 13.6254 16.4916 9.83008 21.1717 9.83008H28.4096C28.4931 9.83008 28.574 9.83096 28.6558 9.83448C28.6937 9.83448 28.7315 9.83536 28.7675 9.83799C28.8238 9.84063 28.8784 9.84239 28.9338 9.84679C28.954 9.84679 28.9733 9.84767 28.9945 9.85031C29.0701 9.85471 29.1475 9.86086 29.2223 9.86878C29.2302 9.86878 29.2363 9.86966 29.2443 9.87142C29.3322 9.87933 29.4202 9.88989 29.5064 9.90132C31.5276 10.1617 33.3245 11.1345 34.6386 12.5576V12.5567Z" fill="url(#paint4_linear_1753_89774)"/>
<path d="M21.301 17.9906L17.0202 15.8075C17.0202 15.8075 20.0353 18.7919 20.0854 18.8446C20.1365 18.8957 19.943 18.9845 19.943 18.9845L17.8786 17.8068L19.2657 19.1938L18.9552 19.3821L19.0282 20.8017L12.6963 28.6376V18.3055C12.6963 13.6254 16.4916 9.83008 21.1717 9.83008H27.8941L21.3001 17.9906H21.301Z" fill="url(#paint5_linear_1753_89774)"/>
<defs>
<linearGradient id="paint0_linear_1753_89774" x1="36.1979" y1="16.7183" x2="21.7785" y2="40.5982" gradientUnits="userSpaceOnUse">
<stop stop-color="#114FEE"/>
<stop offset="1" stop-color="#15B0F8"/>
</linearGradient>
<linearGradient id="paint1_linear_1753_89774" x1="50.05" y1="10.2544" x2="21.8875" y2="34.4158" gradientUnits="userSpaceOnUse">
<stop stop-color="#020C6A"/>
<stop offset="1" stop-color="#15B0F8" stop-opacity="0"/>
</linearGradient>
<linearGradient id="paint2_linear_1753_89774" x1="29.1402" y1="12.8094" x2="26.7751" y2="37.5284" gradientUnits="userSpaceOnUse">
<stop stop-color="#BFE6ED"/>
<stop offset="1" stop-color="white" stop-opacity="0"/>
</linearGradient>
<linearGradient id="paint3_linear_1753_89774" x1="15.335" y1="34.7417" x2="24.5131" y2="12.5409" gradientUnits="userSpaceOnUse">
<stop stop-color="#0276DB"/>
<stop offset="1" stop-color="#3EDC81"/>
</linearGradient>
<linearGradient id="paint4_linear_1753_89774" x1="15.335" y1="34.7417" x2="24.5131" y2="12.5409" gradientUnits="userSpaceOnUse">
<stop stop-color="#0276DB"/>
<stop offset="1" stop-color="#3EDC81"/>
</linearGradient>
<linearGradient id="paint5_linear_1753_89774" x1="24.1965" y1="7.66461" x2="11.4878" y2="23.7244" gradientUnits="userSpaceOnUse">
<stop offset="0.03" stop-color="#5EFCA1"/>
<stop offset="1" stop-color="#5EFCA1" stop-opacity="0"/>
</linearGradient>
</defs>
</svg>
