<svg width="329" height="116" viewBox="0 0 329 116" fill="none" xmlns="http://www.w3.org/2000/svg">
<path d="M87.168 58.209C87.168 56.1777 86.9857 54.2246 86.6471 52.3496H59.668V63.4434H75.0846C74.4076 67.0111 72.3763 70.0319 69.3294 72.0632V79.2767H78.6263C84.043 74.2767 87.168 66.9329 87.168 58.209Z" fill="#4285F4"/>
<path d="M59.6686 86.2044C67.403 86.2044 73.8874 83.6523 78.627 79.2773L69.3301 72.0638C66.778 73.7826 63.5228 74.8242 59.6686 74.8242C52.2207 74.8242 45.8926 69.7982 43.627 63.0273H34.0957V70.4232C38.8092 79.7721 48.4707 86.2044 59.6686 86.2044Z" fill="#34A853"/>
<path d="M43.6257 63.002C43.0527 61.2832 42.7142 59.4603 42.7142 57.5592C42.7142 55.6582 43.0527 53.8353 43.6257 52.1165V44.7207H34.0944C32.1413 48.5749 31.0215 52.9238 31.0215 57.5592C31.0215 62.1947 32.1413 66.5436 34.0944 70.3978L41.5163 64.6165L43.6257 63.002Z" fill="#FBBC05"/>
<path d="M59.6686 40.3184C63.8874 40.3184 67.6374 41.7767 70.6322 44.5892L78.8353 36.3861C73.8613 31.7507 67.403 28.9121 59.6686 28.9121C48.4707 28.9121 38.8092 35.3444 34.0957 44.7194L43.627 52.1152C45.8926 45.3444 52.2207 40.3184 59.6686 40.3184Z" fill="#EA4335"/>
<path d="M110.132 35.2506C109.279 35.2506 108.489 35.0959 107.764 34.7866C107.039 34.4773 106.404 34.0453 105.86 33.4906C105.316 32.9359 104.889 32.2853 104.58 31.5386C104.281 30.7919 104.132 29.9759 104.132 29.0906C104.132 28.2053 104.276 27.3893 104.564 26.6426C104.863 25.8853 105.279 25.2346 105.812 24.6906C106.356 24.1359 106.991 23.7093 107.716 23.4106C108.441 23.1013 109.231 22.9466 110.084 22.9466C110.937 22.9466 111.7 23.0906 112.372 23.3786C113.055 23.6666 113.631 24.0506 114.1 24.5306C114.569 24.9999 114.905 25.5173 115.108 26.0826L113.172 27.0106C112.948 26.3919 112.569 25.8906 112.036 25.5066C111.503 25.1226 110.852 24.9306 110.084 24.9306C109.337 24.9306 108.676 25.1066 108.1 25.4586C107.535 25.8106 107.092 26.2959 106.772 26.9146C106.463 27.5333 106.308 28.2586 106.308 29.0906C106.308 29.9226 106.468 30.6533 106.788 31.2826C107.119 31.9013 107.572 32.3866 108.148 32.7386C108.724 33.0906 109.385 33.2666 110.132 33.2666C110.74 33.2666 111.3 33.1493 111.812 32.9146C112.324 32.6693 112.735 32.3279 113.044 31.8906C113.353 31.4426 113.508 30.9146 113.508 30.3066V29.3946L114.5 30.2586H110.084V28.4186H115.684V29.6186C115.684 30.5359 115.529 31.3466 115.22 32.0506C114.911 32.7546 114.489 33.3466 113.956 33.8266C113.433 34.2959 112.841 34.6533 112.18 34.8986C111.519 35.1333 110.836 35.2506 110.132 35.2506ZM121.486 35.2506C120.633 35.2506 119.854 35.0533 119.15 34.6586C118.457 34.2639 117.902 33.7253 117.486 33.0426C117.081 32.3599 116.878 31.5813 116.878 30.7066C116.878 29.8319 117.081 29.0533 117.486 28.3706C117.902 27.6879 118.457 27.1493 119.15 26.7546C119.843 26.3599 120.622 26.1626 121.486 26.1626C122.339 26.1626 123.113 26.3599 123.806 26.7546C124.499 27.1493 125.049 27.6879 125.454 28.3706C125.87 29.0426 126.078 29.8213 126.078 30.7066C126.078 31.5813 125.87 32.3599 125.454 33.0426C125.038 33.7253 124.483 34.2639 123.79 34.6586C123.097 35.0533 122.329 35.2506 121.486 35.2506ZM121.486 33.3306C121.955 33.3306 122.366 33.2186 122.718 32.9946C123.081 32.7706 123.363 32.4613 123.566 32.0666C123.779 31.6613 123.886 31.2079 123.886 30.7066C123.886 30.1946 123.779 29.7466 123.566 29.3626C123.363 28.9679 123.081 28.6586 122.718 28.4346C122.366 28.1999 121.955 28.0826 121.486 28.0826C121.006 28.0826 120.585 28.1999 120.222 28.4346C119.859 28.6586 119.571 28.9679 119.358 29.3626C119.155 29.7466 119.054 30.1946 119.054 30.7066C119.054 31.2079 119.155 31.6613 119.358 32.0666C119.571 32.4613 119.859 32.7706 120.222 32.9946C120.585 33.2186 121.006 33.3306 121.486 33.3306ZM131.923 35.2506C131.07 35.2506 130.291 35.0533 129.587 34.6586C128.894 34.2639 128.339 33.7253 127.923 33.0426C127.518 32.3599 127.315 31.5813 127.315 30.7066C127.315 29.8319 127.518 29.0533 127.923 28.3706C128.339 27.6879 128.894 27.1493 129.587 26.7546C130.281 26.3599 131.059 26.1626 131.923 26.1626C132.777 26.1626 133.55 26.3599 134.243 26.7546C134.937 27.1493 135.486 27.6879 135.891 28.3706C136.307 29.0426 136.515 29.8213 136.515 30.7066C136.515 31.5813 136.307 32.3599 135.891 33.0426C135.475 33.7253 134.921 34.2639 134.227 34.6586C133.534 35.0533 132.766 35.2506 131.923 35.2506ZM131.923 33.3306C132.393 33.3306 132.803 33.2186 133.155 32.9946C133.518 32.7706 133.801 32.4613 134.003 32.0666C134.217 31.6613 134.323 31.2079 134.323 30.7066C134.323 30.1946 134.217 29.7466 134.003 29.3626C133.801 28.9679 133.518 28.6586 133.155 28.4346C132.803 28.1999 132.393 28.0826 131.923 28.0826C131.443 28.0826 131.022 28.1999 130.659 28.4346C130.297 28.6586 130.009 28.9679 129.795 29.3626C129.593 29.7466 129.491 30.1946 129.491 30.7066C129.491 31.2079 129.593 31.6613 129.795 32.0666C130.009 32.4613 130.297 32.7706 130.659 32.9946C131.022 33.2186 131.443 33.3306 131.923 33.3306ZM142.329 38.5786C141.678 38.5786 141.076 38.4719 140.521 38.2586C139.966 38.0453 139.486 37.7466 139.081 37.3626C138.686 36.9893 138.398 36.5466 138.217 36.0346L140.169 35.2986C140.297 35.7039 140.548 36.0293 140.921 36.2746C141.305 36.5306 141.774 36.6586 142.329 36.6586C142.756 36.6586 143.129 36.5786 143.449 36.4186C143.78 36.2586 144.036 36.0239 144.217 35.7146C144.398 35.4159 144.489 35.0533 144.489 34.6266V32.6426L144.889 33.1226C144.59 33.6453 144.19 34.0399 143.689 34.3066C143.188 34.5733 142.617 34.7066 141.977 34.7066C141.166 34.7066 140.441 34.5199 139.801 34.1466C139.161 33.7733 138.66 33.2613 138.297 32.6106C137.934 31.9599 137.753 31.2293 137.753 30.4186C137.753 29.5973 137.934 28.8666 138.297 28.2266C138.66 27.5866 139.156 27.0853 139.785 26.7226C140.414 26.3493 141.129 26.1626 141.929 26.1626C142.58 26.1626 143.15 26.3013 143.641 26.5786C144.142 26.8453 144.558 27.2346 144.889 27.7466L144.601 28.2746V26.3546H146.585V34.6266C146.585 35.3839 146.398 36.0613 146.025 36.6586C145.662 37.2559 145.161 37.7253 144.521 38.0666C143.892 38.4079 143.161 38.5786 142.329 38.5786ZM142.233 32.7706C142.681 32.7706 143.07 32.6746 143.401 32.4826C143.742 32.2799 144.009 32.0026 144.201 31.6506C144.393 31.2986 144.489 30.8933 144.489 30.4346C144.489 29.9866 144.388 29.5866 144.185 29.2346C143.993 28.8719 143.726 28.5893 143.385 28.3866C143.054 28.1839 142.67 28.0826 142.233 28.0826C141.796 28.0826 141.401 28.1839 141.049 28.3866C140.697 28.5893 140.42 28.8719 140.217 29.2346C140.025 29.5866 139.929 29.9866 139.929 30.4346C139.929 30.8826 140.025 31.2826 140.217 31.6346C140.42 31.9866 140.692 32.2639 141.033 32.4666C141.385 32.6693 141.785 32.7706 142.233 32.7706ZM148.542 35.0586V22.9466H150.638V35.0586H148.542ZM156.702 35.2506C155.806 35.2506 155.022 35.0479 154.35 34.6426C153.678 34.2373 153.155 33.6879 152.782 32.9946C152.408 32.3013 152.222 31.5333 152.222 30.6906C152.222 29.8159 152.408 29.0426 152.782 28.3706C153.166 27.6879 153.683 27.1493 154.334 26.7546C154.995 26.3599 155.731 26.1626 156.542 26.1626C157.224 26.1626 157.822 26.2746 158.334 26.4986C158.856 26.7226 159.299 27.0319 159.662 27.4266C160.024 27.8213 160.302 28.2746 160.494 28.7866C160.686 29.2879 160.782 29.8319 160.782 30.4186C160.782 30.5679 160.771 30.7226 160.75 30.8826C160.739 31.0426 160.712 31.1813 160.67 31.2986H153.95V29.6986H159.486L158.494 30.4506C158.59 29.9599 158.563 29.5226 158.414 29.1386C158.275 28.7546 158.04 28.4506 157.71 28.2266C157.39 28.0026 157 27.8906 156.542 27.8906C156.104 27.8906 155.715 28.0026 155.374 28.2266C155.032 28.4399 154.771 28.7599 154.59 29.1866C154.419 29.6026 154.355 30.1093 154.398 30.7066C154.355 31.2399 154.424 31.7146 154.606 32.1306C154.798 32.5359 155.075 32.8506 155.438 33.0746C155.811 33.2986 156.238 33.4106 156.718 33.4106C157.198 33.4106 157.603 33.3093 157.934 33.1066C158.275 32.9039 158.542 32.6319 158.734 32.2906L160.43 33.1226C160.259 33.5386 159.992 33.9066 159.63 34.2266C159.267 34.5466 158.835 34.7973 158.334 34.9786C157.843 35.1599 157.299 35.2506 156.702 35.2506ZM165.39 35.0586V23.1386H169.822C170.633 23.1386 171.348 23.2879 171.966 23.5866C172.596 23.8746 173.086 24.3013 173.438 24.8666C173.79 25.4213 173.966 26.0986 173.966 26.8986C173.966 27.7199 173.769 28.4186 173.374 28.9946C172.99 29.5706 172.468 29.9973 171.806 30.2746L174.542 35.0586H172.078L169.15 29.8266L170.558 30.6586H167.566V35.0586H165.39ZM167.566 28.7386H169.854C170.249 28.7386 170.59 28.6639 170.878 28.5146C171.166 28.3546 171.39 28.1359 171.55 27.8586C171.71 27.5813 171.79 27.2613 171.79 26.8986C171.79 26.5253 171.71 26.2053 171.55 25.9386C171.39 25.6613 171.166 25.4479 170.878 25.2986C170.59 25.1386 170.249 25.0586 169.854 25.0586H167.566V28.7386ZM178.432 35.2506C177.824 35.2506 177.296 35.1493 176.848 34.9466C176.4 34.7439 176.054 34.4559 175.808 34.0826C175.563 33.6986 175.44 33.2559 175.44 32.7546C175.44 32.2746 175.547 31.8479 175.76 31.4746C175.974 31.0906 176.304 30.7706 176.752 30.5146C177.2 30.2586 177.766 30.0773 178.448 29.9706L181.296 29.5066V31.1066L178.848 31.5226C178.432 31.5973 178.123 31.7306 177.92 31.9226C177.718 32.1146 177.616 32.3653 177.616 32.6746C177.616 32.9733 177.728 33.2133 177.952 33.3946C178.187 33.5653 178.475 33.6506 178.816 33.6506C179.254 33.6506 179.638 33.5599 179.968 33.3786C180.31 33.1866 180.571 32.9253 180.752 32.5946C180.944 32.2639 181.04 31.9013 181.04 31.5066V29.2666C181.04 28.8933 180.891 28.5839 180.592 28.3386C180.304 28.0826 179.92 27.9546 179.44 27.9546C178.992 27.9546 178.592 28.0773 178.24 28.3226C177.899 28.5573 177.648 28.8719 177.488 29.2666L175.776 28.4346C175.947 27.9759 176.214 27.5813 176.576 27.2506C176.95 26.9093 177.387 26.6426 177.888 26.4506C178.39 26.2586 178.934 26.1626 179.52 26.1626C180.235 26.1626 180.864 26.2959 181.408 26.5626C181.952 26.8186 182.374 27.1813 182.672 27.6506C182.982 28.1093 183.136 28.6479 183.136 29.2666V35.0586H181.152V33.5706L181.6 33.5386C181.376 33.9119 181.11 34.2266 180.8 34.4826C180.491 34.7279 180.139 34.9199 179.744 35.0586C179.35 35.1866 178.912 35.2506 178.432 35.2506ZM188.885 35.1546C187.904 35.1546 187.141 34.8879 186.597 34.3546C186.064 33.8106 185.797 33.0479 185.797 32.0666V28.2266H184.293V26.3546H184.453C184.88 26.3546 185.211 26.2426 185.445 26.0186C185.68 25.7946 185.797 25.4693 185.797 25.0426V24.3706H187.893V26.3546H189.893V28.2266H187.893V31.9546C187.893 32.2426 187.941 32.4879 188.037 32.6906C188.144 32.8933 188.304 33.0479 188.517 33.1546C188.741 33.2613 189.024 33.3146 189.365 33.3146C189.44 33.3146 189.525 33.3093 189.621 33.2986C189.728 33.2879 189.829 33.2773 189.925 33.2666V35.0586C189.776 35.0799 189.605 35.1013 189.413 35.1226C189.221 35.1439 189.045 35.1546 188.885 35.1546ZM191.527 35.0586V26.3546H193.623V35.0586H191.527ZM191.527 25.3786V23.1386H193.623V25.3786H191.527ZM195.558 35.0586V26.3546H197.526V28.0666L197.366 27.7626C197.569 27.2399 197.899 26.8453 198.358 26.5786C198.827 26.3013 199.371 26.1626 199.99 26.1626C200.63 26.1626 201.195 26.3013 201.686 26.5786C202.187 26.8559 202.577 27.2453 202.854 27.7466C203.131 28.2373 203.27 28.8079 203.27 29.4586V35.0586H201.174V29.9546C201.174 29.5706 201.099 29.2399 200.95 28.9626C200.801 28.6853 200.593 28.4719 200.326 28.3226C200.07 28.1626 199.766 28.0826 199.414 28.0826C199.073 28.0826 198.769 28.1626 198.502 28.3226C198.235 28.4719 198.027 28.6853 197.878 28.9626C197.729 29.2399 197.654 29.5706 197.654 29.9546V35.0586H195.558ZM209.266 38.5786C208.616 38.5786 208.013 38.4719 207.458 38.2586C206.904 38.0453 206.424 37.7466 206.018 37.3626C205.624 36.9893 205.336 36.5466 205.154 36.0346L207.106 35.2986C207.234 35.7039 207.485 36.0293 207.858 36.2746C208.242 36.5306 208.712 36.6586 209.266 36.6586C209.693 36.6586 210.066 36.5786 210.386 36.4186C210.717 36.2586 210.973 36.0239 211.154 35.7146C211.336 35.4159 211.426 35.0533 211.426 34.6266V32.6426L211.826 33.1226C211.528 33.6453 211.128 34.0399 210.626 34.3066C210.125 34.5733 209.554 34.7066 208.914 34.7066C208.104 34.7066 207.378 34.5199 206.738 34.1466C206.098 33.7733 205.597 33.2613 205.234 32.6106C204.872 31.9599 204.69 31.2293 204.69 30.4186C204.69 29.5973 204.872 28.8666 205.234 28.2266C205.597 27.5866 206.093 27.0853 206.722 26.7226C207.352 26.3493 208.066 26.1626 208.866 26.1626C209.517 26.1626 210.088 26.3013 210.578 26.5786C211.08 26.8453 211.496 27.2346 211.826 27.7466L211.538 28.2746V26.3546H213.522V34.6266C213.522 35.3839 213.336 36.0613 212.962 36.6586C212.6 37.2559 212.098 37.7253 211.458 38.0666C210.829 38.4079 210.098 38.5786 209.266 38.5786ZM209.17 32.7706C209.618 32.7706 210.008 32.6746 210.338 32.4826C210.68 32.2799 210.946 32.0026 211.138 31.6506C211.33 31.2986 211.426 30.8933 211.426 30.4346C211.426 29.9866 211.325 29.5866 211.122 29.2346C210.93 28.8719 210.664 28.5893 210.322 28.3866C209.992 28.1839 209.608 28.0826 209.17 28.0826C208.733 28.0826 208.338 28.1839 207.986 28.3866C207.634 28.5893 207.357 28.8719 207.154 29.2346C206.962 29.5866 206.866 29.9866 206.866 30.4346C206.866 30.8826 206.962 31.2826 207.154 31.6346C207.357 31.9866 207.629 32.2639 207.97 32.4666C208.322 32.6693 208.722 32.7706 209.17 32.7706Z" fill="white"/>
<path d="M110.326 68.3466C109.382 68.3466 108.47 68.1706 107.59 67.8186C106.71 67.4506 105.958 66.9386 105.334 66.2826C104.71 65.6106 104.302 64.8106 104.11 63.8826L107.398 62.7786C107.638 63.5466 108.022 64.1066 108.55 64.4586C109.078 64.8106 109.67 64.9866 110.326 64.9866C110.886 64.9866 111.374 64.8746 111.79 64.6506C112.206 64.4106 112.526 64.0826 112.75 63.6666C112.99 63.2346 113.11 62.7386 113.11 62.1786C113.11 61.6186 112.99 61.1306 112.75 60.7146C112.526 60.2986 112.206 59.9786 111.79 59.7546C111.374 59.5146 110.886 59.3946 110.326 59.3946C109.75 59.3946 109.238 59.5226 108.79 59.7786C108.342 60.0186 108.014 60.3946 107.806 60.9066L104.758 60.1866L106.198 50.1786H116.182V53.2986H107.71L109.102 51.6186L108.118 59.0586L107.11 58.1706C107.51 57.5146 108.014 57.0346 108.622 56.7306C109.246 56.4266 110.046 56.2746 111.022 56.2746C112.222 56.2746 113.254 56.5306 114.118 57.0426C114.982 57.5386 115.646 58.2266 116.11 59.1066C116.59 59.9866 116.83 61.0106 116.83 62.1786C116.83 63.3466 116.542 64.4026 115.966 65.3466C115.406 66.2746 114.638 67.0106 113.662 67.5546C112.686 68.0826 111.574 68.3466 110.326 68.3466ZM121.084 68.0586V64.4586H124.684V68.0586H121.084ZM136.185 68.3466C134.761 68.3466 133.505 67.9626 132.417 67.1946C131.345 66.4266 130.505 65.3466 129.897 63.9546C129.289 62.5626 128.985 60.9466 128.985 59.1066C128.985 57.2506 129.281 55.6346 129.873 54.2586C130.481 52.8826 131.321 51.8106 132.393 51.0426C133.481 50.2746 134.737 49.8906 136.161 49.8906C137.617 49.8906 138.881 50.2746 139.953 51.0426C141.041 51.8106 141.881 52.8906 142.473 54.2826C143.081 55.6586 143.385 57.2666 143.385 59.1066C143.385 60.9466 143.081 62.5626 142.473 63.9546C141.881 65.3306 141.041 66.4106 139.953 67.1946C138.881 67.9626 137.625 68.3466 136.185 68.3466ZM136.209 64.9866C136.945 64.9866 137.569 64.7546 138.081 64.2906C138.593 63.8266 138.985 63.1546 139.257 62.2746C139.529 61.3946 139.665 60.3386 139.665 59.1066C139.665 57.8746 139.529 56.8266 139.257 55.9626C138.985 55.0826 138.585 54.4106 138.057 53.9466C137.545 53.4826 136.913 53.2506 136.161 53.2506C135.425 53.2506 134.801 53.4826 134.289 53.9466C133.777 54.4106 133.385 55.0826 133.113 55.9626C132.841 56.8266 132.705 57.8746 132.705 59.1066C132.705 60.3226 132.841 61.3706 133.113 62.2506C133.385 63.1306 133.777 63.8106 134.289 64.2906C134.817 64.7546 135.457 64.9866 136.209 64.9866Z" fill="#FEA500"/>
<path d="M174.022 45.861C174.39 45.121 175.446 45.121 175.814 45.861L178.817 51.9051C178.962 52.1981 179.242 52.4014 179.566 52.4493L186.242 53.4376C187.059 53.5586 187.385 54.5627 186.795 55.1411L181.975 59.8648C181.741 60.0938 181.634 60.4227 181.689 60.7454L182.812 67.4002C182.95 68.2151 182.095 68.8356 181.363 68.453L175.381 65.3284C175.091 65.1769 174.745 65.1769 174.455 65.3284L168.473 68.453C167.74 68.8356 166.886 68.2151 167.024 67.4002L168.147 60.7454C168.201 60.4227 168.095 60.0938 167.861 59.8648L163.041 55.1411C162.45 54.5627 162.777 53.5586 163.594 53.4376L170.27 52.4493C170.594 52.4014 170.874 52.1981 171.019 51.9051L174.022 45.861Z" fill="#FEA500"/>
<path d="M202.022 45.861C202.39 45.121 203.446 45.121 203.814 45.861L206.817 51.9051C206.962 52.1981 207.242 52.4014 207.566 52.4493L214.242 53.4376C215.059 53.5586 215.385 54.5627 214.795 55.1411L209.975 59.8648C209.741 60.0938 209.634 60.4227 209.689 60.7454L210.812 67.4002C210.95 68.2151 210.095 68.8356 209.363 68.453L203.381 65.3284C203.091 65.1769 202.745 65.1769 202.455 65.3284L196.473 68.453C195.74 68.8356 194.886 68.2151 195.024 67.4002L196.147 60.7454C196.201 60.4227 196.095 60.0938 195.861 59.8648L191.041 55.1411C190.45 54.5627 190.777 53.5586 191.594 53.4376L198.27 52.4493C198.594 52.4014 198.874 52.1981 199.019 51.9051L202.022 45.861Z" fill="#FEA500"/>
<path d="M230.022 45.861C230.39 45.121 231.446 45.121 231.814 45.861L234.817 51.9051C234.962 52.1981 235.242 52.4014 235.566 52.4493L242.242 53.4376C243.059 53.5586 243.385 54.5627 242.795 55.1411L237.975 59.8648C237.741 60.0938 237.634 60.4227 237.689 60.7454L238.812 67.4002C238.95 68.2151 238.095 68.8356 237.363 68.453L231.381 65.3284C231.091 65.1769 230.745 65.1769 230.455 65.3284L224.473 68.453C223.74 68.8356 222.886 68.2151 223.024 67.4002L224.147 60.7454C224.201 60.4227 224.095 60.0938 223.861 59.8648L219.041 55.1411C218.45 54.5627 218.777 53.5586 219.594 53.4376L226.27 52.4493C226.594 52.4014 226.874 52.1981 227.019 51.9051L230.022 45.861Z" fill="#FEA500"/>
<path d="M258.022 45.861C258.39 45.121 259.446 45.121 259.814 45.861L262.817 51.9051C262.962 52.1981 263.242 52.4014 263.566 52.4493L270.242 53.4376C271.059 53.5586 271.385 54.5627 270.795 55.1411L265.975 59.8648C265.741 60.0938 265.634 60.4227 265.689 60.7454L266.812 67.4002C266.95 68.2151 266.095 68.8356 265.363 68.453L259.381 65.3284C259.091 65.1769 258.745 65.1769 258.455 65.3284L252.473 68.453C251.74 68.8356 250.886 68.2151 251.024 67.4002L252.147 60.7454C252.201 60.4227 252.095 60.0938 251.861 59.8648L247.041 55.1411C246.45 54.5627 246.777 53.5586 247.594 53.4376L254.27 52.4493C254.594 52.4014 254.874 52.1981 255.019 51.9051L258.022 45.861Z" fill="#FEA500"/>
<path d="M286.022 45.861C286.39 45.121 287.446 45.121 287.814 45.861L290.817 51.9051C290.962 52.1981 291.242 52.4014 291.566 52.4493L298.242 53.4376C299.059 53.5586 299.385 54.5627 298.795 55.1411L293.975 59.8648C293.741 60.0938 293.634 60.4227 293.689 60.7454L294.812 67.4002C294.95 68.2151 294.095 68.8356 293.363 68.453L287.381 65.3284C287.091 65.1769 286.745 65.1769 286.455 65.3284L280.473 68.453C279.74 68.8356 278.886 68.2151 279.024 67.4002L280.147 60.7454C280.201 60.4227 280.095 60.0938 279.861 59.8648L275.041 55.1411C274.45 54.5627 274.777 53.5586 275.594 53.4376L282.27 52.4493C282.594 52.4014 282.874 52.1981 283.019 51.9051L286.022 45.861Z" fill="#FEA500"/>
<path d="M107.435 92.2026C106.867 92.2026 106.351 92.0946 105.887 91.8786C105.423 91.6626 105.031 91.3746 104.711 91.0146C104.391 90.6466 104.163 90.2426 104.027 89.8026L104.891 89.4786C105.099 90.0866 105.423 90.5506 105.863 90.8706C106.303 91.1826 106.827 91.3386 107.435 91.3386C107.819 91.3386 108.155 91.2786 108.443 91.1586C108.739 91.0306 108.967 90.8546 109.127 90.6306C109.287 90.4066 109.367 90.1466 109.367 89.8506C109.367 89.4106 109.247 89.0706 109.007 88.8306C108.767 88.5906 108.423 88.4066 107.975 88.2786L106.367 87.7986C105.735 87.6146 105.247 87.3066 104.903 86.8746C104.567 86.4426 104.399 85.9506 104.399 85.3986C104.399 84.9266 104.515 84.5106 104.747 84.1506C104.979 83.7826 105.295 83.4946 105.695 83.2866C106.103 83.0786 106.563 82.9746 107.075 82.9746C107.611 82.9746 108.091 83.0746 108.515 83.2746C108.947 83.4666 109.311 83.7226 109.607 84.0426C109.903 84.3626 110.115 84.7186 110.243 85.1106L109.403 85.4466C109.211 84.9186 108.911 84.5186 108.503 84.2466C108.103 83.9746 107.631 83.8386 107.087 83.8386C106.743 83.8386 106.439 83.8986 106.175 84.0186C105.919 84.1386 105.719 84.3106 105.575 84.5346C105.431 84.7586 105.359 85.0226 105.359 85.3266C105.359 85.6946 105.475 86.0266 105.707 86.3226C105.939 86.6106 106.295 86.8266 106.775 86.9706L108.191 87.3906C108.895 87.5986 109.427 87.8986 109.787 88.2906C110.147 88.6826 110.327 89.1746 110.327 89.7666C110.327 90.2466 110.203 90.6706 109.955 91.0386C109.715 91.3986 109.375 91.6826 108.935 91.8906C108.503 92.0986 108.003 92.2026 107.435 92.2026ZM114.977 92.2026C114.377 92.2026 113.833 92.0586 113.345 91.7706C112.865 91.4746 112.485 91.0706 112.205 90.5586C111.925 90.0466 111.785 89.4666 111.785 88.8186C111.785 88.1706 111.921 87.5986 112.193 87.1026C112.465 86.5986 112.833 86.2026 113.297 85.9146C113.769 85.6266 114.297 85.4826 114.881 85.4826C115.345 85.4826 115.757 85.5706 116.117 85.7466C116.485 85.9146 116.797 86.1466 117.053 86.4426C117.309 86.7306 117.505 87.0586 117.641 87.4266C117.777 87.7866 117.845 88.1586 117.845 88.5426C117.845 88.6226 117.841 88.7146 117.833 88.8186C117.825 88.9146 117.813 89.0146 117.797 89.1186H112.361V88.2786H117.281L116.849 88.6386C116.921 88.1986 116.869 87.8066 116.693 87.4626C116.525 87.1106 116.281 86.8346 115.961 86.6346C115.641 86.4266 115.281 86.3226 114.881 86.3226C114.481 86.3226 114.109 86.4266 113.765 86.6346C113.429 86.8426 113.165 87.1346 112.973 87.5106C112.781 87.8786 112.705 88.3186 112.745 88.8306C112.705 89.3426 112.785 89.7906 112.985 90.1746C113.193 90.5506 113.473 90.8426 113.825 91.0506C114.185 91.2586 114.569 91.3626 114.977 91.3626C115.449 91.3626 115.845 91.2506 116.165 91.0266C116.485 90.8026 116.745 90.5226 116.945 90.1866L117.713 90.5946C117.585 90.8826 117.389 91.1506 117.125 91.3986C116.861 91.6386 116.545 91.8346 116.177 91.9866C115.817 92.1306 115.417 92.2026 114.977 92.2026ZM122.36 92.2026C121.76 92.2026 121.216 92.0586 120.728 91.7706C120.248 91.4746 119.868 91.0706 119.588 90.5586C119.308 90.0466 119.168 89.4666 119.168 88.8186C119.168 88.1706 119.304 87.5986 119.576 87.1026C119.848 86.5986 120.216 86.2026 120.68 85.9146C121.152 85.6266 121.68 85.4826 122.264 85.4826C122.728 85.4826 123.14 85.5706 123.5 85.7466C123.868 85.9146 124.18 86.1466 124.436 86.4426C124.692 86.7306 124.888 87.0586 125.024 87.4266C125.16 87.7866 125.228 88.1586 125.228 88.5426C125.228 88.6226 125.224 88.7146 125.216 88.8186C125.208 88.9146 125.196 89.0146 125.18 89.1186H119.744V88.2786H124.664L124.232 88.6386C124.304 88.1986 124.252 87.8066 124.076 87.4626C123.908 87.1106 123.664 86.8346 123.344 86.6346C123.024 86.4266 122.664 86.3226 122.264 86.3226C121.864 86.3226 121.492 86.4266 121.148 86.6346C120.812 86.8426 120.548 87.1346 120.356 87.5106C120.164 87.8786 120.088 88.3186 120.128 88.8306C120.088 89.3426 120.168 89.7906 120.368 90.1746C120.576 90.5506 120.856 90.8426 121.208 91.0506C121.568 91.2586 121.952 91.3626 122.36 91.3626C122.832 91.3626 123.228 91.2506 123.548 91.0266C123.868 90.8026 124.128 90.5226 124.328 90.1866L125.096 90.5946C124.968 90.8826 124.772 91.1506 124.508 91.3986C124.244 91.6386 123.928 91.8346 123.56 91.9866C123.2 92.1306 122.8 92.2026 122.36 92.2026ZM130.714 92.2026C130.306 92.2026 129.942 92.1266 129.622 91.9746C129.302 91.8146 129.05 91.5986 128.866 91.3266C128.682 91.0546 128.59 90.7426 128.59 90.3906C128.59 90.0546 128.662 89.7506 128.806 89.4786C128.95 89.1986 129.174 88.9626 129.478 88.7706C129.782 88.5786 130.17 88.4426 130.642 88.3626L133.162 87.9426V88.7586L130.858 89.1426C130.394 89.2226 130.058 89.3706 129.85 89.5866C129.65 89.8026 129.55 90.0586 129.55 90.3546C129.55 90.6426 129.662 90.8866 129.886 91.0866C130.118 91.2866 130.414 91.3866 130.774 91.3866C131.214 91.3866 131.598 91.2946 131.926 91.1106C132.254 90.9186 132.51 90.6626 132.694 90.3426C132.878 90.0226 132.97 89.6666 132.97 89.2746V87.6426C132.97 87.2586 132.83 86.9466 132.55 86.7066C132.27 86.4666 131.906 86.3466 131.458 86.3466C131.066 86.3466 130.722 86.4466 130.426 86.6466C130.13 86.8386 129.91 87.0906 129.766 87.4026L128.95 86.9586C129.07 86.6866 129.258 86.4386 129.514 86.2146C129.778 85.9906 130.078 85.8146 130.414 85.6866C130.75 85.5506 131.098 85.4826 131.458 85.4826C131.93 85.4826 132.346 85.5746 132.706 85.7586C133.074 85.9426 133.358 86.1986 133.558 86.5266C133.766 86.8466 133.87 87.2186 133.87 87.6426V92.0586H132.97V90.7746L133.102 90.9066C132.99 91.1466 132.814 91.3666 132.574 91.5666C132.342 91.7586 132.066 91.9146 131.746 92.0346C131.434 92.1466 131.09 92.2026 130.714 92.2026ZM135.721 92.0586V82.9746H136.621V92.0586H135.721ZM138.463 92.0586V82.9746H139.363V92.0586H138.463ZM146.256 92.2026C145.648 92.2026 145.096 92.0586 144.6 91.7706C144.104 91.4746 143.708 91.0746 143.412 90.5706C143.124 90.0586 142.98 89.4786 142.98 88.8306C142.98 88.1906 143.124 87.6186 143.412 87.1146C143.7 86.6106 144.088 86.2146 144.576 85.9266C145.072 85.6306 145.632 85.4826 146.256 85.4826C146.88 85.4826 147.436 85.6266 147.924 85.9146C148.42 86.2026 148.808 86.5986 149.088 87.1026C149.376 87.6066 149.52 88.1826 149.52 88.8306C149.52 89.4866 149.372 90.0706 149.076 90.5826C148.78 91.0866 148.384 91.4826 147.888 91.7706C147.4 92.0586 146.856 92.2026 146.256 92.2026ZM146.256 91.3026C146.688 91.3026 147.076 91.1946 147.42 90.9786C147.772 90.7626 148.048 90.4666 148.248 90.0906C148.456 89.7146 148.56 89.2946 148.56 88.8306C148.56 88.3666 148.456 87.9506 148.248 87.5826C148.048 87.2146 147.772 86.9226 147.42 86.7066C147.076 86.4906 146.688 86.3826 146.256 86.3826C145.824 86.3826 145.432 86.4906 145.08 86.7066C144.736 86.9226 144.46 87.2146 144.252 87.5826C144.044 87.9506 143.94 88.3666 143.94 88.8306C143.94 89.2946 144.044 89.7146 144.252 90.0906C144.46 90.4666 144.736 90.7626 145.08 90.9786C145.432 91.1946 145.824 91.3026 146.256 91.3026ZM153.388 92.2026C152.94 92.2026 152.532 92.0986 152.164 91.8906C151.796 91.6746 151.504 91.3786 151.288 91.0026C151.08 90.6186 150.976 90.1786 150.976 89.6826V85.6266H151.876V89.5746C151.876 89.9186 151.944 90.2226 152.08 90.4866C152.224 90.7426 152.42 90.9426 152.668 91.0866C152.924 91.2306 153.216 91.3026 153.544 91.3026C153.872 91.3026 154.164 91.2306 154.42 91.0866C154.676 90.9346 154.876 90.7226 155.02 90.4506C155.164 90.1706 155.236 89.8386 155.236 89.4546V85.6266H156.136V92.0586H155.236V90.8106L155.44 90.8586C155.288 91.2746 155.028 91.6026 154.66 91.8426C154.292 92.0826 153.868 92.2026 153.388 92.2026ZM157.987 92.0586V85.6266H158.887V86.6826L158.767 86.5266C158.919 86.2226 159.147 85.9826 159.451 85.8066C159.763 85.6306 160.139 85.5426 160.579 85.5426H160.987V86.4426H160.423C159.959 86.4426 159.587 86.5866 159.307 86.8746C159.027 87.1626 158.887 87.5706 158.887 88.0986V92.0586H157.987ZM164.08 92.0586V85.6266H164.98V86.6826L164.86 86.5266C165.012 86.2226 165.24 85.9826 165.544 85.8066C165.856 85.6306 166.232 85.5426 166.672 85.5426H167.08V86.4426H166.516C166.052 86.4426 165.68 86.5866 165.4 86.8746C165.12 87.1626 164.98 87.5706 164.98 88.0986V92.0586H164.08ZM171.063 92.2026C170.463 92.2026 169.919 92.0586 169.431 91.7706C168.951 91.4746 168.571 91.0706 168.291 90.5586C168.011 90.0466 167.871 89.4666 167.871 88.8186C167.871 88.1706 168.007 87.5986 168.279 87.1026C168.551 86.5986 168.919 86.2026 169.383 85.9146C169.855 85.6266 170.383 85.4826 170.967 85.4826C171.431 85.4826 171.843 85.5706 172.203 85.7466C172.571 85.9146 172.883 86.1466 173.139 86.4426C173.395 86.7306 173.591 87.0586 173.727 87.4266C173.863 87.7866 173.931 88.1586 173.931 88.5426C173.931 88.6226 173.927 88.7146 173.919 88.8186C173.911 88.9146 173.899 89.0146 173.883 89.1186H168.447V88.2786H173.367L172.935 88.6386C173.007 88.1986 172.955 87.8066 172.779 87.4626C172.611 87.1106 172.367 86.8346 172.047 86.6346C171.727 86.4266 171.367 86.3226 170.967 86.3226C170.567 86.3226 170.195 86.4266 169.851 86.6346C169.515 86.8426 169.251 87.1346 169.059 87.5106C168.867 87.8786 168.791 88.3186 168.831 88.8306C168.791 89.3426 168.871 89.7906 169.071 90.1746C169.279 90.5506 169.559 90.8426 169.911 91.0506C170.271 91.2586 170.655 91.3626 171.063 91.3626C171.535 91.3626 171.931 91.2506 172.251 91.0266C172.571 90.8026 172.831 90.5226 173.031 90.1866L173.799 90.5946C173.671 90.8826 173.475 91.1506 173.211 91.3986C172.947 91.6386 172.631 91.8346 172.263 91.9866C171.903 92.1306 171.503 92.2026 171.063 92.2026ZM177.117 92.0586L174.609 85.6266H175.617L177.729 91.2666H177.405L179.529 85.6266H180.549L178.017 92.0586H177.117ZM181.6 92.0586V85.6266H182.5V92.0586H181.6ZM181.6 84.4386V83.1186H182.5V84.4386H181.6ZM187.27 92.2026C186.67 92.2026 186.126 92.0586 185.638 91.7706C185.158 91.4746 184.778 91.0706 184.498 90.5586C184.218 90.0466 184.078 89.4666 184.078 88.8186C184.078 88.1706 184.214 87.5986 184.486 87.1026C184.758 86.5986 185.126 86.2026 185.59 85.9146C186.062 85.6266 186.59 85.4826 187.174 85.4826C187.638 85.4826 188.05 85.5706 188.41 85.7466C188.778 85.9146 189.09 86.1466 189.346 86.4426C189.602 86.7306 189.798 87.0586 189.934 87.4266C190.07 87.7866 190.138 88.1586 190.138 88.5426C190.138 88.6226 190.134 88.7146 190.126 88.8186C190.118 88.9146 190.106 89.0146 190.09 89.1186H184.654V88.2786H189.574L189.142 88.6386C189.214 88.1986 189.162 87.8066 188.986 87.4626C188.818 87.1106 188.574 86.8346 188.254 86.6346C187.934 86.4266 187.574 86.3226 187.174 86.3226C186.774 86.3226 186.402 86.4266 186.058 86.6346C185.722 86.8426 185.458 87.1346 185.266 87.5106C185.074 87.8786 184.998 88.3186 185.038 88.8306C184.998 89.3426 185.078 89.7906 185.278 90.1746C185.486 90.5506 185.766 90.8426 186.118 91.0506C186.478 91.2586 186.862 91.3626 187.27 91.3626C187.742 91.3626 188.138 91.2506 188.458 91.0266C188.778 90.8026 189.038 90.5226 189.238 90.1866L190.006 90.5946C189.878 90.8826 189.682 91.1506 189.418 91.3986C189.154 91.6386 188.838 91.8346 188.47 91.9866C188.11 92.1306 187.71 92.2026 187.27 92.2026ZM193.141 92.0586L190.933 85.6266H191.953L193.777 91.2546H193.417L195.133 85.6266H196.033L197.749 91.2546H197.389L199.225 85.6266H200.233L198.025 92.0586H197.125L195.457 86.5506H195.709L194.041 92.0586H193.141ZM203.519 92.2026C202.903 92.2026 202.363 92.0466 201.899 91.7346C201.435 91.4226 201.099 90.9986 200.891 90.4626L201.647 90.1026C201.831 90.4946 202.087 90.8066 202.415 91.0386C202.751 91.2706 203.119 91.3866 203.519 91.3866C203.903 91.3866 204.227 91.2946 204.491 91.1106C204.755 90.9186 204.887 90.6706 204.887 90.3666C204.887 90.1426 204.823 89.9666 204.695 89.8386C204.567 89.7026 204.419 89.5986 204.251 89.5266C204.083 89.4546 203.935 89.4026 203.807 89.3706L202.883 89.1066C202.291 88.9386 201.863 88.7026 201.599 88.3986C201.335 88.0946 201.203 87.7426 201.203 87.3426C201.203 86.9666 201.299 86.6386 201.491 86.3586C201.683 86.0786 201.943 85.8626 202.271 85.7106C202.599 85.5586 202.963 85.4826 203.363 85.4826C203.907 85.4826 204.399 85.6266 204.839 85.9146C205.287 86.1946 205.603 86.5866 205.787 87.0906L205.019 87.4506C204.859 87.0906 204.627 86.8106 204.323 86.6106C204.027 86.4026 203.695 86.2986 203.327 86.2986C202.967 86.2986 202.679 86.3906 202.463 86.5746C202.247 86.7586 202.139 86.9906 202.139 87.2706C202.139 87.4866 202.195 87.6586 202.307 87.7866C202.419 87.9146 202.547 88.0106 202.691 88.0746C202.843 88.1386 202.975 88.1866 203.087 88.2186L204.155 88.5306C204.675 88.6826 205.079 88.9186 205.367 89.2386C205.663 89.5586 205.811 89.9346 205.811 90.3666C205.811 90.7186 205.711 91.0346 205.511 91.3146C205.319 91.5946 205.051 91.8146 204.707 91.9746C204.363 92.1266 203.967 92.2026 203.519 92.2026Z" fill="#868686"/>
</svg>
