<svg width="452" height="346" viewBox="0 0 452 346" fill="none" xmlns="http://www.w3.org/2000/svg">
<path d="M26.2012 0.5H425.802C430.29 0.5 433.627 0.500865 436.27 0.716797C438.907 0.932258 440.809 1.3594 442.438 2.18945C445.355 3.67544 447.726 6.04654 449.212 8.96289C450.042 10.5919 450.47 12.4948 450.686 15.1318C450.901 17.7747 450.901 21.1111 450.901 25.5996V320.4C450.901 324.889 450.901 328.225 450.686 330.868C450.47 333.505 450.042 335.408 449.212 337.037C447.726 339.953 445.355 342.325 442.438 343.811C440.809 344.641 438.907 345.068 436.27 345.283C433.627 345.499 430.29 345.5 425.802 345.5H26.2012C21.7127 345.5 18.3763 345.499 15.7334 345.283C13.0964 345.068 11.1935 344.641 9.56445 343.811C6.64812 342.325 4.27702 339.953 2.79102 337.037C1.96098 335.408 1.53382 333.505 1.31836 330.868C1.10243 328.225 1.10156 324.889 1.10156 320.4V25.5996C1.10156 21.1111 1.10243 17.7747 1.31836 15.1318C1.53382 12.4948 1.96098 10.5919 2.79102 8.96289C4.27702 6.04656 6.64812 3.67546 9.56445 2.18945C11.1935 1.35942 13.0964 0.932261 15.7334 0.716797C17.7156 0.554844 20.088 0.514138 23.0439 0.503906L26.2012 0.5Z" fill="url(#paint0_linear_1644_5653)"/>
<path d="M26.2012 0.5H425.802C430.29 0.5 433.627 0.500865 436.27 0.716797C438.907 0.932258 440.809 1.3594 442.438 2.18945C445.355 3.67544 447.726 6.04654 449.212 8.96289C450.042 10.5919 450.47 12.4948 450.686 15.1318C450.901 17.7747 450.901 21.1111 450.901 25.5996V320.4C450.901 324.889 450.901 328.225 450.686 330.868C450.47 333.505 450.042 335.408 449.212 337.037C447.726 339.953 445.355 342.325 442.438 343.811C440.809 344.641 438.907 345.068 436.27 345.283C433.627 345.499 430.29 345.5 425.802 345.5H26.2012C21.7127 345.5 18.3763 345.499 15.7334 345.283C13.0964 345.068 11.1935 344.641 9.56445 343.811C6.64812 342.325 4.27702 339.953 2.79102 337.037C1.96098 335.408 1.53382 333.505 1.31836 330.868C1.10243 328.225 1.10156 324.889 1.10156 320.4V25.5996C1.10156 21.1111 1.10243 17.7747 1.31836 15.1318C1.53382 12.4948 1.96098 10.5919 2.79102 8.96289C4.27702 6.04656 6.64812 3.67546 9.56445 2.18945C11.1935 1.35942 13.0964 0.932261 15.7334 0.716797C17.7156 0.554844 20.088 0.514138 23.0439 0.503906L26.2012 0.5Z" fill="url(#paint1_radial_1644_5653)"/>
<path d="M26.2012 0.5H425.802C430.29 0.5 433.627 0.500865 436.27 0.716797C438.907 0.932258 440.809 1.3594 442.438 2.18945C445.355 3.67544 447.726 6.04654 449.212 8.96289C450.042 10.5919 450.47 12.4948 450.686 15.1318C450.901 17.7747 450.901 21.1111 450.901 25.5996V320.4C450.901 324.889 450.901 328.225 450.686 330.868C450.47 333.505 450.042 335.408 449.212 337.037C447.726 339.953 445.355 342.325 442.438 343.811C440.809 344.641 438.907 345.068 436.27 345.283C433.627 345.499 430.29 345.5 425.802 345.5H26.2012C21.7127 345.5 18.3763 345.499 15.7334 345.283C13.0964 345.068 11.1935 344.641 9.56445 343.811C6.64812 342.325 4.27702 339.953 2.79102 337.037C1.96098 335.408 1.53382 333.505 1.31836 330.868C1.10243 328.225 1.10156 324.889 1.10156 320.4V25.5996C1.10156 21.1111 1.10243 17.7747 1.31836 15.1318C1.53382 12.4948 1.96098 10.5919 2.79102 8.96289C4.27702 6.04656 6.64812 3.67546 9.56445 2.18945C11.1935 1.35942 13.0964 0.932261 15.7334 0.716797C17.7156 0.554844 20.088 0.514138 23.0439 0.503906L26.2012 0.5Z" stroke="url(#paint2_linear_1644_5653)"/>
<rect x="20.6016" y="20" width="28" height="28" rx="6.80556" fill="url(#paint3_linear_1644_5653)" fill-opacity="0.7"/>
<path d="M37.5189 34C37.5189 35.6108 36.213 36.9166 34.6022 36.9166C32.9914 36.9166 31.6855 35.6108 31.6855 34C31.6855 32.3892 32.9914 31.0833 34.6022 31.0833" stroke="#3EDC81" stroke-width="0.875" stroke-linecap="round"/>
<path d="M35.7676 28.2834C35.3906 28.2069 35.0004 28.1667 34.6009 28.1667C31.3792 28.1667 28.7676 30.7784 28.7676 34C28.7676 37.2217 31.3792 39.8334 34.6009 39.8334C37.8225 39.8334 40.4342 37.2217 40.4342 34C40.4342 33.6005 40.3941 33.2103 40.3176 32.8334" stroke="#3EDC81" stroke-width="0.875" stroke-linecap="round"/>
<path d="M34.6191 33.9781L37.275 31.3223M39.1167 29.5344L38.794 28.3752C38.7346 28.1842 38.5048 28.1081 38.3499 28.2347C37.5122 28.9193 36.5996 29.8414 37.3449 31.2958C38.8465 31.996 39.7036 31.0517 40.3609 30.2581C40.4917 30.1002 40.4128 29.8628 40.2159 29.8059L39.1167 29.5344Z" stroke="#3EDC81" stroke-width="0.875" stroke-linecap="round" stroke-linejoin="round"/>
<path d="M56.7976 25.138V23.878H64.2596V25.138H61.2216V34H59.8496V25.138H56.7976ZM68.4169 27.098V28.302H67.8289C66.5829 28.302 65.8129 29.058 65.8129 30.374V34H64.4969V27.168H65.7289L65.8129 28.204C66.0929 27.49 66.7789 27.014 67.7169 27.014C67.9549 27.014 68.1509 27.042 68.4169 27.098ZM71.2958 34.168C69.8258 34.168 68.9578 33.342 68.9578 32.096C68.9578 30.836 69.8958 30.052 71.5058 29.926L73.6618 29.758V29.562C73.6618 28.414 72.9758 28.008 72.0518 28.008C70.9458 28.008 70.3158 28.498 70.3158 29.324H69.1678C69.1678 27.896 70.3438 26.958 72.1078 26.958C73.8018 26.958 74.9498 27.854 74.9498 29.702V34H73.8298L73.6898 32.894C73.3398 33.678 72.4018 34.168 71.2958 34.168ZM71.6738 33.146C72.9198 33.146 73.6758 32.334 73.6758 31.046V30.682L71.9258 30.822C70.7638 30.934 70.2878 31.382 70.2878 32.054C70.2878 32.782 70.8198 33.146 71.6738 33.146ZM79.4323 34.168C77.4443 34.168 76.2403 32.684 76.2403 30.598C76.2403 28.498 77.4583 26.958 79.4883 26.958C80.5383 26.958 81.4203 27.42 81.8823 28.26V23.696H83.1843V34H82.0083L81.8963 32.754C81.4483 33.692 80.5243 34.168 79.4323 34.168ZM79.6983 32.978C81.0423 32.978 81.8683 31.984 81.8683 30.556C81.8683 29.156 81.0423 28.148 79.6983 28.148C78.3543 28.148 77.5703 29.156 77.5703 30.556C77.5703 31.97 78.3543 32.978 79.6983 32.978ZM87.9528 34.168C85.9368 34.168 84.5508 32.712 84.5508 30.584C84.5508 28.442 85.9088 26.958 87.8968 26.958C89.8428 26.958 91.1168 28.302 91.1168 30.332V30.822L85.8248 30.836C85.9228 32.278 86.6788 33.076 87.9808 33.076C89.0028 33.076 89.6748 32.656 89.8988 31.872H91.1308C90.7948 33.342 89.6468 34.168 87.9528 34.168ZM87.8968 28.064C86.7488 28.064 86.0208 28.75 85.8528 29.954H89.8008C89.8008 28.82 89.0588 28.064 87.8968 28.064ZM100.811 24.998C98.6268 24.998 97.3108 26.608 97.3108 29.002C97.3108 31.452 98.7388 32.866 100.825 32.866C102.547 32.866 103.933 31.984 103.933 29.94V29.646H100.545V28.428H105.221V34.014H104.073L103.975 32.642C103.429 33.524 102.197 34.168 100.713 34.168C97.8428 34.168 95.8688 32.096 95.8688 28.974C95.8688 25.894 97.8568 23.71 100.839 23.71C103.051 23.71 104.773 24.984 105.109 26.93H103.653C103.275 25.642 102.155 24.998 100.811 24.998ZM106.42 30.57C106.42 28.456 107.932 26.972 109.99 26.972C112.034 26.972 113.546 28.456 113.546 30.57C113.546 32.684 112.034 34.168 109.99 34.168C107.932 34.168 106.42 32.684 106.42 30.57ZM107.75 30.57C107.75 31.998 108.66 32.992 109.99 32.992C111.306 32.992 112.23 31.998 112.23 30.57C112.23 29.142 111.306 28.148 109.99 28.148C108.66 28.148 107.75 29.142 107.75 30.57ZM116.921 34.168C115.451 34.168 114.583 33.342 114.583 32.096C114.583 30.836 115.521 30.052 117.131 29.926L119.287 29.758V29.562C119.287 28.414 118.601 28.008 117.677 28.008C116.571 28.008 115.941 28.498 115.941 29.324H114.793C114.793 27.896 115.969 26.958 117.733 26.958C119.427 26.958 120.575 27.854 120.575 29.702V34H119.455L119.315 32.894C118.965 33.678 118.027 34.168 116.921 34.168ZM117.299 33.146C118.545 33.146 119.301 32.334 119.301 31.046V30.682L117.551 30.822C116.389 30.934 115.913 31.382 115.913 32.054C115.913 32.782 116.445 33.146 117.299 33.146ZM123.657 34H122.341V23.696H123.657V34ZM128.891 26.608C128.891 24.872 130.291 23.696 132.377 23.696C134.309 23.696 135.555 24.774 135.667 26.524H134.281C134.211 25.516 133.497 24.928 132.363 24.928C131.089 24.928 130.263 25.572 130.263 26.566C130.263 27.378 130.725 27.868 131.677 28.092L133.343 28.484C134.995 28.862 135.835 29.758 135.835 31.186C135.835 33.006 134.421 34.168 132.265 34.168C130.207 34.168 128.835 33.09 128.751 31.354H130.151C130.179 32.32 130.991 32.936 132.265 32.936C133.609 32.936 134.463 32.306 134.463 31.298C134.463 30.5 134.029 29.996 133.063 29.772L131.397 29.394C129.745 29.016 128.891 28.064 128.891 26.608ZM140.205 34.168C138.189 34.168 136.803 32.712 136.803 30.584C136.803 28.442 138.161 26.958 140.149 26.958C142.095 26.958 143.369 28.302 143.369 30.332V30.822L138.077 30.836C138.175 32.278 138.931 33.076 140.233 33.076C141.255 33.076 141.927 32.656 142.151 31.872H143.383C143.047 33.342 141.899 34.168 140.205 34.168ZM140.149 28.064C139.001 28.064 138.273 28.75 138.105 29.954H142.053C142.053 28.82 141.311 28.064 140.149 28.064ZM146.618 34H145.302V28.26H143.958V27.154H145.302V25.012H146.618V27.154H147.962V28.26H146.618V34ZM151.114 34H149.798V28.26H148.454V27.154H149.798V25.012H151.114V27.154H152.458V28.26H151.114V34ZM154.199 25.53C153.723 25.53 153.331 25.138 153.331 24.662C153.331 24.172 153.723 23.794 154.199 23.794C154.675 23.794 155.067 24.172 155.067 24.662C155.067 25.138 154.675 25.53 154.199 25.53ZM153.555 34V27.154H154.871V34H153.555ZM158.014 34H156.698V27.154H157.888L158.028 28.204C158.462 27.42 159.33 26.958 160.296 26.958C162.102 26.958 162.928 28.064 162.928 29.814V34H161.612V30.108C161.612 28.722 160.968 28.162 159.96 28.162C158.728 28.162 158.014 29.044 158.014 30.374V34ZM164.233 30.402C164.233 28.47 165.479 26.958 167.467 26.958C168.573 26.958 169.427 27.462 169.861 28.316L169.959 27.154H171.135V33.72C171.135 35.876 169.805 37.248 167.705 37.248C165.843 37.248 164.569 36.198 164.317 34.462H165.633C165.801 35.47 166.557 36.058 167.705 36.058C168.993 36.058 169.833 35.218 169.833 33.916V32.544C169.385 33.342 168.489 33.818 167.411 33.818C165.465 33.818 164.233 32.32 164.233 30.402ZM165.549 30.374C165.549 31.662 166.347 32.67 167.635 32.67C168.965 32.67 169.777 31.718 169.777 30.374C169.777 29.058 168.993 28.106 167.649 28.106C166.333 28.106 165.549 29.114 165.549 30.374Z" fill="white"/>
<path d="M60.2616 53H57.6456V44.408H60.2376C62.8296 44.408 64.5576 46.136 64.5576 48.704C64.5576 51.272 62.8416 53 60.2616 53ZM60.2016 45.2H58.5096V52.208H60.2256C62.3256 52.208 63.6696 50.84 63.6696 48.704C63.6696 46.556 62.3256 45.2 60.2016 45.2ZM68.1342 53.144C66.4302 53.144 65.2902 51.92 65.2902 50.096C65.2902 48.284 66.4182 47.036 68.0742 47.036C69.6462 47.036 70.7142 48.152 70.7142 49.796V50.204H66.0942C66.1542 51.62 66.8982 52.436 68.1462 52.436C69.0942 52.436 69.7062 52.028 69.9222 51.26H70.7142C70.4022 52.484 69.5022 53.144 68.1342 53.144ZM68.0742 47.744C66.9822 47.744 66.2622 48.464 66.1182 49.604H69.8862C69.8862 48.488 69.1662 47.744 68.0742 47.744ZM75.6261 53V47.888H72.8661V53H72.0381V47.888H71.1501V47.192H72.0381V46.064C72.0381 44.756 72.7461 44.252 73.6101 44.252C73.8141 44.252 74.0661 44.264 74.2581 44.3V45.02H73.7541C73.0581 45.02 72.8661 45.38 72.8661 46.064V47.192H76.4541V53H75.6261ZM76.0341 45.536C75.6981 45.536 75.4581 45.296 75.4581 44.96C75.4581 44.624 75.6981 44.372 76.0341 44.372C76.3581 44.372 76.6101 44.624 76.6101 44.96C76.6101 45.296 76.3581 45.536 76.0341 45.536ZM78.7376 53H77.9096V47.192H78.6296L78.7496 48.2C79.1336 47.456 79.9016 47.036 80.7416 47.036C82.3376 47.036 82.9976 47.984 82.9976 49.448V53H82.1696V49.628C82.1696 48.272 81.5576 47.792 80.5976 47.792C79.4096 47.792 78.7376 48.656 78.7376 49.964V53ZM86.8439 53.144C85.1399 53.144 83.9999 51.92 83.9999 50.096C83.9999 48.284 85.1279 47.036 86.7839 47.036C88.3559 47.036 89.4239 48.152 89.4239 49.796V50.204H84.8039C84.8639 51.62 85.6079 52.436 86.8559 52.436C87.8039 52.436 88.4159 52.028 88.6319 51.26H89.4239C89.1119 52.484 88.2119 53.144 86.8439 53.144ZM86.7839 47.744C85.6919 47.744 84.9719 48.464 84.8279 49.604H88.5959C88.5959 48.488 87.8759 47.744 86.7839 47.744ZM93.0079 55.532V54.848H93.6439C94.1479 54.848 94.6519 54.812 94.9399 54.032L95.1919 53.348L92.8399 47.192H93.7159L95.5879 52.256L97.4239 47.192H98.2759L95.6119 54.332C95.2759 55.244 94.7119 55.616 93.8839 55.616C93.5359 55.616 93.2719 55.592 93.0079 55.532ZM98.3971 50.096C98.3971 48.32 99.6451 47.036 101.349 47.036C103.053 47.036 104.301 48.32 104.301 50.096C104.301 51.86 103.053 53.144 101.349 53.144C99.6451 53.144 98.3971 51.86 98.3971 50.096ZM99.2371 50.084C99.2371 51.452 100.101 52.4 101.349 52.4C102.585 52.4 103.461 51.452 103.461 50.084C103.461 48.74 102.585 47.78 101.349 47.78C100.101 47.78 99.2371 48.74 99.2371 50.084ZM109.325 47.192H110.153V53H109.433L109.325 52.016C109.001 52.688 108.197 53.144 107.285 53.144C105.917 53.144 105.173 52.208 105.173 50.792V47.18H106.013V50.528C106.013 51.908 106.625 52.4 107.549 52.4C108.665 52.4 109.325 51.656 109.325 50.276V47.192ZM114.674 47.12V47.864H114.218C113.15 47.864 112.466 48.584 112.466 49.688V53H111.638V47.192H112.418L112.478 48.092C112.706 47.468 113.318 47.06 114.134 47.06C114.314 47.06 114.47 47.072 114.674 47.12ZM119.954 53H119.138V47.888H117.974V47.192H119.138V45.356H119.954V47.192H121.118V47.888H119.954V53ZM124.993 47.12V47.864H124.537C123.469 47.864 122.785 48.584 122.785 49.688V53H121.957V47.192H122.737L122.797 48.092C123.025 47.468 123.637 47.06 124.453 47.06C124.633 47.06 124.789 47.072 124.993 47.12ZM127.287 53.144C126.051 53.144 125.319 52.448 125.319 51.428C125.319 50.36 126.135 49.688 127.491 49.58L129.411 49.424V49.232C129.411 48.092 128.727 47.732 127.875 47.732C126.867 47.732 126.267 48.188 126.267 48.968H125.511C125.511 47.792 126.471 47.036 127.899 47.036C129.243 47.036 130.227 47.708 130.227 49.244V53H129.531L129.423 51.98C129.063 52.712 128.271 53.144 127.287 53.144ZM127.479 52.472C128.703 52.472 129.411 51.62 129.411 50.36V50.048L127.695 50.18C126.603 50.276 126.159 50.756 126.159 51.404C126.159 52.112 126.687 52.472 127.479 52.472ZM133.929 53.144C132.237 53.144 131.241 51.848 131.241 50.108C131.241 48.356 132.237 47.036 133.965 47.036C134.925 47.036 135.693 47.456 136.101 48.296V44.252H136.929V53H136.209L136.125 51.812C135.717 52.712 134.901 53.144 133.929 53.144ZM134.073 52.388C135.345 52.388 136.089 51.428 136.089 50.084C136.089 48.752 135.345 47.78 134.073 47.78C132.813 47.78 132.081 48.752 132.081 50.084C132.081 51.428 132.813 52.388 134.073 52.388ZM138.824 45.596C138.488 45.596 138.212 45.32 138.212 44.984C138.212 44.648 138.488 44.36 138.824 44.36C139.16 44.36 139.448 44.648 139.448 44.984C139.448 45.32 139.16 45.596 138.824 45.596ZM138.416 53V47.192H139.244V53H138.416ZM141.559 53H140.731V47.192H141.451L141.571 48.2C141.955 47.456 142.723 47.036 143.563 47.036C145.159 47.036 145.819 47.984 145.819 49.448V53H144.991V49.628C144.991 48.272 144.379 47.792 143.419 47.792C142.231 47.792 141.559 48.656 141.559 49.964V53ZM146.833 49.928C146.833 48.344 147.853 47.036 149.557 47.036C150.565 47.036 151.333 47.504 151.705 48.356L151.789 47.192H152.509V52.82C152.509 54.548 151.405 55.676 149.701 55.676C148.213 55.676 147.169 54.836 146.941 53.432H147.769C147.949 54.368 148.669 54.92 149.713 54.92C150.901 54.92 151.693 54.116 151.693 52.904V51.524C151.297 52.34 150.493 52.82 149.497 52.82C147.841 52.82 146.833 51.512 146.833 49.928ZM147.661 49.916C147.661 51.104 148.393 52.076 149.617 52.076C150.877 52.076 151.621 51.164 151.621 49.916C151.621 48.68 150.901 47.768 149.629 47.768C148.381 47.768 147.661 48.74 147.661 49.916ZM157.085 55.532V47.192H157.805L157.889 48.368C158.297 47.468 159.113 47.036 160.085 47.036C161.765 47.036 162.773 48.32 162.773 50.072C162.773 51.824 161.801 53.144 160.085 53.144C159.101 53.144 158.321 52.724 157.913 51.884V55.532H157.085ZM157.925 50.096C157.925 51.428 158.669 52.4 159.941 52.4C161.201 52.4 161.933 51.428 161.933 50.096C161.933 48.752 161.201 47.792 159.941 47.792C158.669 47.792 157.925 48.752 157.925 50.096ZM165.521 53.144C164.285 53.144 163.553 52.448 163.553 51.428C163.553 50.36 164.369 49.688 165.725 49.58L167.645 49.424V49.232C167.645 48.092 166.961 47.732 166.109 47.732C165.101 47.732 164.501 48.188 164.501 48.968H163.745C163.745 47.792 164.705 47.036 166.133 47.036C167.477 47.036 168.461 47.708 168.461 49.244V53H167.765L167.657 51.98C167.297 52.712 166.505 53.144 165.521 53.144ZM165.713 52.472C166.937 52.472 167.645 51.62 167.645 50.36V50.048L165.929 50.18C164.837 50.276 164.393 50.756 164.393 51.404C164.393 52.112 164.921 52.472 165.713 52.472ZM172.919 47.12V47.864H172.463C171.395 47.864 170.711 48.584 170.711 49.688V53H169.883V47.192H170.663L170.723 48.092C170.951 47.468 171.563 47.06 172.379 47.06C172.559 47.06 172.715 47.072 172.919 47.12ZM175.213 53.144C173.977 53.144 173.245 52.448 173.245 51.428C173.245 50.36 174.061 49.688 175.417 49.58L177.337 49.424V49.232C177.337 48.092 176.653 47.732 175.801 47.732C174.793 47.732 174.193 48.188 174.193 48.968H173.437C173.437 47.792 174.397 47.036 175.825 47.036C177.169 47.036 178.153 47.708 178.153 49.244V53H177.457L177.349 51.98C176.989 52.712 176.197 53.144 175.213 53.144ZM175.405 52.472C176.629 52.472 177.337 51.62 177.337 50.36V50.048L175.621 50.18C174.529 50.276 174.085 50.756 174.085 51.404C174.085 52.112 174.613 52.472 175.405 52.472ZM180.402 53H179.574V47.192H180.294L180.39 48.02C180.678 47.408 181.326 47.036 182.142 47.036C183.054 47.036 183.738 47.516 184.014 48.272C184.278 47.516 184.986 47.036 185.922 47.036C187.182 47.036 188.01 47.852 188.01 49.196V53H187.206V49.364C187.206 48.368 186.654 47.78 185.766 47.78C184.794 47.78 184.218 48.512 184.218 49.412V53H183.402V49.352C183.402 48.368 182.838 47.792 181.962 47.792C180.99 47.792 180.402 48.512 180.402 49.4V53ZM191.872 53.144C190.168 53.144 189.028 51.92 189.028 50.096C189.028 48.284 190.156 47.036 191.812 47.036C193.384 47.036 194.452 48.152 194.452 49.796V50.204H189.832C189.892 51.62 190.636 52.436 191.884 52.436C192.832 52.436 193.444 52.028 193.66 51.26H194.452C194.14 52.484 193.24 53.144 191.872 53.144ZM191.812 47.744C190.72 47.744 190 48.464 189.856 49.604H193.624C193.624 48.488 192.904 47.744 191.812 47.744ZM196.809 53H195.993V47.888H194.829V47.192H195.993V45.356H196.809V47.192H197.973V47.888H196.809V53ZM201.189 53.144C199.485 53.144 198.345 51.92 198.345 50.096C198.345 48.284 199.473 47.036 201.129 47.036C202.701 47.036 203.769 48.152 203.769 49.796V50.204H199.149C199.209 51.62 199.953 52.436 201.201 52.436C202.149 52.436 202.761 52.028 202.977 51.26H203.769C203.457 52.484 202.557 53.144 201.189 53.144ZM201.129 47.744C200.037 47.744 199.317 48.464 199.173 49.604H202.941C202.941 48.488 202.221 47.744 201.129 47.744ZM207.889 47.12V47.864H207.433C206.365 47.864 205.681 48.584 205.681 49.688V53H204.853V47.192H205.633L205.693 48.092C205.921 47.468 206.533 47.06 207.349 47.06C207.529 47.06 207.685 47.072 207.889 47.12ZM208.257 51.368H209.049C209.049 52.04 209.553 52.46 210.369 52.46C211.269 52.46 211.797 52.076 211.797 51.452C211.797 50.972 211.557 50.696 210.873 50.528L209.877 50.276C208.869 50.024 208.377 49.496 208.377 48.704C208.377 47.684 209.229 47.036 210.477 47.036C211.701 47.036 212.493 47.708 212.529 48.788H211.725C211.701 48.116 211.233 47.72 210.453 47.72C209.637 47.72 209.181 48.068 209.181 48.692C209.181 49.136 209.493 49.448 210.129 49.604L211.125 49.856C212.133 50.108 212.589 50.576 212.589 51.416C212.589 52.46 211.701 53.144 210.381 53.144C209.073 53.144 208.257 52.448 208.257 51.368Z" fill="white" fill-opacity="0.8"/>
<path d="M20.6016 74C20.6016 68.4772 25.0787 64 30.6016 64H147.602C153.124 64 157.602 68.4772 157.602 74V86C157.602 91.5228 153.124 96 147.602 96H30.6016C25.0787 96 20.6016 91.5228 20.6016 86V74Z" fill="white"/>
<path d="M30.6016 64.5H147.602C152.848 64.5 157.102 68.7533 157.102 74V86C157.102 91.2467 152.848 95.5 147.602 95.5H30.6016C25.3549 95.5 21.1016 91.2467 21.1016 86V74C21.1016 68.7533 25.3549 64.5 30.6016 64.5Z" stroke="white" stroke-opacity="0.3"/>
<path d="M52.1496 85H50.7776V74.878H54.5996C56.7696 74.878 58.0576 76.026 58.0576 77.916C58.0576 79.316 57.3576 80.324 56.0976 80.73L58.1556 85H56.6296L54.7396 80.996H52.1496V85ZM52.1496 76.11V79.778H54.6136C55.8876 79.778 56.6156 79.092 56.6156 77.93C56.6156 76.754 55.8596 76.11 54.5996 76.11H52.1496ZM64.1566 78.154H65.4586V85H64.2826L64.1426 83.964C63.7506 84.678 62.8406 85.168 61.8326 85.168C60.2366 85.168 59.3406 84.09 59.3406 82.41V78.154H60.6566V81.976C60.6566 83.446 61.2866 84.006 62.2946 84.006C63.4986 84.006 64.1566 83.236 64.1566 81.766V78.154ZM68.6 85H67.284V78.154H68.474L68.614 79.204C69.048 78.42 69.916 77.958 70.882 77.958C72.688 77.958 73.514 79.064 73.514 80.814V85H72.198V81.108C72.198 79.722 71.554 79.162 70.546 79.162C69.314 79.162 68.6 80.044 68.6 81.374V85ZM79.6409 85H78.2129L81.9089 74.878H83.4349L87.1449 85H85.7029L84.7929 82.48H80.5369L79.6409 85ZM82.4969 77.062L80.9569 81.29H84.3869L82.8329 77.062C82.7629 76.866 82.6929 76.628 82.6649 76.474C82.6369 76.614 82.5669 76.852 82.4969 77.062ZM89.4984 85H88.1824V78.154H89.3724L89.5124 79.204C89.9464 78.42 90.8144 77.958 91.7804 77.958C93.5864 77.958 94.4124 79.064 94.4124 80.814V85H93.0964V81.108C93.0964 79.722 92.4524 79.162 91.4444 79.162C90.2124 79.162 89.4984 80.044 89.4984 81.374V85ZM98.1531 85.168C96.6831 85.168 95.8151 84.342 95.8151 83.096C95.8151 81.836 96.7531 81.052 98.3631 80.926L100.519 80.758V80.562C100.519 79.414 99.8331 79.008 98.9091 79.008C97.8031 79.008 97.1731 79.498 97.1731 80.324H96.0251C96.0251 78.896 97.2011 77.958 98.9651 77.958C100.659 77.958 101.807 78.854 101.807 80.702V85H100.687L100.547 83.894C100.197 84.678 99.2591 85.168 98.1531 85.168ZM98.5311 84.146C99.7771 84.146 100.533 83.334 100.533 82.046V81.682L98.7831 81.822C97.6211 81.934 97.1451 82.382 97.1451 83.054C97.1451 83.782 97.6771 84.146 98.5311 84.146ZM104.89 85H103.574V74.696H104.89V85ZM106.085 88.066V86.988H106.967C107.597 86.988 108.101 86.89 108.423 86.022L108.661 85.364L105.903 78.154H107.289L109.277 83.67L111.307 78.154H112.665L109.431 86.54C108.969 87.716 108.283 88.206 107.233 88.206C106.799 88.206 106.435 88.15 106.085 88.066ZM112.976 83.012H114.236C114.236 83.712 114.768 84.132 115.636 84.132C116.56 84.132 117.092 83.754 117.092 83.124C117.092 82.662 116.868 82.382 116.154 82.2L114.95 81.92C113.732 81.626 113.158 81.024 113.158 80.016C113.158 78.756 114.222 77.958 115.734 77.958C117.232 77.958 118.212 78.798 118.24 80.1H116.98C116.952 79.414 116.49 78.98 115.692 78.98C114.866 78.98 114.404 79.344 114.404 79.974C114.404 80.436 114.74 80.744 115.412 80.912L116.616 81.206C117.778 81.486 118.352 82.018 118.352 83.04C118.352 84.342 117.232 85.168 115.608 85.168C113.998 85.168 112.976 84.314 112.976 83.012ZM120.371 76.53C119.895 76.53 119.503 76.138 119.503 75.662C119.503 75.172 119.895 74.794 120.371 74.794C120.847 74.794 121.239 75.172 121.239 75.662C121.239 76.138 120.847 76.53 120.371 76.53ZM119.727 85V78.154H121.043V85H119.727ZM122.31 83.012H123.57C123.57 83.712 124.102 84.132 124.97 84.132C125.894 84.132 126.426 83.754 126.426 83.124C126.426 82.662 126.202 82.382 125.488 82.2L124.284 81.92C123.066 81.626 122.492 81.024 122.492 80.016C122.492 78.756 123.556 77.958 125.068 77.958C126.566 77.958 127.546 78.798 127.574 80.1H126.314C126.286 79.414 125.824 78.98 125.026 78.98C124.2 78.98 123.738 79.344 123.738 79.974C123.738 80.436 124.074 80.744 124.746 80.912L125.95 81.206C127.112 81.486 127.686 82.018 127.686 83.04C127.686 84.342 126.566 85.168 124.942 85.168C123.332 85.168 122.31 84.314 122.31 83.012Z" fill="#111111"/>
<path d="M175.709 76.61H173.581V75.378H177.025V85.5H175.709V76.61ZM179.486 85.5H178.184L182.132 75.392H183.448L179.486 85.5ZM190.439 85.486L183.607 85.5V84.45L186.869 81.636C188.507 80.222 188.969 79.536 188.969 78.458C188.969 77.184 188.241 76.428 187.023 76.428C185.777 76.428 184.965 77.338 184.937 78.78H183.565C183.607 76.61 184.979 75.196 187.037 75.196C189.067 75.196 190.369 76.428 190.369 78.374C190.369 79.816 189.655 80.838 187.863 82.392L185.763 84.212H190.439V85.486ZM191.422 80.446C191.422 77.31 193.046 75.182 195.594 75.182C198.128 75.182 199.752 77.31 199.752 80.446C199.752 83.596 198.198 85.682 195.594 85.682C192.976 85.682 191.422 83.596 191.422 80.446ZM192.78 80.446C192.78 82.938 193.816 84.45 195.594 84.45C197.372 84.45 198.394 82.938 198.394 80.446C198.394 77.926 197.372 76.414 195.594 76.414C193.816 76.414 192.78 77.926 192.78 80.446ZM205.307 85.5H203.879L207.575 75.378H209.101L212.811 85.5H211.369L210.459 82.98H206.203L205.307 85.5ZM208.163 77.562L206.623 81.79H210.053L208.499 77.562C208.429 77.366 208.359 77.128 208.331 76.974C208.303 77.114 208.233 77.352 208.163 77.562ZM214.968 85.5H213.652V78.654H214.842L214.982 79.704C215.416 78.92 216.284 78.458 217.25 78.458C219.056 78.458 219.882 79.564 219.882 81.314V85.5H218.566V81.608C218.566 80.222 217.922 79.662 216.914 79.662C215.682 79.662 214.968 80.544 214.968 81.874V85.5ZM223.427 85.668C221.957 85.668 221.089 84.842 221.089 83.596C221.089 82.336 222.027 81.552 223.637 81.426L225.793 81.258V81.062C225.793 79.914 225.107 79.508 224.183 79.508C223.077 79.508 222.447 79.998 222.447 80.824H221.299C221.299 79.396 222.475 78.458 224.239 78.458C225.933 78.458 227.081 79.354 227.081 81.202V85.5H225.961L225.821 84.394C225.471 85.178 224.533 85.668 223.427 85.668ZM223.805 84.646C225.051 84.646 225.807 83.834 225.807 82.546V82.182L224.057 82.322C222.895 82.434 222.419 82.882 222.419 83.554C222.419 84.282 222.951 84.646 223.805 84.646ZM229.968 85.5H228.652V75.196H229.968V85.5ZM230.967 88.566V87.488H231.849C232.479 87.488 232.983 87.39 233.305 86.522L233.543 85.864L230.785 78.654H232.171L234.159 84.17L236.189 78.654H237.547L234.313 87.04C233.851 88.216 233.165 88.706 232.115 88.706C231.681 88.706 231.317 88.65 230.967 88.566ZM237.662 83.512H238.922C238.922 84.212 239.454 84.632 240.322 84.632C241.246 84.632 241.778 84.254 241.778 83.624C241.778 83.162 241.554 82.882 240.84 82.7L239.636 82.42C238.418 82.126 237.844 81.524 237.844 80.516C237.844 79.256 238.908 78.458 240.42 78.458C241.918 78.458 242.898 79.298 242.926 80.6H241.666C241.638 79.914 241.176 79.48 240.378 79.48C239.552 79.48 239.09 79.844 239.09 80.474C239.09 80.936 239.426 81.244 240.098 81.412L241.302 81.706C242.464 81.986 243.038 82.518 243.038 83.54C243.038 84.842 241.918 85.668 240.294 85.668C238.684 85.668 237.662 84.814 237.662 83.512ZM244.861 77.03C244.385 77.03 243.993 76.638 243.993 76.162C243.993 75.672 244.385 75.294 244.861 75.294C245.337 75.294 245.729 75.672 245.729 76.162C245.729 76.638 245.337 77.03 244.861 77.03ZM244.217 85.5V78.654H245.533V85.5H244.217ZM246.604 83.512H247.864C247.864 84.212 248.396 84.632 249.264 84.632C250.188 84.632 250.72 84.254 250.72 83.624C250.72 83.162 250.496 82.882 249.782 82.7L248.578 82.42C247.36 82.126 246.786 81.524 246.786 80.516C246.786 79.256 247.85 78.458 249.362 78.458C250.86 78.458 251.84 79.298 251.868 80.6H250.608C250.58 79.914 250.118 79.48 249.32 79.48C248.494 79.48 248.032 79.844 248.032 80.474C248.032 80.936 248.368 81.244 249.04 81.412L250.244 81.706C251.406 81.986 251.98 82.518 251.98 83.54C251.98 84.842 250.86 85.668 249.236 85.668C247.626 85.668 246.604 84.814 246.604 83.512ZM258.303 75.378V84.226H262.755V85.5H256.931V75.378H258.303ZM266.559 85.668C264.543 85.668 263.157 84.212 263.157 82.084C263.157 79.942 264.515 78.458 266.503 78.458C268.449 78.458 269.723 79.802 269.723 81.832V82.322L264.431 82.336C264.529 83.778 265.285 84.576 266.587 84.576C267.609 84.576 268.281 84.156 268.505 83.372H269.737C269.401 84.842 268.253 85.668 266.559 85.668ZM266.503 79.564C265.355 79.564 264.627 80.25 264.459 81.454H268.407C268.407 80.32 267.665 79.564 266.503 79.564ZM270.185 78.654H271.193V77.562C271.193 75.882 272.103 75.196 273.293 75.196C273.545 75.196 273.853 75.21 274.105 75.252V76.386H273.517C272.719 76.386 272.509 76.82 272.509 77.562V78.654H275.715V76.512H277.031V78.654H278.375V79.76H277.031V85.5H275.715V79.76H272.509V85.5H271.193V79.76H270.185V78.654Z" fill="white" fill-opacity="0.8"/>
<path d="M20.6016 128C20.6016 122.399 20.6016 119.599 21.6915 117.46C22.6502 115.578 24.18 114.049 26.0617 113.09C28.2008 112 31.001 112 36.6016 112H415.402C421.002 112 423.802 112 425.941 113.09C427.823 114.049 429.353 115.578 430.312 117.46C431.402 119.599 431.402 122.399 431.402 128V136C431.402 141.601 431.402 144.401 430.312 146.54C429.353 148.422 427.823 149.951 425.941 150.91C423.802 152 421.002 152 415.402 152H36.6016C31.001 152 28.2008 152 26.0617 150.91C24.18 149.951 22.6502 148.422 21.6915 146.54C20.6016 144.401 20.6016 141.601 20.6016 136V128Z" fill="url(#paint4_linear_1644_5653)" fill-opacity="0.2"/>
<path d="M72.3008 136.5H77.5508V138H72.3008V136.5ZM72.3008 131.25H79.0508V132.75H72.3008V131.25ZM72.3008 126H87.3008V127.5H72.3008V126ZM86.3063 132.769L87.1733 132.476L87.9233 133.774L87.2363 134.378C87.3228 134.788 87.3228 135.212 87.2363 135.622L87.9233 136.226L87.1733 137.524L86.3063 137.231C85.9988 137.509 85.6328 137.722 85.23 137.854L85.0508 138.75H83.5508L83.3708 137.853C82.9727 137.723 82.6064 137.511 82.2953 137.231L81.4283 137.524L80.6783 136.226L81.3653 135.622C81.2788 135.212 81.2788 134.788 81.3653 134.378L80.6783 133.774L81.4283 132.476L82.2953 132.769C82.6028 132.491 82.9688 132.277 83.3715 132.146L83.5508 131.25H85.0508L85.2308 132.147C85.6328 132.278 85.9988 132.492 86.3063 132.769V132.769ZM84.3008 136.5C84.6986 136.5 85.0801 136.342 85.3614 136.061C85.6427 135.779 85.8008 135.398 85.8008 135C85.8008 134.602 85.6427 134.221 85.3614 133.939C85.0801 133.658 84.6986 133.5 84.3008 133.5C83.903 133.5 83.5214 133.658 83.2401 133.939C82.9588 134.221 82.8008 134.602 82.8008 135C82.8008 135.398 82.9588 135.779 83.2401 136.061C83.5214 136.342 83.903 136.5 84.3008 136.5Z" fill="white" fill-opacity="0.6"/>
<path d="M101.342 137.154C98.4579 137.154 96.5399 135.082 96.5399 131.946C96.5399 128.824 98.5139 126.71 101.412 126.71C103.694 126.71 105.444 128.068 105.822 130.14H104.352C103.974 128.824 102.84 128.026 101.37 128.026C99.3259 128.026 97.9819 129.566 97.9819 131.932C97.9819 134.298 99.3259 135.838 101.37 135.838C102.854 135.838 104.03 135.04 104.408 133.794H105.864C105.43 135.81 103.624 137.154 101.342 137.154ZM111.97 130.154H113.272V137H112.096L111.956 135.964C111.564 136.678 110.654 137.168 109.646 137.168C108.05 137.168 107.154 136.09 107.154 134.41V130.154H108.47V133.976C108.47 135.446 109.1 136.006 110.108 136.006C111.312 136.006 111.97 135.236 111.97 133.766V130.154ZM114.401 135.012H115.661C115.661 135.712 116.193 136.132 117.061 136.132C117.985 136.132 118.517 135.754 118.517 135.124C118.517 134.662 118.293 134.382 117.579 134.2L116.375 133.92C115.157 133.626 114.583 133.024 114.583 132.016C114.583 130.756 115.647 129.958 117.159 129.958C118.657 129.958 119.637 130.798 119.665 132.1H118.405C118.377 131.414 117.915 130.98 117.117 130.98C116.291 130.98 115.829 131.344 115.829 131.974C115.829 132.436 116.165 132.744 116.837 132.912L118.041 133.206C119.203 133.486 119.777 134.018 119.777 135.04C119.777 136.342 118.657 137.168 117.033 137.168C115.423 137.168 114.401 136.314 114.401 135.012ZM123.084 137H121.768V131.26H120.424V130.154H121.768V128.012H123.084V130.154H124.428V131.26H123.084V137ZM125.009 133.57C125.009 131.456 126.521 129.972 128.579 129.972C130.623 129.972 132.135 131.456 132.135 133.57C132.135 135.684 130.623 137.168 128.579 137.168C126.521 137.168 125.009 135.684 125.009 133.57ZM126.339 133.57C126.339 134.998 127.249 135.992 128.579 135.992C129.895 135.992 130.819 134.998 130.819 133.57C130.819 132.142 129.895 131.148 128.579 131.148C127.249 131.148 126.339 132.142 126.339 133.57ZM134.824 137H133.508V130.154H134.684L134.81 131.05C135.16 130.406 135.888 129.958 136.854 129.958C137.918 129.958 138.674 130.49 139.024 131.344C139.346 130.49 140.172 129.958 141.236 129.958C142.804 129.958 143.756 130.938 143.756 132.52V137H142.468V132.842C142.468 131.764 141.866 131.148 140.942 131.148C139.948 131.148 139.29 131.848 139.29 132.94V137H137.988V132.828C137.988 131.75 137.4 131.162 136.476 131.162C135.482 131.162 134.824 131.848 134.824 132.94V137ZM153.804 127.998C151.62 127.998 150.304 129.608 150.304 132.002C150.304 134.452 151.732 135.866 153.818 135.866C155.54 135.866 156.926 134.984 156.926 132.94V132.646H153.538V131.428H158.214V137.014H157.066L156.968 135.642C156.422 136.524 155.19 137.168 153.706 137.168C150.836 137.168 148.862 135.096 148.862 131.974C148.862 128.894 150.85 126.71 153.832 126.71C156.044 126.71 157.766 127.984 158.102 129.93H156.646C156.268 128.642 155.148 127.998 153.804 127.998ZM159.413 133.57C159.413 131.456 160.925 129.972 162.983 129.972C165.027 129.972 166.539 131.456 166.539 133.57C166.539 135.684 165.027 137.168 162.983 137.168C160.925 137.168 159.413 135.684 159.413 133.57ZM160.743 133.57C160.743 134.998 161.653 135.992 162.983 135.992C164.299 135.992 165.223 134.998 165.223 133.57C165.223 132.142 164.299 131.148 162.983 131.148C161.653 131.148 160.743 132.142 160.743 133.57ZM169.914 137.168C168.444 137.168 167.576 136.342 167.576 135.096C167.576 133.836 168.514 133.052 170.124 132.926L172.28 132.758V132.562C172.28 131.414 171.594 131.008 170.67 131.008C169.564 131.008 168.934 131.498 168.934 132.324H167.786C167.786 130.896 168.962 129.958 170.726 129.958C172.42 129.958 173.568 130.854 173.568 132.702V137H172.448L172.308 135.894C171.958 136.678 171.02 137.168 169.914 137.168ZM170.292 136.146C171.538 136.146 172.294 135.334 172.294 134.046V133.682L170.544 133.822C169.382 133.934 168.906 134.382 168.906 135.054C168.906 135.782 169.438 136.146 170.292 136.146ZM176.65 137H175.334V126.696H176.65V137Z" fill="white" fill-opacity="0.8"/>
<path d="M230.002 125.6C230.002 122.24 230.002 120.56 230.656 119.276C231.231 118.147 232.149 117.229 233.278 116.654C234.561 116 236.242 116 239.602 116H416.802C420.162 116 421.842 116 423.126 116.654C424.255 117.229 425.173 118.147 425.748 119.276C426.402 120.56 426.402 122.24 426.402 125.6V138.4C426.402 141.76 426.402 143.44 425.748 144.724C425.173 145.853 424.255 146.771 423.126 147.346C421.842 148 420.162 148 416.802 148H239.602C236.242 148 234.561 148 233.278 147.346C232.149 146.771 231.231 145.853 230.656 144.724C230.002 143.44 230.002 141.76 230.002 138.4V125.6Z" fill="white"/>
<path d="M292.201 132V137" stroke="#111111" stroke-width="1.25" stroke-linecap="round"/>
<path d="M292.201 137C290.806 137 289.592 137.843 288.965 139.087C288.666 139.682 289.095 140.333 289.666 140.333H294.735C295.306 140.333 295.735 139.682 295.436 139.087C294.809 137.843 293.595 137 292.201 137Z" stroke="#111111" stroke-width="1.25" stroke-linecap="round"/>
<path d="M286.367 126.167H285.521C284.699 126.167 284.288 126.167 284.034 126.475C283.78 126.784 283.855 127.13 284.003 127.822C284.288 129.142 284.905 130.303 285.741 131.167" stroke="#111111" stroke-width="1.25" stroke-linecap="round"/>
<path d="M298.035 126.167H298.881C299.703 126.167 300.114 126.167 300.368 126.475C300.622 126.784 300.548 127.13 300.399 127.822C300.114 129.142 299.497 130.303 298.661 131.167" stroke="#111111" stroke-width="1.25" stroke-linecap="round"/>
<path d="M292.201 132C295.422 132 298.034 129.403 298.034 126.199C298.034 126.115 298.032 126.031 298.029 125.948C297.993 125.115 297.975 124.699 297.411 124.183C296.846 123.667 296.221 123.667 294.971 123.667H289.43C288.18 123.667 287.555 123.667 286.99 124.183C286.426 124.699 286.408 125.115 286.373 125.948C286.369 126.031 286.367 126.115 286.367 126.199C286.367 129.403 288.979 132 292.201 132Z" stroke="#111111" stroke-width="1.25" stroke-linecap="round"/>
<path d="M309.526 137V126.878H313.39C315.364 126.878 316.568 127.886 316.568 129.552C316.568 130.714 316.064 131.498 315.056 131.918C316.176 132.282 316.75 133.094 316.75 134.298C316.75 135.978 315.532 137 313.53 137H309.526ZM313.306 128.096H310.898V131.344H313.39C314.524 131.344 315.168 130.728 315.168 129.678C315.168 128.67 314.496 128.096 313.306 128.096ZM313.502 132.534H310.898V135.782H313.502C314.678 135.782 315.336 135.18 315.336 134.13C315.336 133.122 314.664 132.534 313.502 132.534ZM321.113 137.168C319.097 137.168 317.711 135.712 317.711 133.584C317.711 131.442 319.069 129.958 321.057 129.958C323.003 129.958 324.277 131.302 324.277 133.332V133.822L318.985 133.836C319.083 135.278 319.839 136.076 321.141 136.076C322.163 136.076 322.835 135.656 323.059 134.872H324.291C323.955 136.342 322.807 137.168 321.113 137.168ZM321.057 131.064C319.909 131.064 319.181 131.75 319.013 132.954H322.961C322.961 131.82 322.219 131.064 321.057 131.064ZM325.103 135.012H326.363C326.363 135.712 326.895 136.132 327.763 136.132C328.687 136.132 329.219 135.754 329.219 135.124C329.219 134.662 328.995 134.382 328.281 134.2L327.077 133.92C325.859 133.626 325.285 133.024 325.285 132.016C325.285 130.756 326.349 129.958 327.861 129.958C329.359 129.958 330.339 130.798 330.367 132.1H329.107C329.079 131.414 328.617 130.98 327.819 130.98C326.993 130.98 326.531 131.344 326.531 131.974C326.531 132.436 326.867 132.744 327.539 132.912L328.743 133.206C329.905 133.486 330.479 134.018 330.479 135.04C330.479 136.342 329.359 137.168 327.735 137.168C326.125 137.168 325.103 136.314 325.103 135.012ZM333.786 137H332.47V131.26H331.126V130.154H332.47V128.012H333.786V130.154H335.13V131.26H333.786V137ZM339.216 128.138V126.878H346.678V128.138H343.64V137H342.268V128.138H339.216ZM350.835 130.098V131.302H350.247C349.001 131.302 348.231 132.058 348.231 133.374V137H346.915V130.168H348.147L348.231 131.204C348.511 130.49 349.197 130.014 350.135 130.014C350.373 130.014 350.569 130.042 350.835 130.098ZM353.714 137.168C352.244 137.168 351.376 136.342 351.376 135.096C351.376 133.836 352.314 133.052 353.924 132.926L356.08 132.758V132.562C356.08 131.414 355.394 131.008 354.47 131.008C353.364 131.008 352.734 131.498 352.734 132.324H351.586C351.586 130.896 352.762 129.958 354.526 129.958C356.22 129.958 357.368 130.854 357.368 132.702V137H356.248L356.108 135.894C355.758 136.678 354.82 137.168 353.714 137.168ZM354.092 136.146C355.338 136.146 356.094 135.334 356.094 134.046V133.682L354.344 133.822C353.182 133.934 352.706 134.382 352.706 135.054C352.706 135.782 353.238 136.146 354.092 136.146ZM361.85 137.168C359.862 137.168 358.658 135.684 358.658 133.598C358.658 131.498 359.876 129.958 361.906 129.958C362.956 129.958 363.838 130.42 364.3 131.26V126.696H365.602V137H364.426L364.314 135.754C363.866 136.692 362.942 137.168 361.85 137.168ZM362.116 135.978C363.46 135.978 364.286 134.984 364.286 133.556C364.286 132.156 363.46 131.148 362.116 131.148C360.772 131.148 359.988 132.156 359.988 133.556C359.988 134.97 360.772 135.978 362.116 135.978ZM370.371 137.168C368.355 137.168 366.969 135.712 366.969 133.584C366.969 131.442 368.327 129.958 370.315 129.958C372.261 129.958 373.535 131.302 373.535 133.332V133.822L368.243 133.836C368.341 135.278 369.097 136.076 370.399 136.076C371.421 136.076 372.093 135.656 372.317 134.872H373.549C373.213 136.342 372.065 137.168 370.371 137.168ZM370.315 131.064C369.167 131.064 368.439 131.75 368.271 132.954H372.219C372.219 131.82 371.477 131.064 370.315 131.064Z" fill="#111111"/>
<path d="M20.6016 178C20.6016 172.477 25.0787 168 30.6016 168H208.002C213.524 168 218.002 172.477 218.002 178V232C218.002 237.523 213.524 242 208.002 242H30.6016C25.0787 242 20.6016 237.523 20.6016 232V178Z" fill="white" fill-opacity="0.03"/>
<path d="M30.6016 168.5H208.002C213.248 168.5 217.502 172.753 217.502 178V232C217.502 237.247 213.248 241.5 208.002 241.5H30.6016C25.3549 241.5 21.1016 237.247 21.1016 232V178C21.1016 172.753 25.3549 168.5 30.6016 168.5Z" stroke="white" stroke-opacity="0.02"/>
<path d="M37.7116 193.388H35.1496V197H33.7776V186.878H37.7116C39.6996 186.878 40.9736 188.18 40.9736 190.126C40.9736 192.016 39.6856 193.388 37.7116 193.388ZM37.4736 188.11H35.1496V192.156H37.4176C38.7756 192.156 39.5316 191.358 39.5316 190.112C39.5316 188.838 38.7616 188.11 37.4736 188.11ZM46.1396 190.098V191.302H45.5516C44.3056 191.302 43.5356 192.058 43.5356 193.374V197H42.2196V190.168H43.4516L43.5356 191.204C43.8156 190.49 44.5016 190.014 45.4396 190.014C45.6776 190.014 45.8736 190.042 46.1396 190.098ZM46.5958 193.57C46.5958 191.456 48.1078 189.972 50.1658 189.972C52.2098 189.972 53.7218 191.456 53.7218 193.57C53.7218 195.684 52.2098 197.168 50.1658 197.168C48.1078 197.168 46.5958 195.684 46.5958 193.57ZM47.9258 193.57C47.9258 194.998 48.8358 195.992 50.1658 195.992C51.4818 195.992 52.4058 194.998 52.4058 193.57C52.4058 192.142 51.4818 191.148 50.1658 191.148C48.8358 191.148 47.9258 192.142 47.9258 193.57ZM59.6875 197V191.26H56.6495V197H55.3335V191.26H54.3255V190.154H55.3335V189.062C55.3335 187.382 56.2435 186.696 57.4335 186.696C57.6855 186.696 57.9935 186.71 58.2455 186.752V187.886H57.6575C56.8595 187.886 56.6495 188.32 56.6495 189.062V190.154H61.0035V197H59.6875ZM60.3455 188.474C59.8695 188.474 59.5055 188.11 59.5055 187.634C59.5055 187.158 59.8695 186.794 60.3455 186.794C60.8075 186.794 61.1715 187.158 61.1715 187.634C61.1715 188.11 60.8075 188.474 60.3455 188.474ZM64.7218 197H63.4058V191.26H62.0618V190.154H63.4058V188.012H64.7218V190.154H66.0658V191.26H64.7218V197ZM70.151 188.138V186.878H77.613V188.138H74.575V197H73.203V188.138H70.151ZM79.5789 197.168C78.1089 197.168 77.2409 196.342 77.2409 195.096C77.2409 193.836 78.1789 193.052 79.7889 192.926L81.9449 192.758V192.562C81.9449 191.414 81.2589 191.008 80.3349 191.008C79.2289 191.008 78.5989 191.498 78.5989 192.324H77.4509C77.4509 190.896 78.6269 189.958 80.3909 189.958C82.0849 189.958 83.2329 190.854 83.2329 192.702V197H82.1129L81.9729 195.894C81.6229 196.678 80.6849 197.168 79.5789 197.168ZM79.9569 196.146C81.2029 196.146 81.9589 195.334 81.9589 194.046V193.682L80.2089 193.822C79.0469 193.934 78.5709 194.382 78.5709 195.054C78.5709 195.782 79.1029 196.146 79.9569 196.146ZM88.8914 190.098V191.302H88.3034C87.0574 191.302 86.2874 192.058 86.2874 193.374V197H84.9714V190.168H86.2034L86.2874 191.204C86.5674 190.49 87.2534 190.014 88.1914 190.014C88.4294 190.014 88.6254 190.042 88.8914 190.098ZM89.4573 193.402C89.4573 191.47 90.7033 189.958 92.6913 189.958C93.7973 189.958 94.6513 190.462 95.0853 191.316L95.1833 190.154H96.3593V196.72C96.3593 198.876 95.0293 200.248 92.9293 200.248C91.0673 200.248 89.7933 199.198 89.5413 197.462H90.8573C91.0253 198.47 91.7813 199.058 92.9293 199.058C94.2173 199.058 95.0573 198.218 95.0573 196.916V195.544C94.6093 196.342 93.7133 196.818 92.6353 196.818C90.6893 196.818 89.4573 195.32 89.4573 193.402ZM90.7733 193.374C90.7733 194.662 91.5713 195.67 92.8593 195.67C94.1893 195.67 95.0013 194.718 95.0013 193.374C95.0013 192.058 94.2173 191.106 92.8733 191.106C91.5573 191.106 90.7733 192.114 90.7733 193.374ZM101.129 197.168C99.1125 197.168 97.7265 195.712 97.7265 193.584C97.7265 191.442 99.0845 189.958 101.073 189.958C103.019 189.958 104.293 191.302 104.293 193.332V193.822L99.0005 193.836C99.0985 195.278 99.8545 196.076 101.157 196.076C102.179 196.076 102.851 195.656 103.075 194.872H104.307C103.971 196.342 102.823 197.168 101.129 197.168ZM101.073 191.064C99.9245 191.064 99.1965 191.75 99.0285 192.954H102.977C102.977 191.82 102.235 191.064 101.073 191.064ZM107.542 197H106.226V191.26H104.882V190.154H106.226V188.012H107.542V190.154H108.886V191.26H107.542V197Z" fill="white"/>
<path d="M150.086 198.164V197.132C148.502 197.036 147.458 196.136 147.386 194.732H148.586C148.61 195.5 149.174 196.004 150.086 196.1V193.112L149.654 193.016C148.238 192.692 147.506 191.9 147.506 190.664C147.506 189.296 148.526 188.324 150.086 188.192V187.148H150.854V188.18C152.306 188.312 153.23 189.2 153.314 190.592H152.15C152.102 189.824 151.634 189.332 150.854 189.224V192.2L151.322 192.308C152.762 192.632 153.458 193.388 153.458 194.588C153.458 196.016 152.438 196.976 150.854 197.12V198.164H150.086ZM149.894 191.972L150.086 192.02V189.224C149.198 189.344 148.658 189.86 148.658 190.628C148.658 191.324 149.054 191.768 149.894 191.972ZM151.082 193.352L150.854 193.304V196.076C151.754 195.956 152.306 195.44 152.306 194.684C152.306 193.988 151.91 193.544 151.082 193.352ZM157.192 197.144C155.416 197.144 154.264 196.016 154.264 194.288H155.428C155.428 195.404 156.112 196.088 157.216 196.088C158.392 196.088 159.148 195.308 159.148 194.132C159.148 193.016 158.44 192.188 157.228 192.188C156.496 192.188 155.824 192.536 155.428 193.028L154.432 192.776L155.488 188.324H159.832V189.404H156.34L155.764 191.708C156.22 191.36 156.796 191.18 157.444 191.18C159.208 191.18 160.348 192.416 160.348 194.084C160.348 195.884 159.064 197.144 157.192 197.144ZM162.788 196.532C162.788 197.396 162.14 198.116 161.288 198.224V197.72C161.78 197.636 162.128 197.312 162.128 196.94C162.044 196.988 161.948 197.012 161.804 197.012C161.408 197.012 161.072 196.724 161.072 196.28C161.072 195.8 161.396 195.452 161.876 195.452C162.38 195.452 162.788 195.872 162.788 196.532ZM163.452 192.668C163.452 189.98 164.844 188.156 167.028 188.156C169.2 188.156 170.592 189.98 170.592 192.668C170.592 195.368 169.26 197.156 167.028 197.156C164.784 197.156 163.452 195.368 163.452 192.668ZM164.616 192.668C164.616 194.804 165.504 196.1 167.028 196.1C168.552 196.1 169.428 194.804 169.428 192.668C169.428 190.508 168.552 189.212 167.028 189.212C165.504 189.212 164.616 190.508 164.616 192.668ZM171.532 192.668C171.532 189.98 172.924 188.156 175.108 188.156C177.28 188.156 178.672 189.98 178.672 192.668C178.672 195.368 177.34 197.156 175.108 197.156C172.864 197.156 171.532 195.368 171.532 192.668ZM172.696 192.668C172.696 194.804 173.584 196.1 175.108 196.1C176.632 196.1 177.508 194.804 177.508 192.668C177.508 190.508 176.632 189.212 175.108 189.212C173.584 189.212 172.696 190.508 172.696 192.668ZM179.613 192.668C179.613 189.98 181.005 188.156 183.189 188.156C185.361 188.156 186.753 189.98 186.753 192.668C186.753 195.368 185.421 197.156 183.189 197.156C180.945 197.156 179.613 195.368 179.613 192.668ZM180.777 192.668C180.777 194.804 181.665 196.1 183.189 196.1C184.713 196.1 185.589 194.804 185.589 192.668C185.589 190.508 184.713 189.212 183.189 189.212C181.665 189.212 180.777 190.508 180.777 192.668ZM188.269 197.144C187.801 197.144 187.405 196.76 187.405 196.304C187.405 195.836 187.801 195.452 188.269 195.452C188.725 195.452 189.121 195.836 189.121 196.304C189.121 196.76 188.725 197.144 188.269 197.144ZM189.785 192.668C189.785 189.98 191.177 188.156 193.361 188.156C195.533 188.156 196.925 189.98 196.925 192.668C196.925 195.368 195.593 197.156 193.361 197.156C191.117 197.156 189.785 195.368 189.785 192.668ZM190.949 192.668C190.949 194.804 191.837 196.1 193.361 196.1C194.885 196.1 195.761 194.804 195.761 192.668C195.761 190.508 194.885 189.212 193.361 189.212C191.837 189.212 190.949 190.508 190.949 192.668ZM197.865 192.668C197.865 189.98 199.257 188.156 201.441 188.156C203.613 188.156 205.005 189.98 205.005 192.668C205.005 195.368 203.673 197.156 201.441 197.156C199.197 197.156 197.865 195.368 197.865 192.668ZM199.029 192.668C199.029 194.804 199.917 196.1 201.441 196.1C202.965 196.1 203.841 194.804 203.841 192.668C203.841 190.508 202.965 189.212 201.441 189.212C199.917 189.212 199.029 190.508 199.029 192.668Z" fill="#3EDC81"/>
<rect x="32.6016" y="216" width="127.4" height="8" rx="4" fill="white" fill-opacity="0.2"/>
<rect x="48.5078" y="214" width="12" height="12" rx="6" fill="#3EDC81"/>
<circle cx="54.5078" cy="220" r="3" fill="#486160"/>
<path d="M184.855 217.38H183.031V216.324H185.983V225H184.855V217.38ZM187.33 220.668C187.33 217.98 188.722 216.156 190.906 216.156C193.078 216.156 194.47 217.98 194.47 220.668C194.47 223.368 193.138 225.156 190.906 225.156C188.662 225.156 187.33 223.368 187.33 220.668ZM188.494 220.668C188.494 222.804 189.382 224.1 190.906 224.1C192.43 224.1 193.306 222.804 193.306 220.668C193.306 218.508 192.43 217.212 190.906 217.212C189.382 217.212 188.494 218.508 188.494 220.668ZM199.706 218.376C199.706 219.66 198.794 220.584 197.51 220.584C196.238 220.584 195.326 219.66 195.326 218.376C195.326 217.08 196.238 216.156 197.51 216.156C198.794 216.156 199.706 217.08 199.706 218.376ZM204.278 216.336L197.69 225H196.538L203.126 216.336H204.278ZM198.782 218.376C198.782 217.596 198.266 217.056 197.51 217.056C196.766 217.056 196.25 217.596 196.25 218.376C196.25 219.144 196.766 219.684 197.51 219.684C198.254 219.684 198.782 219.144 198.782 218.376ZM205.514 222.948C205.514 224.232 204.59 225.156 203.318 225.156C202.046 225.156 201.122 224.232 201.122 222.948C201.122 221.652 202.046 220.74 203.318 220.74C204.59 220.74 205.514 221.652 205.514 222.948ZM204.578 222.948C204.578 222.168 204.074 221.628 203.318 221.628C202.574 221.628 202.058 222.168 202.058 222.948C202.058 223.716 202.574 224.256 203.318 224.256C204.062 224.256 204.578 223.716 204.578 222.948Z" fill="#3EDC81"/>
<path d="M234.002 178C234.002 172.477 238.479 168 244.002 168H421.402C426.925 168 431.402 172.477 431.402 178V232C431.402 237.523 426.925 242 421.402 242H244.002C238.479 242 234.002 237.523 234.002 232V178Z" fill="white" fill-opacity="0.03"/>
<path d="M244.002 168.5H421.402C426.649 168.5 430.902 172.753 430.902 178V232C430.902 237.247 426.649 241.5 421.402 241.5H244.002C238.755 241.5 234.502 237.247 234.502 232V178C234.502 172.753 238.755 168.5 244.002 168.5Z" stroke="white" stroke-opacity="0.02"/>
<path d="M248.522 197H247.178V186.878H248.522L252.008 195.39L255.494 186.878H256.866V197H255.522V192.996C255.522 191.106 255.536 190.42 255.606 189.706L252.652 197H251.364L248.424 189.734C248.494 190.224 248.522 191.26 248.522 192.674V197ZM260.917 197.168C259.447 197.168 258.579 196.342 258.579 195.096C258.579 193.836 259.517 193.052 261.127 192.926L263.283 192.758V192.562C263.283 191.414 262.597 191.008 261.673 191.008C260.567 191.008 259.937 191.498 259.937 192.324H258.789C258.789 190.896 259.965 189.958 261.729 189.958C263.423 189.958 264.571 190.854 264.571 192.702V197H263.451L263.311 195.894C262.961 196.678 262.023 197.168 260.917 197.168ZM261.295 196.146C262.541 196.146 263.297 195.334 263.297 194.046V193.682L261.547 193.822C260.385 193.934 259.909 194.382 259.909 195.054C259.909 195.782 260.441 196.146 261.295 196.146ZM267.009 197H265.497L267.891 193.612L265.511 190.154H267.037L268.773 192.702L270.467 190.154H271.965L269.585 193.612L271.923 197H270.397L268.689 194.494L267.009 197ZM273.623 188.53C273.147 188.53 272.755 188.138 272.755 187.662C272.755 187.172 273.147 186.794 273.623 186.794C274.099 186.794 274.491 187.172 274.491 187.662C274.491 188.138 274.099 188.53 273.623 188.53ZM272.979 197V190.154H274.295V197H272.979ZM277.438 197H276.122V190.154H277.298L277.424 191.05C277.774 190.406 278.502 189.958 279.468 189.958C280.532 189.958 281.288 190.49 281.638 191.344C281.96 190.49 282.786 189.958 283.85 189.958C285.418 189.958 286.37 190.938 286.37 192.52V197H285.082V192.842C285.082 191.764 284.48 191.148 283.556 191.148C282.562 191.148 281.904 191.848 281.904 192.94V197H280.602V192.828C280.602 191.75 280.014 191.162 279.09 191.162C278.096 191.162 277.438 191.848 277.438 192.94V197ZM292.842 190.154H294.144V197H292.968L292.828 195.964C292.436 196.678 291.526 197.168 290.518 197.168C288.922 197.168 288.026 196.09 288.026 194.41V190.154H289.342V193.976C289.342 195.446 289.972 196.006 290.98 196.006C292.184 196.006 292.842 195.236 292.842 193.766V190.154ZM297.285 197H295.969V190.154H297.145L297.271 191.05C297.621 190.406 298.349 189.958 299.315 189.958C300.379 189.958 301.135 190.49 301.485 191.344C301.807 190.49 302.633 189.958 303.697 189.958C305.265 189.958 306.217 190.938 306.217 192.52V197H304.929V192.842C304.929 191.764 304.327 191.148 303.403 191.148C302.409 191.148 301.751 191.848 301.751 192.94V197H300.449V192.828C300.449 191.75 299.861 191.162 298.937 191.162C297.943 191.162 297.285 191.848 297.285 192.94V197ZM313.298 197H311.926V186.878H315.748C317.918 186.878 319.206 188.026 319.206 189.916C319.206 191.316 318.506 192.324 317.246 192.73L319.304 197H317.778L315.888 192.996H313.298V197ZM313.298 188.11V191.778H315.762C317.036 191.778 317.764 191.092 317.764 189.93C317.764 188.754 317.008 188.11 315.748 188.11H313.298ZM321.422 188.53C320.946 188.53 320.554 188.138 320.554 187.662C320.554 187.172 320.946 186.794 321.422 186.794C321.898 186.794 322.29 187.172 322.29 187.662C322.29 188.138 321.898 188.53 321.422 188.53ZM320.778 197V190.154H322.094V197H320.778ZM323.361 195.012H324.621C324.621 195.712 325.153 196.132 326.021 196.132C326.945 196.132 327.477 195.754 327.477 195.124C327.477 194.662 327.253 194.382 326.539 194.2L325.335 193.92C324.117 193.626 323.543 193.024 323.543 192.016C323.543 190.756 324.607 189.958 326.119 189.958C327.617 189.958 328.597 190.798 328.625 192.1H327.365C327.337 191.414 326.875 190.98 326.077 190.98C325.251 190.98 324.789 191.344 324.789 191.974C324.789 192.436 325.125 192.744 325.797 192.912L327.001 193.206C328.163 193.486 328.737 194.018 328.737 195.04C328.737 196.342 327.617 197.168 325.993 197.168C324.383 197.168 323.361 196.314 323.361 195.012ZM331.456 197H330.14V186.696H331.456V193.374L334.494 190.154H336.146L333.528 192.884L336.132 197H334.62L332.618 193.836L331.456 195.054V197Z" fill="white"/>
<path d="M363.486 198.164V197.132C361.902 197.036 360.858 196.136 360.786 194.732H361.986C362.01 195.5 362.574 196.004 363.486 196.1V193.112L363.054 193.016C361.638 192.692 360.906 191.9 360.906 190.664C360.906 189.296 361.926 188.324 363.486 188.192V187.148H364.254V188.18C365.706 188.312 366.63 189.2 366.714 190.592H365.55C365.502 189.824 365.034 189.332 364.254 189.224V192.2L364.722 192.308C366.162 192.632 366.858 193.388 366.858 194.588C366.858 196.016 365.838 196.976 364.254 197.12V198.164H363.486ZM363.294 191.972L363.486 192.02V189.224C362.598 189.344 362.058 189.86 362.058 190.628C362.058 191.324 362.454 191.768 363.294 191.972ZM364.482 193.352L364.254 193.304V196.076C365.154 195.956 365.706 195.44 365.706 194.684C365.706 193.988 365.31 193.544 364.482 193.352ZM373.496 196.988L367.64 197V196.1L370.436 193.688C371.84 192.476 372.236 191.888 372.236 190.964C372.236 189.872 371.612 189.224 370.568 189.224C369.5 189.224 368.804 190.004 368.78 191.24H367.604C367.64 189.38 368.816 188.168 370.58 188.168C372.32 188.168 373.436 189.224 373.436 190.892C373.436 192.128 372.824 193.004 371.288 194.336L369.488 195.896H373.496V196.988ZM376.364 196.532C376.364 197.396 375.716 198.116 374.864 198.224V197.72C375.356 197.636 375.704 197.312 375.704 196.94C375.62 196.988 375.524 197.012 375.38 197.012C374.984 197.012 374.648 196.724 374.648 196.28C374.648 195.8 374.972 195.452 375.452 195.452C375.956 195.452 376.364 195.872 376.364 196.532ZM377.028 192.668C377.028 189.98 378.42 188.156 380.604 188.156C382.776 188.156 384.168 189.98 384.168 192.668C384.168 195.368 382.836 197.156 380.604 197.156C378.36 197.156 377.028 195.368 377.028 192.668ZM378.192 192.668C378.192 194.804 379.08 196.1 380.604 196.1C382.128 196.1 383.004 194.804 383.004 192.668C383.004 190.508 382.128 189.212 380.604 189.212C379.08 189.212 378.192 190.508 378.192 192.668ZM385.108 192.668C385.108 189.98 386.5 188.156 388.684 188.156C390.856 188.156 392.248 189.98 392.248 192.668C392.248 195.368 390.916 197.156 388.684 197.156C386.44 197.156 385.108 195.368 385.108 192.668ZM386.272 192.668C386.272 194.804 387.16 196.1 388.684 196.1C390.208 196.1 391.084 194.804 391.084 192.668C391.084 190.508 390.208 189.212 388.684 189.212C387.16 189.212 386.272 190.508 386.272 192.668ZM393.189 192.668C393.189 189.98 394.581 188.156 396.765 188.156C398.937 188.156 400.329 189.98 400.329 192.668C400.329 195.368 398.997 197.156 396.765 197.156C394.521 197.156 393.189 195.368 393.189 192.668ZM394.353 192.668C394.353 194.804 395.241 196.1 396.765 196.1C398.289 196.1 399.165 194.804 399.165 192.668C399.165 190.508 398.289 189.212 396.765 189.212C395.241 189.212 394.353 190.508 394.353 192.668ZM401.845 197.144C401.377 197.144 400.981 196.76 400.981 196.304C400.981 195.836 401.377 195.452 401.845 195.452C402.301 195.452 402.697 195.836 402.697 196.304C402.697 196.76 402.301 197.144 401.845 197.144ZM403.361 192.668C403.361 189.98 404.753 188.156 406.937 188.156C409.109 188.156 410.501 189.98 410.501 192.668C410.501 195.368 409.169 197.156 406.937 197.156C404.693 197.156 403.361 195.368 403.361 192.668ZM404.525 192.668C404.525 194.804 405.413 196.1 406.937 196.1C408.461 196.1 409.337 194.804 409.337 192.668C409.337 190.508 408.461 189.212 406.937 189.212C405.413 189.212 404.525 190.508 404.525 192.668ZM411.441 192.668C411.441 189.98 412.833 188.156 415.017 188.156C417.189 188.156 418.581 189.98 418.581 192.668C418.581 195.368 417.249 197.156 415.017 197.156C412.773 197.156 411.441 195.368 411.441 192.668ZM412.605 192.668C412.605 194.804 413.493 196.1 415.017 196.1C416.541 196.1 417.417 194.804 417.417 192.668C417.417 190.508 416.541 189.212 415.017 189.212C413.493 189.212 412.605 190.508 412.605 192.668Z" fill="#EA4335"/>
<rect x="246.002" y="216" width="127.4" height="8" rx="4" fill="white" fill-opacity="0.2"/>
<rect x="252.908" y="214" width="12" height="12" rx="6" fill="#EA4335"/>
<circle cx="258.908" cy="220" r="3" fill="#486160"/>
<path d="M407.968 224.988L402.112 225V224.1L404.908 221.688C406.312 220.476 406.708 219.888 406.708 218.964C406.708 217.872 406.084 217.224 405.04 217.224C403.972 217.224 403.276 218.004 403.252 219.24H402.076C402.112 217.38 403.288 216.168 405.052 216.168C406.792 216.168 407.908 217.224 407.908 218.892C407.908 220.128 407.296 221.004 405.76 222.336L403.96 223.896H407.968V224.988ZM413.107 218.376C413.107 219.66 412.195 220.584 410.911 220.584C409.639 220.584 408.727 219.66 408.727 218.376C408.727 217.08 409.639 216.156 410.911 216.156C412.195 216.156 413.107 217.08 413.107 218.376ZM417.679 216.336L411.091 225H409.939L416.527 216.336H417.679ZM412.183 218.376C412.183 217.596 411.667 217.056 410.911 217.056C410.167 217.056 409.651 217.596 409.651 218.376C409.651 219.144 410.167 219.684 410.911 219.684C411.655 219.684 412.183 219.144 412.183 218.376ZM418.915 222.948C418.915 224.232 417.991 225.156 416.719 225.156C415.447 225.156 414.523 224.232 414.523 222.948C414.523 221.652 415.447 220.74 416.719 220.74C417.991 220.74 418.915 221.652 418.915 222.948ZM417.979 222.948C417.979 222.168 417.475 221.628 416.719 221.628C415.975 221.628 415.459 222.168 415.459 222.948C415.459 223.716 415.975 224.256 416.719 224.256C417.463 224.256 417.979 223.716 417.979 222.948Z" fill="#EA4335"/>
<path d="M20.6016 275C20.6016 269.399 20.6016 266.599 21.6915 264.46C22.6502 262.578 24.18 261.049 26.0617 260.09C28.2008 259 31.001 259 36.6016 259H138.868C144.469 259 147.269 259 149.408 260.09C151.29 261.049 152.82 262.578 153.778 264.46C154.868 266.599 154.868 269.399 154.868 275V309C154.868 314.601 154.868 317.401 153.778 319.54C152.82 321.422 151.29 322.951 149.408 323.91C147.269 325 144.469 325 138.868 325H36.6016C31.001 325 28.2008 325 26.0617 323.91C24.18 322.951 22.6502 321.422 21.6915 319.54C20.6016 317.401 20.6016 314.601 20.6016 309V275Z" fill="url(#paint5_linear_1644_5653)" fill-opacity="0.2"/>
<path d="M36.6016 259.5H138.868C141.677 259.5 143.753 259.501 145.396 259.635C147.032 259.768 148.193 260.032 149.181 260.535C150.968 261.446 152.422 262.9 153.333 264.688C153.836 265.675 154.1 266.836 154.233 268.473C154.368 270.115 154.368 272.191 154.368 275V309C154.368 311.809 154.368 313.885 154.233 315.527C154.1 317.164 153.836 318.325 153.333 319.312C152.422 321.1 150.968 322.554 149.181 323.465C148.193 323.968 147.032 324.232 145.396 324.365C143.753 324.499 141.677 324.5 138.868 324.5H36.6016C33.7931 324.5 31.7167 324.499 30.0742 324.365C28.4379 324.232 27.2763 323.968 26.2891 323.465C24.5015 322.554 23.0475 321.1 22.1367 319.312C21.6338 318.325 21.37 317.164 21.2363 315.527C21.1021 313.885 21.1016 311.809 21.1016 309V275C21.1016 272.191 21.1021 270.115 21.2363 268.473C21.37 266.836 21.6338 265.675 22.1367 264.688C23.0475 262.9 24.5015 261.446 26.2891 260.535C27.2763 260.032 28.4379 259.768 30.0742 259.635C31.7167 259.501 33.793 259.5 36.6016 259.5Z" stroke="white" stroke-opacity="0.02"/>
<path d="M34.9816 280.904H32.7856V284H31.6096V275.324H34.9816C36.6856 275.324 37.7776 276.44 37.7776 278.108C37.7776 279.728 36.6736 280.904 34.9816 280.904ZM34.7776 276.38H32.7856V279.848H34.7296C35.8936 279.848 36.5416 279.164 36.5416 278.096C36.5416 277.004 35.8816 276.38 34.7776 276.38ZM42.2056 278.084V279.116H41.7016C40.6336 279.116 39.9736 279.764 39.9736 280.892V284H38.8456V278.144H39.9016L39.9736 279.032C40.2136 278.42 40.8016 278.012 41.6056 278.012C41.8096 278.012 41.9776 278.036 42.2056 278.084ZM42.5966 281.06C42.5966 279.248 43.8926 277.976 45.6566 277.976C47.4086 277.976 48.7046 279.248 48.7046 281.06C48.7046 282.872 47.4086 284.144 45.6566 284.144C43.8926 284.144 42.5966 282.872 42.5966 281.06ZM43.7366 281.06C43.7366 282.284 44.5166 283.136 45.6566 283.136C46.7846 283.136 47.5766 282.284 47.5766 281.06C47.5766 279.836 46.7846 278.984 45.6566 278.984C44.5166 278.984 43.7366 279.836 43.7366 281.06ZM51.4787 284H50.3507V279.08H49.1987V278.132H50.3507V276.296H51.4787V278.132H52.6307V279.08H51.4787V284ZM56.0444 284.144C54.3164 284.144 53.1284 282.896 53.1284 281.072C53.1284 279.236 54.2924 277.964 55.9964 277.964C57.6644 277.964 58.7564 279.116 58.7564 280.856V281.276L54.2204 281.288C54.3044 282.524 54.9524 283.208 56.0684 283.208C56.9444 283.208 57.5204 282.848 57.7124 282.176H58.7684C58.4804 283.436 57.4964 284.144 56.0444 284.144ZM55.9964 278.912C55.0124 278.912 54.3884 279.5 54.2444 280.532H57.6284C57.6284 279.56 56.9924 278.912 55.9964 278.912ZM61.0723 284H59.9443V278.132H60.9643L61.0843 279.032C61.4563 278.36 62.2003 277.964 63.0283 277.964C64.5763 277.964 65.2843 278.912 65.2843 280.412V284H64.1563V280.664C64.1563 279.476 63.6043 278.996 62.7403 278.996C61.6843 278.996 61.0723 279.752 61.0723 280.892V284ZM68.4306 284H67.3026V279.08H66.1506V278.132H67.3026V276.296H68.4306V278.132H69.5826V279.08H68.4306V284ZM71.0749 276.74C70.6669 276.74 70.3309 276.404 70.3309 275.996C70.3309 275.576 70.6669 275.252 71.0749 275.252C71.4829 275.252 71.8189 275.576 71.8189 275.996C71.8189 276.404 71.4829 276.74 71.0749 276.74ZM70.5229 284V278.132H71.6509V284H70.5229ZM72.8326 281.06C72.8326 279.248 74.1286 277.976 75.8926 277.976C77.6446 277.976 78.9406 279.248 78.9406 281.06C78.9406 282.872 77.6446 284.144 75.8926 284.144C74.1286 284.144 72.8326 282.872 72.8326 281.06ZM73.9726 281.06C73.9726 282.284 74.7526 283.136 75.8926 283.136C77.0206 283.136 77.8126 282.284 77.8126 281.06C77.8126 279.836 77.0206 278.984 75.8926 278.984C74.7526 278.984 73.9726 279.836 73.9726 281.06ZM81.2452 284H80.1172V278.132H81.1372L81.2572 279.032C81.6292 278.36 82.3732 277.964 83.2012 277.964C84.7492 277.964 85.4572 278.912 85.4572 280.412V284H84.3292V280.664C84.3292 279.476 83.7772 278.996 82.9132 278.996C81.8572 278.996 81.2452 279.752 81.2452 280.892V284ZM88.6636 284.144C87.4036 284.144 86.6596 283.436 86.6596 282.368C86.6596 281.288 87.4636 280.616 88.8436 280.508L90.6916 280.364V280.196C90.6916 279.212 90.1036 278.864 89.3116 278.864C88.3636 278.864 87.8236 279.284 87.8236 279.992H86.8396C86.8396 278.768 87.8476 277.964 89.3596 277.964C90.8116 277.964 91.7956 278.732 91.7956 280.316V284H90.8356L90.7156 283.052C90.4156 283.724 89.6116 284.144 88.6636 284.144ZM88.9876 283.268C90.0556 283.268 90.7036 282.572 90.7036 281.468V281.156L89.2036 281.276C88.2076 281.372 87.7996 281.756 87.7996 282.332C87.7996 282.956 88.2556 283.268 88.9876 283.268ZM94.4377 284H93.3097V275.168H94.4377V284ZM102.799 280.904H100.603V284H99.4275V275.324H102.799C104.503 275.324 105.595 276.44 105.595 278.108C105.595 279.728 104.491 280.904 102.799 280.904ZM102.595 276.38H100.603V279.848H102.547C103.711 279.848 104.359 279.164 104.359 278.096C104.359 277.004 103.699 276.38 102.595 276.38ZM110.023 278.084V279.116H109.519C108.451 279.116 107.791 279.764 107.791 280.892V284H106.663V278.144H107.719L107.791 279.032C108.031 278.42 108.619 278.012 109.423 278.012C109.627 278.012 109.795 278.036 110.023 278.084ZM110.414 281.06C110.414 279.248 111.71 277.976 113.474 277.976C115.226 277.976 116.522 279.248 116.522 281.06C116.522 282.872 115.226 284.144 113.474 284.144C111.71 284.144 110.414 282.872 110.414 281.06ZM111.554 281.06C111.554 282.284 112.334 283.136 113.474 283.136C114.602 283.136 115.394 282.284 115.394 281.06C115.394 279.836 114.602 278.984 113.474 278.984C112.334 278.984 111.554 279.836 111.554 281.06ZM121.636 284V279.08H119.032V284H117.904V279.08H117.04V278.132H117.904V277.196C117.904 275.756 118.684 275.168 119.704 275.168C119.92 275.168 120.184 275.18 120.4 275.216V276.188H119.896C119.212 276.188 119.032 276.56 119.032 277.196V278.132H122.764V284H121.636ZM122.2 276.692C121.792 276.692 121.48 276.38 121.48 275.972C121.48 275.564 121.792 275.252 122.2 275.252C122.596 275.252 122.908 275.564 122.908 275.972C122.908 276.38 122.596 276.692 122.2 276.692ZM125.951 284H124.823V279.08H123.671V278.132H124.823V276.296H125.951V278.132H127.103V279.08H125.951V284Z" fill="white"/>
<path d="M34.7136 312.552V311.176C32.6016 311.048 31.2096 309.848 31.1136 307.976H32.7136C32.7456 309 33.4976 309.672 34.7136 309.8V305.816L34.1376 305.688C32.2496 305.256 31.2736 304.2 31.2736 302.552C31.2736 300.728 32.6336 299.432 34.7136 299.256V297.864H35.7376V299.24C37.6736 299.416 38.9056 300.6 39.0176 302.456H37.4656C37.4016 301.432 36.7776 300.776 35.7376 300.632V304.6L36.3616 304.744C38.2816 305.176 39.2096 306.184 39.2096 307.784C39.2096 309.688 37.8496 310.968 35.7376 311.16V312.552H34.7136ZM34.4576 304.296L34.7136 304.36V300.632C33.5296 300.792 32.8096 301.48 32.8096 302.504C32.8096 303.432 33.3376 304.024 34.4576 304.296ZM36.0416 306.136L35.7376 306.072V309.768C36.9376 309.608 37.6736 308.92 37.6736 307.912C37.6736 306.984 37.1456 306.392 36.0416 306.136ZM44.4119 311.192C42.0439 311.192 40.5079 309.688 40.5079 307.384H42.0599C42.0599 308.872 42.9719 309.784 44.4439 309.784C46.0119 309.784 47.0199 308.744 47.0199 307.176C47.0199 305.688 46.0759 304.584 44.4599 304.584C43.4839 304.584 42.5879 305.048 42.0599 305.704L40.7319 305.368L42.1399 299.432H47.9319V300.872H43.2759L42.5079 303.944C43.1159 303.48 43.8839 303.24 44.7479 303.24C47.0999 303.24 48.6199 304.888 48.6199 307.112C48.6199 309.512 46.9079 311.192 44.4119 311.192ZM52.0973 310.376C52.0973 311.528 51.2333 312.488 50.0973 312.632V311.96C50.7533 311.848 51.2173 311.416 51.2173 310.92C51.1053 310.984 50.9773 311.016 50.7853 311.016C50.2573 311.016 49.8093 310.632 49.8093 310.04C49.8093 309.4 50.2413 308.936 50.8813 308.936C51.5533 308.936 52.0973 309.496 52.0973 310.376ZM53.2069 305.224C53.2069 301.64 55.0629 299.208 57.9749 299.208C60.8709 299.208 62.7269 301.64 62.7269 305.224C62.7269 308.824 60.9509 311.208 57.9749 311.208C54.9829 311.208 53.2069 308.824 53.2069 305.224ZM54.7589 305.224C54.7589 308.072 55.9429 309.8 57.9749 309.8C60.0069 309.8 61.1749 308.072 61.1749 305.224C61.1749 302.344 60.0069 300.616 57.9749 300.616C55.9429 300.616 54.7589 302.344 54.7589 305.224ZM64.2047 305.224C64.2047 301.64 66.0607 299.208 68.9727 299.208C71.8687 299.208 73.7247 301.64 73.7247 305.224C73.7247 308.824 71.9487 311.208 68.9727 311.208C65.9807 311.208 64.2047 308.824 64.2047 305.224ZM65.7567 305.224C65.7567 308.072 66.9407 309.8 68.9727 309.8C71.0047 309.8 72.1727 308.072 72.1727 305.224C72.1727 302.344 71.0047 300.616 68.9727 300.616C66.9407 300.616 65.7567 302.344 65.7567 305.224ZM75.2024 305.224C75.2024 301.64 77.0584 299.208 79.9704 299.208C82.8664 299.208 84.7224 301.64 84.7224 305.224C84.7224 308.824 82.9464 311.208 79.9704 311.208C76.9784 311.208 75.2024 308.824 75.2024 305.224ZM76.7544 305.224C76.7544 308.072 77.9384 309.8 79.9704 309.8C82.0024 309.8 83.1704 308.072 83.1704 305.224C83.1704 302.344 82.0024 300.616 79.9704 300.616C77.9384 300.616 76.7544 302.344 76.7544 305.224ZM86.9679 311.192C86.3439 311.192 85.8159 310.68 85.8159 310.072C85.8159 309.448 86.3439 308.936 86.9679 308.936C87.5759 308.936 88.1039 309.448 88.1039 310.072C88.1039 310.68 87.5759 311.192 86.9679 311.192ZM89.2136 305.224C89.2136 301.64 91.0696 299.208 93.9816 299.208C96.8776 299.208 98.7336 301.64 98.7336 305.224C98.7336 308.824 96.9576 311.208 93.9816 311.208C90.9896 311.208 89.2136 308.824 89.2136 305.224ZM90.7656 305.224C90.7656 308.072 91.9496 309.8 93.9816 309.8C96.0136 309.8 97.1816 308.072 97.1816 305.224C97.1816 302.344 96.0136 300.616 93.9816 300.616C91.9496 300.616 90.7656 302.344 90.7656 305.224ZM100.211 305.224C100.211 301.64 102.067 299.208 104.979 299.208C107.875 299.208 109.731 301.64 109.731 305.224C109.731 308.824 107.955 311.208 104.979 311.208C101.987 311.208 100.211 308.824 100.211 305.224ZM101.763 305.224C101.763 308.072 102.947 309.8 104.979 309.8C107.011 309.8 108.179 308.072 108.179 305.224C108.179 302.344 107.011 300.616 104.979 300.616C102.947 300.616 101.763 302.344 101.763 305.224Z" fill="#3EDC81"/>
<path d="M158.869 275C158.869 269.399 158.869 266.599 159.959 264.46C160.918 262.578 162.448 261.049 164.329 260.09C166.468 259 169.269 259 174.869 259H277.136C282.736 259 285.537 259 287.676 260.09C289.557 261.049 291.087 262.578 292.046 264.46C293.136 266.599 293.136 269.399 293.136 275V309C293.136 314.601 293.136 317.401 292.046 319.54C291.087 321.422 289.557 322.951 287.676 323.91C285.537 325 282.736 325 277.136 325H174.869C169.269 325 166.468 325 164.329 323.91C162.448 322.951 160.918 321.422 159.959 319.54C158.869 317.401 158.869 314.601 158.869 309V275Z" fill="url(#paint6_linear_1644_5653)" fill-opacity="0.2"/>
<path d="M174.869 259.5H277.136C279.944 259.5 282.021 259.501 283.663 259.635C285.299 259.768 286.461 260.032 287.448 260.535C289.236 261.446 290.69 262.9 291.601 264.688C292.104 265.675 292.367 266.836 292.501 268.473C292.635 270.115 292.636 272.191 292.636 275V309C292.636 311.809 292.635 313.885 292.501 315.527C292.367 317.164 292.104 318.325 291.601 319.312C290.69 321.1 289.236 322.554 287.448 323.465C286.461 323.968 285.299 324.232 283.663 324.365C282.021 324.499 279.944 324.5 277.136 324.5H174.869C172.061 324.5 169.984 324.499 168.342 324.365C166.705 324.232 165.544 323.968 164.557 323.465C162.769 322.554 161.315 321.1 160.404 319.312C159.901 318.325 159.638 317.164 159.504 315.527C159.37 313.885 159.369 311.809 159.369 309V275C159.369 272.191 159.37 270.115 159.504 268.473C159.638 266.836 159.901 265.675 160.404 264.688C161.315 262.9 162.769 261.446 164.557 260.535C165.544 260.032 166.705 259.768 168.342 259.635C169.984 259.501 172.061 259.5 174.869 259.5Z" stroke="white" stroke-opacity="0.02"/>
<path d="M171.029 284H169.877V275.324H171.029L174.017 282.62L177.005 275.324H178.181V284H177.029V280.568C177.029 278.948 177.041 278.36 177.101 277.748L174.569 284H173.465L170.945 277.772C171.005 278.192 171.029 279.08 171.029 280.292V284ZM181.653 284.144C180.393 284.144 179.649 283.436 179.649 282.368C179.649 281.288 180.453 280.616 181.833 280.508L183.681 280.364V280.196C183.681 279.212 183.093 278.864 182.301 278.864C181.353 278.864 180.813 279.284 180.813 279.992H179.829C179.829 278.768 180.837 277.964 182.349 277.964C183.801 277.964 184.785 278.732 184.785 280.316V284H183.825L183.705 283.052C183.405 283.724 182.601 284.144 181.653 284.144ZM181.977 283.268C183.045 283.268 183.693 282.572 183.693 281.468V281.156L182.193 281.276C181.197 281.372 180.789 281.756 180.789 282.332C180.789 282.956 181.245 283.268 181.977 283.268ZM186.876 284H185.58L187.632 281.096L185.592 278.132H186.9L188.388 280.316L189.84 278.132H191.124L189.084 281.096L191.088 284H189.78L188.316 281.852L186.876 284ZM192.545 276.74C192.137 276.74 191.801 276.404 191.801 275.996C191.801 275.576 192.137 275.252 192.545 275.252C192.953 275.252 193.289 275.576 193.289 275.996C193.289 276.404 192.953 276.74 192.545 276.74ZM191.993 284V278.132H193.121V284H191.993ZM195.814 284H194.686V278.132H195.694L195.802 278.9C196.102 278.348 196.726 277.964 197.554 277.964C198.466 277.964 199.114 278.42 199.414 279.152C199.69 278.42 200.398 277.964 201.31 277.964C202.654 277.964 203.47 278.804 203.47 280.16V284H202.366V280.436C202.366 279.512 201.85 278.984 201.058 278.984C200.206 278.984 199.642 279.584 199.642 280.52V284H198.526V280.424C198.526 279.5 198.022 278.996 197.23 278.996C196.378 278.996 195.814 279.584 195.814 280.52V284ZM209.018 278.132H210.134V284H209.126L209.006 283.112C208.67 283.724 207.89 284.144 207.026 284.144C205.658 284.144 204.89 283.22 204.89 281.78V278.132H206.018V281.408C206.018 282.668 206.558 283.148 207.422 283.148C208.454 283.148 209.018 282.488 209.018 281.228V278.132ZM212.826 284H211.698V278.132H212.706L212.814 278.9C213.114 278.348 213.738 277.964 214.566 277.964C215.478 277.964 216.126 278.42 216.426 279.152C216.702 278.42 217.41 277.964 218.322 277.964C219.666 277.964 220.482 278.804 220.482 280.16V284H219.378V280.436C219.378 279.512 218.862 278.984 218.07 278.984C217.218 278.984 216.654 279.584 216.654 280.52V284H215.538V280.424C215.538 279.5 215.034 278.996 214.242 278.996C213.39 278.996 212.826 279.584 212.826 280.52V284ZM226.551 275.324V282.908H230.367V284H225.375V275.324H226.551ZM230.88 281.06C230.88 279.248 232.176 277.976 233.94 277.976C235.692 277.976 236.988 279.248 236.988 281.06C236.988 282.872 235.692 284.144 233.94 284.144C232.176 284.144 230.88 282.872 230.88 281.06ZM232.02 281.06C232.02 282.284 232.8 283.136 233.94 283.136C235.068 283.136 235.86 282.284 235.86 281.06C235.86 279.836 235.068 278.984 233.94 278.984C232.8 278.984 232.02 279.836 232.02 281.06ZM237.684 282.296H238.764C238.764 282.896 239.22 283.256 239.964 283.256C240.756 283.256 241.212 282.932 241.212 282.392C241.212 281.996 241.02 281.756 240.408 281.6L239.376 281.36C238.332 281.108 237.84 280.592 237.84 279.728C237.84 278.648 238.752 277.964 240.048 277.964C241.332 277.964 242.172 278.684 242.196 279.8H241.116C241.092 279.212 240.696 278.84 240.012 278.84C239.304 278.84 238.908 279.152 238.908 279.692C238.908 280.088 239.196 280.352 239.772 280.496L240.804 280.748C241.8 280.988 242.292 281.444 242.292 282.32C242.292 283.436 241.332 284.144 239.94 284.144C238.56 284.144 237.684 283.412 237.684 282.296ZM242.991 282.296H244.071C244.071 282.896 244.527 283.256 245.271 283.256C246.063 283.256 246.519 282.932 246.519 282.392C246.519 281.996 246.327 281.756 245.715 281.6L244.683 281.36C243.639 281.108 243.147 280.592 243.147 279.728C243.147 278.648 244.059 277.964 245.355 277.964C246.639 277.964 247.479 278.684 247.503 279.8H246.423C246.399 279.212 246.003 278.84 245.319 278.84C244.611 278.84 244.215 279.152 244.215 279.692C244.215 280.088 244.503 280.352 245.079 280.496L246.111 280.748C247.107 280.988 247.599 281.444 247.599 282.32C247.599 283.436 246.639 284.144 245.247 284.144C243.867 284.144 242.991 283.412 242.991 282.296Z" fill="white"/>
<path d="M172.981 312.552V311.176C170.869 311.048 169.477 309.848 169.381 307.976H170.981C171.013 309 171.765 309.672 172.981 309.8V305.816L172.405 305.688C170.517 305.256 169.541 304.2 169.541 302.552C169.541 300.728 170.901 299.432 172.981 299.256V297.864H174.005V299.24C175.941 299.416 177.173 300.6 177.285 302.456H175.733C175.669 301.432 175.045 300.776 174.005 300.632V304.6L174.629 304.744C176.549 305.176 177.477 306.184 177.477 307.784C177.477 309.688 176.117 310.968 174.005 311.16V312.552H172.981ZM172.725 304.296L172.981 304.36V300.632C171.797 300.792 171.077 301.48 171.077 302.504C171.077 303.432 171.605 304.024 172.725 304.296ZM174.309 306.136L174.005 306.072V309.768C175.205 309.608 175.941 308.92 175.941 307.912C175.941 306.984 175.413 306.392 174.309 306.136ZM186.552 310.984L178.744 311V309.8L182.472 306.584C184.344 304.968 184.872 304.184 184.872 302.952C184.872 301.496 184.04 300.632 182.648 300.632C181.224 300.632 180.296 301.672 180.264 303.32H178.696C178.744 300.84 180.312 299.224 182.664 299.224C184.984 299.224 186.472 300.632 186.472 302.856C186.472 304.504 185.656 305.672 183.608 307.448L181.208 309.528H186.552V310.984ZM190.599 310.376C190.599 311.528 189.735 312.488 188.599 312.632V311.96C189.255 311.848 189.719 311.416 189.719 310.92C189.607 310.984 189.479 311.016 189.287 311.016C188.759 311.016 188.311 310.632 188.311 310.04C188.311 309.4 188.743 308.936 189.383 308.936C190.055 308.936 190.599 309.496 190.599 310.376ZM191.709 305.224C191.709 301.64 193.565 299.208 196.477 299.208C199.373 299.208 201.229 301.64 201.229 305.224C201.229 308.824 199.453 311.208 196.477 311.208C193.485 311.208 191.709 308.824 191.709 305.224ZM193.261 305.224C193.261 308.072 194.445 309.8 196.477 309.8C198.509 309.8 199.677 308.072 199.677 305.224C199.677 302.344 198.509 300.616 196.477 300.616C194.445 300.616 193.261 302.344 193.261 305.224ZM202.707 305.224C202.707 301.64 204.563 299.208 207.475 299.208C210.371 299.208 212.227 301.64 212.227 305.224C212.227 308.824 210.451 311.208 207.475 311.208C204.483 311.208 202.707 308.824 202.707 305.224ZM204.259 305.224C204.259 308.072 205.443 309.8 207.475 309.8C209.507 309.8 210.675 308.072 210.675 305.224C210.675 302.344 209.507 300.616 207.475 300.616C205.443 300.616 204.259 302.344 204.259 305.224ZM213.704 305.224C213.704 301.64 215.56 299.208 218.472 299.208C221.368 299.208 223.224 301.64 223.224 305.224C223.224 308.824 221.448 311.208 218.472 311.208C215.48 311.208 213.704 308.824 213.704 305.224ZM215.256 305.224C215.256 308.072 216.44 309.8 218.472 309.8C220.504 309.8 221.672 308.072 221.672 305.224C221.672 302.344 220.504 300.616 218.472 300.616C216.44 300.616 215.256 302.344 215.256 305.224ZM225.47 311.192C224.846 311.192 224.318 310.68 224.318 310.072C224.318 309.448 224.846 308.936 225.47 308.936C226.078 308.936 226.606 309.448 226.606 310.072C226.606 310.68 226.078 311.192 225.47 311.192ZM227.716 305.224C227.716 301.64 229.572 299.208 232.484 299.208C235.38 299.208 237.236 301.64 237.236 305.224C237.236 308.824 235.46 311.208 232.484 311.208C229.492 311.208 227.716 308.824 227.716 305.224ZM229.268 305.224C229.268 308.072 230.452 309.8 232.484 309.8C234.516 309.8 235.684 308.072 235.684 305.224C235.684 302.344 234.516 300.616 232.484 300.616C230.452 300.616 229.268 302.344 229.268 305.224ZM238.713 305.224C238.713 301.64 240.569 299.208 243.481 299.208C246.377 299.208 248.233 301.64 248.233 305.224C248.233 308.824 246.457 311.208 243.481 311.208C240.489 311.208 238.713 308.824 238.713 305.224ZM240.265 305.224C240.265 308.072 241.449 309.8 243.481 309.8C245.513 309.8 246.681 308.072 246.681 305.224C246.681 302.344 245.513 300.616 243.481 300.616C241.449 300.616 240.265 302.344 240.265 305.224Z" fill="#EA4335"/>
<path d="M297.135 275C297.135 269.399 297.135 266.599 298.225 264.46C299.183 262.578 300.713 261.049 302.595 260.09C304.734 259 307.534 259 313.135 259H415.401C421.002 259 423.802 259 425.941 260.09C427.823 261.049 429.353 262.578 430.311 264.46C431.401 266.599 431.401 269.399 431.401 275V309C431.401 314.601 431.401 317.401 430.311 319.54C429.353 321.422 427.823 322.951 425.941 323.91C423.802 325 421.002 325 415.401 325H313.135C307.534 325 304.734 325 302.595 323.91C300.713 322.951 299.183 321.422 298.225 319.54C297.135 317.401 297.135 314.601 297.135 309V275Z" fill="url(#paint7_linear_1644_5653)" fill-opacity="0.2"/>
<path d="M313.135 259.5H415.401C418.21 259.5 420.286 259.501 421.929 259.635C423.565 259.768 424.727 260.032 425.714 260.535C427.501 261.446 428.955 262.9 429.866 264.688C430.369 265.675 430.633 266.836 430.767 268.473C430.901 270.115 430.901 272.191 430.901 275V309C430.901 311.809 430.901 313.885 430.767 315.527C430.633 317.164 430.369 318.325 429.866 319.312C428.955 321.1 427.501 322.554 425.714 323.465C424.727 323.968 423.565 324.232 421.929 324.365C420.286 324.499 418.21 324.5 415.401 324.5H313.135C310.326 324.5 308.25 324.499 306.607 324.365C304.971 324.232 303.809 323.968 302.822 323.465C301.035 322.554 299.581 321.1 298.67 319.312C298.167 318.325 297.903 317.164 297.77 315.527C297.635 313.885 297.635 311.809 297.635 309V275C297.635 272.191 297.635 270.115 297.77 268.473C297.903 266.836 298.167 265.675 298.67 264.688C299.581 262.9 301.035 261.446 302.822 260.535C303.809 260.032 304.971 259.768 306.607 259.635C308.25 259.501 310.326 259.5 313.135 259.5Z" stroke="white" stroke-opacity="0.02"/>
<path d="M309.319 284H308.143V275.324H311.419C313.279 275.324 314.383 276.308 314.383 277.928C314.383 279.128 313.783 279.992 312.703 280.34L314.467 284H313.159L311.539 280.568H309.319V284ZM309.319 276.38V279.524H311.431C312.523 279.524 313.147 278.936 313.147 277.94C313.147 276.932 312.499 276.38 311.419 276.38H309.319ZM316.282 276.74C315.874 276.74 315.538 276.404 315.538 275.996C315.538 275.576 315.874 275.252 316.282 275.252C316.69 275.252 317.026 275.576 317.026 275.996C317.026 276.404 316.69 276.74 316.282 276.74ZM315.73 284V278.132H316.858V284H315.73ZM317.944 282.296H319.024C319.024 282.896 319.48 283.256 320.224 283.256C321.016 283.256 321.472 282.932 321.472 282.392C321.472 281.996 321.28 281.756 320.668 281.6L319.636 281.36C318.592 281.108 318.1 280.592 318.1 279.728C318.1 278.648 319.012 277.964 320.308 277.964C321.592 277.964 322.432 278.684 322.456 279.8H321.376C321.352 279.212 320.956 278.84 320.272 278.84C319.564 278.84 319.168 279.152 319.168 279.692C319.168 280.088 319.456 280.352 320.032 280.496L321.064 280.748C322.06 280.988 322.552 281.444 322.552 282.32C322.552 283.436 321.592 284.144 320.2 284.144C318.82 284.144 317.944 283.412 317.944 282.296ZM324.883 284H323.755V275.168H324.883V280.892L327.487 278.132H328.903L326.659 280.472L328.891 284H327.595L325.879 281.288L324.883 282.332V284ZM330.053 284H328.937L332.321 275.336H333.449L330.053 284ZM335.56 284H334.384V275.324H337.66C339.52 275.324 340.624 276.308 340.624 277.928C340.624 279.128 340.024 279.992 338.944 280.34L340.708 284H339.4L337.78 280.568H335.56V284ZM335.56 276.38V279.524H337.672C338.764 279.524 339.388 278.936 339.388 277.94C339.388 276.932 338.74 276.38 337.66 276.38H335.56ZM344.082 284.144C342.354 284.144 341.166 282.896 341.166 281.072C341.166 279.236 342.33 277.964 344.034 277.964C345.702 277.964 346.794 279.116 346.794 280.856V281.276L342.258 281.288C342.342 282.524 342.99 283.208 344.106 283.208C344.982 283.208 345.558 282.848 345.75 282.176H346.806C346.518 283.436 345.534 284.144 344.082 284.144ZM344.034 278.912C343.05 278.912 342.426 279.5 342.282 280.532H345.666C345.666 279.56 345.03 278.912 344.034 278.912ZM349.043 284L347.123 278.132H348.287L349.259 281.18C349.391 281.612 349.511 282.056 349.619 282.572C349.715 282.056 349.871 281.564 350.003 281.18L350.987 278.132H352.139L353.111 281.18C353.207 281.468 353.399 282.152 353.495 282.572C353.591 282.104 353.699 281.696 353.867 281.18L354.851 278.132H356.027L354.023 284H352.955L351.935 280.856C351.743 280.268 351.623 279.812 351.563 279.488C351.503 279.776 351.395 280.16 351.179 280.868L350.159 284H349.043ZM358.368 284.144C357.108 284.144 356.364 283.436 356.364 282.368C356.364 281.288 357.168 280.616 358.548 280.508L360.396 280.364V280.196C360.396 279.212 359.808 278.864 359.016 278.864C358.068 278.864 357.528 279.284 357.528 279.992H356.544C356.544 278.768 357.552 277.964 359.064 277.964C360.516 277.964 361.5 278.732 361.5 280.316V284H360.54L360.42 283.052C360.12 283.724 359.316 284.144 358.368 284.144ZM358.692 283.268C359.76 283.268 360.408 282.572 360.408 281.468V281.156L358.908 281.276C357.912 281.372 357.504 281.756 357.504 282.332C357.504 282.956 357.96 283.268 358.692 283.268ZM366.35 278.084V279.116H365.846C364.778 279.116 364.118 279.764 364.118 280.892V284H362.99V278.144H364.046L364.118 279.032C364.358 278.42 364.946 278.012 365.75 278.012C365.954 278.012 366.122 278.036 366.35 278.084ZM369.477 284.144C367.773 284.144 366.741 282.872 366.741 281.084C366.741 279.284 367.785 277.964 369.525 277.964C370.425 277.964 371.181 278.36 371.577 279.08V275.168H372.693V284H371.685L371.589 282.932C371.205 283.736 370.413 284.144 369.477 284.144ZM369.705 283.124C370.857 283.124 371.565 282.272 371.565 281.048C371.565 279.848 370.857 278.984 369.705 278.984C368.553 278.984 367.881 279.848 367.881 281.048C367.881 282.26 368.553 283.124 369.705 283.124Z" fill="white"/>
<path d="M310.127 300.84H307.695V299.432H311.631V311H310.127V300.84ZM315.235 305.192C314.611 305.192 314.083 304.68 314.083 304.088C314.083 303.464 314.611 302.952 315.235 302.952C315.843 302.952 316.371 303.464 316.371 304.088C316.371 304.68 315.843 305.192 315.235 305.192ZM315.235 311.192C314.611 311.192 314.083 310.68 314.083 310.072C314.083 309.448 314.611 308.936 315.235 308.936C315.843 308.936 316.371 309.448 316.371 310.072C316.371 310.68 315.843 311.192 315.235 311.192ZM326.049 310.984L318.241 311V309.8L321.969 306.584C323.841 304.968 324.369 304.184 324.369 302.952C324.369 301.496 323.537 300.632 322.145 300.632C320.721 300.632 319.793 301.672 319.761 303.32H318.193C318.241 300.84 319.809 299.224 322.161 299.224C324.481 299.224 325.969 300.632 325.969 302.856C325.969 304.504 325.153 305.672 323.105 307.448L320.705 309.528H326.049V310.984ZM328.961 311.192C328.337 311.192 327.809 310.68 327.809 310.072C327.809 309.448 328.337 308.936 328.961 308.936C329.569 308.936 330.097 309.448 330.097 310.072C330.097 310.68 329.569 311.192 328.961 311.192ZM335.407 311.192C333.039 311.192 331.503 309.688 331.503 307.384H333.055C333.055 308.872 333.967 309.784 335.439 309.784C337.007 309.784 338.015 308.744 338.015 307.176C338.015 305.688 337.071 304.584 335.455 304.584C334.479 304.584 333.583 305.048 333.055 305.704L331.727 305.368L333.135 299.432H338.927V300.872H334.271L333.503 303.944C334.111 303.48 334.879 303.24 335.743 303.24C338.095 303.24 339.615 304.888 339.615 307.112C339.615 309.512 337.903 311.192 335.407 311.192ZM340.876 305.224C340.876 301.64 342.732 299.208 345.644 299.208C348.54 299.208 350.396 301.64 350.396 305.224C350.396 308.824 348.62 311.208 345.644 311.208C342.652 311.208 340.876 308.824 340.876 305.224ZM342.428 305.224C342.428 308.072 343.612 309.8 345.644 309.8C347.676 309.8 348.844 308.072 348.844 305.224C348.844 302.344 347.676 300.616 345.644 300.616C343.612 300.616 342.428 302.344 342.428 305.224Z" fill="url(#paint8_linear_1644_5653)"/>
<defs>
<linearGradient id="paint0_linear_1644_5653" x1="54.8162" y1="293.764" x2="228.872" y2="-110.114" gradientUnits="userSpaceOnUse">
<stop stop-color="#0276DB"/>
<stop offset="1" stop-color="#3EDC81"/>
</linearGradient>
<radialGradient id="paint1_radial_1644_5653" cx="0" cy="0" r="1" gradientTransform="matrix(-0.286152 345.75 -450.474 -0.0809051 226.288 0.249996)" gradientUnits="userSpaceOnUse">
<stop stop-color="#161616" stop-opacity="0.6"/>
<stop offset="0.740127" stop-color="#161616" stop-opacity="0.946662"/>
<stop offset="1" stop-color="#161616"/>
</radialGradient>
<linearGradient id="paint2_linear_1644_5653" x1="54.8162" y1="293.764" x2="123.695" y2="3.53246" gradientUnits="userSpaceOnUse">
<stop stop-color="#0276DB"/>
<stop offset="1" stop-color="#3EDC81"/>
</linearGradient>
<linearGradient id="paint3_linear_1644_5653" x1="34.6016" y1="20" x2="34.6016" y2="48" gradientUnits="userSpaceOnUse">
<stop stop-color="white" stop-opacity="0.2"/>
<stop offset="1" stop-color="white" stop-opacity="0.1"/>
</linearGradient>
<linearGradient id="paint4_linear_1644_5653" x1="226.002" y1="112" x2="226.002" y2="152" gradientUnits="userSpaceOnUse">
<stop stop-color="white" stop-opacity="0.2"/>
<stop offset="1" stop-color="white" stop-opacity="0.1"/>
</linearGradient>
<linearGradient id="paint5_linear_1644_5653" x1="87.7349" y1="259" x2="87.7349" y2="325" gradientUnits="userSpaceOnUse">
<stop stop-color="white" stop-opacity="0.2"/>
<stop offset="1" stop-color="white" stop-opacity="0.1"/>
</linearGradient>
<linearGradient id="paint6_linear_1644_5653" x1="226.002" y1="259" x2="226.002" y2="325" gradientUnits="userSpaceOnUse">
<stop stop-color="white" stop-opacity="0.2"/>
<stop offset="1" stop-color="white" stop-opacity="0.1"/>
</linearGradient>
<linearGradient id="paint7_linear_1644_5653" x1="364.268" y1="259" x2="364.268" y2="325" gradientUnits="userSpaceOnUse">
<stop stop-color="white" stop-opacity="0.2"/>
<stop offset="1" stop-color="white" stop-opacity="0.1"/>
</linearGradient>
<linearGradient id="paint8_linear_1644_5653" x1="344.135" y1="295" x2="344.135" y2="315" gradientUnits="userSpaceOnUse">
<stop stop-color="#15B0F8"/>
<stop offset="1" stop-color="#0276DB"/>
</linearGradient>
</defs>
</svg>
