<svg width="350" height="241" viewBox="0 0 350 241" fill="none" xmlns="http://www.w3.org/2000/svg">
<g clip-path="url(#clip0_640_39889)">
<g filter="url(#filter0_f_640_39889)">
<circle cx="175" cy="121.303" r="63" fill="#3EDC81"/>
</g>
<rect x="31" y="14.533" width="201.475" height="100.925" rx="7.4759" fill="url(#paint0_linear_640_39889)" fill-opacity="0.5"/>
<rect x="31" y="14.533" width="201.475" height="100.925" rx="7.4759" fill="url(#paint1_linear_640_39889)" fill-opacity="0.5"/>
<rect x="31.3738" y="14.9068" width="200.728" height="100.177" rx="7.1021" stroke="white" stroke-opacity="0.1" stroke-width="0.74759"/>
<rect x="39.9707" y="24.9993" width="23.9229" height="23.9229" rx="5.81459" fill="url(#paint2_linear_640_39889)" fill-opacity="0.7"/>
<g clip-path="url(#clip1_640_39889)">
<path d="M50.9345 32.5748C50.1548 32.7556 49.4377 33.1416 48.8576 33.6929C48.2775 34.2442 47.8554 34.9407 47.6351 35.7101C47.4149 36.4795 47.4045 37.2938 47.605 38.0686C47.8056 38.8433 48.2098 39.5503 48.7757 40.1162C49.3416 40.6822 50.0486 41.0863 50.8234 41.2869C51.5982 41.4875 52.4125 41.4771 53.1819 41.2568C53.9513 41.0366 54.6478 40.6145 55.199 40.0343C55.7503 39.4542 56.1364 38.7371 56.3171 37.9575C56.3171 37.8253 56.2646 37.6985 56.1711 37.6051C56.0777 37.5116 55.9509 37.4591 55.8187 37.4591H52.4296C52.1653 37.4591 51.9117 37.3541 51.7248 37.1671C51.5379 36.9802 51.4329 36.7267 51.4329 36.4623V32.9735C51.4267 32.9145 51.4088 32.8573 51.3803 32.8052C51.3519 32.7531 51.3133 32.7072 51.267 32.6701C51.2206 32.633 51.1673 32.6055 51.1103 32.5891C51.0532 32.5728 50.9934 32.5679 50.9345 32.5748Z" stroke="white" stroke-width="0.934487" stroke-linecap="round" stroke-linejoin="round"/>
<path d="M53.4277 32.7234C54.0606 32.9462 54.6353 33.3082 55.1097 33.7826C55.5841 34.257 55.9461 34.8317 56.1689 35.4646H53.9261C53.7939 35.4646 53.6672 35.412 53.5737 35.3186C53.4802 35.2251 53.4277 35.0983 53.4277 34.9662V32.7234Z" stroke="white" stroke-width="0.934487" stroke-linecap="round" stroke-linejoin="round"/>
</g>
<path d="M69.5721 41.4607H68.5045L71.2676 33.8936H72.4084L75.182 41.4607H74.1039L73.4236 39.5768H70.2419L69.5721 41.4607ZM71.7072 35.5263L70.5559 38.6871H73.1201L71.9584 35.5263C71.906 35.3798 71.8537 35.2019 71.8328 35.0867C71.8118 35.1914 71.7595 35.3693 71.7072 35.5263ZM75.4285 38.9069C75.4285 37.3056 76.4437 36.1962 77.9404 36.1962C79.2278 36.1962 80.1279 36.9288 80.3058 38.0696H79.3219C79.1545 37.4207 78.6312 37.0753 77.9718 37.0753C77.0403 37.0753 76.4019 37.787 76.4019 38.8965C76.4019 39.9954 76.9984 40.7071 77.9299 40.7071C78.6312 40.7071 79.1545 40.3408 79.3324 39.7338H80.3162C80.1174 40.8432 79.165 41.5863 77.9299 41.5863C76.4228 41.5863 75.4285 40.5187 75.4285 38.9069ZM80.9566 38.9069C80.9566 37.3056 81.9718 36.1962 83.4685 36.1962C84.7558 36.1962 85.6559 36.9288 85.8338 38.0696H84.85C84.6826 37.4207 84.1592 37.0753 83.4999 37.0753C82.5684 37.0753 81.9299 37.787 81.9299 38.8965C81.9299 39.9954 82.5265 40.7071 83.458 40.7071C84.1592 40.7071 84.6826 40.3408 84.8605 39.7338H85.8443C85.6454 40.8432 84.693 41.5863 83.458 41.5863C81.9509 41.5863 80.9566 40.5187 80.9566 38.9069ZM86.4846 38.8965C86.4846 37.3161 87.615 36.2066 89.1535 36.2066C90.6816 36.2066 91.812 37.3161 91.812 38.8965C91.812 40.4769 90.6816 41.5863 89.1535 41.5863C87.615 41.5863 86.4846 40.4769 86.4846 38.8965ZM87.4789 38.8965C87.4789 39.964 88.1592 40.7071 89.1535 40.7071C90.1374 40.7071 90.8281 39.964 90.8281 38.8965C90.8281 37.8289 90.1374 37.0858 89.1535 37.0858C88.1592 37.0858 87.4789 37.8289 87.4789 38.8965ZM96.2532 36.3427H97.2265V41.4607H96.3474L96.2427 40.6862C95.9496 41.22 95.2693 41.5863 94.5158 41.5863C93.3226 41.5863 92.6528 40.7804 92.6528 39.5244V36.3427H93.6366V39.2C93.6366 40.2989 94.1076 40.7176 94.8611 40.7176C95.7612 40.7176 96.2532 40.1419 96.2532 39.043V36.3427ZM99.575 41.4607H98.5911V36.3427H99.4808L99.5854 37.1277C99.9099 36.5416 100.559 36.1962 101.281 36.1962C102.631 36.1962 103.249 37.023 103.249 38.3313V41.4607H102.265V38.5511C102.265 37.5149 101.783 37.0963 101.03 37.0963C100.109 37.0963 99.575 37.7556 99.575 38.7499V41.4607ZM105.993 41.4607H105.009V37.1695H104.004V36.3427H105.009V34.7414H105.993V36.3427H106.998V37.1695H105.993V41.4607ZM111.789 41.4607H110.784V33.8936H111.789L114.395 40.2571L117.001 33.8936H118.027V41.4607H117.022V38.4673C117.022 37.0544 117.033 36.5416 117.085 36.0078L114.877 41.4607H113.914L111.716 36.0287C111.768 36.395 111.789 37.1695 111.789 38.2266V41.4607ZM121.055 41.5863C119.956 41.5863 119.307 40.9688 119.307 40.0373C119.307 39.0953 120.009 38.5092 121.212 38.415L122.824 38.2894V38.1429C122.824 37.2847 122.311 36.9811 121.621 36.9811C120.794 36.9811 120.323 37.3475 120.323 37.965H119.464C119.464 36.8974 120.344 36.1962 121.662 36.1962C122.929 36.1962 123.787 36.866 123.787 38.2476V41.4607H122.95L122.845 40.6339C122.583 41.22 121.882 41.5863 121.055 41.5863ZM121.338 40.8223C122.269 40.8223 122.835 40.2152 122.835 39.2523V38.9802L121.526 39.0849C120.658 39.1686 120.302 39.5035 120.302 40.0059C120.302 40.5501 120.699 40.8223 121.338 40.8223ZM128.017 36.3008V37.2009H127.578C126.646 37.2009 126.071 37.7661 126.071 38.7499V41.4607H125.087V36.3532H126.008L126.071 37.1277C126.28 36.5939 126.793 36.238 127.494 36.238C127.672 36.238 127.818 36.259 128.017 36.3008ZM128.44 38.7709C128.44 37.3265 129.372 36.1962 130.858 36.1962C131.685 36.1962 132.323 36.573 132.648 37.2114L132.721 36.3427H133.6V41.2514C133.6 42.8632 132.606 43.8889 131.036 43.8889C129.644 43.8889 128.692 43.1039 128.503 41.8061H129.487C129.613 42.5597 130.178 42.9992 131.036 42.9992C131.999 42.9992 132.627 42.3713 132.627 41.3979V40.3722C132.292 40.9688 131.622 41.3246 130.816 41.3246C129.361 41.3246 128.44 40.2047 128.44 38.7709ZM129.424 38.7499C129.424 39.7128 130.021 40.4664 130.984 40.4664C131.978 40.4664 132.585 39.7547 132.585 38.7499C132.585 37.7661 131.999 37.0544 130.994 37.0544C130.01 37.0544 129.424 37.808 129.424 38.7499ZM135.439 35.1286C135.083 35.1286 134.79 34.8356 134.79 34.4797C134.79 34.1134 135.083 33.8308 135.439 33.8308C135.795 33.8308 136.088 34.1134 136.088 34.4797C136.088 34.8356 135.795 35.1286 135.439 35.1286ZM134.957 41.4607V36.3427H135.941V41.4607H134.957ZM138.29 41.4607H137.307V36.3427H138.196L138.301 37.1277C138.625 36.5416 139.274 36.1962 139.996 36.1962C141.347 36.1962 141.964 37.023 141.964 38.3313V41.4607H140.98V38.5511C140.98 37.5149 140.499 37.0963 139.745 37.0963C138.824 37.0963 138.29 37.7556 138.29 38.7499V41.4607Z" fill="white"/>
<path d="M40.7033 75.9618C40.7033 72.6126 42.4377 70.3399 45.159 70.3399C47.8652 70.3399 49.5997 72.6126 49.5997 75.9618C49.5997 79.3259 47.94 81.5537 45.159 81.5537C42.363 81.5537 40.7033 79.3259 40.7033 75.9618ZM42.1537 75.9618C42.1537 78.6232 43.2601 80.238 45.159 80.238C47.0579 80.238 48.1493 78.6232 48.1493 75.9618C48.1493 73.2705 47.0579 71.6557 45.159 71.6557C43.2601 71.6557 42.1537 73.2705 42.1537 75.9618ZM51.698 81.5388C51.1149 81.5388 50.6215 81.0603 50.6215 80.4922C50.6215 79.9091 51.1149 79.4306 51.698 79.4306C52.2662 79.4306 52.7596 79.9091 52.7596 80.4922C52.7596 81.0603 52.2662 81.5388 51.698 81.5388ZM53.7966 75.9618C53.7966 72.6126 55.531 70.3399 58.2522 70.3399C60.9585 70.3399 62.6929 72.6126 62.6929 75.9618C62.6929 79.3259 61.0332 81.5537 58.2522 81.5537C55.4562 81.5537 53.7966 79.3259 53.7966 75.9618ZM55.2469 75.9618C55.2469 78.6232 56.3533 80.238 58.2522 80.238C60.1511 80.238 61.2425 78.6232 61.2425 75.9618C61.2425 73.2705 60.1511 71.6557 58.2522 71.6557C56.3533 71.6557 55.2469 73.2705 55.2469 75.9618ZM64.0738 75.9618C64.0738 72.6126 65.8082 70.3399 68.5294 70.3399C71.2357 70.3399 72.9701 72.6126 72.9701 75.9618C72.9701 79.3259 71.3105 81.5537 68.5294 81.5537C65.7335 81.5537 64.0738 79.3259 64.0738 75.9618ZM65.5241 75.9618C65.5241 78.6232 66.6306 80.238 68.5294 80.238C70.4283 80.238 71.5198 78.6232 71.5198 75.9618C71.5198 73.2705 70.4283 71.6557 68.5294 71.6557C66.6306 71.6557 65.5241 73.2705 65.5241 75.9618ZM75.0685 81.5388C74.4854 81.5388 73.992 81.0603 73.992 80.4922C73.992 79.9091 74.4854 79.4306 75.0685 79.4306C75.6367 79.4306 76.1301 79.9091 76.1301 80.4922C76.1301 81.0603 75.6367 81.5388 75.0685 81.5388ZM77.167 75.9618C77.167 72.6126 78.9014 70.3399 81.6227 70.3399C84.3289 70.3399 86.0633 72.6126 86.0633 75.9618C86.0633 79.3259 84.4037 81.5537 81.6227 81.5537C78.8267 81.5537 77.167 79.3259 77.167 75.9618ZM78.6173 75.9618C78.6173 78.6232 79.7238 80.238 81.6227 80.238C83.5215 80.238 84.613 78.6232 84.613 75.9618C84.613 73.2705 83.5215 71.6557 81.6227 71.6557C79.7238 71.6557 78.6173 73.2705 78.6173 75.9618ZM87.4443 75.9618C87.4443 72.6126 89.1787 70.3399 91.8999 70.3399C94.6062 70.3399 96.3406 72.6126 96.3406 75.9618C96.3406 79.3259 94.6809 81.5537 91.8999 81.5537C89.1039 81.5537 87.4443 79.3259 87.4443 75.9618ZM88.8946 75.9618C88.8946 78.6232 90.001 80.238 91.8999 80.238C93.7988 80.238 94.8903 78.6232 94.8903 75.9618C94.8903 73.2705 93.7988 71.6557 91.8999 71.6557C90.001 71.6557 88.8946 73.2705 88.8946 75.9618ZM97.7215 75.9618C97.7215 72.6126 99.4559 70.3399 102.177 70.3399C104.883 70.3399 106.618 72.6126 106.618 75.9618C106.618 79.3259 104.958 81.5537 102.177 81.5537C99.3812 81.5537 97.7215 79.3259 97.7215 75.9618ZM99.1719 75.9618C99.1719 78.6232 100.278 80.238 102.177 80.238C104.076 80.238 105.168 78.6232 105.168 75.9618C105.168 73.2705 104.076 71.6557 102.177 71.6557C100.278 71.6557 99.1719 73.2705 99.1719 75.9618Z" fill="white"/>
<path d="M40.0784 95.2084V94.6163H44.6805V95.2084H42.6979V101.04H42.052V95.2084H40.0784ZM44.4104 98.8686C44.4104 97.5408 45.3434 96.5809 46.6173 96.5809C47.8912 96.5809 48.8242 97.5408 48.8242 98.8686C48.8242 100.187 47.8912 101.147 46.6173 101.147C45.3434 101.147 44.4104 100.187 44.4104 98.8686ZM45.0384 98.8596C45.0384 99.8823 45.6843 100.591 46.6173 100.591C47.5413 100.591 48.1962 99.8823 48.1962 98.8596C48.1962 97.8548 47.5413 97.1371 46.6173 97.1371C45.6843 97.1371 45.0384 97.8548 45.0384 98.8596ZM50.7124 101.04H50.1023V97.2179H49.2321V96.6975H50.1023V95.325H50.7124V96.6975H51.5826V97.2179H50.7124V101.04ZM53.5117 101.147C52.5877 101.147 52.0404 100.627 52.0404 99.8643C52.0404 99.0659 52.6505 98.5635 53.6642 98.4828L55.0996 98.3662V98.2226C55.0996 97.3704 54.5882 97.1012 53.9513 97.1012C53.1977 97.1012 52.7492 97.4421 52.7492 98.0253H52.184C52.184 97.1461 52.9017 96.5809 53.9692 96.5809C54.974 96.5809 55.7096 97.0833 55.7096 98.2316V101.04H55.1893L55.1086 100.277C54.8394 100.824 54.2473 101.147 53.5117 101.147ZM53.6552 100.645C54.5703 100.645 55.0996 100.008 55.0996 99.0659V98.8327L53.8167 98.9313C53.0004 99.0031 52.6684 99.362 52.6684 99.8464C52.6684 100.376 53.0631 100.645 53.6552 100.645ZM57.5438 101.04H56.9248V94.4996H57.5438V101.04ZM61.3753 101.04H60.7205L63.0798 94.6163H63.8783L66.2646 101.04H65.5917L64.9638 99.335H62.0033L61.3753 101.04ZM63.3938 95.5223L62.2007 98.7699H64.7574L63.5553 95.5223C63.5284 95.4326 63.4835 95.325 63.4746 95.2622C63.4656 95.316 63.4297 95.4326 63.3938 95.5223ZM66.5151 98.8775C66.5151 97.5139 67.3494 96.5809 68.6144 96.5809C69.6191 96.5809 70.3548 97.164 70.5252 98.0612H69.9062C69.7447 97.4601 69.2244 97.1282 68.6233 97.1282C67.7442 97.1282 67.1252 97.801 67.1252 98.8686C67.1252 99.9002 67.6993 100.591 68.5785 100.591C69.2244 100.591 69.7447 100.232 69.9152 99.6759H70.5432C70.3368 100.564 69.5653 101.147 68.5785 101.147C67.3494 101.147 66.5151 100.241 66.5151 98.8775ZM71.1221 98.8775C71.1221 97.5139 71.9564 96.5809 73.2213 96.5809C74.2261 96.5809 74.9617 97.164 75.1321 98.0612H74.5131C74.3517 97.4601 73.8313 97.1282 73.2303 97.1282C72.3511 97.1282 71.7321 97.801 71.7321 98.8686C71.7321 99.9002 72.3062 100.591 73.1854 100.591C73.8313 100.591 74.3517 100.232 74.5221 99.6759H75.1501C74.9437 100.564 74.1722 101.147 73.1854 101.147C71.9564 101.147 71.1221 100.241 71.1221 98.8775ZM75.729 98.8686C75.729 97.5408 76.662 96.5809 77.9359 96.5809C79.2098 96.5809 80.1428 97.5408 80.1428 98.8686C80.1428 100.187 79.2098 101.147 77.9359 101.147C76.662 101.147 75.729 100.187 75.729 98.8686ZM76.357 98.8596C76.357 99.8823 77.0029 100.591 77.9359 100.591C78.8599 100.591 79.5148 99.8823 79.5148 98.8596C79.5148 97.8548 78.8599 97.1371 77.9359 97.1371C77.0029 97.1371 76.357 97.8548 76.357 98.8596ZM84.024 96.6975H84.643V101.04H84.1048L84.024 100.304C83.7818 100.806 83.1807 101.147 82.4989 101.147C81.4762 101.147 80.92 100.447 80.92 99.3889V96.6886H81.548V99.1915C81.548 100.223 82.0055 100.591 82.6963 100.591C83.5306 100.591 84.024 100.035 84.024 99.0031V96.6975ZM86.4976 101.04H85.8786V96.6975H86.4169L86.5066 97.4511C86.7937 96.8949 87.3678 96.5809 87.9958 96.5809C89.189 96.5809 89.6824 97.2896 89.6824 98.3841V101.04H89.0634V98.5187C89.0634 97.5049 88.6059 97.1461 87.8882 97.1461C87 97.1461 86.4976 97.792 86.4976 98.7699V101.04ZM91.8581 101.04H91.248V97.2179H90.3778V96.6975H91.248V95.325H91.8581V96.6975H92.7283V97.2179H91.8581V101.04ZM96.6863 101.04H96.0493V94.6163H96.6863L99.0277 100.277L101.369 94.6163H102.015V101.04H101.378V97.9894C101.378 96.868 101.396 96.3746 101.432 95.935L99.3417 101.04H98.7227L96.6324 95.9619C96.6683 96.2041 96.6863 96.9129 96.6863 97.8907V101.04ZM104.633 101.147C103.709 101.147 103.162 100.627 103.162 99.8643C103.162 99.0659 103.772 98.5635 104.786 98.4828L106.221 98.3662V98.2226C106.221 97.3704 105.71 97.1012 105.073 97.1012C104.319 97.1012 103.871 97.4421 103.871 98.0253H103.306C103.306 97.1461 104.023 96.5809 105.091 96.5809C106.096 96.5809 106.831 97.0833 106.831 98.2316V101.04H106.311L106.23 100.277C105.961 100.824 105.369 101.147 104.633 101.147ZM104.777 100.645C105.692 100.645 106.221 100.008 106.221 99.0659V98.8327L104.938 98.9313C104.122 99.0031 103.79 99.362 103.79 99.8464C103.79 100.376 104.185 100.645 104.777 100.645ZM110.289 96.6437V97.1999H109.948C109.15 97.1999 108.639 97.7382 108.639 98.5635V101.04H108.02V96.6975H108.603L108.648 97.3704C108.818 96.9039 109.276 96.5989 109.886 96.5989C110.02 96.5989 110.137 96.6078 110.289 96.6437ZM110.684 98.743C110.684 97.5588 111.446 96.5809 112.72 96.5809C113.474 96.5809 114.048 96.9308 114.326 97.5677L114.389 96.6975H114.927V100.905C114.927 102.197 114.102 103.04 112.828 103.04C111.715 103.04 110.935 102.412 110.764 101.363H111.383C111.518 102.062 112.056 102.475 112.837 102.475C113.725 102.475 114.317 101.874 114.317 100.968V99.9361C114.021 100.546 113.42 100.905 112.675 100.905C111.437 100.905 110.684 99.9271 110.684 98.743ZM111.303 98.734C111.303 99.6221 111.85 100.349 112.765 100.349C113.707 100.349 114.263 99.667 114.263 98.734C114.263 97.81 113.725 97.1282 112.774 97.1282C111.841 97.1282 111.303 97.8548 111.303 98.734ZM116.47 95.5044C116.219 95.5044 116.012 95.2981 116.012 95.0469C116.012 94.7957 116.219 94.5804 116.47 94.5804C116.721 94.5804 116.936 94.7957 116.936 95.0469C116.936 95.2981 116.721 95.5044 116.47 95.5044ZM116.165 101.04V96.6975H116.784V101.04H116.165ZM118.64 101.04H118.021V96.6975H118.559L118.649 97.4511C118.936 96.8949 119.51 96.5809 120.138 96.5809C121.331 96.5809 121.824 97.2896 121.824 98.3841V101.04H121.205V98.5187C121.205 97.5049 120.748 97.1461 120.03 97.1461C119.142 97.1461 118.64 97.792 118.64 98.7699V101.04Z" fill="white" fill-opacity="0.6"/>
<path d="M208.997 97.8279C208.997 95.8363 209.975 94.4907 211.572 94.4907C213.16 94.4907 214.138 95.8363 214.138 97.8279C214.138 99.8285 213.178 101.156 211.572 101.156C209.957 101.156 208.997 99.8285 208.997 97.8279ZM209.634 97.8279C209.634 99.4965 210.343 100.573 211.572 100.573C212.801 100.573 213.51 99.4965 213.51 97.8279C213.51 96.1503 212.801 95.0828 211.572 95.0828C210.343 95.0828 209.634 96.1503 209.634 97.8279ZM218.153 96.0875C218.153 97.0115 217.498 97.6754 216.583 97.6754C215.668 97.6754 215.005 97.0115 215.005 96.0875C215.005 95.1635 215.668 94.4907 216.583 94.4907C217.498 94.4907 218.153 95.1635 218.153 96.0875ZM221.41 94.6163L216.53 101.04H215.884L220.755 94.6163H221.41ZM217.615 96.0875C217.615 95.4506 217.193 95.011 216.583 95.011C215.964 95.011 215.543 95.4506 215.543 96.0875C215.543 96.7155 215.973 97.164 216.583 97.164C217.184 97.164 217.615 96.7155 217.615 96.0875ZM222.298 99.5683C222.298 100.492 221.643 101.156 220.728 101.156C219.813 101.156 219.149 100.492 219.149 99.5683C219.149 98.6443 219.813 97.9714 220.728 97.9714C221.643 97.9714 222.298 98.6443 222.298 99.5683ZM221.76 99.5683C221.76 98.9313 221.338 98.4918 220.728 98.4918C220.109 98.4918 219.687 98.9313 219.687 99.5683C219.687 100.196 220.118 100.636 220.728 100.636C221.329 100.636 221.76 100.196 221.76 99.5683Z" fill="#EA4335"/>
<rect x="117.925" y="122.934" width="201.475" height="104.663" rx="7.4759" fill="url(#paint3_linear_640_39889)" fill-opacity="0.5"/>
<rect x="117.925" y="122.934" width="201.475" height="104.663" rx="7.4759" fill="url(#paint4_linear_640_39889)" fill-opacity="0.5"/>
<rect x="118.299" y="123.307" width="200.728" height="103.915" rx="7.1021" stroke="white" stroke-opacity="0.03" stroke-width="0.74759"/>
<rect x="126.896" y="133.4" width="23.9229" height="23.9229" rx="5.81459" fill="url(#paint5_linear_640_39889)" fill-opacity="0.7"/>
<g clip-path="url(#clip2_640_39889)">
<path d="M141.349 149.35H135.866C135.47 149.35 135.089 149.192 134.809 148.912C134.529 148.631 134.371 148.251 134.371 147.855C134.371 147.458 134.529 147.078 134.809 146.797C135.089 146.517 135.47 146.359 135.866 146.359H141.349C140.952 146.359 140.572 146.517 140.291 146.797C140.011 147.078 139.853 147.458 139.853 147.855C139.853 148.251 140.011 148.631 140.291 148.912C140.572 149.192 140.952 149.35 141.349 149.35ZM141.349 149.35H141.847C142.244 149.35 142.624 149.192 142.904 148.912C143.185 148.631 143.342 148.251 143.342 147.855V142.372C143.342 142.108 143.237 141.854 143.05 141.667C142.863 141.481 142.61 141.375 142.345 141.375H137.361C137.097 141.375 136.844 141.481 136.657 141.667C136.47 141.854 136.365 142.108 136.365 142.372V146.359" stroke="white" stroke-width="0.934487" stroke-linecap="round" stroke-linejoin="round"/>
</g>
<path d="M160.798 149.861H156.183V142.294H160.798V143.236H157.209V145.602H160.443V146.512H157.209V148.909H160.798V149.861ZM161.72 147.266C161.72 145.696 162.641 144.597 164.106 144.597C164.912 144.597 165.613 144.963 165.948 145.664L166.032 144.743H166.911V152.153H165.938V149.024C165.592 149.652 164.912 149.997 164.095 149.997C162.588 149.997 161.72 148.825 161.72 147.266ZM162.714 147.308C162.714 148.354 163.3 149.108 164.305 149.108C165.31 149.108 165.927 148.354 165.927 147.308C165.927 146.24 165.31 145.497 164.305 145.497C163.3 145.497 162.714 146.25 162.714 147.308ZM171.805 144.743H172.778V149.861H171.899L171.795 149.087C171.501 149.621 170.821 149.987 170.068 149.987C168.874 149.987 168.205 149.181 168.205 147.925V144.743H169.188V147.601C169.188 148.7 169.659 149.118 170.413 149.118C171.313 149.118 171.805 148.543 171.805 147.444V144.743ZM174.624 143.529C174.269 143.529 173.976 143.236 173.976 142.88C173.976 142.514 174.269 142.231 174.624 142.231C174.98 142.231 175.273 142.514 175.273 142.88C175.273 143.236 174.98 143.529 174.624 143.529ZM174.143 149.861V144.743H175.127V149.861H174.143ZM177.937 149.861H176.953V145.57H175.948V144.743H176.953V143.142H177.937V144.743H178.941V145.57H177.937V149.861ZM179.27 152.153V151.348H179.929C180.4 151.348 180.777 151.274 181.018 150.625L181.195 150.133L179.134 144.743H180.17L181.656 148.867L183.174 144.743H184.189L181.771 151.013C181.426 151.892 180.913 152.258 180.128 152.258C179.803 152.258 179.531 152.216 179.27 152.153Z" fill="white"/>
<path d="M133.923 188.579L131.396 192.003H129.691L132.398 188.415C132.024 188.565 131.635 188.639 131.261 188.639C129.019 188.639 127.509 187.024 127.509 184.871C127.509 182.629 129.213 180.999 131.441 180.999C133.684 180.999 135.418 182.688 135.418 184.886C135.418 186.157 135.029 187.069 133.923 188.579ZM133.923 184.871C133.923 183.391 132.906 182.315 131.441 182.315C130.005 182.315 128.989 183.391 128.989 184.871C128.989 186.352 130.005 187.398 131.441 187.398C132.906 187.398 133.923 186.352 133.923 184.871ZM142.974 188.579L140.447 192.003H138.742L141.449 188.415C141.075 188.565 140.686 188.639 140.312 188.639C138.069 188.639 136.559 187.024 136.559 184.871C136.559 182.629 138.264 180.999 140.492 180.999C142.734 180.999 144.469 182.688 144.469 184.886C144.469 186.157 144.08 187.069 142.974 188.579ZM142.974 184.871C142.974 183.391 141.957 182.315 140.492 182.315C139.056 182.315 138.039 183.391 138.039 184.871C138.039 186.352 139.056 187.398 140.492 187.398C141.957 187.398 142.974 186.352 142.974 184.871ZM147.509 191.42C147.509 192.497 146.701 193.394 145.64 193.529V192.901C146.253 192.796 146.686 192.392 146.686 191.929C146.582 191.988 146.462 192.018 146.283 192.018C145.789 192.018 145.371 191.66 145.371 191.106C145.371 190.508 145.774 190.075 146.372 190.075C147 190.075 147.509 190.598 147.509 191.42ZM155.059 188.579L152.532 192.003H150.828L153.534 188.415C153.16 188.565 152.772 188.639 152.398 188.639C150.155 188.639 148.645 187.024 148.645 184.871C148.645 182.629 150.349 180.999 152.577 180.999C154.82 180.999 156.554 182.688 156.554 184.886C156.554 186.157 156.166 187.069 155.059 188.579ZM155.059 184.871C155.059 183.391 154.043 182.315 152.577 182.315C151.142 182.315 150.125 183.391 150.125 184.871C150.125 186.352 151.142 187.398 152.577 187.398C154.043 187.398 155.059 186.352 155.059 184.871ZM164.11 188.579L161.583 192.003H159.879L162.585 188.415C162.211 188.565 161.822 188.639 161.449 188.639C159.206 188.639 157.696 187.024 157.696 184.871C157.696 182.629 159.4 180.999 161.628 180.999C163.871 180.999 165.605 182.688 165.605 184.886C165.605 186.157 165.216 187.069 164.11 188.579ZM164.11 184.871C164.11 183.391 163.093 182.315 161.628 182.315C160.193 182.315 159.176 183.391 159.176 184.871C159.176 186.352 160.193 187.398 161.628 187.398C163.093 187.398 164.11 186.352 164.11 184.871ZM166.092 181.193H173.643V182.539L169.546 192.003H168.021L172.163 182.539H166.092V181.193ZM174.24 192.183C173.657 192.183 173.163 191.704 173.163 191.136C173.163 190.553 173.657 190.075 174.24 190.075C174.808 190.075 175.301 190.553 175.301 191.136C175.301 191.704 174.808 192.183 174.24 192.183ZM184.762 189.82H183.476V192.003H182.071V189.82H176.479V188.52L181.577 181.193H183.476V188.52H184.762V189.82ZM178.064 188.52H182.071V182.748L178.064 188.52ZM192.049 188.579L189.522 192.003H187.817L190.524 188.415C190.15 188.565 189.761 188.639 189.387 188.639C187.144 188.639 185.634 187.024 185.634 184.871C185.634 182.629 187.339 180.999 189.567 180.999C191.809 180.999 193.544 182.688 193.544 184.886C193.544 186.157 193.155 187.069 192.049 188.579ZM192.049 184.871C192.049 183.391 191.032 182.315 189.567 182.315C188.131 182.315 187.115 183.391 187.115 184.871C187.115 186.352 188.131 187.398 189.567 187.398C191.032 187.398 192.049 186.352 192.049 184.871Z" fill="white"/>
<path d="M197.878 185.455V181.274H198.757V185.401C198.757 186.442 199.331 187.016 200.363 187.016C201.385 187.016 201.951 186.433 201.951 185.401V181.274H202.839V185.455C202.839 186.944 201.888 187.868 200.363 187.868C198.829 187.868 197.878 186.953 197.878 185.455ZM203.87 183.024C203.87 181.911 204.767 181.158 206.104 181.158C207.342 181.158 208.14 181.848 208.212 182.97H207.324C207.279 182.324 206.821 181.947 206.095 181.947C205.278 181.947 204.749 182.36 204.749 182.997C204.749 183.517 205.045 183.831 205.655 183.974L206.723 184.226C207.781 184.468 208.319 185.042 208.319 185.957C208.319 187.123 207.413 187.868 206.032 187.868C204.713 187.868 203.834 187.177 203.78 186.065H204.677C204.695 186.684 205.215 187.078 206.032 187.078C206.893 187.078 207.44 186.675 207.44 186.029C207.44 185.517 207.162 185.195 206.543 185.051L205.476 184.809C204.417 184.567 203.87 183.957 203.87 183.024ZM211.514 187.76H209.37V181.274H211.479C213.416 181.274 214.726 182.584 214.726 184.522C214.726 186.45 213.434 187.76 211.514 187.76ZM211.416 182.082H210.25V186.944H211.452C212.896 186.944 213.811 186.011 213.811 184.522C213.811 183.015 212.896 182.082 211.416 182.082Z" fill="white"/>
<path d="M126.994 206.338V205.796H131.213V206.338H129.395V211.684H128.803V206.338H126.994ZM130.965 209.694C130.965 208.476 131.82 207.597 132.988 207.597C134.156 207.597 135.011 208.476 135.011 209.694C135.011 210.902 134.156 211.782 132.988 211.782C131.82 211.782 130.965 210.902 130.965 209.694ZM131.541 209.685C131.541 210.623 132.133 211.272 132.988 211.272C133.835 211.272 134.436 210.623 134.436 209.685C134.436 208.764 133.835 208.106 132.988 208.106C132.133 208.106 131.541 208.764 131.541 209.685ZM136.742 211.684H136.183V208.18H135.385V207.703H136.183V206.445H136.742V207.703H137.54V208.18H136.742V211.684ZM139.308 211.782C138.461 211.782 137.959 211.305 137.959 210.606C137.959 209.874 138.519 209.414 139.448 209.34L140.764 209.233V209.101C140.764 208.32 140.295 208.073 139.711 208.073C139.02 208.073 138.609 208.386 138.609 208.921H138.091C138.091 208.115 138.749 207.597 139.727 207.597C140.649 207.597 141.323 208.057 141.323 209.11V211.684H140.846L140.772 210.985C140.525 211.486 139.982 211.782 139.308 211.782ZM139.44 211.322C140.278 211.322 140.764 210.738 140.764 209.874V209.661L139.588 209.751C138.839 209.817 138.535 210.146 138.535 210.59C138.535 211.075 138.897 211.322 139.44 211.322ZM143.004 211.684H142.437V205.689H143.004V211.684ZM150.044 211.684H146.516V205.796H150.036V206.338H147.109V208.46H149.765V208.995H147.109V211.141H150.044V211.684ZM150.794 209.677C150.794 208.476 151.485 207.597 152.636 207.597C153.302 207.597 153.853 207.893 154.141 208.509L154.199 207.703H154.692V213.419H154.125V210.919C153.845 211.494 153.311 211.782 152.636 211.782C151.46 211.782 150.794 210.878 150.794 209.677ZM151.37 209.694C151.37 210.606 151.872 211.272 152.735 211.272C153.607 211.272 154.117 210.606 154.117 209.694C154.117 208.772 153.607 208.115 152.735 208.115C151.872 208.115 151.37 208.772 151.37 209.694ZM158.623 207.703H159.19V211.684H158.697L158.623 211.009C158.401 211.47 157.85 211.782 157.225 211.782C156.287 211.782 155.778 211.141 155.778 210.17V207.695H156.353V209.99C156.353 210.935 156.773 211.272 157.406 211.272C158.171 211.272 158.623 210.763 158.623 209.817V207.703ZM160.603 206.61C160.372 206.61 160.183 206.421 160.183 206.19C160.183 205.96 160.372 205.763 160.603 205.763C160.833 205.763 161.03 205.96 161.03 206.19C161.03 206.421 160.833 206.61 160.603 206.61ZM160.323 211.684V207.703H160.89V211.684H160.323ZM162.937 211.684H162.378V208.18H161.58V207.703H162.378V206.445H162.937V207.703H163.735V208.18H162.937V211.684ZM164.021 213.419V212.95H164.457C164.803 212.95 165.148 212.925 165.345 212.391L165.518 211.922L163.906 207.703H164.507L165.789 211.174L167.048 207.703H167.632L165.806 212.596C165.576 213.221 165.189 213.476 164.622 213.476C164.383 213.476 164.202 213.46 164.021 213.419ZM171.193 205.796V211.684H170.601V205.796H171.193ZM173.019 211.684H172.452V207.703H172.945L173.027 208.394C173.29 207.884 173.817 207.597 174.392 207.597C175.486 207.597 175.938 208.246 175.938 209.249V211.684H175.371V209.373C175.371 208.444 174.952 208.115 174.294 208.115C173.48 208.115 173.019 208.707 173.019 209.603V211.684ZM176.74 209.702C176.74 208.452 177.505 207.597 178.665 207.597C179.586 207.597 180.26 208.131 180.416 208.953H179.849C179.701 208.402 179.224 208.098 178.673 208.098C177.867 208.098 177.3 208.715 177.3 209.694C177.3 210.639 177.826 211.272 178.632 211.272C179.224 211.272 179.701 210.943 179.857 210.434H180.433C180.244 211.248 179.536 211.782 178.632 211.782C177.505 211.782 176.74 210.952 176.74 209.702ZM183.324 207.654V208.164H183.011C182.279 208.164 181.81 208.657 181.81 209.414V211.684H181.243V207.703H181.778L181.819 208.32C181.975 207.893 182.394 207.613 182.953 207.613C183.077 207.613 183.184 207.621 183.324 207.654ZM185.545 211.782C184.378 211.782 183.596 210.943 183.596 209.694C183.596 208.452 184.369 207.597 185.504 207.597C186.581 207.597 187.313 208.361 187.313 209.488V209.768H184.147C184.188 210.738 184.698 211.297 185.554 211.297C186.203 211.297 186.623 211.017 186.771 210.491H187.313C187.1 211.33 186.483 211.782 185.545 211.782ZM185.504 208.082C184.756 208.082 184.262 208.575 184.164 209.356H186.746C186.746 208.592 186.252 208.082 185.504 208.082ZM189.274 211.782C188.427 211.782 187.925 211.305 187.925 210.606C187.925 209.874 188.485 209.414 189.414 209.34L190.73 209.233V209.101C190.73 208.32 190.261 208.073 189.677 208.073C188.986 208.073 188.575 208.386 188.575 208.921H188.057C188.057 208.115 188.715 207.597 189.694 207.597C190.615 207.597 191.289 208.057 191.289 209.11V211.684H190.812L190.738 210.985C190.491 211.486 189.948 211.782 189.274 211.782ZM189.406 211.322C190.244 211.322 190.73 210.738 190.73 209.874V209.661L189.554 209.751C188.805 209.817 188.501 210.146 188.501 210.59C188.501 211.075 188.863 211.322 189.406 211.322ZM192.041 210.565H192.584C192.584 211.026 192.929 211.314 193.488 211.314C194.105 211.314 194.467 211.05 194.467 210.623C194.467 210.294 194.302 210.105 193.834 209.99L193.151 209.817C192.46 209.644 192.123 209.282 192.123 208.74C192.123 208.041 192.707 207.597 193.562 207.597C194.401 207.597 194.944 208.057 194.969 208.797H194.418C194.401 208.337 194.08 208.065 193.546 208.065C192.987 208.065 192.674 208.304 192.674 208.731C192.674 209.036 192.888 209.249 193.324 209.356L194.006 209.529C194.697 209.702 195.01 210.022 195.01 210.598C195.01 211.314 194.401 211.782 193.497 211.782C192.6 211.782 192.041 211.305 192.041 210.565ZM197.564 211.782C196.396 211.782 195.615 210.943 195.615 209.694C195.615 208.452 196.388 207.597 197.523 207.597C198.6 207.597 199.332 208.361 199.332 209.488V209.768H196.166C196.207 210.738 196.717 211.297 197.572 211.297C198.222 211.297 198.641 211.017 198.789 210.491H199.332C199.118 211.33 198.501 211.782 197.564 211.782ZM197.523 208.082C196.774 208.082 196.281 208.575 196.182 209.356H198.764C198.764 208.592 198.271 208.082 197.523 208.082ZM201.752 211.782C200.593 211.782 199.91 210.894 199.91 209.702C199.91 208.501 200.593 207.597 201.777 207.597C202.435 207.597 202.961 207.884 203.241 208.46V205.689H203.808V211.684H203.315L203.257 210.869C202.978 211.486 202.418 211.782 201.752 211.782ZM201.851 211.264C202.723 211.264 203.232 210.606 203.232 209.685C203.232 208.772 202.723 208.106 201.851 208.106C200.987 208.106 200.486 208.772 200.486 209.685C200.486 210.606 200.987 211.264 201.851 211.264Z" fill="white" fill-opacity="0.6"/>
<path d="M282.052 205.843H280.743V205.26H282.671V211.684H282.052V205.843ZM288.009 211.684H283.775V211.172L285.829 209.378C287.013 208.346 287.318 207.898 287.318 207.135C287.318 206.265 286.798 205.736 285.946 205.736C285.058 205.736 284.475 206.382 284.448 207.377H283.802C283.838 206.032 284.69 205.144 285.955 205.144C287.166 205.144 287.973 205.924 287.973 207.099C287.973 208.032 287.552 208.651 286.269 209.773L284.771 211.083H288.009V211.684ZM289.565 211.782C289.26 211.782 289 211.531 289 211.235C289 210.93 289.26 210.67 289.565 210.67C289.87 210.67 290.13 210.93 290.13 211.235C290.13 211.531 289.87 211.782 289.565 211.782ZM295.578 210.32H294.825V211.684H294.197V210.32H290.824V209.746L293.964 205.26H294.825V209.746H295.578V210.32ZM291.523 209.746H294.197V205.924L291.523 209.746ZM301.009 210.32H300.255V211.684H299.627V210.32H296.254V209.746L299.394 205.26H300.255V209.746H301.009V210.32ZM296.954 209.746H299.627V205.924L296.954 209.746ZM305.045 206.732C305.045 207.656 304.39 208.319 303.475 208.319C302.56 208.319 301.896 207.656 301.896 206.732C301.896 205.808 302.56 205.135 303.475 205.135C304.39 205.135 305.045 205.808 305.045 206.732ZM308.302 205.26L303.422 211.684H302.776L307.647 205.26H308.302ZM304.507 206.732C304.507 206.095 304.085 205.655 303.475 205.655C302.856 205.655 302.435 206.095 302.435 206.732C302.435 207.36 302.865 207.808 303.475 207.808C304.076 207.808 304.507 207.36 304.507 206.732ZM309.19 210.212C309.19 211.136 308.535 211.8 307.62 211.8C306.705 211.8 306.041 211.136 306.041 210.212C306.041 209.288 306.705 208.615 307.62 208.615C308.535 208.615 309.19 209.288 309.19 210.212ZM308.652 210.212C308.652 209.575 308.23 209.136 307.62 209.136C307.001 209.136 306.579 209.575 306.579 210.212C306.579 210.84 307.01 211.28 307.62 211.28C308.221 211.28 308.652 210.84 308.652 210.212Z" fill="#3EDC81"/>
</g>
<defs>
<filter id="filter0_f_640_39889" x="-147.412" y="-201.109" width="644.823" height="644.823" filterUnits="userSpaceOnUse" color-interpolation-filters="sRGB">
<feFlood flood-opacity="0" result="BackgroundImageFix"/>
<feBlend mode="normal" in="SourceGraphic" in2="BackgroundImageFix" result="shape"/>
<feGaussianBlur stdDeviation="129.706" result="effect1_foregroundBlur_640_39889"/>
</filter>
<linearGradient id="paint0_linear_640_39889" x1="55.2301" y1="100.221" x2="68.7566" y2="12.8904" gradientUnits="userSpaceOnUse">
<stop stop-color="#3EDC81"/>
<stop offset="1" stop-color="#0276DB"/>
</linearGradient>
<linearGradient id="paint1_linear_640_39889" x1="197.511" y1="1.84669" x2="85.4609" y2="148.01" gradientUnits="userSpaceOnUse">
<stop stop-color="#0F0F0F" stop-opacity="0.2"/>
<stop offset="0.555856" stop-color="#0F0F0F" stop-opacity="0.661921"/>
<stop offset="0.768606" stop-color="#0F0F0F" stop-opacity="0.748406"/>
<stop offset="1" stop-color="#0F0F0F" stop-opacity="0.9"/>
</linearGradient>
<linearGradient id="paint2_linear_640_39889" x1="51.9321" y1="24.9993" x2="51.9321" y2="48.9221" gradientUnits="userSpaceOnUse">
<stop stop-color="white" stop-opacity="0.2"/>
<stop offset="1" stop-color="white" stop-opacity="0.1"/>
</linearGradient>
<linearGradient id="paint3_linear_640_39889" x1="142.155" y1="211.795" x2="156.676" y2="121.39" gradientUnits="userSpaceOnUse">
<stop stop-color="#3EDC81"/>
<stop offset="1" stop-color="#0276DB"/>
</linearGradient>
<linearGradient id="paint4_linear_640_39889" x1="284.436" y1="109.777" x2="167.206" y2="257.237" gradientUnits="userSpaceOnUse">
<stop stop-color="#0F0F0F" stop-opacity="0.2"/>
<stop offset="0.555856" stop-color="#0F0F0F" stop-opacity="0.661921"/>
<stop offset="0.768606" stop-color="#0F0F0F" stop-opacity="0.748406"/>
<stop offset="1" stop-color="#0F0F0F" stop-opacity="0.9"/>
</linearGradient>
<linearGradient id="paint5_linear_640_39889" x1="138.857" y1="133.4" x2="138.857" y2="157.323" gradientUnits="userSpaceOnUse">
<stop stop-color="white" stop-opacity="0.2"/>
<stop offset="1" stop-color="white" stop-opacity="0.1"/>
</linearGradient>
<clipPath id="clip0_640_39889">
<rect width="350" height="240" fill="white" transform="translate(0 0.902832)"/>
</clipPath>
<clipPath id="clip1_640_39889">
<rect width="11.9614" height="11.9614" fill="white" transform="translate(45.9512 30.98)"/>
</clipPath>
<clipPath id="clip2_640_39889">
<rect width="11.9614" height="11.9614" fill="white" transform="translate(132.876 139.381)"/>
</clipPath>
</defs>
</svg>
