<svg width="14" height="14" viewBox="0 0 14 14" fill="none" xmlns="http://www.w3.org/2000/svg">
<path d="M9.91536 6.99992C9.91536 8.61074 8.60951 9.91659 6.9987 9.91659C5.38787 9.91659 4.08203 8.61074 4.08203 6.99992C4.08203 5.38909 5.38787 4.08325 6.9987 4.08325" stroke="#3EDC81" stroke-width="0.875" stroke-linecap="round"/>
<path d="M8.16602 1.28319C7.78907 1.20667 7.39887 1.1665 6.99935 1.1665C3.77769 1.1665 1.16602 3.77817 1.16602 6.99984C1.16602 10.2215 3.77769 12.8332 6.99935 12.8332C10.221 12.8332 12.8327 10.2215 12.8327 6.99984C12.8327 6.60031 12.7925 6.21012 12.716 5.83317" stroke="#3EDC81" stroke-width="0.875" stroke-linecap="round"/>
<path d="M7.01758 6.97794L9.67343 4.32207M11.5151 2.53417L11.1925 1.375C11.133 1.18404 10.9033 1.10794 10.7484 1.2345C9.91064 1.91908 8.99807 2.84117 9.74333 4.29559C11.2449 4.99579 12.1021 4.05155 12.7594 3.2579C12.8901 3.09999 12.8113 2.86261 12.6143 2.80567L11.5151 2.53417Z" stroke="#3EDC81" stroke-width="0.875" stroke-linecap="round" stroke-linejoin="round"/>
</svg>
