<svg width="316" height="201" viewBox="0 0 316 201" fill="none" xmlns="http://www.w3.org/2000/svg">
<path d="M0.29248 -286.926H528.634C535.412 -286.926 538.802 -286.926 541.391 -285.607C543.669 -284.446 545.52 -282.594 546.681 -280.317C548 -277.728 548 -274.338 548 -267.559V180.895C548 187.674 548 191.063 546.681 193.653C545.52 195.93 543.669 197.782 541.391 198.942C538.802 200.262 535.412 200.262 528.634 200.262H19.6589C12.88 200.262 9.49059 200.262 6.9014 198.942C4.62388 197.782 2.7722 195.93 1.61174 193.653C0.29248 191.063 0.29248 187.674 0.29248 180.895V-286.926Z" fill="url(#paint0_linear_360_6386)" fill-opacity="0.8"/>
<path d="M528.633 -286.548C532.029 -286.548 534.553 -286.547 536.552 -286.384C538.547 -286.221 539.987 -285.897 541.219 -285.27C543.425 -284.145 545.219 -282.352 546.343 -280.146C546.971 -278.913 547.295 -277.473 547.458 -275.479C547.622 -273.479 547.622 -270.955 547.622 -267.56V180.896C547.622 184.291 547.622 186.815 547.458 188.814C547.296 190.809 546.971 192.248 546.343 193.48C545.219 195.687 543.426 197.481 541.219 198.605C539.987 199.233 538.547 199.557 536.552 199.72C534.553 199.883 532.029 199.884 528.633 199.884H19.6587C16.2631 199.884 13.7391 199.883 11.7397 199.72C9.74481 199.557 8.30512 199.233 7.07275 198.605C4.8665 197.481 3.07289 195.687 1.94873 193.48C1.32095 192.248 0.997459 190.809 0.834473 188.814C0.671122 186.815 0.67041 184.291 0.67041 180.896V-286.548H528.633Z" stroke="white" stroke-opacity="0.05" stroke-width="0.756502"/>
<path d="M22.2534 5.74176C22.2522 5.74176 22.2522 2.84021 22.2522 2.84021L18.1886 2.83847C18.1898 2.83847 18.1898 5.74001 18.1898 5.74001L22.2534 5.74176ZM17.6094 2.84021C17.6092 2.76391 17.624 2.68831 17.653 2.61774C17.682 2.54716 17.7246 2.483 17.7784 2.42891C17.8321 2.37482 17.8961 2.33187 17.9665 2.30251C18.0369 2.27315 18.1123 2.25796 18.1886 2.25781H22.2534C22.5732 2.25781 22.8326 2.51214 22.8326 2.84021V5.74001C22.8328 5.81632 22.818 5.89192 22.789 5.96249C22.76 6.03306 22.7174 6.09723 22.6636 6.15132C22.6098 6.20541 22.5459 6.24836 22.4755 6.27771C22.4051 6.30707 22.3296 6.32226 22.2534 6.32241H18.1886C18.1122 6.3228 18.0365 6.30798 17.9658 6.27882C17.8952 6.24965 17.831 6.20672 17.7771 6.15252C17.7233 6.09832 17.6807 6.03394 17.6519 5.96313C17.6231 5.89231 17.6086 5.81647 17.6094 5.74001V2.84021Z" fill="white"/>
<path fill-rule="evenodd" clip-rule="evenodd" d="M19.929 3.99854H20.5093V5.15985H19.929V3.99854Z" fill="white"/>
<path d="M21.6693 0.807601C21.6693 0.422601 21.5165 0.0533696 21.2444 -0.218866C20.9723 -0.491102 20.6033 -0.644043 20.2185 -0.644043C19.8337 -0.644043 19.4646 -0.491102 19.1925 -0.218866C18.9204 0.0533696 18.7676 0.422601 18.7676 0.807601V2.54957H19.3479V0.807601C19.3479 0.576601 19.4396 0.355062 19.6029 0.19172C19.7662 0.0283787 19.9876 -0.0633855 20.2185 -0.0633855C20.4493 -0.0633855 20.6708 0.0283787 20.834 0.19172C20.9973 0.355062 21.089 0.576601 21.089 0.807601V1.09793H21.6693V0.807601Z" fill="white"/>
<path d="M10.644 0.926411C10.6441 0.772423 10.7052 0.624755 10.8141 0.515886L17.2827 -5.95612C17.3635 -6.03706 17.4595 -6.10127 17.5652 -6.14507C17.6708 -6.18888 17.7841 -6.21143 17.8985 -6.21143C18.0128 -6.21143 18.1261 -6.18888 18.2317 -6.14507C18.3374 -6.10127 18.4334 -6.03706 18.5142 -5.95612L20.0144 -4.45512C20.0953 -4.37424 20.1595 -4.2782 20.2033 -4.17249C20.2471 -4.06678 20.2696 -3.95347 20.2696 -3.83905C20.2696 -3.72462 20.2471 -3.61131 20.2033 -3.5056C20.1595 -3.39989 20.0953 -3.30385 20.0144 -3.22297L13.5458 3.24904C13.437 3.35794 13.2894 3.41914 13.1355 3.41917H11.2244C11.0705 3.41917 10.9229 3.358 10.814 3.2491C10.7052 3.14021 10.644 2.99252 10.644 2.83852V0.926411ZM11.2244 0.926411V2.83852H13.1355L19.6041 -3.63349C19.6311 -3.66046 19.6526 -3.6925 19.6672 -3.72777C19.6818 -3.76304 19.6894 -3.80086 19.6894 -3.83905C19.6894 -3.87723 19.6818 -3.91505 19.6672 -3.95032C19.6526 -3.98559 19.6311 -4.01763 19.6041 -4.0446L18.1039 -5.5456C18.0769 -5.57263 18.0449 -5.59409 18.0097 -5.60872C17.9744 -5.62336 17.9366 -5.63089 17.8985 -5.63089C17.8603 -5.63089 17.8225 -5.62336 17.7872 -5.60872C17.752 -5.59409 17.72 -5.57263 17.693 -5.5456L11.2244 0.926411Z" fill="white"/>
<path d="M16.532 -4.79544L18.8534 -2.47281L19.2643 -2.88391L16.9429 -5.20654L16.532 -4.79544ZM11.3088 0.430479L13.6302 2.75311L14.0411 2.342L11.7197 0.0193734L11.3088 0.430479Z" fill="white"/>
<path d="M17.6934 -4.04248L12.4702 1.18344L12.8811 1.59454L18.1043 -3.63137L17.6934 -4.04248Z" fill="white"/>
<path fill-rule="evenodd" clip-rule="evenodd" d="M17.0273 21.4142C16.5656 21.4142 16.1227 21.5977 15.7962 21.9244C15.4697 22.251 15.2863 22.6941 15.2863 23.1561V24.8981H20.2193C20.6041 24.8981 20.9731 25.051 21.2452 25.3233C21.5173 25.5955 21.6702 25.9647 21.6702 26.3497V30.4143C21.6702 30.605 21.6326 30.7937 21.5597 30.9699C21.4868 31.146 21.3799 31.306 21.2452 31.4408C21.1105 31.5756 20.9505 31.6825 20.7745 31.7555C20.5985 31.8284 20.4098 31.866 20.2193 31.866H13.8354C13.6449 31.866 13.4562 31.8284 13.2802 31.7555C13.1041 31.6825 12.9442 31.5756 12.8095 31.4408C12.6747 31.306 12.5679 31.146 12.495 30.9699C12.422 30.7937 12.3845 30.605 12.3845 30.4143V26.3497C12.3845 25.9647 12.5374 25.5955 12.8095 25.3233C13.0816 25.051 13.4506 24.8981 13.8354 24.8981H14.7059V23.1561C14.7059 22.5401 14.9505 21.9494 15.3859 21.5138C15.8212 21.0782 16.4117 20.8335 17.0273 20.8335C17.643 20.8335 18.2335 21.0782 18.6688 21.5138C19.1042 21.9494 19.3488 22.5401 19.3488 23.1561H18.7684C18.7684 22.6941 18.585 22.251 18.2585 21.9244C17.9319 21.5977 17.4891 21.4142 17.0273 21.4142ZM16.447 27.8014C16.447 27.6474 16.5081 27.4997 16.617 27.3908C16.7258 27.2819 16.8734 27.2207 17.0273 27.2207C17.1813 27.2207 17.3289 27.2819 17.4377 27.3908C17.5466 27.4997 17.6077 27.6474 17.6077 27.8014V28.9627C17.6077 29.1167 17.5466 29.2644 17.4377 29.3733C17.3289 29.4822 17.1813 29.5434 17.0273 29.5434C16.8734 29.5434 16.7258 29.4822 16.617 29.3733C16.5081 29.2644 16.447 29.1167 16.447 28.9627V27.8014ZM12.9649 26.3497C12.9649 25.8678 13.3537 25.4788 13.8354 25.4788H20.2193C20.701 25.4788 21.0898 25.8678 21.0898 26.3497V30.4143C21.0898 30.8963 20.701 31.2853 20.2193 31.2853H13.8354C13.6045 31.2853 13.3831 31.1936 13.2198 31.0302C13.0566 30.8669 12.9649 30.6453 12.9649 30.4143V26.3497Z" fill="white"/>
<path fill-rule="evenodd" clip-rule="evenodd" d="M11.8065 49.7238L11.5686 49.3058L11.5512 49.2825L11.5686 49.2593C11.9044 48.6517 12.3116 48.0863 12.7815 47.5754C13.6346 46.6464 14.8708 45.7638 16.4494 45.7638C18.0337 45.7638 19.2641 46.6522 20.123 47.5754C20.5909 48.0867 20.9961 48.652 21.3301 49.2593L21.3475 49.2825L21.3301 49.3058C20.9943 49.9134 20.5871 50.4788 20.1172 50.9897C19.2641 51.9187 18.0279 52.8013 16.4494 52.8013C14.865 52.8013 13.6346 51.9129 12.7757 50.9897C12.4167 50.598 12.0942 50.1743 11.8123 49.7238H11.8065ZM21.9337 49.1548L21.6725 49.2825L21.9337 49.4103L21.9279 49.4219C21.9006 49.477 21.8715 49.5312 21.8408 49.5845C21.4828 50.234 21.0483 50.8383 20.5466 51.3845C19.6413 52.3658 18.2601 53.382 16.4494 53.382C14.6387 53.382 13.2574 52.3658 12.3521 51.3845C11.8088 50.7928 11.3445 50.1331 10.9708 49.4219V49.4103H10.965L11.2262 49.2825L10.965 49.1548L10.9708 49.1432C10.9982 49.0882 11.0273 49.0339 11.0579 48.9806C11.4159 48.3311 11.8504 47.7267 12.3521 47.1806C13.2574 46.1993 14.6387 45.1831 16.4494 45.1831C18.2601 45.1831 19.6413 46.1993 20.5466 47.1806C21.0899 47.7723 21.5542 48.432 21.9279 49.1432V49.1548H21.9337ZM21.6725 49.2825L21.9337 49.1548L21.9917 49.2825L21.9337 49.4103L21.6725 49.2825ZM10.965 49.1548L11.2262 49.2825L10.965 49.4103L10.907 49.2825L10.965 49.1548ZM14.9114 49.2825C14.9144 49.0838 14.9567 48.8876 15.0357 48.7052C15.1147 48.5228 15.2289 48.3578 15.3718 48.2197C15.5147 48.0816 15.6834 47.9731 15.8683 47.9004C16.0533 47.8277 16.2507 47.7922 16.4494 47.7961C16.648 47.7922 16.8454 47.8277 17.0304 47.9004C17.2153 47.9731 17.384 48.0816 17.5269 48.2197C17.6698 48.3578 17.784 48.5228 17.863 48.7052C17.942 48.8876 17.9843 49.0838 17.9873 49.2825C17.9843 49.4813 17.942 49.6775 17.863 49.8599C17.784 50.0423 17.6698 50.2073 17.5269 50.3454C17.384 50.4835 17.2153 50.592 17.0304 50.6647C16.8454 50.7374 16.648 50.7729 16.4494 50.769C16.2507 50.7729 16.0533 50.7374 15.8683 50.6647C15.6834 50.592 15.5147 50.4835 15.3718 50.3454C15.2289 50.2073 15.1147 50.0423 15.0357 49.8599C14.9567 49.6775 14.9144 49.4813 14.9114 49.2825ZM16.4494 47.2154C16.1745 47.2116 15.9016 47.262 15.6463 47.3639C15.3909 47.4658 15.1582 47.6171 14.9614 47.8091C14.7646 48.0012 14.6077 48.2301 14.4995 48.483C14.3913 48.7358 14.3341 49.0075 14.3311 49.2825C14.3341 49.5576 14.3913 49.8293 14.4995 50.0821C14.6077 50.3349 14.7646 50.5639 14.9614 50.756C15.1582 50.948 15.3909 51.0993 15.6463 51.2012C15.9016 51.3031 16.1745 51.3535 16.4494 51.3497C17.6101 51.3497 18.5676 50.4322 18.5676 49.2825C18.5646 49.0075 18.5074 48.7358 18.3992 48.483C18.291 48.2301 18.1341 48.0012 17.9373 47.8091C17.7405 47.6171 17.5078 47.4658 17.2524 47.3639C16.9971 47.262 16.7242 47.2116 16.4494 47.2154ZM21.0051 54.1833L21.4694 53.7188L21.8756 54.131L21.4172 54.5956C21.364 54.6498 21.3342 54.7228 21.3342 54.7988C21.3342 54.8748 21.364 54.9478 21.4172 55.002L21.7596 55.3446C21.8756 55.4607 22.0498 55.4607 22.1658 55.3446L23.2105 54.2994L23.6167 54.7117L22.5779 55.7569C22.4146 55.92 22.1934 56.0116 21.9627 56.0116C21.732 56.0116 21.5108 55.92 21.3475 55.7569L21.0051 55.4143C20.8421 55.251 20.7505 55.0296 20.7505 54.7988C20.7505 54.568 20.8421 54.3466 21.0051 54.1833ZM18.4806 55.9601L18.2775 55.7569C18.2626 55.769 18.249 55.7827 18.2368 55.7975L17.6565 56.6685L17.0761 57.5395C17.0465 57.5834 17.0294 57.6346 17.0267 57.6875C17.0241 57.7404 17.0359 57.7931 17.061 57.8397C17.0861 57.8864 17.1235 57.9253 17.1692 57.9522C17.2148 57.9791 17.2669 57.993 17.3199 57.9924H19.6413C20.0216 57.9809 20.3822 57.8203 20.6453 57.5453C20.9201 57.282 21.0806 56.9213 21.0922 56.5408C21.0806 56.1602 20.9201 55.7995 20.6453 55.5362C20.3822 55.2612 20.0216 55.1007 19.6413 55.0891C19.2964 55.1071 18.964 55.224 18.6837 55.4259C18.5416 55.521 18.4076 55.6278 18.2833 55.7453V55.7511H18.2775L18.4806 55.9601ZM18.7069 56.1459L18.144 56.9937L17.8596 57.4117H19.6413C19.8386 57.4117 20.0591 57.313 20.2332 57.133C20.4074 56.9588 20.5118 56.7382 20.5118 56.5408C20.5118 56.3433 20.4132 56.1227 20.2332 55.9485C20.0591 55.7743 19.8386 55.6698 19.6413 55.6698C19.4382 55.6698 19.206 55.7743 19.0029 55.9137C18.8985 55.9835 18.7996 56.0611 18.7069 56.1459Z" fill="white"/>
<rect x="41.1436" y="-233.713" width="0.580353" height="405.396" fill="#C4C4C4" fill-opacity="0.06"/>
<rect x="66.6855" y="-233.713" width="0.580353" height="405.396" fill="#C4C4C4" fill-opacity="0.06"/>
<rect x="92.2278" y="-233.713" width="0.580353" height="405.396" fill="#C4C4C4" fill-opacity="0.06"/>
<rect x="117.77" y="-233.713" width="0.580353" height="405.396" fill="#C4C4C4" fill-opacity="0.06"/>
<rect x="143.312" y="-233.713" width="0.580353" height="405.396" fill="#C4C4C4" fill-opacity="0.06"/>
<rect x="168.854" y="-233.713" width="0.580353" height="405.396" fill="#C4C4C4" fill-opacity="0.06"/>
<rect x="194.396" y="-233.713" width="0.580353" height="405.396" fill="#C4C4C4" fill-opacity="0.06"/>
<rect x="219.938" y="-233.713" width="0.580353" height="405.396" fill="#C4C4C4" fill-opacity="0.06"/>
<rect x="245.48" y="-233.713" width="0.580353" height="405.396" fill="#C4C4C4" fill-opacity="0.06"/>
<rect x="271.022" y="-233.713" width="0.580353" height="405.396" fill="#C4C4C4" fill-opacity="0.06"/>
<rect x="296.564" y="-233.713" width="0.580353" height="405.396" fill="#C4C4C4" fill-opacity="0.06"/>
<rect x="37.3611" y="49.9751" width="0.783167" height="438.307" transform="rotate(-90 37.3611 49.9751)" fill="#C4C4C4" fill-opacity="0.06"/>
<rect x="37.3611" y="24.23" width="0.783167" height="438.307" transform="rotate(-90 37.3611 24.23)" fill="#C4C4C4" fill-opacity="0.06"/>
<rect x="67.915" y="-90.1675" width="5.80353" height="91.8012" fill="#E10000"/>
<rect x="70.2363" y="1.6333" width="1.16071" height="10.9533" fill="#E10000"/>
<rect x="147.577" y="-2.14014" width="1.16071" height="4.32161" fill="#27AE60"/>
<rect x="103.384" y="-1.69043" width="1.16071" height="4.32161" fill="#27AE60"/>
<rect x="90.0129" y="-9.32617" width="5.80353" height="10.9448" fill="#27AE60"/>
<rect x="92.3345" y="1.61914" width="1.16071" height="4.32161" fill="#27AE60"/>
<rect x="78.9641" y="-5.00244" width="5.80353" height="10.9448" fill="#27AE60"/>
<rect x="81.2854" y="5.94238" width="1.16071" height="4.32161" fill="#27AE60"/>
<path d="M33.327 186.488C33.327 184.667 34.2698 183.432 35.7489 183.432C37.2199 183.432 38.1626 184.667 38.1626 186.488C38.1626 188.316 37.2605 189.527 35.7489 189.527C34.2291 189.527 33.327 188.316 33.327 186.488ZM34.1153 186.488C34.1153 187.934 34.7167 188.812 35.7489 188.812C36.781 188.812 37.3743 187.934 37.3743 186.488C37.3743 185.025 36.781 184.147 35.7489 184.147C34.7167 184.147 34.1153 185.025 34.1153 186.488ZM38.9457 187.788C38.9457 187.081 39.3602 186.512 40.0104 186.276C39.4577 186.041 39.157 185.577 39.157 184.984C39.157 184.066 39.9454 183.44 41.1157 183.44C42.2697 183.44 43.0499 184.066 43.0499 184.992C43.0499 185.594 42.7411 186.057 42.1884 186.276C42.8467 186.488 43.2693 187.073 43.2693 187.796C43.2693 188.828 42.4079 189.519 41.1075 189.519C39.7991 189.519 38.9457 188.828 38.9457 187.788ZM39.8885 185.033C39.8885 185.61 40.368 185.984 41.0994 185.984C41.839 185.984 42.3022 185.618 42.3022 185.049C42.3022 184.488 41.839 184.131 41.0994 184.131C40.368 184.131 39.8885 184.488 39.8885 185.033ZM39.7259 187.731C39.7259 188.389 40.2705 188.812 41.1075 188.812C41.9365 188.812 42.481 188.389 42.481 187.731C42.481 187.081 41.9446 186.666 41.0994 186.666C40.2623 186.666 39.7259 187.081 39.7259 187.731ZM44.846 186.471C44.529 186.471 44.2608 186.211 44.2608 185.91C44.2608 185.594 44.529 185.333 44.846 185.333C45.1548 185.333 45.423 185.594 45.423 185.91C45.423 186.211 45.1548 186.471 44.846 186.471ZM44.846 189.519C44.529 189.519 44.2608 189.259 44.2608 188.95C44.2608 188.633 44.529 188.373 44.846 188.373C45.1548 188.373 45.423 188.633 45.423 188.95C45.423 189.259 45.1548 189.519 44.846 189.519ZM46.4462 186.488C46.4462 184.667 47.3889 183.432 48.8681 183.432C50.3391 183.432 51.2818 184.667 51.2818 186.488C51.2818 188.316 50.3797 189.527 48.8681 189.527C47.3483 189.527 46.4462 188.316 46.4462 186.488ZM47.2345 186.488C47.2345 187.934 47.8359 188.812 48.8681 188.812C49.9002 188.812 50.4935 187.934 50.4935 186.488C50.4935 185.025 49.9002 184.147 48.8681 184.147C47.8359 184.147 47.2345 185.025 47.2345 186.488ZM52.0812 186.488C52.0812 184.667 53.0239 183.432 54.5031 183.432C55.974 183.432 56.9168 184.667 56.9168 186.488C56.9168 188.316 56.0147 189.527 54.5031 189.527C52.9833 189.527 52.0812 188.316 52.0812 186.488ZM52.8695 186.488C52.8695 187.934 53.4709 188.812 54.5031 188.812C55.5352 188.812 56.1285 187.934 56.1285 186.488C56.1285 185.025 55.5352 184.147 54.5031 184.147C53.4709 184.147 52.8695 185.025 52.8695 186.488Z" fill="#C4C4C4"/>
<path d="M89.2278 186.488C89.2278 184.667 90.1705 183.432 91.6497 183.432C93.1207 183.432 94.0634 184.667 94.0634 186.488C94.0634 188.316 93.1613 189.527 91.6497 189.527C90.1299 189.527 89.2278 188.316 89.2278 186.488ZM90.0161 186.488C90.0161 187.934 90.6175 188.812 91.6497 188.812C92.6818 188.812 93.2751 187.934 93.2751 186.488C93.2751 185.025 92.6818 184.147 91.6497 184.147C90.6175 184.147 90.0161 185.025 90.0161 186.488ZM98.2843 187.56L96.9108 189.421H95.9843L97.4553 187.471C97.2521 187.552 97.0408 187.593 96.8376 187.593C95.6186 187.593 94.7978 186.715 94.7978 185.545C94.7978 184.326 95.7242 183.44 96.9352 183.44C98.1542 183.44 99.097 184.358 99.097 185.553C99.097 186.244 98.8857 186.739 98.2843 187.56ZM98.2843 185.545C98.2843 184.74 97.7316 184.155 96.9352 184.155C96.155 184.155 95.6023 184.74 95.6023 185.545C95.6023 186.349 96.155 186.918 96.9352 186.918C97.7316 186.918 98.2843 186.349 98.2843 185.545ZM100.636 186.471C100.319 186.471 100.051 186.211 100.051 185.91C100.051 185.594 100.319 185.333 100.636 185.333C100.944 185.333 101.213 185.594 101.213 185.91C101.213 186.211 100.944 186.471 100.636 186.471ZM100.636 189.519C100.319 189.519 100.051 189.259 100.051 188.95C100.051 188.633 100.319 188.373 100.636 188.373C100.944 188.373 101.213 188.633 101.213 188.95C101.213 189.259 100.944 189.519 100.636 189.519ZM102.236 186.488C102.236 184.667 103.179 183.432 104.658 183.432C106.129 183.432 107.071 184.667 107.071 186.488C107.071 188.316 106.169 189.527 104.658 189.527C103.138 189.527 102.236 188.316 102.236 186.488ZM103.024 186.488C103.024 187.934 103.626 188.812 104.658 188.812C105.69 188.812 106.283 187.934 106.283 186.488C106.283 185.025 105.69 184.147 104.658 184.147C103.626 184.147 103.024 185.025 103.024 186.488ZM107.871 186.488C107.871 184.667 108.814 183.432 110.293 183.432C111.764 183.432 112.706 184.667 112.706 186.488C112.706 188.316 111.804 189.527 110.293 189.527C108.773 189.527 107.871 188.316 107.871 186.488ZM108.659 186.488C108.659 187.934 109.261 188.812 110.293 188.812C111.325 188.812 111.918 187.934 111.918 186.488C111.918 185.025 111.325 184.147 110.293 184.147C109.261 184.147 108.659 185.025 108.659 186.488Z" fill="#C4C4C4"/>
<path d="M146.328 184.261H145.093V183.546H147.092V189.421H146.328V184.261ZM148.167 186.488C148.167 184.667 149.11 183.432 150.589 183.432C152.06 183.432 153.002 184.667 153.002 186.488C153.002 188.316 152.1 189.527 150.589 189.527C149.069 189.527 148.167 188.316 148.167 186.488ZM148.955 186.488C148.955 187.934 149.557 188.812 150.589 188.812C151.621 188.812 152.214 187.934 152.214 186.488C152.214 185.025 151.621 184.147 150.589 184.147C149.557 184.147 148.955 185.025 148.955 186.488ZM154.606 186.471C154.289 186.471 154.021 186.211 154.021 185.91C154.021 185.594 154.289 185.333 154.606 185.333C154.915 185.333 155.183 185.594 155.183 185.91C155.183 186.211 154.915 186.471 154.606 186.471ZM154.606 189.519C154.289 189.519 154.021 189.259 154.021 188.95C154.021 188.633 154.289 188.373 154.606 188.373C154.915 188.373 155.183 188.633 155.183 188.95C155.183 189.259 154.915 189.519 154.606 189.519ZM156.207 186.488C156.207 184.667 157.149 183.432 158.628 183.432C160.099 183.432 161.042 184.667 161.042 186.488C161.042 188.316 160.14 189.527 158.628 189.527C157.109 189.527 156.207 188.316 156.207 186.488ZM156.995 186.488C156.995 187.934 157.596 188.812 158.628 188.812C159.661 188.812 160.254 187.934 160.254 186.488C160.254 185.025 159.661 184.147 158.628 184.147C157.596 184.147 156.995 185.025 156.995 186.488ZM161.842 186.488C161.842 184.667 162.784 183.432 164.263 183.432C165.734 183.432 166.677 184.667 166.677 186.488C166.677 188.316 165.775 189.527 164.263 189.527C162.744 189.527 161.842 188.316 161.842 186.488ZM162.63 186.488C162.63 187.934 163.231 188.812 164.263 188.812C165.296 188.812 165.889 187.934 165.889 186.488C165.889 185.025 165.296 184.147 164.263 184.147C163.231 184.147 162.63 185.025 162.63 186.488Z" fill="#C4C4C4"/>
<path d="M200.354 184.261H199.119V183.546H201.118V189.421H200.354V184.261ZM203.243 184.261H202.008V183.546H204.007V189.421H203.243V184.261ZM205.886 186.471C205.569 186.471 205.301 186.211 205.301 185.91C205.301 185.594 205.569 185.333 205.886 185.333C206.195 185.333 206.463 185.594 206.463 185.91C206.463 186.211 206.195 186.471 205.886 186.471ZM205.886 189.519C205.569 189.519 205.301 189.259 205.301 188.95C205.301 188.633 205.569 188.373 205.886 188.373C206.195 188.373 206.463 188.633 206.463 188.95C206.463 189.259 206.195 189.519 205.886 189.519ZM207.486 186.488C207.486 184.667 208.429 183.432 209.908 183.432C211.379 183.432 212.322 184.667 212.322 186.488C212.322 188.316 211.42 189.527 209.908 189.527C208.389 189.527 207.486 188.316 207.486 186.488ZM208.275 186.488C208.275 187.934 208.876 188.812 209.908 188.812C210.94 188.812 211.534 187.934 211.534 186.488C211.534 185.025 210.94 184.147 209.908 184.147C208.876 184.147 208.275 185.025 208.275 186.488ZM213.121 186.488C213.121 184.667 214.064 183.432 215.543 183.432C217.014 183.432 217.957 184.667 217.957 186.488C217.957 188.316 217.055 189.527 215.543 189.527C214.024 189.527 213.121 188.316 213.121 186.488ZM213.91 186.488C213.91 187.934 214.511 188.812 215.543 188.812C216.575 188.812 217.169 187.934 217.169 186.488C217.169 185.025 216.575 184.147 215.543 184.147C214.511 184.147 213.91 185.025 213.91 186.488Z" fill="#C4C4C4"/>
<path d="M251.534 184.261H250.299V183.546H252.298V189.421H251.534V184.261ZM257.315 189.413L253.349 189.421V188.812L255.242 187.178C256.193 186.357 256.461 185.959 256.461 185.333C256.461 184.594 256.039 184.155 255.332 184.155C254.608 184.155 254.137 184.683 254.121 185.52H253.324C253.349 184.261 254.145 183.44 255.34 183.44C256.518 183.44 257.274 184.155 257.274 185.285C257.274 186.122 256.86 186.715 255.819 187.617L254.6 188.674H257.315V189.413ZM258.852 186.471C258.535 186.471 258.267 186.211 258.267 185.91C258.267 185.594 258.535 185.333 258.852 185.333C259.161 185.333 259.429 185.594 259.429 185.91C259.429 186.211 259.161 186.471 258.852 186.471ZM258.852 189.519C258.535 189.519 258.267 189.259 258.267 188.95C258.267 188.633 258.535 188.373 258.852 188.373C259.161 188.373 259.429 188.633 259.429 188.95C259.429 189.259 259.161 189.519 258.852 189.519ZM260.452 186.488C260.452 184.667 261.395 183.432 262.874 183.432C264.345 183.432 265.288 184.667 265.288 186.488C265.288 188.316 264.386 189.527 262.874 189.527C261.355 189.527 260.452 188.316 260.452 186.488ZM261.241 186.488C261.241 187.934 261.842 188.812 262.874 188.812C263.906 188.812 264.5 187.934 264.5 186.488C264.5 185.025 263.906 184.147 262.874 184.147C261.842 184.147 261.241 185.025 261.241 186.488ZM266.087 186.488C266.087 184.667 267.03 183.432 268.509 183.432C269.98 183.432 270.923 184.667 270.923 186.488C270.923 188.316 270.021 189.527 268.509 189.527C266.99 189.527 266.087 188.316 266.087 186.488ZM266.876 186.488C266.876 187.934 267.477 188.812 268.509 188.812C269.541 188.812 270.135 187.934 270.135 186.488C270.135 185.025 269.541 184.147 268.509 184.147C267.477 184.147 266.876 185.025 266.876 186.488Z" fill="#C4C4C4"/>
<path d="M304.505 184.261H303.27V183.546H305.269V189.421H304.505V184.261ZM308.026 186.382H307.441V185.854L309.107 184.253H306.466V183.546H310.115V184.188L308.506 185.724C309.505 185.845 310.261 186.52 310.261 187.577C310.261 188.763 309.367 189.519 308.172 189.519C307.018 189.519 306.189 188.812 306.189 187.593H306.978C306.978 188.357 307.449 188.804 308.189 188.804C308.953 188.804 309.448 188.316 309.448 187.56C309.448 186.853 308.961 186.382 308.026 186.382ZM311.768 186.471C311.451 186.471 311.182 186.211 311.182 185.91C311.182 185.594 311.451 185.333 311.768 185.333C312.076 185.333 312.345 185.594 312.345 185.91C312.345 186.211 312.076 186.471 311.768 186.471ZM311.768 189.519C311.451 189.519 311.182 189.259 311.182 188.95C311.182 188.633 311.451 188.373 311.768 188.373C312.076 188.373 312.345 188.633 312.345 188.95C312.345 189.259 312.076 189.519 311.768 189.519ZM313.368 186.488C313.368 184.667 314.311 183.432 315.79 183.432C317.261 183.432 318.203 184.667 318.203 186.488C318.203 188.316 317.301 189.527 315.79 189.527C314.27 189.527 313.368 188.316 313.368 186.488ZM314.156 186.488C314.156 187.934 314.758 188.812 315.79 188.812C316.822 188.812 317.415 187.934 317.415 186.488C317.415 185.025 316.822 184.147 315.79 184.147C314.758 184.147 314.156 185.025 314.156 186.488ZM319.003 186.488C319.003 184.667 319.946 183.432 321.425 183.432C322.896 183.432 323.838 184.667 323.838 186.488C323.838 188.316 322.936 189.527 321.425 189.527C319.905 189.527 319.003 188.316 319.003 186.488ZM319.791 186.488C319.791 187.934 320.392 188.812 321.425 188.812C322.457 188.812 323.05 187.934 323.05 186.488C323.05 185.025 322.457 184.147 321.425 184.147C320.392 184.147 319.791 185.025 319.791 186.488Z" fill="#C4C4C4"/>
<g clip-path="url(#clip0_360_6386)">
<path d="M52.3586 69.0552H51.4484V62.3399H53.984C55.4237 62.3399 56.2782 63.1015 56.2782 64.3554C56.2782 65.2842 55.8138 65.953 54.9778 66.2223L56.3432 69.0552H55.3308L54.0769 66.3988H52.3586V69.0552ZM52.3586 63.1572V65.5907H53.9933C54.8385 65.5907 55.3215 65.1356 55.3215 64.3647C55.3215 63.5845 54.82 63.1572 53.984 63.1572H52.3586ZM57.1354 64.1511C57.1354 62.9993 58.0642 62.2191 59.4482 62.2191C60.7299 62.2191 61.5566 62.9343 61.6309 64.0953H60.7114C60.6649 63.4266 60.1912 63.0365 59.4389 63.0365C58.5937 63.0365 58.0457 63.4638 58.0457 64.1232C58.0457 64.6619 58.3522 64.987 58.9838 65.1356L60.089 65.3957C61.185 65.6465 61.7423 66.2409 61.7423 67.1883C61.7423 68.3957 60.8042 69.1666 59.3739 69.1666C58.0085 69.1666 57.0983 68.4515 57.0426 67.2997H57.9714C57.9899 67.9406 58.5287 68.3493 59.3739 68.3493C60.2655 68.3493 60.8321 67.9313 60.8321 67.2626C60.8321 66.7332 60.5442 66.3988 59.9033 66.2502L58.798 65.9994C57.702 65.7486 57.1354 65.117 57.1354 64.1511ZM63.7964 62.3399V69.0552H62.8861V62.3399H63.7964ZM68.8587 63.1572H67.447V62.3399H69.7318V69.0552H68.8587V63.1572ZM75.9665 67.6991H75.1677V69.0552H74.2947V67.6991H70.8209V66.8911L73.9882 62.3399H75.1677V66.8911H75.9665V67.6991ZM71.8055 66.8911H74.2947V63.3059L71.8055 66.8911Z" fill="#C4C4C4"/>
<path d="M83.2949 64.019L85.0043 61.7175H85.8064L84.0111 64.0954C84.3358 63.9331 84.6318 63.8662 84.947 63.8662C86.3699 63.8662 87.3153 64.9072 87.3153 66.2441C87.3153 67.6479 86.2553 68.6698 84.8897 68.6698C83.5145 68.6698 82.4354 67.6097 82.4354 66.2441C82.4354 65.4515 82.655 64.8976 83.2949 64.019ZM83.1325 66.2537C83.1325 67.2946 83.8487 68.049 84.8897 68.049C85.9019 68.049 86.6277 67.2946 86.6277 66.2537C86.6277 65.2128 85.9019 64.4679 84.8897 64.4679C83.8487 64.4679 83.1325 65.2128 83.1325 66.2537ZM92.5755 68.5552H88.068V68.0108L90.2549 66.1009C91.5155 65.0027 91.8402 64.5252 91.8402 63.7134C91.8402 62.7871 91.2863 62.2237 90.3791 62.2237C89.4336 62.2237 88.8129 62.9113 88.7843 63.9713H88.0967C88.1349 62.5388 89.0421 61.5934 90.3886 61.5934C91.6778 61.5934 92.5373 62.4242 92.5373 63.6752C92.5373 64.6684 92.0885 65.3274 90.7229 66.5211L89.128 67.9153H92.5755V68.5552ZM94.289 68.6602C93.9643 68.6602 93.6874 68.3928 93.6874 68.0777C93.6874 67.753 93.9643 67.4761 94.289 67.4761C94.6137 67.4761 94.8907 67.753 94.8907 68.0777C94.8907 68.3928 94.6137 68.6602 94.289 68.6602ZM98.055 68.6698C96.6798 68.6698 95.8012 67.8103 95.8012 66.4638H96.4888C96.4888 67.4474 97.0905 68.0395 98.0645 68.0395C99.0959 68.0395 99.7644 67.3519 99.7644 66.3396C99.7644 65.3847 99.1437 64.6302 98.0645 64.6302C97.4343 64.6302 96.8613 64.9167 96.4888 65.3274L95.9445 65.1555L96.7658 61.7175H100.07V62.3478H97.2624L96.7467 64.4965C97.1287 64.1909 97.6252 64.019 98.16 64.019C99.5829 64.019 100.462 65.0409 100.462 66.3205C100.462 67.6957 99.4875 68.6698 98.055 68.6698ZM102.152 64.019L103.861 61.7175H104.663L102.868 64.0954C103.193 63.9331 103.489 63.8662 103.804 63.8662C105.227 63.8662 106.172 64.9072 106.172 66.2441C106.172 67.6479 105.112 68.6698 103.747 68.6698C102.372 68.6698 101.292 67.6097 101.292 66.2441C101.292 65.4515 101.512 64.8976 102.152 64.019ZM101.99 66.2537C101.99 67.2946 102.706 68.049 103.747 68.049C104.759 68.049 105.485 67.2946 105.485 66.2537C105.485 65.2128 104.759 64.4679 103.747 64.4679C102.706 64.4679 101.99 65.2128 101.99 66.2537Z" fill="url(#paint1_linear_360_6386)"/>
<path d="M41.1436 72.9609H475.367" stroke="white" stroke-opacity="0.15" stroke-width="0.682126"/>
<path d="M41.1436 97.6011H475.343" stroke="white" stroke-opacity="0.15" stroke-width="0.682126"/>
<path d="M41.1436 122.241H525.792" stroke="white" stroke-opacity="0.15" stroke-width="0.682126"/>
<path d="M41.1436 146.881H475.778" stroke="white" stroke-opacity="0.15" stroke-width="0.682126"/>
<path d="M41.1436 171.521H475.704" stroke="white" stroke-opacity="0.15" stroke-width="0.682126"/>
<path d="M43.2385 92.8017L45.9072 83.6622L48.5758 82.1998L51.2444 88.0492L54.2466 86.9524L57.2488 80.0063L60.251 89.5115L66.2554 86.9524L68.924 96.8231H72.2598L74.9285 88.0492L77.2635 101.576L80.5993 100.479L86.2701 127.898L89.2723 118.027L91.9409 124.607L94.6096 123.145L97.9453 125.339L100.614 132.285L103.283 127.898L112.623 126.801L120.629 143.252L123.964 121.683L126.633 115.833L129.302 113.64L132.637 100.479L135.306 97.5543L138.308 99.3822L141.31 91.705L143.646 90.6082L146.648 96.092H149.316L151.985 90.6082L155.321 86.2212L157.989 90.6082L160.992 80.7375L169.665 127.898L172.667 125.339L175.335 152.392L178.338 142.155L180.673 140.327H184.008L189.679 120.952L193.349 124.607L195.684 128.994L198.352 124.607L201.355 123.145L204.69 134.844L206.692 143.983L210.028 142.155L215.031 132.285L219.368 133.016L224.038 125.339L227.04 135.94L230.042 133.016L232.711 137.037L235.713 133.016L238.715 133.747L243.052 128.994L247.055 126.435L250.057 121.683L254.727 130.457L261.399 139.596H264.734L267.737 137.768L270.072 141.059H273.074L276.076 137.768L278.745 148.37L281.747 145.811L284.416 156.413L290.086 137.037L293.089 137.768L295.757 128.994L304.764 143.983L307.432 140.327L313.437 145.811H317.106L321.776 109.984L324.779 105.597L327.781 111.081L333.785 95.3608L338.789 90.6082L341.791 100.479L344.793 97.5543L347.795 105.597L350.464 100.479L353.466 99.7478L356.802 92.0706L359.137 90.6082L362.473 112.543L364.808 108.522L367.81 115.468L371.146 108.522L376.817 116.199L382.154 101.576L385.156 119.124L387.825 121.683L391.161 120.586L394.163 117.296L399.5 116.199L402.502 108.522L405.504 106.694L408.173 101.576H411.175L419.181 82.1998L422.517 106.694L425.853 101.576H428.521L432.191 106.694L433.859 111.081L439.529 106.694L442.865 109.253H445.534L447.869 103.038H451.872L460.211 134.844L465.548 118.027L469.551 123.876L475.556 124.607" stroke="url(#paint2_linear_360_6386)" stroke-width="0.682126"/>
<path d="M45.2243 82.9993L42.5514 92.3727L40.2126 164.735H475.556V124.992L469.542 124.242L465.533 118.243L460.187 135.49L451.834 102.871H447.825L445.486 109.245H442.813L439.472 106.62L433.792 111.119L432.122 106.62L428.447 101.371H425.774L422.433 106.62L419.092 81.4996L411.073 101.371H408.066L405.393 106.62L402.386 108.495L399.379 116.368L394.034 117.493L391.027 120.868L387.685 121.992L385.013 119.368L382.006 101.371L376.66 116.368L370.98 108.495L367.639 115.619L364.632 108.495L362.293 112.619L358.952 90.1231L356.613 91.6228L353.272 99.4964L350.265 100.246L347.592 105.495L344.585 97.2468L341.578 100.246L338.572 90.1231L333.56 94.9972L327.546 111.119L324.539 105.495L321.532 109.995L316.854 146.738H313.179L307.165 141.114L304.492 144.863L295.472 129.491L292.799 138.489L289.792 137.74L284.112 157.611L281.439 146.738L278.432 149.362L275.759 138.489L272.752 141.864H269.745L267.406 138.489L264.399 140.364H261.058L254.376 130.991L249.699 121.992L246.692 126.867L242.682 129.491L238.339 134.365L235.332 133.615L232.325 137.74L229.652 133.615L226.645 136.615L223.638 125.742L218.961 133.615L214.617 132.865L209.606 142.989L206.265 144.863L204.26 135.49L200.919 123.492L197.912 124.992L195.239 129.491L192.9 124.992L189.225 121.243L183.545 141.114H180.204L177.865 142.989L174.858 153.487L172.185 125.742L169.179 128.366L160.492 79.9999L157.485 90.1231L154.812 85.6239L151.471 90.1231L148.798 95.7471H146.125L143.118 90.1231L140.779 91.2479L137.772 99.1215L134.765 97.2468L132.092 100.246L128.751 113.744L126.079 115.993L123.406 121.992L120.065 144.113L112.046 127.241L102.691 128.366L100.018 132.865L97.3452 125.742L94.0041 123.492L91.3312 124.992L88.6584 118.243L85.6514 128.366L79.9716 100.246L76.6305 101.371L74.2917 87.4985L71.6188 96.4969H68.2778L65.6049 86.3737L59.5909 88.9983L56.584 79.25L53.577 86.3737L50.57 87.4985L47.8971 81.4996L45.2243 82.9993Z" fill="url(#paint3_linear_360_6386)"/>
<path d="M42.0979 122.265L506.392 122.265" stroke="url(#paint4_linear_360_6386)" stroke-width="0.682126"/>
</g>
<defs>
<linearGradient id="paint0_linear_360_6386" x1="274.146" y1="-286.926" x2="274.146" y2="200.262" gradientUnits="userSpaceOnUse">
<stop stop-color="white" stop-opacity="0.1"/>
<stop offset="1" stop-color="white" stop-opacity="0.05"/>
</linearGradient>
<linearGradient id="paint1_linear_360_6386" x1="94.4961" y1="58.5552" x2="94.4961" y2="71.5552" gradientUnits="userSpaceOnUse">
<stop stop-color="#15B0F8"/>
<stop offset="1" stop-color="#0276DB"/>
</linearGradient>
<linearGradient id="paint2_linear_360_6386" x1="259.397" y1="80.0063" x2="259.397" y2="156.413" gradientUnits="userSpaceOnUse">
<stop stop-color="#15B0F8"/>
<stop offset="1" stop-color="#0276DB"/>
</linearGradient>
<linearGradient id="paint3_linear_360_6386" x1="257.884" y1="79.25" x2="257.884" y2="164.735" gradientUnits="userSpaceOnUse">
<stop offset="0.11" stop-color="#15B0F8"/>
<stop offset="0.49" stop-opacity="0"/>
</linearGradient>
<linearGradient id="paint4_linear_360_6386" x1="274.245" y1="122.265" x2="274.245" y2="123.265" gradientUnits="userSpaceOnUse">
<stop stop-color="#F59D31"/>
<stop offset="1" stop-color="#CD7509"/>
</linearGradient>
<clipPath id="clip0_360_6386">
<rect width="503.074" height="128.605" fill="white" transform="translate(32.0654 51.6772)"/>
</clipPath>
</defs>
</svg>
