<svg width="400" height="170" viewBox="0 0 400 170" fill="none" xmlns="http://www.w3.org/2000/svg">
<rect x="197.238" y="0.72168" width="201.863" height="93.5812" rx="5.75655" fill="white" fill-opacity="0.03"/>
<rect x="197.526" y="1.00951" width="201.287" height="93.0056" rx="5.46872" stroke="url(#paint0_linear_701_6117)" stroke-opacity="0.5" stroke-width="0.575655"/>
<path d="M205.636 14.5648C205.636 13.5655 206.442 12.8885 207.643 12.8885C208.755 12.8885 209.472 13.5091 209.537 14.5165H208.739C208.699 13.9362 208.288 13.5977 207.635 13.5977C206.902 13.5977 206.426 13.9685 206.426 14.5407C206.426 15.0081 206.692 15.2902 207.24 15.4191L208.199 15.6448C209.15 15.8624 209.634 16.3781 209.634 17.2002C209.634 18.2479 208.82 18.9168 207.579 18.9168C206.394 18.9168 205.604 18.2962 205.556 17.2969H206.362C206.378 17.853 206.845 18.2076 207.579 18.2076C208.352 18.2076 208.844 17.8449 208.844 17.2646C208.844 16.8053 208.594 16.5151 208.038 16.3862L207.079 16.1686C206.128 15.951 205.636 15.403 205.636 14.5648ZM210.191 16.8456C210.191 15.6286 211.061 14.7744 212.246 14.7744C213.423 14.7744 214.293 15.6286 214.293 16.8456C214.293 18.0625 213.423 18.9168 212.246 18.9168C211.061 18.9168 210.191 18.0625 210.191 16.8456ZM210.957 16.8456C210.957 17.6676 211.48 18.2398 212.246 18.2398C213.004 18.2398 213.536 17.6676 213.536 16.8456C213.536 16.0235 213.004 15.4513 212.246 15.4513C211.48 15.4513 210.957 16.0235 210.957 16.8456ZM214.825 16.8536C214.825 15.6206 215.607 14.7663 216.76 14.7663C217.751 14.7663 218.444 15.3305 218.581 16.2089H217.823C217.694 15.7092 217.292 15.4433 216.784 15.4433C216.067 15.4433 215.575 15.9913 215.575 16.8456C215.575 17.6918 216.034 18.2398 216.752 18.2398C217.292 18.2398 217.694 17.9577 217.831 17.4903H218.589C218.436 18.3446 217.703 18.9168 216.752 18.9168C215.591 18.9168 214.825 18.0947 214.825 16.8536ZM219.711 13.9443C219.437 13.9443 219.211 13.7186 219.211 13.4446C219.211 13.1625 219.437 12.9449 219.711 12.9449C219.985 12.9449 220.21 13.1625 220.21 13.4446C220.21 13.7186 219.985 13.9443 219.711 13.9443ZM219.34 18.8201V14.8791H220.098V18.8201H219.34ZM222.301 18.9168C221.455 18.9168 220.956 18.4413 220.956 17.724C220.956 16.9987 221.496 16.5474 222.422 16.4749L223.663 16.3781V16.2653C223.663 15.6045 223.269 15.3707 222.737 15.3707C222.1 15.3707 221.737 15.6528 221.737 16.1283H221.076C221.076 15.3063 221.753 14.7663 222.769 14.7663C223.744 14.7663 224.405 15.2821 224.405 16.3459V18.8201H223.76L223.68 18.1834C223.478 18.6347 222.938 18.9168 222.301 18.9168ZM222.519 18.3285C223.236 18.3285 223.672 17.861 223.672 17.1196V16.91L222.664 16.9906C221.995 17.0551 221.721 17.313 221.721 17.6998C221.721 18.1189 222.027 18.3285 222.519 18.3285ZM226.179 18.8201H225.422V12.8885H226.179V18.8201ZM231.15 18.8201L228.934 12.9933H229.78L231.199 16.7166C231.328 17.0471 231.441 17.3775 231.561 17.8127C231.698 17.3533 231.835 16.9665 231.932 16.7086L233.342 12.9933H234.165L231.972 18.8201H231.15ZM233.849 16.8456C233.849 15.6286 234.719 14.7744 235.904 14.7744C237.081 14.7744 237.951 15.6286 237.951 16.8456C237.951 18.0625 237.081 18.9168 235.904 18.9168C234.719 18.9168 233.849 18.0625 233.849 16.8456ZM234.615 16.8456C234.615 17.6676 235.138 18.2398 235.904 18.2398C236.662 18.2398 237.194 17.6676 237.194 16.8456C237.194 16.0235 236.662 15.4513 235.904 15.4513C235.138 15.4513 234.615 16.0235 234.615 16.8456ZM239.515 18.8201H238.757V12.8885H239.515V18.8201ZM243.306 14.8791H244.055V18.8201H243.378L243.298 18.2237C243.072 18.6347 242.548 18.9168 241.968 18.9168C241.049 18.9168 240.533 18.2962 240.533 17.3291V14.8791H241.291V17.0793C241.291 17.9255 241.654 18.2479 242.234 18.2479C242.927 18.2479 243.306 17.8046 243.306 16.9584V14.8791ZM245.864 18.8201H245.106V14.8791H245.783L245.856 15.3949C246.057 15.0242 246.476 14.7663 247.032 14.7663C247.645 14.7663 248.08 15.0726 248.281 15.5642C248.467 15.0726 248.942 14.7663 249.555 14.7663C250.457 14.7663 251.005 15.3305 251.005 16.2411V18.8201H250.264V16.4265C250.264 15.8059 249.917 15.4513 249.386 15.4513C248.813 15.4513 248.435 15.8543 248.435 16.4829V18.8201H247.685V16.4184C247.685 15.7979 247.347 15.4594 246.815 15.4594C246.242 15.4594 245.864 15.8543 245.864 16.4829V18.8201ZM253.708 18.9168C252.547 18.9168 251.749 18.0786 251.749 16.8536C251.749 15.6206 252.531 14.7663 253.675 14.7663C254.796 14.7663 255.529 15.54 255.529 16.7086V16.9906L252.483 16.9987C252.539 17.8288 252.974 18.2882 253.724 18.2882C254.312 18.2882 254.699 18.0464 254.828 17.5951H255.537C255.344 18.4413 254.683 18.9168 253.708 18.9168ZM253.675 15.403C253.015 15.403 252.596 15.7979 252.499 16.491H254.771C254.771 15.8382 254.344 15.403 253.675 15.403Z" fill="white"/>
<path d="M207.393 52.5435H206.265V44.2195H207.393V47.8001H211.515V44.2195H212.643V52.5435H211.515V48.8478H207.393V52.5435ZM214.85 45.578C214.459 45.578 214.136 45.2557 214.136 44.8642C214.136 44.4613 214.459 44.1504 214.85 44.1504C215.241 44.1504 215.564 44.4613 215.564 44.8642C215.564 45.2557 215.241 45.578 214.85 45.578ZM214.32 52.5435V46.9136H215.403V52.5435H214.32ZM216.548 49.5846C216.548 47.9958 217.573 46.7524 219.207 46.7524C220.117 46.7524 220.819 47.1668 221.176 47.8691L221.257 46.9136H222.224V52.3132C222.224 54.0862 221.13 55.2145 219.403 55.2145C217.872 55.2145 216.824 54.351 216.617 52.9234H217.699C217.837 53.7523 218.459 54.2359 219.403 54.2359C220.462 54.2359 221.153 53.5451 221.153 52.4744V51.3461C220.785 52.0023 220.048 52.3938 219.161 52.3938C217.561 52.3938 216.548 51.1619 216.548 49.5846ZM217.63 49.5616C217.63 50.6208 218.286 51.4497 219.346 51.4497C220.439 51.4497 221.107 50.6668 221.107 49.5616C221.107 48.4793 220.462 47.6964 219.357 47.6964C218.275 47.6964 217.63 48.5254 217.63 49.5616ZM224.799 52.5319H223.717V44.0698H224.799V47.777C225.156 47.1668 225.835 46.7524 226.71 46.7524C228.149 46.7524 228.84 47.6619 228.84 49.101V52.5435H227.758V49.3428C227.758 48.203 227.217 47.7425 226.411 47.7425C225.363 47.7425 224.799 48.5024 224.799 49.4695V52.5319Z" fill="white"/>
<rect opacity="0.3" x="205.298" y="62.1165" width="185.744" height="5.75655" rx="2.87827" fill="white" fill-opacity="0.1"/>
<rect x="205.298" y="62.1165" width="92.0715" height="5.75655" rx="2.87827" fill="url(#paint1_linear_701_6117)"/>
<rect x="205.374" y="62.1922" width="91.9199" height="5.60497" rx="2.80249" stroke="white" stroke-opacity="0.3" stroke-width="0.151574"/>
<circle opacity="0.4" cx="302.091" cy="64.7525" r="0.719568" fill="#454459"/>
<circle opacity="0.4" cx="306.696" cy="64.7525" r="0.719568" fill="#454459"/>
<circle opacity="0.4" cx="311.302" cy="64.7525" r="0.719568" fill="#454459"/>
<circle opacity="0.4" cx="315.906" cy="64.7525" r="0.719568" fill="#454459"/>
<circle opacity="0.4" cx="320.512" cy="64.7525" r="0.719568" fill="#454459"/>
<circle opacity="0.4" cx="325.117" cy="64.7525" r="0.719568" fill="#454459"/>
<circle opacity="0.4" cx="329.723" cy="64.7525" r="0.719568" fill="#454459"/>
<circle opacity="0.4" cx="334.327" cy="64.7525" r="0.719568" fill="#454459"/>
<circle opacity="0.4" cx="338.932" cy="64.7525" r="0.719568" fill="#454459"/>
<circle opacity="0.4" cx="343.538" cy="64.7525" r="0.719568" fill="#454459"/>
<circle opacity="0.4" cx="348.143" cy="64.7525" r="0.719568" fill="#454459"/>
<circle opacity="0.4" cx="352.748" cy="64.7525" r="0.719568" fill="#454459"/>
<circle opacity="0.4" cx="357.353" cy="64.7525" r="0.719568" fill="#454459"/>
<circle opacity="0.4" cx="361.959" cy="64.7525" r="0.719568" fill="#454459"/>
<circle cx="293.915" cy="64.9942" r="3.45393" fill="#454459"/>
<path d="M213.933 80.136V77.9773H211.774" stroke="#3EDC81" stroke-width="0.719568" stroke-linecap="round" stroke-linejoin="round"/>
<path d="M213.933 77.9773L211.775 80.136C211.393 80.5172 211.203 80.7076 210.969 80.7288C210.93 80.7322 210.892 80.7322 210.853 80.7288C210.619 80.7072 210.429 80.5172 210.048 80.136C209.666 79.7548 209.476 79.5644 209.242 79.5432C209.204 79.5397 209.165 79.5397 209.126 79.5432C208.892 79.5648 208.702 79.7548 208.321 80.136L207.025 81.4312" stroke="#3EDC81" stroke-width="0.719568" stroke-linecap="round" stroke-linejoin="round"/>
<path d="M218.607 80.1663H220.299V78.4739H220.944V80.1663H222.636V80.811H220.944V82.5115H220.299V80.811H218.607V80.1663ZM227.425 83.1965L223.492 83.2046V82.6002L225.37 80.9803C226.312 80.1663 226.578 79.7714 226.578 79.1508C226.578 78.4174 226.159 77.9823 225.458 77.9823C224.741 77.9823 224.273 78.5061 224.257 79.3362H223.468C223.492 78.087 224.282 77.273 225.466 77.273C226.635 77.273 227.384 77.9823 227.384 79.1025C227.384 79.9326 226.973 80.5209 225.942 81.4155L224.733 82.4631H227.425V83.1965ZM232.177 82.028H231.484V83.2046H230.726V82.028H227.712V81.3268L230.46 77.3778H231.484V81.3268H232.177V82.028ZM228.566 81.3268H230.726V78.216L228.566 81.3268ZM235.68 78.7559C235.68 79.6183 235.068 80.2388 234.206 80.2388C233.351 80.2388 232.739 79.6183 232.739 78.7559C232.739 77.8855 233.351 77.265 234.206 77.265C235.068 77.265 235.68 77.8855 235.68 78.7559ZM238.751 77.3859L234.327 83.2046H233.553L237.977 77.3859H238.751ZM235.06 78.7559C235.06 78.2321 234.713 77.8694 234.206 77.8694C233.706 77.8694 233.359 78.2321 233.359 78.7559C233.359 79.2717 233.706 79.6344 234.206 79.6344C234.705 79.6344 235.06 79.2717 235.06 78.7559ZM239.581 81.8265C239.581 82.6888 238.961 83.3094 238.106 83.3094C237.252 83.3094 236.631 82.6888 236.631 81.8265C236.631 80.9561 237.252 80.3436 238.106 80.3436C238.961 80.3436 239.581 80.9561 239.581 81.8265ZM238.953 81.8265C238.953 81.3026 238.614 80.94 238.106 80.94C237.607 80.94 237.26 81.3026 237.26 81.8265C237.26 82.3423 237.607 82.7049 238.106 82.7049C238.606 82.7049 238.953 82.3423 238.953 81.8265Z" fill="#3EDC81"/>
<g clip-path="url(#clip0_701_6117)">
<rect x="327.26" y="24.3621" width="0.533931" height="8" fill="url(#paint2_linear_701_6117)"/>
<rect x="324.591" y="26.0588" width="6" height="5.09" fill="url(#paint3_linear_701_6117)"/>
</g>
<g clip-path="url(#clip1_701_6117)">
<rect x="333.996" y="21.5085" width="0.363919" height="13" fill="url(#paint4_linear_701_6117)"/>
<rect x="332.177" y="24.0874" width="4" height="7.73682" fill="url(#paint5_linear_701_6117)"/>
</g>
<g clip-path="url(#clip2_701_6117)">
<rect x="342.43" y="17.7371" width="0.533931" height="18" fill="url(#paint6_linear_701_6117)"/>
<rect x="339.761" y="21.2437" width="6" height="10.5194" fill="url(#paint7_linear_701_6117)"/>
</g>
<g clip-path="url(#clip3_701_6117)">
<rect x="350.014" y="18.4783" width="0.533931" height="10" fill="url(#paint8_linear_701_6117)"/>
<rect x="347.345" y="20.5388" width="6" height="6.18071" fill="url(#paint9_linear_701_6117)"/>
</g>
<g clip-path="url(#clip4_701_6117)">
<rect x="357.598" y="13.0242" width="0.533931" height="16" fill="url(#paint10_linear_701_6117)"/>
<rect x="354.929" y="16.2966" width="6" height="9.81643" fill="url(#paint11_linear_701_6117)"/>
</g>
<g clip-path="url(#clip5_701_6117)">
<rect x="379.512" y="13.0242" width="0.533931" height="14" fill="url(#paint12_linear_701_6117)"/>
<rect x="376.843" y="15.8521" width="6" height="8.48336" fill="url(#paint13_linear_701_6117)"/>
</g>
<g clip-path="url(#clip6_701_6117)">
<rect x="365.182" y="9.82007" width="0.533931" height="25" fill="url(#paint14_linear_701_6117)"/>
<rect x="362.513" y="14.7966" width="6" height="14.9307" fill="url(#paint15_linear_701_6117)"/>
</g>
<g clip-path="url(#clip7_701_6117)">
<rect x="387.09" y="9.82007" width="0.533931" height="25" fill="url(#paint16_linear_701_6117)"/>
<rect x="384.421" y="14.7966" width="6" height="14.9307" fill="url(#paint17_linear_701_6117)"/>
</g>
<g clip-path="url(#clip8_701_6117)">
<rect x="372.768" y="19.9998" width="0.533931" height="11" fill="url(#paint18_linear_701_6117)"/>
<rect x="370.099" y="22.262" width="6" height="6.78669" fill="url(#paint19_linear_701_6117)"/>
</g>
<rect y="28.4434" width="201.867" height="93.5828" rx="5.75667" fill="#101010"/>
<rect x="0.287834" y="28.7312" width="201.292" height="93.0071" rx="5.46884" stroke="url(#paint20_linear_701_6117)" stroke-opacity="0.5" stroke-width="0.575667"/>
<path d="M9.51025 46.542H8.73655V40.7151H9.51025L11.517 45.6152L13.5238 40.7151H14.3136V46.542H13.5399V44.237C13.5399 43.149 13.548 42.7541 13.5883 42.3431L11.8878 46.542H11.1463L9.45384 42.3592C9.49413 42.6413 9.51025 43.2377 9.51025 44.0517V46.542ZM16.6456 46.6387C15.7994 46.6387 15.2997 46.1632 15.2997 45.4459C15.2997 44.7206 15.8397 44.2693 16.7665 44.1967L18.0076 44.1V43.9872C18.0076 43.3263 17.6127 43.0926 17.0808 43.0926C16.4441 43.0926 16.0814 43.3747 16.0814 43.8502H15.4206C15.4206 43.0281 16.0976 42.4881 17.113 42.4881C18.0882 42.4881 18.7491 43.0039 18.7491 44.0678V46.542H18.1043L18.0237 45.9053C17.8223 46.3566 17.2823 46.6387 16.6456 46.6387ZM16.8632 46.0504C17.5805 46.0504 18.0157 45.5829 18.0157 44.8415V44.6319L17.0083 44.7125C16.3393 44.777 16.0653 45.0349 16.0653 45.4217C16.0653 45.8408 16.3716 46.0504 16.8632 46.0504ZM22.0065 42.5687V43.2618H21.668C20.9507 43.2618 20.5075 43.697 20.5075 44.4546V46.542H19.7499V42.609H20.4591L20.5075 43.2054C20.6687 42.7944 21.0636 42.5204 21.6035 42.5204C21.7405 42.5204 21.8534 42.5365 22.0065 42.5687ZM23.4424 46.542H22.6848V40.6103H23.4424V44.4546L25.1913 42.601H26.1423L24.6352 44.1725L26.1342 46.542H25.2638L24.1113 44.7206L23.4424 45.4217V46.542ZM28.264 46.6387C27.1034 46.6387 26.3055 45.8005 26.3055 44.5755C26.3055 43.3424 27.0873 42.4881 28.2317 42.4881C29.352 42.4881 30.0854 43.2618 30.0854 44.4304V44.7125L27.0389 44.7206C27.0953 45.5507 27.5306 46.0101 28.2801 46.0101C28.8684 46.0101 29.2553 45.7683 29.3842 45.317H30.0934C29.9 46.1632 29.2391 46.6387 28.264 46.6387ZM28.2317 43.1248C27.5709 43.1248 27.1518 43.5197 27.0551 44.2128H29.3278C29.3278 43.56 28.9006 43.1248 28.2317 43.1248ZM31.956 46.542H31.1984V43.2377H30.4247V42.601H31.1984V41.3679H31.956V42.601H32.7297V43.2377H31.956V46.542ZM35.3071 42.2867C35.3071 41.2873 36.113 40.6103 37.3138 40.6103C38.426 40.6103 39.1433 41.2309 39.2078 42.2383H38.4099C38.3696 41.658 37.9586 41.3195 37.3058 41.3195C36.5724 41.3195 36.0969 41.6903 36.0969 42.2625C36.0969 42.7299 36.3628 43.012 36.9109 43.141L37.8699 43.3666C38.8209 43.5842 39.3045 44.1 39.3045 44.9221C39.3045 45.9698 38.4905 46.6387 37.2494 46.6387C36.0646 46.6387 35.2748 46.0181 35.2265 45.0188H36.0324C36.0485 45.5749 36.516 45.9295 37.2494 45.9295C38.0231 45.9295 38.5147 45.5668 38.5147 44.9865C38.5147 44.5272 38.2648 44.237 37.7087 44.1081L36.7497 43.8905C35.7987 43.6729 35.3071 43.1248 35.3071 42.2867ZM41.8202 46.6387C40.6597 46.6387 39.8618 45.8005 39.8618 44.5755C39.8618 43.3424 40.6435 42.4881 41.788 42.4881C42.9082 42.4881 43.6416 43.2618 43.6416 44.4304V44.7125L40.5952 44.7206C40.6516 45.5507 41.0868 46.0101 41.8363 46.0101C42.4247 46.0101 42.8115 45.7683 42.9405 45.317H43.6497C43.4562 46.1632 42.7954 46.6387 41.8202 46.6387ZM41.788 43.1248C41.1271 43.1248 40.708 43.5197 40.6113 44.2128H42.884C42.884 43.56 42.4569 43.1248 41.788 43.1248ZM45.197 46.542H44.4394V42.601H45.1245L45.2051 43.2054C45.4549 42.7541 45.9546 42.4881 46.5107 42.4881C47.5503 42.4881 48.0258 43.1248 48.0258 44.1322V46.542H47.2683V44.3015C47.2683 43.5036 46.8975 43.1812 46.3172 43.1812C45.608 43.1812 45.197 43.689 45.197 44.4546V46.542ZM50.1389 46.542H49.3814V43.2377H48.6077V42.601H49.3814V41.3679H50.1389V42.601H50.9126V43.2377H50.1389V46.542ZM51.9149 41.6661C51.6409 41.6661 51.4152 41.4404 51.4152 41.1664C51.4152 40.8843 51.6409 40.6667 51.9149 40.6667C52.1889 40.6667 52.4146 40.8843 52.4146 41.1664C52.4146 41.4404 52.1889 41.6661 51.9149 41.6661ZM51.5442 46.542V42.601H52.3017V46.542H51.5442ZM54.1108 46.542H53.3532V42.601H54.0302L54.1028 43.1168C54.3042 42.746 54.7233 42.4881 55.2794 42.4881C55.8919 42.4881 56.3271 42.7944 56.5286 43.286C56.714 42.7944 57.1895 42.4881 57.802 42.4881C58.7046 42.4881 59.2527 43.0523 59.2527 43.963V46.542H58.5112V44.1484C58.5112 43.5278 58.1647 43.1732 57.6328 43.1732C57.0605 43.1732 56.6817 43.5762 56.6817 44.2048V46.542H55.9322V44.1403C55.9322 43.5197 55.5937 43.1812 55.0618 43.1812C54.4896 43.1812 54.1108 43.5762 54.1108 44.2048V46.542ZM61.955 46.6387C60.7945 46.6387 59.9966 45.8005 59.9966 44.5755C59.9966 43.3424 60.7783 42.4881 61.9228 42.4881C63.043 42.4881 63.7764 43.2618 63.7764 44.4304V44.7125L60.73 44.7206C60.7864 45.5507 61.2216 46.0101 61.9711 46.0101C62.5595 46.0101 62.9463 45.7683 63.0753 45.317H63.7845C63.5911 46.1632 62.9302 46.6387 61.955 46.6387ZM61.9228 43.1248C61.2619 43.1248 60.8428 43.5197 60.7461 44.2128H63.0188C63.0188 43.56 62.5917 43.1248 61.9228 43.1248ZM65.3318 46.542H64.5742V42.601H65.2593L65.3399 43.2054C65.5897 42.7541 66.0894 42.4881 66.6455 42.4881C67.6851 42.4881 68.1606 43.1248 68.1606 44.1322V46.542H67.4031V44.3015C67.4031 43.5036 67.0323 43.1812 66.4521 43.1812C65.7428 43.1812 65.3318 43.689 65.3318 44.4546V46.542ZM70.2738 46.542H69.5162V43.2377H68.7425V42.601H69.5162V41.3679H70.2738V42.601H71.0475V43.2377H70.2738V46.542Z" fill="white"/>
<path d="M9.02669 80.2661V71.942H12.2044C13.8278 71.942 14.8179 72.7709 14.8179 74.141C14.8179 75.0966 14.4034 75.7414 13.5745 76.0868C14.4955 76.3861 14.9676 77.0539 14.9676 78.044C14.9676 79.4256 13.9659 80.2661 12.3195 80.2661H9.02669ZM12.1353 72.9436H10.155V75.6147H12.2044C13.137 75.6147 13.6666 75.1081 13.6666 74.2446C13.6666 73.4157 13.1139 72.9436 12.1353 72.9436ZM12.2965 76.5934H10.155V79.2645H12.2965C13.2636 79.2645 13.8047 78.7694 13.8047 77.9059C13.8047 77.0769 13.2521 76.5934 12.2965 76.5934ZM20.0182 74.6361H21.0889V80.2661H20.1218L20.0066 79.4141C19.6843 80.0013 18.9359 80.4043 18.1069 80.4043C16.7944 80.4043 16.0576 79.5177 16.0576 78.1361V74.6361H17.1398V77.7792C17.1398 78.9881 17.6579 79.4487 18.4869 79.4487C19.477 79.4487 20.0182 78.8154 20.0182 77.6065V74.6361ZM23.6953 80.2661H22.6131V71.7923H23.6953V80.2661ZM26.3247 80.2661H25.2424V71.7923H26.3247V80.2661ZM28.3784 73.3005C27.9869 73.3005 27.6645 72.9782 27.6645 72.5867C27.6645 72.1837 27.9869 71.8729 28.3784 71.8729C28.7698 71.8729 29.0922 72.1837 29.0922 72.5867C29.0922 72.9782 28.7698 73.3005 28.3784 73.3005ZM27.8488 80.2661V74.6361H28.931V80.2661H27.8488ZM29.9726 78.6312H31.0088C31.0088 79.2069 31.4463 79.5523 32.1601 79.5523C32.92 79.5523 33.3575 79.2414 33.3575 78.7233C33.3575 78.3434 33.1733 78.1131 32.5861 77.9634L31.596 77.7332C30.5943 77.4914 30.1223 76.9963 30.1223 76.1674C30.1223 75.1312 30.9973 74.4749 32.2407 74.4749C33.4727 74.4749 34.2786 75.1657 34.3016 76.2364H33.2654C33.2424 75.6723 32.8625 75.3154 32.2062 75.3154C31.5269 75.3154 31.147 75.6147 31.147 76.1328C31.147 76.5128 31.4233 76.7661 31.9759 76.9042L32.9661 77.146C33.9217 77.3763 34.3937 77.8138 34.3937 78.6542C34.3937 79.725 33.4727 80.4043 32.1371 80.4043C30.8131 80.4043 29.9726 79.702 29.9726 78.6312ZM36.6071 80.2546H35.5248V71.7923H36.6071V75.4996C36.964 74.8894 37.6433 74.4749 38.5183 74.4749C39.9575 74.4749 40.6483 75.3845 40.6483 76.8236V80.2661H39.566V77.0654C39.566 75.9256 39.0249 75.4651 38.2189 75.4651C37.1712 75.4651 36.6071 76.2249 36.6071 77.1921V80.2546Z" fill="white"/>
<rect opacity="0.3" x="8.05957" y="89.8389" width="185.748" height="5.75667" rx="2.87834" fill="white" fill-opacity="0.1"/>
<rect x="8.05957" y="89.8389" width="92.0735" height="5.75667" rx="2.87834" fill="url(#paint21_linear_701_6117)"/>
<rect x="8.13536" y="89.9147" width="91.9219" height="5.60509" rx="2.80255" stroke="white" stroke-opacity="0.3" stroke-width="0.151577"/>
<circle opacity="0.4" cx="104.855" cy="92.4757" r="0.719584" fill="#454459"/>
<circle opacity="0.4" cx="109.461" cy="92.4759" r="0.719584" fill="#454459"/>
<circle opacity="0.4" cx="114.066" cy="92.4759" r="0.719584" fill="#454459"/>
<circle opacity="0.4" cx="118.671" cy="92.4759" r="0.719584" fill="#454459"/>
<circle opacity="0.4" cx="123.276" cy="92.4757" r="0.719584" fill="#454459"/>
<circle opacity="0.4" cx="127.882" cy="92.4757" r="0.719584" fill="#454459"/>
<circle opacity="0.4" cx="132.487" cy="92.4757" r="0.719584" fill="#454459"/>
<circle opacity="0.4" cx="137.093" cy="92.4757" r="0.719584" fill="#454459"/>
<circle opacity="0.4" cx="141.698" cy="92.4759" r="0.719584" fill="#454459"/>
<circle opacity="0.4" cx="146.304" cy="92.4759" r="0.719584" fill="#454459"/>
<circle opacity="0.4" cx="150.909" cy="92.4759" r="0.719584" fill="#454459"/>
<circle opacity="0.4" cx="155.514" cy="92.4759" r="0.719584" fill="#454459"/>
<circle opacity="0.4" cx="160.119" cy="92.4757" r="0.719584" fill="#454459"/>
<circle opacity="0.4" cx="164.724" cy="92.4757" r="0.719584" fill="#454459"/>
<circle cx="96.6786" cy="92.7172" r="3.454" fill="#454459"/>
<path d="M16.6939 107.859V105.7H14.5352" stroke="#3EDC81" stroke-width="0.719584" stroke-linecap="round" stroke-linejoin="round"/>
<path d="M16.6941 105.7L14.5354 107.859C14.1542 108.24 13.9637 108.431 13.7302 108.452C13.6913 108.455 13.6525 108.455 13.6136 108.452C13.38 108.43 13.1896 108.24 12.8084 107.859C12.4271 107.478 12.2367 107.288 12.0032 107.266C11.9644 107.263 11.9254 107.263 11.8866 107.266C11.653 107.288 11.4626 107.478 11.0814 107.859L9.78613 109.154" stroke="#3EDC81" stroke-width="0.719584" stroke-linecap="round" stroke-linejoin="round"/>
<path d="M21.0631 106.672C21.0631 105.673 21.869 104.996 23.0699 104.996C24.1821 104.996 24.8993 105.617 24.9638 106.624H24.1659C24.1257 106.044 23.7146 105.705 23.0618 105.705C22.3284 105.705 21.8529 106.076 21.8529 106.648C21.8529 107.116 22.1189 107.398 22.6669 107.527L23.626 107.752C24.577 107.97 25.0605 108.486 25.0605 109.308C25.0605 110.356 24.2465 111.024 23.0054 111.024C21.8207 111.024 21.0309 110.404 20.9825 109.405H21.7884C21.8046 109.961 22.272 110.315 23.0054 110.315C23.7791 110.315 24.2707 109.953 24.2707 109.372C24.2707 108.913 24.0209 108.623 23.4648 108.494L22.5057 108.276C21.5547 108.059 21.0631 107.511 21.0631 106.672ZM26.8751 110.928H26.1175V107.623H25.3438V106.987H26.1175V105.754H26.8751V106.987H27.6488V107.623H26.8751V110.928ZM30.4241 106.954V107.648H30.0856C29.3683 107.648 28.925 108.083 28.925 108.84V110.928H28.1675V106.995H28.8767L28.925 107.591C29.0862 107.18 29.4811 106.906 30.0211 106.906C30.1581 106.906 30.271 106.922 30.4241 106.954ZM30.5739 108.953C30.5739 107.736 31.4443 106.882 32.629 106.882C33.8057 106.882 34.6761 107.736 34.6761 108.953C34.6761 110.17 33.8057 111.024 32.629 111.024C31.4443 111.024 30.5739 110.17 30.5739 108.953ZM31.3395 108.953C31.3395 109.775 31.8634 110.347 32.629 110.347C33.3866 110.347 33.9185 109.775 33.9185 108.953C33.9185 108.131 33.3866 107.559 32.629 107.559C31.8634 107.559 31.3395 108.131 31.3395 108.953ZM36.1111 110.928H35.3535V106.987H36.0385L36.1191 107.591C36.369 107.14 36.8687 106.874 37.4248 106.874C38.4644 106.874 38.9399 107.511 38.9399 108.518V110.928H38.1823V108.687C38.1823 107.889 37.8116 107.567 37.2313 107.567C36.5221 107.567 36.1111 108.075 36.1111 108.84V110.928ZM39.5782 108.856C39.5782 107.744 40.2955 106.874 41.4399 106.874C42.0766 106.874 42.5682 107.164 42.818 107.656L42.8744 106.987H43.5514V110.767C43.5514 112.008 42.7858 112.798 41.5769 112.798C40.505 112.798 39.7716 112.193 39.6265 111.194H40.3841C40.4808 111.774 40.916 112.112 41.5769 112.112C42.3183 112.112 42.8019 111.629 42.8019 110.879V110.09C42.544 110.549 42.0282 110.823 41.4076 110.823C40.2874 110.823 39.5782 109.961 39.5782 108.856ZM40.3358 108.84C40.3358 109.582 40.7951 110.162 41.5366 110.162C42.3022 110.162 42.7697 109.614 42.7697 108.84C42.7697 108.083 42.3183 107.535 41.5447 107.535C40.7871 107.535 40.3358 108.115 40.3358 108.84Z" fill="#3EDC81"/>
<g clip-path="url(#clip9_701_6117)">
<rect x="129.174" y="52.084" width="0.363927" height="8" fill="url(#paint22_linear_701_6117)"/>
<rect x="127.354" y="53.696" width="4" height="4.8356" fill="url(#paint23_linear_701_6117)"/>
</g>
<g clip-path="url(#clip10_701_6117)">
<rect x="136.762" y="49.2307" width="0.363927" height="13" fill="url(#paint24_linear_701_6117)"/>
<rect x="134.942" y="51.8096" width="4" height="7.73699" fill="url(#paint25_linear_701_6117)"/>
</g>
<g clip-path="url(#clip11_701_6117)">
<rect x="144.344" y="45.46" width="0.363927" height="17" fill="url(#paint26_linear_701_6117)"/>
<rect x="142.524" y="48.791" width="4" height="9.99362" fill="url(#paint27_linear_701_6117)"/>
</g>
<g clip-path="url(#clip12_701_6117)">
<rect x="151.93" y="46.2002" width="0.363927" height="10" fill="url(#paint28_linear_701_6117)"/>
<rect x="150.11" y="48.1577" width="4" height="5.8718" fill="url(#paint29_linear_701_6117)"/>
</g>
<g clip-path="url(#clip13_701_6117)">
<rect x="159.516" y="40.7461" width="0.363927" height="16" fill="url(#paint30_linear_701_6117)"/>
<rect x="157.696" y="43.8547" width="4" height="9.32581" fill="url(#paint31_linear_701_6117)"/>
</g>
<g clip-path="url(#clip14_701_6117)">
<rect x="181.428" y="40.7461" width="0.363927" height="13" fill="url(#paint32_linear_701_6117)"/>
<rect x="179.608" y="43.4326" width="4" height="8.05937" fill="url(#paint33_linear_701_6117)"/>
</g>
<g clip-path="url(#clip15_701_6117)">
<rect x="167.1" y="37.542" width="0.363927" height="24" fill="url(#paint34_linear_701_6117)"/>
<rect x="165.28" y="42.2703" width="4" height="14.1845" fill="url(#paint35_linear_701_6117)"/>
</g>
<g clip-path="url(#clip16_701_6117)">
<rect x="189.01" y="37.542" width="0.363927" height="24" fill="url(#paint36_linear_701_6117)"/>
<rect x="187.19" y="42.2703" width="4" height="14.1845" fill="url(#paint37_linear_701_6117)"/>
</g>
<g clip-path="url(#clip17_701_6117)">
<rect x="174.686" y="47.7217" width="0.363927" height="11" fill="url(#paint38_linear_701_6117)"/>
<rect x="172.866" y="49.8708" width="4" height="6.44749" fill="url(#paint39_linear_701_6117)"/>
</g>
<rect x="162.059" y="75.7471" width="201.863" height="93.5812" rx="5.75655" fill="#101010"/>
<rect x="162.346" y="76.0349" width="201.287" height="93.0056" rx="5.46872" stroke="url(#paint40_linear_701_6117)" stroke-opacity="0.5" stroke-width="0.575655"/>
<path d="M173.874 91.3713H171.585V93.8455H170.795V88.0187H174.309V88.744H171.585V90.654H173.874V91.3713ZM176.482 93.9422C175.321 93.9422 174.523 93.104 174.523 91.879C174.523 90.646 175.305 89.7917 176.449 89.7917C177.57 89.7917 178.303 90.5654 178.303 91.734V92.016L175.257 92.0241C175.313 92.8542 175.748 93.3136 176.498 93.3136C177.086 93.3136 177.473 93.0718 177.602 92.6205H178.311C178.118 93.4667 177.457 93.9422 176.482 93.9422ZM176.449 90.4284C175.789 90.4284 175.37 90.8233 175.273 91.5164H177.546C177.546 90.8636 177.118 90.4284 176.449 90.4284ZM180.214 93.9422C179.368 93.9422 178.868 93.4667 178.868 92.7494C178.868 92.0241 179.408 91.5728 180.335 91.5002L181.576 91.4035V91.2907C181.576 90.6299 181.181 90.3961 180.649 90.3961C180.012 90.3961 179.65 90.6782 179.65 91.1537H178.989C178.989 90.3317 179.666 89.7917 180.681 89.7917C181.657 89.7917 182.317 90.3075 182.317 91.3713V93.8455H181.673L181.592 93.2088C181.391 93.6601 180.851 93.9422 180.214 93.9422ZM180.432 93.3538C181.149 93.3538 181.584 92.8864 181.584 92.145V91.9354L180.577 92.016C179.908 92.0805 179.634 92.3384 179.634 92.7252C179.634 93.1443 179.94 93.3538 180.432 93.3538ZM185.575 89.8723V90.5654H185.236C184.519 90.5654 184.076 91.0006 184.076 91.7581V93.8455H183.318V89.9126H184.027L184.076 90.509C184.237 90.0979 184.632 89.8239 185.172 89.8239C185.309 89.8239 185.422 89.8401 185.575 89.8723ZM192.307 93.8455L191.847 93.3216C191.396 93.7246 190.776 93.9502 190.042 93.9502C188.793 93.9502 187.971 93.3055 187.971 92.3303C187.971 91.6131 188.43 91.0409 189.397 90.5412C188.898 89.969 188.712 89.6144 188.712 89.1792C188.712 88.4458 189.285 87.922 190.107 87.922C190.905 87.922 191.453 88.4136 191.453 89.1308C191.453 89.7111 191.154 90.1624 190.405 90.6701L191.799 92.2578C191.928 91.9435 192.001 91.5567 192.001 91.1215H192.734C192.734 91.7823 192.573 92.3626 192.291 92.8139L193.193 93.8455H192.307ZM189.43 89.1711C189.43 89.4774 189.567 89.7192 190.018 90.235C190.51 89.9368 190.743 89.5822 190.743 89.147C190.743 88.7682 190.502 88.5345 190.099 88.5345C189.688 88.5345 189.43 88.7843 189.43 89.1711ZM188.761 92.2739C188.761 92.9106 189.269 93.2974 190.115 93.2974C190.655 93.2974 191.09 93.1363 191.412 92.8219L189.776 90.9683C189.051 91.3713 188.761 91.7501 188.761 92.2739ZM198.258 88.6634C197.001 88.6634 196.243 89.5902 196.243 90.9683C196.243 92.3787 197.065 93.1927 198.266 93.1927C199.257 93.1927 200.055 92.6849 200.055 91.5083V91.3391H198.105V90.6379H200.797V93.8535H200.136L200.079 93.0637C199.765 93.5714 199.056 93.9422 198.202 93.9422C196.549 93.9422 195.413 92.7494 195.413 90.9522C195.413 89.1792 196.557 87.922 198.274 87.922C199.547 87.922 200.539 88.6554 200.732 89.7756H199.894C199.676 89.0341 199.032 88.6634 198.258 88.6634ZM203.445 93.9422C202.285 93.9422 201.487 93.104 201.487 91.879C201.487 90.646 202.269 89.7917 203.413 89.7917C204.533 89.7917 205.267 90.5654 205.267 91.734V92.016L202.22 92.0241C202.277 92.8542 202.712 93.3136 203.461 93.3136C204.05 93.3136 204.436 93.0718 204.565 92.6205H205.275C205.081 93.4667 204.42 93.9422 203.445 93.9422ZM203.413 90.4284C202.752 90.4284 202.333 90.8233 202.236 91.5164H204.509C204.509 90.8636 204.082 90.4284 203.413 90.4284ZM207.177 93.9422C206.331 93.9422 205.832 93.4667 205.832 92.7494C205.832 92.0241 206.372 91.5728 207.298 91.5002L208.539 91.4035V91.2907C208.539 90.6299 208.145 90.3961 207.613 90.3961C206.976 90.3961 206.613 90.6782 206.613 91.1537H205.952C205.952 90.3317 206.629 89.7917 207.645 89.7917C208.62 89.7917 209.281 90.3075 209.281 91.3713V93.8455H208.636L208.556 93.2088C208.354 93.6601 207.814 93.9422 207.177 93.9422ZM207.395 93.3538C208.112 93.3538 208.548 92.8864 208.548 92.145V91.9354L207.54 92.016C206.871 92.0805 206.597 92.3384 206.597 92.7252C206.597 93.1443 206.903 93.3538 207.395 93.3538ZM212.538 89.8723V90.5654H212.2C211.483 90.5654 211.039 91.0006 211.039 91.7581V93.8455H210.282V89.9126H210.991L211.039 90.509C211.2 90.0979 211.595 89.8239 212.135 89.8239C212.272 89.8239 212.385 89.8401 212.538 89.8723Z" fill="white"/>
<path d="M171.085 127.569V119.245H174.263C175.886 119.245 176.876 120.074 176.876 121.444C176.876 122.4 176.462 123.044 175.633 123.39C176.554 123.689 177.026 124.357 177.026 125.347C177.026 126.729 176.024 127.569 174.378 127.569H171.085ZM174.194 120.247H172.214V122.918H174.263C175.195 122.918 175.725 122.411 175.725 121.548C175.725 120.719 175.172 120.247 174.194 120.247ZM174.355 123.896H172.214V126.567H174.355C175.322 126.567 175.863 126.072 175.863 125.209C175.863 124.38 175.311 123.896 174.355 123.896ZM182.076 121.939H183.147V127.569H182.18L182.065 126.717C181.743 127.304 180.994 127.707 180.165 127.707C178.853 127.707 178.116 126.821 178.116 125.439V121.939H179.198V125.082C179.198 126.291 179.716 126.752 180.545 126.752C181.535 126.752 182.076 126.118 182.076 124.91V121.939ZM185.754 127.569H184.671V119.095H185.754V127.569ZM188.383 127.569H187.301V119.095H188.383V127.569ZM190.437 120.604C190.045 120.604 189.723 120.281 189.723 119.89C189.723 119.487 190.045 119.176 190.437 119.176C190.828 119.176 191.15 119.487 191.15 119.89C191.15 120.281 190.828 120.604 190.437 120.604ZM189.907 127.569V121.939H190.989V127.569H189.907ZM192.031 125.934H193.067C193.067 126.51 193.504 126.855 194.218 126.855C194.978 126.855 195.416 126.544 195.416 126.026C195.416 125.646 195.231 125.416 194.644 125.266L193.654 125.036C192.652 124.794 192.18 124.299 192.18 123.47C192.18 122.434 193.055 121.778 194.299 121.778C195.531 121.778 196.337 122.469 196.36 123.54H195.323C195.3 122.975 194.921 122.618 194.264 122.618C193.585 122.618 193.205 122.918 193.205 123.436C193.205 123.816 193.481 124.069 194.034 124.207L195.024 124.449C195.98 124.679 196.452 125.117 196.452 125.957C196.452 127.028 195.531 127.707 194.195 127.707C192.871 127.707 192.031 127.005 192.031 125.934ZM198.665 127.558H197.583V119.095H198.665V122.803C199.022 122.192 199.701 121.778 200.576 121.778C202.015 121.778 202.706 122.688 202.706 124.127V127.569H201.624V124.368C201.624 123.229 201.083 122.768 200.277 122.768C199.229 122.768 198.665 123.528 198.665 124.495V127.558Z" fill="white"/>
<rect opacity="0.3" x="170.118" y="137.142" width="185.744" height="5.75655" rx="2.87827" fill="white" fill-opacity="0.1"/>
<rect x="170.118" y="137.142" width="92.0715" height="5.75655" rx="2.87827" fill="url(#paint41_linear_701_6117)"/>
<rect x="170.194" y="137.218" width="91.9199" height="5.60497" rx="2.80249" stroke="white" stroke-opacity="0.3" stroke-width="0.151574"/>
<circle opacity="0.4" cx="266.912" cy="139.778" r="0.719568" fill="#454459"/>
<circle opacity="0.4" cx="271.517" cy="139.778" r="0.719568" fill="#454459"/>
<circle opacity="0.4" cx="276.123" cy="139.778" r="0.719568" fill="#454459"/>
<circle opacity="0.4" cx="280.727" cy="139.778" r="0.719568" fill="#454459"/>
<circle opacity="0.4" cx="285.333" cy="139.778" r="0.719568" fill="#454459"/>
<circle opacity="0.4" cx="289.938" cy="139.778" r="0.719568" fill="#454459"/>
<circle opacity="0.4" cx="294.544" cy="139.778" r="0.719568" fill="#454459"/>
<circle opacity="0.4" cx="299.148" cy="139.778" r="0.719568" fill="#454459"/>
<circle opacity="0.4" cx="303.754" cy="139.778" r="0.719568" fill="#454459"/>
<circle opacity="0.4" cx="308.359" cy="139.778" r="0.719568" fill="#454459"/>
<circle opacity="0.4" cx="312.965" cy="139.778" r="0.719568" fill="#454459"/>
<circle opacity="0.4" cx="317.569" cy="139.778" r="0.719568" fill="#454459"/>
<circle opacity="0.4" cx="322.175" cy="139.778" r="0.719568" fill="#454459"/>
<circle opacity="0.4" cx="326.78" cy="139.778" r="0.719568" fill="#454459"/>
<circle cx="258.736" cy="140.02" r="3.45393" fill="#454459"/>
<circle cx="175.299" cy="157.32" r="1.29522" stroke="url(#paint42_linear_701_6117)" stroke-width="0.647611"/>
<path d="M175.3 156.02L176.688 154.304" stroke="url(#paint43_linear_701_6117)" stroke-width="0.647611" stroke-linecap="round"/>
<path d="M179.616 155.162C179.616 152.777 177.683 150.844 175.299 150.844C172.914 150.844 170.981 152.777 170.981 155.162" stroke="url(#paint44_linear_701_6117)" stroke-width="0.647611" stroke-linecap="round"/>
<path d="M185.958 153.048C184.7 153.048 183.943 153.974 183.943 155.353C183.943 156.763 184.765 157.577 185.966 157.577C186.957 157.577 187.755 157.069 187.755 155.893V155.723H185.804V155.022H188.496V158.238H187.835L187.779 157.448C187.465 157.956 186.755 158.326 185.901 158.326C184.249 158.326 183.113 157.134 183.113 155.336C183.113 153.563 184.257 152.306 185.974 152.306C187.247 152.306 188.238 153.04 188.432 154.16H187.594C187.376 153.418 186.731 153.048 185.958 153.048ZM191.588 154.257V154.95H191.25C190.532 154.95 190.089 155.385 190.089 156.142V158.23H189.331V154.297H190.041L190.089 154.893C190.25 154.482 190.645 154.208 191.185 154.208C191.322 154.208 191.435 154.224 191.588 154.257ZM193.696 158.326C192.536 158.326 191.738 157.488 191.738 156.263C191.738 155.03 192.52 154.176 193.664 154.176C194.784 154.176 195.518 154.95 195.518 156.118V156.4L192.471 156.408C192.528 157.238 192.963 157.698 193.712 157.698C194.301 157.698 194.688 157.456 194.816 157.005H195.526C195.332 157.851 194.671 158.326 193.696 158.326ZM193.664 154.813C193.003 154.813 192.584 155.208 192.487 155.901H194.76C194.76 155.248 194.333 154.813 193.664 154.813ZM197.903 158.326C196.743 158.326 195.945 157.488 195.945 156.263C195.945 155.03 196.726 154.176 197.871 154.176C198.991 154.176 199.724 154.95 199.724 156.118V156.4L196.678 156.408C196.734 157.238 197.17 157.698 197.919 157.698C198.507 157.698 198.894 157.456 199.023 157.005H199.732C199.539 157.851 198.878 158.326 197.903 158.326ZM197.871 154.813C197.21 154.813 196.791 155.208 196.694 155.901H198.967C198.967 155.248 198.54 154.813 197.871 154.813ZM201.989 158.326C200.845 158.326 200.151 157.472 200.151 156.271C200.151 155.062 200.853 154.176 202.021 154.176C202.626 154.176 203.133 154.442 203.399 154.925V152.298H204.149V158.23H203.472L203.407 157.512C203.149 158.052 202.618 158.326 201.989 158.326ZM202.142 157.641C202.916 157.641 203.391 157.069 203.391 156.247C203.391 155.441 202.916 154.861 202.142 154.861C201.368 154.861 200.917 155.441 200.917 156.247C200.917 157.061 201.368 157.641 202.142 157.641Z" fill="url(#paint45_linear_701_6117)"/>
<g clip-path="url(#clip18_701_6117)">
<rect x="292.08" y="99.3875" width="0.533931" height="8" fill="url(#paint46_linear_701_6117)"/>
<rect x="289.411" y="101.084" width="6" height="5.09" fill="url(#paint47_linear_701_6117)"/>
</g>
<g clip-path="url(#clip19_701_6117)">
<rect x="299.666" y="96.5339" width="0.533931" height="14" fill="url(#paint48_linear_701_6117)"/>
<rect x="296.997" y="99.2488" width="6" height="8.14403" fill="url(#paint49_linear_701_6117)"/>
</g>
<g clip-path="url(#clip20_701_6117)">
<rect x="306.4" y="92.7625" width="0.363919" height="17" fill="url(#paint50_linear_701_6117)"/>
<rect x="304.581" y="96.0935" width="4" height="9.9934" fill="url(#paint51_linear_701_6117)"/>
</g>
<g clip-path="url(#clip21_701_6117)">
<rect x="314.836" y="93.5037" width="0.533931" height="10" fill="url(#paint52_linear_701_6117)"/>
<rect x="312.167" y="95.5642" width="6" height="6.18071" fill="url(#paint53_linear_701_6117)"/>
</g>
<g clip-path="url(#clip22_701_6117)">
<rect x="322.418" y="88.0486" width="0.533931" height="16" fill="url(#paint54_linear_701_6117)"/>
<rect x="319.749" y="91.321" width="6" height="9.81643" fill="url(#paint55_linear_701_6117)"/>
</g>
<g clip-path="url(#clip23_701_6117)">
<rect x="344.332" y="88.0486" width="0.533931" height="14" fill="url(#paint56_linear_701_6117)"/>
<rect x="341.663" y="90.8765" width="6" height="8.48336" fill="url(#paint57_linear_701_6117)"/>
</g>
<g clip-path="url(#clip24_701_6117)">
<rect x="330.004" y="84.8455" width="0.533931" height="25" fill="url(#paint58_linear_701_6117)"/>
<rect x="327.335" y="89.822" width="6" height="14.9307" fill="url(#paint59_linear_701_6117)"/>
</g>
<g clip-path="url(#clip25_701_6117)">
<rect x="351.914" y="84.8455" width="0.533931" height="25" fill="url(#paint60_linear_701_6117)"/>
<rect x="349.245" y="89.822" width="6" height="14.9307" fill="url(#paint61_linear_701_6117)"/>
</g>
<g clip-path="url(#clip26_701_6117)">
<rect x="337.592" y="95.0251" width="0.533931" height="11" fill="url(#paint62_linear_701_6117)"/>
<rect x="334.923" y="97.2874" width="6" height="6.78669" fill="url(#paint63_linear_701_6117)"/>
</g>
<defs>
<linearGradient id="paint0_linear_701_6117" x1="221.515" y1="80.1748" x2="233.162" y2="-1.07459" gradientUnits="userSpaceOnUse">
<stop stop-color="#0276DB"/>
<stop offset="1" stop-color="#3EDC81"/>
</linearGradient>
<linearGradient id="paint1_linear_701_6117" x1="193.597" y1="67.9929" x2="195.288" y2="55.2693" gradientUnits="userSpaceOnUse">
<stop stop-color="#0276DB"/>
<stop offset="1" stop-color="#3EDC81"/>
</linearGradient>
<linearGradient id="paint2_linear_701_6117" x1="327.324" y1="31.1543" x2="328.786" y2="30.8387" gradientUnits="userSpaceOnUse">
<stop stop-color="#0276DB"/>
<stop offset="1" stop-color="#3EDC81"/>
</linearGradient>
<linearGradient id="paint3_linear_701_6117" x1="325.312" y1="30.3804" x2="326.419" y2="26.1607" gradientUnits="userSpaceOnUse">
<stop stop-color="#0276DB"/>
<stop offset="1" stop-color="#3EDC81"/>
</linearGradient>
<linearGradient id="paint4_linear_701_6117" x1="334.04" y1="32.5459" x2="335.074" y2="32.4523" gradientUnits="userSpaceOnUse">
<stop stop-color="#0276DB"/>
<stop offset="1" stop-color="#3EDC81"/>
</linearGradient>
<linearGradient id="paint5_linear_701_6117" x1="332.658" y1="30.6562" x2="335.678" y2="25.6069" gradientUnits="userSpaceOnUse">
<stop stop-color="#0276DB"/>
<stop offset="1" stop-color="#3EDC81"/>
</linearGradient>
<linearGradient id="paint6_linear_701_6117" x1="342.494" y1="33.0196" x2="344.01" y2="32.8741" gradientUnits="userSpaceOnUse">
<stop stop-color="#0276DB"/>
<stop offset="1" stop-color="#3EDC81"/>
</linearGradient>
<linearGradient id="paint7_linear_701_6117" x1="340.482" y1="30.1749" x2="344.388" y2="22.9711" gradientUnits="userSpaceOnUse">
<stop stop-color="#0276DB"/>
<stop offset="1" stop-color="#3EDC81"/>
</linearGradient>
<linearGradient id="paint8_linear_701_6117" x1="350.078" y1="26.9686" x2="351.564" y2="26.712" gradientUnits="userSpaceOnUse">
<stop stop-color="#0276DB"/>
<stop offset="1" stop-color="#3EDC81"/>
</linearGradient>
<linearGradient id="paint9_linear_701_6117" x1="348.066" y1="25.7864" x2="349.65" y2="20.8144" gradientUnits="userSpaceOnUse">
<stop stop-color="#0276DB"/>
<stop offset="1" stop-color="#3EDC81"/>
</linearGradient>
<linearGradient id="paint10_linear_701_6117" x1="357.662" y1="26.6086" x2="359.174" y2="26.4454" gradientUnits="userSpaceOnUse">
<stop stop-color="#0276DB"/>
<stop offset="1" stop-color="#3EDC81"/>
</linearGradient>
<linearGradient id="paint11_linear_701_6117" x1="355.65" y1="24.6311" x2="359.154" y2="17.7055" gradientUnits="userSpaceOnUse">
<stop stop-color="#0276DB"/>
<stop offset="1" stop-color="#3EDC81"/>
</linearGradient>
<linearGradient id="paint12_linear_701_6117" x1="379.576" y1="24.9106" x2="381.083" y2="24.7247" gradientUnits="userSpaceOnUse">
<stop stop-color="#0276DB"/>
<stop offset="1" stop-color="#3EDC81"/>
</linearGradient>
<linearGradient id="paint13_linear_701_6117" x1="377.564" y1="23.0547" x2="380.323" y2="16.744" gradientUnits="userSpaceOnUse">
<stop stop-color="#0276DB"/>
<stop offset="1" stop-color="#3EDC81"/>
</linearGradient>
<linearGradient id="paint14_linear_701_6117" x1="365.246" y1="31.0458" x2="366.769" y2="30.9406" gradientUnits="userSpaceOnUse">
<stop stop-color="#0276DB"/>
<stop offset="1" stop-color="#3EDC81"/>
</linearGradient>
<linearGradient id="paint15_linear_701_6117" x1="363.234" y1="27.4732" x2="369.628" y2="19.1634" gradientUnits="userSpaceOnUse">
<stop stop-color="#0276DB"/>
<stop offset="1" stop-color="#3EDC81"/>
</linearGradient>
<linearGradient id="paint16_linear_701_6117" x1="387.154" y1="31.0458" x2="388.677" y2="30.9406" gradientUnits="userSpaceOnUse">
<stop stop-color="#0276DB"/>
<stop offset="1" stop-color="#3EDC81"/>
</linearGradient>
<linearGradient id="paint17_linear_701_6117" x1="385.142" y1="27.4732" x2="391.536" y2="19.1634" gradientUnits="userSpaceOnUse">
<stop stop-color="#0276DB"/>
<stop offset="1" stop-color="#3EDC81"/>
</linearGradient>
<linearGradient id="paint18_linear_701_6117" x1="372.832" y1="29.3391" x2="374.325" y2="29.1047" gradientUnits="userSpaceOnUse">
<stop stop-color="#0276DB"/>
<stop offset="1" stop-color="#3EDC81"/>
</linearGradient>
<linearGradient id="paint19_linear_701_6117" x1="370.82" y1="28.0241" x2="372.694" y2="22.666" gradientUnits="userSpaceOnUse">
<stop stop-color="#0276DB"/>
<stop offset="1" stop-color="#3EDC81"/>
</linearGradient>
<linearGradient id="paint20_linear_701_6117" x1="24.2772" y1="107.898" x2="35.9239" y2="26.647" gradientUnits="userSpaceOnUse">
<stop stop-color="#0276DB"/>
<stop offset="1" stop-color="#3EDC81"/>
</linearGradient>
<linearGradient id="paint21_linear_701_6117" x1="-3.64127" y1="95.7155" x2="-1.95011" y2="82.9915" gradientUnits="userSpaceOnUse">
<stop stop-color="#0276DB"/>
<stop offset="1" stop-color="#3EDC81"/>
</linearGradient>
<linearGradient id="paint22_linear_701_6117" x1="129.218" y1="58.8762" x2="130.238" y2="58.726" gradientUnits="userSpaceOnUse">
<stop stop-color="#0276DB"/>
<stop offset="1" stop-color="#3EDC81"/>
</linearGradient>
<linearGradient id="paint23_linear_701_6117" x1="127.836" y1="57.8016" x2="129.241" y2="54.0422" gradientUnits="userSpaceOnUse">
<stop stop-color="#0276DB"/>
<stop offset="1" stop-color="#3EDC81"/>
</linearGradient>
<linearGradient id="paint24_linear_701_6117" x1="136.805" y1="60.2681" x2="137.84" y2="60.1744" gradientUnits="userSpaceOnUse">
<stop stop-color="#0276DB"/>
<stop offset="1" stop-color="#3EDC81"/>
</linearGradient>
<linearGradient id="paint25_linear_701_6117" x1="135.423" y1="58.3785" x2="138.443" y2="53.3292" gradientUnits="userSpaceOnUse">
<stop stop-color="#0276DB"/>
<stop offset="1" stop-color="#3EDC81"/>
</linearGradient>
<linearGradient id="paint26_linear_701_6117" x1="144.388" y1="59.8934" x2="145.425" y2="59.8216" gradientUnits="userSpaceOnUse">
<stop stop-color="#0276DB"/>
<stop offset="1" stop-color="#3EDC81"/>
</linearGradient>
<linearGradient id="paint27_linear_701_6117" x1="143.005" y1="57.2759" x2="147.289" y2="51.7304" gradientUnits="userSpaceOnUse">
<stop stop-color="#0276DB"/>
<stop offset="1" stop-color="#3EDC81"/>
</linearGradient>
<linearGradient id="paint28_linear_701_6117" x1="151.973" y1="54.6905" x2="153.002" y2="54.5694" gradientUnits="userSpaceOnUse">
<stop stop-color="#0276DB"/>
<stop offset="1" stop-color="#3EDC81"/>
</linearGradient>
<linearGradient id="paint29_linear_701_6117" x1="150.591" y1="53.143" x2="152.55" y2="48.829" gradientUnits="userSpaceOnUse">
<stop stop-color="#0276DB"/>
<stop offset="1" stop-color="#3EDC81"/>
</linearGradient>
<linearGradient id="paint30_linear_701_6117" x1="159.559" y1="54.3305" x2="160.597" y2="54.2542" gradientUnits="userSpaceOnUse">
<stop stop-color="#0276DB"/>
<stop offset="1" stop-color="#3EDC81"/>
</linearGradient>
<linearGradient id="paint31_linear_701_6117" x1="158.177" y1="51.7726" x2="162.097" y2="46.3352" gradientUnits="userSpaceOnUse">
<stop stop-color="#0276DB"/>
<stop offset="1" stop-color="#3EDC81"/>
</linearGradient>
<linearGradient id="paint32_linear_701_6117" x1="181.472" y1="51.7835" x2="182.506" y2="51.6898" gradientUnits="userSpaceOnUse">
<stop stop-color="#0276DB"/>
<stop offset="1" stop-color="#3EDC81"/>
</linearGradient>
<linearGradient id="paint33_linear_701_6117" x1="180.089" y1="50.2752" x2="183.294" y2="45.1308" gradientUnits="userSpaceOnUse">
<stop stop-color="#0276DB"/>
<stop offset="1" stop-color="#3EDC81"/>
</linearGradient>
<linearGradient id="paint34_linear_701_6117" x1="167.143" y1="57.9187" x2="168.184" y2="57.8676" gradientUnits="userSpaceOnUse">
<stop stop-color="#0276DB"/>
<stop offset="1" stop-color="#3EDC81"/>
</linearGradient>
<linearGradient id="paint35_linear_701_6117" x1="165.761" y1="54.3133" x2="172.019" y2="48.6063" gradientUnits="userSpaceOnUse">
<stop stop-color="#0276DB"/>
<stop offset="1" stop-color="#3EDC81"/>
</linearGradient>
<linearGradient id="paint36_linear_701_6117" x1="189.054" y1="57.9187" x2="190.094" y2="57.8676" gradientUnits="userSpaceOnUse">
<stop stop-color="#0276DB"/>
<stop offset="1" stop-color="#3EDC81"/>
</linearGradient>
<linearGradient id="paint37_linear_701_6117" x1="187.671" y1="54.3133" x2="193.929" y2="48.6063" gradientUnits="userSpaceOnUse">
<stop stop-color="#0276DB"/>
<stop offset="1" stop-color="#3EDC81"/>
</linearGradient>
<linearGradient id="paint38_linear_701_6117" x1="174.729" y1="57.061" x2="175.76" y2="56.9507" gradientUnits="userSpaceOnUse">
<stop stop-color="#0276DB"/>
<stop offset="1" stop-color="#3EDC81"/>
</linearGradient>
<linearGradient id="paint39_linear_701_6117" x1="173.347" y1="55.345" x2="175.628" y2="50.7688" gradientUnits="userSpaceOnUse">
<stop stop-color="#0276DB"/>
<stop offset="1" stop-color="#3EDC81"/>
</linearGradient>
<linearGradient id="paint40_linear_701_6117" x1="186.335" y1="155.2" x2="197.982" y2="73.9508" gradientUnits="userSpaceOnUse">
<stop stop-color="#0276DB"/>
<stop offset="1" stop-color="#3EDC81"/>
</linearGradient>
<linearGradient id="paint41_linear_701_6117" x1="158.418" y1="143.019" x2="160.109" y2="130.295" gradientUnits="userSpaceOnUse">
<stop stop-color="#0276DB"/>
<stop offset="1" stop-color="#3EDC81"/>
</linearGradient>
<linearGradient id="paint42_linear_701_6117" x1="175.299" y1="156.025" x2="175.299" y2="158.616" gradientUnits="userSpaceOnUse">
<stop stop-color="#FFB145"/>
<stop offset="1" stop-color="#F59D31"/>
</linearGradient>
<linearGradient id="paint43_linear_701_6117" x1="177.076" y1="154.619" x2="175.689" y2="156.335" gradientUnits="userSpaceOnUse">
<stop stop-color="#FFB145"/>
<stop offset="1" stop-color="#F59D31"/>
</linearGradient>
<linearGradient id="paint44_linear_701_6117" x1="175.299" y1="150.844" x2="175.299" y2="155.162" gradientUnits="userSpaceOnUse">
<stop stop-color="#FFB145"/>
<stop offset="1" stop-color="#F59D31"/>
</linearGradient>
<linearGradient id="paint45_linear_701_6117" x1="193.782" y1="149.23" x2="193.782" y2="160.23" gradientUnits="userSpaceOnUse">
<stop stop-color="#FFB145"/>
<stop offset="1" stop-color="#F59D31"/>
</linearGradient>
<linearGradient id="paint46_linear_701_6117" x1="292.144" y1="106.18" x2="293.606" y2="105.864" gradientUnits="userSpaceOnUse">
<stop stop-color="#0276DB"/>
<stop offset="1" stop-color="#3EDC81"/>
</linearGradient>
<linearGradient id="paint47_linear_701_6117" x1="290.133" y1="105.406" x2="291.24" y2="101.186" gradientUnits="userSpaceOnUse">
<stop stop-color="#0276DB"/>
<stop offset="1" stop-color="#3EDC81"/>
</linearGradient>
<linearGradient id="paint48_linear_701_6117" x1="299.73" y1="108.42" x2="301.237" y2="108.234" gradientUnits="userSpaceOnUse">
<stop stop-color="#0276DB"/>
<stop offset="1" stop-color="#3EDC81"/>
</linearGradient>
<linearGradient id="paint49_linear_701_6117" x1="297.719" y1="106.163" x2="300.294" y2="100.028" gradientUnits="userSpaceOnUse">
<stop stop-color="#0276DB"/>
<stop offset="1" stop-color="#3EDC81"/>
</linearGradient>
<linearGradient id="paint50_linear_701_6117" x1="306.444" y1="107.196" x2="307.482" y2="107.124" gradientUnits="userSpaceOnUse">
<stop stop-color="#0276DB"/>
<stop offset="1" stop-color="#3EDC81"/>
</linearGradient>
<linearGradient id="paint51_linear_701_6117" x1="305.062" y1="104.578" x2="309.346" y2="99.0327" gradientUnits="userSpaceOnUse">
<stop stop-color="#0276DB"/>
<stop offset="1" stop-color="#3EDC81"/>
</linearGradient>
<linearGradient id="paint52_linear_701_6117" x1="314.9" y1="101.994" x2="316.386" y2="101.737" gradientUnits="userSpaceOnUse">
<stop stop-color="#0276DB"/>
<stop offset="1" stop-color="#3EDC81"/>
</linearGradient>
<linearGradient id="paint53_linear_701_6117" x1="312.889" y1="100.812" x2="314.472" y2="95.8397" gradientUnits="userSpaceOnUse">
<stop stop-color="#0276DB"/>
<stop offset="1" stop-color="#3EDC81"/>
</linearGradient>
<linearGradient id="paint54_linear_701_6117" x1="322.482" y1="101.633" x2="323.995" y2="101.47" gradientUnits="userSpaceOnUse">
<stop stop-color="#0276DB"/>
<stop offset="1" stop-color="#3EDC81"/>
</linearGradient>
<linearGradient id="paint55_linear_701_6117" x1="320.471" y1="99.6555" x2="323.974" y2="92.7299" gradientUnits="userSpaceOnUse">
<stop stop-color="#0276DB"/>
<stop offset="1" stop-color="#3EDC81"/>
</linearGradient>
<linearGradient id="paint56_linear_701_6117" x1="344.396" y1="99.935" x2="345.903" y2="99.7491" gradientUnits="userSpaceOnUse">
<stop stop-color="#0276DB"/>
<stop offset="1" stop-color="#3EDC81"/>
</linearGradient>
<linearGradient id="paint57_linear_701_6117" x1="342.385" y1="98.0791" x2="345.144" y2="91.7684" gradientUnits="userSpaceOnUse">
<stop stop-color="#0276DB"/>
<stop offset="1" stop-color="#3EDC81"/>
</linearGradient>
<linearGradient id="paint58_linear_701_6117" x1="330.068" y1="106.071" x2="331.591" y2="105.966" gradientUnits="userSpaceOnUse">
<stop stop-color="#0276DB"/>
<stop offset="1" stop-color="#3EDC81"/>
</linearGradient>
<linearGradient id="paint59_linear_701_6117" x1="328.057" y1="102.499" x2="334.45" y2="94.1888" gradientUnits="userSpaceOnUse">
<stop stop-color="#0276DB"/>
<stop offset="1" stop-color="#3EDC81"/>
</linearGradient>
<linearGradient id="paint60_linear_701_6117" x1="351.978" y1="106.071" x2="353.501" y2="105.966" gradientUnits="userSpaceOnUse">
<stop stop-color="#0276DB"/>
<stop offset="1" stop-color="#3EDC81"/>
</linearGradient>
<linearGradient id="paint61_linear_701_6117" x1="349.967" y1="102.499" x2="356.361" y2="94.1888" gradientUnits="userSpaceOnUse">
<stop stop-color="#0276DB"/>
<stop offset="1" stop-color="#3EDC81"/>
</linearGradient>
<linearGradient id="paint62_linear_701_6117" x1="337.656" y1="104.364" x2="339.149" y2="104.13" gradientUnits="userSpaceOnUse">
<stop stop-color="#0276DB"/>
<stop offset="1" stop-color="#3EDC81"/>
</linearGradient>
<linearGradient id="paint63_linear_701_6117" x1="335.644" y1="103.049" x2="337.518" y2="97.6914" gradientUnits="userSpaceOnUse">
<stop stop-color="#0276DB"/>
<stop offset="1" stop-color="#3EDC81"/>
</linearGradient>
<clipPath id="clip0_701_6117">
<path d="M324.591 25.574C324.591 24.9046 325.133 24.3621 325.803 24.3621H329.252C329.921 24.3621 330.464 24.9046 330.464 25.574V32.8454H324.591V25.574Z" fill="white"/>
</clipPath>
<clipPath id="clip1_701_6117">
<path d="M332.177 22.7204C332.177 22.0511 332.719 21.5085 333.389 21.5085H334.968C335.637 21.5085 336.18 22.0511 336.18 22.7204V34.4033H332.177V22.7204Z" fill="white"/>
</clipPath>
<clipPath id="clip2_701_6117">
<path d="M339.761 18.949C339.761 18.2796 340.303 17.7371 340.973 17.7371H344.422C345.091 17.7371 345.634 18.2796 345.634 18.949V35.2693H339.761V18.949Z" fill="white"/>
</clipPath>
<clipPath id="clip3_701_6117">
<path d="M347.345 19.6902C347.345 19.0209 347.887 18.4783 348.557 18.4783H352.006C352.675 18.4783 353.218 19.0209 353.218 19.6902V28.7795H347.345V19.6902Z" fill="white"/>
</clipPath>
<clipPath id="clip4_701_6117">
<path d="M354.929 14.2361C354.929 13.5668 355.471 13.0242 356.141 13.0242H359.59C360.259 13.0242 360.802 13.5668 360.802 14.2361V29.3849H354.929V14.2361Z" fill="white"/>
</clipPath>
<clipPath id="clip5_701_6117">
<path d="M376.843 14.2361C376.843 13.5668 377.385 13.0242 378.055 13.0242H381.504C382.173 13.0242 382.716 13.5668 382.716 14.2361V27.1631H376.843V14.2361Z" fill="white"/>
</clipPath>
<clipPath id="clip6_701_6117">
<path d="M362.513 11.032C362.513 10.3627 363.055 9.82007 363.725 9.82007H367.174C367.843 9.82007 368.386 10.3627 368.386 11.032V34.7046H362.513V11.032Z" fill="white"/>
</clipPath>
<clipPath id="clip7_701_6117">
<path d="M384.421 11.032C384.421 10.3627 384.963 9.82007 385.633 9.82007H389.082C389.752 9.82007 390.294 10.3627 390.294 11.032V34.7046H384.421V11.032Z" fill="white"/>
</clipPath>
<clipPath id="clip8_701_6117">
<path d="M370.099 21.2117C370.099 20.5423 370.641 19.9998 371.311 19.9998H374.76C375.429 19.9998 375.972 20.5423 375.972 21.2117V31.3109H370.099V21.2117Z" fill="white"/>
</clipPath>
<clipPath id="clip9_701_6117">
<path d="M127.354 53.2959C127.354 52.6266 127.897 52.084 128.566 52.084H130.146C130.815 52.084 131.358 52.6266 131.358 53.2959V60.1433H127.354V53.2959Z" fill="white"/>
</clipPath>
<clipPath id="clip10_701_6117">
<path d="M134.942 50.4426C134.942 49.7733 135.485 49.2307 136.154 49.2307H137.734C138.403 49.2307 138.946 49.7733 138.946 50.4426V62.1257H134.942V50.4426Z" fill="white"/>
</clipPath>
<clipPath id="clip11_701_6117">
<path d="M142.524 46.6719C142.524 46.0026 143.067 45.46 143.736 45.46H145.316C145.985 45.46 146.528 46.0026 146.528 46.6719V62.116H142.524V46.6719Z" fill="white"/>
</clipPath>
<clipPath id="clip12_701_6117">
<path d="M150.11 47.4121C150.11 46.7428 150.653 46.2002 151.322 46.2002H152.902C153.571 46.2002 154.114 46.7428 154.114 47.4121V55.9865H150.11V47.4121Z" fill="white"/>
</clipPath>
<clipPath id="clip13_701_6117">
<path d="M157.696 41.958C157.696 41.2887 158.239 40.7461 158.908 40.7461H160.488C161.157 40.7461 161.699 41.2887 161.699 41.958V56.2891H157.696V41.958Z" fill="white"/>
</clipPath>
<clipPath id="clip14_701_6117">
<path d="M179.608 41.958C179.608 41.2887 180.151 40.7461 180.82 40.7461H182.4C183.069 40.7461 183.612 41.2887 183.612 41.958V54.1784H179.608V41.958Z" fill="white"/>
</clipPath>
<clipPath id="clip15_701_6117">
<path d="M165.28 38.7539C165.28 38.0846 165.823 37.542 166.492 37.542H168.072C168.741 37.542 169.283 38.0846 169.283 38.7539V61.1828H165.28V38.7539Z" fill="white"/>
</clipPath>
<clipPath id="clip16_701_6117">
<path d="M187.19 38.7539C187.19 38.0846 187.733 37.542 188.402 37.542H189.982C190.651 37.542 191.194 38.0846 191.194 38.7539V61.1828H187.19V38.7539Z" fill="white"/>
</clipPath>
<clipPath id="clip17_701_6117">
<path d="M172.866 48.9336C172.866 48.2643 173.409 47.7217 174.078 47.7217H175.657C176.327 47.7217 176.869 48.2643 176.869 48.9336V58.4675H172.866V48.9336Z" fill="white"/>
</clipPath>
<clipPath id="clip18_701_6117">
<path d="M289.411 100.599C289.411 99.93 289.954 99.3875 290.623 99.3875H294.072C294.742 99.3875 295.284 99.93 295.284 100.599V107.871H289.411V100.599Z" fill="white"/>
</clipPath>
<clipPath id="clip19_701_6117">
<path d="M296.997 97.7458C296.997 97.0765 297.54 96.5339 298.209 96.5339H301.658C302.328 96.5339 302.87 97.0765 302.87 97.7458V110.107H296.997V97.7458Z" fill="white"/>
</clipPath>
<clipPath id="clip20_701_6117">
<path d="M304.581 93.9744C304.581 93.305 305.124 92.7625 305.793 92.7625H307.372C308.042 92.7625 308.584 93.305 308.584 93.9744V109.418H304.581V93.9744Z" fill="white"/>
</clipPath>
<clipPath id="clip21_701_6117">
<path d="M312.167 94.7156C312.167 94.0463 312.71 93.5037 313.379 93.5037H316.828C317.498 93.5037 318.04 94.0463 318.04 94.7156V103.805H312.167V94.7156Z" fill="white"/>
</clipPath>
<clipPath id="clip22_701_6117">
<path d="M319.749 89.2605C319.749 88.5912 320.292 88.0486 320.961 88.0486H324.41C325.08 88.0486 325.622 88.5912 325.622 89.2605V104.409H319.749V89.2605Z" fill="white"/>
</clipPath>
<clipPath id="clip23_701_6117">
<path d="M341.663 89.2605C341.663 88.5912 342.206 88.0486 342.875 88.0486H346.324C346.994 88.0486 347.536 88.5912 347.536 89.2605V102.188H341.663V89.2605Z" fill="white"/>
</clipPath>
<clipPath id="clip24_701_6117">
<path d="M327.335 86.0574C327.335 85.388 327.878 84.8455 328.547 84.8455H331.996C332.666 84.8455 333.208 85.388 333.208 86.0574V109.73H327.335V86.0574Z" fill="white"/>
</clipPath>
<clipPath id="clip25_701_6117">
<path d="M349.245 86.0574C349.245 85.388 349.788 84.8455 350.457 84.8455H353.906C354.576 84.8455 355.118 85.388 355.118 86.0574V109.73H349.245V86.0574Z" fill="white"/>
</clipPath>
<clipPath id="clip26_701_6117">
<path d="M334.923 96.237C334.923 95.5677 335.465 95.0251 336.135 95.0251H339.584C340.254 95.0251 340.796 95.5677 340.796 96.2371V106.336H334.923V96.237Z" fill="white"/>
</clipPath>
</defs>
</svg>
