<svg width="319" height="125" viewBox="0 0 319 125" fill="none" xmlns="http://www.w3.org/2000/svg">
<rect width="186.479" height="89.2098" transform="translate(0 35.5198)" fill="#101010"/>
<path d="M5.00135 47.2197H4.30073V42.0509H6.25245C7.36057 42.0509 8.0183 42.6371 8.0183 43.6022C8.0183 44.3172 7.66084 44.8319 7.01741 45.0392L8.06834 47.2197H7.28908L6.32394 45.1751H5.00135V47.2197ZM5.00135 42.68V44.5531H6.2596C6.91018 44.5531 7.28193 44.2028 7.28193 43.6094C7.28193 43.0089 6.89588 42.68 6.25245 42.68H5.00135ZM9.0499 42.8945C8.80683 42.8945 8.60665 42.6943 8.60665 42.4512C8.60665 42.201 8.80683 42.008 9.0499 42.008C9.29297 42.008 9.49315 42.201 9.49315 42.4512C9.49315 42.6943 9.29297 42.8945 9.0499 42.8945ZM8.72104 47.2197V43.7238H9.39306V47.2197H8.72104ZM9.93975 46.2045H10.5832C10.5832 46.562 10.8548 46.7765 11.2981 46.7765C11.7699 46.7765 12.0416 46.5834 12.0416 46.2617C12.0416 46.0258 11.9272 45.8828 11.5626 45.7899L10.9478 45.6469C10.3258 45.4968 10.0327 45.1894 10.0327 44.6746C10.0327 44.0312 10.576 43.6237 11.3481 43.6237C12.1131 43.6237 12.6135 44.0526 12.6278 44.7175H11.9844C11.9701 44.3672 11.7342 44.1456 11.3267 44.1456C10.9049 44.1456 10.669 44.3315 10.669 44.6532C10.669 44.8891 10.8405 45.0464 11.1837 45.1322L11.7985 45.2823C12.3919 45.4253 12.685 45.697 12.685 46.2188C12.685 46.8837 12.1131 47.3055 11.2838 47.3055C10.4616 47.3055 9.93975 46.8694 9.93975 46.2045ZM13.9736 47.2197H13.3016V41.9579H13.9736V45.3681L15.525 43.7238H16.3686L15.0317 45.1179L16.3614 47.2197H15.5893L14.567 45.604L13.9736 46.226V47.2197ZM19.4016 42.0509V46.5692H21.6751V47.2197H18.701V42.0509H19.4016ZM23.6175 47.3055C22.588 47.3055 21.8802 46.562 21.8802 45.4753C21.8802 44.3815 22.5737 43.6237 23.5889 43.6237C24.5826 43.6237 25.2332 44.31 25.2332 45.3466V45.5969L22.5308 45.604C22.5808 46.3404 22.9669 46.7479 23.6318 46.7479C24.1537 46.7479 24.4968 46.5334 24.6112 46.1331H25.2403C25.0688 46.8837 24.4825 47.3055 23.6175 47.3055ZM23.5889 44.1885C23.0026 44.1885 22.6309 44.5388 22.5451 45.1536H24.5612C24.5612 44.5745 24.1823 44.1885 23.5889 44.1885ZM26.7016 47.2197L25.2932 43.7238H26.0081L26.773 45.6755C26.8946 46.0044 26.9947 46.2975 27.0519 46.512C27.1091 46.2832 27.2234 45.9829 27.345 45.6755L28.1242 43.7238H28.8249L27.3664 47.2197H26.7016ZM30.5645 47.3055C29.535 47.3055 28.8272 46.562 28.8272 45.4753C28.8272 44.3815 29.5207 43.6237 30.5359 43.6237C31.5296 43.6237 32.1802 44.31 32.1802 45.3466V45.5969L29.4778 45.604C29.5278 46.3404 29.9139 46.7479 30.5788 46.7479C31.1006 46.7479 31.4438 46.5334 31.5582 46.1331H32.1873C32.0157 46.8837 31.4295 47.3055 30.5645 47.3055ZM30.5359 44.1885C29.9496 44.1885 29.5779 44.5388 29.4921 45.1536H31.5081C31.5081 44.5745 31.1292 44.1885 30.5359 44.1885ZM33.4741 47.2197H32.8021V41.9579H33.4741V47.2197Z" fill="white"/>
<path d="M3.7002 61.4754C3.7002 58.6155 3.7002 57.1855 4.25678 56.0932C4.74636 55.1323 5.52756 54.3511 6.48842 53.8615C7.58078 53.3049 9.01075 53.3049 11.8707 53.3049H174.609C177.469 53.3049 178.899 53.3049 179.991 53.8615C180.952 54.3511 181.733 55.1323 182.223 56.0932C182.779 57.1855 182.779 58.6155 182.779 61.4754V66.3476C182.779 69.2075 182.779 70.6375 182.223 71.7298C181.733 72.6907 180.952 73.4719 179.991 73.9615C178.899 74.518 177.469 74.518 174.609 74.518H11.8707C9.01074 74.518 7.58078 74.518 6.48842 73.9615C5.52756 73.4719 4.74636 72.6907 4.25678 71.7298C3.7002 70.6375 3.7002 69.2075 3.7002 66.3476V61.4754Z" fill="#101010"/>
<path d="M11.8711 53.5598H174.608C176.043 53.5598 177.104 53.5606 177.942 53.6292C178.778 53.6974 179.371 53.8323 179.875 54.0891C180.788 54.5542 181.53 55.2964 181.995 56.2092C182.252 56.7133 182.387 57.3064 182.455 58.1418C182.524 58.9806 182.523 60.0416 182.523 61.4758V66.3479C182.523 67.7819 182.524 68.8423 182.455 69.6809C182.387 70.5164 182.252 71.1094 181.995 71.6135C181.53 72.5263 180.788 73.2685 179.875 73.7336C179.371 73.9905 178.778 74.1253 177.942 74.1936C177.104 74.2621 176.043 74.2629 174.608 74.2629H11.8711C10.4369 74.2629 9.37583 74.2621 8.53711 74.1936C7.70159 74.1253 7.10859 73.9905 6.60449 73.7336C5.69168 73.2685 4.94948 72.5263 4.48438 71.6135C4.22758 71.1094 4.09269 70.5164 4.02441 69.6809C3.95589 68.8423 3.95508 67.7819 3.95508 66.3479V61.4758C3.95508 60.0416 3.95589 58.9806 4.02441 58.1418C4.0927 57.3064 4.22755 56.7133 4.48438 56.2092C4.94948 55.2964 5.69168 54.5542 6.60449 54.0891C7.10858 53.8323 7.70163 53.6974 8.53711 53.6292C9.37583 53.5606 10.4369 53.5598 11.8711 53.5598Z" stroke="white" stroke-opacity="0.02" stroke-width="0.510656"/>
<path d="M9.92191 60.9809V64.8537H11.8706V65.4114H9.32138V60.9809H9.92191ZM12.1322 63.91C12.1322 62.9847 12.794 62.3352 13.6948 62.3352C14.5895 62.3352 15.2513 62.9847 15.2513 63.91C15.2513 64.8354 14.5895 65.4849 13.6948 65.4849C12.794 65.4849 12.1322 64.8354 12.1322 63.91ZM12.7144 63.91C12.7144 64.5351 13.1127 64.9702 13.6948 64.9702C14.2708 64.9702 14.6753 64.5351 14.6753 63.91C14.6753 63.285 14.2708 62.8499 13.6948 62.8499C13.1127 62.8499 12.7144 63.285 12.7144 63.91ZM16.3579 65.4114L15.3775 62.4148H15.9719L16.4682 63.9713C16.5357 64.1919 16.5969 64.4187 16.6521 64.6822C16.7011 64.4187 16.7808 64.1674 16.8482 63.9713L17.3507 62.4148H17.9389L18.4353 63.9713C18.4843 64.1184 18.5824 64.4677 18.6314 64.6822C18.6804 64.4432 18.7356 64.2348 18.8213 63.9713L19.3238 62.4148H19.9244L18.901 65.4114H18.3556L17.8348 63.8059C17.7367 63.5056 17.6754 63.2728 17.6448 63.1073C17.6142 63.2544 17.559 63.4505 17.4487 63.812L16.9278 65.4114H16.3579ZM22.7188 65.4114H22.1182V60.9809H23.7911C24.741 60.9809 25.3047 61.4834 25.3047 62.3107C25.3047 62.9235 24.9983 63.3647 24.4468 63.5424L25.3476 65.4114H24.6797L23.8524 63.6588H22.7188V65.4114ZM22.7188 61.5202V63.1257H23.7973C24.3549 63.1257 24.6736 62.8254 24.6736 62.3168C24.6736 61.8021 24.3427 61.5202 23.7911 61.5202H22.7188ZM26.2747 61.704C26.0664 61.704 25.8948 61.5324 25.8948 61.3241C25.8948 61.1096 26.0664 60.9442 26.2747 60.9442C26.4831 60.9442 26.6547 61.1096 26.6547 61.3241C26.6547 61.5324 26.4831 61.704 26.2747 61.704ZM25.9929 65.4114V62.4148H26.5689V65.4114H25.9929ZM27.1233 64.5412H27.6748C27.6748 64.8476 27.9076 65.0314 28.2876 65.0314C28.692 65.0314 28.9249 64.866 28.9249 64.5902C28.9249 64.388 28.8268 64.2655 28.5143 64.1858L27.9873 64.0632C27.4542 63.9346 27.2029 63.6711 27.2029 63.2299C27.2029 62.6783 27.6686 62.3291 28.3305 62.3291C28.9861 62.3291 29.4151 62.6967 29.4273 63.2666H28.8758C28.8636 62.9664 28.6614 62.7764 28.3121 62.7764C27.9505 62.7764 27.7483 62.9357 27.7483 63.2115C27.7483 63.4137 27.8954 63.5485 28.1895 63.622L28.7165 63.7507C29.2251 63.8733 29.4764 64.1061 29.4764 64.5535C29.4764 65.1234 28.9861 65.4849 28.2753 65.4849C27.5706 65.4849 27.1233 65.1111 27.1233 64.5412ZM30.6667 65.4114H30.0906V60.9013H30.6667V63.8243L31.9964 62.4148H32.7195L31.5736 63.6098L32.7134 65.4114H32.0516L31.1753 64.0265L30.6667 64.5596V65.4114Z" fill="white"/>
<path d="M162.183 63.4114C162.183 61.1552 164.012 59.3262 166.268 59.3262H172.396C174.652 59.3262 176.481 61.1552 176.481 63.4114C176.481 65.6676 174.652 67.4967 172.396 67.4967H166.268C164.012 67.4967 162.183 65.6676 162.183 63.4114Z" fill="url(#paint0_linear_705_16907)" fill-opacity="0.3"/>
<g filter="url(#filter0_dd_705_16907)">
<circle cx="166.439" cy="63.518" r="3.06393" fill="white"/>
</g>
<circle cx="166.438" cy="63.5179" r="1.02131" fill="#0F1525" fill-opacity="0.3"/>
<path d="M3.7002 84.731C3.7002 81.8711 3.7002 80.4411 4.25678 79.3488C4.74636 78.3879 5.52756 77.6067 6.48842 77.1171C7.58078 76.5605 9.01075 76.5605 11.8707 76.5605H174.609C177.469 76.5605 178.899 76.5605 179.991 77.1171C180.952 77.6067 181.733 78.3879 182.223 79.3488C182.779 80.4411 182.779 81.8711 182.779 84.731V89.6032C182.779 92.4631 182.779 93.8931 182.223 94.9854C181.733 95.9463 180.952 96.7275 179.991 97.2171C178.899 97.7737 177.469 97.7737 174.609 97.7737H11.8707C9.01074 97.7737 7.58078 97.7737 6.48842 97.2171C5.52756 96.7275 4.74636 95.9463 4.25678 94.9854C3.7002 93.8931 3.7002 92.4631 3.7002 89.6032V84.731Z" fill="#101010"/>
<path d="M11.8711 76.8154H174.608C176.043 76.8154 177.104 76.8162 177.942 76.8848C178.778 76.9531 179.371 77.0879 179.875 77.3447C180.788 77.8098 181.53 78.552 181.995 79.4648C182.252 79.9689 182.387 80.562 182.455 81.3975C182.524 82.2362 182.523 83.2973 182.523 84.7314V89.6035C182.523 91.0375 182.524 92.0979 182.455 92.9365C182.387 93.772 182.252 94.3651 181.995 94.8691C181.53 95.7819 180.788 96.5242 179.875 96.9893C179.371 97.2461 178.778 97.3809 177.942 97.4492C177.104 97.5177 176.043 97.5186 174.608 97.5186H11.8711C10.4369 97.5186 9.37583 97.5177 8.53711 97.4492C7.70159 97.3809 7.10859 97.2461 6.60449 96.9893C5.69168 96.5242 4.94948 95.782 4.48438 94.8691C4.22758 94.365 4.09269 93.772 4.02441 92.9365C3.95589 92.0979 3.95508 91.0375 3.95508 89.6035V84.7314C3.95508 83.2973 3.95589 82.2362 4.02441 81.3975C4.0927 80.562 4.22755 79.9689 4.48438 79.4648C4.94948 78.552 5.69168 77.8098 6.60449 77.3447C7.10858 77.0879 7.70163 76.9531 8.53711 76.8848C9.37583 76.8162 10.4369 76.8154 11.8711 76.8154Z" stroke="white" stroke-opacity="0.02" stroke-width="0.510656"/>
<path d="M9.90966 88.667H9.32138V84.2365H9.90966L11.4355 87.9623L12.9613 84.2365H13.5619V88.667H12.9736V86.9144C12.9736 86.0872 12.9797 85.7869 13.0104 85.4744L11.7174 88.667H11.1536L9.86676 85.4866C9.8974 85.7011 9.90966 86.1546 9.90966 86.7735V88.667ZM14.7406 84.9596C14.5322 84.9596 14.3606 84.7881 14.3606 84.5797C14.3606 84.3652 14.5322 84.1998 14.7406 84.1998C14.9489 84.1998 15.1205 84.3652 15.1205 84.5797C15.1205 84.7881 14.9489 84.9596 14.7406 84.9596ZM14.4587 88.667V85.6705H15.0347V88.667H14.4587ZM17.0353 88.7405C16.1651 88.7405 15.6381 88.091 15.6381 87.1779C15.6381 86.2587 16.1712 85.5847 17.0598 85.5847C17.5194 85.5847 17.9054 85.7869 18.1076 86.1546V84.1569H18.6775V88.667H18.1628L18.1138 88.1216C17.9177 88.5322 17.5132 88.7405 17.0353 88.7405ZM17.1517 88.2197C17.74 88.2197 18.1015 87.7846 18.1015 87.1595C18.1015 86.5468 17.74 86.1055 17.1517 86.1055C16.5634 86.1055 16.2203 86.5468 16.2203 87.1595C16.2203 87.7785 16.5634 88.2197 17.1517 88.2197ZM21.8092 88.667H21.2086V84.2365H22.8815C23.8314 84.2365 24.3951 84.739 24.3951 85.5663C24.3951 86.1791 24.0887 86.6203 23.5372 86.798L24.438 88.667H23.7701L22.9428 86.9144H21.8092V88.667ZM21.8092 84.7758V86.3813H22.8877C23.4453 86.3813 23.764 86.081 23.764 85.5724C23.764 85.0577 23.433 84.7758 22.8815 84.7758H21.8092ZM25.3651 84.9596C25.1568 84.9596 24.9852 84.7881 24.9852 84.5797C24.9852 84.3652 25.1568 84.1998 25.3651 84.1998C25.5735 84.1998 25.7451 84.3652 25.7451 84.5797C25.7451 84.7881 25.5735 84.9596 25.3651 84.9596ZM25.0833 88.667V85.6705H25.6593V88.667H25.0833ZM26.2137 87.7968H26.7652C26.7652 88.1032 26.998 88.2871 27.378 88.2871C27.7824 88.2871 28.0153 88.1216 28.0153 87.8459C28.0153 87.6436 27.9172 87.5211 27.6047 87.4414L27.0777 87.3189C26.5446 87.1902 26.2933 86.9267 26.2933 86.4855C26.2933 85.934 26.759 85.5847 27.4209 85.5847C28.0765 85.5847 28.5055 85.9523 28.5177 86.5222H27.9662C27.954 86.222 27.7518 86.032 27.4025 86.032C27.0409 86.032 26.8387 86.1913 26.8387 86.4671C26.8387 86.6693 26.9858 86.8041 27.2799 86.8777L27.8069 87.0063C28.3155 87.1289 28.5668 87.3618 28.5668 87.8091C28.5668 88.379 28.0765 88.7405 27.3657 88.7405C26.661 88.7405 26.2137 88.3667 26.2137 87.7968ZM29.7571 88.667H29.181V84.1569H29.7571V87.0799L31.0868 85.6705H31.8099L30.664 86.8654L31.8038 88.667H31.142L30.2657 87.2821L29.7571 87.8152V88.667Z" fill="white"/>
<path d="M162.183 86.667C162.183 84.4108 164.012 82.5818 166.268 82.5818H172.396C174.652 82.5818 176.481 84.4108 176.481 86.667C176.481 88.9232 174.652 90.7523 172.396 90.7523H166.268C164.012 90.7523 162.183 88.9232 162.183 86.667Z" fill="url(#paint1_linear_705_16907)"/>
<g filter="url(#filter1_dd_705_16907)">
<circle cx="172.567" cy="86.7737" r="3.06393" fill="white"/>
</g>
<circle cx="172.566" cy="86.7735" r="1.02131" fill="url(#paint2_linear_705_16907)"/>
<path d="M3.7002 107.987C3.7002 105.127 3.7002 103.697 4.25678 102.605C4.74636 101.644 5.52756 100.863 6.48842 100.373C7.58078 99.8164 9.01075 99.8164 11.8707 99.8164H174.609C177.469 99.8164 178.899 99.8164 179.991 100.373C180.952 100.863 181.733 101.644 182.223 102.605C182.779 103.697 182.779 105.127 182.779 107.987V112.859C182.779 115.719 182.779 117.149 182.223 118.241C181.733 119.202 180.952 119.983 179.991 120.473C178.899 121.03 177.469 121.03 174.609 121.03H11.8707C9.01074 121.03 7.58078 121.03 6.48842 120.473C5.52756 119.983 4.74636 119.202 4.25678 118.241C3.7002 117.149 3.7002 115.719 3.7002 112.859V107.987Z" fill="#101010"/>
<path d="M11.8711 100.071H174.608C176.043 100.071 177.104 100.072 177.942 100.141C178.778 100.209 179.371 100.344 179.875 100.601C180.788 101.066 181.53 101.808 181.995 102.721C182.252 103.225 182.387 103.818 182.455 104.653C182.524 105.492 182.523 106.553 182.523 107.987V112.859C182.523 114.293 182.524 115.354 182.455 116.192C182.387 117.028 182.252 117.621 181.995 118.125C181.53 119.038 180.788 119.78 179.875 120.245C179.371 120.502 178.778 120.637 177.942 120.705C177.104 120.774 176.043 120.774 174.608 120.774H11.8711C10.4369 120.774 9.37583 120.774 8.53711 120.705C7.70159 120.637 7.10859 120.502 6.60449 120.245C5.69168 119.78 4.94948 119.038 4.48438 118.125C4.22758 117.621 4.09269 117.028 4.02441 116.192C3.95589 115.354 3.95508 114.293 3.95508 112.859V107.987C3.95508 106.553 3.95589 105.492 4.02441 104.653C4.0927 103.818 4.22755 103.225 4.48438 102.721C4.94948 101.808 5.69168 101.066 6.60449 100.601C7.10858 100.344 7.70163 100.209 8.53711 100.141C9.37583 100.072 10.4369 100.071 11.8711 100.071Z" stroke="white" stroke-opacity="0.02" stroke-width="0.510656"/>
<path d="M9.92191 111.923H9.32138V107.492H9.92191V109.398H12.1157V107.492H12.7162V111.923H12.1157V109.956H9.92191V111.923ZM13.8908 108.215C13.6825 108.215 13.5109 108.044 13.5109 107.836C13.5109 107.621 13.6825 107.456 13.8908 107.456C14.0992 107.456 14.2707 107.621 14.2707 107.836C14.2707 108.044 14.0992 108.215 13.8908 108.215ZM13.6089 111.923V108.926H14.1849V111.923H13.6089ZM14.7945 110.348C14.7945 109.502 15.3399 108.841 16.21 108.841C16.6941 108.841 17.0679 109.061 17.2579 109.435L17.3008 108.926H17.8155V111.8C17.8155 112.744 17.2334 113.345 16.3142 113.345C15.4992 113.345 14.9415 112.885 14.8312 112.125H15.4073C15.4808 112.566 15.8117 112.824 16.3142 112.824C16.878 112.824 17.2456 112.456 17.2456 111.886V111.286C17.0495 111.635 16.6573 111.843 16.1855 111.843C15.3337 111.843 14.7945 111.188 14.7945 110.348ZM15.3705 110.336C15.3705 110.899 15.7198 111.341 16.2835 111.341C16.8657 111.341 17.2211 110.924 17.2211 110.336C17.2211 109.76 16.878 109.343 16.2897 109.343C15.7137 109.343 15.3705 109.784 15.3705 110.336ZM19.1861 111.917H18.61V107.413H19.1861V109.386C19.376 109.061 19.7376 108.841 20.2033 108.841C20.9693 108.841 21.3369 109.325 21.3369 110.091V111.923H20.7609V110.219C20.7609 109.613 20.4729 109.368 20.044 109.368C19.4863 109.368 19.1861 109.772 19.1861 110.287V111.917ZM24.4354 111.923H23.8349V107.492H25.5078C26.4576 107.492 27.0213 107.995 27.0213 108.822C27.0213 109.435 26.7149 109.876 26.1634 110.054L27.0642 111.923H26.3963L25.569 110.17H24.4354V111.923ZM24.4354 108.032V109.637H25.5139C26.0715 109.637 26.3902 109.337 26.3902 108.828C26.3902 108.314 26.0593 108.032 25.5078 108.032H24.4354ZM27.9914 108.215C27.783 108.215 27.6114 108.044 27.6114 107.836C27.6114 107.621 27.783 107.456 27.9914 107.456C28.1997 107.456 28.3713 107.621 28.3713 107.836C28.3713 108.044 28.1997 108.215 27.9914 108.215ZM27.7095 111.923V108.926H28.2855V111.923H27.7095ZM28.8399 111.053H29.3914C29.3914 111.359 29.6242 111.543 30.0042 111.543C30.4086 111.543 30.6415 111.377 30.6415 111.102C30.6415 110.899 30.5434 110.777 30.2309 110.697L29.7039 110.575C29.1708 110.446 28.9195 110.183 28.9195 109.741C28.9195 109.19 29.3853 108.841 30.0471 108.841C30.7028 108.841 31.1317 109.208 31.144 109.778H30.5925C30.5802 109.478 30.378 109.288 30.0287 109.288C29.6671 109.288 29.4649 109.447 29.4649 109.723C29.4649 109.925 29.612 110.06 29.9061 110.134L30.4331 110.262C30.9417 110.385 31.193 110.618 31.193 111.065C31.193 111.635 30.7028 111.996 29.9919 111.996C29.2872 111.996 28.8399 111.623 28.8399 111.053ZM32.3833 111.923H31.8073V107.413H32.3833V110.336L33.713 108.926H34.4361L33.2902 110.121L34.43 111.923H33.7682L32.8919 110.538L32.3833 111.071V111.923Z" fill="white"/>
<path d="M162.183 109.923C162.183 107.667 164.012 105.838 166.268 105.838H172.396C174.652 105.838 176.481 107.667 176.481 109.923C176.481 112.179 174.652 114.008 172.396 114.008H166.268C164.012 114.008 162.183 112.179 162.183 109.923Z" fill="url(#paint3_linear_705_16907)" fill-opacity="0.3"/>
<g filter="url(#filter2_dd_705_16907)">
<circle cx="166.439" cy="110.03" r="3.06393" fill="white"/>
</g>
<circle cx="166.438" cy="110.029" r="1.02131" fill="#0F1525" fill-opacity="0.3"/>
<path d="M146.52 24.8343C146.52 22.4769 146.52 21.2982 146.978 20.3978C147.382 19.6058 148.026 18.9619 148.818 18.5584C149.718 18.0996 150.897 18.0996 153.254 18.0996H251.328C253.685 18.0996 254.864 18.0996 255.764 18.5584C256.556 18.9619 257.2 19.6058 257.603 20.3978C258.062 21.2982 258.062 22.4769 258.062 24.8343V39.1454C258.062 41.5027 258.062 42.6814 257.603 43.5818C257.2 44.3738 256.556 45.0177 255.764 45.4213C254.864 45.88 253.685 45.88 251.328 45.88H153.254C150.897 45.88 149.718 45.88 148.818 45.4213C148.026 45.0177 147.382 44.3738 146.978 43.5818C146.52 42.6814 146.52 41.5027 146.52 39.1454V24.8343Z" fill="#101010"/>
<path d="M153.254 18.3105H251.327C252.509 18.3105 253.384 18.3107 254.075 18.3672C254.764 18.4235 255.253 18.5345 255.668 18.7461C256.42 19.1294 257.033 19.7408 257.416 20.4932C257.628 20.9087 257.739 21.398 257.795 22.0869C257.851 22.7782 257.852 23.652 257.852 24.834V39.1455C257.852 40.3275 257.851 41.2013 257.795 41.8926C257.739 42.5814 257.628 43.0707 257.416 43.4863C257.033 44.2387 256.42 44.85 255.668 45.2334C255.252 45.4451 254.764 45.557 254.075 45.6133C253.384 45.6698 252.509 45.6699 251.327 45.6699H153.254C152.072 45.6699 151.198 45.6698 150.507 45.6133C149.818 45.557 149.329 45.4451 148.913 45.2334C148.161 44.85 147.549 44.2386 147.166 43.4863C146.954 43.0707 146.843 42.5814 146.787 41.8926C146.731 41.2013 146.73 40.3275 146.73 39.1455V24.834C146.73 23.652 146.731 22.7782 146.787 22.0869C146.843 21.398 146.954 20.9087 147.166 20.4932C147.549 19.741 148.161 19.1294 148.913 18.7461C149.329 18.5343 149.818 18.4235 150.507 18.3672C151.198 18.3107 152.072 18.3105 153.254 18.3105Z" stroke="white" stroke-opacity="0.02" stroke-width="0.420916"/>
<path d="M153.321 28.0178H152.836V24.366H153.321L154.579 27.437L155.837 24.366H156.332V28.0178H155.847V26.5732C155.847 25.8914 155.852 25.6439 155.877 25.3863L154.811 28.0178H154.347L153.286 25.3964C153.311 25.5731 153.321 25.9469 153.321 26.4571V28.0178ZM157.793 28.0784C157.263 28.0784 156.95 27.7804 156.95 27.3309C156.95 26.8763 157.288 26.5934 157.869 26.548L158.647 26.4874V26.4167C158.647 26.0025 158.399 25.856 158.066 25.856C157.667 25.856 157.44 26.0328 157.44 26.3308H157.025C157.025 25.8156 157.45 25.4772 158.086 25.4772C158.697 25.4772 159.111 25.8004 159.111 26.4672V28.0178H158.707L158.657 27.6188C158.531 27.9016 158.192 28.0784 157.793 28.0784ZM157.93 27.7097C158.379 27.7097 158.652 27.4168 158.652 26.9521V26.8207L158.02 26.8712C157.601 26.9117 157.43 27.0733 157.43 27.3157C157.43 27.5784 157.621 27.7097 157.93 27.7097ZM159.991 28.0178H159.446L160.309 26.7955L159.451 25.5479H160.001L160.628 26.4672L161.239 25.5479H161.779L160.921 26.7955L161.764 28.0178H161.214L160.597 27.1137L159.991 28.0178ZM162.377 24.962C162.206 24.962 162.064 24.8205 162.064 24.6488C162.064 24.472 162.206 24.3357 162.377 24.3357C162.549 24.3357 162.691 24.472 162.691 24.6488C162.691 24.8205 162.549 24.962 162.377 24.962ZM162.145 28.0178V25.5479H162.62V28.0178H162.145ZM163.754 28.0178H163.279V25.5479H163.703L163.749 25.8712C163.875 25.6388 164.138 25.4772 164.486 25.4772C164.87 25.4772 165.143 25.6691 165.269 25.9772C165.385 25.6691 165.683 25.4772 166.067 25.4772C166.633 25.4772 166.976 25.8307 166.976 26.4015V28.0178H166.512V26.5177C166.512 26.1288 166.294 25.9065 165.961 25.9065C165.602 25.9065 165.365 26.1591 165.365 26.553V28.0178H164.895V26.5126C164.895 26.1237 164.683 25.9116 164.35 25.9116C163.991 25.9116 163.754 26.1591 163.754 26.553V28.0178ZM169.311 25.5479H169.781V28.0178H169.357L169.306 27.644C169.165 27.9016 168.837 28.0784 168.473 28.0784C167.897 28.0784 167.574 27.6895 167.574 27.0834V25.5479H168.049V26.9268C168.049 27.4572 168.276 27.6592 168.64 27.6592C169.074 27.6592 169.311 27.3814 169.311 26.851V25.5479ZM170.914 28.0178H170.44V25.5479H170.864L170.909 25.8712C171.036 25.6388 171.298 25.4772 171.647 25.4772C172.031 25.4772 172.303 25.6691 172.43 25.9772C172.546 25.6691 172.844 25.4772 173.228 25.4772C173.793 25.4772 174.137 25.8307 174.137 26.4015V28.0178H173.672V26.5177C173.672 26.1288 173.455 25.9065 173.122 25.9065C172.763 25.9065 172.526 26.1591 172.526 26.553V28.0178H172.056V26.5126C172.056 26.1237 171.844 25.9116 171.51 25.9116C171.152 25.9116 170.914 26.1591 170.914 26.553V28.0178ZM176.691 24.366V27.5582H178.298V28.0178H176.196V24.366H176.691ZM178.513 26.7803C178.513 26.0176 179.059 25.4822 179.801 25.4822C180.539 25.4822 181.084 26.0176 181.084 26.7803C181.084 27.543 180.539 28.0784 179.801 28.0784C179.059 28.0784 178.513 27.543 178.513 26.7803ZM178.993 26.7803C178.993 27.2955 179.321 27.6542 179.801 27.6542C180.276 27.6542 180.609 27.2955 180.609 26.7803C180.609 26.2651 180.276 25.9065 179.801 25.9065C179.321 25.9065 178.993 26.2651 178.993 26.7803ZM181.378 27.3006H181.832C181.832 27.5531 182.024 27.7047 182.337 27.7047C182.671 27.7047 182.863 27.5683 182.863 27.341C182.863 27.1743 182.782 27.0733 182.524 27.0076L182.09 26.9066C181.65 26.8005 181.443 26.5833 181.443 26.2197C181.443 25.7651 181.827 25.4772 182.373 25.4772C182.913 25.4772 183.267 25.7802 183.277 26.25H182.822C182.812 26.0025 182.645 25.8459 182.357 25.8459C182.059 25.8459 181.893 25.9772 181.893 26.2045C181.893 26.3712 182.014 26.4823 182.256 26.5429L182.691 26.649C183.11 26.75 183.317 26.942 183.317 27.3107C183.317 27.7804 182.913 28.0784 182.327 28.0784C181.746 28.0784 181.378 27.7703 181.378 27.3006ZM183.611 27.3006H184.066C184.066 27.5531 184.258 27.7047 184.571 27.7047C184.904 27.7047 185.096 27.5683 185.096 27.341C185.096 27.1743 185.015 27.0733 184.758 27.0076L184.323 26.9066C183.884 26.8005 183.677 26.5833 183.677 26.2197C183.677 25.7651 184.061 25.4772 184.606 25.4772C185.147 25.4772 185.5 25.7802 185.51 26.25H185.056C185.046 26.0025 184.879 25.8459 184.591 25.8459C184.293 25.8459 184.126 25.9772 184.126 26.2045C184.126 26.3712 184.248 26.4823 184.49 26.5429L184.925 26.649C185.344 26.75 185.551 26.942 185.551 27.3107C185.551 27.7804 185.147 28.0784 184.561 28.0784C183.98 28.0784 183.611 27.7703 183.611 27.3006Z" fill="white"/>
<path d="M154.143 41.1965V40.6173C153.254 40.5634 152.668 40.0583 152.628 39.2704H153.301C153.315 39.7014 153.631 39.9842 154.143 40.0381V38.3612L153.9 38.3073C153.106 38.1255 152.695 37.681 152.695 36.9873C152.695 36.2196 153.267 35.6741 154.143 35.6V35.0141H154.574V35.5932C155.389 35.6673 155.907 36.1657 155.955 36.9469H155.301C155.274 36.5159 155.012 36.2398 154.574 36.1792V37.8494L154.837 37.91C155.645 38.0918 156.035 38.5161 156.035 39.1895C156.035 39.991 155.463 40.5297 154.574 40.6106V41.1965H154.143ZM154.035 37.7214L154.143 37.7483V36.1792C153.645 36.2465 153.341 36.5361 153.341 36.9671C153.341 37.3577 153.564 37.6069 154.035 37.7214ZM154.702 38.4959L154.574 38.4689V40.0246C155.079 39.9573 155.389 39.6677 155.389 39.2434C155.389 38.8528 155.167 38.6036 154.702 38.4959ZM159.855 40.5365L156.568 40.5432V40.0381L158.138 38.6844C158.926 38.0042 159.148 37.6743 159.148 37.1557C159.148 36.5428 158.798 36.1792 158.212 36.1792C157.612 36.1792 157.222 36.6169 157.208 37.3106H156.548C156.568 36.2667 157.228 35.5865 158.218 35.5865C159.195 35.5865 159.821 36.1792 159.821 37.1153C159.821 37.8089 159.478 38.3006 158.616 39.0481L157.606 39.9236H159.855V40.5365ZM161.559 40.2806C161.559 40.7655 161.195 41.1695 160.717 41.2301V40.9473C160.993 40.9001 161.188 40.7183 161.188 40.5095C161.141 40.5365 161.087 40.5499 161.006 40.5499C160.784 40.5499 160.596 40.3883 160.596 40.1391C160.596 39.8697 160.777 39.6744 161.047 39.6744C161.33 39.6744 161.559 39.9102 161.559 40.2806ZM162.026 38.112C162.026 36.6034 162.807 35.5798 164.033 35.5798C165.252 35.5798 166.033 36.6034 166.033 38.112C166.033 39.6273 165.285 40.6308 164.033 40.6308C162.773 40.6308 162.026 39.6273 162.026 38.112ZM162.679 38.112C162.679 39.3108 163.177 40.0381 164.033 40.0381C164.888 40.0381 165.38 39.3108 165.38 38.112C165.38 36.8998 164.888 36.1724 164.033 36.1724C163.177 36.1724 162.679 36.8998 162.679 38.112ZM166.655 38.112C166.655 36.6034 167.436 35.5798 168.662 35.5798C169.881 35.5798 170.662 36.6034 170.662 38.112C170.662 39.6273 169.914 40.6308 168.662 40.6308C167.402 40.6308 166.655 39.6273 166.655 38.112ZM167.308 38.112C167.308 39.3108 167.806 40.0381 168.662 40.0381C169.517 40.0381 170.009 39.3108 170.009 38.112C170.009 36.8998 169.517 36.1724 168.662 36.1724C167.806 36.1724 167.308 36.8998 167.308 38.112ZM171.284 38.112C171.284 36.6034 172.065 35.5798 173.291 35.5798C174.51 35.5798 175.291 36.6034 175.291 38.112C175.291 39.6273 174.544 40.6308 173.291 40.6308C172.032 40.6308 171.284 39.6273 171.284 38.112ZM171.937 38.112C171.937 39.3108 172.436 40.0381 173.291 40.0381C174.146 40.0381 174.638 39.3108 174.638 38.112C174.638 36.8998 174.146 36.1724 173.291 36.1724C172.436 36.1724 171.937 36.8998 171.937 38.112ZM176.236 40.624C175.974 40.624 175.751 40.4085 175.751 40.1526C175.751 39.89 175.974 39.6744 176.236 39.6744C176.492 39.6744 176.714 39.89 176.714 40.1526C176.714 40.4085 176.492 40.624 176.236 40.624ZM177.181 38.112C177.181 36.6034 177.963 35.5798 179.188 35.5798C180.407 35.5798 181.189 36.6034 181.189 38.112C181.189 39.6273 180.441 40.6308 179.188 40.6308C177.929 40.6308 177.181 39.6273 177.181 38.112ZM177.835 38.112C177.835 39.3108 178.333 40.0381 179.188 40.0381C180.044 40.0381 180.535 39.3108 180.535 38.112C180.535 36.8998 180.044 36.1724 179.188 36.1724C178.333 36.1724 177.835 36.8998 177.835 38.112ZM181.811 38.112C181.811 36.6034 182.592 35.5798 183.818 35.5798C185.036 35.5798 185.818 36.6034 185.818 38.112C185.818 39.6273 185.07 40.6308 183.818 40.6308C182.558 40.6308 181.811 39.6273 181.811 38.112ZM182.464 38.112C182.464 39.3108 182.962 40.0381 183.818 40.0381C184.673 40.0381 185.164 39.3108 185.164 38.112C185.164 36.8998 184.673 36.1724 183.818 36.1724C182.962 36.1724 182.464 36.8998 182.464 38.112Z" fill="#EA4335"/>
<path d="M201.238 6.73465C201.238 4.3773 201.238 3.19863 201.697 2.29824C202.101 1.50624 202.745 0.862317 203.537 0.458771C204.437 0 205.616 0 207.973 0H306.046C308.404 0 309.582 0 310.483 0.458771C311.275 0.862317 311.919 1.50624 312.322 2.29824C312.781 3.19863 312.781 4.3773 312.781 6.73465V21.0458C312.781 23.4031 312.781 24.5818 312.322 25.4822C311.919 26.2742 311.275 26.9181 310.483 27.3217C309.582 27.7804 308.404 27.7804 306.046 27.7804H207.973C205.616 27.7804 204.437 27.7804 203.537 27.3217C202.745 26.9181 202.101 26.2742 201.697 25.4822C201.238 24.5818 201.238 23.4031 201.238 21.0458V6.73465Z" fill="#101010"/>
<path d="M207.973 0.210938H306.046C307.228 0.210938 308.103 0.211094 308.794 0.267578C309.483 0.323857 309.971 0.434848 310.387 0.646484C311.139 1.02983 311.751 1.64121 312.135 2.39355C312.347 2.80914 312.457 3.29843 312.514 3.9873C312.57 4.67857 312.57 5.55241 312.57 6.73438V21.0459C312.57 22.2279 312.57 23.1017 312.514 23.793C312.457 24.4818 312.347 24.9711 312.135 25.3867C311.751 26.1391 311.139 26.7504 310.387 27.1338C309.971 27.3455 309.483 27.4574 308.794 27.5137C308.103 27.5702 307.228 27.5703 306.046 27.5703H207.973C206.791 27.5703 205.917 27.5701 205.226 27.5137C204.537 27.4574 204.047 27.3455 203.632 27.1338C202.88 26.7504 202.268 26.139 201.885 25.3867C201.673 24.9711 201.562 24.4818 201.506 23.793C201.449 23.1017 201.449 22.2279 201.449 21.0459V6.73438C201.449 5.55239 201.449 4.67857 201.506 3.9873C201.562 3.29843 201.673 2.80914 201.885 2.39355C202.268 1.64136 202.88 1.02982 203.632 0.646484C204.047 0.434736 204.537 0.323861 205.226 0.267578C205.917 0.211102 206.791 0.210938 207.973 0.210938Z" stroke="white" stroke-opacity="0.02" stroke-width="0.420916"/>
<path d="M208.974 8.61506H208.05V9.91821H207.555V6.26635H208.974C209.692 6.26635 210.151 6.73609 210.151 7.43818C210.151 8.12006 209.687 8.61506 208.974 8.61506ZM208.889 6.71084H208.05V8.17057H208.868C209.358 8.17057 209.631 7.88266 209.631 7.43313C209.631 6.97349 209.353 6.71084 208.889 6.71084ZM212.015 7.42808V7.86246H211.803C211.353 7.86246 211.076 8.13521 211.076 8.61001V9.91821H210.601V7.45333H211.045L211.076 7.8271C211.177 7.5695 211.424 7.39777 211.763 7.39777C211.848 7.39777 211.919 7.40787 212.015 7.42808ZM212.18 8.68072C212.18 7.91802 212.725 7.38262 213.468 7.38262C214.205 7.38262 214.751 7.91802 214.751 8.68072C214.751 9.44342 214.205 9.97882 213.468 9.97882C212.725 9.97882 212.18 9.44342 212.18 8.68072ZM212.66 8.68072C212.66 9.19592 212.988 9.55454 213.468 9.55454C213.943 9.55454 214.276 9.19592 214.276 8.68072C214.276 8.16552 213.943 7.8069 213.468 7.8069C212.988 7.8069 212.66 8.16552 212.66 8.68072ZM215.918 9.91821H215.444V7.84731H214.959V7.44828H215.444V6.67548H215.918V7.44828H216.403V7.84731H215.918V9.91821ZM217.84 9.97882C217.113 9.97882 216.613 9.45352 216.613 8.68577C216.613 7.91297 217.103 7.37757 217.82 7.37757C218.522 7.37757 218.982 7.86246 218.982 8.59485V8.77164L217.072 8.77669C217.108 9.29694 217.38 9.58485 217.85 9.58485C218.219 9.58485 218.461 9.43332 218.542 9.15046H218.987C218.865 9.68082 218.451 9.97882 217.84 9.97882ZM217.82 7.77659C217.406 7.77659 217.143 8.02409 217.082 8.45848H218.507C218.507 8.04935 218.239 7.77659 217.82 7.77659ZM219.956 9.91821H219.482V7.44828H219.911L219.962 7.8271C220.118 7.54425 220.431 7.37757 220.78 7.37757C221.431 7.37757 221.729 7.77659 221.729 8.40797V9.91821H221.255V8.51404C221.255 8.01399 221.022 7.81195 220.659 7.81195C220.214 7.81195 219.956 8.13016 219.956 8.61001V9.91821ZM223.054 9.91821H222.579V7.84731H222.094V7.44828H222.579V6.67548H223.054V7.44828H223.539V7.84731H223.054V9.91821ZM224.167 6.86236C223.995 6.86236 223.854 6.72094 223.854 6.5492C223.854 6.37242 223.995 6.23604 224.167 6.23604C224.338 6.23604 224.48 6.37242 224.48 6.5492C224.48 6.72094 224.338 6.86236 224.167 6.86236ZM223.934 9.91821V7.44828H224.409V9.91821H223.934ZM224.907 8.68072C224.907 7.91802 225.452 7.38262 226.195 7.38262C226.932 7.38262 227.478 7.91802 227.478 8.68072C227.478 9.44342 226.932 9.97882 226.195 9.97882C225.452 9.97882 224.907 9.44342 224.907 8.68072ZM225.386 8.68072C225.386 9.19592 225.715 9.55454 226.195 9.55454C226.669 9.55454 227.003 9.19592 227.003 8.68072C227.003 8.16552 226.669 7.8069 226.195 7.8069C225.715 7.8069 225.386 8.16552 225.386 8.68072ZM228.448 9.91821H227.973V7.44828H228.402L228.453 7.8271C228.609 7.54425 228.922 7.37757 229.271 7.37757C229.922 7.37757 230.22 7.77659 230.22 8.40797V9.91821H229.746V8.51404C229.746 8.01399 229.513 7.81195 229.15 7.81195C228.705 7.81195 228.448 8.13016 228.448 8.61001V9.91821ZM231.57 9.97882C231.04 9.97882 230.727 9.68082 230.727 9.23128C230.727 8.77669 231.065 8.49383 231.646 8.44838L232.424 8.38776V8.31705C232.424 7.90287 232.176 7.75639 231.843 7.75639C231.444 7.75639 231.216 7.93317 231.216 8.23118H230.802C230.802 7.71598 231.227 7.37757 231.863 7.37757C232.474 7.37757 232.888 7.70083 232.888 8.36756V9.91821H232.484L232.434 9.51918C232.308 9.80204 231.969 9.97882 231.57 9.97882ZM231.706 9.6101C232.156 9.6101 232.429 9.31715 232.429 8.85245V8.72113L231.797 8.77164C231.378 8.81205 231.206 8.97368 231.206 9.21613C231.206 9.47878 231.398 9.6101 231.706 9.6101ZM234 9.91821H233.526V6.20069H234V9.91821ZM237.52 8.61506H236.596V9.91821H236.101V6.26635H237.52C238.237 6.26635 238.697 6.73609 238.697 7.43818C238.697 8.12006 238.232 8.61506 237.52 8.61506ZM237.434 6.71084H236.596V8.17057H237.414C237.904 8.17057 238.177 7.88266 238.177 7.43313C238.177 6.97349 237.899 6.71084 237.434 6.71084ZM240.561 7.42808V7.86246H240.349C239.899 7.86246 239.621 8.13521 239.621 8.61001V9.91821H239.147V7.45333H239.591L239.621 7.8271C239.722 7.5695 239.97 7.39777 240.308 7.39777C240.394 7.39777 240.465 7.40787 240.561 7.42808ZM240.725 8.68072C240.725 7.91802 241.271 7.38262 242.013 7.38262C242.751 7.38262 243.296 7.91802 243.296 8.68072C243.296 9.44342 242.751 9.97882 242.013 9.97882C241.271 9.97882 240.725 9.44342 240.725 8.68072ZM241.205 8.68072C241.205 9.19592 241.534 9.55454 242.013 9.55454C242.488 9.55454 242.822 9.19592 242.822 8.68072C242.822 8.16552 242.488 7.8069 242.013 7.8069C241.534 7.8069 241.205 8.16552 241.205 8.68072ZM245.449 9.91821V7.84731H244.353V9.91821H243.878V7.84731H243.514V7.44828H243.878V7.0543C243.878 6.44818 244.206 6.20069 244.635 6.20069C244.726 6.20069 244.838 6.20574 244.928 6.22089V6.63002H244.716C244.428 6.63002 244.353 6.7866 244.353 7.0543V7.44828H245.923V9.91821H245.449ZM245.686 6.84216C245.514 6.84216 245.383 6.71084 245.383 6.5391C245.383 6.36737 245.514 6.23604 245.686 6.23604C245.853 6.23604 245.984 6.36737 245.984 6.5391C245.984 6.71084 245.853 6.84216 245.686 6.84216ZM247.265 9.91821H246.79V7.84731H246.305V7.44828H246.79V6.67548H247.265V7.44828H247.75V7.84731H247.265V9.91821Z" fill="white"/>
<path d="M208.862 23.0969V22.5177C207.973 22.4638 207.387 21.9587 207.346 21.1708H208.02C208.033 21.6018 208.35 21.8846 208.862 21.9385V20.2616L208.619 20.2077C207.825 20.0259 207.414 19.5814 207.414 18.8877C207.414 18.12 207.986 17.5745 208.862 17.5004V16.9145H209.293V17.4936C210.108 17.5677 210.626 18.0661 210.673 18.8473H210.02C209.993 18.4163 209.73 18.1402 209.293 18.0795V19.7497L209.555 19.8104C210.363 19.9922 210.754 20.4165 210.754 21.0899C210.754 21.8914 210.182 22.4301 209.293 22.511V23.0969H208.862ZM208.754 19.6218L208.862 19.6487V18.0795C208.363 18.1469 208.06 18.4365 208.06 18.8675C208.06 19.2581 208.282 19.5073 208.754 19.6218ZM209.421 20.3963L209.293 20.3693V21.925C209.798 21.8577 210.108 21.5681 210.108 21.1438C210.108 20.7532 209.885 20.504 209.421 20.3963ZM212.944 22.5244C211.947 22.5244 211.301 21.8914 211.301 20.9216H211.954C211.954 21.5479 212.338 21.9318 212.957 21.9318C213.617 21.9318 214.042 21.494 214.042 20.834C214.042 20.2077 213.644 19.743 212.964 19.743C212.553 19.743 212.176 19.9383 211.954 20.2144L211.395 20.073L211.988 17.5745H214.425V18.1806H212.466L212.142 19.4736C212.398 19.2783 212.722 19.1773 213.085 19.1773C214.075 19.1773 214.715 19.871 214.715 20.8071C214.715 21.8173 213.994 22.5244 212.944 22.5244ZM216.179 22.181C216.179 22.6658 215.815 23.0699 215.337 23.1305V22.8477C215.613 22.8005 215.808 22.6187 215.808 22.4099C215.761 22.4369 215.707 22.4503 215.627 22.4503C215.404 22.4503 215.216 22.2887 215.216 22.0395C215.216 21.7701 215.398 21.5748 215.667 21.5748C215.95 21.5748 216.179 21.8105 216.179 22.181ZM216.646 20.0124C216.646 18.5038 217.427 17.4802 218.653 17.4802C219.872 17.4802 220.653 18.5038 220.653 20.0124C220.653 21.5277 219.905 22.5312 218.653 22.5312C217.393 22.5312 216.646 21.5277 216.646 20.0124ZM217.299 20.0124C217.299 21.2112 217.797 21.9385 218.653 21.9385C219.508 21.9385 220 21.2112 220 20.0124C220 18.8002 219.508 18.0728 218.653 18.0728C217.797 18.0728 217.299 18.8002 217.299 20.0124ZM221.275 20.0124C221.275 18.5038 222.056 17.4802 223.282 17.4802C224.501 17.4802 225.282 18.5038 225.282 20.0124C225.282 21.5277 224.535 22.5312 223.282 22.5312C222.022 22.5312 221.275 21.5277 221.275 20.0124ZM221.928 20.0124C221.928 21.2112 222.427 21.9385 223.282 21.9385C224.137 21.9385 224.629 21.2112 224.629 20.0124C224.629 18.8002 224.137 18.0728 223.282 18.0728C222.427 18.0728 221.928 18.8002 221.928 20.0124ZM225.904 20.0124C225.904 18.5038 226.685 17.4802 227.911 17.4802C229.13 17.4802 229.911 18.5038 229.911 20.0124C229.911 21.5277 229.164 22.5312 227.911 22.5312C226.652 22.5312 225.904 21.5277 225.904 20.0124ZM226.557 20.0124C226.557 21.2112 227.056 21.9385 227.911 21.9385C228.766 21.9385 229.258 21.2112 229.258 20.0124C229.258 18.8002 228.766 18.0728 227.911 18.0728C227.056 18.0728 226.557 18.8002 226.557 20.0124ZM230.856 22.5244C230.594 22.5244 230.371 22.3089 230.371 22.053C230.371 21.7903 230.594 21.5748 230.856 21.5748C231.112 21.5748 231.335 21.7903 231.335 22.053C231.335 22.3089 231.112 22.5244 230.856 22.5244ZM231.802 20.0124C231.802 18.5038 232.583 17.4802 233.808 17.4802C235.027 17.4802 235.809 18.5038 235.809 20.0124C235.809 21.5277 235.061 22.5312 233.808 22.5312C232.549 22.5312 231.802 21.5277 231.802 20.0124ZM232.455 20.0124C232.455 21.2112 232.953 21.9385 233.808 21.9385C234.664 21.9385 235.155 21.2112 235.155 20.0124C235.155 18.8002 234.664 18.0728 233.808 18.0728C232.953 18.0728 232.455 18.8002 232.455 20.0124ZM236.431 20.0124C236.431 18.5038 237.212 17.4802 238.438 17.4802C239.657 17.4802 240.438 18.5038 240.438 20.0124C240.438 21.5277 239.69 22.5312 238.438 22.5312C237.178 22.5312 236.431 21.5277 236.431 20.0124ZM237.084 20.0124C237.084 21.2112 237.582 21.9385 238.438 21.9385C239.293 21.9385 239.785 21.2112 239.785 20.0124C239.785 18.8002 239.293 18.0728 238.438 18.0728C237.582 18.0728 237.084 18.8002 237.084 20.0124Z" fill="#3EDC81"/>
<path d="M192.007 65.7883C192.007 63.7844 193.631 62.1599 195.635 62.1599H315.371C317.375 62.1599 319 63.7844 319 65.7883V85.3814C319 87.3853 317.375 89.0098 315.371 89.0098H195.635C193.631 89.0098 192.007 87.3853 192.007 85.3814V65.7883Z" fill="#101010"/>
<path d="M195.635 62.3416H315.371C317.275 62.3416 318.818 63.8843 318.818 65.7878V85.3816C318.818 87.2852 317.275 88.8289 315.371 88.8289H195.635C193.731 88.8286 192.189 87.2851 192.188 85.3816V65.7878C192.189 63.8845 193.731 62.3418 195.635 62.3416Z" stroke="white" stroke-opacity="0.02" stroke-width="0.362836"/>
<path d="M198.214 71.9289H197.285V73.2395H196.787V69.5669H198.214C198.936 69.5669 199.398 70.0393 199.398 70.7454C199.398 71.4311 198.931 71.9289 198.214 71.9289ZM198.128 70.0139H197.285V71.4819H198.108C198.601 71.4819 198.875 71.1924 198.875 70.7403C198.875 70.278 198.595 70.0139 198.128 70.0139ZM201.272 70.7352V71.1721H201.059C200.607 71.1721 200.328 71.4464 200.328 71.9239V73.2395H199.85V70.7606H200.297L200.328 71.1365C200.429 70.8774 200.678 70.7047 201.018 70.7047C201.105 70.7047 201.176 70.7149 201.272 70.7352ZM201.438 71.995C201.438 71.2279 201.987 70.6895 202.733 70.6895C203.475 70.6895 204.024 71.2279 204.024 71.995C204.024 72.762 203.475 73.3005 202.733 73.3005C201.987 73.3005 201.438 72.762 201.438 71.995ZM201.921 71.995C201.921 72.5131 202.251 72.8738 202.733 72.8738C203.211 72.8738 203.546 72.5131 203.546 71.995C203.546 71.4768 203.211 71.1162 202.733 71.1162C202.251 71.1162 201.921 71.4768 201.921 71.995ZM206.188 73.2395V71.1568H205.086V73.2395H204.608V71.1568H204.243V70.7555H204.608V70.3593C204.608 69.7497 204.939 69.5008 205.37 69.5008C205.462 69.5008 205.573 69.5059 205.665 69.5212V69.9326H205.452C205.162 69.9326 205.086 70.0901 205.086 70.3593V70.7555H206.666V73.2395H206.188ZM206.427 70.146C206.254 70.146 206.122 70.0139 206.122 69.8412C206.122 69.6685 206.254 69.5364 206.427 69.5364C206.594 69.5364 206.727 69.6685 206.727 69.8412C206.727 70.0139 206.594 70.146 206.427 70.146ZM208.015 73.2395H207.537V71.1568H207.05V70.7555H207.537V69.9783H208.015V70.7555H208.502V71.1568H208.015V73.2395ZM209.985 70.024V69.5669H212.692V70.024H211.59V73.2395H211.092V70.024H209.985ZM213.405 73.3005C212.872 73.3005 212.557 73.0008 212.557 72.5487C212.557 72.0915 212.897 71.807 213.482 71.7613L214.264 71.7004V71.6292C214.264 71.2127 214.015 71.0654 213.68 71.0654C213.278 71.0654 213.05 71.2432 213.05 71.5429H212.633C212.633 71.0247 213.06 70.6844 213.7 70.6844C214.315 70.6844 214.731 71.0095 214.731 71.68V73.2395H214.325L214.274 72.8382C214.147 73.1227 213.807 73.3005 213.405 73.3005ZM213.543 72.9296C213.995 72.9296 214.269 72.635 214.269 72.1677V72.0356L213.634 72.0864C213.212 72.127 213.04 72.2896 213.04 72.5334C213.04 72.7976 213.233 72.9296 213.543 72.9296ZM216.784 70.7352V71.1721H216.571C216.119 71.1721 215.84 71.4464 215.84 71.9239V73.2395H215.362V70.7606H215.809L215.84 71.1365C215.941 70.8774 216.19 70.7047 216.53 70.7047C216.617 70.7047 216.688 70.7149 216.784 70.7352ZM216.99 71.934C216.99 71.233 217.442 70.6844 218.163 70.6844C218.564 70.6844 218.874 70.8673 219.032 71.1771L219.067 70.7555H219.494V73.1379C219.494 73.9202 219.011 74.418 218.249 74.418C217.574 74.418 217.112 74.037 217.02 73.4071H217.498C217.559 73.7729 217.833 73.9862 218.249 73.9862C218.717 73.9862 219.022 73.6814 219.022 73.209V72.7112C218.859 73.0008 218.534 73.1735 218.143 73.1735C217.437 73.1735 216.99 72.6299 216.99 71.934ZM217.467 71.9239C217.467 72.3912 217.757 72.7569 218.224 72.7569C218.707 72.7569 219.001 72.4115 219.001 71.9239C219.001 71.4464 218.717 71.1009 218.229 71.1009C217.752 71.1009 217.467 71.4667 217.467 71.9239ZM221.224 73.3005C220.493 73.3005 219.99 72.7722 219.99 72.0001C219.99 71.2229 220.483 70.6844 221.204 70.6844C221.91 70.6844 222.372 71.1721 222.372 71.9086V72.0864L220.452 72.0915C220.488 72.6147 220.762 72.9042 221.235 72.9042C221.605 72.9042 221.849 72.7519 221.93 72.4674H222.377C222.256 73.0008 221.839 73.3005 221.224 73.3005ZM221.204 71.0857C220.788 71.0857 220.523 71.3346 220.462 71.7715H221.895C221.895 71.36 221.626 71.0857 221.204 71.0857ZM223.551 73.2395H223.074V71.1568H222.586V70.7555H223.074V69.9783H223.551V70.7555H224.039V71.1568H223.551V73.2395Z" fill="white"/>
<path d="M293.764 73.6618V73.2874C293.189 73.2526 292.81 72.926 292.784 72.4166H293.219C293.228 72.6952 293.433 72.8781 293.764 72.9129V71.8288L293.607 71.794C293.093 71.6764 292.827 71.389 292.827 70.9406C292.827 70.4442 293.197 70.0915 293.764 70.0436V69.6648H294.042V70.0393C294.569 70.0872 294.904 70.4094 294.935 70.9144H294.512C294.495 70.6358 294.325 70.4573 294.042 70.4181V71.4979L294.212 71.5371C294.734 71.6546 294.987 71.9289 294.987 72.3643C294.987 72.8825 294.617 73.2308 294.042 73.283V73.6618H293.764ZM293.694 71.4152L293.764 71.4326V70.4181C293.441 70.4616 293.245 70.6489 293.245 70.9275C293.245 71.18 293.389 71.3411 293.694 71.4152ZM294.125 71.9159L294.042 71.8985V72.9042C294.369 72.8607 294.569 72.6735 294.569 72.3992C294.569 72.1466 294.425 71.9855 294.125 71.9159ZM296.342 73.2918C295.697 73.2918 295.279 72.8825 295.279 72.2555H295.702C295.702 72.6604 295.95 72.9086 296.35 72.9086C296.777 72.9086 297.051 72.6256 297.051 72.1989C297.051 71.794 296.795 71.4935 296.355 71.4935C296.089 71.4935 295.845 71.6198 295.702 71.7983L295.34 71.7069L295.723 70.0915H297.3V70.4834H296.033L295.824 71.3194C295.989 71.1931 296.198 71.1278 296.433 71.1278C297.073 71.1278 297.487 71.5763 297.487 72.1815C297.487 72.8346 297.021 73.2918 296.342 73.2918ZM298.372 73.0697C298.372 73.3832 298.137 73.6444 297.828 73.6836V73.5007C298.006 73.4703 298.133 73.3527 298.133 73.2177C298.102 73.2351 298.067 73.2439 298.015 73.2439C297.871 73.2439 297.75 73.1394 297.75 72.9783C297.75 72.8041 297.867 72.6778 298.041 72.6778C298.224 72.6778 298.372 72.8302 298.372 73.0697ZM298.613 71.6677C298.613 70.6924 299.118 70.0306 299.911 70.0306C300.699 70.0306 301.204 70.6924 301.204 71.6677C301.204 72.6474 300.721 73.2961 299.911 73.2961C299.096 73.2961 298.613 72.6474 298.613 71.6677ZM299.036 71.6677C299.036 72.4427 299.358 72.9129 299.911 72.9129C300.464 72.9129 300.782 72.4427 300.782 71.6677C300.782 70.884 300.464 70.4137 299.911 70.4137C299.358 70.4137 299.036 70.884 299.036 71.6677ZM301.545 71.6677C301.545 70.6924 302.05 70.0306 302.843 70.0306C303.631 70.0306 304.136 70.6924 304.136 71.6677C304.136 72.6474 303.652 73.2961 302.843 73.2961C302.028 73.2961 301.545 72.6474 301.545 71.6677ZM301.967 71.6677C301.967 72.4427 302.29 72.9129 302.843 72.9129C303.395 72.9129 303.713 72.4427 303.713 71.6677C303.713 70.884 303.395 70.4137 302.843 70.4137C302.29 70.4137 301.967 70.884 301.967 71.6677ZM304.477 71.6677C304.477 70.6924 304.982 70.0306 305.774 70.0306C306.562 70.0306 307.068 70.6924 307.068 71.6677C307.068 72.6474 306.584 73.2961 305.774 73.2961C304.96 73.2961 304.477 72.6474 304.477 71.6677ZM304.899 71.6677C304.899 72.4427 305.221 72.9129 305.774 72.9129C306.327 72.9129 306.645 72.4427 306.645 71.6677C306.645 70.884 306.327 70.4137 305.774 70.4137C305.221 70.4137 304.899 70.884 304.899 71.6677ZM307.618 73.2918C307.448 73.2918 307.304 73.1524 307.304 72.987C307.304 72.8172 307.448 72.6778 307.618 72.6778C307.783 72.6778 307.927 72.8172 307.927 72.987C307.927 73.1524 307.783 73.2918 307.618 73.2918ZM308.168 71.6677C308.168 70.6924 308.673 70.0306 309.465 70.0306C310.253 70.0306 310.758 70.6924 310.758 71.6677C310.758 72.6474 310.275 73.2961 309.465 73.2961C308.651 73.2961 308.168 72.6474 308.168 71.6677ZM308.59 71.6677C308.59 72.4427 308.912 72.9129 309.465 72.9129C310.018 72.9129 310.336 72.4427 310.336 71.6677C310.336 70.884 310.018 70.4137 309.465 70.4137C308.912 70.4137 308.59 70.884 308.59 71.6677ZM311.1 71.6677C311.1 70.6924 311.605 70.0306 312.397 70.0306C313.185 70.0306 313.69 70.6924 313.69 71.6677C313.69 72.6474 313.207 73.2961 312.397 73.2961C311.583 73.2961 311.1 72.6474 311.1 71.6677ZM311.522 71.6677C311.522 72.4427 311.844 72.9129 312.397 72.9129C312.95 72.9129 313.268 72.4427 313.268 71.6677C313.268 70.884 312.95 70.4137 312.397 70.4137C311.844 70.4137 311.522 70.884 311.522 71.6677Z" fill="#3EDC81"/>
<rect x="196.361" y="80.4165" width="101.594" height="2.90269" rx="1.45134" fill="white" fill-opacity="0.2"/>
<rect x="202.135" y="79.6907" width="4.35404" height="4.35404" rx="2.17702" fill="#3EDC81"/>
<circle cx="204.312" cy="81.8678" r="1.08851" fill="#486160"/>
<path d="M306.973 81.1031H306.311V80.72H307.382V83.8679H306.973V81.1031ZM307.871 82.2961C307.871 81.3208 308.376 80.659 309.169 80.659C309.957 80.659 310.462 81.3208 310.462 82.2961C310.462 83.2758 309.979 83.9245 309.169 83.9245C308.355 83.9245 307.871 83.2758 307.871 82.2961ZM308.294 82.2961C308.294 83.0711 308.616 83.5414 309.169 83.5414C309.722 83.5414 310.04 83.0711 310.04 82.2961C310.04 81.5124 309.722 81.0422 309.169 81.0422C308.616 81.0422 308.294 81.5124 308.294 82.2961ZM312.362 81.4645C312.362 81.9304 312.031 82.2656 311.565 82.2656C311.103 82.2656 310.773 81.9304 310.773 81.4645C310.773 80.9943 311.103 80.659 311.565 80.659C312.031 80.659 312.362 80.9943 312.362 81.4645ZM314.021 80.7243L311.63 83.8679H311.212L313.603 80.7243H314.021ZM312.027 81.4645C312.027 81.1815 311.839 80.9855 311.565 80.9855C311.295 80.9855 311.108 81.1815 311.108 81.4645C311.108 81.7432 311.295 81.9391 311.565 81.9391C311.835 81.9391 312.027 81.7432 312.027 81.4645ZM314.469 83.1234C314.469 83.5893 314.134 83.9245 313.672 83.9245C313.211 83.9245 312.876 83.5893 312.876 83.1234C312.876 82.6531 313.211 82.3222 313.672 82.3222C314.134 82.3222 314.469 82.6531 314.469 83.1234ZM314.13 83.1234C314.13 82.8404 313.947 82.6444 313.672 82.6444C313.402 82.6444 313.215 82.8404 313.215 83.1234C313.215 83.402 313.402 83.598 313.672 83.598C313.942 83.598 314.13 83.402 314.13 83.1234Z" fill="#3EDC81"/>
<path d="M134.679 95.1784C134.679 93.1745 136.303 91.55 138.307 91.55H258.043C260.047 91.55 261.671 93.1745 261.671 95.1784V114.772C261.671 116.775 260.047 118.4 258.043 118.4H138.307C136.303 118.4 134.679 116.775 134.679 114.772V95.1784Z" fill="#101010"/>
<path d="M138.307 91.7317H258.043C259.947 91.7317 261.49 93.2745 261.49 95.178V114.772C261.49 116.675 259.947 118.219 258.043 118.219H138.307C136.403 118.219 134.86 116.675 134.86 114.772V95.178C134.861 93.2746 136.403 91.7319 138.307 91.7317Z" stroke="white" stroke-opacity="0.02" stroke-width="0.362836"/>
<path d="M139.948 102.63H139.46V98.957H139.948L141.212 102.045L142.477 98.957H142.975V102.63H142.487V101.177C142.487 100.491 142.492 100.242 142.518 99.9831L141.446 102.63H140.979L139.912 99.9933C139.937 100.171 139.948 100.547 139.948 101.06V102.63ZM144.445 102.691C143.912 102.691 143.597 102.391 143.597 101.939C143.597 101.482 143.937 101.197 144.521 101.151L145.303 101.09V101.019C145.303 100.603 145.054 100.456 144.719 100.456C144.318 100.456 144.089 100.633 144.089 100.933H143.673C143.673 100.415 144.099 100.075 144.739 100.075C145.354 100.075 145.771 100.4 145.771 101.07V102.63H145.364L145.314 102.228C145.187 102.513 144.846 102.691 144.445 102.691ZM144.582 102.32C145.034 102.32 145.308 102.025 145.308 101.558V101.426L144.673 101.477C144.252 101.517 144.079 101.68 144.079 101.924C144.079 102.188 144.272 102.32 144.582 102.32ZM146.655 102.63H146.107L146.975 101.4L146.112 100.146H146.666L147.296 101.07L147.91 100.146H148.454L147.59 101.4L148.438 102.63H147.885L147.265 101.72L146.655 102.63ZM149.055 99.5564C148.883 99.5564 148.74 99.4142 148.74 99.2415C148.74 99.0637 148.883 98.9265 149.055 98.9265C149.228 98.9265 149.37 99.0637 149.37 99.2415C149.37 99.4142 149.228 99.5564 149.055 99.5564ZM148.822 102.63V100.146H149.299V102.63H148.822ZM150.439 102.63H149.962V100.146H150.388L150.434 100.471C150.561 100.237 150.825 100.075 151.176 100.075C151.562 100.075 151.836 100.268 151.963 100.577C152.08 100.268 152.38 100.075 152.766 100.075C153.335 100.075 153.68 100.43 153.68 101.004V102.63H153.213V101.121C153.213 100.73 152.994 100.506 152.659 100.506C152.298 100.506 152.06 100.76 152.06 101.157V102.63H151.587V101.116C151.587 100.725 151.374 100.511 151.039 100.511C150.678 100.511 150.439 100.76 150.439 101.157V102.63ZM156.029 100.146H156.501V102.63H156.074L156.023 102.254C155.881 102.513 155.551 102.691 155.185 102.691C154.606 102.691 154.281 102.299 154.281 101.69V100.146H154.759V101.532C154.759 102.066 154.987 102.269 155.353 102.269C155.79 102.269 156.029 101.99 156.029 101.456V100.146ZM157.641 102.63H157.163V100.146H157.59L157.636 100.471C157.763 100.237 158.027 100.075 158.377 100.075C158.763 100.075 159.038 100.268 159.165 100.577C159.281 100.268 159.581 100.075 159.967 100.075C160.536 100.075 160.882 100.43 160.882 101.004V102.63H160.414V101.121C160.414 100.73 160.196 100.506 159.861 100.506C159.5 100.506 159.261 100.76 159.261 101.157V102.63H158.789V101.116C158.789 100.725 158.575 100.511 158.24 100.511C157.879 100.511 157.641 100.76 157.641 101.157V102.63ZM163.451 102.63H162.953V98.957H164.34C165.127 98.957 165.594 99.3735 165.594 100.059C165.594 100.567 165.34 100.933 164.883 101.08L165.63 102.63H165.076L164.39 101.177H163.451V102.63ZM163.451 99.404V100.735H164.345C164.807 100.735 165.071 100.486 165.071 100.064C165.071 99.6377 164.797 99.404 164.34 99.404H163.451ZM166.398 99.5564C166.226 99.5564 166.083 99.4142 166.083 99.2415C166.083 99.0637 166.226 98.9265 166.398 98.9265C166.571 98.9265 166.713 99.0637 166.713 99.2415C166.713 99.4142 166.571 99.5564 166.398 99.5564ZM166.165 102.63V100.146H166.642V102.63H166.165ZM167.102 101.908H167.559C167.559 102.162 167.752 102.315 168.067 102.315C168.402 102.315 168.595 102.178 168.595 101.949C168.595 101.781 168.514 101.68 168.255 101.614L167.818 101.512C167.376 101.405 167.168 101.187 167.168 100.821C167.168 100.364 167.554 100.075 168.102 100.075C168.646 100.075 169.002 100.379 169.012 100.852H168.555C168.544 100.603 168.377 100.445 168.087 100.445C167.787 100.445 167.62 100.577 167.62 100.806C167.62 100.974 167.742 101.085 167.986 101.146L168.422 101.253C168.844 101.355 169.052 101.548 169.052 101.918C169.052 102.391 168.646 102.691 168.057 102.691C167.473 102.691 167.102 102.381 167.102 101.908ZM170.039 102.63H169.562V98.891H170.039V101.314L171.141 100.146H171.741L170.791 101.136L171.736 102.63H171.187L170.461 101.482L170.039 101.924V102.63Z" fill="white"/>
<path d="M236.436 103.052V102.678C235.862 102.643 235.483 102.316 235.457 101.807H235.892C235.901 102.085 236.105 102.268 236.436 102.303V101.219L236.28 101.184C235.766 101.067 235.5 100.779 235.5 100.331C235.5 99.8343 235.87 99.4817 236.436 99.4338V99.055H236.715V99.4294C237.242 99.4773 237.577 99.7995 237.608 100.305H237.185C237.168 100.026 236.998 99.8474 236.715 99.8082V100.888L236.885 100.927C237.407 101.045 237.66 101.319 237.66 101.754C237.66 102.273 237.29 102.621 236.715 102.673V103.052H236.436ZM236.367 100.805L236.436 100.823V99.8082C236.114 99.8518 235.918 100.039 235.918 100.318C235.918 100.57 236.062 100.731 236.367 100.805ZM236.798 101.306L236.715 101.289V102.294C237.042 102.251 237.242 102.064 237.242 101.789C237.242 101.537 237.098 101.376 236.798 101.306ZM240.068 102.625L237.944 102.63V102.303L238.958 101.428C239.467 100.988 239.611 100.775 239.611 100.44C239.611 100.043 239.385 99.8082 239.006 99.8082C238.618 99.8082 238.366 100.091 238.357 100.54H237.93C237.944 99.8648 238.37 99.4251 239.01 99.4251C239.642 99.4251 240.047 99.8082 240.047 100.413C240.047 100.862 239.824 101.18 239.267 101.663L238.614 102.229H240.068V102.625ZM241.109 102.46C241.109 102.773 240.874 103.035 240.565 103.074V102.891C240.743 102.86 240.869 102.743 240.869 102.608C240.839 102.625 240.804 102.634 240.752 102.634C240.608 102.634 240.486 102.529 240.486 102.368C240.486 102.194 240.604 102.068 240.778 102.068C240.961 102.068 241.109 102.22 241.109 102.46ZM241.35 101.058C241.35 100.083 241.855 99.4207 242.647 99.4207C243.435 99.4207 243.94 100.083 243.94 101.058C243.94 102.037 243.457 102.686 242.647 102.686C241.833 102.686 241.35 102.037 241.35 101.058ZM241.772 101.058C241.772 101.833 242.094 102.303 242.647 102.303C243.2 102.303 243.518 101.833 243.518 101.058C243.518 100.274 243.2 99.8039 242.647 99.8039C242.094 99.8039 241.772 100.274 241.772 101.058ZM244.282 101.058C244.282 100.083 244.787 99.4207 245.579 99.4207C246.367 99.4207 246.872 100.083 246.872 101.058C246.872 102.037 246.389 102.686 245.579 102.686C244.765 102.686 244.282 102.037 244.282 101.058ZM244.704 101.058C244.704 101.833 245.026 102.303 245.579 102.303C246.132 102.303 246.45 101.833 246.45 101.058C246.45 100.274 246.132 99.8039 245.579 99.8039C245.026 99.8039 244.704 100.274 244.704 101.058ZM247.213 101.058C247.213 100.083 247.719 99.4207 248.511 99.4207C249.299 99.4207 249.804 100.083 249.804 101.058C249.804 102.037 249.321 102.686 248.511 102.686C247.697 102.686 247.213 102.037 247.213 101.058ZM247.636 101.058C247.636 101.833 247.958 102.303 248.511 102.303C249.064 102.303 249.382 101.833 249.382 101.058C249.382 100.274 249.064 99.8039 248.511 99.8039C247.958 99.8039 247.636 100.274 247.636 101.058ZM250.354 102.682C250.184 102.682 250.041 102.543 250.041 102.377C250.041 102.207 250.184 102.068 250.354 102.068C250.52 102.068 250.663 102.207 250.663 102.377C250.663 102.543 250.52 102.682 250.354 102.682ZM250.904 101.058C250.904 100.083 251.409 99.4207 252.202 99.4207C252.99 99.4207 253.495 100.083 253.495 101.058C253.495 102.037 253.012 102.686 252.202 102.686C251.388 102.686 250.904 102.037 250.904 101.058ZM251.327 101.058C251.327 101.833 251.649 102.303 252.202 102.303C252.755 102.303 253.073 101.833 253.073 101.058C253.073 100.274 252.755 99.8039 252.202 99.8039C251.649 99.8039 251.327 100.274 251.327 101.058ZM253.836 101.058C253.836 100.083 254.341 99.4207 255.134 99.4207C255.922 99.4207 256.427 100.083 256.427 101.058C256.427 102.037 255.944 102.686 255.134 102.686C254.32 102.686 253.836 102.037 253.836 101.058ZM254.259 101.058C254.259 101.833 254.581 102.303 255.134 102.303C255.687 102.303 256.005 101.833 256.005 101.058C256.005 100.274 255.687 99.8039 255.134 99.8039C254.581 99.8039 254.259 100.274 254.259 101.058Z" fill="#EA4335"/>
<rect x="139.033" y="109.807" width="101.594" height="2.90269" rx="1.45134" fill="white" fill-opacity="0.2"/>
<rect x="141.536" y="109.082" width="4.35404" height="4.35404" rx="2.17702" fill="#EA4335"/>
<circle cx="143.714" cy="111.259" r="1.08851" fill="#486160"/>
<path d="M253.169 113.254L251.045 113.258V112.932L252.059 112.056C252.568 111.617 252.712 111.403 252.712 111.068C252.712 110.672 252.486 110.437 252.107 110.437C251.719 110.437 251.467 110.72 251.458 111.168H251.031C251.045 110.493 251.471 110.053 252.111 110.053C252.743 110.053 253.148 110.437 253.148 111.042C253.148 111.49 252.925 111.808 252.368 112.291L251.715 112.857H253.169V113.254ZM255.034 110.855C255.034 111.321 254.703 111.656 254.237 111.656C253.775 111.656 253.444 111.321 253.444 110.855C253.444 110.384 253.775 110.049 254.237 110.049C254.703 110.049 255.034 110.384 255.034 110.855ZM256.693 110.114L254.302 113.258H253.884L256.275 110.114H256.693ZM254.698 110.855C254.698 110.572 254.511 110.376 254.237 110.376C253.967 110.376 253.78 110.572 253.78 110.855C253.78 111.133 253.967 111.329 254.237 111.329C254.507 111.329 254.698 111.133 254.698 110.855ZM257.141 112.514C257.141 112.979 256.806 113.315 256.344 113.315C255.883 113.315 255.547 112.979 255.547 112.514C255.547 112.043 255.883 111.712 256.344 111.712C256.806 111.712 257.141 112.043 257.141 112.514ZM256.801 112.514C256.801 112.231 256.619 112.035 256.344 112.035C256.074 112.035 255.887 112.231 255.887 112.514C255.887 112.792 256.074 112.988 256.344 112.988C256.614 112.988 256.801 112.792 256.801 112.514Z" fill="#EA4335"/>
<defs>
<filter id="filter0_dd_705_16907" x="159.29" y="58.4115" width="14.2984" height="14.2984" filterUnits="userSpaceOnUse" color-interpolation-filters="sRGB">
<feFlood flood-opacity="0" result="BackgroundImageFix"/>
<feColorMatrix in="SourceAlpha" type="matrix" values="0 0 0 0 0 0 0 0 0 0 0 0 0 0 0 0 0 0 127 0" result="hardAlpha"/>
<feOffset dy="1.02131"/>
<feGaussianBlur stdDeviation="1.02131"/>
<feColorMatrix type="matrix" values="0 0 0 0 0.054902 0 0 0 0 0.0705882 0 0 0 0 0.105882 0 0 0 0.08 0"/>
<feBlend mode="normal" in2="BackgroundImageFix" result="effect1_dropShadow_705_16907"/>
<feColorMatrix in="SourceAlpha" type="matrix" values="0 0 0 0 0 0 0 0 0 0 0 0 0 0 0 0 0 0 127 0" result="hardAlpha"/>
<feOffset dy="2.04262"/>
<feGaussianBlur stdDeviation="2.04262"/>
<feColorMatrix type="matrix" values="0 0 0 0 0.105882 0 0 0 0 0.109804 0 0 0 0 0.113725 0 0 0 0.06 0"/>
<feBlend mode="normal" in2="effect1_dropShadow_705_16907" result="effect2_dropShadow_705_16907"/>
<feBlend mode="normal" in="SourceGraphic" in2="effect2_dropShadow_705_16907" result="shape"/>
</filter>
<filter id="filter1_dd_705_16907" x="165.418" y="81.6671" width="14.2984" height="14.2984" filterUnits="userSpaceOnUse" color-interpolation-filters="sRGB">
<feFlood flood-opacity="0" result="BackgroundImageFix"/>
<feColorMatrix in="SourceAlpha" type="matrix" values="0 0 0 0 0 0 0 0 0 0 0 0 0 0 0 0 0 0 127 0" result="hardAlpha"/>
<feOffset dy="1.02131"/>
<feGaussianBlur stdDeviation="1.02131"/>
<feColorMatrix type="matrix" values="0 0 0 0 0.054902 0 0 0 0 0.0705882 0 0 0 0 0.105882 0 0 0 0.08 0"/>
<feBlend mode="normal" in2="BackgroundImageFix" result="effect1_dropShadow_705_16907"/>
<feColorMatrix in="SourceAlpha" type="matrix" values="0 0 0 0 0 0 0 0 0 0 0 0 0 0 0 0 0 0 127 0" result="hardAlpha"/>
<feOffset dy="2.04262"/>
<feGaussianBlur stdDeviation="2.04262"/>
<feColorMatrix type="matrix" values="0 0 0 0 0.105882 0 0 0 0 0.109804 0 0 0 0 0.113725 0 0 0 0.06 0"/>
<feBlend mode="normal" in2="effect1_dropShadow_705_16907" result="effect2_dropShadow_705_16907"/>
<feBlend mode="normal" in="SourceGraphic" in2="effect2_dropShadow_705_16907" result="shape"/>
</filter>
<filter id="filter2_dd_705_16907" x="159.29" y="104.923" width="14.2984" height="14.2984" filterUnits="userSpaceOnUse" color-interpolation-filters="sRGB">
<feFlood flood-opacity="0" result="BackgroundImageFix"/>
<feColorMatrix in="SourceAlpha" type="matrix" values="0 0 0 0 0 0 0 0 0 0 0 0 0 0 0 0 0 0 127 0" result="hardAlpha"/>
<feOffset dy="1.02131"/>
<feGaussianBlur stdDeviation="1.02131"/>
<feColorMatrix type="matrix" values="0 0 0 0 0.054902 0 0 0 0 0.0705882 0 0 0 0 0.105882 0 0 0 0.08 0"/>
<feBlend mode="normal" in2="BackgroundImageFix" result="effect1_dropShadow_705_16907"/>
<feColorMatrix in="SourceAlpha" type="matrix" values="0 0 0 0 0 0 0 0 0 0 0 0 0 0 0 0 0 0 127 0" result="hardAlpha"/>
<feOffset dy="2.04262"/>
<feGaussianBlur stdDeviation="2.04262"/>
<feColorMatrix type="matrix" values="0 0 0 0 0.105882 0 0 0 0 0.109804 0 0 0 0 0.113725 0 0 0 0.06 0"/>
<feBlend mode="normal" in2="effect1_dropShadow_705_16907" result="effect2_dropShadow_705_16907"/>
<feBlend mode="normal" in="SourceGraphic" in2="effect2_dropShadow_705_16907" result="shape"/>
</filter>
<linearGradient id="paint0_linear_705_16907" x1="162.183" y1="63.4114" x2="176.481" y2="63.4114" gradientUnits="userSpaceOnUse">
<stop stop-color="white"/>
<stop offset="1" stop-color="white" stop-opacity="0.4"/>
</linearGradient>
<linearGradient id="paint1_linear_705_16907" x1="169.332" y1="82.5818" x2="169.332" y2="90.7523" gradientUnits="userSpaceOnUse">
<stop stop-color="#15B0F8"/>
<stop offset="1" stop-color="#0276DB"/>
</linearGradient>
<linearGradient id="paint2_linear_705_16907" x1="172.566" y1="85.7522" x2="172.566" y2="87.7948" gradientUnits="userSpaceOnUse">
<stop stop-color="#15B0F8"/>
<stop offset="1" stop-color="#0276DB"/>
</linearGradient>
<linearGradient id="paint3_linear_705_16907" x1="162.183" y1="109.923" x2="176.481" y2="109.923" gradientUnits="userSpaceOnUse">
<stop stop-color="white"/>
<stop offset="1" stop-color="white" stop-opacity="0.4"/>
</linearGradient>
</defs>
</svg>
