<svg width="313" height="123" viewBox="0 0 313 123" fill="none" xmlns="http://www.w3.org/2000/svg">
<rect width="182.971" height="78.416" transform="translate(0 35.2207)" fill="#101010"/>
<path d="M4.90753 45.8511H4.22009V40.7795H6.1351C7.22237 40.7795 7.86773 41.3547 7.86773 42.3016C7.86773 43.0031 7.51699 43.5082 6.88567 43.7116L7.91683 45.8511H7.15223L6.20525 43.8449H4.90753V45.8511ZM4.90753 41.3968V43.2346H6.14211C6.78045 43.2346 7.14521 42.8909 7.14521 42.3087C7.14521 41.7194 6.76642 41.3968 6.1351 41.3968H4.90753ZM8.87992 41.6072C8.64142 41.6072 8.44501 41.4108 8.44501 41.1723C8.44501 40.9268 8.64142 40.7374 8.87992 40.7374C9.11842 40.7374 9.31483 40.9268 9.31483 41.1723C9.31483 41.4108 9.11842 41.6072 8.87992 41.6072ZM8.55725 45.8511V42.4209H9.21663V45.8511H8.55725ZM9.75303 44.855H10.3844C10.3844 45.2057 10.6509 45.4162 11.0858 45.4162C11.5488 45.4162 11.8153 45.2268 11.8153 44.9111C11.8153 44.6796 11.7031 44.5393 11.3454 44.4481L10.7421 44.3078C10.1318 44.1605 9.84422 43.8589 9.84422 43.3538C9.84422 42.7225 10.3773 42.3227 11.1349 42.3227C11.8855 42.3227 12.3765 42.7436 12.3905 43.3959H11.7592C11.7452 43.0522 11.5137 42.8348 11.1139 42.8348C10.7 42.8348 10.4685 43.0171 10.4685 43.3328C10.4685 43.5643 10.6369 43.7186 10.9736 43.8028L11.5768 43.9501C12.1591 44.0904 12.4467 44.3569 12.4467 44.869C12.4467 45.5214 11.8855 45.9353 11.0718 45.9353C10.2651 45.9353 9.75303 45.5074 9.75303 44.855ZM13.711 45.8511H13.0516V40.6883H13.711V44.0343L15.2332 42.4209H16.0609L14.7492 43.7888L16.0539 45.8511H15.2963L14.2932 44.2658L13.711 44.876V45.8511ZM19.0369 40.7795V45.2127H21.2676V45.8511H18.3495V40.7795H19.0369ZM23.1734 45.9353C22.1633 45.9353 21.4689 45.2057 21.4689 44.1395C21.4689 43.0662 22.1493 42.3227 23.1454 42.3227C24.1204 42.3227 24.7587 42.9961 24.7587 44.0132V44.2587L22.1072 44.2658C22.1563 44.9883 22.5351 45.3881 23.1875 45.3881C23.6995 45.3881 24.0362 45.1777 24.1485 44.7848H24.7658C24.5974 45.5214 24.0222 45.9353 23.1734 45.9353ZM23.1454 42.8769C22.5702 42.8769 22.2054 43.2206 22.1212 43.8238H24.0994C24.0994 43.2556 23.7276 42.8769 23.1454 42.8769ZM26.1995 45.8511L24.8176 42.4209H25.5191L26.2696 44.3359C26.3889 44.6586 26.4871 44.9462 26.5432 45.1566C26.5993 44.9322 26.7116 44.6375 26.8308 44.3359L27.5954 42.4209H28.2829L26.8519 45.8511H26.1995ZM29.9897 45.9353C28.9796 45.9353 28.2852 45.2057 28.2852 44.1395C28.2852 43.0662 28.9656 42.3227 29.9617 42.3227C30.9367 42.3227 31.575 42.9961 31.575 44.0132V44.2587L28.9235 44.2658C28.9726 44.9883 29.3514 45.3881 30.0037 45.3881C30.5158 45.3881 30.8525 45.1777 30.9648 44.7848H31.5821C31.4137 45.5214 30.8385 45.9353 29.9897 45.9353ZM29.9617 42.8769C29.3865 42.8769 29.0217 43.2206 28.9375 43.8238H30.9157C30.9157 43.2556 30.5439 42.8769 29.9617 42.8769ZM32.8446 45.8511H32.1853V40.6883H32.8446V45.8511Z" fill="white"/>
<path d="M3.63086 59.8761C3.63086 57.07 3.63086 55.6669 4.17697 54.5951C4.65734 53.6524 5.42385 52.8859 6.36663 52.4055C7.43843 51.8594 8.8415 51.8594 11.6476 51.8594H171.324C174.13 51.8594 175.533 51.8594 176.605 52.4055C177.548 52.8859 178.314 53.6524 178.795 54.5951C179.341 55.6669 179.341 57.07 179.341 59.8762V64.8636C179.341 67.6697 179.341 69.0728 178.795 70.1446C178.314 71.0874 177.548 71.8539 176.605 72.3342C175.533 72.8803 174.13 72.8803 171.324 72.8803H11.6476C8.8415 72.8803 7.43843 72.8803 6.36663 72.3342C5.42385 71.8539 4.65734 71.0874 4.17697 70.1446C3.63086 69.0728 3.63086 67.6697 3.63086 64.8636V59.8761Z" fill="#101010"/>
<path d="M11.6475 52.1104H171.324C172.731 52.1104 173.772 52.1105 174.595 52.1777C175.415 52.2447 175.997 52.3769 176.491 52.6289C177.387 53.0853 178.115 53.8133 178.571 54.709C178.823 55.2036 178.955 55.7856 179.022 56.6055C179.09 57.4284 179.09 58.4689 179.09 59.876V64.8633C179.09 66.2704 179.09 67.3109 179.022 68.1338C178.955 68.9538 178.823 69.5366 178.571 70.0312C178.115 70.9267 177.387 71.655 176.491 72.1113C175.997 72.3633 175.415 72.4955 174.595 72.5625C173.772 72.6297 172.731 72.6299 171.324 72.6299H11.6475C10.2403 72.6299 9.19986 72.6297 8.37695 72.5625C7.55715 72.4955 6.97508 72.3633 6.48047 72.1113C5.58496 71.655 4.85676 70.9267 4.40039 70.0312C4.14833 69.5366 4.01622 68.9538 3.94922 68.1338C3.882 67.3109 3.88184 66.2704 3.88184 64.8633V59.876C3.88184 58.4689 3.88198 57.4284 3.94922 56.6055C4.01622 55.7856 4.14835 55.2036 4.40039 54.709C4.85674 53.8133 5.58483 53.0853 6.48047 52.6289C6.97512 52.3769 7.55706 52.2447 8.37695 52.1777C9.19986 52.1105 10.2403 52.1104 11.6475 52.1104Z" stroke="white" stroke-opacity="0.02" stroke-width="0.501049"/>
<path d="M9.73492 59.5225V63.3225H11.6469V63.8696H9.14568V59.5225H9.73492ZM11.9036 62.3965C11.9036 61.4886 12.553 60.8513 13.4368 60.8513C14.3147 60.8513 14.964 61.4886 14.964 62.3965C14.964 63.3044 14.3147 63.9418 13.4368 63.9418C12.553 63.9418 11.9036 63.3044 11.9036 62.3965ZM12.4748 62.3965C12.4748 63.0098 12.8656 63.4367 13.4368 63.4367C14.002 63.4367 14.3988 63.0098 14.3988 62.3965C14.3988 61.7833 14.002 61.3564 13.4368 61.3564C12.8656 61.3564 12.4748 61.7833 12.4748 62.3965ZM16.0499 63.8696L15.0879 60.9295H15.6711L16.1581 62.4567C16.2242 62.6731 16.2844 62.8956 16.3385 63.1541C16.3866 62.8956 16.4647 62.6491 16.5309 62.4567L17.0239 60.9295H17.6011L18.0881 62.4567C18.1362 62.601 18.2324 62.9437 18.2805 63.1541C18.3286 62.9196 18.3827 62.7152 18.4669 62.4567L18.96 60.9295H19.5492L18.5451 63.8696H18.01L17.4989 62.2943C17.4027 61.9997 17.3426 61.7712 17.3125 61.6089C17.2824 61.7532 17.2283 61.9456 17.1201 62.3003L16.609 63.8696H16.0499ZM22.291 63.8696H21.7018V59.5225H23.3432C24.2752 59.5225 24.8283 60.0156 24.8283 60.8273C24.8283 61.4285 24.5277 61.8614 23.9866 62.0358L24.8704 63.8696H24.215L23.4033 62.15H22.291V63.8696ZM22.291 60.0516V61.6269H23.3492C23.8964 61.6269 24.209 61.3323 24.209 60.8333C24.209 60.3282 23.8844 60.0516 23.3432 60.0516H22.291ZM25.7801 60.232C25.5757 60.232 25.4073 60.0637 25.4073 59.8592C25.4073 59.6488 25.5757 59.4865 25.7801 59.4865C25.9845 59.4865 26.1529 59.6488 26.1529 59.8592C26.1529 60.0637 25.9845 60.232 25.7801 60.232ZM25.5035 63.8696V60.9295H26.0687V63.8696H25.5035ZM26.6127 63.0158H27.1538C27.1538 63.3165 27.3823 63.4968 27.755 63.4968C28.1519 63.4968 28.3804 63.3345 28.3804 63.0639C28.3804 62.8655 28.2842 62.7453 27.9775 62.6671L27.4604 62.5469C26.9373 62.4206 26.6908 62.1621 26.6908 61.7291C26.6908 61.188 27.1478 60.8453 27.7971 60.8453C28.4405 60.8453 28.8614 61.2061 28.8734 61.7652H28.3323C28.3202 61.4706 28.1218 61.2842 27.7791 61.2842C27.4244 61.2842 27.2259 61.4405 27.2259 61.7111C27.2259 61.9095 27.3702 62.0418 27.6588 62.114L28.1759 62.2402C28.675 62.3605 28.9215 62.5889 28.9215 63.0279C28.9215 63.587 28.4405 63.9418 27.743 63.9418C27.0516 63.9418 26.6127 63.575 26.6127 63.0158ZM30.0894 63.8696H29.5242V59.4444H30.0894V62.3124L31.3941 60.9295H32.1036L30.9792 62.1019L32.0976 63.8696H31.4482L30.5884 62.5108L30.0894 63.0339V63.8696Z" fill="white"/>
<path d="M159.283 61.8697C159.283 59.6559 161.078 57.8613 163.292 57.8613H169.304C171.518 57.8613 173.313 59.6559 173.313 61.8697C173.313 64.0835 171.518 65.8781 169.304 65.8781H163.292C161.078 65.8781 159.283 64.0835 159.283 61.8697Z" fill="url(#paint0_linear_1697_35944)" fill-opacity="0.3"/>
<g filter="url(#filter0_dd_1697_35944)">
<circle cx="163.307" cy="61.8803" r="3.00629" fill="white"/>
</g>
<circle cx="163.307" cy="61.88" r="1.0021" fill="#0F1525" fill-opacity="0.3"/>
<path d="M3.63086 82.9015C3.63086 80.0954 3.63086 78.6923 4.17697 77.6205C4.65734 76.6778 5.42385 75.9112 6.36663 75.4309C7.43843 74.8848 8.8415 74.8848 11.6476 74.8848H171.324C174.13 74.8848 175.533 74.8848 176.605 75.4309C177.548 75.9112 178.314 76.6778 178.795 77.6205C179.341 78.6923 179.341 80.0954 179.341 82.9015V87.889C179.341 90.6951 179.341 92.0982 178.795 93.17C178.314 94.1127 177.548 94.8793 176.605 95.3596C175.533 95.9057 174.13 95.9057 171.324 95.9057H11.6476C8.8415 95.9057 7.43843 95.9057 6.36663 95.3596C5.42385 94.8793 4.65734 94.1127 4.17697 93.17C3.63086 92.0982 3.63086 90.6951 3.63086 87.889V82.9015Z" fill="#101010"/>
<path d="M11.6475 75.1357H171.324C172.731 75.1357 173.772 75.1359 174.595 75.2031C175.415 75.2701 175.997 75.4023 176.491 75.6543C177.387 76.1106 178.115 76.8387 178.571 77.7344C178.823 78.229 178.955 78.811 179.022 79.6309C179.09 80.4538 179.09 81.4943 179.09 82.9014V87.8887C179.09 89.2957 179.09 90.3363 179.022 91.1592C178.955 91.9792 178.823 92.5619 178.571 93.0566C178.115 93.9521 177.387 94.6804 176.491 95.1367C175.997 95.3887 175.415 95.5209 174.595 95.5879C173.772 95.6551 172.731 95.6553 171.324 95.6553H11.6475C10.2403 95.6553 9.19986 95.6551 8.37695 95.5879C7.55715 95.5209 6.97508 95.3887 6.48047 95.1367C5.58496 94.6804 4.85676 93.9521 4.40039 93.0566C4.14833 92.5619 4.01622 91.9792 3.94922 91.1592C3.882 90.3363 3.88184 89.2957 3.88184 87.8887V82.9014C3.88184 81.4943 3.88198 80.4538 3.94922 79.6309C4.01622 78.811 4.14835 78.229 4.40039 77.7344C4.85674 76.8387 5.58483 76.1107 6.48047 75.6543C6.97512 75.4023 7.55706 75.2701 8.37695 75.2031C9.19986 75.1359 10.2403 75.1357 11.6475 75.1357Z" stroke="white" stroke-opacity="0.02" stroke-width="0.501049"/>
<path d="M9.72289 86.895H9.14568V82.5479H9.72289L11.22 86.2036L12.7172 82.5479H13.3064V86.895H12.7292V85.1754C12.7292 84.3637 12.7352 84.0691 12.7653 83.7625L11.4966 86.895H10.9434L9.6808 83.7745C9.71086 83.9849 9.72289 84.4299 9.72289 85.0371V86.895ZM14.4629 83.2574C14.2585 83.2574 14.0901 83.0891 14.0901 82.8846C14.0901 82.6742 14.2585 82.5118 14.4629 82.5118C14.6673 82.5118 14.8357 82.6742 14.8357 82.8846C14.8357 83.0891 14.6673 83.2574 14.4629 83.2574ZM14.1863 86.895V83.9549H14.7515V86.895H14.1863ZM16.7144 86.9672C15.8607 86.9672 15.3436 86.3298 15.3436 85.434C15.3436 84.5321 15.8667 83.8707 16.7385 83.8707C17.1894 83.8707 17.5682 84.0691 17.7666 84.4299V82.4698H18.3258V86.895H17.8208L17.7727 86.3599C17.5803 86.7627 17.1834 86.9672 16.7144 86.9672ZM16.8287 86.4561C17.4059 86.4561 17.7606 86.0292 17.7606 85.4159C17.7606 84.8147 17.4059 84.3818 16.8287 84.3818C16.2515 84.3818 15.9148 84.8147 15.9148 85.4159C15.9148 86.0232 16.2515 86.4561 16.8287 86.4561ZM21.3985 86.895H20.8093V82.5479H22.4507C23.3827 82.5479 23.9358 83.041 23.9358 83.8527C23.9358 84.4539 23.6352 84.8868 23.0941 85.0612L23.9779 86.895H23.3226L22.5109 85.1754H21.3985V86.895ZM21.3985 83.077V84.6523H22.4567C23.0039 84.6523 23.3165 84.3577 23.3165 83.8587C23.3165 83.3536 22.9919 83.077 22.4507 83.077H21.3985ZM24.8876 83.2574C24.6832 83.2574 24.5148 83.0891 24.5148 82.8846C24.5148 82.6742 24.6832 82.5118 24.8876 82.5118C25.092 82.5118 25.2604 82.6742 25.2604 82.8846C25.2604 83.0891 25.092 83.2574 24.8876 83.2574ZM24.611 86.895V83.9549H25.1762V86.895H24.611ZM25.7202 86.0412H26.2613C26.2613 86.3419 26.4898 86.5222 26.8626 86.5222C27.2594 86.5222 27.4879 86.3599 27.4879 86.0893C27.4879 85.8909 27.3917 85.7707 27.085 85.6925L26.5679 85.5723C26.0448 85.446 25.7983 85.1874 25.7983 84.7545C25.7983 84.2134 26.2553 83.8707 26.9046 83.8707C27.548 83.8707 27.9689 84.2314 27.9809 84.7906H27.4398C27.4277 84.496 27.2293 84.3096 26.8866 84.3096C26.5319 84.3096 26.3334 84.4659 26.3334 84.7365C26.3334 84.9349 26.4777 85.0672 26.7664 85.1393L27.2834 85.2656C27.7825 85.3859 28.029 85.6143 28.029 86.0533C28.029 86.6124 27.548 86.9672 26.8505 86.9672C26.1591 86.9672 25.7202 86.6004 25.7202 86.0412ZM29.1969 86.895H28.6317V82.4698H29.1969V85.3378L30.5016 83.9549H31.2111L30.0868 85.1273L31.2051 86.895H30.5557L29.6959 85.5362L29.1969 86.0593V86.895Z" fill="white"/>
<path d="M159.283 84.8951C159.283 82.6813 161.078 80.8867 163.292 80.8867H169.304C171.518 80.8867 173.313 82.6813 173.313 84.8951C173.313 87.1089 171.518 88.9035 169.304 88.9035H163.292C161.078 88.9035 159.283 87.1089 159.283 84.8951Z" fill="url(#paint1_linear_1697_35944)"/>
<g filter="url(#filter1_dd_1697_35944)">
<circle cx="169.321" cy="84.9057" r="3.00629" fill="white"/>
</g>
<circle cx="169.32" cy="84.9054" r="1.0021" fill="url(#paint2_linear_1697_35944)"/>
<path d="M3.63086 105.926C3.63086 103.12 3.63086 101.717 4.17697 100.645C4.65734 99.7027 5.42385 98.9362 6.36663 98.4558C7.43843 97.9097 8.8415 97.9097 11.6476 97.9097H171.324C174.13 97.9097 175.533 97.9097 176.605 98.4558C177.548 98.9362 178.314 99.7027 178.795 100.645C179.341 101.717 179.341 103.12 179.341 105.926V110.914C179.341 113.72 179.341 115.123 178.795 116.195C178.314 117.138 177.548 117.904 176.605 118.385C175.533 118.931 174.13 118.931 171.324 118.931H11.6476C8.8415 118.931 7.43843 118.931 6.36663 118.385C5.42385 117.904 4.65734 117.138 4.17697 116.195C3.63086 115.123 3.63086 113.72 3.63086 110.914V105.926Z" fill="#101010"/>
<path d="M11.6475 98.1606H171.324C172.731 98.1606 173.772 98.1608 174.595 98.228C175.415 98.295 175.997 98.4272 176.491 98.6792C177.387 99.1355 178.115 99.8636 178.571 100.759C178.823 101.254 178.955 101.836 179.022 102.656C179.09 103.479 179.09 104.519 179.09 105.926V110.914C179.09 112.321 179.09 113.361 179.022 114.184C178.955 115.004 178.823 115.587 178.571 116.082C178.115 116.977 177.387 117.705 176.491 118.162C175.997 118.414 175.415 118.546 174.595 118.613C173.772 118.68 172.731 118.68 171.324 118.68H11.6475C10.2403 118.68 9.19986 118.68 8.37695 118.613C7.55715 118.546 6.97508 118.414 6.48047 118.162C5.58496 117.705 4.85676 116.977 4.40039 116.082C4.14833 115.587 4.01622 115.004 3.94922 114.184C3.882 113.361 3.88184 112.321 3.88184 110.914V105.926C3.88184 104.519 3.88198 103.479 3.94922 102.656C4.01622 101.836 4.14835 101.254 4.40039 100.759C4.85674 99.8636 5.58483 99.1356 6.48047 98.6792C6.97512 98.4272 7.55706 98.295 8.37695 98.228C9.19986 98.1608 10.2403 98.1606 11.6475 98.1606Z" stroke="white" stroke-opacity="0.02" stroke-width="0.501049"/>
<path d="M9.73492 109.92H9.14568V105.573H9.73492V107.443H11.8874V105.573H12.4767V109.92H11.8874V107.99H9.73492V109.92ZM13.6291 106.282C13.4247 106.282 13.2564 106.114 13.2564 105.91C13.2564 105.699 13.4247 105.537 13.6291 105.537C13.8336 105.537 14.0019 105.699 14.0019 105.91C14.0019 106.114 13.8336 106.282 13.6291 106.282ZM13.3526 109.92V106.98H13.9177V109.92H13.3526ZM14.5158 108.375C14.5158 107.545 15.0509 106.896 15.9047 106.896C16.3797 106.896 16.7465 107.112 16.9329 107.479L16.975 106.98H17.48V109.8C17.48 110.726 16.9088 111.315 16.0069 111.315C15.2073 111.315 14.6601 110.864 14.5519 110.118H15.1171C15.1892 110.551 15.5139 110.804 16.0069 110.804C16.5601 110.804 16.9208 110.443 16.9208 109.884V109.295C16.7284 109.637 16.3436 109.842 15.8807 109.842C15.0449 109.842 14.5158 109.198 14.5158 108.375ZM15.081 108.363C15.081 108.916 15.4237 109.349 15.9769 109.349C16.5481 109.349 16.8968 108.94 16.8968 108.363C16.8968 107.797 16.5601 107.389 15.9829 107.389C15.4177 107.389 15.081 107.822 15.081 108.363ZM18.8248 109.914H18.2596V105.495H18.8248V107.431C19.0112 107.112 19.3659 106.896 19.8229 106.896C20.5744 106.896 20.9352 107.371 20.9352 108.122V109.92H20.37V108.248C20.37 107.653 20.0874 107.413 19.6665 107.413C19.1194 107.413 18.8248 107.81 18.8248 108.315V109.914ZM23.9753 109.92H23.3861V105.573H25.0275C25.9595 105.573 26.5127 106.066 26.5127 106.878C26.5127 107.479 26.212 107.912 25.6709 108.086L26.5547 109.92H25.8994L25.0877 108.2H23.9753V109.92ZM23.9753 106.102V107.677H25.0336C25.5807 107.677 25.8934 107.383 25.8934 106.884C25.8934 106.379 25.5687 106.102 25.0275 106.102H23.9753ZM27.4644 106.282C27.26 106.282 27.0916 106.114 27.0916 105.91C27.0916 105.699 27.26 105.537 27.4644 105.537C27.6689 105.537 27.8372 105.699 27.8372 105.91C27.8372 106.114 27.6689 106.282 27.4644 106.282ZM27.1878 109.92V106.98H27.753V109.92H27.1878ZM28.297 109.066H28.8381C28.8381 109.367 29.0666 109.547 29.4394 109.547C29.8362 109.547 30.0647 109.385 30.0647 109.114C30.0647 108.916 29.9685 108.796 29.6618 108.717L29.1448 108.597C28.6217 108.471 28.3751 108.212 28.3751 107.779C28.3751 107.238 28.8321 106.896 29.4815 106.896C30.1248 106.896 30.5457 107.256 30.5577 107.816H30.0166C30.0046 107.521 29.8061 107.335 29.4634 107.335C29.1087 107.335 28.9103 107.491 28.9103 107.761C28.9103 107.96 29.0546 108.092 29.3432 108.164L29.8602 108.291C30.3593 108.411 30.6058 108.639 30.6058 109.078C30.6058 109.637 30.1248 109.992 29.4273 109.992C28.7359 109.992 28.297 109.625 28.297 109.066ZM31.7737 109.92H31.2085V105.495H31.7737V108.363L33.0784 106.98H33.7879L32.6636 108.152L33.7819 109.92H33.1326L32.2728 108.561L31.7737 109.084V109.92Z" fill="white"/>
<path d="M159.283 107.92C159.283 105.706 161.078 103.912 163.292 103.912H169.304C171.518 103.912 173.313 105.706 173.313 107.92C173.313 110.134 171.518 111.928 169.304 111.928H163.292C161.078 111.928 159.283 110.134 159.283 107.92Z" fill="url(#paint3_linear_1697_35944)" fill-opacity="0.3"/>
<g filter="url(#filter2_dd_1697_35944)">
<circle cx="163.307" cy="107.931" r="3.00629" fill="white"/>
</g>
<circle cx="163.307" cy="107.93" r="1.0021" fill="#0F1525" fill-opacity="0.3"/>
<path d="M143.762 24.7364C143.762 22.4234 143.762 21.2669 144.212 20.3834C144.608 19.6063 145.24 18.9745 146.017 18.5786C146.9 18.1284 148.057 18.1284 150.37 18.1284H246.598C248.911 18.1284 250.067 18.1284 250.951 18.5786C251.728 18.9745 252.36 19.6063 252.756 20.3834C253.206 21.2669 253.206 22.4234 253.206 24.7364V38.7783C253.206 41.0913 253.206 42.2478 252.756 43.1312C252.36 43.9083 251.728 44.5401 250.951 44.9361C250.067 45.3862 248.911 45.3862 246.598 45.3862H150.37C148.057 45.3862 146.9 45.3862 146.017 44.9361C145.24 44.5401 144.608 43.9083 144.212 43.1312C143.762 42.2478 143.762 41.0913 143.762 38.7783V24.7364Z" fill="#101010"/>
<path d="M150.37 18.3345H246.598C247.758 18.3345 248.616 18.3347 249.294 18.3901C249.97 18.4454 250.45 18.5545 250.857 18.7622C251.596 19.1383 252.195 19.739 252.571 20.4771C252.779 20.8848 252.888 21.3647 252.943 22.0405C252.999 22.7188 252.999 23.5769 252.999 24.7368V38.7778C252.999 39.9377 252.999 40.7958 252.943 41.4741C252.888 42.15 252.779 42.6299 252.571 43.0376C252.195 43.7757 251.596 44.3763 250.857 44.7524C250.45 44.9602 249.97 45.0693 249.294 45.1245C248.616 45.1799 247.758 45.1802 246.598 45.1802H150.37C149.21 45.1802 148.352 45.1799 147.674 45.1245C146.998 45.0693 146.518 44.9602 146.11 44.7524C145.372 44.3763 144.772 43.7758 144.396 43.0376C144.188 42.6299 144.079 42.15 144.023 41.4741C143.968 40.7958 143.968 39.9377 143.968 38.7778V24.7368C143.968 23.5769 143.968 22.7188 144.023 22.0405C144.079 21.3647 144.188 20.8848 144.396 20.4771C144.772 19.7388 145.372 19.1384 146.11 18.7622C146.518 18.5545 146.998 18.4454 147.674 18.3901C148.352 18.3347 149.21 18.3345 150.37 18.3345Z" stroke="white" stroke-opacity="0.02" stroke-width="0.412997"/>
<path d="M150.435 27.8882H149.959V24.305H150.435L151.669 27.3182L152.903 24.305H153.389V27.8882H152.913V26.4708C152.913 25.8017 152.918 25.5589 152.943 25.3061L151.897 27.8882H151.441L150.4 25.316C150.425 25.4895 150.435 25.8562 150.435 26.3568V27.8882ZM154.823 27.9477C154.302 27.9477 153.995 27.6553 153.995 27.2142C153.995 26.7681 154.327 26.4906 154.897 26.446L155.66 26.3865V26.3171C155.66 25.9108 155.418 25.767 155.09 25.767C154.699 25.767 154.476 25.9405 154.476 26.2329H154.07C154.07 25.7274 154.486 25.3953 155.11 25.3953C155.71 25.3953 156.116 25.7125 156.116 26.3667V27.8882H155.72L155.67 27.4967C155.546 27.7742 155.214 27.9477 154.823 27.9477ZM154.957 27.5859C155.398 27.5859 155.665 27.2984 155.665 26.8425V26.7136L155.046 26.7632C154.634 26.8028 154.466 26.9614 154.466 27.1993C154.466 27.457 154.654 27.5859 154.957 27.5859ZM156.98 27.8882H156.444L157.292 26.6888L156.449 25.4647H156.989L157.604 26.3667L158.204 25.4647H158.734L157.891 26.6888L158.719 27.8882H158.179L157.574 27.0011L156.98 27.8882ZM159.321 24.8898C159.152 24.8898 159.014 24.7511 159.014 24.5826C159.014 24.4091 159.152 24.2753 159.321 24.2753C159.489 24.2753 159.628 24.4091 159.628 24.5826C159.628 24.7511 159.489 24.8898 159.321 24.8898ZM159.093 27.8882V25.4647H159.559V27.8882H159.093ZM160.671 27.8882H160.205V25.4647H160.622L160.666 25.7819C160.79 25.5539 161.048 25.3953 161.39 25.3953C161.766 25.3953 162.034 25.5837 162.158 25.886C162.272 25.5837 162.564 25.3953 162.941 25.3953C163.496 25.3953 163.833 25.7423 163.833 26.3023V27.8882H163.377V26.4163C163.377 26.0347 163.164 25.8166 162.837 25.8166C162.485 25.8166 162.252 26.0644 162.252 26.451V27.8882H161.791V26.4113C161.791 26.0297 161.583 25.8215 161.256 25.8215C160.904 25.8215 160.671 26.0644 160.671 26.451V27.8882ZM166.124 25.4647H166.585V27.8882H166.169L166.119 27.5214C165.981 27.7742 165.658 27.9477 165.302 27.9477C164.737 27.9477 164.419 27.566 164.419 26.9713V25.4647H164.885V26.8177C164.885 27.3381 165.108 27.5363 165.465 27.5363C165.891 27.5363 166.124 27.2637 166.124 26.7434V25.4647ZM167.697 27.8882H167.231V25.4647H167.648L167.692 25.7819C167.816 25.5539 168.074 25.3953 168.416 25.3953C168.792 25.3953 169.06 25.5837 169.184 25.886C169.298 25.5837 169.59 25.3953 169.967 25.3953C170.522 25.3953 170.859 25.7423 170.859 26.3023V27.8882H170.403V26.4163C170.403 26.0347 170.19 25.8166 169.863 25.8166C169.511 25.8166 169.278 26.0644 169.278 26.451V27.8882H168.817V26.4113C168.817 26.0297 168.609 25.8215 168.282 25.8215C167.93 25.8215 167.697 26.0644 167.697 26.451V27.8882ZM173.366 24.305V27.4372H174.942V27.8882H172.88V24.305H173.366ZM175.153 26.674C175.153 25.9256 175.688 25.4003 176.417 25.4003C177.14 25.4003 177.676 25.9256 177.676 26.674C177.676 27.4223 177.14 27.9477 176.417 27.9477C175.688 27.9477 175.153 27.4223 175.153 26.674ZM175.624 26.674C175.624 27.1795 175.946 27.5314 176.417 27.5314C176.883 27.5314 177.21 27.1795 177.21 26.674C177.21 26.1685 176.883 25.8166 176.417 25.8166C175.946 25.8166 175.624 26.1685 175.624 26.674ZM177.963 27.1844H178.409C178.409 27.4322 178.598 27.5809 178.905 27.5809C179.232 27.5809 179.42 27.4471 179.42 27.2241C179.42 27.0605 179.341 26.9614 179.088 26.897L178.662 26.7979C178.231 26.6938 178.028 26.4807 178.028 26.1239C178.028 25.6778 178.405 25.3953 178.94 25.3953C179.47 25.3953 179.817 25.6927 179.827 26.1536H179.381C179.371 25.9108 179.207 25.7571 178.925 25.7571C178.632 25.7571 178.469 25.886 178.469 26.109C178.469 26.2725 178.588 26.3816 178.826 26.441L179.252 26.5451C179.663 26.6442 179.867 26.8326 179.867 27.1943C179.867 27.6553 179.47 27.9477 178.895 27.9477C178.325 27.9477 177.963 27.6453 177.963 27.1844ZM180.155 27.1844H180.601C180.601 27.4322 180.79 27.5809 181.097 27.5809C181.424 27.5809 181.612 27.4471 181.612 27.2241C181.612 27.0605 181.533 26.9614 181.28 26.897L180.854 26.7979C180.423 26.6938 180.22 26.4807 180.22 26.1239C180.22 25.6778 180.596 25.3953 181.132 25.3953C181.662 25.3953 182.009 25.6927 182.019 26.1536H181.573C181.563 25.9108 181.399 25.7571 181.117 25.7571C180.824 25.7571 180.661 25.886 180.661 26.109C180.661 26.2725 180.78 26.3816 181.018 26.441L181.444 26.5451C181.855 26.6442 182.058 26.8326 182.058 27.1943C182.058 27.6553 181.662 27.9477 181.087 27.9477C180.517 27.9477 180.155 27.6453 180.155 27.1844Z" fill="white"/>
<path d="M151.241 41.0072V40.4389C150.369 40.386 149.794 39.8904 149.754 39.1173H150.415C150.428 39.5402 150.739 39.8178 151.241 39.8706V38.2252L151.003 38.1724C150.224 37.994 149.821 37.5578 149.821 36.8772C149.821 36.1239 150.382 35.5887 151.241 35.516V34.9411H151.664V35.5094C152.464 35.5821 152.972 36.071 153.019 36.8376H152.378C152.351 36.4147 152.094 36.1437 151.664 36.0843V37.723L151.922 37.7825C152.715 37.9609 153.098 38.3772 153.098 39.038C153.098 39.8244 152.536 40.353 151.664 40.4323V41.0072H151.241ZM151.135 37.5975L151.241 37.6239V36.0843C150.752 36.1503 150.455 36.4345 150.455 36.8574C150.455 37.2407 150.673 37.4851 151.135 37.5975ZM151.79 38.3574L151.664 38.331V39.8574C152.16 39.7913 152.464 39.5072 152.464 39.0909C152.464 38.7076 152.246 38.4631 151.79 38.3574ZM156.846 40.3596L153.621 40.3662V39.8706L155.161 38.5424C155.934 37.875 156.152 37.5512 156.152 37.0424C156.152 36.4411 155.808 36.0843 155.233 36.0843C154.645 36.0843 154.262 36.5138 154.249 37.1944H153.601C153.621 36.1702 154.269 35.5028 155.24 35.5028C156.198 35.5028 156.813 36.0843 156.813 37.0028C156.813 37.6834 156.476 38.1658 155.63 38.8992L154.639 39.7583H156.846V40.3596ZM158.517 40.1085C158.517 40.5843 158.161 40.9808 157.691 41.0402V40.7627C157.962 40.7164 158.154 40.538 158.154 40.3332C158.108 40.3596 158.055 40.3728 157.976 40.3728C157.758 40.3728 157.573 40.2142 157.573 39.9697C157.573 39.7054 157.751 39.5138 158.015 39.5138C158.293 39.5138 158.517 39.7451 158.517 40.1085ZM158.976 37.9807C158.976 36.5006 159.742 35.4962 160.945 35.4962C162.141 35.4962 162.907 36.5006 162.907 37.9807C162.907 39.4675 162.174 40.4521 160.945 40.4521C159.709 40.4521 158.976 39.4675 158.976 37.9807ZM159.617 37.9807C159.617 39.157 160.106 39.8706 160.945 39.8706C161.784 39.8706 162.266 39.157 162.266 37.9807C162.266 36.7913 161.784 36.0777 160.945 36.0777C160.106 36.0777 159.617 36.7913 159.617 37.9807ZM163.518 37.9807C163.518 36.5006 164.284 35.4962 165.487 35.4962C166.683 35.4962 167.449 36.5006 167.449 37.9807C167.449 39.4675 166.716 40.4521 165.487 40.4521C164.251 40.4521 163.518 39.4675 163.518 37.9807ZM164.159 37.9807C164.159 39.157 164.648 39.8706 165.487 39.8706C166.326 39.8706 166.809 39.157 166.809 37.9807C166.809 36.7913 166.326 36.0777 165.487 36.0777C164.648 36.0777 164.159 36.7913 164.159 37.9807ZM168.06 37.9807C168.06 36.5006 168.826 35.4962 170.029 35.4962C171.225 35.4962 171.992 36.5006 171.992 37.9807C171.992 39.4675 171.258 40.4521 170.029 40.4521C168.793 40.4521 168.06 39.4675 168.06 37.9807ZM168.701 37.9807C168.701 39.157 169.19 39.8706 170.029 39.8706C170.868 39.8706 171.351 39.157 171.351 37.9807C171.351 36.7913 170.868 36.0777 170.029 36.0777C169.19 36.0777 168.701 36.7913 168.701 37.9807ZM172.919 40.4455C172.661 40.4455 172.443 40.2341 172.443 39.9829C172.443 39.7252 172.661 39.5138 172.919 39.5138C173.17 39.5138 173.388 39.7252 173.388 39.9829C173.388 40.2341 173.17 40.4455 172.919 40.4455ZM173.846 37.9807C173.846 36.5006 174.613 35.4962 175.816 35.4962C177.012 35.4962 177.778 36.5006 177.778 37.9807C177.778 39.4675 177.045 40.4521 175.816 40.4521C174.58 40.4521 173.846 39.4675 173.846 37.9807ZM174.487 37.9807C174.487 39.157 174.976 39.8706 175.816 39.8706C176.655 39.8706 177.137 39.157 177.137 37.9807C177.137 36.7913 176.655 36.0777 175.816 36.0777C174.976 36.0777 174.487 36.7913 174.487 37.9807ZM178.388 37.9807C178.388 36.5006 179.155 35.4962 180.358 35.4962C181.554 35.4962 182.32 36.5006 182.32 37.9807C182.32 39.4675 181.587 40.4521 180.358 40.4521C179.122 40.4521 178.388 39.4675 178.388 37.9807ZM179.029 37.9807C179.029 39.157 179.518 39.8706 180.358 39.8706C181.197 39.8706 181.679 39.157 181.679 37.9807C181.679 36.7913 181.197 36.0777 180.358 36.0777C179.518 36.0777 179.029 36.7913 179.029 37.9807Z" fill="#EA4335"/>
<path d="M197.453 6.97709C197.453 4.66409 197.453 3.50759 197.903 2.62414C198.299 1.84704 198.931 1.21523 199.708 0.81928C200.592 0.369141 201.748 0.369141 204.061 0.369141H300.289C302.602 0.369141 303.759 0.369141 304.642 0.81928C305.419 1.21523 306.051 1.84704 306.447 2.62414C306.897 3.50759 306.897 4.66409 306.897 6.97709V21.019C306.897 23.332 306.897 24.4885 306.447 25.3719C306.051 26.149 305.419 26.7808 304.642 27.1768C303.759 27.6269 302.602 27.6269 300.289 27.6269H204.061C201.748 27.6269 200.592 27.6269 199.708 27.1768C198.931 26.7808 198.299 26.149 197.903 25.3719C197.453 24.4885 197.453 23.332 197.453 21.019V6.97709Z" fill="#101010"/>
<path d="M204.062 0.575195H300.289C301.449 0.575195 302.307 0.575438 302.985 0.630859C303.661 0.686089 304.141 0.795188 304.549 1.00293C305.287 1.37904 305.887 1.97968 306.263 2.71777C306.47 3.12551 306.58 3.60541 306.635 4.28125C306.69 4.95957 306.69 5.81763 306.69 6.97754V21.0186C306.69 22.1785 306.69 23.0365 306.635 23.7148C306.58 24.3907 306.47 24.8706 306.263 25.2783C305.887 26.0164 305.287 26.6171 304.549 26.9932C304.141 27.2009 303.661 27.31 302.985 27.3652C302.307 27.4207 301.449 27.4209 300.289 27.4209H204.062C202.902 27.4209 202.044 27.4207 201.365 27.3652C200.689 27.31 200.209 27.2009 199.802 26.9932C199.064 26.617 198.463 26.0166 198.087 25.2783C197.879 24.8706 197.77 24.3907 197.715 23.7148C197.659 23.0365 197.659 22.1785 197.659 21.0186V6.97754C197.659 5.81763 197.659 4.95957 197.715 4.28125C197.77 3.6054 197.879 3.12551 198.087 2.71777C198.463 1.97953 199.064 1.37909 199.802 1.00293C200.209 0.795187 200.689 0.686083 201.365 0.630859C202.044 0.575438 202.902 0.575195 204.062 0.575195Z" stroke="white" stroke-opacity="0.02" stroke-width="0.412997"/>
<path d="M205.043 8.85027H204.136V10.1289H203.651V6.54575H205.043C205.747 6.54575 206.198 7.00665 206.198 7.69553C206.198 8.36458 205.742 8.85027 205.043 8.85027ZM204.959 6.98187H204.136V8.41414H204.939C205.42 8.41414 205.688 8.13165 205.688 7.69057C205.688 7.23958 205.415 6.98187 204.959 6.98187ZM208.027 7.68562V8.11183H207.819C207.378 8.11183 207.105 8.37945 207.105 8.84531V10.1289H206.639V7.7104H207.075L207.105 8.07714C207.204 7.82438 207.447 7.65588 207.779 7.65588C207.863 7.65588 207.933 7.66579 208.027 7.68562ZM208.188 8.9147C208.188 8.16634 208.724 7.64101 209.452 7.64101C210.176 7.64101 210.711 8.16634 210.711 8.9147C210.711 9.66305 210.176 10.1884 209.452 10.1884C208.724 10.1884 208.188 9.66305 208.188 8.9147ZM208.659 8.9147C208.659 9.4202 208.981 9.77208 209.452 9.77208C209.918 9.77208 210.245 9.4202 210.245 8.9147C210.245 8.40919 209.918 8.05731 209.452 8.05731C208.981 8.05731 208.659 8.40919 208.659 8.9147ZM211.857 10.1289H211.391V8.09696H210.915V7.70544H211.391V6.94718H211.857V7.70544H212.332V8.09696H211.857V10.1289ZM213.742 10.1884C213.029 10.1884 212.538 9.67296 212.538 8.91965C212.538 8.16139 213.019 7.63606 213.722 7.63606C214.411 7.63606 214.862 8.11183 214.862 8.83044V9.0039L212.989 9.00886C213.024 9.51932 213.291 9.80181 213.752 9.80181C214.114 9.80181 214.352 9.65313 214.431 9.3756H214.867C214.748 9.89598 214.342 10.1884 213.742 10.1884ZM213.722 8.02758C213.316 8.02758 213.058 8.27042 212.999 8.69663H214.396C214.396 8.2952 214.134 8.02758 213.722 8.02758ZM215.819 10.1289H215.353V7.70544H215.774L215.824 8.07714C215.977 7.7996 216.285 7.63606 216.627 7.63606C217.266 7.63606 217.558 8.02758 217.558 8.64707V10.1289H217.092V8.75115C217.092 8.26051 216.864 8.06227 216.508 8.06227C216.071 8.06227 215.819 8.3745 215.819 8.84531V10.1289ZM218.858 10.1289H218.392V8.09696H217.916V7.70544H218.392V6.94718H218.858V7.70544H219.333V8.09696H218.858V10.1289ZM219.95 7.13055C219.781 7.13055 219.642 6.99178 219.642 6.82328C219.642 6.64982 219.781 6.51601 219.95 6.51601C220.118 6.51601 220.257 6.64982 220.257 6.82328C220.257 6.99178 220.118 7.13055 219.95 7.13055ZM219.722 10.1289V7.70544H220.188V10.1289H219.722ZM220.676 8.9147C220.676 8.16634 221.211 7.64101 221.939 7.64101C222.663 7.64101 223.198 8.16634 223.198 8.9147C223.198 9.66305 222.663 10.1884 221.939 10.1884C221.211 10.1884 220.676 9.66305 220.676 8.9147ZM221.146 8.9147C221.146 9.4202 221.469 9.77208 221.939 9.77208C222.405 9.77208 222.732 9.4202 222.732 8.9147C222.732 8.40919 222.405 8.05731 221.939 8.05731C221.469 8.05731 221.146 8.40919 221.146 8.9147ZM224.15 10.1289H223.684V7.70544H224.105L224.155 8.07714C224.309 7.7996 224.616 7.63606 224.958 7.63606C225.597 7.63606 225.89 8.02758 225.89 8.64707V10.1289H225.424V8.75115C225.424 8.26051 225.196 8.06227 224.839 8.06227C224.403 8.06227 224.15 8.3745 224.15 8.84531V10.1289ZM227.214 10.1884C226.693 10.1884 226.386 9.89598 226.386 9.4549C226.386 9.00886 226.718 8.73132 227.288 8.68672L228.051 8.62725V8.55787C228.051 8.15148 227.809 8.00775 227.481 8.00775C227.09 8.00775 226.867 8.18121 226.867 8.47361H226.46C226.46 7.96811 226.877 7.63606 227.501 7.63606C228.101 7.63606 228.507 7.95324 228.507 8.60743V10.1289H228.111L228.061 9.73739C227.937 10.0149 227.605 10.1884 227.214 10.1884ZM227.348 9.82659C227.789 9.82659 228.056 9.53915 228.056 9.0832V8.95434L227.437 9.0039C227.025 9.04355 226.857 9.20214 226.857 9.44003C226.857 9.69774 227.045 9.82659 227.348 9.82659ZM229.599 10.1289H229.133V6.48132H229.599V10.1289ZM233.052 8.85027H232.145V10.1289H231.659V6.54575H233.052C233.756 6.54575 234.207 7.00665 234.207 7.69553C234.207 8.36458 233.751 8.85027 233.052 8.85027ZM232.968 6.98187H232.145V8.41414H232.948C233.429 8.41414 233.696 8.13165 233.696 7.69057C233.696 7.23958 233.424 6.98187 232.968 6.98187ZM236.035 7.68562V8.11183H235.827C235.386 8.11183 235.114 8.37945 235.114 8.84531V10.1289H234.648V7.7104H235.084L235.114 8.07714C235.213 7.82438 235.456 7.65588 235.788 7.65588C235.872 7.65588 235.941 7.66579 236.035 7.68562ZM236.197 8.9147C236.197 8.16634 236.732 7.64101 237.461 7.64101C238.184 7.64101 238.719 8.16634 238.719 8.9147C238.719 9.66305 238.184 10.1884 237.461 10.1884C236.732 10.1884 236.197 9.66305 236.197 8.9147ZM236.668 8.9147C236.668 9.4202 236.99 9.77208 237.461 9.77208C237.927 9.77208 238.254 9.4202 238.254 8.9147C238.254 8.40919 237.927 8.05731 237.461 8.05731C236.99 8.05731 236.668 8.40919 236.668 8.9147ZM240.831 10.1289V8.09696H239.756V10.1289H239.29V8.09696H238.933V7.70544H239.29V7.31888C239.29 6.72416 239.612 6.48132 240.033 6.48132C240.123 6.48132 240.232 6.48627 240.321 6.50114V6.90257H240.113C239.83 6.90257 239.756 7.05621 239.756 7.31888V7.70544H241.297V10.1289H240.831ZM241.064 7.11072C240.896 7.11072 240.767 6.98187 240.767 6.81337C240.767 6.64486 240.896 6.51601 241.064 6.51601C241.228 6.51601 241.357 6.64486 241.357 6.81337C241.357 6.98187 241.228 7.11072 241.064 7.11072ZM242.613 10.1289H242.148V8.09696H241.672V7.70544H242.148V6.94718H242.613V7.70544H243.089V8.09696H242.613V10.1289Z" fill="white"/>
<path d="M204.933 23.2479V22.6796C204.06 22.6268 203.485 22.1312 203.446 21.358H204.107C204.12 21.7809 204.43 22.0585 204.933 22.1113V20.466L204.695 20.4131C203.915 20.2347 203.512 19.7986 203.512 19.1179C203.512 18.3646 204.074 17.8294 204.933 17.7567V17.1818H205.356V17.7501C206.155 17.8228 206.664 18.3118 206.71 19.0783H206.069C206.043 18.6554 205.785 18.3845 205.356 18.325V19.9638L205.613 20.0232C206.406 20.2016 206.789 20.6179 206.789 21.2787C206.789 22.0651 206.228 22.5937 205.356 22.673V23.2479H204.933ZM204.827 19.8382L204.933 19.8646V18.325C204.444 18.3911 204.146 18.6752 204.146 19.0981C204.146 19.4814 204.364 19.7259 204.827 19.8382ZM205.481 20.5981L205.356 20.5717V22.0981C205.851 22.032 206.155 21.7479 206.155 21.3316C206.155 20.9483 205.937 20.7038 205.481 20.5981ZM208.938 22.6862C207.96 22.6862 207.326 22.0651 207.326 21.1135H207.967C207.967 21.7281 208.343 22.1047 208.951 22.1047C209.599 22.1047 210.015 21.6752 210.015 21.0276C210.015 20.4131 209.625 19.9571 208.958 19.9571C208.555 19.9571 208.185 20.1488 207.967 20.4197L207.418 20.2809L208 17.8294H210.392V18.4241H208.469L208.152 19.6928C208.403 19.5012 208.72 19.4021 209.077 19.4021C210.048 19.4021 210.676 20.0827 210.676 21.0012C210.676 21.9924 209.969 22.6862 208.938 22.6862ZM212.112 22.3492C212.112 22.825 211.755 23.2215 211.286 23.2809V23.0034C211.557 22.9572 211.749 22.7787 211.749 22.5739C211.702 22.6003 211.649 22.6135 211.57 22.6135C211.352 22.6135 211.167 22.455 211.167 22.2105C211.167 21.9461 211.346 21.7545 211.61 21.7545C211.887 21.7545 212.112 21.9858 212.112 22.3492ZM212.57 20.2215C212.57 18.7413 213.337 17.7369 214.539 17.7369C215.736 17.7369 216.502 18.7413 216.502 20.2215C216.502 21.7083 215.769 22.6928 214.539 22.6928C213.304 22.6928 212.57 21.7083 212.57 20.2215ZM213.211 20.2215C213.211 21.3977 213.7 22.1113 214.539 22.1113C215.379 22.1113 215.861 21.3977 215.861 20.2215C215.861 19.032 215.379 18.3184 214.539 18.3184C213.7 18.3184 213.211 19.032 213.211 20.2215ZM217.112 20.2215C217.112 18.7413 217.879 17.7369 219.082 17.7369C220.278 17.7369 221.044 18.7413 221.044 20.2215C221.044 21.7083 220.311 22.6928 219.082 22.6928C217.846 22.6928 217.112 21.7083 217.112 20.2215ZM217.753 20.2215C217.753 21.3977 218.242 22.1113 219.082 22.1113C219.921 22.1113 220.403 21.3977 220.403 20.2215C220.403 19.032 219.921 18.3184 219.082 18.3184C218.242 18.3184 217.753 19.032 217.753 20.2215ZM221.654 20.2215C221.654 18.7413 222.421 17.7369 223.624 17.7369C224.82 17.7369 225.586 18.7413 225.586 20.2215C225.586 21.7083 224.853 22.6928 223.624 22.6928C222.388 22.6928 221.654 21.7083 221.654 20.2215ZM222.295 20.2215C222.295 21.3977 222.784 22.1113 223.624 22.1113C224.463 22.1113 224.945 21.3977 224.945 20.2215C224.945 19.032 224.463 18.3184 223.624 18.3184C222.784 18.3184 222.295 19.032 222.295 20.2215ZM226.514 22.6862C226.256 22.6862 226.038 22.4748 226.038 22.2237C226.038 21.966 226.256 21.7545 226.514 21.7545C226.765 21.7545 226.983 21.966 226.983 22.2237C226.983 22.4748 226.765 22.6862 226.514 22.6862ZM227.441 20.2215C227.441 18.7413 228.207 17.7369 229.41 17.7369C230.606 17.7369 231.373 18.7413 231.373 20.2215C231.373 21.7083 230.639 22.6928 229.41 22.6928C228.174 22.6928 227.441 21.7083 227.441 20.2215ZM228.082 20.2215C228.082 21.3977 228.571 22.1113 229.41 22.1113C230.249 22.1113 230.732 21.3977 230.732 20.2215C230.732 19.032 230.249 18.3184 229.41 18.3184C228.571 18.3184 228.082 19.032 228.082 20.2215ZM231.983 20.2215C231.983 18.7413 232.75 17.7369 233.952 17.7369C235.148 17.7369 235.915 18.7413 235.915 20.2215C235.915 21.7083 235.181 22.6928 233.952 22.6928C232.716 22.6928 231.983 21.7083 231.983 20.2215ZM232.624 20.2215C232.624 21.3977 233.113 22.1113 233.952 22.1113C234.791 22.1113 235.274 21.3977 235.274 20.2215C235.274 19.032 234.791 18.3184 233.952 18.3184C233.113 18.3184 232.624 19.032 232.624 20.2215Z" fill="#3EDC81"/>
<path d="M188.396 64.9195C188.396 62.9533 189.99 61.3594 191.957 61.3594H309.44C311.406 61.3594 313 62.9533 313 64.9195V84.144C313 86.1102 311.406 87.7041 309.44 87.7041H191.957C189.99 87.7041 188.396 86.1102 188.396 84.144V64.9195Z" fill="#101010"/>
<path d="M191.957 61.5371H309.439C311.307 61.5371 312.822 63.052 312.822 64.9199V84.1436C312.822 86.0114 311.307 87.5264 309.439 87.5264H191.957C190.089 87.5264 188.574 86.0114 188.574 84.1436V64.9199C188.574 63.052 190.089 61.5371 191.957 61.5371Z" stroke="white" stroke-opacity="0.02" stroke-width="0.35601"/>
<path d="M194.487 70.0578H193.575V71.3438H193.087V67.7402H194.487C195.195 67.7402 195.648 68.2037 195.648 68.8965C195.648 69.5694 195.19 70.0578 194.487 70.0578ZM194.402 68.1788H193.575V69.6192H194.383C194.866 69.6192 195.135 69.3351 195.135 68.8916C195.135 68.438 194.861 68.1788 194.402 68.1788ZM197.488 68.8866V69.3152H197.278C196.835 69.3152 196.561 69.5843 196.561 70.0529V71.3438H196.092V68.9115H196.531L196.561 69.2803C196.66 69.0261 196.904 68.8567 197.238 68.8567C197.323 68.8567 197.393 68.8666 197.488 68.8866ZM197.65 70.1226C197.65 69.37 198.188 68.8417 198.921 68.8417C199.649 68.8417 200.187 69.37 200.187 70.1226C200.187 70.8752 199.649 71.4036 198.921 71.4036C198.188 71.4036 197.65 70.8752 197.65 70.1226ZM198.124 70.1226C198.124 70.631 198.448 70.9849 198.921 70.9849C199.39 70.9849 199.718 70.631 199.718 70.1226C199.718 69.6143 199.39 69.2604 198.921 69.2604C198.448 69.2604 198.124 69.6143 198.124 70.1226ZM202.311 71.3438V69.3003H201.229V71.3438H200.761V69.3003H200.402V68.9065H200.761V68.5177C200.761 67.9196 201.085 67.6754 201.508 67.6754C201.598 67.6754 201.708 67.6804 201.797 67.6954V68.0991H201.588C201.304 68.0991 201.229 68.2536 201.229 68.5177V68.9065H202.779V71.3438H202.311ZM202.545 68.3084C202.376 68.3084 202.246 68.1788 202.246 68.0094C202.246 67.8399 202.376 67.7103 202.545 67.7103C202.71 67.7103 202.839 67.8399 202.839 68.0094C202.839 68.1788 202.71 68.3084 202.545 68.3084ZM204.103 71.3438H203.635V69.3003H203.156V68.9065H203.635V68.1439H204.103V68.9065H204.582V69.3003H204.103V71.3438ZM206.036 68.1888V67.7402H208.692V68.1888H207.611V71.3438H207.122V68.1888H206.036ZM209.392 71.4036C208.869 71.4036 208.56 71.1095 208.56 70.6659C208.56 70.2173 208.894 69.9382 209.467 69.8934L210.235 69.8336V69.7638C210.235 69.3551 209.99 69.2105 209.662 69.2105C209.268 69.2105 209.043 69.385 209.043 69.679H208.635C208.635 69.1707 209.053 68.8367 209.681 68.8367C210.285 68.8367 210.693 69.1557 210.693 69.8136V71.3438H210.295L210.245 70.95C210.12 71.2291 209.786 71.4036 209.392 71.4036ZM209.527 71.0397C209.971 71.0397 210.24 70.7506 210.24 70.2921V70.1625L209.617 70.2123C209.203 70.2522 209.034 70.4117 209.034 70.651C209.034 70.9101 209.223 71.0397 209.527 71.0397ZM212.708 68.8866V69.3152H212.498C212.055 69.3152 211.781 69.5843 211.781 70.0529V71.3438H211.312V68.9115H211.751L211.781 69.2803C211.88 69.0261 212.125 68.8567 212.459 68.8567C212.543 68.8567 212.613 68.8666 212.708 68.8866ZM212.909 70.0628C212.909 69.375 213.353 68.8367 214.061 68.8367C214.454 68.8367 214.758 69.0162 214.913 69.3202L214.948 68.9065H215.366V71.2441C215.366 72.0116 214.893 72.5001 214.145 72.5001C213.482 72.5001 213.029 72.1263 212.939 71.5082H213.408C213.467 71.8671 213.737 72.0764 214.145 72.0764C214.604 72.0764 214.903 71.7774 214.903 71.3138V70.8254C214.743 71.1095 214.424 71.279 214.041 71.279C213.348 71.279 212.909 70.7457 212.909 70.0628ZM213.378 70.0529C213.378 70.5114 213.662 70.8703 214.12 70.8703C214.594 70.8703 214.883 70.5313 214.883 70.0529C214.883 69.5843 214.604 69.2454 214.125 69.2454C213.657 69.2454 213.378 69.6043 213.378 70.0529ZM217.064 71.4036C216.347 71.4036 215.853 70.8852 215.853 70.1276C215.853 69.365 216.337 68.8367 217.044 68.8367C217.737 68.8367 218.191 69.3152 218.191 70.0379V70.2123L216.307 70.2173C216.342 70.7307 216.611 71.0148 217.074 71.0148C217.438 71.0148 217.677 70.8653 217.757 70.5862H218.196C218.076 71.1095 217.667 71.4036 217.064 71.4036ZM217.044 69.2305C216.636 69.2305 216.376 69.4747 216.317 69.9033H217.722C217.722 69.4996 217.458 69.2305 217.044 69.2305ZM219.348 71.3438H218.879V69.3003H218.401V68.9065H218.879V68.1439H219.348V68.9065H219.826V69.3003H219.348V71.3438Z" fill="white"/>
<path d="M288.824 72.7581V72.3907C288.261 72.3566 287.889 72.0362 287.863 71.5363H288.29C288.299 71.8097 288.5 71.9892 288.824 72.0233V70.9596L288.671 70.9254C288.167 70.8101 287.906 70.5281 287.906 70.0881C287.906 69.601 288.269 69.255 288.824 69.208V68.8363H289.098V69.2037C289.615 69.2507 289.944 69.5669 289.974 70.0624H289.559C289.542 69.789 289.376 69.6139 289.098 69.5754V70.6349L289.265 70.6734C289.777 70.7887 290.025 71.0578 290.025 71.4851C290.025 71.9934 289.662 72.3352 289.098 72.3865V72.7581H288.824ZM288.756 70.5537L288.824 70.5708V69.5754C288.508 69.6181 288.316 69.8018 288.316 70.0753C288.316 70.323 288.457 70.4811 288.756 70.5537ZM289.179 71.045L289.098 71.0279V72.0148C289.418 71.9721 289.615 71.7884 289.615 71.5192C289.615 71.2714 289.474 71.1134 289.179 71.045ZM291.354 72.395C290.722 72.395 290.312 71.9934 290.312 71.3783H290.726C290.726 71.7756 290.97 72.0191 291.363 72.0191C291.781 72.0191 292.051 71.7414 292.051 71.3227C292.051 70.9254 291.799 70.6306 291.367 70.6306C291.106 70.6306 290.867 70.7545 290.726 70.9297L290.372 70.84L290.748 69.255H292.294V69.6395H291.051L290.846 70.4597C291.008 70.3359 291.213 70.2718 291.444 70.2718C292.072 70.2718 292.478 70.7118 292.478 71.3056C292.478 71.9464 292.021 72.395 291.354 72.395ZM293.346 72.1771C293.346 72.4847 293.116 72.7411 292.812 72.7795V72.6001C292.988 72.5702 293.112 72.4548 293.112 72.3224C293.082 72.3395 293.047 72.348 292.996 72.348C292.855 72.348 292.736 72.2455 292.736 72.0874C292.736 71.9165 292.851 71.7926 293.022 71.7926C293.201 71.7926 293.346 71.9422 293.346 72.1771ZM293.583 70.8015C293.583 69.8446 294.079 69.1952 294.856 69.1952C295.629 69.1952 296.125 69.8446 296.125 70.8015C296.125 71.7627 295.651 72.3993 294.856 72.3993C294.057 72.3993 293.583 71.7627 293.583 70.8015ZM293.997 70.8015C293.997 71.562 294.313 72.0233 294.856 72.0233C295.399 72.0233 295.71 71.562 295.71 70.8015C295.71 70.0325 295.399 69.5711 294.856 69.5711C294.313 69.5711 293.997 70.0325 293.997 70.8015ZM296.46 70.8015C296.46 69.8446 296.955 69.1952 297.733 69.1952C298.506 69.1952 299.002 69.8446 299.002 70.8015C299.002 71.7627 298.527 72.3993 297.733 72.3993C296.934 72.3993 296.46 71.7627 296.46 70.8015ZM296.874 70.8015C296.874 71.562 297.19 72.0233 297.733 72.0233C298.275 72.0233 298.587 71.562 298.587 70.8015C298.587 70.0325 298.275 69.5711 297.733 69.5711C297.19 69.5711 296.874 70.0325 296.874 70.8015ZM299.336 70.8015C299.336 69.8446 299.832 69.1952 300.609 69.1952C301.383 69.1952 301.878 69.8446 301.878 70.8015C301.878 71.7627 301.404 72.3993 300.609 72.3993C299.81 72.3993 299.336 71.7627 299.336 70.8015ZM299.751 70.8015C299.751 71.562 300.067 72.0233 300.609 72.0233C301.152 72.0233 301.464 71.562 301.464 70.8015C301.464 70.0325 301.152 69.5711 300.609 69.5711C300.067 69.5711 299.751 70.0325 299.751 70.8015ZM302.418 72.395C302.251 72.395 302.11 72.2583 302.11 72.096C302.11 71.9294 302.251 71.7926 302.418 71.7926C302.58 71.7926 302.721 71.9294 302.721 72.096C302.721 72.2583 302.58 72.395 302.418 72.395ZM302.958 70.8015C302.958 69.8446 303.453 69.1952 304.231 69.1952C305.004 69.1952 305.5 69.8446 305.5 70.8015C305.5 71.7627 305.025 72.3993 304.231 72.3993C303.432 72.3993 302.958 71.7627 302.958 70.8015ZM303.372 70.8015C303.372 71.562 303.688 72.0233 304.231 72.0233C304.773 72.0233 305.085 71.562 305.085 70.8015C305.085 70.0325 304.773 69.5711 304.231 69.5711C303.688 69.5711 303.372 70.0325 303.372 70.8015ZM305.834 70.8015C305.834 69.8446 306.33 69.1952 307.108 69.1952C307.881 69.1952 308.376 69.8446 308.376 70.8015C308.376 71.7627 307.902 72.3993 307.108 72.3993C306.309 72.3993 305.834 71.7627 305.834 70.8015ZM306.249 70.8015C306.249 71.562 306.565 72.0233 307.108 72.0233C307.65 72.0233 307.962 71.562 307.962 70.8015C307.962 70.0325 307.65 69.5711 307.108 69.5711C306.565 69.5711 306.249 70.0325 306.249 70.8015Z" fill="#3EDC81"/>
<rect x="192.668" y="79.48" width="99.6828" height="2.84808" rx="1.42404" fill="white" fill-opacity="0.2"/>
<rect x="198.334" y="78.7676" width="4.27212" height="4.27212" rx="2.13606" fill="#3EDC81"/>
<circle cx="200.47" cy="80.9035" r="1.06803" fill="#486160"/>
<path d="M301.198 80.191H300.549V79.8151H301.6V82.9038H301.198V80.191ZM302.079 81.3616C302.079 80.4046 302.575 79.7553 303.352 79.7553C304.125 79.7553 304.621 80.4046 304.621 81.3616C304.621 82.3228 304.147 82.9593 303.352 82.9593C302.553 82.9593 302.079 82.3228 302.079 81.3616ZM302.493 81.3616C302.493 82.122 302.81 82.5834 303.352 82.5834C303.895 82.5834 304.207 82.122 304.207 81.3616C304.207 80.5926 303.895 80.1312 303.352 80.1312C302.81 80.1312 302.493 80.5926 302.493 81.3616ZM306.485 80.5456C306.485 81.0027 306.161 81.3317 305.703 81.3317C305.251 81.3317 304.926 81.0027 304.926 80.5456C304.926 80.0842 305.251 79.7553 305.703 79.7553C306.161 79.7553 306.485 80.0842 306.485 80.5456ZM308.113 79.8193L305.767 82.9038H305.357L307.703 79.8193H308.113ZM306.156 80.5456C306.156 80.2679 305.973 80.0757 305.703 80.0757C305.439 80.0757 305.255 80.2679 305.255 80.5456C305.255 80.819 305.439 81.0113 305.703 81.0113C305.968 81.0113 306.156 80.819 306.156 80.5456ZM308.553 82.1733C308.553 82.6304 308.224 82.9593 307.771 82.9593C307.318 82.9593 306.989 82.6304 306.989 82.1733C306.989 81.7119 307.318 81.3872 307.771 81.3872C308.224 81.3872 308.553 81.7119 308.553 82.1733ZM308.22 82.1733C308.22 81.8956 308.04 81.7033 307.771 81.7033C307.506 81.7033 307.323 81.8956 307.323 82.1733C307.323 82.4467 307.506 82.6389 307.771 82.6389C308.036 82.6389 308.22 82.4467 308.22 82.1733Z" fill="#3EDC81"/>
<path d="M132.145 93.7569C132.145 91.7907 133.738 90.1968 135.705 90.1968H253.188C255.154 90.1968 256.748 91.7907 256.748 93.7569V112.981C256.748 114.948 255.154 116.542 253.188 116.542H135.705C133.738 116.542 132.145 114.948 132.145 112.981V93.7569Z" fill="#101010"/>
<path d="M135.705 90.3745H253.188C255.055 90.3745 256.57 91.8894 256.57 93.7573V112.981C256.57 114.849 255.055 116.364 253.188 116.364H135.705C133.837 116.364 132.322 114.849 132.322 112.981V93.7573C132.322 91.8894 133.837 90.3745 135.705 90.3745Z" stroke="white" stroke-opacity="0.02" stroke-width="0.35601"/>
<path d="M137.313 100.181H136.835V96.5776H137.313L138.554 99.608L139.795 96.5776H140.284V100.181H139.805V98.7557C139.805 98.0828 139.81 97.8386 139.835 97.5844L138.783 100.181H138.325L137.278 97.5944C137.303 97.7688 137.313 98.1377 137.313 98.6411V100.181ZM141.726 100.241C141.203 100.241 140.894 99.9469 140.894 99.5033C140.894 99.0547 141.227 98.7756 141.801 98.7308L142.568 98.671V98.6012C142.568 98.1925 142.324 98.0479 141.995 98.0479C141.601 98.0479 141.377 98.2224 141.377 98.5164H140.968C140.968 98.0081 141.387 97.6741 142.015 97.6741C142.618 97.6741 143.027 97.9931 143.027 98.651V100.181H142.628L142.578 99.7874C142.454 100.067 142.12 100.241 141.726 100.241ZM141.86 99.8771C142.304 99.8771 142.573 99.588 142.573 99.1295V98.9999L141.95 99.0498C141.536 99.0896 141.367 99.2491 141.367 99.4884C141.367 99.7475 141.556 99.8771 141.86 99.8771ZM143.895 100.181H143.357L144.209 98.975L143.362 97.7439H143.905L144.523 98.651L145.126 97.7439H145.659L144.812 98.975L145.644 100.181H145.101L144.493 99.289L143.895 100.181ZM146.249 97.1657C146.08 97.1657 145.94 97.0262 145.94 96.8567C145.94 96.6823 146.08 96.5477 146.249 96.5477C146.419 96.5477 146.559 96.6823 146.559 96.8567C146.559 97.0262 146.419 97.1657 146.249 97.1657ZM146.02 100.181V97.7439H146.489V100.181H146.02ZM147.608 100.181H147.139V97.7439H147.558L147.603 98.0629C147.727 97.8336 147.986 97.6741 148.33 97.6741C148.709 97.6741 148.978 97.8635 149.103 98.1676C149.217 97.8635 149.511 97.6741 149.89 97.6741C150.448 97.6741 150.787 98.023 150.787 98.5862V100.181H150.329V98.7009C150.329 98.3171 150.115 98.0978 149.786 98.0978C149.432 98.0978 149.197 98.347 149.197 98.7358V100.181H148.734V98.6959C148.734 98.3121 148.525 98.1028 148.196 98.1028C147.842 98.1028 147.608 98.347 147.608 98.7358V100.181ZM153.092 97.7439H153.555V100.181H153.136L153.087 99.8123C152.947 100.067 152.623 100.241 152.264 100.241C151.696 100.241 151.377 99.8572 151.377 99.2591V97.7439H151.846V99.1046C151.846 99.6279 152.07 99.8273 152.429 99.8273C152.857 99.8273 153.092 99.5532 153.092 99.0298V97.7439ZM154.673 100.181H154.205V97.7439H154.624L154.668 98.0629C154.793 97.8336 155.052 97.6741 155.396 97.6741C155.775 97.6741 156.044 97.8635 156.169 98.1676C156.283 97.8635 156.577 97.6741 156.956 97.6741C157.514 97.6741 157.853 98.023 157.853 98.5862V100.181H157.395V98.7009C157.395 98.3171 157.18 98.0978 156.852 98.0978C156.498 98.0978 156.263 98.347 156.263 98.7358V100.181H155.8V98.6959C155.8 98.3121 155.591 98.1028 155.262 98.1028C154.908 98.1028 154.673 98.347 154.673 98.7358V100.181ZM160.374 100.181H159.886V96.5776H161.246C162.019 96.5776 162.477 96.9863 162.477 97.6592C162.477 98.1576 162.228 98.5164 161.78 98.661L162.512 100.181H161.969L161.296 98.7557H160.374V100.181ZM160.374 97.0162V98.3221H161.251C161.705 98.3221 161.964 98.0778 161.964 97.6642C161.964 97.2455 161.695 97.0162 161.246 97.0162H160.374ZM163.266 97.1657C163.097 97.1657 162.957 97.0262 162.957 96.8567C162.957 96.6823 163.097 96.5477 163.266 96.5477C163.436 96.5477 163.575 96.6823 163.575 96.8567C163.575 97.0262 163.436 97.1657 163.266 97.1657ZM163.037 100.181V97.7439H163.506V100.181H163.037ZM163.956 99.4734H164.405C164.405 99.7226 164.594 99.8721 164.903 99.8721C165.232 99.8721 165.422 99.7376 165.422 99.5133C165.422 99.3488 165.342 99.2491 165.088 99.1843L164.659 99.0846C164.226 98.98 164.021 98.7657 164.021 98.4068C164.021 97.9582 164.4 97.6741 164.938 97.6741C165.472 97.6741 165.821 97.9732 165.831 98.4367H165.382C165.372 98.1925 165.207 98.038 164.923 98.038C164.629 98.038 164.465 98.1676 164.465 98.3918C164.465 98.5563 164.584 98.666 164.824 98.7258L165.252 98.8304C165.666 98.9301 165.87 99.1195 165.87 99.4834C165.87 99.9469 165.472 100.241 164.893 100.241C164.32 100.241 163.956 99.9369 163.956 99.4734ZM166.839 100.181H166.37V96.5128H166.839V98.8903L167.92 97.7439H168.508L167.576 98.7158L168.503 100.181H167.965L167.252 99.0547L166.839 99.4884V100.181Z" fill="white"/>
<path d="M232.573 101.596V101.228C232.009 101.194 231.637 100.874 231.611 100.374H232.039C232.047 100.647 232.248 100.827 232.573 100.861V99.797L232.419 99.7628C231.915 99.6475 231.654 99.3655 231.654 98.9255C231.654 98.4385 232.017 98.0924 232.573 98.0454V97.6737H232.846V98.0411C233.363 98.0881 233.692 98.4043 233.722 98.8998H233.307C233.29 98.6264 233.124 98.4513 232.846 98.4128V99.4723L233.013 99.5108C233.525 99.6261 233.773 99.8952 233.773 100.322C233.773 100.831 233.41 101.173 232.846 101.224V101.596H232.573ZM232.504 99.3911L232.573 99.4082V98.4128C232.256 98.4555 232.064 98.6392 232.064 98.9127C232.064 99.1604 232.205 99.3185 232.504 99.3911ZM232.927 99.8824L232.846 99.8653V100.852C233.166 100.809 233.363 100.626 233.363 100.357C233.363 100.109 233.222 99.9508 232.927 99.8824ZM236.136 101.177L234.051 101.181V100.861L235.047 100.002C235.547 99.5706 235.688 99.3612 235.688 99.0323C235.688 98.6435 235.465 98.4128 235.094 98.4128C234.714 98.4128 234.466 98.6905 234.457 99.1305H234.039C234.051 98.4684 234.47 98.0369 235.098 98.0369C235.717 98.0369 236.115 98.4128 236.115 99.0066C236.115 99.4467 235.897 99.7585 235.35 100.233L234.709 100.788H236.136V101.177ZM237.157 101.015C237.157 101.322 236.926 101.578 236.623 101.617V101.437C236.798 101.408 236.922 101.292 236.922 101.16C236.892 101.177 236.858 101.185 236.807 101.185C236.666 101.185 236.546 101.083 236.546 100.925C236.546 100.754 236.662 100.63 236.832 100.63C237.012 100.63 237.157 100.78 237.157 101.015ZM237.394 99.6389C237.394 98.682 237.889 98.0326 238.667 98.0326C239.44 98.0326 239.935 98.682 239.935 99.6389C239.935 100.6 239.461 101.237 238.667 101.237C237.868 101.237 237.394 100.6 237.394 99.6389ZM237.808 99.6389C237.808 100.399 238.124 100.861 238.667 100.861C239.209 100.861 239.521 100.399 239.521 99.6389C239.521 98.8699 239.209 98.4085 238.667 98.4085C238.124 98.4085 237.808 98.8699 237.808 99.6389ZM240.27 99.6389C240.27 98.682 240.766 98.0326 241.543 98.0326C242.317 98.0326 242.812 98.682 242.812 99.6389C242.812 100.6 242.338 101.237 241.543 101.237C240.744 101.237 240.27 100.6 240.27 99.6389ZM240.685 99.6389C240.685 100.399 241.001 100.861 241.543 100.861C242.086 100.861 242.398 100.399 242.398 99.6389C242.398 98.8699 242.086 98.4085 241.543 98.4085C241.001 98.4085 240.685 98.8699 240.685 99.6389ZM243.147 99.6389C243.147 98.682 243.642 98.0326 244.42 98.0326C245.193 98.0326 245.689 98.682 245.689 99.6389C245.689 100.6 245.215 101.237 244.42 101.237C243.621 101.237 243.147 100.6 243.147 99.6389ZM243.561 99.6389C243.561 100.399 243.877 100.861 244.42 100.861C244.963 100.861 245.274 100.399 245.274 99.6389C245.274 98.8699 244.963 98.4085 244.42 98.4085C243.877 98.4085 243.561 98.8699 243.561 99.6389ZM246.229 101.232C246.062 101.232 245.921 101.096 245.921 100.933C245.921 100.767 246.062 100.63 246.229 100.63C246.391 100.63 246.532 100.767 246.532 100.933C246.532 101.096 246.391 101.232 246.229 101.232ZM246.768 99.6389C246.768 98.682 247.264 98.0326 248.041 98.0326C248.815 98.0326 249.31 98.682 249.31 99.6389C249.31 100.6 248.836 101.237 248.041 101.237C247.243 101.237 246.768 100.6 246.768 99.6389ZM247.183 99.6389C247.183 100.399 247.499 100.861 248.041 100.861C248.584 100.861 248.896 100.399 248.896 99.6389C248.896 98.8699 248.584 98.4085 248.041 98.4085C247.499 98.4085 247.183 98.8699 247.183 99.6389ZM249.645 99.6389C249.645 98.682 250.141 98.0326 250.918 98.0326C251.691 98.0326 252.187 98.682 252.187 99.6389C252.187 100.6 251.713 101.237 250.918 101.237C250.119 101.237 249.645 100.6 249.645 99.6389ZM250.059 99.6389C250.059 100.399 250.376 100.861 250.918 100.861C251.461 100.861 251.773 100.399 251.773 99.6389C251.773 98.8699 251.461 98.4085 250.918 98.4085C250.376 98.4085 250.059 98.8699 250.059 99.6389Z" fill="#EA4335"/>
<rect x="136.416" y="108.317" width="99.6828" height="2.84808" rx="1.42404" fill="white" fill-opacity="0.2"/>
<rect x="138.873" y="107.606" width="4.27212" height="4.27212" rx="2.13606" fill="#EA4335"/>
<circle cx="141.009" cy="109.742" r="1.06803" fill="#486160"/>
<path d="M248.404 111.737L246.319 111.741V111.421L247.315 110.562C247.814 110.131 247.955 109.921 247.955 109.592C247.955 109.204 247.733 108.973 247.362 108.973C246.981 108.973 246.734 109.251 246.725 109.691H246.306C246.319 109.028 246.738 108.597 247.366 108.597C247.985 108.597 248.383 108.973 248.383 109.567C248.383 110.007 248.165 110.319 247.618 110.793L246.977 111.348H248.404V111.737ZM250.233 109.383C250.233 109.84 249.909 110.169 249.451 110.169C248.999 110.169 248.674 109.84 248.674 109.383C248.674 108.922 248.999 108.593 249.451 108.593C249.909 108.593 250.233 108.922 250.233 109.383ZM251.861 108.657L249.516 111.741H249.105L251.451 108.657H251.861ZM249.904 109.383C249.904 109.105 249.721 108.913 249.451 108.913C249.187 108.913 249.003 109.105 249.003 109.383C249.003 109.656 249.187 109.849 249.451 109.849C249.716 109.849 249.904 109.656 249.904 109.383ZM252.301 111.011C252.301 111.468 251.972 111.797 251.519 111.797C251.066 111.797 250.737 111.468 250.737 111.011C250.737 110.549 251.066 110.225 251.519 110.225C251.972 110.225 252.301 110.549 252.301 111.011ZM251.968 111.011C251.968 110.733 251.788 110.541 251.519 110.541C251.254 110.541 251.071 110.733 251.071 111.011C251.071 111.284 251.254 111.476 251.519 111.476C251.784 111.476 251.968 111.284 251.968 111.011Z" fill="#EA4335"/>
<defs>
<filter id="filter0_dd_1697_35944" x="156.292" y="56.8698" width="14.0285" height="14.0295" filterUnits="userSpaceOnUse" color-interpolation-filters="sRGB">
<feFlood flood-opacity="0" result="BackgroundImageFix"/>
<feColorMatrix in="SourceAlpha" type="matrix" values="0 0 0 0 0 0 0 0 0 0 0 0 0 0 0 0 0 0 127 0" result="hardAlpha"/>
<feOffset dy="1.0021"/>
<feGaussianBlur stdDeviation="1.0021"/>
<feColorMatrix type="matrix" values="0 0 0 0 0.054902 0 0 0 0 0.0705882 0 0 0 0 0.105882 0 0 0 0.08 0"/>
<feBlend mode="normal" in2="BackgroundImageFix" result="effect1_dropShadow_1697_35944"/>
<feColorMatrix in="SourceAlpha" type="matrix" values="0 0 0 0 0 0 0 0 0 0 0 0 0 0 0 0 0 0 127 0" result="hardAlpha"/>
<feOffset dy="2.00419"/>
<feGaussianBlur stdDeviation="2.00419"/>
<feColorMatrix type="matrix" values="0 0 0 0 0.105882 0 0 0 0 0.109804 0 0 0 0 0.113725 0 0 0 0.06 0"/>
<feBlend mode="normal" in2="effect1_dropShadow_1697_35944" result="effect2_dropShadow_1697_35944"/>
<feBlend mode="normal" in="SourceGraphic" in2="effect2_dropShadow_1697_35944" result="shape"/>
</filter>
<filter id="filter1_dd_1697_35944" x="162.306" y="79.8952" width="14.0285" height="14.0295" filterUnits="userSpaceOnUse" color-interpolation-filters="sRGB">
<feFlood flood-opacity="0" result="BackgroundImageFix"/>
<feColorMatrix in="SourceAlpha" type="matrix" values="0 0 0 0 0 0 0 0 0 0 0 0 0 0 0 0 0 0 127 0" result="hardAlpha"/>
<feOffset dy="1.0021"/>
<feGaussianBlur stdDeviation="1.0021"/>
<feColorMatrix type="matrix" values="0 0 0 0 0.054902 0 0 0 0 0.0705882 0 0 0 0 0.105882 0 0 0 0.08 0"/>
<feBlend mode="normal" in2="BackgroundImageFix" result="effect1_dropShadow_1697_35944"/>
<feColorMatrix in="SourceAlpha" type="matrix" values="0 0 0 0 0 0 0 0 0 0 0 0 0 0 0 0 0 0 127 0" result="hardAlpha"/>
<feOffset dy="2.00419"/>
<feGaussianBlur stdDeviation="2.00419"/>
<feColorMatrix type="matrix" values="0 0 0 0 0.105882 0 0 0 0 0.109804 0 0 0 0 0.113725 0 0 0 0.06 0"/>
<feBlend mode="normal" in2="effect1_dropShadow_1697_35944" result="effect2_dropShadow_1697_35944"/>
<feBlend mode="normal" in="SourceGraphic" in2="effect2_dropShadow_1697_35944" result="shape"/>
</filter>
<filter id="filter2_dd_1697_35944" x="156.292" y="102.92" width="14.0285" height="14.0295" filterUnits="userSpaceOnUse" color-interpolation-filters="sRGB">
<feFlood flood-opacity="0" result="BackgroundImageFix"/>
<feColorMatrix in="SourceAlpha" type="matrix" values="0 0 0 0 0 0 0 0 0 0 0 0 0 0 0 0 0 0 127 0" result="hardAlpha"/>
<feOffset dy="1.0021"/>
<feGaussianBlur stdDeviation="1.0021"/>
<feColorMatrix type="matrix" values="0 0 0 0 0.054902 0 0 0 0 0.0705882 0 0 0 0 0.105882 0 0 0 0.08 0"/>
<feBlend mode="normal" in2="BackgroundImageFix" result="effect1_dropShadow_1697_35944"/>
<feColorMatrix in="SourceAlpha" type="matrix" values="0 0 0 0 0 0 0 0 0 0 0 0 0 0 0 0 0 0 127 0" result="hardAlpha"/>
<feOffset dy="2.00419"/>
<feGaussianBlur stdDeviation="2.00419"/>
<feColorMatrix type="matrix" values="0 0 0 0 0.105882 0 0 0 0 0.109804 0 0 0 0 0.113725 0 0 0 0.06 0"/>
<feBlend mode="normal" in2="effect1_dropShadow_1697_35944" result="effect2_dropShadow_1697_35944"/>
<feBlend mode="normal" in="SourceGraphic" in2="effect2_dropShadow_1697_35944" result="shape"/>
</filter>
<linearGradient id="paint0_linear_1697_35944" x1="159.283" y1="61.8697" x2="173.313" y2="61.8697" gradientUnits="userSpaceOnUse">
<stop stop-color="white"/>
<stop offset="1" stop-color="white" stop-opacity="0.4"/>
</linearGradient>
<linearGradient id="paint1_linear_1697_35944" x1="166.298" y1="80.8867" x2="166.298" y2="88.9035" gradientUnits="userSpaceOnUse">
<stop stop-color="#15B0F8"/>
<stop offset="1" stop-color="#0276DB"/>
</linearGradient>
<linearGradient id="paint2_linear_1697_35944" x1="169.32" y1="83.9033" x2="169.32" y2="85.9075" gradientUnits="userSpaceOnUse">
<stop stop-color="#15B0F8"/>
<stop offset="1" stop-color="#0276DB"/>
</linearGradient>
<linearGradient id="paint3_linear_1697_35944" x1="159.283" y1="107.92" x2="173.313" y2="107.92" gradientUnits="userSpaceOnUse">
<stop stop-color="white"/>
<stop offset="1" stop-color="white" stop-opacity="0.4"/>
</linearGradient>
</defs>
</svg>
