<svg width="330" height="198" viewBox="0 0 330 198" fill="none" xmlns="http://www.w3.org/2000/svg">
<path d="M22.5498 0.44043H499.45C503.404 0.44043 506.343 0.440653 508.671 0.630859C510.994 0.820648 512.67 1.19759 514.104 1.92871C516.674 3.23771 518.762 5.32647 520.071 7.89551C520.802 9.33045 521.179 11.0063 521.369 13.3291C521.559 15.6571 521.56 18.596 521.56 22.5498V388.42C521.56 392.374 521.559 395.313 521.369 397.641C521.179 399.963 520.802 401.639 520.071 403.074C518.762 405.643 516.674 407.732 514.104 409.041C512.67 409.772 510.994 410.149 508.671 410.339C506.343 410.529 503.404 410.529 499.45 410.529H22.5498C18.596 410.529 15.6571 410.529 13.3291 410.339C11.0062 410.149 9.33046 409.772 7.89551 409.041C5.32646 407.732 3.2377 405.643 1.92871 403.074C1.19761 401.639 0.820643 399.963 0.630859 397.641C0.440655 395.313 0.44043 392.374 0.44043 388.42V22.5498C0.44043 18.596 0.440653 15.6571 0.630859 13.3291C0.820647 11.0062 1.19759 9.33045 1.92871 7.89551C3.2377 5.32646 5.32646 3.2377 7.89551 1.92871C9.33045 1.19759 11.0062 0.820647 13.3291 0.630859C15.6571 0.440652 18.596 0.44043 22.5498 0.44043Z" fill="url(#paint0_linear_468_2411)"/>
<path d="M22.5498 0.44043H499.45C503.404 0.44043 506.343 0.440653 508.671 0.630859C510.994 0.820648 512.67 1.19759 514.104 1.92871C516.674 3.23771 518.762 5.32647 520.071 7.89551C520.802 9.33045 521.179 11.0063 521.369 13.3291C521.559 15.6571 521.56 18.596 521.56 22.5498V388.42C521.56 392.374 521.559 395.313 521.369 397.641C521.179 399.963 520.802 401.639 520.071 403.074C518.762 405.643 516.674 407.732 514.104 409.041C512.67 409.772 510.994 410.149 508.671 410.339C506.343 410.529 503.404 410.529 499.45 410.529H22.5498C18.596 410.529 15.6571 410.529 13.3291 410.339C11.0062 410.149 9.33046 409.772 7.89551 409.041C5.32646 407.732 3.2377 405.643 1.92871 403.074C1.19761 401.639 0.820643 399.963 0.630859 397.641C0.440655 395.313 0.44043 392.374 0.44043 388.42V22.5498C0.44043 18.596 0.440653 15.6571 0.630859 13.3291C0.820647 11.0062 1.19759 9.33045 1.92871 7.89551C3.2377 5.32646 5.32646 3.2377 7.89551 1.92871C9.33045 1.19759 11.0062 0.820647 13.3291 0.630859C15.6571 0.440652 18.596 0.44043 22.5498 0.44043Z" fill="url(#paint1_radial_468_2411)"/>
<path d="M22.5498 0.44043H499.45C503.404 0.44043 506.343 0.440653 508.671 0.630859C510.994 0.820648 512.67 1.19759 514.104 1.92871C516.674 3.23771 518.762 5.32647 520.071 7.89551C520.802 9.33045 521.179 11.0063 521.369 13.3291C521.559 15.6571 521.56 18.596 521.56 22.5498V388.42C521.56 392.374 521.559 395.313 521.369 397.641C521.179 399.963 520.802 401.639 520.071 403.074C518.762 405.643 516.674 407.732 514.104 409.041C512.67 409.772 510.994 410.149 508.671 410.339C506.343 410.529 503.404 410.529 499.45 410.529H22.5498C18.596 410.529 15.6571 410.529 13.3291 410.339C11.0062 410.149 9.33046 409.772 7.89551 409.041C5.32646 407.732 3.2377 405.643 1.92871 403.074C1.19761 401.639 0.820643 399.963 0.630859 397.641C0.440655 395.313 0.44043 392.374 0.44043 388.42V22.5498C0.44043 18.596 0.440653 15.6571 0.630859 13.3291C0.820647 11.0062 1.19759 9.33045 1.92871 7.89551C3.2377 5.32646 5.32646 3.2377 7.89551 1.92871C9.33045 1.19759 11.0062 0.820647 13.3291 0.630859C15.6571 0.440652 18.596 0.44043 22.5498 0.44043Z" stroke="url(#paint2_linear_468_2411)" stroke-width="0.880862"/>
<g opacity="0.4">
<rect x="38.8645" y="165.193" width="3.07669" height="44.9024" fill="#27AE60"/>
<rect x="44.8425" y="196.957" width="3.07669" height="13.1384" fill="#E10000"/>
<rect x="50.8208" y="175.695" width="3.07669" height="34.3998" fill="#27AE60"/>
<rect x="56.7988" y="175.695" width="3.07669" height="34.3998" fill="#27AE60"/>
<rect x="74.7332" y="166.474" width="3.07669" height="43.6216" fill="#E10000"/>
<rect x="80.7112" y="165.193" width="3.07669" height="44.9024" fill="#27AE60"/>
<rect x="86.6892" y="165.193" width="3.07669" height="44.9024" fill="#27AE60"/>
<rect x="92.6675" y="174.927" width="3.07669" height="35.1683" fill="#E10000"/>
<rect x="98.6455" y="174.927" width="3.07669" height="35.1683" fill="#E10000"/>
<rect x="104.624" y="180.847" width="3.07669" height="29.2478" fill="#27AE60"/>
<rect x="110.602" y="180.818" width="3.07669" height="29.2766" fill="#27AE60"/>
<rect x="116.58" y="196.957" width="3.07669" height="13.1384" fill="#E10000"/>
<rect x="122.558" y="196.957" width="3.07669" height="13.1384" fill="#E10000"/>
<rect x="140.492" y="196.957" width="3.07669" height="13.1384" fill="#E10000"/>
<rect x="146.47" y="174.927" width="3.07669" height="35.1683" fill="#E10000"/>
<rect x="152.449" y="174.927" width="3.07669" height="35.1683" fill="#E10000"/>
<rect x="182.339" y="166.474" width="3.07669" height="43.6216" fill="#E10000"/>
<rect x="188.317" y="180.818" width="3.07669" height="29.2766" fill="#27AE60"/>
<rect x="227.263" y="210.095" width="3.07669" height="35.1683" transform="rotate(180 227.263 210.095)" fill="#E10000"/>
<rect x="233.241" y="210.095" width="3.07669" height="29.2766" transform="rotate(180 233.241 210.095)" fill="#27AE60"/>
<rect x="269.11" y="210.095" width="3.07669" height="35.1683" transform="rotate(180 269.11 210.095)" fill="#E10000"/>
<rect x="275.088" y="210.095" width="3.07669" height="29.2766" transform="rotate(180 275.088 210.095)" fill="#27AE60"/>
<rect x="322.913" y="210.095" width="3.07669" height="44.9024" transform="rotate(180 322.913 210.095)" fill="#27AE60"/>
<rect x="328.891" y="210.095" width="3.07669" height="44.9024" transform="rotate(180 328.891 210.095)" fill="#27AE60"/>
</g>
<path d="M17.9729 26.5935H22.0149V26.088H17.9729V26.5935Z" fill="white"/>
<path d="M15.952 28.1101V32.1542H16.4573V28.1101H15.952ZM15.952 20.5273V24.5715H16.4573V20.5273H15.952ZM10.3943 26.5935H14.4363V26.088H10.3943V26.5935Z" fill="white"/>
<path d="M12.5943 52.0461L19.6678 44.9689L19.3106 44.6115L12.2371 51.6887L12.5943 52.0461Z" fill="white"/>
<path d="M20.2467 44.7899C20.665 44.7899 21.0046 44.4502 21.0046 44.0316C21.0046 43.613 20.665 43.2733 20.2467 43.2733C19.8283 43.2733 19.4888 43.613 19.4888 44.0316C19.4888 44.4502 19.8283 44.7899 20.2467 44.7899ZM20.2467 45.2954C19.5489 45.2954 18.9836 44.7297 18.9836 44.0316C18.9836 43.3335 19.5489 42.7678 20.2467 42.7678C20.9444 42.7678 21.5098 43.3335 21.5098 44.0316C21.5098 44.7297 20.9444 45.2954 20.2467 45.2954ZM11.6574 53.3837C12.0758 53.3837 12.4153 53.044 12.4153 52.6254C12.4153 52.2068 12.0758 51.8671 11.6574 51.8671C11.2391 51.8671 10.8995 52.2068 10.8995 52.6254C10.8995 53.044 11.2391 53.3837 11.6574 53.3837ZM11.6574 53.8892C10.9597 53.8892 10.3943 53.3235 10.3943 52.6254C10.3943 51.9273 10.9597 51.3616 11.6574 51.3616C12.3552 51.3616 12.9205 51.9273 12.9205 52.6254C12.9205 53.3235 12.3552 53.8892 11.6574 53.8892Z" fill="white"/>
<path d="M10.3948 66.0196H21.5103V65.514H10.3948V66.0196Z" fill="white"/>
<path d="M10.3948 72.0856H21.5103V71.5801H10.3948V72.0856Z" fill="white"/>
<path d="M10.3948 69.0525H20.2472V68.547H10.3948V69.0525Z" fill="white"/>
<path d="M11.6577 75.1187H21.5101V74.6132H11.6577V75.1187Z" fill="white"/>
<path d="M10.6472 75.6243C11.0655 75.6243 11.405 75.2846 11.405 74.866C11.405 74.4474 11.0655 74.1077 10.6472 74.1077C10.2288 74.1077 9.88928 74.4474 9.88928 74.866C9.88928 75.2846 10.2288 75.6243 10.6472 75.6243ZM10.6472 76.1298C9.94941 76.1298 9.38403 75.5641 9.38403 74.866C9.38403 74.1679 9.94941 73.6022 10.6472 73.6022C11.3449 73.6022 11.9103 74.1679 11.9103 74.866C11.9103 75.5641 11.3449 76.1298 10.6472 76.1298ZM21.2574 69.5581C21.6758 69.5581 22.0153 69.2184 22.0153 68.7998C22.0153 68.3812 21.6758 68.0415 21.2574 68.0415C20.8391 68.0415 20.4996 68.3812 20.4996 68.7998C20.4996 69.2184 20.8391 69.5581 21.2574 69.5581ZM21.2574 70.0636C20.5597 70.0636 19.9943 69.4979 19.9943 68.7998C19.9943 68.1017 20.5597 67.536 21.2574 67.536C21.9552 67.536 22.5206 68.1017 22.5206 68.7998C22.5206 69.4979 21.9552 70.0636 21.2574 70.0636Z" fill="white"/>
<path d="M9.78271 97.3596L10.2167 96.9278L10.3284 96.8126C10.4193 96.7165 10.5204 96.6058 10.63 96.4815C10.9428 96.1256 11.2555 95.7343 11.5471 95.3198C12.0432 94.6141 12.4252 93.9165 12.647 93.2568C13.2705 91.4031 15.6568 90.8728 17.1553 92.6183C18.7979 94.5317 17.1366 97.3601 14.4376 97.3601H9.78373L9.78271 97.3596ZM14.4366 96.854C16.7324 96.854 18.1108 94.5074 16.7713 92.9474C15.5335 91.5052 13.6262 91.9288 13.1255 93.418C12.886 94.1298 12.4823 94.8684 11.9598 95.6105C11.6572 96.0412 11.3328 96.4461 11.009 96.8151L10.9746 96.8545H14.4371L14.4366 96.854Z" fill="white"/>
<path d="M18.0649 88.7667L17.3479 89.4168C16.827 89.8895 16.8048 90.6811 17.2994 91.176L18.2478 92.1249C18.7409 92.6183 19.5377 92.6071 20.0227 92.1021L22.8774 89.1327L22.5131 88.7824L19.6584 91.7518C19.3684 92.0531 18.897 92.0597 18.6045 91.7675L17.6561 90.8186C17.3661 90.5284 17.3793 90.0705 17.687 89.7914L18.4039 89.1413L18.0644 88.7667H18.0649Z" fill="white"/>
<path d="M19.2104 112.273L20.2729 116.879L20.7651 116.765L19.7025 112.159L19.2104 112.273ZM15.9232 115.056L19.7788 117.511L20.0501 117.084L16.1946 114.629L15.9232 115.056ZM16.1435 113.896L18.5748 112.071L18.2716 111.667L15.8404 113.491L16.1435 113.896ZM14.4161 114.963L12.0308 118.373L12.4446 118.662L14.8299 115.253L14.4161 114.963ZM12.0773 118.422L13.2444 111.806L12.7467 111.718L11.5796 118.334L12.0773 118.422ZM13.4465 111.741L14.4545 113.507L14.893 113.256L13.8851 111.491L13.4465 111.741Z" fill="white"/>
<path d="M13.1732 111.512C13.5915 111.512 13.931 111.172 13.931 110.753C13.931 110.335 13.5915 109.995 13.1732 109.995C12.7548 109.995 12.4153 110.335 12.4153 110.753C12.4153 111.172 12.7548 111.512 13.1732 111.512ZM13.1732 112.017C12.4754 112.017 11.91 111.452 11.91 110.753C11.91 110.055 12.4754 109.49 13.1732 109.49C13.8709 109.49 14.4363 110.055 14.4363 110.753C14.4363 111.452 13.8709 112.017 13.1732 112.017ZM11.6574 120.105C12.0758 120.105 12.4153 119.766 12.4153 119.347C12.4153 118.929 12.0758 118.589 11.6574 118.589C11.2391 118.589 10.8995 118.929 10.8995 119.347C10.8995 119.766 11.2391 120.105 11.6574 120.105ZM11.6574 120.611C10.9597 120.611 10.3943 120.045 10.3943 119.347C10.3943 118.649 10.9597 118.083 11.6574 118.083C12.3552 118.083 12.9205 118.649 12.9205 119.347C12.9205 120.045 12.3552 120.611 11.6574 120.611ZM15.1942 115.05C15.6125 115.05 15.952 114.711 15.952 114.292C15.952 113.873 15.6125 113.534 15.1942 113.534C14.7758 113.534 14.4363 113.873 14.4363 114.292C14.4363 114.711 14.7758 115.05 15.1942 115.05ZM15.1942 115.556C14.4964 115.556 13.931 114.99 13.931 114.292C13.931 113.594 14.4964 113.028 15.1942 113.028C15.8919 113.028 16.4573 113.594 16.4573 114.292C16.4573 114.99 15.8919 115.556 15.1942 115.556ZM19.2362 112.017C19.6545 112.017 19.9941 111.677 19.9941 111.259C19.9941 110.84 19.6545 110.501 19.2362 110.501C18.8178 110.501 18.4783 110.84 18.4783 111.259C18.4783 111.677 18.8178 112.017 19.2362 112.017ZM19.2362 112.523C18.5384 112.523 17.9731 111.957 17.9731 111.259C17.9731 110.561 18.5384 109.995 19.2362 109.995C19.9339 109.995 20.4993 110.561 20.4993 111.259C20.4993 111.957 19.9339 112.523 19.2362 112.523ZM20.7519 118.589C21.1703 118.589 21.5098 118.249 21.5098 117.831C21.5098 117.412 21.1703 117.072 20.7519 117.072C20.3336 117.072 19.9941 117.412 19.9941 117.831C19.9941 118.249 20.3336 118.589 20.7519 118.589ZM20.7519 119.094C20.0542 119.094 19.4888 118.529 19.4888 117.831C19.4888 117.133 20.0542 116.567 20.7519 116.567C21.4497 116.567 22.0151 117.133 22.0151 117.831C22.0151 118.529 21.4497 119.094 20.7519 119.094Z" fill="white"/>
<path fill-rule="evenodd" clip-rule="evenodd" d="M11.152 132.741C10.951 132.741 10.7583 132.821 10.6161 132.963C10.474 133.106 10.3942 133.298 10.3942 133.5C10.3942 133.701 10.474 133.894 10.6161 134.036C10.7583 134.178 10.951 134.258 11.152 134.258C11.353 134.258 11.5458 134.178 11.6879 134.036C11.8301 133.894 11.9099 133.701 11.9099 133.5C11.9099 133.298 11.8301 133.106 11.6879 132.963C11.5458 132.821 11.353 132.741 11.152 132.741ZM9.88892 133.5C9.8886 133.186 10.0047 132.884 10.2146 132.651C10.4246 132.419 10.7134 132.272 11.0251 132.241C11.3368 132.209 11.649 132.295 11.9012 132.481C12.1534 132.667 12.3276 132.94 12.3899 133.247H21.0044V133.752H12.3899C12.3276 134.059 12.1534 134.332 11.9012 134.518C11.649 134.704 11.3368 134.79 11.0251 134.758C10.7134 134.727 10.4246 134.58 10.2146 134.348C10.0047 134.115 9.8886 133.813 9.88892 133.5ZM11.152 137.796C10.951 137.796 10.7583 137.876 10.6161 138.019C10.474 138.161 10.3942 138.354 10.3942 138.555C10.3942 138.756 10.474 138.949 10.6161 139.091C10.7583 139.233 10.951 139.313 11.152 139.313C11.353 139.313 11.5458 139.233 11.6879 139.091C11.8301 138.949 11.9099 138.756 11.9099 138.555C11.9099 138.354 11.8301 138.161 11.6879 138.019C11.5458 137.876 11.353 137.796 11.152 137.796ZM9.88892 138.555C9.8886 138.241 10.0047 137.939 10.2146 137.706C10.4246 137.474 10.7134 137.328 11.0251 137.296C11.3368 137.265 11.649 137.35 11.9012 137.536C12.1534 137.722 12.3276 137.995 12.3899 138.302H19.0087C19.0713 137.995 19.2456 137.722 19.4977 137.537C19.7498 137.351 20.0618 137.266 20.3733 137.297C20.6847 137.329 20.9734 137.475 21.1833 137.707C21.3932 137.94 21.5094 138.242 21.5094 138.555C21.5094 138.868 21.3932 139.17 21.1833 139.402C20.9734 139.635 20.6847 139.781 20.3733 139.812C20.0618 139.844 19.7498 139.758 19.4977 139.573C19.2456 139.387 19.0713 139.114 19.0087 138.807H12.3899C12.3276 139.115 12.1534 139.388 11.9012 139.574C11.649 139.759 11.3368 139.845 11.0251 139.813C10.7134 139.782 10.4246 139.636 10.2146 139.403C10.0047 139.17 9.8886 138.868 9.88892 138.555ZM20.2466 137.796C20.0456 137.796 19.8528 137.876 19.7107 138.019C19.5685 138.161 19.4887 138.354 19.4887 138.555C19.4887 138.756 19.5685 138.949 19.7107 139.091C19.8528 139.233 20.0456 139.313 20.2466 139.313C20.4476 139.313 20.6403 139.233 20.7825 139.091C20.9246 138.949 21.0044 138.756 21.0044 138.555C21.0044 138.354 20.9246 138.161 20.7825 138.019C20.6403 137.876 20.4476 137.796 20.2466 137.796ZM11.152 140.83C10.951 140.83 10.7583 140.909 10.6161 141.052C10.474 141.194 10.3942 141.387 10.3942 141.588C10.3942 141.789 10.474 141.982 10.6161 142.124C10.7583 142.266 10.951 142.346 11.152 142.346C11.353 142.346 11.5458 142.266 11.6879 142.124C11.8301 141.982 11.9099 141.789 11.9099 141.588C11.9099 141.387 11.8301 141.194 11.6879 141.052C11.5458 140.909 11.353 140.83 11.152 140.83ZM9.88892 141.588C9.8886 141.274 10.0047 140.972 10.2146 140.739C10.4246 140.507 10.7134 140.361 11.0251 140.329C11.3368 140.298 11.649 140.383 11.9012 140.569C12.1534 140.755 12.3276 141.028 12.3899 141.335H21.0044V141.841H12.3899C12.3276 142.148 12.1534 142.421 11.9012 142.607C11.649 142.792 11.3368 142.878 11.0251 142.846C10.7134 142.815 10.4246 142.669 10.2146 142.436C10.0047 142.204 9.8886 141.901 9.88892 141.588Z" fill="white"/>
<path fill-rule="evenodd" clip-rule="evenodd" d="M20.1966 134.733L19.4943 135.052L19.2871 134.592L19.9894 134.273L20.1966 134.733ZM18.1756 135.643L17.4733 135.961L17.2661 135.501L17.9684 135.183L18.1756 135.643ZM16.1546 136.553L15.4472 136.871L15.2451 136.411L15.9474 136.093L16.1546 136.553ZM14.1336 137.463L13.4262 137.781L13.2241 137.321L13.9264 137.003L14.1336 137.463Z" fill="white"/>
<path d="M13.6788 154.982C13.2645 154.982 12.9209 155.321 12.9209 155.74V156.751H13.4261V155.74C13.4261 155.604 13.5424 155.487 13.6788 155.487H15.9524V163.576H14.9419V164.081H17.4682V163.576H16.4577V155.487H18.7313C18.8728 155.487 18.9839 155.599 18.9839 155.74V156.751H19.4892V155.74C19.4892 155.321 19.1506 154.982 18.7313 154.982H13.6788Z" fill="white"/>
<path d="M15.9522 179.75C15.6842 179.75 15.4271 179.857 15.2376 180.046C15.0481 180.236 14.9417 180.493 14.9417 180.761V186.322H11.9102V180.761C11.9102 178.529 13.721 176.717 15.9522 176.717C18.1834 176.717 19.9942 178.529 19.9942 180.761V186.322H16.9627V180.761C16.9627 180.493 16.8562 180.236 16.6667 180.046C16.4772 179.857 16.2202 179.75 15.9522 179.75ZM14.4364 180.761C14.4364 180.359 14.5961 179.973 14.8804 179.689C15.1646 179.404 15.5502 179.245 15.9522 179.245C16.3542 179.245 16.7397 179.404 17.024 179.689C17.3082 179.973 17.4679 180.359 17.4679 180.761V185.816H19.4889V180.761C19.4889 178.808 17.9045 177.222 15.9522 177.222C13.9999 177.222 12.4154 178.808 12.4154 180.761V185.816H14.4364V180.761Z" fill="white"/>
<path fill-rule="evenodd" clip-rule="evenodd" d="M12.1626 183.794H14.6889V184.3H12.1626V183.794ZM17.2151 183.794H19.7414V184.3H17.2151V183.794Z" fill="white"/>
<path d="M10.1467 206.783C10.0046 206.925 9.92476 207.118 9.92476 207.319C9.92476 207.52 10.0046 207.713 10.1467 207.855L12.1117 209.821C12.2538 209.964 12.4466 210.043 12.6476 210.043C12.8486 210.043 13.0414 209.964 13.1835 209.821L21.7579 201.242C21.9 201.1 21.9799 200.907 21.9799 200.706C21.9799 200.505 21.9 200.312 21.7579 200.17L19.7929 198.204C19.6508 198.062 19.458 197.982 19.257 197.982C19.056 197.982 18.8633 198.062 18.7211 198.204L10.1467 206.783ZM10.504 207.14L11.5758 206.068L12.469 206.962L12.8262 206.604L11.9331 205.711L13.0942 204.549L14.4875 205.943L14.8448 205.586L13.4515 204.191L14.6126 203.03L15.5057 203.923L15.863 203.566L14.9698 202.672L16.131 201.511L17.5243 202.905L17.8816 202.547L16.4882 201.153L17.6493 199.991L18.5425 200.885L18.8998 200.528L18.0066 199.634L19.0784 198.562C19.1258 198.514 19.19 198.488 19.257 198.488C19.324 198.488 19.3883 198.514 19.4357 198.562L21.4006 200.528C21.448 200.575 21.4746 200.639 21.4746 200.706C21.4746 200.773 21.448 200.838 21.4006 200.885L12.8262 209.464C12.7789 209.511 12.7146 209.538 12.6476 209.538C12.5806 209.538 12.5163 209.511 12.469 209.464L10.504 207.498C10.4566 207.451 10.43 207.386 10.43 207.319C10.43 207.252 10.4566 207.188 10.504 207.14Z" fill="white"/>
<rect x="35.436" y="48.3162" width="0.505251" height="334.992" fill="#C4C4C4" fill-opacity="0.06"/>
<rect x="57.6726" y="48.3162" width="0.505251" height="334.992" fill="#C4C4C4" fill-opacity="0.06"/>
<rect x="79.9097" y="48.3162" width="0.505251" height="334.992" fill="#C4C4C4" fill-opacity="0.06"/>
<rect x="102.146" y="48.3162" width="0.505251" height="334.992" fill="#C4C4C4" fill-opacity="0.06"/>
<rect x="124.383" y="48.3162" width="0.505251" height="334.992" fill="#C4C4C4" fill-opacity="0.06"/>
<rect x="146.62" y="48.3162" width="0.505251" height="334.992" fill="#C4C4C4" fill-opacity="0.06"/>
<rect x="168.856" y="48.3162" width="0.505251" height="334.992" fill="#C4C4C4" fill-opacity="0.06"/>
<rect x="191.093" y="48.3162" width="0.505251" height="334.992" fill="#C4C4C4" fill-opacity="0.06"/>
<rect x="213.33" y="48.3162" width="0.505251" height="334.992" fill="#C4C4C4" fill-opacity="0.06"/>
<rect x="235.567" y="48.3162" width="0.505251" height="334.992" fill="#C4C4C4" fill-opacity="0.06"/>
<rect x="257.803" y="48.3162" width="0.505251" height="334.992" fill="#C4C4C4" fill-opacity="0.06"/>
<rect x="280.04" y="48.3162" width="0.505251" height="334.992" fill="#C4C4C4" fill-opacity="0.06"/>
<rect x="302.277" y="48.3162" width="0.505251" height="334.992" fill="#C4C4C4" fill-opacity="0.06"/>
<rect x="324.514" y="48.3162" width="0.505251" height="334.992" fill="#C4C4C4" fill-opacity="0.06"/>
<rect x="35.3801" y="189.017" width="0.68182" height="422.507" transform="rotate(-90 35.3801 189.017)" fill="#C4C4C4" fill-opacity="0.06"/>
<rect x="35.3801" y="166.604" width="0.68182" height="422.507" transform="rotate(-90 35.3801 166.604)" fill="#C4C4C4" fill-opacity="0.06"/>
<rect x="35.3801" y="144.19" width="0.68182" height="422.507" transform="rotate(-90 35.3801 144.19)" fill="#C4C4C4" fill-opacity="0.06"/>
<rect x="35.3801" y="121.777" width="0.68182" height="422.507" transform="rotate(-90 35.3801 121.777)" fill="#C4C4C4" fill-opacity="0.06"/>
<rect x="35.3801" y="99.3638" width="0.68182" height="422.507" transform="rotate(-90 35.3801 99.3638)" fill="#C4C4C4" fill-opacity="0.06"/>
<rect x="35.3801" y="76.9504" width="0.68182" height="422.507" transform="rotate(-90 35.3801 76.9504)" fill="#C4C4C4" fill-opacity="0.06"/>
<rect x="35.3801" y="54.5374" width="0.68182" height="422.507" transform="rotate(-90 35.3801 54.5374)" fill="#C4C4C4" fill-opacity="0.06"/>
<path d="M144.471 39.0111C144.471 37.1998 145.409 35.9707 146.881 35.9707C148.345 35.9707 149.283 37.1998 149.283 39.0111C149.283 40.8305 148.385 42.0353 146.881 42.0353C145.369 42.0353 144.471 40.8305 144.471 39.0111ZM145.256 39.0111C145.256 40.4504 145.854 41.3237 146.881 41.3237C147.908 41.3237 148.498 40.4504 148.498 39.0111C148.498 37.5556 147.908 36.6823 146.881 36.6823C145.854 36.6823 145.256 37.5556 145.256 39.0111Z" fill="#C4C4C4"/>
<path d="M154.192 39.0353C154.192 37.2402 155.074 36.0273 156.513 36.0273C157.944 36.0273 158.826 37.2402 158.826 39.0353C158.826 40.8385 157.961 42.0353 156.513 42.0353C155.058 42.0353 154.192 40.8385 154.192 39.0353ZM154.767 39.0353C154.767 40.5394 155.405 41.5097 156.513 41.5097C157.621 41.5097 158.26 40.5394 158.26 39.0353C158.26 37.5232 157.621 36.561 156.513 36.561C155.405 36.561 154.767 37.5232 154.767 39.0353ZM159.956 42.0191C159.681 42.0191 159.446 41.7927 159.446 41.5259C159.446 41.2509 159.681 41.0164 159.956 41.0164C160.23 41.0164 160.465 41.2509 160.465 41.5259C160.465 41.7927 160.23 42.0191 159.956 42.0191ZM161.086 39.0353C161.086 37.2402 161.968 36.0273 163.407 36.0273C164.838 36.0273 165.719 37.2402 165.719 39.0353C165.719 40.8385 164.854 42.0353 163.407 42.0353C161.951 42.0353 161.086 40.8385 161.086 39.0353ZM161.66 39.0353C161.66 40.5394 162.299 41.5097 163.407 41.5097C164.515 41.5097 165.153 40.5394 165.153 39.0353C165.153 37.5232 164.515 36.561 163.407 36.561C162.299 36.561 161.66 37.5232 161.66 39.0353ZM167.261 38.0893L168.708 36.1405H169.388L167.867 38.1539C168.142 38.0165 168.393 37.9599 168.66 37.9599C169.865 37.9599 170.665 38.8413 170.665 39.9733C170.665 41.162 169.768 42.0272 168.611 42.0272C167.447 42.0272 166.533 41.1296 166.533 39.9733C166.533 39.3022 166.719 38.8332 167.261 38.0893ZM167.123 39.9814C167.123 40.8628 167.73 41.5016 168.611 41.5016C169.468 41.5016 170.083 40.8628 170.083 39.9814C170.083 39.1 169.468 38.4693 168.611 38.4693C167.73 38.4693 167.123 39.1 167.123 39.9814ZM171.446 40.3534C171.446 39.6418 171.874 39.0758 172.562 38.8413C171.979 38.6068 171.648 38.1297 171.648 37.5313C171.648 36.6418 172.408 36.0354 173.516 36.0354C174.616 36.0354 175.351 36.6418 175.351 37.5394C175.351 38.1459 175.028 38.6229 174.454 38.8413C175.125 39.0515 175.57 39.6337 175.57 40.3615C175.57 41.348 174.737 42.0272 173.508 42.0272C172.279 42.0272 171.446 41.348 171.446 40.3534ZM172.198 37.5475C172.198 38.1863 172.715 38.6149 173.508 38.6149C174.292 38.6149 174.801 38.2025 174.801 37.5637C174.801 36.941 174.292 36.5529 173.508 36.5529C172.715 36.5529 172.198 36.941 172.198 37.5475ZM172.02 40.3049C172.02 41.0245 172.618 41.5016 173.516 41.5016C174.397 41.5016 174.996 41.0245 174.996 40.3049C174.996 39.5933 174.413 39.1324 173.5 39.1324C172.602 39.1324 172.02 39.5933 172.02 40.3049ZM180.07 41.9302H176.254V41.4693L178.105 39.852C179.173 38.9221 179.448 38.5178 179.448 37.8305C179.448 37.0461 178.979 36.5691 178.21 36.5691C177.41 36.5691 176.884 37.1513 176.86 38.0488H176.278C176.31 36.8359 177.078 36.0354 178.219 36.0354C179.31 36.0354 180.038 36.7389 180.038 37.7982C180.038 38.6391 179.658 39.1971 178.502 40.2078L177.151 41.3884H180.07V41.9302Z" fill="#27AE60"/>
<path d="M197.983 41.9302H197.19V36.0839H197.983V38.5987H200.877V36.0839H201.67V41.9302H200.877V39.3345H197.983V41.9302Z" fill="#C4C4C4"/>
<path d="M206.743 39.0353C206.743 37.2402 207.624 36.0273 209.063 36.0273C210.495 36.0273 211.376 37.2402 211.376 39.0353C211.376 40.8385 210.511 42.0353 209.063 42.0353C207.608 42.0353 206.743 40.8385 206.743 39.0353ZM207.317 39.0353C207.317 40.5394 207.956 41.5097 209.063 41.5097C210.171 41.5097 210.81 40.5394 210.81 39.0353C210.81 37.5232 210.171 36.561 209.063 36.561C207.956 36.561 207.317 37.5232 207.317 39.0353ZM212.506 42.0191C212.231 42.0191 211.996 41.7927 211.996 41.5259C211.996 41.2509 212.231 41.0164 212.506 41.0164C212.781 41.0164 213.015 41.2509 213.015 41.5259C213.015 41.7927 212.781 42.0191 212.506 42.0191ZM213.636 39.0353C213.636 37.2402 214.518 36.0273 215.957 36.0273C217.388 36.0273 218.27 37.2402 218.27 39.0353C218.27 40.8385 217.405 42.0353 215.957 42.0353C214.502 42.0353 213.636 40.8385 213.636 39.0353ZM214.211 39.0353C214.211 40.5394 214.849 41.5097 215.957 41.5097C217.065 41.5097 217.704 40.5394 217.704 39.0353C217.704 37.5232 217.065 36.561 215.957 36.561C214.849 36.561 214.211 37.5232 214.211 39.0353ZM219.811 38.0893L221.259 36.1405H221.938L220.418 38.1539C220.693 38.0165 220.943 37.9599 221.21 37.9599C222.415 37.9599 223.215 38.8413 223.215 39.9733C223.215 41.162 222.318 42.0272 221.162 42.0272C219.997 42.0272 219.083 41.1296 219.083 39.9733C219.083 39.3022 219.269 38.8332 219.811 38.0893ZM219.674 39.9814C219.674 40.8628 220.28 41.5016 221.162 41.5016C222.019 41.5016 222.633 40.8628 222.633 39.9814C222.633 39.1 222.019 38.4693 221.162 38.4693C220.28 38.4693 219.674 39.1 219.674 39.9814ZM223.996 40.3534C223.996 39.6418 224.425 39.0758 225.112 38.8413C224.53 38.6068 224.198 38.1297 224.198 37.5313C224.198 36.6418 224.958 36.0354 226.066 36.0354C227.166 36.0354 227.902 36.6418 227.902 37.5394C227.902 38.1459 227.578 38.6229 227.004 38.8413C227.675 39.0515 228.12 39.6337 228.12 40.3615C228.12 41.348 227.287 42.0272 226.058 42.0272C224.829 42.0272 223.996 41.348 223.996 40.3534ZM224.748 37.5475C224.748 38.1863 225.266 38.6149 226.058 38.6149C226.842 38.6149 227.352 38.2025 227.352 37.5637C227.352 36.941 226.842 36.5529 226.058 36.5529C225.266 36.5529 224.748 36.941 224.748 37.5475ZM224.57 40.3049C224.57 41.0245 225.169 41.5016 226.066 41.5016C226.947 41.5016 227.546 41.0245 227.546 40.3049C227.546 39.5933 226.964 39.1324 226.05 39.1324C225.152 39.1324 224.57 39.5933 224.57 40.3049ZM232.621 41.9302H228.804V41.4693L230.656 39.852C231.723 38.9221 231.998 38.5178 231.998 37.8305C231.998 37.0461 231.529 36.5691 230.761 36.5691C229.96 36.5691 229.435 37.1513 229.41 38.0488H228.828C228.861 36.8359 229.629 36.0354 230.769 36.0354C231.86 36.0354 232.588 36.7389 232.588 37.7982C232.588 38.6391 232.208 39.1971 231.052 40.2078L229.701 41.3884H232.621V41.9302Z" fill="#FF5757"/>
<path d="M250.328 36.0839V41.1943H252.899V41.9302H249.535V36.0839H250.328Z" fill="#C4C4C4"/>
<path d="M257.272 39.0353C257.272 37.2402 258.153 36.0273 259.593 36.0273C261.024 36.0273 261.905 37.2402 261.905 39.0353C261.905 40.8385 261.04 42.0353 259.593 42.0353C258.137 42.0353 257.272 40.8385 257.272 39.0353ZM257.846 39.0353C257.846 40.5394 258.485 41.5097 259.593 41.5097C260.701 41.5097 261.339 40.5394 261.339 39.0353C261.339 37.5232 260.701 36.561 259.593 36.561C258.485 36.561 257.846 37.5232 257.846 39.0353ZM263.035 42.0191C262.76 42.0191 262.526 41.7927 262.526 41.5259C262.526 41.2509 262.76 41.0164 263.035 41.0164C263.31 41.0164 263.545 41.2509 263.545 41.5259C263.545 41.7927 263.31 42.0191 263.035 42.0191ZM264.166 39.0353C264.166 37.2402 265.047 36.0273 266.486 36.0273C267.918 36.0273 268.799 37.2402 268.799 39.0353C268.799 40.8385 267.934 42.0353 266.486 42.0353C265.031 42.0353 264.166 40.8385 264.166 39.0353ZM264.74 39.0353C264.74 40.5394 265.379 41.5097 266.486 41.5097C267.594 41.5097 268.233 40.5394 268.233 39.0353C268.233 37.5232 267.594 36.561 266.486 36.561C265.379 36.561 264.74 37.5232 264.74 39.0353ZM270.34 38.0893L271.788 36.1405H272.467L270.947 38.1539C271.222 38.0165 271.472 37.9599 271.739 37.9599C272.944 37.9599 273.745 38.8413 273.745 39.9733C273.745 41.162 272.847 42.0272 271.691 42.0272C270.526 42.0272 269.613 41.1296 269.613 39.9733C269.613 39.3022 269.799 38.8332 270.34 38.0893ZM270.203 39.9814C270.203 40.8628 270.809 41.5016 271.691 41.5016C272.548 41.5016 273.163 40.8628 273.163 39.9814C273.163 39.1 272.548 38.4693 271.691 38.4693C270.809 38.4693 270.203 39.1 270.203 39.9814ZM274.525 40.3534C274.525 39.6418 274.954 39.0758 275.641 38.8413C275.059 38.6068 274.727 38.1297 274.727 37.5313C274.727 36.6418 275.488 36.0354 276.595 36.0354C277.695 36.0354 278.431 36.6418 278.431 37.5394C278.431 38.1459 278.107 38.6229 277.533 38.8413C278.205 39.0515 278.649 39.6337 278.649 40.3615C278.649 41.348 277.816 42.0272 276.587 42.0272C275.358 42.0272 274.525 41.348 274.525 40.3534ZM275.277 37.5475C275.277 38.1863 275.795 38.6149 276.587 38.6149C277.372 38.6149 277.881 38.2025 277.881 37.5637C277.881 36.941 277.372 36.5529 276.587 36.5529C275.795 36.5529 275.277 36.941 275.277 37.5475ZM275.099 40.3049C275.099 41.0245 275.698 41.5016 276.595 41.5016C277.477 41.5016 278.075 41.0245 278.075 40.3049C278.075 39.5933 277.493 39.1324 276.579 39.1324C275.682 39.1324 275.099 39.5933 275.099 40.3049ZM283.15 41.9302H279.333V41.4693L281.185 39.852C282.252 38.9221 282.527 38.5178 282.527 37.8305C282.527 37.0461 282.058 36.5691 281.29 36.5691C280.49 36.5691 279.964 37.1513 279.94 38.0488H279.357C279.39 36.8359 280.158 36.0354 281.298 36.0354C282.39 36.0354 283.118 36.7389 283.118 37.7982C283.118 38.6391 282.737 39.1971 281.581 40.2078L280.231 41.3884H283.15V41.9302Z" fill="#FF5757"/>
<path d="M302.609 42.0191C300.943 42.0191 299.835 40.8224 299.835 39.0111C299.835 37.2079 300.975 35.9869 302.649 35.9869C303.967 35.9869 304.978 36.7712 305.196 37.968H304.347C304.129 37.2079 303.474 36.747 302.625 36.747C301.444 36.747 300.668 37.6364 300.668 39.003C300.668 40.3696 301.444 41.259 302.625 41.259C303.482 41.259 304.161 40.7981 304.38 40.0785H305.22C304.97 41.2429 303.927 42.0191 302.609 42.0191Z" fill="#C4C4C4"/>
<path d="M309.822 39.0353C309.822 37.2402 310.704 36.0273 312.143 36.0273C313.574 36.0273 314.456 37.2402 314.456 39.0353C314.456 40.8385 313.59 42.0353 312.143 42.0353C310.687 42.0353 309.822 40.8385 309.822 39.0353ZM310.396 39.0353C310.396 40.5394 311.035 41.5097 312.143 41.5097C313.251 41.5097 313.89 40.5394 313.89 39.0353C313.89 37.5232 313.251 36.561 312.143 36.561C311.035 36.561 310.396 37.5232 310.396 39.0353ZM315.585 42.0191C315.31 42.0191 315.076 41.7927 315.076 41.5259C315.076 41.2509 315.31 41.0164 315.585 41.0164C315.86 41.0164 316.095 41.2509 316.095 41.5259C316.095 41.7927 315.86 42.0191 315.585 42.0191ZM316.716 39.0353C316.716 37.2402 317.597 36.0273 319.037 36.0273C320.468 36.0273 321.349 37.2402 321.349 39.0353C321.349 40.8385 320.484 42.0353 319.037 42.0353C317.581 42.0353 316.716 40.8385 316.716 39.0353ZM317.29 39.0353C317.29 40.5394 317.929 41.5097 319.037 41.5097C320.145 41.5097 320.783 40.5394 320.783 39.0353C320.783 37.5232 320.145 36.561 319.037 36.561C317.929 36.561 317.29 37.5232 317.29 39.0353ZM322.891 38.0893L324.338 36.1405H325.017L323.497 38.1539C323.772 38.0165 324.023 37.9599 324.29 37.9599C325.494 37.9599 326.295 38.8413 326.295 39.9733C326.295 41.162 325.397 42.0272 324.241 42.0272C323.077 42.0272 322.163 41.1296 322.163 39.9733C322.163 39.3022 322.349 38.8332 322.891 38.0893ZM322.753 39.9814C322.753 40.8628 323.36 41.5016 324.241 41.5016C325.098 41.5016 325.713 40.8628 325.713 39.9814C325.713 39.1 325.098 38.4693 324.241 38.4693C323.36 38.4693 322.753 39.1 322.753 39.9814ZM327.076 40.3534C327.076 39.6418 327.504 39.0758 328.192 38.8413C327.609 38.6068 327.278 38.1297 327.278 37.5313C327.278 36.6418 328.038 36.0354 329.146 36.0354C330.245 36.0354 330.981 36.6418 330.981 37.5394C330.981 38.1459 330.658 38.6229 330.084 38.8413C330.755 39.0515 331.2 39.6337 331.2 40.3615C331.2 41.348 330.367 42.0272 329.138 42.0272C327.908 42.0272 327.076 41.348 327.076 40.3534ZM327.828 37.5475C327.828 38.1863 328.345 38.6149 329.138 38.6149C329.922 38.6149 330.431 38.2025 330.431 37.5637C330.431 36.941 329.922 36.5529 329.138 36.5529C328.345 36.5529 327.828 36.941 327.828 37.5475ZM327.65 40.3049C327.65 41.0245 328.248 41.5016 329.146 41.5016C330.027 41.5016 330.625 41.0245 330.625 40.3049C330.625 39.5933 330.043 39.1324 329.13 39.1324C328.232 39.1324 327.65 39.5933 327.65 40.3049ZM335.7 41.9302H331.884V41.4693L333.735 39.852C334.803 38.9221 335.078 38.5178 335.078 37.8305C335.078 37.0461 334.609 36.5691 333.84 36.5691C333.04 36.5691 332.514 37.1513 332.49 38.0488H331.908C331.94 36.8359 332.708 36.0354 333.848 36.0354C334.94 36.0354 335.668 36.7389 335.668 37.7982C335.668 38.6391 335.288 39.1971 334.131 40.2078L332.781 41.3884H335.7V41.9302Z" fill="#FF5757"/>
<path d="M44.5059 41.9302V36.0839H46.7377C47.8778 36.0839 48.5732 36.6661 48.5732 37.6284C48.5732 38.2995 48.2821 38.7523 47.6999 38.9949C48.3468 39.2051 48.6783 39.6741 48.6783 40.3696C48.6783 41.3399 47.9748 41.9302 46.8185 41.9302H44.5059ZM46.6892 36.7874H45.2983V38.6634H46.7377C47.3926 38.6634 47.7646 38.3076 47.7646 37.7011C47.7646 37.1189 47.3765 36.7874 46.6892 36.7874ZM46.8024 39.3507H45.2983V41.2267H46.8024C47.4816 41.2267 47.8616 40.879 47.8616 40.2725C47.8616 39.6903 47.4735 39.3507 46.8024 39.3507ZM48.9779 36.8117V36.0839H53.2878V36.8117H51.5331V41.9302H50.7407V36.8117H48.9779ZM56.2892 42.0191C54.6235 42.0191 53.5157 40.8224 53.5157 39.0111C53.5157 37.2079 54.6558 35.9869 56.3297 35.9869C57.6477 35.9869 58.6585 36.7712 58.8768 37.968H58.0278C57.8094 37.2079 57.1544 36.747 56.3054 36.747C55.1248 36.747 54.3486 37.6364 54.3486 39.003C54.3486 40.3696 55.1248 41.259 56.3054 41.259C57.1625 41.259 57.8418 40.7981 58.0601 40.0785H58.9011C58.6504 41.2429 57.6073 42.0191 56.2892 42.0191ZM59.7876 41.9302H59.0355L61.3158 36.092H62.0759L59.7876 41.9302ZM66.321 41.9302H62.755V36.0839H66.321V36.8117H63.5474V38.6391H66.046V39.3426H63.5474V41.1943H66.321V41.9302ZM66.9032 36.8117V36.0839H71.2131V36.8117H69.4585V41.9302H68.666V36.8117H66.9032ZM72.8023 41.9302H72.0098V36.0839H72.8023V38.5987H75.6971V36.0839H76.4895V41.9302H75.6971V39.3345H72.8023V41.9302Z" fill="#C4C4C4"/>
<ellipse cx="81.6392" cy="38.4302" rx="1.08602" ry="1.08659" fill="#C4C4C4"/>
<path d="M87.713 36.9876H86.4839V36.276H88.4731V42.1223H87.713V36.9876ZM90.4563 42.1142H89.6962V36.1709H90.4563V38.7747C90.707 38.3461 91.184 38.055 91.7986 38.055C92.8093 38.055 93.2945 38.6938 93.2945 39.7046V42.1223H92.5344V39.8744C92.5344 39.0738 92.1544 38.7504 91.5883 38.7504C90.8525 38.7504 90.4563 39.2841 90.4563 39.9633V42.1142Z" fill="#C4C4C4"/>
<ellipse cx="98.359" cy="38.4302" rx="1.08602" ry="1.08659" fill="#C4C4C4"/>
<path d="M105.506 40.0442V36.276H106.299V39.9957C106.299 40.9337 106.816 41.4512 107.746 41.4512C108.668 41.4512 109.177 40.9256 109.177 39.9957V36.276H109.978V40.0442C109.978 41.3865 109.121 42.2193 107.746 42.2193C106.363 42.2193 105.506 41.3946 105.506 40.0442ZM111.926 42.1223H111.166V38.1682H111.853L111.934 38.7747C112.185 38.3218 112.686 38.055 113.244 38.055C114.287 38.055 114.764 38.6938 114.764 39.7046V42.1223H114.004V39.8744C114.004 39.0738 113.632 38.7504 113.05 38.7504C112.339 38.7504 111.926 39.2598 111.926 40.028V42.1223ZM116.189 37.2302C115.914 37.2302 115.688 37.0038 115.688 36.7289C115.688 36.4458 115.914 36.2275 116.189 36.2275C116.464 36.2275 116.691 36.4458 116.691 36.7289C116.691 37.0038 116.464 37.2302 116.189 37.2302ZM115.817 42.1223V38.1682H116.577V42.1223H115.817ZM117.357 40.9741H118.085C118.085 41.3784 118.392 41.621 118.894 41.621C119.427 41.621 119.735 41.4026 119.735 41.0388C119.735 40.7719 119.605 40.6102 119.193 40.5051L118.498 40.3434C117.794 40.1736 117.462 39.8259 117.462 39.2436C117.462 38.5159 118.077 38.055 118.95 38.055C119.816 38.055 120.382 38.5402 120.398 39.2922H119.67C119.654 38.8959 119.387 38.6453 118.926 38.6453C118.449 38.6453 118.182 38.8555 118.182 39.2194C118.182 39.4862 118.376 39.6641 118.764 39.7612L119.46 39.931C120.131 40.0927 120.462 40.4 120.462 40.9903C120.462 41.7423 119.816 42.2193 118.878 42.2193C117.948 42.2193 117.357 41.7261 117.357 40.9741ZM122.06 42.1223L120.766 38.1682H121.55L122.205 40.2221C122.294 40.5132 122.375 40.8124 122.448 41.1601C122.512 40.8124 122.618 40.4808 122.707 40.2221L123.37 38.1682H124.146L124.801 40.2221C124.866 40.4161 124.995 40.877 125.06 41.1601C125.124 40.8447 125.197 40.5698 125.31 40.2221L125.973 38.1682H126.766L125.415 42.1223H124.696L124.008 40.0037C123.879 39.6075 123.798 39.3003 123.758 39.0819C123.717 39.276 123.645 39.5348 123.499 40.0118L122.812 42.1223H122.06ZM128.392 42.2193C127.543 42.2193 127.042 41.7423 127.042 41.0226C127.042 40.2948 127.583 39.842 128.513 39.7692L129.759 39.6722V39.559C129.759 38.8959 129.362 38.6614 128.829 38.6614C128.19 38.6614 127.826 38.9445 127.826 39.4215H127.163C127.163 38.5968 127.842 38.055 128.861 38.055C129.839 38.055 130.503 38.5725 130.503 39.6399V42.1223H129.856L129.775 41.4835C129.573 41.9363 129.031 42.2193 128.392 42.2193ZM128.61 41.6291C129.33 41.6291 129.767 41.1601 129.767 40.4161V40.2059L128.756 40.2868C128.085 40.3515 127.81 40.6102 127.81 40.9983C127.81 41.4188 128.117 41.6291 128.61 41.6291ZM131.555 43.8932V38.1682H132.242L132.299 38.8798C132.566 38.338 133.1 38.055 133.73 38.055C134.862 38.055 135.566 38.904 135.566 40.117C135.566 41.3218 134.903 42.2274 133.73 42.2274C133.1 42.2274 132.574 41.9606 132.315 41.4754V43.8932H131.555ZM132.323 40.1493C132.323 40.9579 132.792 41.5401 133.569 41.5401C134.345 41.5401 134.806 40.9579 134.806 40.1493C134.806 39.3326 134.345 38.7504 133.569 38.7504C132.792 38.7504 132.323 39.3245 132.323 40.1493Z" fill="#C4C4C4"/>
<path d="M47.4291 62.0582L45.2054 56.2119H46.0545L47.4776 59.9477C47.607 60.2793 47.7202 60.6108 47.8415 61.0475C47.979 60.5866 48.1164 60.1984 48.2135 59.9397L49.6286 56.2119H50.4533L48.2539 62.0582H47.4291ZM50.1852 60.0771C50.1852 58.8561 51.0585 57.999 52.2472 57.999C53.4278 57.999 54.3011 58.8561 54.3011 60.0771C54.3011 61.2981 53.4278 62.1553 52.2472 62.1553C51.0585 62.1553 50.1852 61.2981 50.1852 60.0771ZM50.9534 60.0771C50.9534 60.9019 51.479 61.476 52.2472 61.476C53.0073 61.476 53.541 60.9019 53.541 60.0771C53.541 59.2523 53.0073 58.6782 52.2472 58.6782C51.479 58.6782 50.9534 59.2523 50.9534 60.0771ZM55.9188 62.0582H55.1587V56.1068H55.9188V62.0582ZM59.7708 58.1041H60.5228V62.0582H59.8436L59.7627 61.4599C59.5363 61.8722 59.0107 62.1553 58.4285 62.1553C57.5067 62.1553 56.9892 61.5326 56.9892 60.5623V58.1041H57.7492V60.3116C57.7492 61.1607 58.1131 61.4841 58.6953 61.4841C59.3907 61.4841 59.7708 61.0394 59.7708 60.1903V58.1041ZM62.3857 62.0582H61.6256V58.1041H62.3048L62.3776 58.6216C62.5798 58.2497 63.0002 57.9909 63.5582 57.9909C64.1727 57.9909 64.6094 58.2982 64.8115 58.7914C64.9975 58.2982 65.4746 57.9909 66.0892 57.9909C66.9948 57.9909 67.5447 58.5569 67.5447 59.4707V62.0582H66.8007V59.6566C66.8007 59.034 66.453 58.6782 65.9193 58.6782C65.3452 58.6782 64.9652 59.0825 64.9652 59.7132V62.0582H64.2132V59.6486C64.2132 59.0259 63.8736 58.6863 63.3399 58.6863C62.7658 58.6863 62.3857 59.0825 62.3857 59.7132V62.0582ZM70.3045 62.1553C69.1401 62.1553 68.3396 61.3143 68.3396 60.0852C68.3396 58.848 69.1239 57.9909 70.2721 57.9909C71.3961 57.9909 72.132 58.7672 72.132 59.9397V60.2227L69.0754 60.2308C69.132 61.0636 69.5687 61.5245 70.3207 61.5245C70.911 61.5245 71.2991 61.282 71.4285 60.8291H72.14C71.946 61.6782 71.2829 62.1553 70.3045 62.1553ZM70.2721 58.6297C69.6091 58.6297 69.1886 59.0259 69.0916 59.7213H71.3719C71.3719 59.0664 70.9433 58.6297 70.2721 58.6297Z" fill="#C4C4C4"/>
<path d="M78.1133 63.0509V62.3393C77.0944 62.2827 76.4071 61.7005 76.3424 60.811H76.9408C76.9731 61.3771 77.4179 61.7571 78.1133 61.8137V59.5658L77.7979 59.4849C76.8923 59.2666 76.4152 58.7572 76.4152 57.9647C76.4152 57.0672 77.0863 56.4445 78.1133 56.3637V55.6602H78.5418V56.3637C79.4798 56.4283 80.0944 56.9944 80.1752 57.9081H79.593C79.5364 57.3016 79.1645 56.9459 78.5418 56.8812V59.1049L78.8976 59.1938C79.8114 59.4202 80.2723 59.9296 80.2723 60.7059C80.2723 61.6358 79.6011 62.2585 78.5418 62.3393V63.0509H78.1133ZM77.903 58.9512L78.1133 58.9997V56.8893C77.426 56.962 76.9893 57.3663 76.9893 57.9566C76.9893 58.4661 77.2885 58.7976 77.903 58.9512ZM78.7763 59.7275L78.5418 59.6709V61.8137C79.2534 61.7409 79.6982 61.3366 79.6982 60.7383C79.6982 60.2127 79.399 59.873 78.7763 59.7275ZM84.7963 62.2504H80.9796V61.7895L82.8313 60.1722C83.8987 59.2423 84.1736 58.838 84.1736 58.1507C84.1736 57.3663 83.7046 56.8893 82.9365 56.8893C82.1359 56.8893 81.6103 57.4715 81.5861 58.369H81.0039C81.0362 57.1561 81.8044 56.3556 82.9446 56.3556C84.0362 56.3556 84.7639 57.0591 84.7639 58.1183C84.7639 58.9593 84.3839 59.5173 83.2276 60.528L81.8772 61.7086H84.7963V62.2504ZM89.3526 62.2504H85.536V61.7895L87.3877 60.1722C88.4551 59.2423 88.73 58.838 88.73 58.1507C88.73 57.3663 88.261 56.8893 87.4928 56.8893C86.6923 56.8893 86.1667 57.4715 86.1424 58.369H85.5602C85.5926 57.1561 86.3608 56.3556 87.5009 56.3556C88.5925 56.3556 89.3203 57.0591 89.3203 58.1183C89.3203 58.9593 88.9402 59.5173 87.7839 60.528L86.4335 61.7086H89.3526V62.2504ZM91.7742 59.1453H91.3133V58.741L93.1004 56.9782H90.3268V56.4607H93.8362V56.9297L92.1058 58.652C93.1893 58.7086 93.9656 59.396 93.9656 60.4472C93.9656 61.5954 93.1246 62.3474 91.9521 62.3474C90.812 62.3474 90.0438 61.6439 90.0438 60.4876H90.6179C90.6179 61.3205 91.1354 61.8218 91.9521 61.8218C92.8173 61.8218 93.3753 61.2719 93.3753 60.431C93.3753 59.6385 92.8093 59.1453 91.7742 59.1453ZM95.61 56.4607V59.9458L98.3997 56.4607H99.0951L97.1302 58.9108L99.1274 62.2504H98.4482L96.7501 59.396L95.61 60.811V62.2504H95.0278V56.4607H95.61Z" fill="#27AE60"/>
<path d="M38.2254 14.7155H37.1499V14.0929H38.8905V19.2084H38.2254V14.7155ZM40.6258 19.2084H39.9607V15.7485H40.555L40.6187 16.2013C40.7956 15.8759 41.1635 15.6495 41.6517 15.6495C42.1894 15.6495 42.5715 15.9183 42.7484 16.3499C42.9111 15.9183 43.3285 15.6495 43.8663 15.6495C44.6587 15.6495 45.1398 16.1447 45.1398 16.9443V19.2084H44.4889V17.107C44.4889 16.5622 44.1847 16.2509 43.7177 16.2509C43.2153 16.2509 42.8828 16.6046 42.8828 17.1565V19.2084H42.2248V17.0999C42.2248 16.5551 41.9276 16.2579 41.4606 16.2579C40.9583 16.2579 40.6258 16.6046 40.6258 17.1565V19.2084Z" fill="#C4C4C4"/>
<path d="M60.2988 16.5622H59.7894V16.1023L61.2398 14.7084H58.9403V14.0929H62.1172V14.6518L60.7162 15.9891C61.5865 16.0952 62.2445 16.6825 62.2445 17.6023C62.2445 18.6353 61.4662 19.2933 60.4261 19.2933C59.4214 19.2933 58.6998 18.6777 58.6998 17.6164H59.3861C59.3861 18.2815 59.7964 18.6706 60.4403 18.6706C61.1054 18.6706 61.537 18.2461 61.537 17.5881C61.537 16.9726 61.1125 16.5622 60.2988 16.5622ZM62.8555 16.6542C62.8555 15.0693 63.6763 13.9938 64.964 13.9938C66.2446 13.9938 67.0654 15.0693 67.0654 16.6542C67.0654 18.2461 66.28 19.3004 64.964 19.3004C63.6409 19.3004 62.8555 18.2461 62.8555 16.6542ZM63.5419 16.6542C63.5419 17.9136 64.0654 18.6777 64.964 18.6777C65.8626 18.6777 66.3791 17.9136 66.3791 16.6542C66.3791 15.3806 65.8626 14.6165 64.964 14.6165C64.0654 14.6165 63.5419 15.3806 63.5419 16.6542ZM68.5608 19.2084H67.8957V15.7485H68.4901L68.5538 16.2013C68.7306 15.8759 69.0986 15.6495 69.5868 15.6495C70.1245 15.6495 70.5066 15.9183 70.6834 16.3499C70.8462 15.9183 71.2636 15.6495 71.8014 15.6495C72.5938 15.6495 73.0749 16.1447 73.0749 16.9443V19.2084H72.424V17.107C72.424 16.5622 72.1197 16.2509 71.6528 16.2509C71.1504 16.2509 70.8179 16.6046 70.8179 17.1565V19.2084H70.1599V17.0999C70.1599 16.5551 69.8627 16.2579 69.3957 16.2579C68.8934 16.2579 68.5608 16.6046 68.5608 17.1565V19.2084Z" fill="#C4C4C4"/>
<path d="M87.7508 14.7155H86.6754V14.0929H88.4159V19.2084H87.7508V14.7155ZM90.1512 19.2013H89.4861V14.0009H90.1512V16.2792C90.3706 15.9042 90.788 15.6495 91.3257 15.6495C92.2101 15.6495 92.6347 16.2084 92.6347 17.0928V19.2084H91.9696V17.2414C91.9696 16.541 91.637 16.2579 91.1418 16.2579C90.4979 16.2579 90.1512 16.7249 90.1512 17.3192V19.2013Z" fill="#2F80ED"/>
<path d="M98.6467 15.7444L98.1704 16.2209L100.866 18.9183L103.563 16.2565L103.09 15.7766L100.869 17.9679L98.6467 15.7444Z" fill="white" fill-opacity="0.56"/>
<path d="M120.315 15.2416V18.2747H121.831V15.2416H120.315ZM120.063 14.7361H122.084C122.151 14.7361 122.215 14.7627 122.262 14.8101C122.31 14.8575 122.336 14.9218 122.336 14.9888V18.5275C122.336 18.5945 122.31 18.6588 122.262 18.7062C122.215 18.7536 122.151 18.7802 122.084 18.7802H120.063C119.996 18.7802 119.931 18.7536 119.884 18.7062C119.837 18.6588 119.81 18.5945 119.81 18.5275V14.9888C119.81 14.9218 119.837 14.8575 119.884 14.8101C119.931 14.7627 119.996 14.7361 120.063 14.7361Z" fill="#27AE60"/>
<path d="M120.821 13.2194H121.326V14.9887H120.821V13.2194ZM120.821 18.5273H121.326V20.2966H120.821V18.5273Z" fill="#27AE60"/>
<path d="M116.273 13.7249V19.7911H117.789V13.7249H116.273ZM116.021 13.2194H118.042C118.109 13.2194 118.173 13.246 118.22 13.2934C118.268 13.3408 118.294 13.4051 118.294 13.4721V20.0438C118.294 20.1109 118.268 20.1752 118.22 20.2226C118.173 20.27 118.109 20.2966 118.042 20.2966H116.021C115.954 20.2966 115.889 20.27 115.842 20.2226C115.795 20.1752 115.768 20.1109 115.768 20.0438V13.4721C115.768 13.4051 115.795 13.3408 115.842 13.2934C115.889 13.246 115.954 13.2194 116.021 13.2194Z" fill="#27AE60"/>
<path d="M116.779 11.7028H117.284V13.4721H116.779V11.7028ZM116.779 20.0438H117.284V21.8131H116.779V20.0438Z" fill="#27AE60"/>
<path d="M143.308 20.8024V18.7803M145.329 20.8024V16.7582M147.35 20.8024V17.7693M149.371 20.8024V18.7803M151.392 20.8024V16.7582M143.056 15.7472L145.016 13.5684C145.101 13.4737 145.218 13.4144 145.344 13.4022C145.471 13.39 145.597 13.4259 145.698 13.5027L148.26 15.4742C148.357 15.5499 148.478 15.5875 148.601 15.5801C148.724 15.5726 148.839 15.5206 148.927 15.4338L151.645 12.7141L143.056 15.7472Z" stroke="white" stroke-width="0.505384"/>
<path fill-rule="evenodd" clip-rule="evenodd" d="M177.163 13.2194H176.911V16.2525H175.395V14.7359H172.869V17.769H170.848V20.8021H179.437V13.2194H177.163ZM177.416 20.2966H178.932V13.7249H177.416V20.2966ZM176.911 20.2966V16.758H175.395V20.2966H176.911ZM174.89 16.5052V20.2966H173.374V15.2414H174.89V16.5052ZM172.869 20.2966V18.2745H171.353V20.2966H172.869Z" fill="white"/>
<path d="M198.127 13.7249C198.127 13.3897 197.994 13.0682 197.757 12.8312C197.52 12.5942 197.199 12.4611 196.864 12.4611C196.529 12.4611 196.208 12.5942 195.971 12.8312C195.734 13.0682 195.601 13.3897 195.601 13.7249V19.2855C195.601 19.6207 195.468 19.9422 195.231 20.1792C194.994 20.4162 194.673 20.5493 194.338 20.5493C194.003 20.5493 193.682 20.4162 193.445 20.1792C193.208 19.9422 193.075 19.6207 193.075 19.2855M199.39 18.2745L196.864 20.8021L199.39 18.2745ZM196.864 18.2745L199.39 20.8021L196.864 18.2745ZM193.833 15.4942H197.369H193.833Z" stroke="white" stroke-width="0.505384"/>
<path d="M210.727 14.0929V19.2084H210.034V14.0929H210.727ZM212.472 19.2084H211.807V15.7485H212.408L212.479 16.2792C212.698 15.8829 213.137 15.6495 213.625 15.6495C214.538 15.6495 214.955 16.2084 214.955 17.0928V19.2084H214.29V17.2414C214.29 16.541 213.965 16.2579 213.455 16.2579C212.833 16.2579 212.472 16.7037 212.472 17.3759V19.2084ZM217.263 19.2933C216.259 19.2933 215.65 18.5433 215.65 17.4891C215.65 16.4278 216.266 15.6495 217.292 15.6495C217.822 15.6495 218.268 15.8829 218.502 16.3075V14.0009H219.16V19.2084H218.565L218.509 18.5787C218.282 19.0527 217.815 19.2933 217.263 19.2933ZM217.398 18.6919C218.077 18.6919 218.494 18.1895 218.494 17.4678C218.494 16.7603 218.077 16.2509 217.398 16.2509C216.719 16.2509 216.322 16.7603 216.322 17.4678C216.322 18.1824 216.719 18.6919 217.398 18.6919ZM220.445 14.9278C220.204 14.9278 220.006 14.7297 220.006 14.4891C220.006 14.2415 220.204 14.0504 220.445 14.0504C220.685 14.0504 220.883 14.2415 220.883 14.4891C220.883 14.7297 220.685 14.9278 220.445 14.9278ZM220.119 19.2084V15.7485H220.784V19.2084H220.119ZM221.523 17.482C221.523 16.3995 222.21 15.6495 223.221 15.6495C224.092 15.6495 224.7 16.1447 224.82 16.916H224.155C224.042 16.4773 223.688 16.2438 223.243 16.2438C222.613 16.2438 222.181 16.7249 222.181 17.4749C222.181 18.2178 222.585 18.6989 223.214 18.6989C223.688 18.6989 224.042 18.4513 224.162 18.0409H224.827C224.693 18.7909 224.049 19.2933 223.214 19.2933C222.195 19.2933 221.523 18.5716 221.523 17.482ZM226.541 19.2933C225.798 19.2933 225.359 18.8758 225.359 18.2461C225.359 17.6093 225.833 17.2131 226.647 17.1494L227.737 17.0645V16.9655C227.737 16.3853 227.39 16.1801 226.923 16.1801C226.364 16.1801 226.046 16.4278 226.046 16.8452H225.466C225.466 16.1235 226.06 15.6495 226.951 15.6495C227.807 15.6495 228.388 16.1023 228.388 17.0362V19.2084H227.822L227.751 18.6494C227.574 19.0456 227.1 19.2933 226.541 19.2933ZM226.732 18.7768C227.362 18.7768 227.744 18.3664 227.744 17.7155V17.5315L226.859 17.6023C226.272 17.6589 226.032 17.8853 226.032 18.2249C226.032 18.5928 226.3 18.7768 226.732 18.7768ZM230.23 19.2084H229.565V16.3075H228.886V15.7485H229.565V14.666H230.23V15.7485H230.909V16.3075H230.23V19.2084ZM231.245 17.4749C231.245 16.4065 232.009 15.6565 233.049 15.6565C234.082 15.6565 234.846 16.4065 234.846 17.4749C234.846 18.5433 234.082 19.2933 233.049 19.2933C232.009 19.2933 231.245 18.5433 231.245 17.4749ZM231.917 17.4749C231.917 18.1966 232.377 18.6989 233.049 18.6989C233.714 18.6989 234.181 18.1966 234.181 17.4749C234.181 16.7532 233.714 16.2509 233.049 16.2509C232.377 16.2509 231.917 16.7532 231.917 17.4749ZM237.564 15.7202V16.3287H237.267C236.637 16.3287 236.248 16.7108 236.248 17.3759V19.2084H235.583V15.7556H236.205L236.248 16.2792C236.389 15.9183 236.736 15.6778 237.21 15.6778C237.33 15.6778 237.429 15.6919 237.564 15.7202ZM237.904 18.2037H238.541C238.541 18.5574 238.81 18.7697 239.249 18.7697C239.716 18.7697 239.985 18.5787 239.985 18.2603C239.985 18.0268 239.871 17.8853 239.511 17.7933L238.902 17.6518C238.287 17.5032 237.996 17.199 237.996 16.6895C237.996 16.0528 238.534 15.6495 239.298 15.6495C240.055 15.6495 240.551 16.074 240.565 16.732H239.928C239.914 16.3853 239.68 16.166 239.277 16.166C238.86 16.166 238.626 16.3499 238.626 16.6683C238.626 16.9018 238.796 17.0575 239.136 17.1424L239.744 17.2909C240.331 17.4325 240.621 17.7013 240.621 18.2178C240.621 18.8758 240.055 19.2933 239.235 19.2933C238.421 19.2933 237.904 18.8617 237.904 18.2037Z" fill="#C4C4C4"/>
<path d="M257.49 12.7139C256.351 12.7139 255.259 13.1666 254.454 13.9724C253.648 14.7782 253.196 15.8712 253.196 17.0108C253.196 18.1504 253.648 19.2433 254.454 20.0491C255.259 20.855 256.351 21.3077 257.49 21.3077C258.629 21.3077 259.722 20.855 260.527 20.0491C261.332 19.2433 261.785 18.1504 261.785 17.0108C261.785 15.8712 261.332 14.7782 260.527 13.9724C259.722 13.1666 258.629 12.7139 257.49 12.7139ZM252.69 17.0108C252.69 15.7371 253.196 14.5156 254.096 13.615C254.996 12.7143 256.217 12.2084 257.49 12.2084C258.763 12.2084 259.984 12.7143 260.884 13.615C261.784 14.5156 262.29 15.7371 262.29 17.0108C262.29 18.2845 261.784 19.506 260.884 20.4066C259.984 21.3072 258.763 21.8132 257.49 21.8132C256.217 21.8132 254.996 21.3072 254.096 20.4066C253.196 19.506 252.69 18.2845 252.69 17.0108Z" fill="white"/>
<path d="M255.217 16.7581H257.238V14.7361H257.743V16.7581H259.764V17.2637H257.743V19.2857H257.238V17.2637H255.217V16.7581Z" fill="white"/>
<path d="M272.588 19.2862C271.13 19.2862 270.161 18.239 270.161 16.6542C270.161 15.0764 271.158 14.008 272.623 14.008C273.776 14.008 274.661 14.6943 274.852 15.7414H274.109C273.918 15.0764 273.345 14.6731 272.602 14.6731C271.569 14.6731 270.89 15.4514 270.89 16.6471C270.89 17.8428 271.569 18.6211 272.602 18.6211C273.352 18.6211 273.946 18.2178 274.137 17.5881H274.873C274.654 18.607 273.741 19.2862 272.588 19.2862ZM275.384 17.4749C275.384 16.4065 276.148 15.6565 277.188 15.6565C278.221 15.6565 278.985 16.4065 278.985 17.4749C278.985 18.5433 278.221 19.2933 277.188 19.2933C276.148 19.2933 275.384 18.5433 275.384 17.4749ZM276.056 17.4749C276.056 18.1966 276.516 18.6989 277.188 18.6989C277.853 18.6989 278.32 18.1966 278.32 17.4749C278.32 16.7532 277.853 16.2509 277.188 16.2509C276.516 16.2509 276.056 16.7532 276.056 17.4749ZM280.386 19.2084H279.721V15.7485H280.315L280.379 16.2013C280.556 15.8759 280.924 15.6495 281.412 15.6495C281.95 15.6495 282.332 15.9183 282.509 16.3499C282.672 15.9183 283.089 15.6495 283.627 15.6495C284.419 15.6495 284.9 16.1447 284.9 16.9443V19.2084H284.249V17.107C284.249 16.5622 283.945 16.2509 283.478 16.2509C282.976 16.2509 282.643 16.6046 282.643 17.1565V19.2084H281.985V17.0999C281.985 16.5551 281.688 16.2579 281.221 16.2579C280.719 16.2579 280.386 16.6046 280.386 17.1565V19.2084ZM285.822 20.7579V15.7485H286.424L286.473 16.3711C286.707 15.8971 287.174 15.6495 287.726 15.6495C288.716 15.6495 289.332 16.3924 289.332 17.4537C289.332 18.5079 288.751 19.3004 287.726 19.3004C287.174 19.3004 286.714 19.0669 286.487 18.6423V20.7579H285.822ZM286.494 17.482C286.494 18.1895 286.905 18.6989 287.584 18.6989C288.263 18.6989 288.667 18.1895 288.667 17.482C288.667 16.7674 288.263 16.2579 287.584 16.2579C286.905 16.2579 286.494 16.7603 286.494 17.482ZM291.076 19.2933C290.334 19.2933 289.895 18.8758 289.895 18.2461C289.895 17.6093 290.369 17.2131 291.183 17.1494L292.272 17.0645V16.9655C292.272 16.3853 291.926 16.1801 291.459 16.1801C290.9 16.1801 290.581 16.4278 290.581 16.8452H290.001C290.001 16.1235 290.595 15.6495 291.487 15.6495C292.343 15.6495 292.923 16.1023 292.923 17.0362V19.2084H292.357L292.286 18.6494C292.109 19.0456 291.635 19.2933 291.076 19.2933ZM291.268 18.7768C291.897 18.7768 292.279 18.3664 292.279 17.7155V17.5315L291.395 17.6023C290.808 17.6589 290.567 17.8853 290.567 18.2249C290.567 18.5928 290.836 18.7768 291.268 18.7768ZM295.825 15.7202V16.3287H295.528C294.898 16.3287 294.509 16.7108 294.509 17.3759V19.2084H293.844V15.7556H294.467L294.509 16.2792C294.651 15.9183 294.998 15.6778 295.472 15.6778C295.592 15.6778 295.691 15.6919 295.825 15.7202ZM297.818 19.2933C296.799 19.2933 296.098 18.5574 296.098 17.482C296.098 16.3995 296.785 15.6495 297.789 15.6495C298.773 15.6495 299.417 16.3287 299.417 17.3546V17.6023L296.742 17.6093C296.792 18.3381 297.174 18.7414 297.832 18.7414C298.348 18.7414 298.688 18.5291 298.801 18.1329H299.424C299.254 18.8758 298.674 19.2933 297.818 19.2933ZM297.789 16.2084C297.209 16.2084 296.841 16.5551 296.756 17.1636H298.752C298.752 16.5905 298.377 16.2084 297.789 16.2084Z" fill="#C4C4C4"/>
<rect x="225.624" y="99.8624" width="1.0105" height="9.62386" fill="#27AE60"/>
<rect x="224.591" y="109.486" width="3.07669" height="3.26312" fill="#27AE60"/>
<rect x="225.624" y="112.749" width="1.0105" height="9.53583" fill="#27AE60"/>
<rect x="297.201" y="70.7914" width="1.0105" height="12.5135" fill="#27AE60"/>
<rect x="296.168" y="83.3049" width="3.07669" height="22.0324" fill="#27AE60"/>
<rect x="297.201" y="105.337" width="1.0105" height="2.94152" fill="#27AE60"/>
<rect x="321.057" y="84.3396" width="1.0105" height="4.14474" fill="#27AE60"/>
<rect x="320.024" y="88.4843" width="3.07669" height="18.5604" fill="#27AE60"/>
<rect x="321.057" y="107.045" width="1.0105" height="2.94152" fill="#27AE60"/>
<rect x="327.022" y="79.163" width="1.0105" height="4.14474" fill="#27AE60"/>
<rect x="325.99" y="83.3076" width="3.07669" height="18.5604" fill="#27AE60"/>
<rect x="327.022" y="101.868" width="1.0105" height="2.94152" fill="#27AE60"/>
<rect x="285.271" y="106.941" width="1.0105" height="9.62386" fill="#27AE60"/>
<rect x="284.238" y="116.564" width="3.07669" height="3.28112" fill="#27AE60"/>
<rect x="285.271" y="119.846" width="1.0105" height="9.53583" fill="#27AE60"/>
<rect x="291.236" y="94.7585" width="1.0105" height="9.62386" fill="#27AE60"/>
<rect x="290.202" y="104.382" width="3.07669" height="3.28112" fill="#27AE60"/>
<rect x="291.236" y="107.664" width="1.0105" height="9.53583" fill="#27AE60"/>
<rect x="231.589" y="98.0697" width="1.0105" height="9.62386" fill="#27AE60"/>
<rect x="230.556" y="107.693" width="3.07669" height="1" fill="#27AE60"/>
<rect x="231.589" y="108.693" width="1.0105" height="9.53583" fill="#27AE60"/>
<rect x="243.519" y="126.817" width="1.0105" height="3.89669" fill="#27AE60"/>
<rect x="242.485" y="130.713" width="3.07669" height="6.17167" fill="#27AE60"/>
<rect x="243.519" y="136.885" width="1.0105" height="3.76236" fill="#27AE60"/>
<rect x="249.483" y="125.624" width="1.0105" height="3.89669" fill="#27AE60"/>
<rect x="248.45" y="129.52" width="3.07669" height="6.17167" fill="#27AE60"/>
<rect x="249.483" y="135.692" width="1.0105" height="3.76236" fill="#27AE60"/>
<rect x="255.447" y="124.71" width="1.0105" height="3.89669" fill="#27AE60"/>
<rect x="254.414" y="128.607" width="3.07669" height="6.17167" fill="#27AE60"/>
<rect x="255.447" y="134.778" width="1.0105" height="3.76236" fill="#27AE60"/>
<rect x="261.41" y="123.969" width="1.0105" height="3.89669" fill="#27AE60"/>
<rect x="260.377" y="127.865" width="3.07669" height="6.17167" fill="#27AE60"/>
<rect x="261.41" y="134.037" width="1.0105" height="3.76236" fill="#27AE60"/>
<rect x="273.341" y="123.888" width="1.0105" height="3.89669" fill="#27AE60"/>
<rect x="272.308" y="127.785" width="3.07669" height="6.17167" fill="#27AE60"/>
<rect x="273.341" y="133.956" width="1.0105" height="3.76236" fill="#27AE60"/>
<rect x="279.306" y="124.586" width="1.0105" height="3.89669" fill="#27AE60"/>
<rect x="278.273" y="128.483" width="3.07669" height="6.17167" fill="#27AE60"/>
<rect x="279.306" y="134.654" width="1.0105" height="3.76236" fill="#27AE60"/>
<rect x="267.375" y="117.52" width="1.0105" height="3.89669" fill="#27AE60"/>
<rect x="266.342" y="121.417" width="3.07669" height="6.17167" fill="#27AE60"/>
<rect x="267.375" y="127.588" width="1.0105" height="3.76236" fill="#27AE60"/>
<rect x="237.554" y="101.491" width="1.0105" height="9.62386" fill="#E10000"/>
<rect x="236.521" y="111.115" width="3.07669" height="12.2574" fill="#E10000"/>
<rect x="237.554" y="123.372" width="1.0105" height="9.53583" fill="#E10000"/>
<rect x="303.165" y="81.1134" width="1.0105" height="3.37386" fill="#E10000"/>
<rect x="302.132" y="84.4873" width="3.07669" height="5.82248" fill="#E10000"/>
<rect x="303.165" y="90.3097" width="1.0105" height="4.63437" fill="#E10000"/>
<rect x="309.129" y="88.063" width="1.0105" height="3.37386" fill="#E10000"/>
<rect x="308.096" y="91.4369" width="3.07669" height="5.82248" fill="#E10000"/>
<rect x="309.129" y="97.2593" width="1.0105" height="4.63437" fill="#E10000"/>
<rect x="315.092" y="97.6497" width="1.0105" height="3.37386" fill="#E10000"/>
<rect x="314.06" y="101.024" width="3.07669" height="27.5565" fill="#E10000"/>
<rect x="315.092" y="128.58" width="1.0105" height="4.63437" fill="#E10000"/>
<rect x="195.81" y="165.149" width="1.0105" height="4.14474" transform="rotate(180 195.81 165.149)" fill="#27AE60"/>
<rect x="196.843" y="161.004" width="3.07669" height="25.1323" transform="rotate(180 196.843 161.004)" fill="#27AE60"/>
<rect x="195.81" y="135.872" width="1.0105" height="2.94152" transform="rotate(180 195.81 135.872)" fill="#27AE60"/>
<rect x="100.376" y="166.627" width="1.0105" height="4.14474" transform="rotate(180 100.376 166.627)" fill="#27AE60"/>
<rect x="101.41" y="162.482" width="3.07669" height="25.1323" transform="rotate(180 101.41 162.482)" fill="#27AE60"/>
<rect x="100.376" y="137.35" width="1.0105" height="2.94152" transform="rotate(180 100.376 137.35)" fill="#27AE60"/>
<rect x="94.4116" y="164.986" width="1.0105" height="4.14474" transform="rotate(180 94.4116 164.986)" fill="#27AE60"/>
<rect x="95.4446" y="160.841" width="3.07669" height="25.1323" transform="rotate(180 95.4446 160.841)" fill="#27AE60"/>
<rect x="94.4116" y="135.709" width="1.0105" height="2.94152" transform="rotate(180 94.4116 135.709)" fill="#27AE60"/>
<rect x="171.953" y="160.821" width="1.0105" height="4.14474" transform="rotate(180 171.953 160.821)" fill="#27AE60"/>
<rect x="172.986" y="156.676" width="3.07669" height="18.5604" transform="rotate(180 172.986 156.676)" fill="#27AE60"/>
<rect x="171.953" y="138.116" width="1.0105" height="2.94152" transform="rotate(180 171.953 138.116)" fill="#27AE60"/>
<rect x="165.988" y="165.998" width="1.0105" height="4.14474" transform="rotate(180 165.988 165.998)" fill="#27AE60"/>
<rect x="167.021" y="161.853" width="3.07669" height="18.5604" transform="rotate(180 167.021 161.853)" fill="#27AE60"/>
<rect x="165.988" y="143.293" width="1.0105" height="2.94152" transform="rotate(180 165.988 143.293)" fill="#27AE60"/>
<rect x="207.74" y="138.22" width="1.0105" height="9.62386" transform="rotate(180 207.74 138.22)" fill="#27AE60"/>
<rect x="208.772" y="128.596" width="3.07669" height="3.28112" transform="rotate(180 208.772 128.596)" fill="#27AE60"/>
<rect x="207.74" y="125.315" width="1.0105" height="9.53583" transform="rotate(180 207.74 125.315)" fill="#27AE60"/>
<rect x="201.775" y="150.402" width="1.0105" height="9.62386" transform="rotate(180 201.775 150.402)" fill="#27AE60"/>
<rect x="202.808" y="140.778" width="3.07669" height="3.28112" transform="rotate(180 202.808 140.778)" fill="#27AE60"/>
<rect x="201.775" y="137.497" width="1.0105" height="9.53583" transform="rotate(180 201.775 137.497)" fill="#27AE60"/>
<rect x="142.128" y="136.333" width="1.0105" height="3.89669" transform="rotate(180 142.128 136.333)" fill="#27AE60"/>
<rect x="143.161" y="132.437" width="3.07669" height="6.17167" transform="rotate(180 143.161 132.437)" fill="#27AE60"/>
<rect x="142.128" y="126.265" width="1.0105" height="3.76236" transform="rotate(180 142.128 126.265)" fill="#27AE60"/>
<rect x="136.164" y="137.527" width="1.0105" height="3.89669" transform="rotate(180 136.164 137.527)" fill="#27AE60"/>
<rect x="137.197" y="133.63" width="3.07669" height="6.17167" transform="rotate(180 137.197 133.63)" fill="#27AE60"/>
<rect x="136.164" y="127.458" width="1.0105" height="3.76236" transform="rotate(180 136.164 127.458)" fill="#27AE60"/>
<rect x="130.2" y="138.441" width="1.0105" height="3.89669" transform="rotate(180 130.2 138.441)" fill="#27AE60"/>
<rect x="131.234" y="134.544" width="3.07669" height="6.17167" transform="rotate(180 131.234 134.544)" fill="#27AE60"/>
<rect x="130.2" y="128.373" width="1.0105" height="3.76236" transform="rotate(180 130.2 128.373)" fill="#27AE60"/>
<rect x="124.237" y="139.182" width="1.0105" height="3.89669" transform="rotate(180 124.237 139.182)" fill="#27AE60"/>
<rect x="125.27" y="135.285" width="3.07669" height="6.17167" transform="rotate(180 125.27 135.285)" fill="#27AE60"/>
<rect x="124.237" y="129.114" width="1.0105" height="3.76236" transform="rotate(180 124.237 129.114)" fill="#27AE60"/>
<rect x="219.67" y="121.273" width="1.0105" height="3.89669" transform="rotate(180 219.67 121.273)" fill="#27AE60"/>
<rect x="220.703" y="117.376" width="3.07669" height="6.17167" transform="rotate(180 220.703 117.376)" fill="#27AE60"/>
<rect x="219.67" y="111.204" width="1.0105" height="3.76236" transform="rotate(180 219.67 111.204)" fill="#27AE60"/>
<rect x="160.023" y="163.546" width="1.0105" height="3.89669" transform="rotate(180 160.023 163.546)" fill="#27AE60"/>
<rect x="161.056" y="159.65" width="3.07669" height="6.17167" transform="rotate(180 161.056 159.65)" fill="#27AE60"/>
<rect x="160.023" y="153.478" width="1.0105" height="3.76236" transform="rotate(180 160.023 153.478)" fill="#27AE60"/>
<rect x="154.058" y="161.418" width="1.0105" height="3.89669" transform="rotate(180 154.058 161.418)" fill="#27AE60"/>
<rect x="155.091" y="157.521" width="3.07669" height="6.17167" transform="rotate(180 155.091 157.521)" fill="#27AE60"/>
<rect x="154.058" y="151.349" width="1.0105" height="3.76236" transform="rotate(180 154.058 151.349)" fill="#27AE60"/>
<rect x="213.705" y="120.575" width="1.0105" height="3.89669" transform="rotate(180 213.705 120.575)" fill="#27AE60"/>
<rect x="214.738" y="116.678" width="3.07669" height="6.17167" transform="rotate(180 214.738 116.678)" fill="#27AE60"/>
<rect x="213.705" y="110.506" width="1.0105" height="3.76236" transform="rotate(180 213.705 110.506)" fill="#27AE60"/>
<rect x="118.272" y="144.988" width="1.0105" height="3.89669" transform="rotate(180 118.272 144.988)" fill="#27AE60"/>
<rect x="119.305" y="141.091" width="3.07669" height="6.17167" transform="rotate(180 119.305 141.091)" fill="#27AE60"/>
<rect x="118.272" y="134.92" width="1.0105" height="3.76236" transform="rotate(180 118.272 134.92)" fill="#27AE60"/>
<rect x="112.307" y="150.256" width="1.0105" height="3.89669" transform="rotate(180 112.307 150.256)" fill="#27AE60"/>
<rect x="113.34" y="146.359" width="3.07669" height="6.17167" transform="rotate(180 113.34 146.359)" fill="#27AE60"/>
<rect x="112.307" y="140.188" width="1.0105" height="3.76236" transform="rotate(180 112.307 140.188)" fill="#27AE60"/>
<rect x="70.5549" y="134.634" width="1.0105" height="3.89669" transform="rotate(180 70.5549 134.634)" fill="#27AE60"/>
<rect x="71.5876" y="130.737" width="3.07669" height="6.17167" transform="rotate(180 71.5876 130.737)" fill="#27AE60"/>
<rect x="70.5549" y="124.566" width="1.0105" height="3.76236" transform="rotate(180 70.5549 124.566)" fill="#27AE60"/>
<rect x="64.5903" y="142.732" width="1.0105" height="3.89669" transform="rotate(180 64.5903 142.732)" fill="#27AE60"/>
<rect x="65.623" y="138.836" width="3.07669" height="6.17167" transform="rotate(180 65.623 138.836)" fill="#27AE60"/>
<rect x="64.5903" y="132.664" width="1.0105" height="3.76236" transform="rotate(180 64.5903 132.664)" fill="#27AE60"/>
<rect x="58.6248" y="147.217" width="1.0105" height="3.89669" transform="rotate(180 58.6248 147.217)" fill="#27AE60"/>
<rect x="59.658" y="143.321" width="3.07669" height="6.17167" transform="rotate(180 59.658 143.321)" fill="#27AE60"/>
<rect x="58.6248" y="137.149" width="1.0105" height="3.76236" transform="rotate(180 58.6248 137.149)" fill="#27AE60"/>
<rect x="52.6597" y="151.198" width="1.0105" height="3.89669" transform="rotate(180 52.6597 151.198)" fill="#27AE60"/>
<rect x="53.6929" y="147.301" width="3.07669" height="6.17167" transform="rotate(180 53.6929 147.301)" fill="#27AE60"/>
<rect x="52.6597" y="141.129" width="1.0105" height="3.76236" transform="rotate(180 52.6597 141.129)" fill="#27AE60"/>
<rect x="40.908" y="151.198" width="1.0105" height="3.89669" transform="rotate(180 40.908 151.198)" fill="#27AE60"/>
<rect x="41.9409" y="147.301" width="3.07669" height="6.17167" transform="rotate(180 41.9409 147.301)" fill="#27AE60"/>
<rect x="40.908" y="141.13" width="1.0105" height="3.76236" transform="rotate(180 40.908 141.13)" fill="#27AE60"/>
<rect x="148.094" y="161.007" width="1.0105" height="9.62386" transform="rotate(180 148.094 161.007)" fill="#E10000"/>
<rect x="149.126" y="151.383" width="3.07669" height="12.2574" transform="rotate(180 149.126 151.383)" fill="#E10000"/>
<rect x="148.094" y="139.125" width="1.0105" height="9.53583" transform="rotate(180 148.094 139.125)" fill="#E10000"/>
<rect x="189.845" y="164.047" width="1.0105" height="3.37386" transform="rotate(180 189.845 164.047)" fill="#E10000"/>
<rect x="190.878" y="160.674" width="3.07669" height="5.82248" transform="rotate(180 190.878 160.674)" fill="#E10000"/>
<rect x="189.845" y="154.851" width="1.0105" height="4.63437" transform="rotate(180 189.845 154.851)" fill="#E10000"/>
<rect x="183.882" y="157.098" width="1.0105" height="3.37386" transform="rotate(180 183.882 157.098)" fill="#E10000"/>
<rect x="184.915" y="153.724" width="3.07669" height="5.82248" transform="rotate(180 184.915 153.724)" fill="#E10000"/>
<rect x="183.882" y="147.902" width="1.0105" height="4.63437" transform="rotate(180 183.882 147.902)" fill="#E10000"/>
<rect x="177.918" y="147.511" width="1.0105" height="3.37386" transform="rotate(180 177.918 147.511)" fill="#E10000"/>
<rect x="178.952" y="144.137" width="3.07669" height="5.82248" transform="rotate(180 178.952 144.137)" fill="#E10000"/>
<rect x="177.918" y="138.315" width="1.0105" height="4.63437" transform="rotate(180 177.918 138.315)" fill="#E10000"/>
<rect x="106.341" y="148.316" width="1.0105" height="3.37386" transform="rotate(180 106.341 148.316)" fill="#E10000"/>
<rect x="107.374" y="144.942" width="3.07669" height="5.82248" transform="rotate(180 107.374 144.942)" fill="#E10000"/>
<rect x="106.341" y="139.12" width="1.0105" height="4.63437" transform="rotate(180 106.341 139.12)" fill="#E10000"/>
<rect x="88.4468" y="164.508" width="1.0105" height="3.37386" transform="rotate(180 88.4468 164.508)" fill="#E10000"/>
<rect x="89.4797" y="161.134" width="3.07669" height="18.1193" transform="rotate(180 89.4797 161.134)" fill="#E10000"/>
<rect x="88.4468" y="143.015" width="1.0105" height="4.63437" transform="rotate(180 88.4468 143.015)" fill="#E10000"/>
<rect x="82.4824" y="152.179" width="1.0105" height="3.37386" transform="rotate(180 82.4824 152.179)" fill="#E10000"/>
<rect x="83.5154" y="148.805" width="3.07669" height="18.1193" transform="rotate(180 83.5154 148.805)" fill="#E10000"/>
<rect x="82.4824" y="130.686" width="1.0105" height="4.63437" transform="rotate(180 82.4824 130.686)" fill="#E10000"/>
<rect x="76.5195" y="145.637" width="1.0105" height="10.3484" transform="rotate(180 76.5195 145.637)" fill="#E10000"/>
<rect x="77.5522" y="135.288" width="3.07669" height="3.1137" transform="rotate(180 77.5522 135.288)" fill="#E10000"/>
<rect x="76.5195" y="132.175" width="1.0105" height="12.6654" transform="rotate(180 76.5195 132.175)" fill="#E10000"/>
<rect x="46.6948" y="166.627" width="1.0105" height="10.3484" transform="rotate(180 46.6948 166.627)" fill="#E10000"/>
<rect x="47.7278" y="156.279" width="3.07669" height="3.1137" transform="rotate(180 47.7278 156.279)" fill="#E10000"/>
<rect x="46.6948" y="153.165" width="1.0105" height="12.6654" transform="rotate(180 46.6948 153.165)" fill="#E10000"/>
<path d="M297.69 71.1294H475.513" stroke="#EA4335" stroke-width="1.31721"/>
<path d="M315.472 132.38H479.465" stroke="#114FEE" stroke-width="1.31721"/>
<defs>
<linearGradient id="paint0_linear_468_2411" x1="62.7774" y1="348.925" x2="273.123" y2="-126.901" gradientUnits="userSpaceOnUse">
<stop stop-color="#0276DB"/>
<stop offset="1" stop-color="#3EDC81"/>
</linearGradient>
<radialGradient id="paint1_radial_468_2411" cx="0" cy="0" r="1" gradientUnits="userSpaceOnUse" gradientTransform="translate(261.331 0.296939) rotate(90.0462) scale(410.673 521.623)">
<stop stop-color="#161616" stop-opacity="0.6"/>
<stop offset="0.740127" stop-color="#161616" stop-opacity="0.946662"/>
<stop offset="1" stop-color="#161616"/>
</radialGradient>
<linearGradient id="paint2_linear_468_2411" x1="62.7773" y1="348.925" x2="146.464" y2="5.15239" gradientUnits="userSpaceOnUse">
<stop stop-color="#0276DB"/>
<stop offset="1" stop-color="#3EDC81"/>
</linearGradient>
</defs>
</svg>
