<svg width="310" height="199" viewBox="0 0 310 199" fill="none" xmlns="http://www.w3.org/2000/svg">
<path d="M22.3076 0.435547H287.692C291.604 0.435547 294.511 0.435858 296.814 0.624023C299.112 0.81178 300.77 1.18493 302.189 1.9082C304.731 3.20312 306.797 5.26915 308.092 7.81055C308.815 9.23004 309.188 10.8877 309.376 13.1855C309.564 15.4886 309.564 18.3962 309.564 22.3076V763.692C309.564 767.603 309.564 770.511 309.376 772.813C309.188 775.111 308.815 776.77 308.092 778.189C306.797 780.731 304.731 782.797 302.189 784.092C300.77 784.815 299.112 785.188 296.814 785.376C294.511 785.564 291.604 785.564 287.692 785.564H22.3076C18.3962 785.564 15.4886 785.564 13.1855 785.376C10.8877 785.188 9.23003 784.815 7.81055 784.092C5.2692 782.797 3.20313 780.731 1.9082 778.189C1.18491 776.77 0.811774 775.111 0.624023 772.813C0.435899 770.511 0.435547 767.603 0.435547 763.692V22.3076C0.435547 18.3962 0.435858 15.4886 0.624023 13.1855C0.81178 10.8877 1.18493 9.23004 1.9082 7.81055C3.20312 5.26915 5.26915 3.20312 7.81055 1.9082C9.23004 1.18494 10.8877 0.81178 13.1855 0.624023C15.4886 0.435858 18.3962 0.435547 22.3076 0.435547Z" fill="url(#paint0_linear_468_2215)"/>
<path d="M22.3076 0.435547H287.692C291.604 0.435547 294.511 0.435858 296.814 0.624023C299.112 0.81178 300.77 1.18493 302.189 1.9082C304.731 3.20312 306.797 5.26915 308.092 7.81055C308.815 9.23004 309.188 10.8877 309.376 13.1855C309.564 15.4886 309.564 18.3962 309.564 22.3076V763.692C309.564 767.603 309.564 770.511 309.376 772.813C309.188 775.111 308.815 776.77 308.092 778.189C306.797 780.731 304.731 782.797 302.189 784.092C300.77 784.815 299.112 785.188 296.814 785.376C294.511 785.564 291.604 785.564 287.692 785.564H22.3076C18.3962 785.564 15.4886 785.564 13.1855 785.376C10.8877 785.188 9.23003 784.815 7.81055 784.092C5.2692 782.797 3.20313 780.731 1.9082 778.189C1.18491 776.77 0.811774 775.111 0.624023 772.813C0.435899 770.511 0.435547 767.603 0.435547 763.692V22.3076C0.435547 18.3962 0.435858 15.4886 0.624023 13.1855C0.81178 10.8877 1.18493 9.23004 1.9082 7.81055C3.20312 5.26915 5.26915 3.20312 7.81055 1.9082C9.23004 1.18494 10.8877 0.81178 13.1855 0.624023C15.4886 0.435858 18.3962 0.435547 22.3076 0.435547Z" fill="url(#paint1_radial_468_2215)"/>
<path d="M22.3076 0.435547H287.692C291.604 0.435547 294.511 0.435858 296.814 0.624023C299.112 0.81178 300.77 1.18493 302.189 1.9082C304.731 3.20312 306.797 5.26915 308.092 7.81055C308.815 9.23004 309.188 10.8877 309.376 13.1855C309.564 15.4886 309.564 18.3962 309.564 22.3076V763.692C309.564 767.603 309.564 770.511 309.376 772.813C309.188 775.111 308.815 776.77 308.092 778.189C306.797 780.731 304.731 782.797 302.189 784.092C300.77 784.815 299.112 785.188 296.814 785.376C294.511 785.564 291.604 785.564 287.692 785.564H22.3076C18.3962 785.564 15.4886 785.564 13.1855 785.376C10.8877 785.188 9.23003 784.815 7.81055 784.092C5.2692 782.797 3.20313 780.731 1.9082 778.189C1.18491 776.77 0.811774 775.111 0.624023 772.813C0.435899 770.511 0.435547 767.603 0.435547 763.692V22.3076C0.435547 18.3962 0.435858 15.4886 0.624023 13.1855C0.81178 10.8877 1.18493 9.23004 1.9082 7.81055C3.20312 5.26915 5.26915 3.20312 7.81055 1.9082C9.23004 1.18494 10.8877 0.81178 13.1855 0.624023C15.4886 0.435858 18.3962 0.435547 22.3076 0.435547Z" stroke="url(#paint2_linear_468_2215)" stroke-width="0.871389"/>
<rect x="20.9734" y="20.9733" width="24.7298" height="24.7298" rx="6.01072" fill="url(#paint3_linear_468_2215)" fill-opacity="0.7"/>
<g clip-path="url(#clip0_468_2215)">
<path d="M32.8208 33.3376C32.8208 33.4742 32.8751 33.6053 32.9717 33.7019C33.0683 33.7985 33.1994 33.8528 33.336 33.8528C33.4726 33.8528 33.6037 33.7985 33.7003 33.7019C33.7969 33.6053 33.8512 33.4742 33.8512 33.3376C33.8512 33.201 33.7969 33.0699 33.7003 32.9733C33.6037 32.8767 33.4726 32.8224 33.336 32.8224C33.1994 32.8224 33.0683 32.8767 32.9717 32.9733C32.8751 33.0699 32.8208 33.201 32.8208 33.3376Z" stroke="#3EDC81" stroke-width="0.883208" stroke-linecap="round" stroke-linejoin="round"/>
<path d="M30.7642 33.3388C30.7642 33.8483 30.9152 34.3464 31.1983 34.77C31.4814 35.1936 31.8837 35.5238 32.3544 35.7188C32.8251 35.9137 33.343 35.9648 33.8427 35.8654C34.3424 35.766 34.8014 35.5206 35.1617 35.1604C35.522 34.8001 35.7673 34.3411 35.8667 33.8414C35.9661 33.3417 35.9151 32.8237 35.7201 32.353C35.5251 31.8823 35.195 31.48 34.7713 31.197C34.3477 30.9139 33.8497 30.7628 33.3402 30.7628" stroke="#3EDC81" stroke-width="0.883208" stroke-linecap="round" stroke-linejoin="round"/>
<path d="M30.395 36.9224C30.9696 37.394 31.6491 37.7205 32.3762 37.8744C33.1034 38.0284 33.8569 38.0053 34.5733 37.807C35.2896 37.6088 35.9478 37.2413 36.4924 36.7354C37.037 36.2295 37.452 35.6002 37.7024 34.9004C37.9528 34.2005 38.0313 33.4508 37.9313 32.7142C37.8313 31.9777 37.5557 31.276 37.1278 30.6683C36.6998 30.0606 36.132 29.5647 35.4722 29.2224C34.8125 28.88 34.0801 28.7013 33.3368 28.7013" stroke="#3EDC81" stroke-width="0.883208" stroke-linecap="round" stroke-linejoin="round"/>
</g>
<path d="M57.9267 34.6923H55.3407V38.3381H53.9558V28.1212H57.9267C59.9334 28.1212 61.2193 29.4354 61.2193 31.3997C61.2193 33.3074 59.9192 34.6923 57.9267 34.6923ZM57.6865 29.3647H55.3407V33.4487H57.63C59.0007 33.4487 59.7638 32.6432 59.7638 31.3855C59.7638 30.0996 58.9866 29.3647 57.6865 29.3647ZM66.4338 31.3714V32.5867H65.8403C64.5826 32.5867 63.8054 33.3498 63.8054 34.6781V38.3381H62.477V31.4421H63.7206L63.8054 32.4878C64.088 31.7671 64.7804 31.2866 65.7272 31.2866C65.9675 31.2866 66.1653 31.3149 66.4338 31.3714ZM66.8943 34.876C66.8943 32.7421 68.4204 31.2442 70.4978 31.2442C72.5609 31.2442 74.0871 32.7421 74.0871 34.876C74.0871 37.0098 72.5609 38.5077 70.4978 38.5077C68.4204 38.5077 66.8943 37.0098 66.8943 34.876ZM68.2367 34.876C68.2367 36.3174 69.1553 37.3207 70.4978 37.3207C71.8261 37.3207 72.7588 36.3174 72.7588 34.876C72.7588 33.4346 71.8261 32.4312 70.4978 32.4312C69.1553 32.4312 68.2367 33.4346 68.2367 34.876ZM75.4727 41.4329V31.4279H76.6739L76.7728 32.6715C77.2392 31.7247 78.1718 31.2301 79.2741 31.2301C81.2525 31.2301 82.4819 32.7139 82.4819 34.8336C82.4819 36.9391 81.3231 38.5218 79.2741 38.5218C78.1718 38.5218 77.2533 38.0555 76.8011 37.2076V41.4329H75.4727ZM76.8152 34.8901C76.8152 36.3032 77.6348 37.3207 78.9914 37.3207C80.3481 37.3207 81.1535 36.3032 81.1535 34.8901C81.1535 33.4628 80.3481 32.4454 78.9914 32.4454C77.6348 32.4454 76.8152 33.4487 76.8152 34.8901ZM83.409 34.876C83.409 32.7421 84.9352 31.2442 87.0125 31.2442C89.0757 31.2442 90.6019 32.7421 90.6019 34.876C90.6019 37.0098 89.0757 38.5077 87.0125 38.5077C84.9352 38.5077 83.409 37.0098 83.409 34.876ZM84.7515 34.876C84.7515 36.3174 85.67 37.3207 87.0125 37.3207C88.3409 37.3207 89.2735 36.3174 89.2735 34.876C89.2735 33.4346 88.3409 32.4312 87.0125 32.4312C85.67 32.4312 84.7515 33.4346 84.7515 34.876ZM91.4223 36.3315H92.6941C92.6941 37.0381 93.2311 37.462 94.1072 37.462C95.0399 37.462 95.5769 37.0804 95.5769 36.4445C95.5769 35.9782 95.3508 35.6956 94.6301 35.5119L93.4148 35.2292C92.1854 34.9325 91.606 34.3248 91.606 33.3074C91.606 32.0356 92.6799 31.2301 94.2061 31.2301C95.7182 31.2301 96.7074 32.078 96.7356 33.3922H95.4638C95.4356 32.6997 94.9692 32.2617 94.1637 32.2617C93.33 32.2617 92.8637 32.6291 92.8637 33.265C92.8637 33.7313 93.2028 34.0422 93.8811 34.2118L95.0964 34.5085C96.2693 34.7912 96.8487 35.3282 96.8487 36.3598C96.8487 37.674 95.7182 38.5077 94.0789 38.5077C92.4538 38.5077 91.4223 37.6457 91.4223 36.3315ZM101.219 38.5077C99.1838 38.5077 97.7848 37.0381 97.7848 34.8901C97.7848 32.728 99.1555 31.2301 101.162 31.2301C103.126 31.2301 104.412 32.5867 104.412 34.6357V35.1303L99.0707 35.1445C99.1696 36.6 99.9327 37.4055 101.247 37.4055C102.279 37.4055 102.957 36.9815 103.183 36.1902H104.426C104.087 37.674 102.929 38.5077 101.219 38.5077ZM101.162 32.3465C100.003 32.3465 99.2686 33.0389 99.099 34.2542H103.084C103.084 33.1095 102.335 32.3465 101.162 32.3465ZM108.581 38.5077C106.574 38.5077 105.359 37.0098 105.359 34.9042C105.359 32.7845 106.588 31.2301 108.638 31.2301C109.697 31.2301 110.588 31.6964 111.054 32.5443V27.9375H112.368V38.3381H111.181L111.068 37.0804C110.616 38.0272 109.683 38.5077 108.581 38.5077ZM108.849 37.3065C110.206 37.3065 111.04 36.3032 111.04 34.8618C111.04 33.4487 110.206 32.4312 108.849 32.4312C107.493 32.4312 106.702 33.4487 106.702 34.8618C106.702 36.2891 107.493 37.3065 108.849 37.3065ZM117.216 29.393V28.1212H124.748V29.393H121.681V38.3381H120.297V29.393H117.216ZM128.944 31.3714V32.5867H128.351C127.093 32.5867 126.316 33.3498 126.316 34.6781V38.3381H124.987V31.4421H126.231L126.316 32.4878C126.598 31.7671 127.291 31.2866 128.238 31.2866C128.478 31.2866 128.676 31.3149 128.944 31.3714ZM131.85 38.5077C130.366 38.5077 129.49 37.674 129.49 36.4163C129.49 35.1445 130.437 34.3531 132.062 34.2259L134.238 34.0563V33.8585C134.238 32.6997 133.546 32.2899 132.613 32.2899C131.497 32.2899 130.861 32.7845 130.861 33.6183H129.702C129.702 32.1769 130.889 31.2301 132.67 31.2301C134.38 31.2301 135.538 32.1345 135.538 33.9998V38.3381H134.408L134.267 37.2218C133.913 38.0131 132.966 38.5077 131.85 38.5077ZM132.232 37.4761C133.489 37.4761 134.252 36.6565 134.252 35.3564V34.989L132.486 35.1303C131.313 35.2434 130.833 35.6956 130.833 36.3739C130.833 37.1087 131.37 37.4761 132.232 37.4761ZM140.063 38.5077C138.056 38.5077 136.841 37.0098 136.841 34.9042C136.841 32.7845 138.07 31.2301 140.119 31.2301C141.179 31.2301 142.07 31.6964 142.536 32.5443V27.9375H143.85V38.3381H142.663L142.55 37.0804C142.098 38.0272 141.165 38.5077 140.063 38.5077ZM140.331 37.3065C141.688 37.3065 142.522 36.3032 142.522 34.8618C142.522 33.4487 141.688 32.4312 140.331 32.4312C138.975 32.4312 138.183 33.4487 138.183 34.8618C138.183 36.2891 138.975 37.3065 140.331 37.3065ZM148.663 38.5077C146.628 38.5077 145.229 37.0381 145.229 34.8901C145.229 32.728 146.6 31.2301 148.607 31.2301C150.571 31.2301 151.857 32.5867 151.857 34.6357V35.1303L146.515 35.1445C146.614 36.6 147.377 37.4055 148.692 37.4055C149.723 37.4055 150.402 36.9815 150.628 36.1902H151.871C151.532 37.674 150.373 38.5077 148.663 38.5077ZM148.607 32.3465C147.448 32.3465 146.713 33.0389 146.544 34.2542H150.529C150.529 33.1095 149.78 32.3465 148.607 32.3465Z" fill="white"/>
<path d="M20.9734 68.1679C20.9734 63.2901 24.9276 59.3358 29.8055 59.3358H142.635C147.513 59.3358 151.467 63.2901 151.467 68.1679V116.197C151.467 121.075 147.513 125.029 142.635 125.029H29.8055C24.9276 125.029 20.9734 121.075 20.9734 116.197V68.1679Z" fill="black" fill-opacity="0.04"/>
<path d="M29.8054 59.7772H142.635C147.269 59.7774 151.026 63.534 151.026 68.1678V116.197C151.026 120.831 147.269 124.588 142.635 124.588H29.8054C25.1716 124.588 21.4149 120.831 21.4148 116.197V68.1678C21.4148 63.534 25.1715 59.7772 29.8054 59.7772Z" stroke="white" stroke-opacity="0.06" stroke-width="0.883207"/>
<path d="M37.136 84.7007H32.4621V77.038H37.136V77.9918H33.5007V80.3871H36.7756V81.3092H33.5007V83.7362H37.136V84.7007ZM39.4041 84.7007H38.4079V79.518H39.3088L39.4147 80.3129C39.7433 79.7194 40.4004 79.3696 41.1317 79.3696C42.4989 79.3696 43.1242 80.2069 43.1242 81.5317V84.7007H42.128V81.7543C42.128 80.7051 41.6404 80.2811 40.8773 80.2811C39.9447 80.2811 39.4041 80.9488 39.4041 81.9557V84.7007ZM45.9031 84.7007H44.9068V80.3553H43.8894V79.518H44.9068V77.8965H45.9031V79.518H46.9205V80.3553H45.9031V84.7007ZM50.7186 79.4756V80.3871H50.2735C49.3302 80.3871 48.7473 80.9594 48.7473 81.9557V84.7007H47.751V79.5286H48.6837L48.7473 80.3129C48.9593 79.7724 49.4786 79.412 50.1887 79.412C50.3689 79.412 50.5172 79.4332 50.7186 79.4756ZM51.2465 87.0218V86.2057H51.9143C52.3912 86.2057 52.7727 86.1315 53.0165 85.4744L53.1967 84.9762L51.1088 79.518H52.158L53.663 83.6938L55.1998 79.518H56.2278L53.7796 85.8665C53.4298 86.7568 52.9105 87.1277 52.1156 87.1277C51.7871 87.1277 51.5115 87.0853 51.2465 87.0218ZM62.9418 81.9663H61.0023V84.7007H59.9636V77.038H62.9418C64.4468 77.038 65.4113 78.0236 65.4113 79.4968C65.4113 80.9276 64.4362 81.9663 62.9418 81.9663ZM62.7616 77.9706H61.0023V81.0336H62.7192C63.7473 81.0336 64.3196 80.4295 64.3196 79.4862C64.3196 78.5218 63.7367 77.9706 62.7616 77.9706ZM69.3221 79.4756V80.3871H68.877C67.9337 80.3871 67.3508 80.9594 67.3508 81.9557V84.7007H66.3545V79.5286H67.2872L67.3508 80.3129C67.5628 79.7724 68.0821 79.412 68.7922 79.412C68.9724 79.412 69.1207 79.4332 69.3221 79.4756ZM70.6805 78.2886C70.3201 78.2886 70.0233 77.9918 70.0233 77.6315C70.0233 77.2605 70.3201 76.9744 70.6805 76.9744C71.0408 76.9744 71.3376 77.2605 71.3376 77.6315C71.3376 77.9918 71.0408 78.2886 70.6805 78.2886ZM70.1929 84.7007V79.518H71.1892V84.7007H70.1929ZM72.2328 82.1147C72.2328 80.4931 73.2609 79.3696 74.7764 79.3696C76.0801 79.3696 76.9915 80.1115 77.1717 81.2668H76.1754C76.0059 80.6097 75.4759 80.2599 74.8082 80.2599C73.865 80.2599 73.2185 80.9806 73.2185 82.1041C73.2185 83.2169 73.8226 83.9376 74.7658 83.9376C75.4759 83.9376 76.0059 83.5666 76.186 82.9519H77.1823C76.9809 84.0754 76.0165 84.8279 74.7658 84.8279C73.2397 84.8279 72.2328 83.7468 72.2328 82.1147ZM80.4061 84.8279C78.88 84.8279 77.8307 83.7256 77.8307 82.1147C77.8307 80.4931 78.8588 79.3696 80.3637 79.3696C81.8369 79.3696 82.8014 80.3871 82.8014 81.9239V82.2948L78.7952 82.3054C78.8694 83.3971 79.4417 84.0012 80.4273 84.0012C81.201 84.0012 81.7098 83.6832 81.8793 83.0897H82.812C82.5576 84.2026 81.6886 84.8279 80.4061 84.8279ZM80.3637 80.2069C79.4947 80.2069 78.9435 80.7262 78.8164 81.6377H81.8051C81.8051 80.7792 81.2434 80.2069 80.3637 80.2069Z" fill="#3EDC81"/>
<path d="M35.2035 110.371V109.155C33.3382 109.042 32.1088 107.982 32.024 106.329H33.4371C33.4654 107.233 34.1295 107.827 35.2035 107.94V104.421L34.6948 104.308C33.0273 103.927 32.1653 102.994 32.1653 101.539C32.1653 99.9276 33.3665 98.7829 35.2035 98.6275V97.3981H36.1079V98.6134C37.8178 98.7688 38.9059 99.8145 39.0049 101.454H37.6341C37.5776 100.549 37.0265 99.97 36.1079 99.8428V103.347L36.6591 103.475C38.3548 103.856 39.1744 104.746 39.1744 106.159C39.1744 107.841 37.9733 108.972 36.1079 109.141V110.371H35.2035ZM34.9774 103.079L35.2035 103.135V99.8428C34.1578 99.9841 33.5219 100.592 33.5219 101.496C33.5219 102.316 33.9882 102.839 34.9774 103.079ZM36.3764 104.704L36.1079 104.647V107.912C37.1678 107.77 37.8178 107.163 37.8178 106.273C37.8178 105.453 37.3515 104.93 36.3764 104.704ZM43.7692 109.169C41.6778 109.169 40.3212 107.841 40.3212 105.806H41.6919C41.6919 107.12 42.4974 107.926 43.7975 107.926C45.1823 107.926 46.0726 107.007 46.0726 105.622C46.0726 104.308 45.2389 103.333 43.8116 103.333C42.9496 103.333 42.1582 103.743 41.6919 104.322L40.519 104.026L41.7626 98.7829H46.8781V100.055H42.7659L42.0876 102.768C42.6246 102.358 43.3029 102.146 44.066 102.146C46.1433 102.146 47.4857 103.602 47.4857 105.566C47.4857 107.686 45.9737 109.169 43.7692 109.169ZM48.5713 106.159C48.5713 104.93 49.292 103.941 50.4225 103.531C49.4616 103.121 48.9387 102.316 48.9387 101.284C48.9387 99.6873 50.3095 98.5992 52.3444 98.5992C54.351 98.5992 55.7076 99.6873 55.7076 101.298C55.7076 102.344 55.1706 103.15 54.2097 103.531C55.3543 103.898 56.0892 104.916 56.0892 106.174C56.0892 107.968 54.5913 109.169 52.3302 109.169C50.0551 109.169 48.5713 107.968 48.5713 106.159ZM50.2105 101.369C50.2105 102.372 51.0443 103.022 52.3161 103.022C53.6021 103.022 54.4075 102.386 54.4075 101.397C54.4075 100.422 53.6021 99.8004 52.3161 99.8004C51.0443 99.8004 50.2105 100.422 50.2105 101.369ZM49.9279 106.061C49.9279 107.205 50.8747 107.94 52.3302 107.94C53.7716 107.94 54.7184 107.205 54.7184 106.061C54.7184 104.93 53.7858 104.209 52.3161 104.209C50.8606 104.209 49.9279 104.93 49.9279 106.061ZM59.4561 108.449C59.4561 109.466 58.693 110.314 57.6897 110.441V109.848C58.269 109.749 58.6788 109.367 58.6788 108.929C58.5799 108.986 58.4669 109.014 58.2973 109.014C57.831 109.014 57.4353 108.675 57.4353 108.152C57.4353 107.587 57.8168 107.177 58.3821 107.177C58.9756 107.177 59.4561 107.672 59.4561 108.449ZM67.8694 108.986L60.9733 109V107.94L64.2659 105.1C65.9193 103.672 66.3856 102.98 66.3856 101.892C66.3856 100.606 65.6508 99.8428 64.4214 99.8428C63.1637 99.8428 62.344 100.761 62.3158 102.217H60.9309C60.9733 100.026 62.3582 98.5992 64.4355 98.5992C66.4845 98.5992 67.7987 99.8428 67.7987 101.807C67.7987 103.263 67.078 104.294 65.2692 105.863L63.1495 107.7H67.8694V108.986ZM76.4 106.937H75.1847V109H73.8563V106.937H68.5712V105.707L73.39 98.7829H75.1847V105.707H76.4V106.937ZM70.0691 105.707H73.8563V100.253L70.0691 105.707ZM78.7616 102.019L81.1497 98.7829H82.7607L80.2029 102.174C80.5562 102.033 80.9236 101.962 81.2769 101.962C83.3966 101.962 84.8239 103.489 84.8239 105.509C84.8239 107.643 83.2129 109.169 81.1074 109.169C78.9877 109.169 77.3484 107.573 77.3484 105.509C77.3484 104.294 77.7158 103.446 78.7616 102.019ZM78.7616 105.524C78.7616 106.923 79.7225 107.926 81.1074 107.926C82.464 107.926 83.4249 106.923 83.4249 105.524C83.4249 104.125 82.464 103.135 81.1074 103.135C79.7225 103.135 78.7616 104.125 78.7616 105.524ZM86.9696 109.169C86.4185 109.169 85.9522 108.717 85.9522 108.18C85.9522 107.629 86.4185 107.177 86.9696 107.177C87.5066 107.177 87.973 107.629 87.973 108.18C87.973 108.717 87.5066 109.169 86.9696 109.169ZM88.5254 98.7829H95.6617V100.055L91.7897 109H90.3483L94.2627 100.055H88.5254V98.7829ZM99.5748 109.169C97.4833 109.169 96.1267 107.841 96.1267 105.806H97.4975C97.4975 107.12 98.303 107.926 99.603 107.926C100.988 107.926 101.878 107.007 101.878 105.622C101.878 104.308 101.044 103.333 99.6172 103.333C98.7552 103.333 97.9638 103.743 97.4975 104.322L96.3246 104.026L97.5681 98.7829H102.684V100.055H98.5715L97.8931 102.768C98.4301 102.358 99.1084 102.146 99.8715 102.146C101.949 102.146 103.291 103.602 103.291 105.566C103.291 107.686 101.779 109.169 99.5748 109.169Z" fill="white"/>
<path d="M158.533 68.1679C158.533 63.2901 162.487 59.3358 167.365 59.3358H280.195C285.072 59.3358 289.027 63.2901 289.027 68.1679V116.197C289.027 121.075 285.072 125.029 280.195 125.029H167.365C162.487 125.029 158.533 121.075 158.533 116.197V68.1679Z" fill="black" fill-opacity="0.04"/>
<path d="M167.365 59.7772H280.195C284.829 59.7774 288.585 63.534 288.585 68.1678V116.197C288.585 120.831 284.829 124.588 280.195 124.588H167.365C162.731 124.588 158.974 120.831 158.974 116.197V68.1678C158.974 63.534 162.731 59.7772 167.365 59.7772Z" stroke="white" stroke-opacity="0.06" stroke-width="0.883207"/>
<path d="M169.28 77.9918V77.038H174.929V77.9918H172.629V84.7007H171.59V77.9918H169.28ZM176.417 84.8279C175.304 84.8279 174.647 84.2026 174.647 83.2593C174.647 82.3054 175.357 81.7119 176.576 81.6165L178.208 81.4893V81.341C178.208 80.4719 177.689 80.1645 176.989 80.1645C176.152 80.1645 175.675 80.5355 175.675 81.1608H174.806C174.806 80.0797 175.696 79.3696 177.032 79.3696C178.314 79.3696 179.183 80.0479 179.183 81.4469V84.7007H178.335L178.229 83.8634C177.964 84.4569 177.254 84.8279 176.417 84.8279ZM176.703 84.0542C177.646 84.0542 178.219 83.4395 178.219 82.4644V82.1888L176.894 82.2948C176.014 82.3796 175.654 82.7188 175.654 83.2275C175.654 83.7786 176.057 84.0542 176.703 84.0542ZM183.467 79.4756V80.3871H183.022C182.078 80.3871 181.496 80.9594 181.496 81.9557V84.7007H180.499V79.5286H181.432L181.496 80.3129C181.708 79.7724 182.227 79.412 182.937 79.412C183.117 79.412 183.266 79.4332 183.467 79.4756ZM183.895 81.9769C183.895 80.5143 184.839 79.3696 186.344 79.3696C187.181 79.3696 187.827 79.7512 188.156 80.3977L188.23 79.518H189.12V84.4887C189.12 86.1209 188.113 87.1595 186.524 87.1595C185.114 87.1595 184.15 86.3646 183.959 85.0504H184.955C185.082 85.8135 185.655 86.2587 186.524 86.2587C187.499 86.2587 188.135 85.6228 188.135 84.6371V83.5984C187.796 84.2026 187.117 84.5629 186.301 84.5629C184.828 84.5629 183.895 83.4289 183.895 81.9769ZM184.892 81.9557C184.892 82.9307 185.496 83.6938 186.471 83.6938C187.478 83.6938 188.092 82.9731 188.092 81.9557C188.092 80.9594 187.499 80.2387 186.481 80.2387C185.485 80.2387 184.892 81.0018 184.892 81.9557ZM192.731 84.8279C191.205 84.8279 190.155 83.7256 190.155 82.1147C190.155 80.4931 191.183 79.3696 192.688 79.3696C194.162 79.3696 195.126 80.3871 195.126 81.9239V82.2948L191.12 82.3054C191.194 83.3971 191.766 84.0012 192.752 84.0012C193.526 84.0012 194.034 83.6832 194.204 83.0897H195.137C194.882 84.2026 194.013 84.8279 192.731 84.8279ZM192.688 80.2069C191.819 80.2069 191.268 80.7262 191.141 81.6377H194.13C194.13 80.7792 193.568 80.2069 192.688 80.2069ZM197.586 84.7007H196.59V80.3553H195.572V79.518H196.59V77.8965H197.586V79.518H198.604V80.3553H197.586V84.7007Z" fill="url(#paint4_linear_468_2215)"/>
<path d="M172.763 110.371V109.155C170.898 109.042 169.668 107.982 169.584 106.329H170.997C171.025 107.233 171.689 107.827 172.763 107.94V104.421L172.254 104.308C170.587 103.927 169.725 102.994 169.725 101.539C169.725 99.9276 170.926 98.7829 172.763 98.6275V97.3981H173.668V98.6134C175.377 98.7688 176.466 99.8145 176.564 101.454H175.194C175.137 100.549 174.586 99.97 173.668 99.8428V103.347L174.219 103.475C175.914 103.856 176.734 104.746 176.734 106.159C176.734 107.841 175.533 108.972 173.668 109.141V110.371H172.763ZM172.537 103.079L172.763 103.135V99.8428C171.717 99.9841 171.081 100.592 171.081 101.496C171.081 102.316 171.548 102.839 172.537 103.079ZM173.936 104.704L173.668 104.647V107.912C174.727 107.77 175.377 107.163 175.377 106.273C175.377 105.453 174.911 104.93 173.936 104.704ZM179.195 102.019L181.583 98.7829H183.194L180.636 102.174C180.99 102.033 181.357 101.962 181.71 101.962C183.83 101.962 185.257 103.489 185.257 105.509C185.257 107.643 183.646 109.169 181.541 109.169C179.421 109.169 177.782 107.573 177.782 105.509C177.782 104.294 178.149 103.446 179.195 102.019ZM179.195 105.524C179.195 106.923 180.156 107.926 181.541 107.926C182.897 107.926 183.858 106.923 183.858 105.524C183.858 104.125 182.897 103.135 181.541 103.135C180.156 103.135 179.195 104.125 179.195 105.524ZM193.109 108.986L186.213 109V107.94L189.506 105.1C191.159 103.672 191.626 102.98 191.626 101.892C191.626 100.606 190.891 99.8428 189.661 99.8428C188.404 99.8428 187.584 100.761 187.556 102.217H186.171C186.213 100.026 187.598 98.5992 189.676 98.5992C191.725 98.5992 193.039 99.8428 193.039 101.807C193.039 103.263 192.318 104.294 190.509 105.863L188.39 107.7H193.109V108.986ZM196.684 108.449C196.684 109.466 195.921 110.314 194.918 110.441V109.848C195.497 109.749 195.907 109.367 195.907 108.929C195.808 108.986 195.695 109.014 195.526 109.014C195.059 109.014 194.664 108.675 194.664 108.152C194.664 107.587 195.045 107.177 195.61 107.177C196.204 107.177 196.684 107.672 196.684 108.449ZM197.664 103.898C197.664 100.733 199.304 98.5851 201.876 98.5851C204.433 98.5851 206.073 100.733 206.073 103.898C206.073 107.078 204.504 109.184 201.876 109.184C199.233 109.184 197.664 107.078 197.664 103.898ZM199.035 103.898C199.035 106.414 200.081 107.94 201.876 107.94C203.67 107.94 204.702 106.414 204.702 103.898C204.702 101.355 203.67 99.8287 201.876 99.8287C200.081 99.8287 199.035 101.355 199.035 103.898ZM207.378 103.898C207.378 100.733 209.017 98.5851 211.589 98.5851C214.147 98.5851 215.786 100.733 215.786 103.898C215.786 107.078 214.217 109.184 211.589 109.184C208.946 109.184 207.378 107.078 207.378 103.898ZM208.748 103.898C208.748 106.414 209.794 107.94 211.589 107.94C213.384 107.94 214.415 106.414 214.415 103.898C214.415 101.355 213.384 99.8287 211.589 99.8287C209.794 99.8287 208.748 101.355 208.748 103.898ZM217.091 103.898C217.091 100.733 218.73 98.5851 221.302 98.5851C223.86 98.5851 225.499 100.733 225.499 103.898C225.499 107.078 223.931 109.184 221.302 109.184C218.66 109.184 217.091 107.078 217.091 103.898ZM218.462 103.898C218.462 106.414 219.508 107.94 221.302 107.94C223.097 107.94 224.128 106.414 224.128 103.898C224.128 101.355 223.097 99.8287 221.302 99.8287C219.508 99.8287 218.462 101.355 218.462 103.898ZM227.482 109.169C226.931 109.169 226.465 108.717 226.465 108.18C226.465 107.629 226.931 107.177 227.482 107.177C228.019 107.177 228.486 107.629 228.486 108.18C228.486 108.717 228.019 109.169 227.482 109.169ZM229.466 103.898C229.466 100.733 231.105 98.5851 233.677 98.5851C236.235 98.5851 237.874 100.733 237.874 103.898C237.874 107.078 236.305 109.184 233.677 109.184C231.034 109.184 229.466 107.078 229.466 103.898ZM230.837 103.898C230.837 106.414 231.882 107.94 233.677 107.94C235.472 107.94 236.503 106.414 236.503 103.898C236.503 101.355 235.472 99.8287 233.677 99.8287C231.882 99.8287 230.837 101.355 230.837 103.898ZM239.179 103.898C239.179 100.733 240.818 98.5851 243.39 98.5851C245.948 98.5851 247.587 100.733 247.587 103.898C247.587 107.078 246.019 109.184 243.39 109.184C240.748 109.184 239.179 107.078 239.179 103.898ZM240.55 103.898C240.55 106.414 241.596 107.94 243.39 107.94C245.185 107.94 246.216 106.414 246.216 103.898C246.216 101.355 245.185 99.8287 243.39 99.8287C241.596 99.8287 240.55 101.355 240.55 103.898Z" fill="white"/>
<path d="M20.9734 142.693C20.9734 137.815 24.9276 133.861 29.8055 133.861H142.635C147.513 133.861 151.467 137.815 151.467 142.693V190.386C151.467 195.264 147.513 199.218 142.635 199.218H29.8055C24.9276 199.218 20.9734 195.264 20.9734 190.386V142.693Z" fill="black" fill-opacity="0.04"/>
<path d="M29.8054 134.302H142.635C147.269 134.303 151.026 138.059 151.026 142.693V190.386C151.026 195.02 147.269 198.777 142.635 198.777H29.8054C25.1715 198.777 21.4149 195.02 21.4148 190.386V142.693C21.4148 138.059 25.1715 134.303 29.8054 134.302Z" stroke="white" stroke-opacity="0.06" stroke-width="0.883207"/>
<path d="M32.0169 153.294C32.0169 151.98 33.0768 151.09 34.6559 151.09C36.1185 151.09 37.0618 151.906 37.1466 153.231H36.0973C36.0443 152.467 35.5038 152.022 34.6453 152.022C33.6809 152.022 33.0556 152.51 33.0556 153.262C33.0556 153.877 33.4053 154.248 34.126 154.418L35.3872 154.714C36.6379 155 37.2738 155.679 37.2738 156.76C37.2738 158.138 36.2033 159.017 34.5712 159.017C33.0132 159.017 31.9745 158.201 31.9109 156.887H32.9708C32.992 157.618 33.6067 158.085 34.5712 158.085C35.5886 158.085 36.2351 157.608 36.2351 156.845C36.2351 156.241 35.9066 155.859 35.1753 155.689L33.914 155.403C32.6634 155.117 32.0169 154.396 32.0169 153.294ZM39.8084 158.89H38.8121V154.545H37.7947V153.707H38.8121V152.086H39.8084V153.707H40.8258V154.545H39.8084V158.89ZM41.2654 156.294C41.2654 154.693 42.4101 153.57 43.968 153.57C45.5154 153.57 46.6601 154.693 46.6601 156.294C46.6601 157.894 45.5154 159.017 43.968 159.017C42.4101 159.017 41.2654 157.894 41.2654 156.294ZM42.2723 156.294C42.2723 157.375 42.9612 158.127 43.968 158.127C44.9643 158.127 45.6638 157.375 45.6638 156.294C45.6638 155.212 44.9643 154.46 43.968 154.46C42.9612 154.46 42.2723 155.212 42.2723 156.294ZM47.6993 161.211V153.707H48.6002L48.6743 154.64C49.0241 153.93 49.7236 153.559 50.5503 153.559C52.0341 153.559 52.9561 154.672 52.9561 156.262C52.9561 157.841 52.0871 159.028 50.5503 159.028C49.7236 159.028 49.0347 158.678 48.6955 158.042V161.211H47.6993ZM48.7061 156.304C48.7061 157.364 49.3209 158.127 50.3383 158.127C51.3558 158.127 51.9599 157.364 51.9599 156.304C51.9599 155.234 51.3558 154.471 50.3383 154.471C49.3209 154.471 48.7061 155.223 48.7061 156.304ZM58.0333 151.227V157.926H61.4036V158.89H56.9947V151.227H58.0333ZM61.8561 156.294C61.8561 154.693 63.0008 153.57 64.5587 153.57C66.1061 153.57 67.2508 154.693 67.2508 156.294C67.2508 157.894 66.1061 159.017 64.5587 159.017C63.0008 159.017 61.8561 157.894 61.8561 156.294ZM62.863 156.294C62.863 157.375 63.5519 158.127 64.5587 158.127C65.555 158.127 66.2545 157.375 66.2545 156.294C66.2545 155.212 65.555 154.46 64.5587 154.46C63.5519 154.46 62.863 155.212 62.863 156.294ZM67.8661 157.385H68.8199C68.8199 157.915 69.2227 158.233 69.8798 158.233C70.5793 158.233 70.982 157.947 70.982 157.47C70.982 157.12 70.8124 156.908 70.2719 156.77L69.3604 156.558C68.4384 156.336 68.0038 155.88 68.0038 155.117C68.0038 154.163 68.8093 153.559 69.954 153.559C71.088 153.559 71.8299 154.195 71.8511 155.181H70.8972C70.876 154.661 70.5263 154.333 69.9222 154.333C69.2969 154.333 68.9471 154.608 68.9471 155.085C68.9471 155.435 69.2015 155.668 69.7102 155.795L70.6217 156.018C71.5013 156.23 71.9359 156.633 71.9359 157.406C71.9359 158.392 71.088 159.017 69.8586 159.017C68.6397 159.017 67.8661 158.371 67.8661 157.385ZM72.5532 157.385H73.507C73.507 157.915 73.9098 158.233 74.5669 158.233C75.2664 158.233 75.6691 157.947 75.6691 157.47C75.6691 157.12 75.4995 156.908 74.959 156.77L74.0475 156.558C73.1255 156.336 72.6909 155.88 72.6909 155.117C72.6909 154.163 73.4964 153.559 74.6411 153.559C75.7751 153.559 76.517 154.195 76.5382 155.181H75.5843C75.5631 154.661 75.2134 154.333 74.6093 154.333C73.984 154.333 73.6342 154.608 73.6342 155.085C73.6342 155.435 73.8886 155.668 74.3973 155.795L75.3088 156.018C76.1884 156.23 76.623 156.633 76.623 157.406C76.623 158.392 75.7751 159.017 74.5457 159.017C73.3268 159.017 72.5532 158.371 72.5532 157.385Z" fill="#EA4335"/>
<path d="M35.2035 184.56V183.345C33.3382 183.232 32.1088 182.172 32.024 180.519H33.4371C33.4654 181.423 34.1295 182.016 35.2035 182.129V178.611L34.6948 178.498C33.0273 178.116 32.1653 177.184 32.1653 175.728C32.1653 174.117 33.3665 172.972 35.2035 172.817V171.588H36.1079V172.803C37.8178 172.958 38.9059 174.004 39.0049 175.643H37.6341C37.5776 174.739 37.0265 174.159 36.1079 174.032V177.537L36.6591 177.664C38.3548 178.046 39.1744 178.936 39.1744 180.349C39.1744 182.031 37.9733 183.161 36.1079 183.331V184.56H35.2035ZM34.9774 177.268L35.2035 177.325V174.032C34.1578 174.174 33.5219 174.781 33.5219 175.686C33.5219 176.505 33.9882 177.028 34.9774 177.268ZM36.3764 178.893L36.1079 178.837V182.101C37.1678 181.96 37.8178 181.352 37.8178 180.462C37.8178 179.642 37.3515 179.12 36.3764 178.893ZM41.6354 176.208L44.0236 172.972H45.6345L43.0768 176.364C43.4301 176.223 43.7975 176.152 44.1507 176.152C46.2704 176.152 47.6977 177.678 47.6977 179.699C47.6977 181.833 46.0867 183.359 43.9812 183.359C41.8615 183.359 40.2222 181.762 40.2222 179.699C40.2222 178.484 40.5897 177.636 41.6354 176.208ZM41.6354 179.713C41.6354 181.112 42.5963 182.115 43.9812 182.115C45.3378 182.115 46.2987 181.112 46.2987 179.713C46.2987 178.314 45.3378 177.325 43.9812 177.325C42.5963 177.325 41.6354 178.314 41.6354 179.713ZM55.5499 183.175L48.6538 183.189V182.129L51.9464 179.289C53.5997 177.862 54.0661 177.169 54.0661 176.081C54.0661 174.795 53.3312 174.032 52.1018 174.032C50.8441 174.032 50.0245 174.951 49.9963 176.406H48.6114C48.6538 174.216 50.0387 172.789 52.116 172.789C54.165 172.789 55.4792 174.032 55.4792 175.996C55.4792 177.452 54.7585 178.484 52.9497 180.052L50.83 181.889H55.5499V183.175ZM59.1249 182.638C59.1249 183.656 58.3618 184.504 57.3585 184.631V184.037C57.9378 183.938 58.3476 183.557 58.3476 183.119C58.2487 183.175 58.1357 183.203 57.9661 183.203C57.4998 183.203 57.1041 182.864 57.1041 182.341C57.1041 181.776 57.4856 181.366 58.0509 181.366C58.6444 181.366 59.1249 181.861 59.1249 182.638ZM60.1049 178.088C60.1049 174.923 61.7441 172.775 64.316 172.775C66.8738 172.775 68.513 174.923 68.513 178.088C68.513 181.267 66.9445 183.373 64.316 183.373C61.6735 183.373 60.1049 181.267 60.1049 178.088ZM61.4756 178.088C61.4756 180.603 62.5214 182.129 64.316 182.129C66.1107 182.129 67.1423 180.603 67.1423 178.088C67.1423 175.544 66.1107 174.018 64.316 174.018C62.5214 174.018 61.4756 175.544 61.4756 178.088ZM69.8182 178.088C69.8182 174.923 71.4574 172.775 74.0293 172.775C76.5871 172.775 78.2263 174.923 78.2263 178.088C78.2263 181.267 76.6577 183.373 74.0293 183.373C71.3868 183.373 69.8182 181.267 69.8182 178.088ZM71.1889 178.088C71.1889 180.603 72.2346 182.129 74.0293 182.129C75.824 182.129 76.8556 180.603 76.8556 178.088C76.8556 175.544 75.824 174.018 74.0293 174.018C72.2346 174.018 71.1889 175.544 71.1889 178.088ZM79.5315 178.088C79.5315 174.923 81.1707 172.775 83.7426 172.775C86.3004 172.775 87.9396 174.923 87.9396 178.088C87.9396 181.267 86.371 183.373 83.7426 183.373C81.1001 183.373 79.5315 181.267 79.5315 178.088ZM80.9022 178.088C80.9022 180.603 81.9479 182.129 83.7426 182.129C85.5373 182.129 86.5689 180.603 86.5689 178.088C86.5689 175.544 85.5373 174.018 83.7426 174.018C81.9479 174.018 80.9022 175.544 80.9022 178.088ZM89.9229 183.359C89.3717 183.359 88.9054 182.907 88.9054 182.37C88.9054 181.819 89.3717 181.366 89.9229 181.366C90.4599 181.366 90.9262 181.819 90.9262 182.37C90.9262 182.907 90.4599 183.359 89.9229 183.359ZM91.9062 178.088C91.9062 174.923 93.5454 172.775 96.1173 172.775C98.6751 172.775 100.314 174.923 100.314 178.088C100.314 181.267 98.7458 183.373 96.1173 183.373C93.4748 183.373 91.9062 181.267 91.9062 178.088ZM93.277 178.088C93.277 180.603 94.3227 182.129 96.1173 182.129C97.912 182.129 98.9436 180.603 98.9436 178.088C98.9436 175.544 97.912 174.018 96.1173 174.018C94.3227 174.018 93.277 175.544 93.277 178.088ZM101.62 178.088C101.62 174.923 103.259 172.775 105.831 172.775C108.388 172.775 110.028 174.923 110.028 178.088C110.028 181.267 108.459 183.373 105.831 183.373C103.188 183.373 101.62 181.267 101.62 178.088ZM102.99 178.088C102.99 180.603 104.036 182.129 105.831 182.129C107.625 182.129 108.657 180.603 108.657 178.088C108.657 175.544 107.625 174.018 105.831 174.018C104.036 174.018 102.99 175.544 102.99 178.088Z" fill="white"/>
<path d="M158.533 142.693C158.533 137.815 162.487 133.861 167.365 133.861H280.195C285.072 133.861 289.027 137.815 289.027 142.693V190.386C289.027 195.264 285.072 199.218 280.195 199.218H167.365C162.487 199.218 158.533 195.264 158.533 190.386V142.693Z" fill="black" fill-opacity="0.04"/>
<path d="M167.365 134.302H280.195C284.829 134.303 288.585 138.059 288.585 142.693V190.386C288.585 195.02 284.829 198.777 280.195 198.777H167.365C162.731 198.777 158.974 195.02 158.974 190.386V142.693C158.974 138.059 162.731 134.303 167.365 134.302Z" stroke="white" stroke-opacity="0.06" stroke-width="0.883207"/>
<path d="M171.06 159.226H170.022V151.563H172.915C174.558 151.563 175.533 152.432 175.533 153.863C175.533 154.923 175.003 155.686 174.049 155.993L175.607 159.226H174.452L173.021 156.195H171.06V159.226ZM171.06 152.496V155.273H172.926C173.89 155.273 174.441 154.753 174.441 153.874C174.441 152.983 173.869 152.496 172.915 152.496H171.06ZM177.211 152.814C176.85 152.814 176.553 152.517 176.553 152.157C176.553 151.786 176.85 151.5 177.211 151.5C177.571 151.5 177.868 151.786 177.868 152.157C177.868 152.517 177.571 152.814 177.211 152.814ZM176.723 159.226V154.043H177.719V159.226H176.723ZM178.678 157.721H179.632C179.632 158.251 180.035 158.569 180.692 158.569C181.391 158.569 181.794 158.283 181.794 157.806C181.794 157.456 181.624 157.244 181.084 157.106L180.172 156.894C179.25 156.672 178.816 156.216 178.816 155.453C178.816 154.499 179.621 153.895 180.766 153.895C181.9 153.895 182.642 154.531 182.663 155.516H181.709C181.688 154.997 181.338 154.669 180.734 154.669C180.109 154.669 179.759 154.944 179.759 155.421C179.759 155.771 180.014 156.004 180.522 156.131L181.434 156.354C182.313 156.566 182.748 156.968 182.748 157.742C182.748 158.728 181.9 159.353 180.671 159.353C179.452 159.353 178.678 158.707 178.678 157.721ZM184.807 159.226H183.81V151.425H184.807V156.481L187.106 154.043H188.357L186.375 156.11L188.346 159.226H187.202L185.686 156.831L184.807 157.753V159.226ZM189.373 159.226H188.387L191.376 151.574H192.372L189.373 159.226ZM194.237 159.226H193.198V151.563H196.092C197.735 151.563 198.71 152.432 198.71 153.863C198.71 154.923 198.18 155.686 197.226 155.993L198.784 159.226H197.629L196.198 156.195H194.237V159.226ZM194.237 152.496V155.273H196.102C197.067 155.273 197.618 154.753 197.618 153.874C197.618 152.983 197.046 152.496 196.092 152.496H194.237ZM201.763 159.353C200.237 159.353 199.188 158.251 199.188 156.64C199.188 155.018 200.216 153.895 201.721 153.895C203.194 153.895 204.159 154.912 204.159 156.449V156.82L200.152 156.831C200.227 157.922 200.799 158.526 201.785 158.526C202.558 158.526 203.067 158.208 203.237 157.615H204.169C203.915 158.728 203.046 159.353 201.763 159.353ZM201.721 154.732C200.852 154.732 200.301 155.252 200.174 156.163H203.162C203.162 155.305 202.601 154.732 201.721 154.732ZM206.145 159.226L204.449 154.043H205.477L206.336 156.735C206.452 157.117 206.558 157.509 206.653 157.965C206.738 157.509 206.876 157.074 206.993 156.735L207.862 154.043H208.879L209.738 156.735C209.822 156.99 209.992 157.594 210.077 157.965C210.162 157.551 210.257 157.191 210.405 156.735L211.274 154.043H212.313L210.543 159.226H209.6L208.699 156.449C208.529 155.93 208.423 155.527 208.37 155.241C208.317 155.495 208.222 155.834 208.031 156.46L207.13 159.226H206.145ZM214.381 159.353C213.268 159.353 212.611 158.728 212.611 157.785C212.611 156.831 213.321 156.237 214.54 156.142L216.172 156.015V155.866C216.172 154.997 215.653 154.69 214.953 154.69C214.116 154.69 213.639 155.061 213.639 155.686H212.77C212.77 154.605 213.66 153.895 214.996 153.895C216.278 153.895 217.147 154.573 217.147 155.972V159.226H216.299L216.193 158.389C215.928 158.982 215.218 159.353 214.381 159.353ZM214.667 158.579C215.61 158.579 216.183 157.965 216.183 156.99V156.714L214.858 156.82C213.978 156.905 213.618 157.244 213.618 157.753C213.618 158.304 214.021 158.579 214.667 158.579ZM221.431 154.001V154.912H220.986C220.043 154.912 219.46 155.485 219.46 156.481V159.226H218.463V154.054H219.396L219.46 154.838C219.672 154.298 220.191 153.937 220.901 153.937C221.081 153.937 221.23 153.959 221.431 154.001ZM224.193 159.353C222.688 159.353 221.776 158.23 221.776 156.651C221.776 155.061 222.698 153.895 224.235 153.895C225.03 153.895 225.698 154.245 226.047 154.881V151.425H227.033V159.226H226.143L226.058 158.283C225.719 158.993 225.019 159.353 224.193 159.353ZM224.394 158.452C225.412 158.452 226.037 157.7 226.037 156.619C226.037 155.559 225.412 154.796 224.394 154.796C223.377 154.796 222.783 155.559 222.783 156.619C222.783 157.689 223.377 158.452 224.394 158.452Z" fill="#3EDC81"/>
<path d="M171.774 174.552H169.626V173.308H173.102V183.525H171.774V174.552ZM176.285 178.395C175.734 178.395 175.268 177.943 175.268 177.42C175.268 176.869 175.734 176.417 176.285 176.417C176.822 176.417 177.289 176.869 177.289 177.42C177.289 177.943 176.822 178.395 176.285 178.395ZM176.285 183.695C175.734 183.695 175.268 183.243 175.268 182.706C175.268 182.154 175.734 181.702 176.285 181.702C176.822 181.702 177.289 182.154 177.289 182.706C177.289 183.243 176.822 183.695 176.285 183.695ZM185.837 183.511L178.941 183.525V182.465L182.233 179.625C183.887 178.198 184.353 177.505 184.353 176.417C184.353 175.131 183.618 174.368 182.389 174.368C181.131 174.368 180.311 175.287 180.283 176.742H178.898C178.941 174.552 180.326 173.124 182.403 173.124C184.452 173.124 185.766 174.368 185.766 176.332C185.766 177.788 185.045 178.819 183.237 180.388L181.117 182.225H185.837V183.511ZM188.408 183.695C187.857 183.695 187.391 183.243 187.391 182.706C187.391 182.154 187.857 181.702 188.408 181.702C188.945 181.702 189.412 182.154 189.412 182.706C189.412 183.243 188.945 183.695 188.408 183.695ZM191.776 174.552H189.628V173.308H193.104V183.525H191.776V174.552ZM198.267 183.695C196.176 183.695 194.819 182.366 194.819 180.331H196.19C196.19 181.646 196.996 182.451 198.296 182.451C199.68 182.451 200.571 181.533 200.571 180.148C200.571 178.834 199.737 177.858 198.31 177.858C197.448 177.858 196.656 178.268 196.19 178.848L195.017 178.551L196.261 173.308H201.376V174.58H197.264L196.586 177.293C197.123 176.883 197.801 176.671 198.564 176.671C200.641 176.671 201.984 178.127 201.984 180.091C201.984 182.211 200.472 183.695 198.267 183.695Z" fill="white"/>
<defs>
<linearGradient id="paint0_linear_468_2215" x1="37.2816" y1="667.336" x2="548.967" y2="307.921" gradientUnits="userSpaceOnUse">
<stop stop-color="#0276DB"/>
<stop offset="1" stop-color="#3EDC81"/>
</linearGradient>
<radialGradient id="paint1_radial_468_2215" cx="0" cy="0" r="1" gradientUnits="userSpaceOnUse" gradientTransform="translate(155.197 0.56791) rotate(90.0144) scale(785.432 309.776)">
<stop stop-color="#161616" stop-opacity="0.6"/>
<stop offset="0.740127" stop-color="#161616" stop-opacity="0.946662"/>
<stop offset="1" stop-color="#161616"/>
</radialGradient>
<linearGradient id="paint2_linear_468_2215" x1="37.2816" y1="667.336" x2="375.44" y2="236.002" gradientUnits="userSpaceOnUse">
<stop stop-color="#0276DB"/>
<stop offset="1" stop-color="#3EDC81"/>
</linearGradient>
<linearGradient id="paint3_linear_468_2215" x1="33.3383" y1="20.9733" x2="33.3383" y2="45.7031" gradientUnits="userSpaceOnUse">
<stop stop-color="white" stop-opacity="0.2"/>
<stop offset="1" stop-color="white" stop-opacity="0.1"/>
</linearGradient>
<linearGradient id="paint4_linear_468_2215" x1="184.131" y1="71.7007" x2="184.131" y2="89.7007" gradientUnits="userSpaceOnUse">
<stop stop-color="#15B0F8"/>
<stop offset="1" stop-color="#0276DB"/>
</linearGradient>
<clipPath id="clip0_468_2215">
<rect width="12.3649" height="12.3649" fill="white" transform="translate(27.1558 27.1556)"/>
</clipPath>
</defs>
</svg>
