<svg width="198" height="198" viewBox="0 0 198 198" fill="none" xmlns="http://www.w3.org/2000/svg">
<mask id="mask0_1870_34620" style="mask-type:luminance" maskUnits="userSpaceOnUse" x="0" y="0" width="198" height="198">
<path d="M60.3502 0.972656H54.4043V6.9186H60.3502V0.972656Z" fill="white"/>
<path d="M72.2428 0.972656H66.2969V6.9186H72.2428V0.972656Z" fill="white"/>
<path d="M107.919 0.972656H101.973V6.9186H107.919V0.972656Z" fill="white"/>
<path d="M113.863 0.972656H107.917V6.9186H113.863V0.972656Z" fill="white"/>
<path d="M119.81 0.972656H113.864V6.9186H119.81V0.972656Z" fill="white"/>
<path d="M131.701 0.972656H125.755V6.9186H131.701V0.972656Z" fill="white"/>
<path d="M137.648 0.972656H131.702V6.9186H137.648V0.972656Z" fill="white"/>
<path d="M149.54 0.972656H143.594V6.9186H149.54V0.972656Z" fill="white"/>
<path d="M60.3502 6.92188H54.4043V12.8678H60.3502V6.92188Z" fill="white"/>
<path d="M66.2956 6.92188H60.3496V12.8678H66.2956V6.92188Z" fill="white"/>
<path d="M84.1334 6.92188H78.1875V12.8678H84.1334V6.92188Z" fill="white"/>
<path d="M90.0807 6.92188H84.1348V12.8678H90.0807V6.92188Z" fill="white"/>
<path d="M96.028 6.92188H90.082V12.8678H96.028V6.92188Z" fill="white"/>
<path d="M125.757 6.92188H119.812V12.8678H125.757V6.92188Z" fill="white"/>
<path d="M131.702 6.92188H125.756V12.8678H131.702V6.92188Z" fill="white"/>
<path d="M149.54 6.92188H143.594V12.8678H149.54V6.92188Z" fill="white"/>
<path d="M54.4049 12.8711H48.459V18.817H54.4049V12.8711Z" fill="white"/>
<path d="M60.3502 12.8711H54.4043V18.817H60.3502V12.8711Z" fill="white"/>
<path d="M66.2956 12.8711H60.3496V18.817H66.2956V12.8711Z" fill="white"/>
<path d="M72.2418 12.8711H66.2959V18.817H72.2418V12.8711Z" fill="white"/>
<path d="M96.028 12.8711H90.082V18.817H96.028V12.8711Z" fill="white"/>
<path d="M113.863 12.8711H107.917V18.817H113.863V12.8711Z" fill="white"/>
<path d="M119.81 12.8711H113.864V18.817H119.81V12.8711Z" fill="white"/>
<path d="M131.702 12.8711H125.756V18.817H131.702V12.8711Z" fill="white"/>
<path d="M143.595 12.8711H137.649V18.817H143.595V12.8711Z" fill="white"/>
<path d="M149.54 12.8711H143.594V18.817H149.54V12.8711Z" fill="white"/>
<path d="M54.4049 18.8125H48.459V24.7584H54.4049V18.8125Z" fill="white"/>
<path d="M60.3502 18.8125H54.4043V24.7584H60.3502V18.8125Z" fill="white"/>
<path d="M84.1334 18.8125H78.1875V24.7584H84.1334V18.8125Z" fill="white"/>
<path d="M90.0807 18.8125H84.1348V24.7584H90.0807V18.8125Z" fill="white"/>
<path d="M101.973 18.8125H96.0273V24.7584H101.973V18.8125Z" fill="white"/>
<path d="M107.919 18.8125H101.973V24.7584H107.919V18.8125Z" fill="white"/>
<path d="M113.863 18.8125H107.917V24.7584H113.863V18.8125Z" fill="white"/>
<path d="M119.81 18.8125H113.864V24.7584H119.81V18.8125Z" fill="white"/>
<path d="M125.757 18.8125H119.812V24.7584H125.757V18.8125Z" fill="white"/>
<path d="M131.702 18.8125H125.756V24.7584H131.702V18.8125Z" fill="white"/>
<path d="M143.595 18.8125H137.649V24.7584H143.595V18.8125Z" fill="white"/>
<path d="M149.54 18.8125H143.594V24.7584H149.54V18.8125Z" fill="white"/>
<path d="M78.1891 24.7578H72.2432V30.7038H78.1891V24.7578Z" fill="white"/>
<path d="M84.1334 24.7578H78.1875V30.7038H84.1334V24.7578Z" fill="white"/>
<path d="M90.0807 24.7578H84.1348V30.7038H90.0807V24.7578Z" fill="white"/>
<path d="M101.973 24.7578H96.0273V30.7038H101.973V24.7578Z" fill="white"/>
<path d="M113.863 24.7578H107.917V30.7038H113.863V24.7578Z" fill="white"/>
<path d="M125.757 24.7578H119.812V30.7038H125.757V24.7578Z" fill="white"/>
<path d="M131.702 24.7578H125.756V30.7038H131.702V24.7578Z" fill="white"/>
<path d="M143.595 24.7578H137.649V30.7038H143.595V24.7578Z" fill="white"/>
<path d="M72.2428 30.7031H66.2969V36.6491H72.2428V30.7031Z" fill="white"/>
<path d="M84.1334 30.7031H78.1875V36.6491H84.1334V30.7031Z" fill="white"/>
<path d="M90.0807 30.7031H84.1348V36.6491H90.0807V30.7031Z" fill="white"/>
<path d="M101.972 30.7031H96.0264V36.6491H101.972V30.7031Z" fill="white"/>
<path d="M125.757 30.7031H119.812V36.6491H125.757V30.7031Z" fill="white"/>
<path d="M149.54 30.7031H143.594V36.6491H149.54V30.7031Z" fill="white"/>
<path d="M54.4049 36.6484H48.459V42.5944H54.4049V36.6484Z" fill="white"/>
<path d="M66.2956 36.6484H60.3496V42.5944H66.2956V36.6484Z" fill="white"/>
<path d="M78.1891 36.6484H72.2432V42.5944H78.1891V36.6484Z" fill="white"/>
<path d="M90.0807 36.6484H84.1348V42.5944H90.0807V36.6484Z" fill="white"/>
<path d="M101.973 36.6484H96.0273V42.5944H101.973V36.6484Z" fill="white"/>
<path d="M113.863 36.6484H107.917V42.5944H113.863V36.6484Z" fill="white"/>
<path d="M125.757 36.6484H119.812V42.5944H125.757V36.6484Z" fill="white"/>
<path d="M137.648 36.6484H131.702V42.5944H137.648V36.6484Z" fill="white"/>
<path d="M149.54 36.6484H143.594V42.5944H149.54V36.6484Z" fill="white"/>
<path d="M66.2956 42.5898H60.3496V48.5358H66.2956V42.5898Z" fill="white"/>
<path d="M96.028 42.5898H90.082V48.5358H96.028V42.5898Z" fill="white"/>
<path d="M101.973 42.5898H96.0273V48.5358H101.973V42.5898Z" fill="white"/>
<path d="M137.648 42.5898H131.702V48.5358H137.648V42.5898Z" fill="white"/>
<path d="M143.595 42.5898H137.649V48.5358H143.595V42.5898Z" fill="white"/>
<path d="M24.6745 48.5391H18.7285V54.485H24.6745V48.5391Z" fill="white"/>
<path d="M30.6217 48.5391H24.6758V54.485H30.6217V48.5391Z" fill="white"/>
<path d="M42.5124 48.5391H36.5664V54.485H42.5124V48.5391Z" fill="white"/>
<path d="M48.4596 48.5391H42.5137V54.485H48.4596V48.5391Z" fill="white"/>
<path d="M72.2418 48.5391H66.2959V54.485H72.2418V48.5391Z" fill="white"/>
<path d="M78.1891 48.5391H72.2432V54.485H78.1891V48.5391Z" fill="white"/>
<path d="M84.1334 48.5391H78.1875V54.485H84.1334V48.5391Z" fill="white"/>
<path d="M90.0807 48.5391H84.1348V54.485H90.0807V48.5391Z" fill="white"/>
<path d="M96.028 48.5391H90.082V54.485H96.028V48.5391Z" fill="white"/>
<path d="M101.973 48.5391H96.0273V54.485H101.973V48.5391Z" fill="white"/>
<path d="M113.863 48.5391H107.917V54.485H113.863V48.5391Z" fill="white"/>
<path d="M125.757 48.5391H119.812V54.485H125.757V48.5391Z" fill="white"/>
<path d="M143.595 48.5391H137.649V54.485H143.595V48.5391Z" fill="white"/>
<path d="M149.54 48.5391H143.594V54.485H149.54V48.5391Z" fill="white"/>
<path d="M179.269 48.5391H173.323V54.485H179.269V48.5391Z" fill="white"/>
<path d="M185.216 48.5391H179.271V54.485H185.216V48.5391Z" fill="white"/>
<path d="M12.7829 54.4961H6.83691V60.442H12.7829V54.4961Z" fill="white"/>
<path d="M30.6217 54.4961H24.6758V60.442H30.6217V54.4961Z" fill="white"/>
<path d="M36.5661 54.4961H30.6201V60.442H36.5661V54.4961Z" fill="white"/>
<path d="M54.4049 54.4961H48.459V60.442H54.4049V54.4961Z" fill="white"/>
<path d="M78.1891 54.4961H72.2432V60.442H78.1891V54.4961Z" fill="white"/>
<path d="M84.1334 54.4961H78.1875V60.442H84.1334V54.4961Z" fill="white"/>
<path d="M90.0807 54.4961H84.1348V60.442H90.0807V54.4961Z" fill="white"/>
<path d="M101.973 54.4961H96.0273V60.442H101.973V54.4961Z" fill="white"/>
<path d="M113.863 54.4961H107.917V60.442H113.863V54.4961Z" fill="white"/>
<path d="M143.595 54.4961H137.649V60.442H143.595V54.4961Z" fill="white"/>
<path d="M155.487 54.4961H149.541V60.442H155.487V54.4961Z" fill="white"/>
<path d="M167.378 54.4961H161.432V60.442H167.378V54.4961Z" fill="white"/>
<path d="M173.325 54.4961H167.379V60.442H173.325V54.4961Z" fill="white"/>
<path d="M179.269 54.4961H173.323V60.442H179.269V54.4961Z" fill="white"/>
<path d="M185.216 54.4961H179.271V60.442H185.216V54.4961Z" fill="white"/>
<path d="M191.164 54.4961H185.218V60.442H191.164V54.4961Z" fill="white"/>
<path d="M6.83755 60.4414H0.891602V66.3874H6.83755V60.4414Z" fill="white"/>
<path d="M30.6217 60.4414H24.6758V66.3874H30.6217V60.4414Z" fill="white"/>
<path d="M42.5124 60.4414H36.5664V66.3874H42.5124V60.4414Z" fill="white"/>
<path d="M72.2428 60.4414H66.2969V66.3874H72.2428V60.4414Z" fill="white"/>
<path d="M78.1891 60.4414H72.2432V66.3874H78.1891V60.4414Z" fill="white"/>
<path d="M96.028 60.4414H90.082V66.3874H96.028V60.4414Z" fill="white"/>
<path d="M113.863 60.4414H107.917V66.3874H113.863V60.4414Z" fill="white"/>
<path d="M131.701 60.4414H125.755V66.3874H131.701V60.4414Z" fill="white"/>
<path d="M143.595 60.4414H137.649V66.3874H143.595V60.4414Z" fill="white"/>
<path d="M155.487 60.4414H149.541V66.3874H155.487V60.4414Z" fill="white"/>
<path d="M167.379 60.4414H161.433V66.3874H167.379V60.4414Z" fill="white"/>
<path d="M185.216 60.4414H179.271V66.3874H185.216V60.4414Z" fill="white"/>
<path d="M191.164 60.4414H185.218V66.3874H191.164V60.4414Z" fill="white"/>
<path d="M197.108 60.4414H191.162V66.3874H197.108V60.4414Z" fill="white"/>
<path d="M12.7829 66.3867H6.83691V72.3327H12.7829V66.3867Z" fill="white"/>
<path d="M18.7272 66.3867H12.7812V72.3327H18.7272V66.3867Z" fill="white"/>
<path d="M30.6217 66.3867H24.6758V72.3327H30.6217V66.3867Z" fill="white"/>
<path d="M60.3512 66.3867H54.4053V72.3327H60.3512V66.3867Z" fill="white"/>
<path d="M66.2956 66.3867H60.3496V72.3327H66.2956V66.3867Z" fill="white"/>
<path d="M78.1891 66.3867H72.2432V72.3327H78.1891V66.3867Z" fill="white"/>
<path d="M84.1334 66.3867H78.1875V72.3327H84.1334V66.3867Z" fill="white"/>
<path d="M107.919 66.3867H101.973V72.3327H107.919V66.3867Z" fill="white"/>
<path d="M119.81 66.3867H113.864V72.3327H119.81V66.3867Z" fill="white"/>
<path d="M149.54 66.3867H143.594V72.3327H149.54V66.3867Z" fill="white"/>
<path d="M161.431 66.3867H155.485V72.3327H161.431V66.3867Z" fill="white"/>
<path d="M167.379 66.3867H161.433V72.3327H167.379V66.3867Z" fill="white"/>
<path d="M173.325 66.3867H167.379V72.3327H173.325V66.3867Z" fill="white"/>
<path d="M179.269 66.3867H173.323V72.3327H179.269V66.3867Z" fill="white"/>
<path d="M185.216 66.3867H179.271V72.3327H185.216V66.3867Z" fill="white"/>
<path d="M191.164 66.3867H185.218V72.3327H191.164V66.3867Z" fill="white"/>
<path d="M197.108 66.3867H191.162V72.3327H197.108V66.3867Z" fill="white"/>
<path d="M24.6745 72.3281H18.7285V78.2741H24.6745V72.3281Z" fill="white"/>
<path d="M30.6217 72.3281H24.6758V78.2741H30.6217V72.3281Z" fill="white"/>
<path d="M42.5124 72.3281H36.5664V78.2741H42.5124V72.3281Z" fill="white"/>
<path d="M48.4596 72.3281H42.5137V78.2741H48.4596V72.3281Z" fill="white"/>
<path d="M54.4049 72.3281H48.459V78.2741H54.4049V72.3281Z" fill="white"/>
<path d="M90.0807 72.3281H84.1348V78.2741H90.0807V72.3281Z" fill="white"/>
<path d="M101.972 72.3281H96.0264V78.2741H101.972V72.3281Z" fill="white"/>
<path d="M113.863 72.3281H107.917V78.2741H113.863V72.3281Z" fill="white"/>
<path d="M119.81 72.3281H113.864V78.2741H119.81V72.3281Z" fill="white"/>
<path d="M125.757 72.3281H119.812V78.2741H125.757V72.3281Z" fill="white"/>
<path d="M131.702 72.3281H125.756V78.2741H131.702V72.3281Z" fill="white"/>
<path d="M137.648 72.3281H131.702V78.2741H137.648V72.3281Z" fill="white"/>
<path d="M149.54 72.3281H143.594V78.2741H149.54V72.3281Z" fill="white"/>
<path d="M161.431 72.3281H155.485V78.2741H161.431V72.3281Z" fill="white"/>
<path d="M167.378 72.3281H161.432V78.2741H167.378V72.3281Z" fill="white"/>
<path d="M173.324 72.3281H167.378V78.2741H173.324V72.3281Z" fill="white"/>
<path d="M179.269 72.3281H173.323V78.2741H179.269V72.3281Z" fill="white"/>
<path d="M197.108 72.3281H191.162V78.2741H197.108V72.3281Z" fill="white"/>
<path d="M6.83755 78.2734H0.891602V84.2194H6.83755V78.2734Z" fill="white"/>
<path d="M12.7829 78.2734H6.83691V84.2194H12.7829V78.2734Z" fill="white"/>
<path d="M24.6745 78.2734H18.7285V84.2194H24.6745V78.2734Z" fill="white"/>
<path d="M72.2418 78.2734H66.2959V84.2194H72.2418V78.2734Z" fill="white"/>
<path d="M96.028 78.2734H90.082V84.2194H96.028V78.2734Z" fill="white"/>
<path d="M101.973 78.2734H96.0273V84.2194H101.973V78.2734Z" fill="white"/>
<path d="M107.919 78.2734H101.973V84.2194H107.919V78.2734Z" fill="white"/>
<path d="M119.81 78.2734H113.864V84.2194H119.81V78.2734Z" fill="white"/>
<path d="M131.702 78.2734H125.756V84.2194H131.702V78.2734Z" fill="white"/>
<path d="M137.648 78.2734H131.702V84.2194H137.648V78.2734Z" fill="white"/>
<path d="M143.595 78.2734H137.649V84.2194H143.595V78.2734Z" fill="white"/>
<path d="M185.216 78.2734H179.271V84.2194H185.216V78.2734Z" fill="white"/>
<path d="M191.163 78.2734H185.217V84.2194H191.163V78.2734Z" fill="white"/>
<path d="M12.7829 84.2148H6.83691V90.1608H12.7829V84.2148Z" fill="white"/>
<path d="M18.7272 84.2148H12.7812V90.1608H18.7272V84.2148Z" fill="white"/>
<path d="M24.6745 84.2148H18.7285V90.1608H24.6745V84.2148Z" fill="white"/>
<path d="M30.6217 84.2148H24.6758V90.1608H30.6217V84.2148Z" fill="white"/>
<path d="M42.5124 84.2148H36.5664V90.1608H42.5124V84.2148Z" fill="white"/>
<path d="M48.4596 84.2148H42.5137V90.1608H48.4596V84.2148Z" fill="white"/>
<path d="M72.2418 84.2148H66.2959V90.1608H72.2418V84.2148Z" fill="white"/>
<path d="M78.1891 84.2148H72.2432V90.1608H78.1891V84.2148Z" fill="white"/>
<path d="M113.863 84.2148H107.917V90.1608H113.863V84.2148Z" fill="white"/>
<path d="M125.757 84.2148H119.812V90.1608H125.757V84.2148Z" fill="white"/>
<path d="M149.54 84.2148H143.594V90.1608H149.54V84.2148Z" fill="white"/>
<path d="M161.431 84.2148H155.485V90.1608H161.431V84.2148Z" fill="white"/>
<path d="M173.325 84.2148H167.379V90.1608H173.325V84.2148Z" fill="white"/>
<path d="M179.269 84.2148H173.323V90.1608H179.269V84.2148Z" fill="white"/>
<path d="M12.7829 90.168H6.83691V96.1139H12.7829V90.168Z" fill="white"/>
<path d="M18.7272 90.168H12.7812V96.1139H18.7272V90.168Z" fill="white"/>
<path d="M24.6745 90.168H18.7285V96.1139H24.6745V90.168Z" fill="white"/>
<path d="M36.5661 90.168H30.6201V96.1139H36.5661V90.168Z" fill="white"/>
<path d="M84.1334 90.168H78.1875V96.1139H84.1334V90.168Z" fill="white"/>
<path d="M90.0807 90.168H84.1348V96.1139H90.0807V90.168Z" fill="white"/>
<path d="M101.973 90.168H96.0273V96.1139H101.973V90.168Z" fill="white"/>
<path d="M107.919 90.168H101.973V96.1139H107.919V90.168Z" fill="white"/>
<path d="M119.811 90.168H113.865V96.1139H119.811V90.168Z" fill="white"/>
<path d="M143.595 90.168H137.649V96.1139H143.595V90.168Z" fill="white"/>
<path d="M149.54 90.168H143.594V96.1139H149.54V90.168Z" fill="white"/>
<path d="M155.487 90.168H149.541V96.1139H155.487V90.168Z" fill="white"/>
<path d="M167.378 90.168H161.432V96.1139H167.378V90.168Z" fill="white"/>
<path d="M179.269 90.168H173.323V96.1139H179.269V90.168Z" fill="white"/>
<path d="M185.216 90.168H179.271V96.1139H185.216V90.168Z" fill="white"/>
<path d="M191.164 90.168H185.218V96.1139H191.164V90.168Z" fill="white"/>
<path d="M197.108 90.168H191.162V96.1139H197.108V90.168Z" fill="white"/>
<path d="M6.83755 96.1172H0.891602V102.063H6.83755V96.1172Z" fill="white"/>
<path d="M12.7829 96.1172H6.83691V102.063H12.7829V96.1172Z" fill="white"/>
<path d="M30.6217 96.1172H24.6758V102.063H30.6217V96.1172Z" fill="white"/>
<path d="M42.5124 96.1172H36.5664V102.063H42.5124V96.1172Z" fill="white"/>
<path d="M48.4596 96.1172H42.5137V102.063H48.4596V96.1172Z" fill="white"/>
<path d="M60.3502 96.1172H54.4043V102.063H60.3502V96.1172Z" fill="white"/>
<path d="M66.2956 96.1172H60.3496V102.063H66.2956V96.1172Z" fill="white"/>
<path d="M84.1334 96.1172H78.1875V102.063H84.1334V96.1172Z" fill="white"/>
<path d="M101.973 96.1172H96.0273V102.063H101.973V96.1172Z" fill="white"/>
<path d="M113.863 96.1172H107.917V102.063H113.863V96.1172Z" fill="white"/>
<path d="M119.81 96.1172H113.864V102.063H119.81V96.1172Z" fill="white"/>
<path d="M143.595 96.1172H137.649V102.063H143.595V96.1172Z" fill="white"/>
<path d="M155.487 96.1172H149.541V102.063H155.487V96.1172Z" fill="white"/>
<path d="M161.431 96.1172H155.485V102.063H161.431V96.1172Z" fill="white"/>
<path d="M167.38 96.1172H161.434V102.063H167.38V96.1172Z" fill="white"/>
<path d="M173.325 96.1172H167.379V102.063H173.325V96.1172Z" fill="white"/>
<path d="M179.269 96.1172H173.323V102.063H179.269V96.1172Z" fill="white"/>
<path d="M191.164 96.1172H185.218V102.063H191.164V96.1172Z" fill="white"/>
<path d="M6.83755 102.055H0.891602V108.001H6.83755V102.055Z" fill="white"/>
<path d="M24.6745 102.055H18.7285V108.001H24.6745V102.055Z" fill="white"/>
<path d="M36.5661 102.055H30.6201V108.001H36.5661V102.055Z" fill="white"/>
<path d="M54.4049 102.055H48.459V108.001H54.4049V102.055Z" fill="white"/>
<path d="M60.3502 102.055H54.4043V108.001H60.3502V102.055Z" fill="white"/>
<path d="M72.2428 102.055H66.2969V108.001H72.2428V102.055Z" fill="white"/>
<path d="M78.1891 102.055H72.2432V108.001H78.1891V102.055Z" fill="white"/>
<path d="M90.0807 102.055H84.1348V108.001H90.0807V102.055Z" fill="white"/>
<path d="M107.919 102.055H101.973V108.001H107.919V102.055Z" fill="white"/>
<path d="M113.863 102.055H107.917V108.001H113.863V102.055Z" fill="white"/>
<path d="M125.757 102.055H119.812V108.001H125.757V102.055Z" fill="white"/>
<path d="M131.702 102.055H125.756V108.001H131.702V102.055Z" fill="white"/>
<path d="M137.648 102.055H131.702V108.001H137.648V102.055Z" fill="white"/>
<path d="M149.54 102.055H143.594V108.001H149.54V102.055Z" fill="white"/>
<path d="M161.431 102.055H155.485V108.001H161.431V102.055Z" fill="white"/>
<path d="M167.378 102.055H161.432V108.001H167.378V102.055Z" fill="white"/>
<path d="M173.325 102.055H167.379V108.001H173.325V102.055Z" fill="white"/>
<path d="M179.269 102.055H173.323V108.001H179.269V102.055Z" fill="white"/>
<path d="M197.108 102.055H191.162V108.001H197.108V102.055Z" fill="white"/>
<path d="M12.7829 108.004H6.83691V113.95H12.7829V108.004Z" fill="white"/>
<path d="M24.6745 108.004H18.7285V113.95H24.6745V108.004Z" fill="white"/>
<path d="M30.6217 108.004H24.6758V113.95H30.6217V108.004Z" fill="white"/>
<path d="M36.5661 108.004H30.6201V113.95H36.5661V108.004Z" fill="white"/>
<path d="M42.5124 108.004H36.5664V113.95H42.5124V108.004Z" fill="white"/>
<path d="M48.4596 108.004H42.5137V113.95H48.4596V108.004Z" fill="white"/>
<path d="M60.3502 108.004H54.4043V113.95H60.3502V108.004Z" fill="white"/>
<path d="M72.2418 108.004H66.2959V113.95H72.2418V108.004Z" fill="white"/>
<path d="M84.1334 108.004H78.1875V113.95H84.1334V108.004Z" fill="white"/>
<path d="M96.028 108.004H90.082V113.95H96.028V108.004Z" fill="white"/>
<path d="M107.919 108.004H101.973V113.95H107.919V108.004Z" fill="white"/>
<path d="M125.757 108.004H119.812V113.95H125.757V108.004Z" fill="white"/>
<path d="M143.595 108.004H137.649V113.95H143.595V108.004Z" fill="white"/>
<path d="M173.325 108.004H167.379V113.95H173.325V108.004Z" fill="white"/>
<path d="M179.269 108.004H173.323V113.95H179.269V108.004Z" fill="white"/>
<path d="M185.216 108.004H179.271V113.95H185.216V108.004Z" fill="white"/>
<path d="M197.108 108.004H191.162V113.95H197.108V108.004Z" fill="white"/>
<path d="M6.83755 113.945H0.891602V119.891H6.83755V113.945Z" fill="white"/>
<path d="M12.7829 113.945H6.83691V119.891H12.7829V113.945Z" fill="white"/>
<path d="M24.6745 113.945H18.7285V119.891H24.6745V113.945Z" fill="white"/>
<path d="M36.5661 113.945H30.6201V119.891H36.5661V113.945Z" fill="white"/>
<path d="M48.4596 113.945H42.5137V119.891H48.4596V113.945Z" fill="white"/>
<path d="M60.3502 113.945H54.4043V119.891H60.3502V113.945Z" fill="white"/>
<path d="M72.2418 113.945H66.2959V119.891H72.2418V113.945Z" fill="white"/>
<path d="M78.1891 113.945H72.2432V119.891H78.1891V113.945Z" fill="white"/>
<path d="M84.1334 113.945H78.1875V119.891H84.1334V113.945Z" fill="white"/>
<path d="M96.028 113.945H90.082V119.891H96.028V113.945Z" fill="white"/>
<path d="M107.919 113.945H101.973V119.891H107.919V113.945Z" fill="white"/>
<path d="M119.81 113.945H113.864V119.891H119.81V113.945Z" fill="white"/>
<path d="M137.648 113.945H131.702V119.891H137.648V113.945Z" fill="white"/>
<path d="M143.595 113.945H137.649V119.891H143.595V113.945Z" fill="white"/>
<path d="M149.54 113.945H143.594V119.891H149.54V113.945Z" fill="white"/>
<path d="M155.487 113.945H149.541V119.891H155.487V113.945Z" fill="white"/>
<path d="M167.378 113.945H161.432V119.891H167.378V113.945Z" fill="white"/>
<path d="M173.325 113.945H167.379V119.891H173.325V113.945Z" fill="white"/>
<path d="M179.269 113.945H173.323V119.891H179.269V113.945Z" fill="white"/>
<path d="M185.216 113.945H179.271V119.891H185.216V113.945Z" fill="white"/>
<path d="M191.163 113.945H185.217V119.891H191.163V113.945Z" fill="white"/>
<path d="M12.7829 119.898H6.83691V125.844H12.7829V119.898Z" fill="white"/>
<path d="M24.6745 119.898H18.7285V125.844H24.6745V119.898Z" fill="white"/>
<path d="M42.5124 119.898H36.5664V125.844H42.5124V119.898Z" fill="white"/>
<path d="M48.4596 119.898H42.5137V125.844H48.4596V119.898Z" fill="white"/>
<path d="M60.3502 119.898H54.4043V125.844H60.3502V119.898Z" fill="white"/>
<path d="M66.2956 119.898H60.3496V125.844H66.2956V119.898Z" fill="white"/>
<path d="M78.1891 119.898H72.2432V125.844H78.1891V119.898Z" fill="white"/>
<path d="M84.1334 119.898H78.1875V125.844H84.1334V119.898Z" fill="white"/>
<path d="M90.0807 119.898H84.1348V125.844H90.0807V119.898Z" fill="white"/>
<path d="M96.028 119.898H90.082V125.844H96.028V119.898Z" fill="white"/>
<path d="M119.811 119.898H113.865V125.844H119.811V119.898Z" fill="white"/>
<path d="M125.757 119.898H119.812V125.844H125.757V119.898Z" fill="white"/>
<path d="M161.431 119.898H155.485V125.844H161.431V119.898Z" fill="white"/>
<path d="M167.378 119.898H161.432V125.844H167.378V119.898Z" fill="white"/>
<path d="M179.269 119.898H173.323V125.844H179.269V119.898Z" fill="white"/>
<path d="M197.108 119.898H191.162V125.844H197.108V119.898Z" fill="white"/>
<path d="M6.83755 125.84H0.891602V131.786H6.83755V125.84Z" fill="white"/>
<path d="M12.7829 125.84H6.83691V131.786H12.7829V125.84Z" fill="white"/>
<path d="M30.6217 125.84H24.6758V131.786H30.6217V125.84Z" fill="white"/>
<path d="M48.4596 125.84H42.5137V131.786H48.4596V125.84Z" fill="white"/>
<path d="M78.1891 125.84H72.2432V131.786H78.1891V125.84Z" fill="white"/>
<path d="M96.028 125.84H90.082V131.786H96.028V125.84Z" fill="white"/>
<path d="M107.919 125.84H101.973V131.786H107.919V125.84Z" fill="white"/>
<path d="M113.863 125.84H107.917V131.786H113.863V125.84Z" fill="white"/>
<path d="M119.81 125.84H113.864V131.786H119.81V125.84Z" fill="white"/>
<path d="M125.757 125.84H119.812V131.786H125.757V125.84Z" fill="white"/>
<path d="M131.701 125.84H125.755V131.786H131.701V125.84Z" fill="white"/>
<path d="M137.648 125.84H131.702V131.786H137.648V125.84Z" fill="white"/>
<path d="M149.54 125.84H143.594V131.786H149.54V125.84Z" fill="white"/>
<path d="M161.431 125.84H155.485V131.786H161.431V125.84Z" fill="white"/>
<path d="M173.325 125.84H167.379V131.786H173.325V125.84Z" fill="white"/>
<path d="M179.269 125.84H173.323V131.786H179.269V125.84Z" fill="white"/>
<path d="M185.216 125.84H179.271V131.786H185.216V125.84Z" fill="white"/>
<path d="M6.83755 131.785H0.891602V137.731H6.83755V131.785Z" fill="white"/>
<path d="M24.6745 131.785H18.7285V137.731H24.6745V131.785Z" fill="white"/>
<path d="M30.6217 131.785H24.6758V137.731H30.6217V131.785Z" fill="white"/>
<path d="M36.5661 131.785H30.6201V137.731H36.5661V131.785Z" fill="white"/>
<path d="M42.5133 131.785H36.5674V137.731H42.5133V131.785Z" fill="white"/>
<path d="M48.4596 131.785H42.5137V137.731H48.4596V131.785Z" fill="white"/>
<path d="M60.3512 131.785H54.4053V137.731H60.3512V131.785Z" fill="white"/>
<path d="M66.2956 131.785H60.3496V137.731H66.2956V131.785Z" fill="white"/>
<path d="M72.2428 131.785H66.2969V137.731H72.2428V131.785Z" fill="white"/>
<path d="M78.1891 131.785H72.2432V137.731H78.1891V131.785Z" fill="white"/>
<path d="M90.0807 131.785H84.1348V137.731H90.0807V131.785Z" fill="white"/>
<path d="M96.028 131.785H90.082V137.731H96.028V131.785Z" fill="white"/>
<path d="M107.919 131.785H101.973V137.731H107.919V131.785Z" fill="white"/>
<path d="M113.863 131.785H107.917V137.731H113.863V131.785Z" fill="white"/>
<path d="M119.811 131.785H113.865V137.731H119.811V131.785Z" fill="white"/>
<path d="M131.701 131.785H125.755V137.731H131.701V131.785Z" fill="white"/>
<path d="M143.595 131.785H137.649V137.731H143.595V131.785Z" fill="white"/>
<path d="M161.431 131.785H155.485V137.731H161.431V131.785Z" fill="white"/>
<path d="M173.325 131.785H167.379V137.731H173.325V131.785Z" fill="white"/>
<path d="M191.164 131.785H185.218V137.731H191.164V131.785Z" fill="white"/>
<path d="M197.108 131.785H191.162V137.731H197.108V131.785Z" fill="white"/>
<path d="M6.83755 137.73H0.891602V143.676H6.83755V137.73Z" fill="white"/>
<path d="M18.7272 137.73H12.7812V143.676H18.7272V137.73Z" fill="white"/>
<path d="M24.6745 137.73H18.7285V143.676H24.6745V137.73Z" fill="white"/>
<path d="M60.3512 137.73H54.4053V143.676H60.3512V137.73Z" fill="white"/>
<path d="M72.2418 137.73H66.2959V143.676H72.2418V137.73Z" fill="white"/>
<path d="M96.028 137.73H90.082V143.676H96.028V137.73Z" fill="white"/>
<path d="M101.972 137.73H96.0264V143.676H101.972V137.73Z" fill="white"/>
<path d="M107.919 137.73H101.973V143.676H107.919V137.73Z" fill="white"/>
<path d="M119.811 137.73H113.865V143.676H119.811V137.73Z" fill="white"/>
<path d="M125.757 137.73H119.812V143.676H125.757V137.73Z" fill="white"/>
<path d="M143.595 137.73H137.649V143.676H143.595V137.73Z" fill="white"/>
<path d="M149.54 137.73H143.594V143.676H149.54V137.73Z" fill="white"/>
<path d="M167.377 137.73H161.431V143.676H167.377V137.73Z" fill="white"/>
<path d="M173.325 137.73H167.379V143.676H173.325V137.73Z" fill="white"/>
<path d="M185.216 137.73H179.271V143.676H185.216V137.73Z" fill="white"/>
<path d="M6.83755 143.676H0.891602V149.622H6.83755V143.676Z" fill="white"/>
<path d="M12.7829 143.676H6.83691V149.622H12.7829V143.676Z" fill="white"/>
<path d="M18.7272 143.676H12.7812V149.622H18.7272V143.676Z" fill="white"/>
<path d="M24.6745 143.676H18.7285V149.622H24.6745V143.676Z" fill="white"/>
<path d="M30.6217 143.676H24.6758V149.622H30.6217V143.676Z" fill="white"/>
<path d="M42.5124 143.676H36.5664V149.622H42.5124V143.676Z" fill="white"/>
<path d="M48.4596 143.676H42.5137V149.622H48.4596V143.676Z" fill="white"/>
<path d="M78.1891 143.676H72.2432V149.622H78.1891V143.676Z" fill="white"/>
<path d="M90.0807 143.676H84.1348V149.622H90.0807V143.676Z" fill="white"/>
<path d="M96.028 143.676H90.082V149.622H96.028V143.676Z" fill="white"/>
<path d="M137.648 143.676H131.702V149.622H137.648V143.676Z" fill="white"/>
<path d="M143.595 143.676H137.649V149.622H143.595V143.676Z" fill="white"/>
<path d="M149.54 143.676H143.594V149.622H149.54V143.676Z" fill="white"/>
<path d="M155.487 143.676H149.541V149.622H155.487V143.676Z" fill="white"/>
<path d="M161.431 143.676H155.485V149.622H161.431V143.676Z" fill="white"/>
<path d="M167.378 143.676H161.432V149.622H167.378V143.676Z" fill="white"/>
<path d="M173.325 143.676H167.379V149.622H173.325V143.676Z" fill="white"/>
<path d="M197.108 143.676H191.162V149.622H197.108V143.676Z" fill="white"/>
<path d="M54.4049 149.637H48.459V155.583H54.4049V149.637Z" fill="white"/>
<path d="M72.2418 149.637H66.2959V155.583H72.2418V149.637Z" fill="white"/>
<path d="M84.1334 149.637H78.1875V155.583H84.1334V149.637Z" fill="white"/>
<path d="M90.0807 149.637H84.1348V155.583H90.0807V149.637Z" fill="white"/>
<path d="M96.028 149.637H90.082V155.583H96.028V149.637Z" fill="white"/>
<path d="M101.973 149.637H96.0273V155.583H101.973V149.637Z" fill="white"/>
<path d="M119.811 149.637H113.865V155.583H119.811V149.637Z" fill="white"/>
<path d="M125.757 149.637H119.812V155.583H125.757V149.637Z" fill="white"/>
<path d="M131.702 149.637H125.756V155.583H131.702V149.637Z" fill="white"/>
<path d="M149.54 149.637H143.594V155.583H149.54V149.637Z" fill="white"/>
<path d="M173.325 149.637H167.379V155.583H173.325V149.637Z" fill="white"/>
<path d="M179.269 149.637H173.323V155.583H179.269V149.637Z" fill="white"/>
<path d="M54.4049 155.574H48.459V161.52H54.4049V155.574Z" fill="white"/>
<path d="M60.3502 155.574H54.4043V161.52H60.3502V155.574Z" fill="white"/>
<path d="M84.1334 155.574H78.1875V161.52H84.1334V155.574Z" fill="white"/>
<path d="M96.028 155.574H90.082V161.52H96.028V155.574Z" fill="white"/>
<path d="M101.973 155.574H96.0273V161.52H101.973V155.574Z" fill="white"/>
<path d="M107.919 155.574H101.973V161.52H107.919V155.574Z" fill="white"/>
<path d="M125.757 155.574H119.812V161.52H125.757V155.574Z" fill="white"/>
<path d="M143.595 155.574H137.649V161.52H143.595V155.574Z" fill="white"/>
<path d="M149.54 155.574H143.594V161.52H149.54V155.574Z" fill="white"/>
<path d="M161.431 155.574H155.485V161.52H161.431V155.574Z" fill="white"/>
<path d="M173.325 155.574H167.379V161.52H173.325V155.574Z" fill="white"/>
<path d="M179.269 155.574H173.323V161.52H179.269V155.574Z" fill="white"/>
<path d="M185.216 155.574H179.271V161.52H185.216V155.574Z" fill="white"/>
<path d="M66.2956 161.52H60.3496V167.465H66.2956V161.52Z" fill="white"/>
<path d="M84.1334 161.52H78.1875V167.465H84.1334V161.52Z" fill="white"/>
<path d="M96.028 161.52H90.082V167.465H96.028V161.52Z" fill="white"/>
<path d="M101.973 161.52H96.0273V167.465H101.973V161.52Z" fill="white"/>
<path d="M131.701 161.52H125.755V167.465H131.701V161.52Z" fill="white"/>
<path d="M137.648 161.52H131.702V167.465H137.648V161.52Z" fill="white"/>
<path d="M143.595 161.52H137.649V167.465H143.595V161.52Z" fill="white"/>
<path d="M149.54 161.52H143.594V167.465H149.54V161.52Z" fill="white"/>
<path d="M173.325 161.52H167.379V167.465H173.325V161.52Z" fill="white"/>
<path d="M179.269 161.52H173.323V167.465H179.269V161.52Z" fill="white"/>
<path d="M185.216 161.52H179.271V167.465H185.216V161.52Z" fill="white"/>
<path d="M191.164 161.52H185.218V167.465H191.164V161.52Z" fill="white"/>
<path d="M54.4049 167.469H48.459V173.415H54.4049V167.469Z" fill="white"/>
<path d="M60.3502 167.469H54.4043V173.415H60.3502V167.469Z" fill="white"/>
<path d="M78.1891 167.469H72.2432V173.415H78.1891V167.469Z" fill="white"/>
<path d="M84.1334 167.469H78.1875V173.415H84.1334V167.469Z" fill="white"/>
<path d="M90.0807 167.469H84.1348V173.415H90.0807V167.469Z" fill="white"/>
<path d="M125.757 167.469H119.812V173.415H125.757V167.469Z" fill="white"/>
<path d="M131.702 167.469H125.756V173.415H131.702V167.469Z" fill="white"/>
<path d="M137.648 167.469H131.702V173.415H137.648V167.469Z" fill="white"/>
<path d="M143.595 167.469H137.649V173.415H143.595V167.469Z" fill="white"/>
<path d="M149.54 167.469H143.594V173.415H149.54V167.469Z" fill="white"/>
<path d="M155.487 167.469H149.541V173.415H155.487V167.469Z" fill="white"/>
<path d="M161.431 167.469H155.485V173.415H161.431V167.469Z" fill="white"/>
<path d="M167.378 167.469H161.432V173.415H167.378V167.469Z" fill="white"/>
<path d="M173.324 167.469H167.378V173.415H173.324V167.469Z" fill="white"/>
<path d="M179.269 167.469H173.323V173.415H179.269V167.469Z" fill="white"/>
<path d="M191.164 167.469H185.218V173.415H191.164V167.469Z" fill="white"/>
<path d="M54.4049 173.414H48.459V179.36H54.4049V173.414Z" fill="white"/>
<path d="M60.3502 173.414H54.4043V179.36H60.3502V173.414Z" fill="white"/>
<path d="M72.2418 173.414H66.2959V179.36H72.2418V173.414Z" fill="white"/>
<path d="M78.1891 173.414H72.2432V179.36H78.1891V173.414Z" fill="white"/>
<path d="M84.1334 173.414H78.1875V179.36H84.1334V173.414Z" fill="white"/>
<path d="M90.0807 173.414H84.1348V179.36H90.0807V173.414Z" fill="white"/>
<path d="M96.028 173.414H90.082V179.36H96.028V173.414Z" fill="white"/>
<path d="M101.973 173.414H96.0273V179.36H101.973V173.414Z" fill="white"/>
<path d="M113.863 173.414H107.917V179.36H113.863V173.414Z" fill="white"/>
<path d="M125.757 173.414H119.812V179.36H125.757V173.414Z" fill="white"/>
<path d="M131.702 173.414H125.756V179.36H131.702V173.414Z" fill="white"/>
<path d="M137.648 173.414H131.702V179.36H137.648V173.414Z" fill="white"/>
<path d="M143.595 173.414H137.649V179.36H143.595V173.414Z" fill="white"/>
<path d="M155.487 173.414H149.541V179.36H155.487V173.414Z" fill="white"/>
<path d="M167.378 173.414H161.432V179.36H167.378V173.414Z" fill="white"/>
<path d="M191.163 173.414H185.217V179.36H191.163V173.414Z" fill="white"/>
<path d="M60.3502 179.359H54.4043V185.305H60.3502V179.359Z" fill="white"/>
<path d="M72.2418 179.359H66.2959V185.305H72.2418V179.359Z" fill="white"/>
<path d="M78.1891 179.359H72.2432V185.305H78.1891V179.359Z" fill="white"/>
<path d="M90.0807 179.359H84.1348V185.305H90.0807V179.359Z" fill="white"/>
<path d="M96.028 179.359H90.082V185.305H96.028V179.359Z" fill="white"/>
<path d="M107.919 179.359H101.973V185.305H107.919V179.359Z" fill="white"/>
<path d="M113.863 179.359H107.917V185.305H113.863V179.359Z" fill="white"/>
<path d="M137.648 179.359H131.702V185.305H137.648V179.359Z" fill="white"/>
<path d="M173.325 179.359H167.379V185.305H173.325V179.359Z" fill="white"/>
<path d="M191.164 179.359H185.218V185.305H191.164V179.359Z" fill="white"/>
<path d="M197.108 179.359H191.162V185.305H197.108V179.359Z" fill="white"/>
<path d="M78.1891 185.301H72.2432V191.247H78.1891V185.301Z" fill="white"/>
<path d="M84.1334 185.301H78.1875V191.247H84.1334V185.301Z" fill="white"/>
<path d="M90.0807 185.301H84.1348V191.247H90.0807V185.301Z" fill="white"/>
<path d="M101.973 185.301H96.0273V191.247H101.973V185.301Z" fill="white"/>
<path d="M119.811 185.301H113.865V191.247H119.811V185.301Z" fill="white"/>
<path d="M125.757 185.301H119.812V191.247H125.757V185.301Z" fill="white"/>
<path d="M131.702 185.301H125.756V191.247H131.702V185.301Z" fill="white"/>
<path d="M143.595 185.301H137.649V191.247H143.595V185.301Z" fill="white"/>
<path d="M155.487 185.301H149.541V191.247H155.487V185.301Z" fill="white"/>
<path d="M161.431 185.301H155.485V191.247H161.431V185.301Z" fill="white"/>
<path d="M179.269 185.301H173.323V191.247H179.269V185.301Z" fill="white"/>
<path d="M185.216 185.301H179.271V191.247H185.216V185.301Z" fill="white"/>
<path d="M191.164 185.301H185.218V191.247H191.164V185.301Z" fill="white"/>
<path d="M197.108 185.301H191.162V191.247H197.108V185.301Z" fill="white"/>
<path d="M60.3502 191.25H54.4043V197.196H60.3502V191.25Z" fill="white"/>
<path d="M66.2956 191.25H60.3496V197.196H66.2956V191.25Z" fill="white"/>
<path d="M72.2428 191.25H66.2969V197.196H72.2428V191.25Z" fill="white"/>
<path d="M78.1891 191.25H72.2432V197.196H78.1891V191.25Z" fill="white"/>
<path d="M84.1334 191.25H78.1875V197.196H84.1334V191.25Z" fill="white"/>
<path d="M113.863 191.25H107.917V197.196H113.863V191.25Z" fill="white"/>
<path d="M125.757 191.25H119.812V197.196H125.757V191.25Z" fill="white"/>
<path d="M131.701 191.25H125.755V197.196H131.701V191.25Z" fill="white"/>
<path d="M143.595 191.25H137.649V197.196H143.595V191.25Z" fill="white"/>
<path d="M149.54 191.25H143.594V197.196H149.54V191.25Z" fill="white"/>
<path d="M173.325 191.25H167.379V197.196H173.325V191.25Z" fill="white"/>
<path d="M36.27 0.972656H7.13484H0.891602V7.2159V36.351V42.5943H7.13484H36.27H42.5132V36.351V7.2159V0.972656H36.27ZM36.27 36.351H7.13484V7.2159H36.27V36.351Z" fill="white"/>
<path d="M190.864 0.972656H161.729H155.485V7.2159V36.351V42.5943H161.729H190.864H197.107V36.351V7.2159V0.972656H190.864ZM190.864 36.351H161.729V7.2159H190.864V36.351Z" fill="white"/>
<path d="M36.27 155.578H7.13484H0.891602V161.821V190.957V197.2H7.13484H36.27H42.5132V190.957V161.821V155.578H36.27ZM36.27 190.957H7.13484V161.821H36.27V190.957Z" fill="white"/>
<path d="M30.6191 12.8711H12.7812V30.7089H30.6191V12.8711Z" fill="white"/>
<path d="M185.217 12.8711H167.379V30.7089H185.217V12.8711Z" fill="white"/>
<path d="M30.6191 167.469H12.7812V185.307H30.6191V167.469Z" fill="white"/>
</mask>
<g mask="url(#mask0_1870_34620)">
<path d="M197.107 0.972656H0.890625V197.189H197.107V0.972656Z" fill="url(#paint0_linear_1870_34620)"/>
</g>
<g clip-path="url(#clip0_1870_34620)">
<path d="M116.077 66.4023H81.9211C73.3007 66.4023 66.3125 73.3906 66.3125 82.011V116.167C66.3125 124.787 73.3007 131.775 81.9211 131.775H116.077C124.697 131.775 131.686 124.787 131.686 116.167V82.011C131.686 73.3906 124.697 66.4023 116.077 66.4023Z" fill="#F9F9F9"/>
<path d="M114.394 108.972L109.092 104.607L96.9958 119.067H86.0039C89.2299 115.219 96.6928 106.357 96.8114 106.214L102.561 99.2286L104.287 97.1322L107.693 92.9947L114.377 84.8789L114.382 91.6291L114.385 98.1756V98.505L114.392 108.971L114.394 108.972Z" fill="url(#paint1_linear_1870_34620)"/>
<path d="M114.394 108.972L109.092 104.607L96.9958 119.067H86.0039C89.2299 115.219 96.6928 106.357 96.8114 106.214L102.561 99.2286L104.287 97.1322L107.693 92.9947L114.377 84.8789L114.382 91.6291L114.385 98.1756V98.505L114.392 108.971L114.394 108.972Z" fill="url(#paint2_linear_1870_34620)"/>
<path opacity="0.56" d="M114.395 108.971L109.093 104.606L96.997 119.066H91.707L114.385 91.6289L114.387 98.1754V98.5049L114.395 108.971Z" fill="url(#paint3_linear_1870_34620)"/>
<path d="M113.49 82.8268L107.729 89.8165C107.729 89.8165 107.728 89.8165 107.728 89.8153L107.366 90.255H95.3772L95.3245 90.2286L89.4944 87.2554C89.4944 87.2554 93.6008 91.3199 93.669 91.3918C93.7385 91.4612 93.475 91.5822 93.475 91.5822L90.6635 89.9782L92.5526 91.8673L92.1297 92.1237L92.2292 94.0571L92.301 95.4275L91.3751 97.0363H91.3739L90.8504 97.9479L91.8614 98.9913L92.6556 99.8094H95.1233C95.291 99.8286 95.9918 99.9244 96.5428 100.538C96.8303 100.856 96.9082 101.94 96.9153 102.931L94.1913 106.236L83.6246 119.051L83.6055 119.073V90.6563C83.6055 84.2822 88.7744 79.1133 95.1484 79.1133H105.006C105.12 79.1133 105.23 79.1145 105.341 79.1193C105.393 79.1193 105.444 79.1205 105.494 79.1241C105.57 79.1277 105.644 79.1301 105.72 79.136C105.747 79.136 105.774 79.1372 105.803 79.1408C105.906 79.1468 106.011 79.1552 106.113 79.166C106.124 79.166 106.132 79.1672 106.143 79.1696C106.263 79.1804 106.382 79.1947 106.5 79.2103C109.253 79.5649 111.7 80.8898 113.49 82.828V82.8268Z" fill="url(#paint4_linear_1870_34620)"/>
<path d="M113.49 82.8268L107.729 89.8165C107.729 89.8165 107.728 89.8165 107.728 89.8153L107.366 90.255H95.3772L95.3245 90.2286L89.4944 87.2554C89.4944 87.2554 93.6008 91.3199 93.669 91.3918C93.7385 91.4612 93.475 91.5822 93.475 91.5822L90.6635 89.9782L92.5526 91.8673L92.1297 92.1237L92.2292 94.0571L92.301 95.4275L91.3751 97.0363H91.3739L90.8504 97.9479L91.8614 98.9913L92.6556 99.8094H95.1233C95.291 99.8286 95.9918 99.9244 96.5428 100.538C96.8303 100.856 96.9082 101.94 96.9153 102.931L94.1913 106.236L83.6246 119.051L83.6055 119.073V90.6563C83.6055 84.2822 88.7744 79.1133 95.1484 79.1133H105.006C105.12 79.1133 105.23 79.1145 105.341 79.1193C105.393 79.1193 105.444 79.1205 105.494 79.1241C105.57 79.1277 105.644 79.1301 105.72 79.136C105.747 79.136 105.774 79.1372 105.803 79.1408C105.906 79.1468 106.011 79.1552 106.113 79.166C106.124 79.166 106.132 79.1672 106.143 79.1696C106.263 79.1804 106.382 79.1947 106.5 79.2103C109.253 79.5649 111.7 80.8898 113.49 82.828V82.8268Z" fill="url(#paint5_linear_1870_34620)"/>
<path d="M95.3245 90.2274L89.4943 87.2542C89.4943 87.2542 93.6008 91.3187 93.669 91.3906C93.7385 91.46 93.475 91.581 93.475 91.581L90.6635 89.977L92.5526 91.8661L92.1297 92.1225L92.2292 94.0559L83.6055 104.728V90.6563C83.6055 84.2822 88.7744 79.1133 95.1484 79.1133H104.304L95.3233 90.2274H95.3245Z" fill="url(#paint6_linear_1870_34620)"/>
</g>
<defs>
<linearGradient id="paint0_linear_1870_34620" x1="173.104" y1="-13.8131" x2="0.890624" y2="197.189" gradientUnits="userSpaceOnUse">
<stop offset="0.05" stop-color="#3EDC81"/>
<stop offset="1" stop-color="#0277BD"/>
</linearGradient>
<linearGradient id="paint1_linear_1870_34620" x1="115.614" y1="88.4906" x2="95.9752" y2="121.014" gradientUnits="userSpaceOnUse">
<stop stop-color="#114FEE"/>
<stop offset="1" stop-color="#15B0F8"/>
</linearGradient>
<linearGradient id="paint2_linear_1870_34620" x1="134.479" y1="79.6872" x2="96.1238" y2="112.594" gradientUnits="userSpaceOnUse">
<stop stop-color="#020C6A"/>
<stop offset="1" stop-color="#15B0F8" stop-opacity="0"/>
</linearGradient>
<linearGradient id="paint3_linear_1870_34620" x1="106.003" y1="83.1657" x2="102.782" y2="116.832" gradientUnits="userSpaceOnUse">
<stop stop-color="#BFE6ED"/>
<stop offset="1" stop-color="white" stop-opacity="0"/>
</linearGradient>
<linearGradient id="paint4_linear_1870_34620" x1="87.1992" y1="113.041" x2="99.6993" y2="82.8052" gradientUnits="userSpaceOnUse">
<stop stop-color="#0276DB"/>
<stop offset="1" stop-color="#3EDC81"/>
</linearGradient>
<linearGradient id="paint5_linear_1870_34620" x1="87.1992" y1="113.041" x2="99.6993" y2="82.8052" gradientUnits="userSpaceOnUse">
<stop stop-color="#0276DB"/>
<stop offset="1" stop-color="#3EDC81"/>
</linearGradient>
<linearGradient id="paint6_linear_1870_34620" x1="99.268" y1="76.164" x2="81.9595" y2="98.0365" gradientUnits="userSpaceOnUse">
<stop offset="0.03" stop-color="#5EFCA1"/>
<stop offset="1" stop-color="#5EFCA1" stop-opacity="0"/>
</linearGradient>
<clipPath id="clip0_1870_34620">
<rect width="65.4054" height="65.4054" fill="white" transform="translate(66.2969 66.3867)"/>
</clipPath>
</defs>
</svg>
