<svg width="170" height="170" viewBox="0 0 170 170" fill="none" xmlns="http://www.w3.org/2000/svg">
<mask id="mask0_1348_76059" style="mask-type:luminance" maskUnits="userSpaceOnUse" x="0" y="0" width="170" height="170">
<path d="M51.6195 0.270508H46.4844V5.40564H51.6195V0.270508Z" fill="white"/>
<path d="M61.889 0.270508H56.7539V5.40564H61.889V0.270508Z" fill="white"/>
<path d="M92.7017 0.270508H87.5666V5.40564H92.7017V0.270508Z" fill="white"/>
<path d="M97.8383 0.270508H92.7031V5.40564H97.8383V0.270508Z" fill="white"/>
<path d="M102.971 0.270508H97.8359V5.40564H102.971V0.270508Z" fill="white"/>
<path d="M113.241 0.270508H108.105V5.40564H113.241V0.270508Z" fill="white"/>
<path d="M118.377 0.270508H113.242V5.40564H118.377V0.270508Z" fill="white"/>
<path d="M128.647 0.270508H123.512V5.40564H128.647V0.270508Z" fill="white"/>
<path d="M51.6195 5.40576H46.4844V10.5409H51.6195V5.40576Z" fill="white"/>
<path d="M56.7562 5.40576H51.6211V10.5409H56.7562V5.40576Z" fill="white"/>
<path d="M72.1625 5.40576H67.0273V10.5409H72.1625V5.40576Z" fill="white"/>
<path d="M77.2953 5.40576H72.1602V10.5409H77.2953V5.40576Z" fill="white"/>
<path d="M82.432 5.40576H77.2969V10.5409H82.432V5.40576Z" fill="white"/>
<path d="M108.108 5.40576H102.973V10.5409H108.108V5.40576Z" fill="white"/>
<path d="M113.241 5.40576H108.105V10.5409H113.241V5.40576Z" fill="white"/>
<path d="M128.647 5.40576H123.512V10.5409H128.647V5.40576Z" fill="white"/>
<path d="M46.4867 10.541H41.3516V15.6762H46.4867V10.541Z" fill="white"/>
<path d="M51.6195 10.541H46.4844V15.6762H51.6195V10.541Z" fill="white"/>
<path d="M56.7562 10.541H51.6211V15.6762H56.7562V10.541Z" fill="white"/>
<path d="M61.889 10.541H56.7539V15.6762H61.889V10.541Z" fill="white"/>
<path d="M82.432 10.541H77.2969V15.6762H82.432V10.541Z" fill="white"/>
<path d="M97.8383 10.541H92.7031V15.6762H97.8383V10.541Z" fill="white"/>
<path d="M102.971 10.541H97.8359V15.6762H102.971V10.541Z" fill="white"/>
<path d="M113.241 10.541H108.105V15.6762H113.241V10.541Z" fill="white"/>
<path d="M123.514 10.541H118.379V15.6762H123.514V10.541Z" fill="white"/>
<path d="M128.647 10.541H123.512V15.6762H128.647V10.541Z" fill="white"/>
<path d="M46.4867 15.6758H41.3516V20.8109H46.4867V15.6758Z" fill="white"/>
<path d="M51.6195 15.6758H46.4844V20.8109H51.6195V15.6758Z" fill="white"/>
<path d="M72.1625 15.6758H67.0273V20.8109H72.1625V15.6758Z" fill="white"/>
<path d="M77.2953 15.6758H72.1602V20.8109H77.2953V15.6758Z" fill="white"/>
<path d="M87.5648 15.6758H82.4297V20.8109H87.5648V15.6758Z" fill="white"/>
<path d="M92.7017 15.6758H87.5666V20.8109H92.7017V15.6758Z" fill="white"/>
<path d="M97.8383 15.6758H92.7031V20.8109H97.8383V15.6758Z" fill="white"/>
<path d="M102.971 15.6758H97.8359V20.8109H102.971V15.6758Z" fill="white"/>
<path d="M108.108 15.6758H102.973V20.8109H108.108V15.6758Z" fill="white"/>
<path d="M113.241 15.6758H108.105V20.8109H113.241V15.6758Z" fill="white"/>
<path d="M123.514 15.6758H118.379V20.8109H123.514V15.6758Z" fill="white"/>
<path d="M128.647 15.6758H123.512V20.8109H128.647V15.6758Z" fill="white"/>
<path d="M67.0258 20.811H61.8906V25.9462H67.0258V20.811Z" fill="white"/>
<path d="M72.1625 20.811H67.0273V25.9462H72.1625V20.811Z" fill="white"/>
<path d="M77.2953 20.811H72.1602V25.9462H77.2953V20.811Z" fill="white"/>
<path d="M87.5648 20.811H82.4297V25.9462H87.5648V20.811Z" fill="white"/>
<path d="M97.8383 20.811H92.7031V25.9462H97.8383V20.811Z" fill="white"/>
<path d="M108.108 20.811H102.973V25.9462H108.108V20.811Z" fill="white"/>
<path d="M113.241 20.811H108.105V25.9462H113.241V20.811Z" fill="white"/>
<path d="M123.514 20.811H118.379V25.9462H123.514V20.811Z" fill="white"/>
<path d="M61.889 25.9463H56.7539V31.0814H61.889V25.9463Z" fill="white"/>
<path d="M72.1625 25.9463H67.0273V31.0814H72.1625V25.9463Z" fill="white"/>
<path d="M77.2953 25.9463H72.1602V31.0814H77.2953V25.9463Z" fill="white"/>
<path d="M87.5648 25.9463H82.4297V31.0814H87.5648V25.9463Z" fill="white"/>
<path d="M108.108 25.9463H102.973V31.0814H108.108V25.9463Z" fill="white"/>
<path d="M128.647 25.9463H123.512V31.0814H128.647V25.9463Z" fill="white"/>
<path d="M46.4867 31.0811H41.3516V36.2162H46.4867V31.0811Z" fill="white"/>
<path d="M56.7562 31.0815H51.6211V36.2167H56.7562V31.0815Z" fill="white"/>
<path d="M67.0258 31.0815H61.8906V36.2167H67.0258V31.0815Z" fill="white"/>
<path d="M77.2953 31.0811H72.1602V36.2162H77.2953V31.0811Z" fill="white"/>
<path d="M87.5648 31.0811H82.4297V36.2162H87.5648V31.0811Z" fill="white"/>
<path d="M97.8383 31.0815H92.7031V36.2167H97.8383V31.0815Z" fill="white"/>
<path d="M108.108 31.0815H102.973V36.2167H108.108V31.0815Z" fill="white"/>
<path d="M118.377 31.0815H113.242V36.2167H118.377V31.0815Z" fill="white"/>
<path d="M128.647 31.0811H123.512V36.2162H128.647V31.0811Z" fill="white"/>
<path d="M56.7562 36.2163H51.6211V41.3514H56.7562V36.2163Z" fill="white"/>
<path d="M82.432 36.2163H77.2969V41.3514H82.432V36.2163Z" fill="white"/>
<path d="M87.5648 36.2163H82.4297V41.3514H87.5648V36.2163Z" fill="white"/>
<path d="M118.377 36.2163H113.242V41.3514H118.377V36.2163Z" fill="white"/>
<path d="M123.514 36.2163H118.379V41.3514H123.514V36.2163Z" fill="white"/>
<path d="M20.8109 41.3516H15.6758V46.4867H20.8109V41.3516Z" fill="white"/>
<path d="M25.9437 41.3516H20.8086V46.4867H25.9437V41.3516Z" fill="white"/>
<path d="M36.2172 41.3516H31.082V46.4867H36.2172V41.3516Z" fill="white"/>
<path d="M41.35 41.3516H36.2148V46.4867H41.35V41.3516Z" fill="white"/>
<path d="M61.889 41.3516H56.7539V46.4867H61.889V41.3516Z" fill="white"/>
<path d="M67.0258 41.3516H61.8906V46.4867H67.0258V41.3516Z" fill="white"/>
<path d="M72.1625 41.3516H67.0273V46.4867H72.1625V41.3516Z" fill="white"/>
<path d="M77.2953 41.3516H72.1602V46.4867H77.2953V41.3516Z" fill="white"/>
<path d="M82.432 41.3516H77.2969V46.4867H82.432V41.3516Z" fill="white"/>
<path d="M87.5648 41.3516H82.4297V46.4867H87.5648V41.3516Z" fill="white"/>
<path d="M97.8383 41.3516H92.7031V46.4867H97.8383V41.3516Z" fill="white"/>
<path d="M108.108 41.3516H102.973V46.4867H108.108V41.3516Z" fill="white"/>
<path d="M123.514 41.3516H118.379V46.4867H123.514V41.3516Z" fill="white"/>
<path d="M128.647 41.3516H123.512V46.4867H128.647V41.3516Z" fill="white"/>
<path d="M154.323 41.3516H149.188V46.4867H154.323V41.3516Z" fill="white"/>
<path d="M159.459 41.3516H154.324V46.4867H159.459V41.3516Z" fill="white"/>
<path d="M10.5414 46.4868H5.40625V51.622H10.5414V46.4868Z" fill="white"/>
<path d="M25.9437 46.4868H20.8086V51.622H25.9437V46.4868Z" fill="white"/>
<path d="M31.0804 46.4868H25.9453V51.622H31.0804V46.4868Z" fill="white"/>
<path d="M46.4867 46.4868H41.3516V51.622H46.4867V46.4868Z" fill="white"/>
<path d="M67.0258 46.4868H61.8906V51.622H67.0258V46.4868Z" fill="white"/>
<path d="M72.1625 46.4868H67.0273V51.622H72.1625V46.4868Z" fill="white"/>
<path d="M77.2953 46.4868H72.1602V51.622H77.2953V46.4868Z" fill="white"/>
<path d="M87.5648 46.4868H82.4297V51.622H87.5648V46.4868Z" fill="white"/>
<path d="M97.8383 46.4868H92.7031V51.622H97.8383V46.4868Z" fill="white"/>
<path d="M123.514 46.4868H118.379V51.622H123.514V46.4868Z" fill="white"/>
<path d="M133.784 46.4868H128.648V51.622H133.784V46.4868Z" fill="white"/>
<path d="M144.053 46.4868H138.918V51.622H144.053V46.4868Z" fill="white"/>
<path d="M149.19 46.4868H144.055V51.622H149.19V46.4868Z" fill="white"/>
<path d="M154.323 46.4868H149.188V51.622H154.323V46.4868Z" fill="white"/>
<path d="M159.459 46.4868H154.324V51.622H159.459V46.4868Z" fill="white"/>
<path d="M164.596 46.4868H159.461V51.622H164.596V46.4868Z" fill="white"/>
<path d="M5.40442 51.6221H0.269287V56.7572H5.40442V51.6221Z" fill="white"/>
<path d="M25.9437 51.6221H20.8086V56.7572H25.9437V51.6221Z" fill="white"/>
<path d="M36.2172 51.6221H31.082V56.7572H36.2172V51.6221Z" fill="white"/>
<path d="M61.889 51.6221H56.7539V56.7572H61.889V51.6221Z" fill="white"/>
<path d="M67.0258 51.6221H61.8906V56.7572H67.0258V51.6221Z" fill="white"/>
<path d="M82.432 51.6221H77.2969V56.7572H82.432V51.6221Z" fill="white"/>
<path d="M97.8383 51.6221H92.7031V56.7572H97.8383V51.6221Z" fill="white"/>
<path d="M113.241 51.6221H108.105V56.7572H113.241V51.6221Z" fill="white"/>
<path d="M123.514 51.6221H118.379V56.7572H123.514V51.6221Z" fill="white"/>
<path d="M133.784 51.6221H128.648V56.7572H133.784V51.6221Z" fill="white"/>
<path d="M144.053 51.6221H138.918V56.7572H144.053V51.6221Z" fill="white"/>
<path d="M159.459 51.6221H154.324V56.7572H159.459V51.6221Z" fill="white"/>
<path d="M164.596 51.6221H159.461V56.7572H164.596V51.6221Z" fill="white"/>
<path d="M169.729 51.6221H164.594V56.7572H169.729V51.6221Z" fill="white"/>
<path d="M10.5414 56.7568H5.40625V61.892H10.5414V56.7568Z" fill="white"/>
<path d="M15.6742 56.7573H10.5391V61.8925H15.6742V56.7573Z" fill="white"/>
<path d="M25.9437 56.7568H20.8086V61.892H25.9437V56.7568Z" fill="white"/>
<path d="M51.6195 56.7568H46.4844V61.892H51.6195V56.7568Z" fill="white"/>
<path d="M56.7562 56.7573H51.6211V61.8925H56.7562V56.7573Z" fill="white"/>
<path d="M67.0258 56.7568H61.8906V61.892H67.0258V56.7568Z" fill="white"/>
<path d="M72.1625 56.7568H67.0273V61.892H72.1625V56.7568Z" fill="white"/>
<path d="M92.7017 56.7568H87.5666V61.892H92.7017V56.7568Z" fill="white"/>
<path d="M102.971 56.7568H97.8359V61.892H102.971V56.7568Z" fill="white"/>
<path d="M128.647 56.7568H123.512V61.892H128.647V56.7568Z" fill="white"/>
<path d="M138.916 56.7573H133.781V61.8925H138.916V56.7573Z" fill="white"/>
<path d="M144.053 56.7568H138.918V61.892H144.053V56.7568Z" fill="white"/>
<path d="M149.19 56.7573H144.055V61.8925H149.19V56.7573Z" fill="white"/>
<path d="M154.323 56.7573H149.188V61.8925H154.323V56.7573Z" fill="white"/>
<path d="M159.459 56.7568H154.324V61.892H159.459V56.7568Z" fill="white"/>
<path d="M164.596 56.7568H159.461V61.892H164.596V56.7568Z" fill="white"/>
<path d="M169.729 56.7568H164.594V61.892H169.729V56.7568Z" fill="white"/>
<path d="M20.8109 61.8921H15.6758V67.0272H20.8109V61.8921Z" fill="white"/>
<path d="M25.9437 61.8921H20.8086V67.0272H25.9437V61.8921Z" fill="white"/>
<path d="M36.2172 61.8921H31.082V67.0272H36.2172V61.8921Z" fill="white"/>
<path d="M41.35 61.8921H36.2148V67.0272H41.35V61.8921Z" fill="white"/>
<path d="M46.4867 61.8921H41.3516V67.0272H46.4867V61.8921Z" fill="white"/>
<path d="M77.2953 61.8921H72.1602V67.0272H77.2953V61.8921Z" fill="white"/>
<path d="M87.5648 61.8921H82.4297V67.0272H87.5648V61.8921Z" fill="white"/>
<path d="M97.8383 61.8926H92.7031V67.0277H97.8383V61.8926Z" fill="white"/>
<path d="M102.971 61.8921H97.8359V67.0272H102.971V61.8921Z" fill="white"/>
<path d="M108.108 61.8921H102.973V67.0272H108.108V61.8921Z" fill="white"/>
<path d="M113.241 61.8921H108.105V67.0272H113.241V61.8921Z" fill="white"/>
<path d="M118.377 61.8921H113.242V67.0272H118.377V61.8921Z" fill="white"/>
<path d="M128.647 61.8921H123.512V67.0272H128.647V61.8921Z" fill="white"/>
<path d="M138.916 61.8926H133.781V67.0277H138.916V61.8926Z" fill="white"/>
<path d="M144.053 61.8921H138.918V67.0272H144.053V61.8921Z" fill="white"/>
<path d="M149.19 61.8926H144.055V67.0277H149.19V61.8926Z" fill="white"/>
<path d="M154.323 61.8926H149.188V67.0277H154.323V61.8926Z" fill="white"/>
<path d="M169.729 61.8921H164.594V67.0272H169.729V61.8921Z" fill="white"/>
<path d="M5.40442 67.0273H0.269287V72.1625H5.40442V67.0273Z" fill="white"/>
<path d="M10.5414 67.0273H5.40625V72.1625H10.5414V67.0273Z" fill="white"/>
<path d="M20.8109 67.0273H15.6758V72.1625H20.8109V67.0273Z" fill="white"/>
<path d="M61.889 67.0273H56.7539V72.1625H61.889V67.0273Z" fill="white"/>
<path d="M82.432 67.0273H77.2969V72.1625H82.432V67.0273Z" fill="white"/>
<path d="M87.5648 67.0273H82.4297V72.1625H87.5648V67.0273Z" fill="white"/>
<path d="M92.7017 67.0273H87.5666V72.1625H92.7017V67.0273Z" fill="white"/>
<path d="M102.971 67.0273H97.8359V72.1625H102.971V67.0273Z" fill="white"/>
<path d="M113.241 67.0273H108.105V72.1625H113.241V67.0273Z" fill="white"/>
<path d="M118.377 67.0273H113.242V72.1625H118.377V67.0273Z" fill="white"/>
<path d="M123.514 67.0273H118.379V72.1625H123.514V67.0273Z" fill="white"/>
<path d="M159.459 67.0273H154.324V72.1625H159.459V67.0273Z" fill="white"/>
<path d="M164.596 67.0273H159.461V72.1625H164.596V67.0273Z" fill="white"/>
<path d="M10.5414 72.1621H5.40625V77.2972H10.5414V72.1621Z" fill="white"/>
<path d="M15.6742 72.1626H10.5391V77.2977H15.6742V72.1626Z" fill="white"/>
<path d="M20.8109 72.1621H15.6758V77.2972H20.8109V72.1621Z" fill="white"/>
<path d="M25.9437 72.1626H20.8086V77.2977H25.9437V72.1626Z" fill="white"/>
<path d="M36.2172 72.1621H31.082V77.2972H36.2172V72.1621Z" fill="white"/>
<path d="M41.35 72.1626H36.2148V77.2977H41.35V72.1626Z" fill="white"/>
<path d="M61.889 72.1621H56.7539V77.2972H61.889V72.1621Z" fill="white"/>
<path d="M67.0258 72.1626H61.8906V77.2977H67.0258V72.1626Z" fill="white"/>
<path d="M97.8383 72.1626H92.7031V77.2977H97.8383V72.1626Z" fill="white"/>
<path d="M108.108 72.1626H102.973V77.2977H108.108V72.1626Z" fill="white"/>
<path d="M128.647 72.1621H123.512V77.2972H128.647V72.1621Z" fill="white"/>
<path d="M138.916 72.1626H133.781V77.2977H138.916V72.1626Z" fill="white"/>
<path d="M149.19 72.1626H144.055V77.2977H149.19V72.1626Z" fill="white"/>
<path d="M154.323 72.1626H149.188V77.2977H154.323V72.1626Z" fill="white"/>
<path d="M10.5414 77.2974H5.40625V82.4325H10.5414V77.2974Z" fill="white"/>
<path d="M15.6742 77.2979H10.5391V82.433H15.6742V77.2979Z" fill="white"/>
<path d="M20.8109 77.2974H15.6758V82.4325H20.8109V77.2974Z" fill="white"/>
<path d="M31.0804 77.2979H25.9453V82.433H31.0804V77.2979Z" fill="white"/>
<path d="M72.1625 77.2979H67.0273V82.433H72.1625V77.2979Z" fill="white"/>
<path d="M77.2953 77.2974H72.1602V82.4325H77.2953V77.2974Z" fill="white"/>
<path d="M87.5648 77.2974H82.4297V82.4325H87.5648V77.2974Z" fill="white"/>
<path d="M92.7017 77.2974H87.5666V82.4325H92.7017V77.2974Z" fill="white"/>
<path d="M102.971 77.2974H97.8359V82.4325H102.971V77.2974Z" fill="white"/>
<path d="M123.514 77.2979H118.379V82.433H123.514V77.2979Z" fill="white"/>
<path d="M128.647 77.2974H123.512V82.4325H128.647V77.2974Z" fill="white"/>
<path d="M133.784 77.2979H128.648V82.433H133.784V77.2979Z" fill="white"/>
<path d="M144.053 77.2979H138.918V82.433H144.053V77.2979Z" fill="white"/>
<path d="M154.323 77.2979H149.188V82.433H154.323V77.2979Z" fill="white"/>
<path d="M159.459 77.2979H154.324V82.433H159.459V77.2979Z" fill="white"/>
<path d="M164.596 77.2979H159.461V82.433H164.596V77.2979Z" fill="white"/>
<path d="M169.729 77.2979H164.594V82.433H169.729V77.2979Z" fill="white"/>
<path d="M5.40442 82.4326H0.269287V87.5678H5.40442V82.4326Z" fill="white"/>
<path d="M10.5414 82.4326H5.40625V87.5678H10.5414V82.4326Z" fill="white"/>
<path d="M25.9437 82.4326H20.8086V87.5678H25.9437V82.4326Z" fill="white"/>
<path d="M36.2172 82.4326H31.082V87.5678H36.2172V82.4326Z" fill="white"/>
<path d="M41.35 82.4326H36.2148V87.5678H41.35V82.4326Z" fill="white"/>
<path d="M51.6195 82.4326H46.4844V87.5678H51.6195V82.4326Z" fill="white"/>
<path d="M56.7562 82.4326H51.6211V87.5678H56.7562V82.4326Z" fill="white"/>
<path d="M72.1625 82.4326H67.0273V87.5678H72.1625V82.4326Z" fill="white"/>
<path d="M87.5648 82.4326H82.4297V87.5678H87.5648V82.4326Z" fill="white"/>
<path d="M97.8383 82.4326H92.7031V87.5678H97.8383V82.4326Z" fill="white"/>
<path d="M102.971 82.4326H97.8359V87.5678H102.971V82.4326Z" fill="white"/>
<path d="M123.514 82.4326H118.379V87.5678H123.514V82.4326Z" fill="white"/>
<path d="M133.784 82.4326H128.648V87.5678H133.784V82.4326Z" fill="white"/>
<path d="M138.916 82.4326H133.781V87.5678H138.916V82.4326Z" fill="white"/>
<path d="M144.053 82.4326H138.918V87.5678H144.053V82.4326Z" fill="white"/>
<path d="M149.19 82.4326H144.055V87.5678H149.19V82.4326Z" fill="white"/>
<path d="M154.323 82.4326H149.188V87.5678H154.323V82.4326Z" fill="white"/>
<path d="M164.596 82.4326H159.461V87.5678H164.596V82.4326Z" fill="white"/>
<path d="M5.40442 87.5679H0.269287V92.703H5.40442V87.5679Z" fill="white"/>
<path d="M20.8109 87.5679H15.6758V92.703H20.8109V87.5679Z" fill="white"/>
<path d="M31.0804 87.5674H25.9453V92.7025H31.0804V87.5674Z" fill="white"/>
<path d="M46.4867 87.5679H41.3516V92.703H46.4867V87.5679Z" fill="white"/>
<path d="M51.6195 87.5679H46.4844V92.703H51.6195V87.5679Z" fill="white"/>
<path d="M61.889 87.5679H56.7539V92.703H61.889V87.5679Z" fill="white"/>
<path d="M67.0258 87.5674H61.8906V92.7025H67.0258V87.5674Z" fill="white"/>
<path d="M77.2953 87.5679H72.1602V92.703H77.2953V87.5679Z" fill="white"/>
<path d="M92.7017 87.5679H87.5666V92.703H92.7017V87.5679Z" fill="white"/>
<path d="M97.8383 87.5674H92.7031V92.7025H97.8383V87.5674Z" fill="white"/>
<path d="M108.108 87.5679H102.973V92.703H108.108V87.5679Z" fill="white"/>
<path d="M113.241 87.5674H108.105V92.7025H113.241V87.5674Z" fill="white"/>
<path d="M118.377 87.5679H113.242V92.703H118.377V87.5679Z" fill="white"/>
<path d="M128.647 87.5679H123.512V92.703H128.647V87.5679Z" fill="white"/>
<path d="M138.916 87.5674H133.781V92.7025H138.916V87.5674Z" fill="white"/>
<path d="M144.053 87.5679H138.918V92.703H144.053V87.5679Z" fill="white"/>
<path d="M149.19 87.5674H144.055V92.7025H149.19V87.5674Z" fill="white"/>
<path d="M154.323 87.5674H149.188V92.7025H154.323V87.5674Z" fill="white"/>
<path d="M169.729 87.5679H164.594V92.703H169.729V87.5679Z" fill="white"/>
<path d="M10.5414 92.7031H5.40625V97.8383H10.5414V92.7031Z" fill="white"/>
<path d="M20.8109 92.7031H15.6758V97.8383H20.8109V92.7031Z" fill="white"/>
<path d="M25.9437 92.7031H20.8086V97.8383H25.9437V92.7031Z" fill="white"/>
<path d="M31.0804 92.7031H25.9453V97.8383H31.0804V92.7031Z" fill="white"/>
<path d="M36.2172 92.7031H31.082V97.8383H36.2172V92.7031Z" fill="white"/>
<path d="M41.35 92.7031H36.2148V97.8383H41.35V92.7031Z" fill="white"/>
<path d="M51.6195 92.7031H46.4844V97.8383H51.6195V92.7031Z" fill="white"/>
<path d="M61.889 92.7031H56.7539V97.8383H61.889V92.7031Z" fill="white"/>
<path d="M72.1625 92.7031H67.0273V97.8383H72.1625V92.7031Z" fill="white"/>
<path d="M82.432 92.7031H77.2969V97.8383H82.432V92.7031Z" fill="white"/>
<path d="M92.7017 92.7031H87.5666V97.8383H92.7017V92.7031Z" fill="white"/>
<path d="M108.108 92.7026H102.973V97.8378H108.108V92.7026Z" fill="white"/>
<path d="M123.514 92.7031H118.379V97.8383H123.514V92.7031Z" fill="white"/>
<path d="M149.19 92.7031H144.055V97.8383H149.19V92.7031Z" fill="white"/>
<path d="M154.323 92.7031H149.188V97.8383H154.323V92.7031Z" fill="white"/>
<path d="M159.459 92.7031H154.324V97.8383H159.459V92.7031Z" fill="white"/>
<path d="M169.729 92.7031H164.594V97.8383H169.729V92.7031Z" fill="white"/>
<path d="M5.40442 97.8379H0.269287V102.973H5.40442V97.8379Z" fill="white"/>
<path d="M10.5414 97.8379H5.40625V102.973H10.5414V97.8379Z" fill="white"/>
<path d="M20.8109 97.8379H15.6758V102.973H20.8109V97.8379Z" fill="white"/>
<path d="M31.0804 97.8379H25.9453V102.973H31.0804V97.8379Z" fill="white"/>
<path d="M41.35 97.8379H36.2148V102.973H41.35V97.8379Z" fill="white"/>
<path d="M51.6195 97.8379H46.4844V102.973H51.6195V97.8379Z" fill="white"/>
<path d="M61.889 97.8379H56.7539V102.973H61.889V97.8379Z" fill="white"/>
<path d="M67.0258 97.8379H61.8906V102.973H67.0258V97.8379Z" fill="white"/>
<path d="M72.1625 97.8379H67.0273V102.973H72.1625V97.8379Z" fill="white"/>
<path d="M82.432 97.8379H77.2969V102.973H82.432V97.8379Z" fill="white"/>
<path d="M92.7017 97.8379H87.5666V102.973H92.7017V97.8379Z" fill="white"/>
<path d="M102.971 97.8379H97.8359V102.973H102.971V97.8379Z" fill="white"/>
<path d="M118.377 97.8379H113.242V102.973H118.377V97.8379Z" fill="white"/>
<path d="M123.514 97.8379H118.379V102.973H123.514V97.8379Z" fill="white"/>
<path d="M128.647 97.8379H123.512V102.973H128.647V97.8379Z" fill="white"/>
<path d="M133.784 97.8379H128.648V102.973H133.784V97.8379Z" fill="white"/>
<path d="M144.053 97.8379H138.918V102.973H144.053V97.8379Z" fill="white"/>
<path d="M149.19 97.8379H144.055V102.973H149.19V97.8379Z" fill="white"/>
<path d="M154.323 97.8379H149.188V102.973H154.323V97.8379Z" fill="white"/>
<path d="M159.459 97.8379H154.324V102.973H159.459V97.8379Z" fill="white"/>
<path d="M164.596 97.8379H159.461V102.973H164.596V97.8379Z" fill="white"/>
<path d="M10.5414 102.973H5.40625V108.108H10.5414V102.973Z" fill="white"/>
<path d="M20.8109 102.973H15.6758V108.108H20.8109V102.973Z" fill="white"/>
<path d="M36.2172 102.973H31.082V108.108H36.2172V102.973Z" fill="white"/>
<path d="M41.35 102.973H36.2148V108.108H41.35V102.973Z" fill="white"/>
<path d="M51.6195 102.973H46.4844V108.108H51.6195V102.973Z" fill="white"/>
<path d="M56.7562 102.973H51.6211V108.108H56.7562V102.973Z" fill="white"/>
<path d="M67.0258 102.973H61.8906V108.108H67.0258V102.973Z" fill="white"/>
<path d="M72.1625 102.973H67.0273V108.108H72.1625V102.973Z" fill="white"/>
<path d="M77.2953 102.973H72.1602V108.108H77.2953V102.973Z" fill="white"/>
<path d="M82.432 102.973H77.2969V108.108H82.432V102.973Z" fill="white"/>
<path d="M102.971 102.973H97.8359V108.108H102.971V102.973Z" fill="white"/>
<path d="M108.108 102.973H102.973V108.108H108.108V102.973Z" fill="white"/>
<path d="M138.916 102.973H133.781V108.108H138.916V102.973Z" fill="white"/>
<path d="M144.053 102.973H138.918V108.108H144.053V102.973Z" fill="white"/>
<path d="M154.323 102.973H149.188V108.108H154.323V102.973Z" fill="white"/>
<path d="M169.729 102.973H164.594V108.108H169.729V102.973Z" fill="white"/>
<path d="M5.40442 108.108H0.269287V113.244H5.40442V108.108Z" fill="white"/>
<path d="M10.5414 108.108H5.40625V113.244H10.5414V108.108Z" fill="white"/>
<path d="M25.9437 108.108H20.8086V113.244H25.9437V108.108Z" fill="white"/>
<path d="M41.35 108.108H36.2148V113.244H41.35V108.108Z" fill="white"/>
<path d="M67.0258 108.108H61.8906V113.244H67.0258V108.108Z" fill="white"/>
<path d="M82.432 108.108H77.2969V113.244H82.432V108.108Z" fill="white"/>
<path d="M92.7017 108.108H87.5666V113.244H92.7017V108.108Z" fill="white"/>
<path d="M97.8383 108.108H92.7031V113.244H97.8383V108.108Z" fill="white"/>
<path d="M102.971 108.108H97.8359V113.244H102.971V108.108Z" fill="white"/>
<path d="M108.108 108.108H102.973V113.244H108.108V108.108Z" fill="white"/>
<path d="M113.241 108.108H108.105V113.244H113.241V108.108Z" fill="white"/>
<path d="M118.377 108.108H113.242V113.244H118.377V108.108Z" fill="white"/>
<path d="M128.647 108.108H123.512V113.244H128.647V108.108Z" fill="white"/>
<path d="M138.916 108.108H133.781V113.244H138.916V108.108Z" fill="white"/>
<path d="M149.19 108.108H144.055V113.244H149.19V108.108Z" fill="white"/>
<path d="M154.323 108.108H149.188V113.244H154.323V108.108Z" fill="white"/>
<path d="M159.459 108.108H154.324V113.244H159.459V108.108Z" fill="white"/>
<path d="M5.40442 113.244H0.269287V118.379H5.40442V113.244Z" fill="white"/>
<path d="M20.8109 113.244H15.6758V118.379H20.8109V113.244Z" fill="white"/>
<path d="M25.9437 113.243H20.8086V118.378H25.9437V113.243Z" fill="white"/>
<path d="M31.0804 113.243H25.9453V118.378H31.0804V113.243Z" fill="white"/>
<path d="M36.2172 113.244H31.082V118.379H36.2172V113.244Z" fill="white"/>
<path d="M41.35 113.243H36.2148V118.378H41.35V113.243Z" fill="white"/>
<path d="M51.6195 113.244H46.4844V118.379H51.6195V113.244Z" fill="white"/>
<path d="M56.7562 113.243H51.6211V118.378H56.7562V113.243Z" fill="white"/>
<path d="M61.889 113.244H56.7539V118.379H61.889V113.244Z" fill="white"/>
<path d="M67.0258 113.243H61.8906V118.378H67.0258V113.243Z" fill="white"/>
<path d="M77.2953 113.244H72.1602V118.379H77.2953V113.244Z" fill="white"/>
<path d="M82.432 113.243H77.2969V118.378H82.432V113.243Z" fill="white"/>
<path d="M92.7017 113.244H87.5666V118.379H92.7017V113.244Z" fill="white"/>
<path d="M97.8383 113.243H92.7031V118.378H97.8383V113.243Z" fill="white"/>
<path d="M102.971 113.244H97.8359V118.379H102.971V113.244Z" fill="white"/>
<path d="M113.241 113.243H108.105V118.378H113.241V113.243Z" fill="white"/>
<path d="M123.514 113.243H118.379V118.378H123.514V113.243Z" fill="white"/>
<path d="M138.916 113.243H133.781V118.378H138.916V113.243Z" fill="white"/>
<path d="M149.19 113.243H144.055V118.378H149.19V113.243Z" fill="white"/>
<path d="M164.596 113.243H159.461V118.378H164.596V113.243Z" fill="white"/>
<path d="M169.729 113.243H164.594V118.378H169.729V113.243Z" fill="white"/>
<path d="M5.40442 118.378H0.269287V123.514H5.40442V118.378Z" fill="white"/>
<path d="M15.6742 118.379H10.5391V123.514H15.6742V118.379Z" fill="white"/>
<path d="M20.8109 118.379H15.6758V123.514H20.8109V118.379Z" fill="white"/>
<path d="M51.6195 118.379H46.4844V123.514H51.6195V118.379Z" fill="white"/>
<path d="M61.889 118.379H56.7539V123.514H61.889V118.379Z" fill="white"/>
<path d="M82.432 118.379H77.2969V123.514H82.432V118.379Z" fill="white"/>
<path d="M87.5648 118.379H82.4297V123.514H87.5648V118.379Z" fill="white"/>
<path d="M92.7017 118.378H87.5666V123.514H92.7017V118.378Z" fill="white"/>
<path d="M102.971 118.379H97.8359V123.514H102.971V118.379Z" fill="white"/>
<path d="M108.108 118.378H102.973V123.514H108.108V118.378Z" fill="white"/>
<path d="M123.514 118.379H118.379V123.514H123.514V118.379Z" fill="white"/>
<path d="M128.647 118.379H123.512V123.514H128.647V118.379Z" fill="white"/>
<path d="M144.053 118.379H138.918V123.514H144.053V118.379Z" fill="white"/>
<path d="M149.19 118.379H144.055V123.514H149.19V118.379Z" fill="white"/>
<path d="M159.459 118.379H154.324V123.514H159.459V118.379Z" fill="white"/>
<path d="M5.40442 123.514H0.269287V128.649H5.40442V123.514Z" fill="white"/>
<path d="M10.5414 123.514H5.40625V128.649H10.5414V123.514Z" fill="white"/>
<path d="M15.6742 123.514H10.5391V128.649H15.6742V123.514Z" fill="white"/>
<path d="M20.8109 123.514H15.6758V128.649H20.8109V123.514Z" fill="white"/>
<path d="M25.9437 123.514H20.8086V128.649H25.9437V123.514Z" fill="white"/>
<path d="M36.2172 123.514H31.082V128.649H36.2172V123.514Z" fill="white"/>
<path d="M41.35 123.514H36.2148V128.649H41.35V123.514Z" fill="white"/>
<path d="M67.0258 123.514H61.8906V128.649H67.0258V123.514Z" fill="white"/>
<path d="M77.2953 123.514H72.1602V128.649H77.2953V123.514Z" fill="white"/>
<path d="M82.432 123.514H77.2969V128.649H82.432V123.514Z" fill="white"/>
<path d="M118.377 123.514H113.242V128.649H118.377V123.514Z" fill="white"/>
<path d="M123.514 123.514H118.379V128.649H123.514V123.514Z" fill="white"/>
<path d="M128.647 123.514H123.512V128.649H128.647V123.514Z" fill="white"/>
<path d="M133.784 123.514H128.648V128.649H133.784V123.514Z" fill="white"/>
<path d="M138.916 123.514H133.781V128.649H138.916V123.514Z" fill="white"/>
<path d="M144.053 123.514H138.918V128.649H144.053V123.514Z" fill="white"/>
<path d="M149.19 123.514H144.055V128.649H149.19V123.514Z" fill="white"/>
<path d="M169.729 123.514H164.594V128.649H169.729V123.514Z" fill="white"/>
<path d="M46.4867 128.649H41.3516V133.784H46.4867V128.649Z" fill="white"/>
<path d="M61.889 128.649H56.7539V133.784H61.889V128.649Z" fill="white"/>
<path d="M72.1625 128.649H67.0273V133.784H72.1625V128.649Z" fill="white"/>
<path d="M77.2953 128.649H72.1602V133.784H77.2953V128.649Z" fill="white"/>
<path d="M82.432 128.649H77.2969V133.784H82.432V128.649Z" fill="white"/>
<path d="M87.5648 128.649H82.4297V133.784H87.5648V128.649Z" fill="white"/>
<path d="M102.971 128.649H97.8359V133.784H102.971V128.649Z" fill="white"/>
<path d="M108.108 128.649H102.973V133.784H108.108V128.649Z" fill="white"/>
<path d="M113.241 128.649H108.105V133.784H113.241V128.649Z" fill="white"/>
<path d="M128.647 128.649H123.512V133.784H128.647V128.649Z" fill="white"/>
<path d="M149.19 128.649H144.055V133.784H149.19V128.649Z" fill="white"/>
<path d="M154.323 128.649H149.188V133.784H154.323V128.649Z" fill="white"/>
<path d="M46.4867 133.784H41.3516V138.919H46.4867V133.784Z" fill="white"/>
<path d="M51.6195 133.784H46.4844V138.919H51.6195V133.784Z" fill="white"/>
<path d="M72.1625 133.784H67.0273V138.919H72.1625V133.784Z" fill="white"/>
<path d="M82.432 133.784H77.2969V138.919H82.432V133.784Z" fill="white"/>
<path d="M87.5648 133.784H82.4297V138.919H87.5648V133.784Z" fill="white"/>
<path d="M92.7017 133.784H87.5666V138.919H92.7017V133.784Z" fill="white"/>
<path d="M108.108 133.784H102.973V138.919H108.108V133.784Z" fill="white"/>
<path d="M123.514 133.784H118.379V138.919H123.514V133.784Z" fill="white"/>
<path d="M128.647 133.784H123.512V138.919H128.647V133.784Z" fill="white"/>
<path d="M138.916 133.784H133.781V138.919H138.916V133.784Z" fill="white"/>
<path d="M149.19 133.784H144.055V138.919H149.19V133.784Z" fill="white"/>
<path d="M154.323 133.784H149.188V138.919H154.323V133.784Z" fill="white"/>
<path d="M159.459 133.784H154.324V138.919H159.459V133.784Z" fill="white"/>
<path d="M56.7562 138.919H51.6211V144.054H56.7562V138.919Z" fill="white"/>
<path d="M72.1625 138.919H67.0273V144.054H72.1625V138.919Z" fill="white"/>
<path d="M82.432 138.919H77.2969V144.054H82.432V138.919Z" fill="white"/>
<path d="M87.5648 138.919H82.4297V144.054H87.5648V138.919Z" fill="white"/>
<path d="M113.241 138.919H108.105V144.054H113.241V138.919Z" fill="white"/>
<path d="M118.377 138.919H113.242V144.054H118.377V138.919Z" fill="white"/>
<path d="M123.514 138.919H118.379V144.054H123.514V138.919Z" fill="white"/>
<path d="M128.647 138.919H123.512V144.054H128.647V138.919Z" fill="white"/>
<path d="M149.19 138.919H144.055V144.054H149.19V138.919Z" fill="white"/>
<path d="M154.323 138.919H149.188V144.054H154.323V138.919Z" fill="white"/>
<path d="M159.459 138.919H154.324V144.054H159.459V138.919Z" fill="white"/>
<path d="M164.596 138.919H159.461V144.054H164.596V138.919Z" fill="white"/>
<path d="M46.4867 144.054H41.3516V149.189H46.4867V144.054Z" fill="white"/>
<path d="M51.6195 144.054H46.4844V149.189H51.6195V144.054Z" fill="white"/>
<path d="M67.0258 144.054H61.8906V149.189H67.0258V144.054Z" fill="white"/>
<path d="M72.1625 144.054H67.0273V149.189H72.1625V144.054Z" fill="white"/>
<path d="M77.2953 144.054H72.1602V149.189H77.2953V144.054Z" fill="white"/>
<path d="M108.108 144.054H102.973V149.189H108.108V144.054Z" fill="white"/>
<path d="M113.241 144.054H108.105V149.189H113.241V144.054Z" fill="white"/>
<path d="M118.377 144.054H113.242V149.189H118.377V144.054Z" fill="white"/>
<path d="M123.514 144.054H118.379V149.189H123.514V144.054Z" fill="white"/>
<path d="M128.647 144.054H123.512V149.189H128.647V144.054Z" fill="white"/>
<path d="M133.784 144.054H128.648V149.189H133.784V144.054Z" fill="white"/>
<path d="M138.916 144.054H133.781V149.189H138.916V144.054Z" fill="white"/>
<path d="M144.053 144.054H138.918V149.189H144.053V144.054Z" fill="white"/>
<path d="M149.19 144.054H144.055V149.189H149.19V144.054Z" fill="white"/>
<path d="M154.323 144.054H149.188V149.189H154.323V144.054Z" fill="white"/>
<path d="M164.596 144.054H159.461V149.189H164.596V144.054Z" fill="white"/>
<path d="M46.4867 149.189H41.3516V154.325H46.4867V149.189Z" fill="white"/>
<path d="M51.6195 149.189H46.4844V154.325H51.6195V149.189Z" fill="white"/>
<path d="M61.889 149.189H56.7539V154.325H61.889V149.189Z" fill="white"/>
<path d="M67.0258 149.189H61.8906V154.325H67.0258V149.189Z" fill="white"/>
<path d="M72.1625 149.189H67.0273V154.325H72.1625V149.189Z" fill="white"/>
<path d="M77.2953 149.189H72.1602V154.325H77.2953V149.189Z" fill="white"/>
<path d="M82.432 149.189H77.2969V154.325H82.432V149.189Z" fill="white"/>
<path d="M87.5648 149.189H82.4297V154.325H87.5648V149.189Z" fill="white"/>
<path d="M97.8383 149.189H92.7031V154.325H97.8383V149.189Z" fill="white"/>
<path d="M108.108 149.189H102.973V154.325H108.108V149.189Z" fill="white"/>
<path d="M113.241 149.189H108.105V154.325H113.241V149.189Z" fill="white"/>
<path d="M118.377 149.189H113.242V154.325H118.377V149.189Z" fill="white"/>
<path d="M123.514 149.189H118.379V154.325H123.514V149.189Z" fill="white"/>
<path d="M133.784 149.189H128.648V154.325H133.784V149.189Z" fill="white"/>
<path d="M144.053 149.189H138.918V154.325H144.053V149.189Z" fill="white"/>
<path d="M164.596 149.189H159.461V154.325H164.596V149.189Z" fill="white"/>
<path d="M51.6195 154.325H46.4844V159.46H51.6195V154.325Z" fill="white"/>
<path d="M61.889 154.325H56.7539V159.46H61.889V154.325Z" fill="white"/>
<path d="M67.0258 154.325H61.8906V159.46H67.0258V154.325Z" fill="white"/>
<path d="M77.2953 154.325H72.1602V159.46H77.2953V154.325Z" fill="white"/>
<path d="M82.432 154.324H77.2969V159.459H82.432V154.324Z" fill="white"/>
<path d="M92.7017 154.325H87.5666V159.46H92.7017V154.325Z" fill="white"/>
<path d="M97.8383 154.324H92.7031V159.459H97.8383V154.324Z" fill="white"/>
<path d="M118.377 154.325H113.242V159.46H118.377V154.325Z" fill="white"/>
<path d="M149.19 154.324H144.055V159.459H149.19V154.324Z" fill="white"/>
<path d="M164.596 154.325H159.461V159.46H164.596V154.325Z" fill="white"/>
<path d="M169.729 154.324H164.594V159.459H169.729V154.324Z" fill="white"/>
<path d="M67.0258 159.46H61.8906V164.595H67.0258V159.46Z" fill="white"/>
<path d="M72.1625 159.46H67.0273V164.595H72.1625V159.46Z" fill="white"/>
<path d="M77.2953 159.46H72.1602V164.595H77.2953V159.46Z" fill="white"/>
<path d="M87.5648 159.46H82.4297V164.595H87.5648V159.46Z" fill="white"/>
<path d="M102.971 159.46H97.8359V164.595H102.971V159.46Z" fill="white"/>
<path d="M108.108 159.459H102.973V164.595H108.108V159.459Z" fill="white"/>
<path d="M113.241 159.46H108.105V164.595H113.241V159.46Z" fill="white"/>
<path d="M123.514 159.46H118.379V164.595H123.514V159.46Z" fill="white"/>
<path d="M133.784 159.46H128.648V164.595H133.784V159.46Z" fill="white"/>
<path d="M138.916 159.46H133.781V164.595H138.916V159.46Z" fill="white"/>
<path d="M154.323 159.46H149.188V164.595H154.323V159.46Z" fill="white"/>
<path d="M159.459 159.46H154.324V164.595H159.459V159.46Z" fill="white"/>
<path d="M164.596 159.46H159.461V164.595H164.596V159.46Z" fill="white"/>
<path d="M169.729 159.46H164.594V164.595H169.729V159.46Z" fill="white"/>
<path d="M51.6195 164.595H46.4844V169.73H51.6195V164.595Z" fill="white"/>
<path d="M56.7562 164.595H51.6211V169.73H56.7562V164.595Z" fill="white"/>
<path d="M61.889 164.595H56.7539V169.73H61.889V164.595Z" fill="white"/>
<path d="M67.0258 164.595H61.8906V169.73H67.0258V164.595Z" fill="white"/>
<path d="M72.1625 164.595H67.0273V169.73H72.1625V164.595Z" fill="white"/>
<path d="M97.8383 164.595H92.7031V169.73H97.8383V164.595Z" fill="white"/>
<path d="M108.108 164.595H102.973V169.73H108.108V164.595Z" fill="white"/>
<path d="M113.241 164.595H108.105V169.73H113.241V164.595Z" fill="white"/>
<path d="M123.514 164.595H118.379V169.73H123.514V164.595Z" fill="white"/>
<path d="M128.647 164.595H123.512V169.73H128.647V164.595Z" fill="white"/>
<path d="M149.19 164.595H144.055V169.73H149.19V164.595Z" fill="white"/>
<path d="M30.8236 0.270508H5.66142H0.269531V5.6624V30.8246V36.2165H5.66142H30.8236H36.2155V30.8246V5.6624V0.270508H30.8236ZM30.8236 30.8246H5.66142V5.6624H30.8236V30.8246Z" fill="white"/>
<path d="M164.335 0.270508H139.173H133.781V5.6624V30.8246V36.2165H139.173H164.335H169.727V30.8246V5.6624V0.270508H164.335ZM164.335 30.8246H139.173V5.6624H164.335V30.8246Z" fill="white"/>
<path d="M30.8233 133.784H5.66118H0.269287V139.176V164.338V169.73H5.66118H30.8233H36.2152V164.338V139.176V133.784H30.8233ZM30.8233 164.338H5.66118V139.176H30.8233V164.338Z" fill="white"/>
<path d="M25.9445 10.541H10.5391V25.9464H25.9445V10.541Z" fill="white"/>
<path d="M159.46 10.541H144.055V25.9464H159.46V10.541Z" fill="white"/>
<path d="M25.9445 144.054H10.5391V159.46H25.9445V144.054Z" fill="white"/>
</mask>
<g mask="url(#mask0_1348_76059)">
<path d="M169.729 0.270508H0.269531V169.73H169.729V0.270508Z" fill="url(#paint0_linear_1348_76059)"/>
</g>
<defs>
<linearGradient id="paint0_linear_1348_76059" x1="0.269531" y1="0.270508" x2="0.269531" y2="169.73" gradientUnits="userSpaceOnUse">
<stop offset="0.05" stop-color="#15B0F8"/>
<stop offset="0.95" stop-color="#0277BD"/>
</linearGradient>
</defs>
</svg>
