<svg width="332" height="192" viewBox="0 0 332 192" fill="none" xmlns="http://www.w3.org/2000/svg">
<path d="M0.652832 82.0654C15.3397 73.4278 18.6905 38.3268 39.8178 35.5467C58.766 33.0534 64.8009 69.319 83.1789 63.1134C91.7264 60.2272 93.9061 51.8796 102.062 47.6071C111.033 42.9077 117.602 46.372 126.54 41.5769C142.834 32.8355 140.259 0.0744011 158.012 1.08846C175.028 2.06046 170.51 34.9992 186.686 41.5769C205.879 49.3812 216.772 11.9852 235.642 20.902C252.546 28.8894 243.857 63.3821 261.519 68.2821C279.995 73.4077 284.447 27.0452 302.083 35.5467C313.939 41.2621 311.737 57.4786 320.966 68.2821C326.193 74.4007 329.476 77.4823 335.653 82.0654" stroke="url(#paint0_linear_360_3224)" stroke-width="2"/>
<rect x="11.1528" y="92.0654" width="8" height="10" fill="white"/>
<rect x="28.1528" y="85.0654" width="8" height="17" fill="white"/>
<rect x="45.1528" y="91.0654" width="8" height="11" fill="white"/>
<rect x="62.1528" y="84.0654" width="8" height="18" fill="white"/>
<rect x="79.1528" y="91.0654" width="8" height="11" fill="white"/>
<rect x="96.1528" y="91.0654" width="8" height="11" fill="white"/>
<rect x="113.153" y="92.0654" width="8" height="10" fill="white"/>
<g filter="url(#filter0_dd_360_3224)">
<rect x="130.153" y="79.0654" width="8" height="23" fill="url(#paint1_linear_360_3224)"/>
</g>
<g filter="url(#filter1_dd_360_3224)">
<rect x="147.153" y="79.0654" width="8" height="23" fill="url(#paint2_linear_360_3224)"/>
</g>
<g filter="url(#filter2_dd_360_3224)">
<rect x="164.153" y="64.0654" width="8" height="38" fill="url(#paint3_linear_360_3224)"/>
</g>
<g filter="url(#filter3_dd_360_3224)">
<rect x="181.153" y="81.0654" width="8" height="21" fill="url(#paint4_linear_360_3224)"/>
</g>
<g filter="url(#filter4_dd_360_3224)">
<rect x="198.153" y="77.0654" width="8" height="25" fill="url(#paint5_linear_360_3224)"/>
</g>
<rect x="215.153" y="85.0654" width="8" height="17" fill="white"/>
<rect x="232.153" y="85.0654" width="8" height="17" fill="white"/>
<rect x="249.153" y="85.0654" width="8" height="17" fill="white"/>
<rect x="266.153" y="92.0654" width="8" height="10" fill="white"/>
<rect x="283.153" y="87.0654" width="8" height="15" fill="white"/>
<rect x="300.153" y="82.0654" width="8" height="20" fill="white"/>
<rect x="317.153" y="82.0654" width="8" height="20" fill="white"/>
<path d="M144.961 137.263C141.253 137.263 138.787 134.599 138.787 130.567C138.787 126.553 141.325 123.835 145.051 123.835C147.985 123.835 150.235 125.581 150.721 128.245H148.831C148.345 126.553 146.887 125.527 144.997 125.527C142.369 125.527 140.641 127.507 140.641 130.549C140.641 133.591 142.369 135.571 144.997 135.571C146.905 135.571 148.417 134.545 148.903 132.943H150.775C150.217 135.535 147.895 137.263 144.961 137.263ZM158.374 128.263H160.048V137.065H158.536L158.356 135.733C157.852 136.651 156.682 137.281 155.386 137.281C153.334 137.281 152.182 135.895 152.182 133.735V128.263H153.874V133.177C153.874 135.067 154.684 135.787 155.98 135.787C157.528 135.787 158.374 134.797 158.374 132.907V128.263ZM167.183 128.191V129.739H166.427C164.825 129.739 163.835 130.711 163.835 132.403V137.065H162.143V128.281H163.727L163.835 129.613C164.195 128.695 165.077 128.083 166.283 128.083C166.589 128.083 166.841 128.119 167.183 128.191ZM173.45 128.191V129.739H172.694C171.092 129.739 170.102 130.711 170.102 132.403V137.065H168.41V128.281H169.994L170.102 129.613C170.462 128.695 171.344 128.083 172.55 128.083C172.856 128.083 173.108 128.119 173.45 128.191ZM178.159 137.281C175.567 137.281 173.785 135.409 173.785 132.673C173.785 129.919 175.531 128.011 178.087 128.011C180.589 128.011 182.227 129.739 182.227 132.349V132.979L175.423 132.997C175.549 134.851 176.521 135.877 178.195 135.877C179.509 135.877 180.373 135.337 180.661 134.329H182.245C181.813 136.219 180.337 137.281 178.159 137.281ZM178.087 129.433C176.611 129.433 175.675 130.315 175.459 131.863H180.535C180.535 130.405 179.581 129.433 178.087 129.433ZM185.448 137.065H183.756V128.263H185.286L185.466 129.613C186.024 128.605 187.14 128.011 188.382 128.011C190.704 128.011 191.766 129.433 191.766 131.683V137.065H190.074V132.061C190.074 130.279 189.246 129.559 187.95 129.559C186.366 129.559 185.448 130.693 185.448 132.403V137.065ZM196.234 137.065H194.542V129.685H192.814V128.263H194.542V125.509H196.234V128.263H197.962V129.685H196.234V137.065Z" fill="#3EDC81"/>
<path d="M113.683 161.949H112.927C111.919 160.569 111.259 158.529 111.259 156.465C111.259 154.485 111.895 152.421 112.927 150.993H113.683C112.759 152.289 112.111 154.305 112.111 156.465C112.111 158.577 112.735 160.629 113.683 161.949ZM114.486 160.065H113.61L116.766 151.473H117.834L121.026 160.065H120.126L119.286 157.785H115.326L114.486 160.065ZM117.186 152.685L115.59 157.029H119.01L117.402 152.685C117.366 152.565 117.306 152.421 117.294 152.337C117.282 152.409 117.234 152.565 117.186 152.685ZM122.844 151.473V160.065H121.98V151.473H122.844ZM130.037 160.209C128.333 160.209 127.193 158.985 127.193 157.161C127.193 155.349 128.321 154.101 129.977 154.101C131.549 154.101 132.617 155.217 132.617 156.861V157.269H127.997C128.057 158.685 128.801 159.501 130.049 159.501C130.997 159.501 131.609 159.093 131.825 158.325H132.617C132.305 159.549 131.405 160.209 130.037 160.209ZM129.977 154.809C128.885 154.809 128.165 155.529 128.021 156.669H131.789C131.789 155.553 131.069 154.809 129.977 154.809ZM133.73 160.065H132.758L134.834 157.161L132.77 154.257H133.742L135.386 156.585L137.018 154.257H137.978L135.914 157.173L137.966 160.065H136.982L135.35 157.737L133.73 160.065ZM138.723 162.597V154.257H139.443L139.527 155.433C139.935 154.533 140.751 154.101 141.723 154.101C143.403 154.101 144.411 155.385 144.411 157.137C144.411 158.889 143.439 160.209 141.723 160.209C140.739 160.209 139.959 159.789 139.551 158.949V162.597H138.723ZM139.563 157.161C139.563 158.493 140.307 159.465 141.579 159.465C142.839 159.465 143.571 158.493 143.571 157.161C143.571 155.817 142.839 154.857 141.579 154.857C140.307 154.857 139.563 155.817 139.563 157.161ZM147.927 160.209C146.223 160.209 145.083 158.985 145.083 157.161C145.083 155.349 146.211 154.101 147.867 154.101C149.439 154.101 150.507 155.217 150.507 156.861V157.269H145.887C145.947 158.685 146.691 159.501 147.939 159.501C148.887 159.501 149.499 159.093 149.715 158.325H150.507C150.195 159.549 149.295 160.209 147.927 160.209ZM147.867 154.809C146.775 154.809 146.055 155.529 145.911 156.669H149.679C149.679 155.553 148.959 154.809 147.867 154.809ZM151.182 157.173C151.182 155.349 152.298 154.101 153.99 154.101C155.334 154.101 156.318 154.881 156.546 156.081H155.718C155.502 155.277 154.806 154.833 154.002 154.833C152.826 154.833 151.998 155.733 151.998 157.161C151.998 158.541 152.766 159.465 153.942 159.465C154.806 159.465 155.502 158.985 155.73 158.241H156.57C156.294 159.429 155.262 160.209 153.942 160.209C152.298 160.209 151.182 158.997 151.182 157.173ZM158.917 160.065H158.101V154.953H156.937V154.257H158.101V152.421H158.917V154.257H160.081V154.953H158.917V160.065ZM160.427 158.433H161.219C161.219 159.105 161.723 159.525 162.539 159.525C163.439 159.525 163.967 159.141 163.967 158.517C163.967 158.037 163.727 157.761 163.043 157.593L162.047 157.341C161.039 157.089 160.547 156.561 160.547 155.769C160.547 154.749 161.399 154.101 162.647 154.101C163.871 154.101 164.663 154.773 164.699 155.853H163.895C163.871 155.181 163.403 154.785 162.623 154.785C161.807 154.785 161.351 155.133 161.351 155.757C161.351 156.201 161.663 156.513 162.299 156.669L163.295 156.921C164.303 157.173 164.759 157.641 164.759 158.481C164.759 159.525 163.871 160.209 162.551 160.209C161.243 160.209 160.427 159.513 160.427 158.433ZM172.006 154.185V154.929H171.55C170.482 154.929 169.798 155.649 169.798 156.753V160.065H168.97V154.257H169.75L169.81 155.157C170.038 154.533 170.65 154.125 171.466 154.125C171.646 154.125 171.802 154.137 172.006 154.185ZM174.301 160.209C173.065 160.209 172.333 159.513 172.333 158.493C172.333 157.425 173.149 156.753 174.505 156.645L176.425 156.489V156.297C176.425 155.157 175.741 154.797 174.889 154.797C173.881 154.797 173.281 155.253 173.281 156.033H172.525C172.525 154.857 173.485 154.101 174.913 154.101C176.257 154.101 177.241 154.773 177.241 156.309V160.065H176.545L176.437 159.045C176.077 159.777 175.285 160.209 174.301 160.209ZM174.493 159.537C175.717 159.537 176.425 158.685 176.425 157.425V157.113L174.709 157.245C173.617 157.341 173.173 157.821 173.173 158.469C173.173 159.177 173.701 159.537 174.493 159.537ZM179.49 160.065H178.662V154.257H179.382L179.502 155.265C179.886 154.521 180.654 154.101 181.494 154.101C183.09 154.101 183.75 155.049 183.75 156.513V160.065H182.922V156.693C182.922 155.337 182.31 154.857 181.35 154.857C180.162 154.857 179.49 155.721 179.49 157.029V160.065ZM184.764 156.993C184.764 155.409 185.784 154.101 187.488 154.101C188.496 154.101 189.264 154.569 189.636 155.421L189.72 154.257H190.44V159.885C190.44 161.613 189.336 162.741 187.632 162.741C186.144 162.741 185.1 161.901 184.872 160.497H185.7C185.88 161.433 186.6 161.985 187.644 161.985C188.832 161.985 189.624 161.181 189.624 159.969V158.589C189.228 159.405 188.424 159.885 187.428 159.885C185.772 159.885 184.764 158.577 184.764 156.993ZM185.592 156.981C185.592 158.169 186.324 159.141 187.548 159.141C188.808 159.141 189.552 158.229 189.552 156.981C189.552 155.745 188.832 154.833 187.56 154.833C186.312 154.833 185.592 155.805 185.592 156.981ZM194.364 160.209C192.66 160.209 191.52 158.985 191.52 157.161C191.52 155.349 192.648 154.101 194.304 154.101C195.876 154.101 196.944 155.217 196.944 156.861V157.269H192.324C192.384 158.685 193.128 159.501 194.376 159.501C195.324 159.501 195.936 159.093 196.152 158.325H196.944C196.632 159.549 195.732 160.209 194.364 160.209ZM194.304 154.809C193.212 154.809 192.492 155.529 192.348 156.669H196.116C196.116 155.553 195.396 154.809 194.304 154.809ZM201.944 160.053H201.116V151.317H201.944V155.265C202.316 154.569 203.024 154.101 203.996 154.101C205.52 154.101 206.204 155.049 206.204 156.513V160.065H205.376V156.693C205.376 155.337 204.74 154.857 203.84 154.857C202.592 154.857 201.944 155.781 201.944 156.897V160.053ZM210.05 160.209C208.346 160.209 207.206 158.985 207.206 157.161C207.206 155.349 208.334 154.101 209.99 154.101C211.562 154.101 212.63 155.217 212.63 156.861V157.269H208.01C208.07 158.685 208.814 159.501 210.062 159.501C211.01 159.501 211.622 159.093 211.838 158.325H212.63C212.318 159.549 211.418 160.209 210.05 160.209ZM209.99 154.809C208.898 154.809 208.178 155.529 208.034 156.669H211.802C211.802 155.553 211.082 154.809 209.99 154.809ZM216.75 154.185V154.929H216.294C215.226 154.929 214.542 155.649 214.542 156.753V160.065H213.714V154.257H214.494L214.554 155.157C214.782 154.533 215.394 154.125 216.21 154.125C216.39 154.125 216.546 154.137 216.75 154.185ZM219.824 160.209C218.12 160.209 216.98 158.985 216.98 157.161C216.98 155.349 218.108 154.101 219.764 154.101C221.336 154.101 222.404 155.217 222.404 156.861V157.269H217.784C217.844 158.685 218.588 159.501 219.836 159.501C220.784 159.501 221.396 159.093 221.612 158.325H222.404C222.092 159.549 221.192 160.209 219.824 160.209ZM219.764 154.809C218.672 154.809 217.952 155.529 217.808 156.669H221.576C221.576 155.553 220.856 154.809 219.764 154.809ZM223.38 161.949H222.624C223.572 160.629 224.208 158.577 224.208 156.465C224.208 154.305 223.548 152.289 222.624 150.993H223.38C224.424 152.421 225.048 154.485 225.048 156.465C225.048 158.529 224.388 160.569 223.38 161.949Z" fill="white" fill-opacity="0.8"/>
<path d="M25.2648 187.617V186.241C23.1528 186.113 21.7608 184.913 21.6648 183.041H23.2648C23.2968 184.065 24.0488 184.737 25.2648 184.865V180.881L24.6888 180.753C22.8008 180.321 21.8248 179.265 21.8248 177.617C21.8248 175.793 23.1848 174.497 25.2648 174.321V172.929H26.2888V174.305C28.2248 174.481 29.4568 175.665 29.5688 177.521H28.0168C27.9528 176.497 27.3288 175.841 26.2888 175.697V179.665L26.9128 179.809C28.8328 180.241 29.7608 181.249 29.7608 182.849C29.7608 184.753 28.4008 186.033 26.2888 186.225V187.617H25.2648ZM25.0088 179.361L25.2648 179.425V175.697C24.0808 175.857 23.3608 176.545 23.3608 177.569C23.3608 178.497 23.8888 179.089 25.0088 179.361ZM26.5928 181.201L26.2888 181.137V184.833C27.4888 184.673 28.2248 183.985 28.2248 182.977C28.2248 182.049 27.6968 181.457 26.5928 181.201ZM33.0592 175.905H30.6272V174.497H34.5632V186.065H33.0592V175.905ZM38.9193 185.441C38.9193 186.593 38.0553 187.553 36.9193 187.697V187.025C37.5753 186.913 38.0393 186.481 38.0393 185.985C37.9273 186.049 37.7993 186.081 37.6073 186.081C37.0793 186.081 36.6313 185.697 36.6313 185.105C36.6313 184.465 37.0633 184.001 37.7033 184.001C38.3753 184.001 38.9193 184.561 38.9193 185.441ZM48.2212 186.049L40.4132 186.065V184.865L44.1412 181.649C46.0132 180.033 46.5412 179.249 46.5412 178.017C46.5412 176.561 45.7092 175.697 44.3172 175.697C42.8932 175.697 41.9652 176.737 41.9332 178.385H40.3652C40.4132 175.905 41.9812 174.289 44.3332 174.289C46.6532 174.289 48.1412 175.697 48.1412 177.921C48.1412 179.569 47.3252 180.737 45.2772 182.513L42.8772 184.593H48.2212V186.049ZM49.3443 180.289C49.3443 176.705 51.2003 174.273 54.1123 174.273C57.0083 174.273 58.8643 176.705 58.8643 180.289C58.8643 183.889 57.0883 186.273 54.1123 186.273C51.1203 186.273 49.3443 183.889 49.3443 180.289ZM50.8963 180.289C50.8963 183.137 52.0803 184.865 54.1123 184.865C56.1443 184.865 57.3123 183.137 57.3123 180.289C57.3123 177.409 56.1443 175.681 54.1123 175.681C52.0803 175.681 50.8963 177.409 50.8963 180.289ZM60.1181 180.289C60.1181 176.705 61.9741 174.273 64.8861 174.273C67.7821 174.273 69.6381 176.705 69.6381 180.289C69.6381 183.889 67.8621 186.273 64.8861 186.273C61.8941 186.273 60.1181 183.889 60.1181 180.289ZM61.6701 180.289C61.6701 183.137 62.8541 184.865 64.8861 184.865C66.9181 184.865 68.0861 183.137 68.0861 180.289C68.0861 177.409 66.9181 175.681 64.8861 175.681C62.8541 175.681 61.6701 177.409 61.6701 180.289Z" fill="white"/>
<path d="M265.265 187.617V186.241C263.153 186.113 261.761 184.913 261.665 183.041H263.265C263.297 184.065 264.049 184.737 265.265 184.865V180.881L264.689 180.753C262.801 180.321 261.825 179.265 261.825 177.617C261.825 175.793 263.185 174.497 265.265 174.321V172.929H266.289V174.305C268.225 174.481 269.457 175.665 269.569 177.521H268.017C267.953 176.497 267.329 175.841 266.289 175.697V179.665L266.913 179.809C268.833 180.241 269.761 181.249 269.761 182.849C269.761 184.753 268.401 186.033 266.289 186.225V187.617H265.265ZM265.009 179.361L265.265 179.425V175.697C264.081 175.857 263.361 176.545 263.361 177.569C263.361 178.497 263.889 179.089 265.009 179.361ZM266.593 181.201L266.289 181.137V184.833C267.489 184.673 268.225 183.985 268.225 182.977C268.225 182.049 267.697 181.457 266.593 181.201ZM273.059 175.905H270.627V174.497H274.563V186.065H273.059V175.905ZM278.919 185.441C278.919 186.593 278.055 187.553 276.919 187.697V187.025C277.575 186.913 278.039 186.481 278.039 185.985C277.927 186.049 277.799 186.081 277.607 186.081C277.079 186.081 276.631 185.697 276.631 185.105C276.631 184.465 277.063 184.001 277.703 184.001C278.375 184.001 278.919 184.561 278.919 185.441ZM288.221 186.049L280.413 186.065V184.865L284.141 181.649C286.013 180.033 286.541 179.249 286.541 178.017C286.541 176.561 285.709 175.697 284.317 175.697C282.893 175.697 281.965 176.737 281.933 178.385H280.365C280.413 175.905 281.981 174.289 284.333 174.289C286.653 174.289 288.141 175.697 288.141 177.921C288.141 179.569 287.325 180.737 285.277 182.513L282.877 184.593H288.221V186.049ZM291.615 175.905H289.183V174.497H293.119V186.065H291.615V175.905ZM298.74 186.257C296.372 186.257 294.836 184.753 294.836 182.449H296.388C296.388 183.937 297.3 184.849 298.772 184.849C300.34 184.849 301.348 183.809 301.348 182.241C301.348 180.753 300.404 179.649 298.788 179.649C297.812 179.649 296.916 180.113 296.388 180.769L295.06 180.433L296.468 174.497H302.26V175.937H297.604L296.836 179.009C297.444 178.545 298.212 178.305 299.076 178.305C301.428 178.305 302.948 179.953 302.948 182.177C302.948 184.577 301.236 186.257 298.74 186.257ZM303.986 180.289C303.986 176.705 305.842 174.273 308.754 174.273C311.65 174.273 313.506 176.705 313.506 180.289C313.506 183.889 311.73 186.273 308.754 186.273C305.762 186.273 303.986 183.889 303.986 180.289ZM305.538 180.289C305.538 183.137 306.722 184.865 308.754 184.865C310.786 184.865 311.954 183.137 311.954 180.289C311.954 177.409 310.786 175.681 308.754 175.681C306.722 175.681 305.538 177.409 305.538 180.289Z" fill="white"/>
<defs>
<filter id="filter0_dd_360_3224" x="127.353" y="73.4654" width="13.6" height="34.2" filterUnits="userSpaceOnUse" color-interpolation-filters="sRGB">
<feFlood flood-opacity="0" result="BackgroundImageFix"/>
<feColorMatrix in="SourceAlpha" type="matrix" values="0 0 0 0 0 0 0 0 0 0 0 0 0 0 0 0 0 0 127 0" result="hardAlpha"/>
<feOffset dy="2.8"/>
<feGaussianBlur stdDeviation="1.4"/>
<feComposite in2="hardAlpha" operator="out"/>
<feColorMatrix type="matrix" values="0 0 0 0 0.164706 0 0 0 0 0.694118 0 0 0 0 0.388235 0 0 0 0.25 0"/>
<feBlend mode="normal" in2="BackgroundImageFix" result="effect1_dropShadow_360_3224"/>
<feColorMatrix in="SourceAlpha" type="matrix" values="0 0 0 0 0 0 0 0 0 0 0 0 0 0 0 0 0 0 127 0" result="hardAlpha"/>
<feOffset dy="-2.8"/>
<feGaussianBlur stdDeviation="1.4"/>
<feComposite in2="hardAlpha" operator="out"/>
<feColorMatrix type="matrix" values="0 0 0 0 0.141176 0 0 0 0 0.643137 0 0 0 0 0.352941 0 0 0 0.25 0"/>
<feBlend mode="normal" in2="effect1_dropShadow_360_3224" result="effect2_dropShadow_360_3224"/>
<feBlend mode="normal" in="SourceGraphic" in2="effect2_dropShadow_360_3224" result="shape"/>
</filter>
<filter id="filter1_dd_360_3224" x="144.353" y="73.4654" width="13.6" height="34.2" filterUnits="userSpaceOnUse" color-interpolation-filters="sRGB">
<feFlood flood-opacity="0" result="BackgroundImageFix"/>
<feColorMatrix in="SourceAlpha" type="matrix" values="0 0 0 0 0 0 0 0 0 0 0 0 0 0 0 0 0 0 127 0" result="hardAlpha"/>
<feOffset dy="2.8"/>
<feGaussianBlur stdDeviation="1.4"/>
<feComposite in2="hardAlpha" operator="out"/>
<feColorMatrix type="matrix" values="0 0 0 0 0.164706 0 0 0 0 0.694118 0 0 0 0 0.388235 0 0 0 0.25 0"/>
<feBlend mode="normal" in2="BackgroundImageFix" result="effect1_dropShadow_360_3224"/>
<feColorMatrix in="SourceAlpha" type="matrix" values="0 0 0 0 0 0 0 0 0 0 0 0 0 0 0 0 0 0 127 0" result="hardAlpha"/>
<feOffset dy="-2.8"/>
<feGaussianBlur stdDeviation="1.4"/>
<feComposite in2="hardAlpha" operator="out"/>
<feColorMatrix type="matrix" values="0 0 0 0 0.141176 0 0 0 0 0.643137 0 0 0 0 0.352941 0 0 0 0.25 0"/>
<feBlend mode="normal" in2="effect1_dropShadow_360_3224" result="effect2_dropShadow_360_3224"/>
<feBlend mode="normal" in="SourceGraphic" in2="effect2_dropShadow_360_3224" result="shape"/>
</filter>
<filter id="filter2_dd_360_3224" x="161.353" y="58.4654" width="13.6" height="49.2" filterUnits="userSpaceOnUse" color-interpolation-filters="sRGB">
<feFlood flood-opacity="0" result="BackgroundImageFix"/>
<feColorMatrix in="SourceAlpha" type="matrix" values="0 0 0 0 0 0 0 0 0 0 0 0 0 0 0 0 0 0 127 0" result="hardAlpha"/>
<feOffset dy="2.8"/>
<feGaussianBlur stdDeviation="1.4"/>
<feComposite in2="hardAlpha" operator="out"/>
<feColorMatrix type="matrix" values="0 0 0 0 0.164706 0 0 0 0 0.694118 0 0 0 0 0.388235 0 0 0 0.25 0"/>
<feBlend mode="normal" in2="BackgroundImageFix" result="effect1_dropShadow_360_3224"/>
<feColorMatrix in="SourceAlpha" type="matrix" values="0 0 0 0 0 0 0 0 0 0 0 0 0 0 0 0 0 0 127 0" result="hardAlpha"/>
<feOffset dy="-2.8"/>
<feGaussianBlur stdDeviation="1.4"/>
<feComposite in2="hardAlpha" operator="out"/>
<feColorMatrix type="matrix" values="0 0 0 0 0.141176 0 0 0 0 0.643137 0 0 0 0 0.352941 0 0 0 0.25 0"/>
<feBlend mode="normal" in2="effect1_dropShadow_360_3224" result="effect2_dropShadow_360_3224"/>
<feBlend mode="normal" in="SourceGraphic" in2="effect2_dropShadow_360_3224" result="shape"/>
</filter>
<filter id="filter3_dd_360_3224" x="178.353" y="75.4654" width="13.6" height="32.2" filterUnits="userSpaceOnUse" color-interpolation-filters="sRGB">
<feFlood flood-opacity="0" result="BackgroundImageFix"/>
<feColorMatrix in="SourceAlpha" type="matrix" values="0 0 0 0 0 0 0 0 0 0 0 0 0 0 0 0 0 0 127 0" result="hardAlpha"/>
<feOffset dy="2.8"/>
<feGaussianBlur stdDeviation="1.4"/>
<feComposite in2="hardAlpha" operator="out"/>
<feColorMatrix type="matrix" values="0 0 0 0 0.164706 0 0 0 0 0.694118 0 0 0 0 0.388235 0 0 0 0.25 0"/>
<feBlend mode="normal" in2="BackgroundImageFix" result="effect1_dropShadow_360_3224"/>
<feColorMatrix in="SourceAlpha" type="matrix" values="0 0 0 0 0 0 0 0 0 0 0 0 0 0 0 0 0 0 127 0" result="hardAlpha"/>
<feOffset dy="-2.8"/>
<feGaussianBlur stdDeviation="1.4"/>
<feComposite in2="hardAlpha" operator="out"/>
<feColorMatrix type="matrix" values="0 0 0 0 0.141176 0 0 0 0 0.643137 0 0 0 0 0.352941 0 0 0 0.25 0"/>
<feBlend mode="normal" in2="effect1_dropShadow_360_3224" result="effect2_dropShadow_360_3224"/>
<feBlend mode="normal" in="SourceGraphic" in2="effect2_dropShadow_360_3224" result="shape"/>
</filter>
<filter id="filter4_dd_360_3224" x="195.353" y="71.4654" width="13.6" height="36.2" filterUnits="userSpaceOnUse" color-interpolation-filters="sRGB">
<feFlood flood-opacity="0" result="BackgroundImageFix"/>
<feColorMatrix in="SourceAlpha" type="matrix" values="0 0 0 0 0 0 0 0 0 0 0 0 0 0 0 0 0 0 127 0" result="hardAlpha"/>
<feOffset dy="2.8"/>
<feGaussianBlur stdDeviation="1.4"/>
<feComposite in2="hardAlpha" operator="out"/>
<feColorMatrix type="matrix" values="0 0 0 0 0.164706 0 0 0 0 0.694118 0 0 0 0 0.388235 0 0 0 0.25 0"/>
<feBlend mode="normal" in2="BackgroundImageFix" result="effect1_dropShadow_360_3224"/>
<feColorMatrix in="SourceAlpha" type="matrix" values="0 0 0 0 0 0 0 0 0 0 0 0 0 0 0 0 0 0 127 0" result="hardAlpha"/>
<feOffset dy="-2.8"/>
<feGaussianBlur stdDeviation="1.4"/>
<feComposite in2="hardAlpha" operator="out"/>
<feColorMatrix type="matrix" values="0 0 0 0 0.141176 0 0 0 0 0.643137 0 0 0 0 0.352941 0 0 0 0.25 0"/>
<feBlend mode="normal" in2="effect1_dropShadow_360_3224" result="effect2_dropShadow_360_3224"/>
<feBlend mode="normal" in="SourceGraphic" in2="effect2_dropShadow_360_3224" result="shape"/>
</filter>
<linearGradient id="paint0_linear_360_3224" x1="-2.34705" y1="41.3288" x2="346.653" y2="41.3288" gradientUnits="userSpaceOnUse">
<stop offset="0.0363835" stop-color="white" stop-opacity="0"/>
<stop offset="0.511371" stop-color="white" stop-opacity="0.4"/>
<stop offset="0.93241" stop-color="white" stop-opacity="0"/>
</linearGradient>
<linearGradient id="paint1_linear_360_3224" x1="134.153" y1="79.0654" x2="134.153" y2="102.065" gradientUnits="userSpaceOnUse">
<stop stop-color="#3EDC81"/>
<stop offset="1" stop-color="#198D4A"/>
</linearGradient>
<linearGradient id="paint2_linear_360_3224" x1="151.153" y1="79.0654" x2="151.153" y2="102.065" gradientUnits="userSpaceOnUse">
<stop stop-color="#3EDC81"/>
<stop offset="1" stop-color="#198D4A"/>
</linearGradient>
<linearGradient id="paint3_linear_360_3224" x1="168.153" y1="64.0654" x2="168.153" y2="102.065" gradientUnits="userSpaceOnUse">
<stop stop-color="#3EDC81"/>
<stop offset="1" stop-color="#198D4A"/>
</linearGradient>
<linearGradient id="paint4_linear_360_3224" x1="185.153" y1="81.0654" x2="185.153" y2="102.065" gradientUnits="userSpaceOnUse">
<stop stop-color="#3EDC81"/>
<stop offset="1" stop-color="#198D4A"/>
</linearGradient>
<linearGradient id="paint5_linear_360_3224" x1="202.153" y1="77.0654" x2="202.153" y2="102.065" gradientUnits="userSpaceOnUse">
<stop stop-color="#3EDC81"/>
<stop offset="1" stop-color="#198D4A"/>
</linearGradient>
</defs>
</svg>
