<svg width="341" height="281" viewBox="0 0 341 281" fill="none" xmlns="http://www.w3.org/2000/svg">
<g clip-path="url(#clip0_1471_2644)">
<path d="M0 10.5807C0 4.73714 4.73713 0 10.5807 0H330.086C335.93 0 340.667 4.73713 340.667 10.5807V269.728C340.667 275.571 335.93 280.309 330.086 280.309H10.5807C4.73713 280.309 0 275.572 0 269.728V10.5807Z" fill="url(#paint0_linear_1471_2644)" fill-opacity="0.05"/>
<path d="M20.3959 36.626H18.5295V22.8563H23.7288C26.6808 22.8563 28.433 24.418 28.433 26.9891C28.433 28.8936 27.4807 30.2649 25.7667 30.8172L28.5663 36.626H26.4904L23.9193 31.179H20.3959V36.626ZM20.3959 24.5323V29.5221H23.7479C25.481 29.5221 26.4713 28.5889 26.4713 27.0081C26.4713 25.4083 25.4429 24.5323 23.7288 24.5323H20.3959ZM32.6566 36.8545C30.6568 36.8545 29.476 35.7309 29.476 34.0358C29.476 32.3218 30.7521 31.2552 32.9423 31.0838L35.8752 30.8553V30.5886C35.8752 29.0269 34.942 28.4746 33.685 28.4746C32.1804 28.4746 31.3234 29.1412 31.3234 30.2649H29.7617C29.7617 28.3223 31.3615 27.0462 33.7612 27.0462C36.0657 27.0462 37.6274 28.2651 37.6274 30.7791V36.626H36.1038L35.9133 35.1214C35.4372 36.1879 34.1611 36.8545 32.6566 36.8545ZM33.1708 35.4642C34.8658 35.4642 35.8943 34.3596 35.8943 32.6074V32.1123L33.5136 32.3027C31.9329 32.4551 31.2853 33.0645 31.2853 33.9787C31.2853 34.969 32.009 35.4642 33.1708 35.4642ZM41.516 36.626H39.7258V27.3129H41.3446L41.5351 28.7413C42.1255 27.6747 43.3063 27.0462 44.6204 27.0462C47.0772 27.0462 48.2009 28.5508 48.2009 30.9315V36.626H46.4106V31.3314C46.4106 29.4459 45.5346 28.6841 44.1633 28.6841C42.4873 28.6841 41.516 29.884 41.516 31.6933V36.626ZM49.7092 31.7314C49.7092 29.1031 51.4042 27.0462 54.1086 27.0462C55.6132 27.0462 56.775 27.7319 57.3654 28.8936L57.4987 27.3129H59.0985V36.2451C59.0985 39.178 57.2892 41.0445 54.4324 41.0445C51.8994 41.0445 50.1663 39.6161 49.8235 37.2545H51.6137C51.8422 38.6257 52.8707 39.4256 54.4324 39.4256C56.1846 39.4256 57.3273 38.2829 57.3273 36.5117V34.6453C56.7178 35.7309 55.4989 36.3784 54.0324 36.3784C51.3852 36.3784 49.7092 34.3406 49.7092 31.7314ZM51.4994 31.6933C51.4994 33.4454 52.585 34.8167 54.3372 34.8167C56.1465 34.8167 57.2511 33.5216 57.2511 31.6933C57.2511 29.903 56.1846 28.6079 54.3562 28.6079C52.566 28.6079 51.4994 29.9792 51.4994 31.6933ZM65.3197 36.8545C62.5772 36.8545 60.6917 34.8738 60.6917 31.9789C60.6917 29.065 62.5391 27.0462 65.2435 27.0462C67.8908 27.0462 69.6239 28.8746 69.6239 31.6361V32.3027L62.4248 32.3218C62.5582 34.2834 63.5866 35.369 65.3578 35.369C66.7481 35.369 67.6623 34.7976 67.967 33.7311H69.643C69.1859 35.7309 67.6242 36.8545 65.3197 36.8545ZM65.2435 28.5508C63.6818 28.5508 62.6915 29.484 62.4629 31.1219H67.8337C67.8337 29.5792 66.8243 28.5508 65.2435 28.5508ZM76.3741 36.626V22.8563H81.6306C84.316 22.8563 85.9539 24.2275 85.9539 26.4939C85.9539 28.0747 85.2682 29.1412 83.897 29.7126C85.4206 30.2077 86.2015 31.3124 86.2015 32.9502C86.2015 35.2357 84.5445 36.626 81.8211 36.626H76.3741ZM81.5163 24.5132H78.2406V28.9317H81.6306C83.1733 28.9317 84.0493 28.0937 84.0493 26.6653C84.0493 25.2941 83.1352 24.5132 81.5163 24.5132ZM81.783 30.5506H78.2406V34.969H81.783C83.3828 34.969 84.2779 34.1501 84.2779 32.7217C84.2779 31.3505 83.3637 30.5506 81.783 30.5506ZM90.5756 36.8545C88.5759 36.8545 87.395 35.7309 87.395 34.0358C87.395 32.3218 88.6711 31.2552 90.8613 31.0838L93.7942 30.8553V30.5886C93.7942 29.0269 92.861 28.4746 91.604 28.4746C90.0995 28.4746 89.2424 29.1412 89.2424 30.2649H87.6807C87.6807 28.3223 89.2805 27.0462 91.6802 27.0462C93.9847 27.0462 95.5464 28.2651 95.5464 30.7791V36.626H94.0228L93.8323 35.1214C93.3562 36.1879 92.0802 36.8545 90.5756 36.8545ZM91.0898 35.4642C92.7848 35.4642 93.8133 34.3596 93.8133 32.6074V32.1123L91.4326 32.3027C89.8519 32.4551 89.2043 33.0645 89.2043 33.9787C89.2043 34.969 89.9281 35.4642 91.0898 35.4642ZM102.977 27.2367V28.8746H102.178C100.483 28.8746 99.435 29.903 99.435 31.6933V36.626H97.6448V27.3319H99.3208L99.435 28.7413C99.816 27.77 100.749 27.1224 102.025 27.1224C102.349 27.1224 102.616 27.1605 102.977 27.2367ZM113.235 36.626L107.998 22.8563H109.998L113.35 31.6552C113.654 32.436 113.921 33.2169 114.207 34.2453C114.53 33.1597 114.854 32.2456 115.083 31.6361L118.416 22.8563H120.358L115.178 36.626H113.235ZM122.338 25.1036C121.69 25.1036 121.157 24.5704 121.157 23.9228C121.157 23.2562 121.69 22.742 122.338 22.742C122.985 22.742 123.519 23.2562 123.519 23.9228C123.519 24.5704 122.985 25.1036 122.338 25.1036ZM121.462 36.626V27.3129H123.252V36.626H121.462ZM124.708 33.9216H126.422C126.422 34.8738 127.146 35.4452 128.327 35.4452C129.584 35.4452 130.308 34.931 130.308 34.0739C130.308 33.4454 130.003 33.0645 129.032 32.8169L127.394 32.436C125.737 32.0361 124.956 31.2171 124.956 29.8459C124.956 28.1318 126.403 27.0462 128.46 27.0462C130.498 27.0462 131.831 28.1889 131.869 29.9602H130.155C130.117 29.0269 129.489 28.4365 128.403 28.4365C127.279 28.4365 126.651 28.9317 126.651 29.7887C126.651 30.4172 127.108 30.8362 128.022 31.0648L129.66 31.4647C131.241 31.8456 132.022 32.5693 132.022 33.9596C132.022 35.7309 130.498 36.8545 128.289 36.8545C126.099 36.8545 124.708 35.6928 124.708 33.9216ZM140.063 27.3129H141.835V36.626H140.235L140.044 35.2166C139.511 36.1879 138.273 36.8545 136.902 36.8545C134.731 36.8545 133.512 35.388 133.512 33.1026V27.3129H135.302V32.5122C135.302 34.512 136.159 35.2738 137.53 35.2738C139.168 35.2738 140.063 34.2263 140.063 32.2265V27.3129ZM146.775 36.8545C144.775 36.8545 143.594 35.7309 143.594 34.0358C143.594 32.3218 144.87 31.2552 147.06 31.0838L149.993 30.8553V30.5886C149.993 29.0269 149.06 28.4746 147.803 28.4746C146.298 28.4746 145.441 29.1412 145.441 30.2649H143.88C143.88 28.3223 145.48 27.0462 147.879 27.0462C150.184 27.0462 151.745 28.2651 151.745 30.7791V36.626H150.222L150.031 35.1214C149.555 36.1879 148.279 36.8545 146.775 36.8545ZM147.289 35.4642C148.984 35.4642 150.012 34.3596 150.012 32.6074V32.1123L147.632 32.3027C146.051 32.4551 145.403 33.0645 145.403 33.9787C145.403 34.969 146.127 35.4642 147.289 35.4642ZM155.672 36.626H153.882V22.6087H155.672V36.626ZM158.803 25.1036C158.155 25.1036 157.622 24.5704 157.622 23.9228C157.622 23.2562 158.155 22.742 158.803 22.742C159.45 22.742 159.984 23.2562 159.984 23.9228C159.984 24.5704 159.45 25.1036 158.803 25.1036ZM157.927 36.626V27.3129H159.717V36.626H157.927ZM168.62 36.626H161.364V35.1785L166.392 28.8174H161.364V27.3129H168.62V28.7793L163.554 35.1214H168.62V36.626ZM172.982 36.8545C170.982 36.8545 169.801 35.7309 169.801 34.0358C169.801 32.3218 171.077 31.2552 173.268 31.0838L176.201 30.8553V30.5886C176.201 29.0269 175.267 28.4746 174.01 28.4746C172.506 28.4746 171.649 29.1412 171.649 30.2649H170.087C170.087 28.3223 171.687 27.0462 174.086 27.0462C176.391 27.0462 177.953 28.2651 177.953 30.7791V36.626H176.429L176.239 35.1214C175.762 36.1879 174.486 36.8545 172.982 36.8545ZM173.496 35.4642C175.191 35.4642 176.22 34.3596 176.22 32.6074V32.1123L173.839 32.3027C172.258 32.4551 171.611 33.0645 171.611 33.9787C171.611 34.969 172.334 35.4642 173.496 35.4642ZM182.531 36.626H180.74V28.8174H178.912V27.3129H180.74V24.3989H182.531V27.3129H184.359V28.8174H182.531V36.626ZM186.461 25.1036C185.813 25.1036 185.28 24.5704 185.28 23.9228C185.28 23.2562 185.813 22.742 186.461 22.742C187.108 22.742 187.641 23.2562 187.641 23.9228C187.641 24.5704 187.108 25.1036 186.461 25.1036ZM185.585 36.626V27.3129H187.375V36.626H185.585ZM188.984 31.9599C188.984 29.0841 191.04 27.0653 193.84 27.0653C196.621 27.0653 198.678 29.0841 198.678 31.9599C198.678 34.8357 196.621 36.8545 193.84 36.8545C191.04 36.8545 188.984 34.8357 188.984 31.9599ZM190.793 31.9599C190.793 33.9025 192.031 35.2547 193.84 35.2547C195.63 35.2547 196.887 33.9025 196.887 31.9599C196.887 30.0173 195.63 28.6651 193.84 28.6651C192.031 28.6651 190.793 30.0173 190.793 31.9599ZM202.069 36.626H200.278V27.3129H201.897L202.088 28.7413C202.678 27.6747 203.859 27.0462 205.173 27.0462C207.63 27.0462 208.754 28.5508 208.754 30.9315V36.626H206.963V31.3314C206.963 29.4459 206.087 28.6841 204.716 28.6841C203.04 28.6841 202.069 29.884 202.069 31.6933V36.626Z" fill="white"/>
<g opacity="0.4">
<path d="M317.388 32.8003C317.388 32.8003 312.713 26.4519 311.04 26.4519C309.367 26.4519 304.691 32.8003 304.691 32.8003" stroke="white" stroke-width="1.5871" stroke-linecap="round" stroke-linejoin="round"/>
</g>
<path d="M16.9297 144.955C32.4694 135.816 36.0148 98.677 58.3688 95.7355C78.4173 93.0974 84.8027 131.469 104.248 124.903C113.292 121.849 115.598 113.017 124.227 108.496C133.719 103.524 140.67 107.189 150.127 102.116C167.366 92.8668 164.643 58.2034 183.426 59.2763C201.431 60.3048 196.65 95.1562 213.766 102.116C234.072 110.373 245.599 70.8058 265.565 80.2404C283.449 88.6916 274.256 125.187 292.944 130.372C312.492 135.795 317.203 86.7403 335.863 95.7355C348.408 101.783 346.078 118.941 355.843 130.372C361.373 136.846 364.847 140.106 371.382 144.955" stroke="url(#paint1_linear_1471_2644)" stroke-width="2.11613"/>
<rect x="28.0391" y="155.536" width="8.46454" height="10.5807" fill="white"/>
<rect x="46.0273" y="148.129" width="8.46454" height="17.9871" fill="white"/>
<rect x="64.0137" y="154.478" width="8.46454" height="11.6387" fill="white"/>
<rect x="82" y="147.071" width="8.46454" height="19.0452" fill="white"/>
<rect x="99.9883" y="154.478" width="8.46454" height="11.6387" fill="white"/>
<rect x="117.975" y="154.478" width="8.46454" height="11.6387" fill="white"/>
<rect x="135.963" y="155.536" width="8.46454" height="10.5807" fill="white"/>
<g filter="url(#filter0_dd_1471_2644)">
<rect x="153.949" y="141.781" width="8.46454" height="24.3356" fill="url(#paint2_linear_1471_2644)"/>
</g>
<g filter="url(#filter1_dd_1471_2644)">
<rect x="171.938" y="141.781" width="8.46454" height="24.3356" fill="url(#paint3_linear_1471_2644)"/>
</g>
<g filter="url(#filter2_dd_1471_2644)">
<rect x="189.924" y="125.91" width="8.46454" height="40.2066" fill="url(#paint4_linear_1471_2644)"/>
</g>
<g filter="url(#filter3_dd_1471_2644)">
<rect x="207.91" y="143.897" width="8.46454" height="22.2194" fill="url(#paint5_linear_1471_2644)"/>
</g>
<g filter="url(#filter4_dd_1471_2644)">
<rect x="225.898" y="139.665" width="8.46454" height="26.4517" fill="url(#paint6_linear_1471_2644)"/>
</g>
<rect x="243.885" y="148.129" width="8.46454" height="17.9871" fill="white"/>
<rect x="261.873" y="148.129" width="8.46454" height="17.9871" fill="white"/>
<rect x="279.859" y="148.129" width="8.46454" height="17.9871" fill="white"/>
<rect x="297.846" y="155.536" width="8.46454" height="10.5807" fill="white"/>
<rect x="315.834" y="150.246" width="8.46454" height="15.871" fill="white"/>
<rect x="333.82" y="144.955" width="8.46454" height="21.1614" fill="white"/>
<path d="M145.796 203.255C141.873 203.255 139.263 200.437 139.263 196.171C139.263 191.923 141.949 189.048 145.891 189.048C148.996 189.048 151.376 190.895 151.89 193.714H149.891C149.376 191.923 147.834 190.838 145.834 190.838C143.053 190.838 141.225 192.933 141.225 196.152C141.225 199.37 143.053 201.465 145.834 201.465C147.853 201.465 149.453 200.38 149.967 198.685H151.948C151.357 201.427 148.9 203.255 145.796 203.255ZM159.988 193.733H161.759V203.046H160.159L159.969 201.637C159.435 202.608 158.197 203.274 156.826 203.274C154.655 203.274 153.436 201.808 153.436 199.523V193.733H155.226V198.932C155.226 200.932 156.083 201.694 157.455 201.694C159.093 201.694 159.988 200.646 159.988 198.646V193.733ZM169.308 193.657V195.294H168.508C166.813 195.294 165.766 196.323 165.766 198.113V203.046H163.975V193.752H165.651L165.766 195.161C166.147 194.19 167.08 193.542 168.356 193.542C168.68 193.542 168.946 193.58 169.308 193.657ZM175.939 193.657V195.294H175.139C173.444 195.294 172.397 196.323 172.397 198.113V203.046H170.606V193.752H172.282L172.397 195.161C172.778 194.19 173.711 193.542 174.987 193.542C175.311 193.542 175.577 193.58 175.939 193.657ZM180.921 203.274C178.178 203.274 176.293 201.294 176.293 198.399C176.293 195.485 178.14 193.466 180.845 193.466C183.492 193.466 185.225 195.294 185.225 198.056V198.723L178.026 198.742C178.159 200.703 179.188 201.789 180.959 201.789C182.349 201.789 183.264 201.218 183.568 200.151H185.244C184.787 202.151 183.225 203.274 180.921 203.274ZM180.845 194.971C179.283 194.971 178.293 195.904 178.064 197.542H183.435C183.435 195.999 182.426 194.971 180.845 194.971ZM188.634 203.046H186.844V193.733H188.463L188.653 195.161C189.244 194.095 190.424 193.466 191.739 193.466C194.195 193.466 195.319 194.971 195.319 197.351V203.046H193.529V197.751C193.529 195.866 192.653 195.104 191.281 195.104C189.605 195.104 188.634 196.304 188.634 198.113V203.046ZM200.046 203.046H198.256V195.237H196.427V193.733H198.256V190.819H200.046V193.733H201.874V195.237H200.046V203.046Z" fill="#3EDC81"/>
<path d="M112.701 228.653H111.901C110.835 227.192 110.136 225.034 110.136 222.85C110.136 220.755 110.809 218.571 111.901 217.06H112.701C111.723 218.432 111.038 220.565 111.038 222.85C111.038 225.085 111.698 227.256 112.701 228.653ZM113.551 226.659H112.624L115.963 217.568H117.093L120.47 226.659H119.518L118.629 224.247H114.439L113.551 226.659ZM116.407 218.851L114.719 223.447H118.337L116.636 218.851C116.598 218.724 116.534 218.571 116.522 218.482C116.509 218.559 116.458 218.724 116.407 218.851ZM122.394 217.568V226.659H121.48V217.568H122.394ZM130.005 226.812C128.202 226.812 126.996 225.516 126.996 223.587C126.996 221.669 128.19 220.349 129.942 220.349C131.605 220.349 132.735 221.53 132.735 223.269V223.701H127.847C127.91 225.199 128.697 226.062 130.018 226.062C131.021 226.062 131.669 225.631 131.897 224.818H132.735C132.405 226.113 131.453 226.812 130.005 226.812ZM129.942 221.098C128.786 221.098 128.025 221.86 127.872 223.066H131.859C131.859 221.885 131.097 221.098 129.942 221.098ZM133.912 226.659H132.884L135.08 223.587L132.897 220.514H133.925L135.664 222.977L137.391 220.514H138.407L136.223 223.599L138.394 226.659H137.353L135.626 224.196L133.912 226.659ZM139.195 229.338V220.514H139.957L140.046 221.758C140.478 220.806 141.341 220.349 142.369 220.349C144.147 220.349 145.213 221.707 145.213 223.561C145.213 225.415 144.185 226.812 142.369 226.812C141.328 226.812 140.503 226.367 140.071 225.478V229.338H139.195ZM140.084 223.587C140.084 224.996 140.871 226.024 142.217 226.024C143.55 226.024 144.325 224.996 144.325 223.587C144.325 222.165 143.55 221.149 142.217 221.149C140.871 221.149 140.084 222.165 140.084 223.587ZM148.933 226.812C147.13 226.812 145.924 225.516 145.924 223.587C145.924 221.669 147.118 220.349 148.87 220.349C150.533 220.349 151.663 221.53 151.663 223.269V223.701H146.775C146.838 225.199 147.626 226.062 148.946 226.062C149.949 226.062 150.597 225.631 150.825 224.818H151.663C151.333 226.113 150.381 226.812 148.933 226.812ZM148.87 221.098C147.714 221.098 146.953 221.86 146.8 223.066H150.787C150.787 221.885 150.025 221.098 148.87 221.098ZM152.378 223.599C152.378 221.669 153.559 220.349 155.349 220.349C156.771 220.349 157.813 221.174 158.054 222.444H157.178C156.949 221.593 156.213 221.123 155.362 221.123C154.118 221.123 153.242 222.076 153.242 223.587C153.242 225.047 154.054 226.024 155.299 226.024C156.213 226.024 156.949 225.516 157.19 224.729H158.079C157.787 225.986 156.695 226.812 155.299 226.812C153.559 226.812 152.378 225.529 152.378 223.599ZM160.562 226.659H159.698V221.25H158.467V220.514H159.698V218.571H160.562V220.514H161.793V221.25H160.562V226.659ZM162.16 224.932H162.998C162.998 225.643 163.531 226.088 164.394 226.088C165.347 226.088 165.905 225.682 165.905 225.021C165.905 224.513 165.651 224.221 164.928 224.044L163.874 223.777C162.807 223.51 162.287 222.952 162.287 222.114C162.287 221.034 163.188 220.349 164.509 220.349C165.804 220.349 166.642 221.06 166.68 222.203H165.829C165.804 221.492 165.309 221.073 164.483 221.073C163.62 221.073 163.137 221.441 163.137 222.101C163.137 222.571 163.467 222.901 164.14 223.066L165.194 223.333C166.261 223.599 166.743 224.094 166.743 224.983C166.743 226.088 165.804 226.812 164.407 226.812C163.023 226.812 162.16 226.075 162.16 224.932ZM174.411 220.438V221.225H173.929C172.799 221.225 172.075 221.987 172.075 223.155V226.659H171.199V220.514H172.024L172.088 221.466C172.329 220.806 172.977 220.374 173.84 220.374C174.03 220.374 174.195 220.387 174.411 220.438ZM176.839 226.812C175.531 226.812 174.757 226.075 174.757 224.996C174.757 223.866 175.62 223.155 177.055 223.041L179.086 222.876V222.672C179.086 221.466 178.363 221.085 177.461 221.085C176.395 221.085 175.76 221.568 175.76 222.393H174.96C174.96 221.149 175.976 220.349 177.486 220.349C178.908 220.349 179.95 221.06 179.95 222.685V226.659H179.213L179.099 225.58C178.718 226.354 177.88 226.812 176.839 226.812ZM177.042 226.101C178.337 226.101 179.086 225.199 179.086 223.866V223.536L177.271 223.675C176.115 223.777 175.645 224.285 175.645 224.971C175.645 225.72 176.204 226.101 177.042 226.101ZM182.33 226.659H181.454V220.514H182.215L182.342 221.58C182.749 220.793 183.561 220.349 184.45 220.349C186.139 220.349 186.837 221.352 186.837 222.901V226.659H185.961V223.091C185.961 221.657 185.314 221.149 184.298 221.149C183.041 221.149 182.33 222.063 182.33 223.447V226.659ZM187.91 223.409C187.91 221.733 188.99 220.349 190.792 220.349C191.859 220.349 192.672 220.844 193.065 221.746L193.154 220.514H193.916V226.469C193.916 228.297 192.748 229.491 190.945 229.491C189.37 229.491 188.266 228.602 188.025 227.116H188.901C189.091 228.107 189.853 228.691 190.958 228.691C192.215 228.691 193.053 227.84 193.053 226.558V225.097C192.634 225.961 191.783 226.469 190.729 226.469C188.977 226.469 187.91 225.085 187.91 223.409ZM188.786 223.396C188.786 224.653 189.561 225.682 190.856 225.682C192.189 225.682 192.976 224.717 192.976 223.396C192.976 222.088 192.215 221.123 190.869 221.123C189.548 221.123 188.786 222.152 188.786 223.396ZM198.068 226.812C196.265 226.812 195.058 225.516 195.058 223.587C195.058 221.669 196.252 220.349 198.004 220.349C199.667 220.349 200.797 221.53 200.797 223.269V223.701H195.909C195.973 225.199 196.76 226.062 198.08 226.062C199.083 226.062 199.731 225.631 199.959 224.818H200.797C200.467 226.113 199.515 226.812 198.068 226.812ZM198.004 221.098C196.849 221.098 196.087 221.86 195.934 223.066H199.921C199.921 221.885 199.159 221.098 198.004 221.098ZM206.088 226.646H205.212V217.403H206.088V221.58C206.481 220.844 207.23 220.349 208.259 220.349C209.871 220.349 210.595 221.352 210.595 222.901V226.659H209.719V223.091C209.719 221.657 209.046 221.149 208.094 221.149C206.773 221.149 206.088 222.126 206.088 223.307V226.646ZM214.665 226.812C212.862 226.812 211.656 225.516 211.656 223.587C211.656 221.669 212.849 220.349 214.601 220.349C216.264 220.349 217.394 221.53 217.394 223.269V223.701H212.506C212.57 225.199 213.357 226.062 214.677 226.062C215.68 226.062 216.328 225.631 216.556 224.818H217.394C217.064 226.113 216.112 226.812 214.665 226.812ZM214.601 221.098C213.446 221.098 212.684 221.86 212.532 223.066H216.518C216.518 221.885 215.757 221.098 214.601 221.098ZM221.754 220.438V221.225H221.271C220.141 221.225 219.417 221.987 219.417 223.155V226.659H218.541V220.514H219.367L219.43 221.466C219.671 220.806 220.319 220.374 221.182 220.374C221.373 220.374 221.538 220.387 221.754 220.438ZM225.006 226.812C223.203 226.812 221.997 225.516 221.997 223.587C221.997 221.669 223.19 220.349 224.943 220.349C226.606 220.349 227.736 221.53 227.736 223.269V223.701H222.848C222.911 225.199 223.698 226.062 225.019 226.062C226.022 226.062 226.669 225.631 226.898 224.818H227.736C227.406 226.113 226.454 226.812 225.006 226.812ZM224.943 221.098C223.787 221.098 223.025 221.86 222.873 223.066H226.86C226.86 221.885 226.098 221.098 224.943 221.098ZM228.768 228.653H227.969C228.972 227.256 229.645 225.085 229.645 222.85C229.645 220.565 228.946 218.432 227.969 217.06H228.768C229.873 218.571 230.533 220.755 230.533 222.85C230.533 225.034 229.835 227.192 228.768 228.653Z" fill="white" fill-opacity="0.8"/>
<path d="M19.1691 256.649V255.194C16.9345 255.058 15.4617 253.788 15.3601 251.808H17.053C17.0869 252.891 17.8825 253.602 19.1691 253.738V249.522L18.5597 249.387C16.5621 248.93 15.5294 247.812 15.5294 246.069C15.5294 244.139 16.9684 242.768 19.1691 242.581V241.109H20.2526V242.564C22.301 242.751 23.6046 244.003 23.7231 245.967H22.0809C22.0132 244.884 21.353 244.19 20.2526 244.037V248.236L20.9128 248.388C22.9443 248.845 23.9262 249.912 23.9262 251.605C23.9262 253.619 22.4872 254.973 20.2526 255.177V256.649H19.1691ZM18.8983 247.914L19.1691 247.982V244.037C17.9164 244.207 17.1546 244.935 17.1546 246.018C17.1546 247 17.7132 247.626 18.8983 247.914ZM20.5742 249.861L20.2526 249.793V253.704C21.5223 253.534 22.301 252.807 22.301 251.74C22.301 250.758 21.7424 250.132 20.5742 249.861ZM27.4161 244.257H24.8429V242.768H29.0074V255.007H27.4161V244.257ZM33.6165 254.347C33.6165 255.566 32.7023 256.582 31.5004 256.734V256.023C32.1945 255.905 32.6854 255.447 32.6854 254.923C32.5669 254.99 32.4315 255.024 32.2283 255.024C31.6697 255.024 31.1957 254.618 31.1957 253.992C31.1957 253.314 31.6527 252.823 32.3299 252.823C33.0409 252.823 33.6165 253.416 33.6165 254.347ZM43.4585 254.99L35.1971 255.007V253.738L39.1416 250.335C41.1223 248.625 41.681 247.796 41.681 246.492C41.681 244.951 40.8007 244.037 39.3278 244.037C37.8211 244.037 36.8393 245.138 36.8054 246.881H35.1463C35.1971 244.257 36.8562 242.548 39.3448 242.548C41.7995 242.548 43.3739 244.037 43.3739 246.39C43.3739 248.134 42.5105 249.37 40.3436 251.249L37.8042 253.45H43.4585V254.99ZM44.6469 248.896C44.6469 245.104 46.6106 242.531 49.6917 242.531C52.7559 242.531 54.7197 245.104 54.7197 248.896C54.7197 252.705 52.8405 255.227 49.6917 255.227C46.526 255.227 44.6469 252.705 44.6469 248.896ZM46.289 248.896C46.289 251.909 47.5417 253.738 49.6917 253.738C51.8417 253.738 53.0775 251.909 53.0775 248.896C53.0775 245.849 51.8417 244.02 49.6917 244.02C47.5417 244.02 46.289 245.849 46.289 248.896ZM56.0462 248.896C56.0462 245.104 58.01 242.531 61.0911 242.531C64.1553 242.531 66.119 245.104 66.119 248.896C66.119 252.705 64.2399 255.227 61.0911 255.227C57.9254 255.227 56.0462 252.705 56.0462 248.896ZM57.6883 248.896C57.6883 251.909 58.9411 253.738 61.0911 253.738C63.2411 253.738 64.4769 251.909 64.4769 248.896C64.4769 245.849 63.2411 244.02 61.0911 244.02C58.9411 244.02 57.6883 245.849 57.6883 248.896Z" fill="white"/>
<path d="M273.202 256.649V255.194C270.968 255.058 269.495 253.788 269.393 251.808H271.086C271.12 252.891 271.916 253.602 273.202 253.738V249.522L272.593 249.387C270.595 248.93 269.563 247.812 269.563 246.069C269.563 244.139 271.002 242.768 273.202 242.581V241.109H274.286V242.564C276.334 242.751 277.638 244.003 277.756 245.967H276.114C276.046 244.884 275.386 244.19 274.286 244.037V248.236L274.946 248.388C276.978 248.845 277.959 249.912 277.959 251.605C277.959 253.619 276.52 254.973 274.286 255.177V256.649H273.202ZM272.931 247.914L273.202 247.982V244.037C271.95 244.207 271.188 244.935 271.188 246.018C271.188 247 271.746 247.626 272.931 247.914ZM274.607 249.861L274.286 249.793V253.704C275.555 253.534 276.334 252.807 276.334 251.74C276.334 250.758 275.776 250.132 274.607 249.861ZM281.449 244.257H278.876V242.768H283.041V255.007H281.449V244.257ZM287.65 254.347C287.65 255.566 286.736 256.582 285.534 256.734V256.023C286.228 255.905 286.719 255.447 286.719 254.923C286.6 254.99 286.465 255.024 286.262 255.024C285.703 255.024 285.229 254.618 285.229 253.992C285.229 253.314 285.686 252.823 286.363 252.823C287.074 252.823 287.65 253.416 287.65 254.347ZM297.492 254.99L289.23 255.007V253.738L293.175 250.335C295.156 248.625 295.714 247.796 295.714 246.492C295.714 244.951 294.834 244.037 293.361 244.037C291.854 244.037 290.872 245.138 290.839 246.881H289.18C289.23 244.257 290.889 242.548 293.378 242.548C295.833 242.548 297.407 244.037 297.407 246.39C297.407 248.134 296.544 249.37 294.377 251.249L291.837 253.45H297.492V254.99ZM301.082 244.257H298.509V242.768H302.674V255.007H301.082V244.257ZM308.622 255.21C306.116 255.21 304.491 253.619 304.491 251.181H306.133C306.133 252.756 307.098 253.721 308.656 253.721C310.315 253.721 311.381 252.62 311.381 250.961C311.381 249.387 310.382 248.219 308.673 248.219C307.64 248.219 306.692 248.71 306.133 249.404L304.728 249.048L306.218 242.768H312.346V244.291H307.42L306.607 247.542C307.251 247.051 308.063 246.797 308.977 246.797C311.466 246.797 313.074 248.54 313.074 250.894C313.074 253.433 311.263 255.21 308.622 255.21ZM314.172 248.896C314.172 245.104 316.135 242.531 319.216 242.531C322.281 242.531 324.244 245.104 324.244 248.896C324.244 252.705 322.365 255.227 319.216 255.227C316.051 255.227 314.172 252.705 314.172 248.896ZM315.814 248.896C315.814 251.909 317.066 253.738 319.216 253.738C321.366 253.738 322.602 251.909 322.602 248.896C322.602 245.849 321.366 244.02 319.216 244.02C317.066 244.02 315.814 245.849 315.814 248.896Z" fill="white"/>
</g>
<path d="M10.5811 0.5H330.086C335.653 0.5 340.167 5.01365 340.167 10.5811V269.728C340.167 275.295 335.653 279.809 330.086 279.809H10.5811C5.01365 279.809 0.5 275.295 0.5 269.728V10.5811C0.5 5.01365 5.01365 0.5 10.5811 0.5Z" stroke="url(#paint7_linear_1471_2644)"/>
<defs>
<filter id="filter0_dd_1471_2644" x="150.987" y="135.856" width="14.39" height="36.1858" filterUnits="userSpaceOnUse" color-interpolation-filters="sRGB">
<feFlood flood-opacity="0" result="BackgroundImageFix"/>
<feColorMatrix in="SourceAlpha" type="matrix" values="0 0 0 0 0 0 0 0 0 0 0 0 0 0 0 0 0 0 127 0" result="hardAlpha"/>
<feOffset dy="2.96259"/>
<feGaussianBlur stdDeviation="1.48129"/>
<feComposite in2="hardAlpha" operator="out"/>
<feColorMatrix type="matrix" values="0 0 0 0 0.164706 0 0 0 0 0.694118 0 0 0 0 0.388235 0 0 0 0.25 0"/>
<feBlend mode="normal" in2="BackgroundImageFix" result="effect1_dropShadow_1471_2644"/>
<feColorMatrix in="SourceAlpha" type="matrix" values="0 0 0 0 0 0 0 0 0 0 0 0 0 0 0 0 0 0 127 0" result="hardAlpha"/>
<feOffset dy="-2.96259"/>
<feGaussianBlur stdDeviation="1.48129"/>
<feComposite in2="hardAlpha" operator="out"/>
<feColorMatrix type="matrix" values="0 0 0 0 0.141176 0 0 0 0 0.643137 0 0 0 0 0.352941 0 0 0 0.25 0"/>
<feBlend mode="normal" in2="effect1_dropShadow_1471_2644" result="effect2_dropShadow_1471_2644"/>
<feBlend mode="normal" in="SourceGraphic" in2="effect2_dropShadow_1471_2644" result="shape"/>
</filter>
<filter id="filter1_dd_1471_2644" x="168.975" y="135.856" width="14.39" height="36.1858" filterUnits="userSpaceOnUse" color-interpolation-filters="sRGB">
<feFlood flood-opacity="0" result="BackgroundImageFix"/>
<feColorMatrix in="SourceAlpha" type="matrix" values="0 0 0 0 0 0 0 0 0 0 0 0 0 0 0 0 0 0 127 0" result="hardAlpha"/>
<feOffset dy="2.96259"/>
<feGaussianBlur stdDeviation="1.48129"/>
<feComposite in2="hardAlpha" operator="out"/>
<feColorMatrix type="matrix" values="0 0 0 0 0.164706 0 0 0 0 0.694118 0 0 0 0 0.388235 0 0 0 0.25 0"/>
<feBlend mode="normal" in2="BackgroundImageFix" result="effect1_dropShadow_1471_2644"/>
<feColorMatrix in="SourceAlpha" type="matrix" values="0 0 0 0 0 0 0 0 0 0 0 0 0 0 0 0 0 0 127 0" result="hardAlpha"/>
<feOffset dy="-2.96259"/>
<feGaussianBlur stdDeviation="1.48129"/>
<feComposite in2="hardAlpha" operator="out"/>
<feColorMatrix type="matrix" values="0 0 0 0 0.141176 0 0 0 0 0.643137 0 0 0 0 0.352941 0 0 0 0.25 0"/>
<feBlend mode="normal" in2="effect1_dropShadow_1471_2644" result="effect2_dropShadow_1471_2644"/>
<feBlend mode="normal" in="SourceGraphic" in2="effect2_dropShadow_1471_2644" result="shape"/>
</filter>
<filter id="filter2_dd_1471_2644" x="186.961" y="119.985" width="14.39" height="52.0569" filterUnits="userSpaceOnUse" color-interpolation-filters="sRGB">
<feFlood flood-opacity="0" result="BackgroundImageFix"/>
<feColorMatrix in="SourceAlpha" type="matrix" values="0 0 0 0 0 0 0 0 0 0 0 0 0 0 0 0 0 0 127 0" result="hardAlpha"/>
<feOffset dy="2.96259"/>
<feGaussianBlur stdDeviation="1.48129"/>
<feComposite in2="hardAlpha" operator="out"/>
<feColorMatrix type="matrix" values="0 0 0 0 0.164706 0 0 0 0 0.694118 0 0 0 0 0.388235 0 0 0 0.25 0"/>
<feBlend mode="normal" in2="BackgroundImageFix" result="effect1_dropShadow_1471_2644"/>
<feColorMatrix in="SourceAlpha" type="matrix" values="0 0 0 0 0 0 0 0 0 0 0 0 0 0 0 0 0 0 127 0" result="hardAlpha"/>
<feOffset dy="-2.96259"/>
<feGaussianBlur stdDeviation="1.48129"/>
<feComposite in2="hardAlpha" operator="out"/>
<feColorMatrix type="matrix" values="0 0 0 0 0.141176 0 0 0 0 0.643137 0 0 0 0 0.352941 0 0 0 0.25 0"/>
<feBlend mode="normal" in2="effect1_dropShadow_1471_2644" result="effect2_dropShadow_1471_2644"/>
<feBlend mode="normal" in="SourceGraphic" in2="effect2_dropShadow_1471_2644" result="shape"/>
</filter>
<filter id="filter3_dd_1471_2644" x="204.948" y="137.972" width="14.39" height="34.0696" filterUnits="userSpaceOnUse" color-interpolation-filters="sRGB">
<feFlood flood-opacity="0" result="BackgroundImageFix"/>
<feColorMatrix in="SourceAlpha" type="matrix" values="0 0 0 0 0 0 0 0 0 0 0 0 0 0 0 0 0 0 127 0" result="hardAlpha"/>
<feOffset dy="2.96259"/>
<feGaussianBlur stdDeviation="1.48129"/>
<feComposite in2="hardAlpha" operator="out"/>
<feColorMatrix type="matrix" values="0 0 0 0 0.164706 0 0 0 0 0.694118 0 0 0 0 0.388235 0 0 0 0.25 0"/>
<feBlend mode="normal" in2="BackgroundImageFix" result="effect1_dropShadow_1471_2644"/>
<feColorMatrix in="SourceAlpha" type="matrix" values="0 0 0 0 0 0 0 0 0 0 0 0 0 0 0 0 0 0 127 0" result="hardAlpha"/>
<feOffset dy="-2.96259"/>
<feGaussianBlur stdDeviation="1.48129"/>
<feComposite in2="hardAlpha" operator="out"/>
<feColorMatrix type="matrix" values="0 0 0 0 0.141176 0 0 0 0 0.643137 0 0 0 0 0.352941 0 0 0 0.25 0"/>
<feBlend mode="normal" in2="effect1_dropShadow_1471_2644" result="effect2_dropShadow_1471_2644"/>
<feBlend mode="normal" in="SourceGraphic" in2="effect2_dropShadow_1471_2644" result="shape"/>
</filter>
<filter id="filter4_dd_1471_2644" x="222.936" y="133.74" width="14.39" height="38.302" filterUnits="userSpaceOnUse" color-interpolation-filters="sRGB">
<feFlood flood-opacity="0" result="BackgroundImageFix"/>
<feColorMatrix in="SourceAlpha" type="matrix" values="0 0 0 0 0 0 0 0 0 0 0 0 0 0 0 0 0 0 127 0" result="hardAlpha"/>
<feOffset dy="2.96259"/>
<feGaussianBlur stdDeviation="1.48129"/>
<feComposite in2="hardAlpha" operator="out"/>
<feColorMatrix type="matrix" values="0 0 0 0 0.164706 0 0 0 0 0.694118 0 0 0 0 0.388235 0 0 0 0.25 0"/>
<feBlend mode="normal" in2="BackgroundImageFix" result="effect1_dropShadow_1471_2644"/>
<feColorMatrix in="SourceAlpha" type="matrix" values="0 0 0 0 0 0 0 0 0 0 0 0 0 0 0 0 0 0 127 0" result="hardAlpha"/>
<feOffset dy="-2.96259"/>
<feGaussianBlur stdDeviation="1.48129"/>
<feComposite in2="hardAlpha" operator="out"/>
<feColorMatrix type="matrix" values="0 0 0 0 0.141176 0 0 0 0 0.643137 0 0 0 0 0.352941 0 0 0 0.25 0"/>
<feBlend mode="normal" in2="effect1_dropShadow_1471_2644" result="effect2_dropShadow_1471_2644"/>
<feBlend mode="normal" in="SourceGraphic" in2="effect2_dropShadow_1471_2644" result="shape"/>
</filter>
<linearGradient id="paint0_linear_1471_2644" x1="170.333" y1="0" x2="170.333" y2="280.309" gradientUnits="userSpaceOnUse">
<stop stop-color="white" stop-opacity="0.4"/>
<stop offset="1" stop-color="white" stop-opacity="0"/>
</linearGradient>
<linearGradient id="paint1_linear_1471_2644" x1="13.7556" y1="101.853" x2="383.021" y2="101.853" gradientUnits="userSpaceOnUse">
<stop offset="0.0363835" stop-color="white" stop-opacity="0"/>
<stop offset="0.511371" stop-color="white" stop-opacity="0.4"/>
<stop offset="0.93241" stop-color="white" stop-opacity="0"/>
</linearGradient>
<linearGradient id="paint2_linear_1471_2644" x1="158.181" y1="141.781" x2="158.181" y2="166.117" gradientUnits="userSpaceOnUse">
<stop stop-color="#3EDC81"/>
<stop offset="1" stop-color="#198D4A"/>
</linearGradient>
<linearGradient id="paint3_linear_1471_2644" x1="176.17" y1="141.781" x2="176.17" y2="166.117" gradientUnits="userSpaceOnUse">
<stop stop-color="#3EDC81"/>
<stop offset="1" stop-color="#198D4A"/>
</linearGradient>
<linearGradient id="paint4_linear_1471_2644" x1="194.156" y1="125.91" x2="194.156" y2="166.117" gradientUnits="userSpaceOnUse">
<stop stop-color="#3EDC81"/>
<stop offset="1" stop-color="#198D4A"/>
</linearGradient>
<linearGradient id="paint5_linear_1471_2644" x1="212.142" y1="143.897" x2="212.142" y2="166.117" gradientUnits="userSpaceOnUse">
<stop stop-color="#3EDC81"/>
<stop offset="1" stop-color="#198D4A"/>
</linearGradient>
<linearGradient id="paint6_linear_1471_2644" x1="230.131" y1="139.665" x2="230.131" y2="166.117" gradientUnits="userSpaceOnUse">
<stop stop-color="#3EDC81"/>
<stop offset="1" stop-color="#198D4A"/>
</linearGradient>
<linearGradient id="paint7_linear_1471_2644" x1="-0.333493" y1="100.5" x2="332.167" y2="-10.5" gradientUnits="userSpaceOnUse">
<stop stop-color="#0276DB"/>
<stop offset="1" stop-color="#3EDC81"/>
</linearGradient>
<clipPath id="clip0_1471_2644">
<path d="M0 10.5807C0 4.73714 4.73713 0 10.5807 0H330.086C335.93 0 340.667 4.73713 340.667 10.5807V269.728C340.667 275.571 335.93 280.309 330.086 280.309H10.5807C4.73713 280.309 0 275.572 0 269.728V10.5807Z" fill="white"/>
</clipPath>
</defs>
</svg>
