<svg width="340" height="201" viewBox="0 0 340 201" fill="none" xmlns="http://www.w3.org/2000/svg">
<mask id="mask0_360_5243" style="mask-type:alpha" maskUnits="userSpaceOnUse" x="0" y="0" width="340" height="201">
<rect width="340" height="200" transform="translate(0 0.0654297)" fill="url(#paint0_radial_360_5243)"/>
</mask>
<g mask="url(#mask0_360_5243)">
<path d="M-38.1375 -68H469.529C476.043 -68 479.299 -68 481.787 -66.7324C483.976 -65.6173 485.755 -63.8381 486.87 -61.6497C488.138 -59.1618 488.138 -55.905 488.138 -49.3914V267.391C488.138 273.905 488.138 277.162 486.87 279.65C485.755 281.838 483.976 283.617 481.787 284.732C479.299 286 476.043 286 469.529 286H-19.5288C-26.0425 286 -29.2993 286 -31.7871 284.732C-33.9755 283.617 -35.7548 281.838 -36.8698 279.65C-38.1375 277.162 -38.1375 273.905 -38.1375 267.391V-68Z" fill="url(#paint1_linear_360_5243)" fill-opacity="0.6"/>
<path d="M469.53 -67.6367C472.792 -67.6367 475.217 -67.6364 477.138 -67.4795C479.055 -67.3229 480.438 -67.0116 481.622 -66.4082C483.742 -65.328 485.466 -63.6044 486.546 -61.4844C487.149 -60.3003 487.461 -58.9176 487.617 -57.001C487.774 -55.0799 487.775 -52.6543 487.775 -49.3916V267.392C487.775 270.654 487.774 273.08 487.617 275.001C487.461 276.918 487.149 278.3 486.546 279.484C485.466 281.604 483.742 283.328 481.622 284.408C480.438 285.012 479.055 285.323 477.138 285.479C475.217 285.636 472.792 285.637 469.53 285.637H-19.5291C-22.7918 285.637 -25.2173 285.636 -27.1384 285.479C-29.0551 285.323 -30.4378 285.011 -31.6218 284.408C-33.7418 283.328 -35.4655 281.604 -36.5457 279.484C-37.1489 278.3 -37.4603 276.918 -37.6169 275.001C-37.7739 273.08 -37.7742 270.654 -37.7742 267.392V-67.6367H469.53Z" stroke="white" stroke-opacity="0.05" stroke-width="0.726899"/>
<rect x="1.11499" y="-18.3706" width="0.557643" height="272.587" fill="#C4C4C4" fill-opacity="0.06"/>
<rect x="25.6575" y="-18.3706" width="0.557643" height="272.587" fill="#C4C4C4" fill-opacity="0.06"/>
<rect x="50.2002" y="-18.3706" width="0.557643" height="272.587" fill="#C4C4C4" fill-opacity="0.06"/>
<rect x="74.7427" y="-18.3706" width="0.557643" height="272.587" fill="#C4C4C4" fill-opacity="0.06"/>
<rect x="99.2852" y="-18.3706" width="0.557643" height="272.587" fill="#C4C4C4" fill-opacity="0.06"/>
<rect x="123.828" y="-18.3706" width="0.557643" height="272.587" fill="#C4C4C4" fill-opacity="0.06"/>
<rect x="148.371" y="-18.3706" width="0.557643" height="272.587" fill="#C4C4C4" fill-opacity="0.06"/>
<rect x="172.913" y="-18.3706" width="0.557643" height="272.587" fill="#C4C4C4" fill-opacity="0.06"/>
<rect x="197.456" y="-18.3706" width="0.557643" height="272.587" fill="#C4C4C4" fill-opacity="0.06"/>
<rect x="221.998" y="-18.3706" width="0.557643" height="272.587" fill="#C4C4C4" fill-opacity="0.06"/>
<rect x="246.541" y="-18.3706" width="0.557643" height="272.587" fill="#C4C4C4" fill-opacity="0.06"/>
<rect x="271.083" y="-18.3706" width="0.557643" height="272.587" fill="#C4C4C4" fill-opacity="0.06"/>
<rect x="295.626" y="-18.3706" width="0.557643" height="272.587" fill="#C4C4C4" fill-opacity="0.06"/>
<rect x="320.168" y="-18.3706" width="0.557643" height="272.587" fill="#C4C4C4" fill-opacity="0.06"/>
<rect x="-2.51953" y="180.004" width="0.752521" height="421.156" transform="rotate(-90 -2.51953 180.004)" fill="#C4C4C4" fill-opacity="0.06"/>
<rect x="-2.51953" y="155.267" width="0.752521" height="421.156" transform="rotate(-90 -2.51953 155.267)" fill="#C4C4C4" fill-opacity="0.06"/>
<rect x="-2.51953" y="130.529" width="0.752521" height="421.156" transform="rotate(-90 -2.51953 130.529)" fill="#C4C4C4" fill-opacity="0.06"/>
<rect x="-2.51953" y="105.792" width="0.752521" height="421.156" transform="rotate(-90 -2.51953 105.792)" fill="#C4C4C4" fill-opacity="0.06"/>
<rect x="-2.51953" y="81.0542" width="0.752521" height="421.156" transform="rotate(-90 -2.51953 81.0542)" fill="#C4C4C4" fill-opacity="0.06"/>
<rect x="-2.51953" y="56.3169" width="0.752521" height="421.156" transform="rotate(-90 -2.51953 56.3169)" fill="#C4C4C4" fill-opacity="0.06"/>
<rect x="-2.51953" y="31.5791" width="0.752521" height="421.156" transform="rotate(-90 -2.51953 31.5791)" fill="#C4C4C4" fill-opacity="0.06"/>
<rect x="-2.51953" y="6.8418" width="0.752521" height="421.156" transform="rotate(-90 -2.51953 6.8418)" fill="#C4C4C4" fill-opacity="0.06"/>
<rect x="305.095" y="29.0283" width="1.11529" height="4.57453" fill="#27AE60"/>
<rect x="302.865" y="33.6025" width="5.57643" height="104.324" fill="#27AE60"/>
<rect x="305.095" y="137.927" width="1.11529" height="3.24654" fill="#27AE60"/>
<rect x="188.314" y="31.2178" width="1.11529" height="4.57453" fill="#27AE60"/>
<rect x="186.084" y="35.792" width="5.57643" height="81.4486" fill="#27AE60"/>
<rect x="188.314" y="117.241" width="1.11529" height="3.24654" fill="#27AE60"/>
<rect x="135.234" y="34.1738" width="1.11529" height="4.57453" fill="#27AE60"/>
<rect x="133.003" y="38.7485" width="5.57643" height="104.324" fill="#27AE60"/>
<rect x="135.234" y="143.073" width="1.11529" height="3.24654" fill="#27AE60"/>
<rect x="315.712" y="34.7412" width="1.11529" height="4.57453" fill="#27AE60"/>
<rect x="313.481" y="39.3154" width="5.57643" height="104.324" fill="#27AE60"/>
<rect x="315.712" y="143.64" width="1.11529" height="3.24654" fill="#27AE60"/>
<rect x="326.329" y="36.4053" width="1.11529" height="3.72371" fill="#E10000"/>
<rect x="324.098" y="40.1289" width="5.57643" height="82.1049" fill="#E10000"/>
<rect x="326.329" y="122.234" width="1.11529" height="5.11493" fill="#E10000"/>
<rect x="145.851" y="38.0068" width="1.11529" height="3.72371" fill="#E10000"/>
<rect x="143.62" y="41.7305" width="5.57643" height="34.1224" fill="#E10000"/>
<rect x="145.851" y="75.853" width="1.11529" height="5.11493" fill="#E10000"/>
<rect x="198.931" y="39.7534" width="1.11529" height="4.30075" fill="#27AE60"/>
<rect x="196.7" y="44.0542" width="5.57643" height="10.5166" fill="#27AE60"/>
<rect x="198.931" y="54.5703" width="1.11529" height="4.1525" fill="#27AE60"/>
<rect x="209.545" y="47.1611" width="1.11529" height="4.30075" fill="#27AE60"/>
<rect x="207.314" y="51.4619" width="5.57643" height="10.5166" fill="#27AE60"/>
<rect x="209.545" y="61.9785" width="1.11529" height="4.1525" fill="#27AE60"/>
<rect x="220.165" y="48.5923" width="1.11529" height="10.6218" fill="#E10000"/>
<rect x="217.934" y="59.2139" width="5.57643" height="88.2089" fill="#E10000"/>
<rect x="220.165" y="147.423" width="1.11529" height="10.5246" fill="#E10000"/>
<rect x="177.7" y="49.2368" width="1.11529" height="4.57453" fill="#27AE60"/>
<rect x="175.47" y="53.811" width="5.57643" height="81.4486" fill="#27AE60"/>
<rect x="177.7" y="135.26" width="1.11529" height="3.24654" fill="#27AE60"/>
<rect x="156.464" y="62.1958" width="1.11529" height="3.72371" fill="#E10000"/>
<rect x="154.234" y="65.9194" width="5.57643" height="34.1224" fill="#E10000"/>
<rect x="156.464" y="100.042" width="1.11529" height="5.11493" fill="#E10000"/>
<rect x="336.942" y="79.3179" width="1.11529" height="3.72371" fill="#E10000"/>
<rect x="334.712" y="83.0415" width="5.57643" height="82.1049" fill="#E10000"/>
<rect x="336.942" y="165.146" width="1.11529" height="5.11493" fill="#E10000"/>
<rect x="124.62" y="85.502" width="1.11529" height="10.6218" fill="#27AE60"/>
<rect x="122.389" y="96.1235" width="5.57643" height="56.9645" fill="#27AE60"/>
<rect x="124.62" y="153.088" width="1.11529" height="10.5246" fill="#27AE60"/>
<rect x="283.865" y="86.0132" width="1.11529" height="4.30075" fill="#27AE60"/>
<rect x="281.634" y="90.314" width="5.57643" height="28.3705" fill="#27AE60"/>
<rect x="283.865" y="118.685" width="1.11529" height="4.1525" fill="#27AE60"/>
<rect x="294.479" y="92.7656" width="1.11529" height="3.72371" fill="#E10000"/>
<rect x="292.248" y="96.4893" width="5.57643" height="34.1224" fill="#E10000"/>
<rect x="294.479" y="130.612" width="1.11529" height="5.11493" fill="#E10000"/>
<rect x="167.084" y="95.5679" width="1.11529" height="3.72371" fill="#E10000"/>
<rect x="164.853" y="99.2915" width="5.57643" height="34.1224" fill="#E10000"/>
<rect x="167.084" y="133.414" width="1.11529" height="5.11493" fill="#E10000"/>
<rect x="7.83594" y="103.269" width="1.11529" height="10.6218" fill="#27AE60"/>
<rect x="5.60522" y="113.891" width="5.57643" height="56.9019" fill="#27AE60"/>
<rect x="7.83594" y="170.793" width="1.11529" height="10.5246" fill="#27AE60"/>
<rect x="273.248" y="104.348" width="1.11529" height="4.30075" fill="#27AE60"/>
<rect x="271.018" y="108.648" width="5.57643" height="28.3705" fill="#27AE60"/>
<rect x="273.248" y="137.019" width="1.11529" height="4.1525" fill="#27AE60"/>
<rect x="18.4526" y="106.301" width="1.11529" height="10.6218" fill="#27AE60"/>
<rect x="16.2222" y="116.923" width="5.57643" height="11.7718" fill="#27AE60"/>
<rect x="18.4526" y="128.695" width="1.11529" height="10.5246" fill="#27AE60"/>
<rect x="29.0693" y="108.937" width="1.11529" height="10.6218" fill="#E10000"/>
<rect x="26.8389" y="119.558" width="5.57643" height="88.2089" fill="#E10000"/>
<rect x="262.628" y="124.559" width="1.11529" height="4.30075" fill="#27AE60"/>
<rect x="260.398" y="128.86" width="5.57643" height="10.5166" fill="#27AE60"/>
<rect x="262.628" y="139.376" width="1.11529" height="4.1525" fill="#27AE60"/>
<rect x="252.012" y="127.137" width="1.11529" height="4.30075" fill="#27AE60"/>
<rect x="249.781" y="131.438" width="5.57643" height="10.5166" fill="#27AE60"/>
<rect x="252.012" y="141.955" width="1.11529" height="4.1525" fill="#27AE60"/>
<rect x="114.003" y="127.904" width="1.11529" height="10.6218" fill="#27AE60"/>
<rect x="111.772" y="138.525" width="5.57643" height="56.9645" fill="#27AE60"/>
<rect x="114.003" y="195.49" width="1.11529" height="10.5246" fill="#27AE60"/>
<rect x="241.395" y="130.32" width="1.11529" height="4.30075" fill="#27AE60"/>
<rect x="239.165" y="134.621" width="5.57643" height="10.5166" fill="#27AE60"/>
<rect x="241.395" y="145.138" width="1.11529" height="4.1525" fill="#27AE60"/>
<rect x="230.781" y="134.474" width="1.11529" height="4.30075" fill="#27AE60"/>
<rect x="228.551" y="138.775" width="5.57643" height="10.5166" fill="#27AE60"/>
<rect x="230.781" y="149.292" width="1.11529" height="4.1525" fill="#27AE60"/>
<rect x="82.1531" y="164.729" width="1.11529" height="4.30075" fill="#27AE60"/>
<rect x="79.9224" y="169.029" width="5.57643" height="28.3705" fill="#27AE60"/>
<rect x="82.1531" y="197.4" width="1.11529" height="4.1525" fill="#27AE60"/>
<rect x="92.7695" y="186.896" width="1.11529" height="4.30075" fill="#27AE60"/>
<rect x="90.5388" y="191.197" width="5.57643" height="10.5166" fill="#27AE60"/>
<rect x="71.5361" y="187.175" width="1.11529" height="4.30075" fill="#27AE60"/>
<rect x="69.3057" y="191.476" width="5.57643" height="10.5166" fill="#27AE60"/>
<rect x="103.384" y="189.324" width="1.11529" height="4.30075" fill="#27AE60"/>
<rect x="101.153" y="193.625" width="5.57643" height="10.5166" fill="#27AE60"/>
<rect x="60.9194" y="189.755" width="1.11529" height="4.30075" fill="#27AE60"/>
<rect x="58.6887" y="194.056" width="5.57643" height="10.5166" fill="#27AE60"/>
<rect x="50.303" y="192.936" width="1.11529" height="4.30075" fill="#27AE60"/>
<rect x="48.0723" y="197.237" width="5.57643" height="10.5166" fill="#27AE60"/>
<rect x="39.686" y="197.09" width="1.11529" height="4.30075" fill="#27AE60"/>
<line x1="1.67163" y1="59.0184" x2="418.355" y2="59.0183" stroke="#3EDC81" stroke-width="0.726899" stroke-dasharray="1.45 1.45"/>
<path d="M14.2575 -0.0107422L11.8032 -6.46325H12.7403L14.311 -2.34007C14.4538 -1.97416 14.5787 -1.60825 14.7126 -1.12632C14.8643 -1.63502 15.016 -2.06341 15.1231 -2.34899L16.685 -6.46325H17.5953L15.1678 -0.0107422H14.2575ZM17.2994 -2.19728C17.2994 -3.54489 18.2632 -4.4909 19.5751 -4.4909C20.8781 -4.4909 21.842 -3.54489 21.842 -2.19728C21.842 -0.849657 20.8781 0.0963533 19.5751 0.0963533C18.2632 0.0963533 17.2994 -0.849657 17.2994 -2.19728ZM18.1472 -2.19728C18.1472 -1.28696 18.7273 -0.653315 19.5751 -0.653315C20.4141 -0.653315 21.0031 -1.28696 21.0031 -2.19728C21.0031 -3.10759 20.4141 -3.74124 19.5751 -3.74124C18.7273 -3.74124 18.1472 -3.10759 18.1472 -2.19728ZM23.6274 -0.0107422H22.7885V-6.57927H23.6274V-0.0107422ZM27.8789 -4.37488H28.7089V-0.0107422H27.9592L27.87 -0.671165C27.6201 -0.216009 27.04 0.0963533 26.3974 0.0963533C25.38 0.0963533 24.8088 -0.590843 24.8088 -1.6618V-4.37488H25.6477V-1.93846C25.6477 -1.00138 26.0493 -0.644391 26.6919 -0.644391C27.4594 -0.644391 27.8789 -1.13525 27.8789 -2.07233V-4.37488ZM30.7649 -0.0107422H29.926V-4.37488H30.6757L30.756 -3.80371C30.9791 -4.21424 31.4432 -4.49983 32.059 -4.49983C32.7373 -4.49983 33.2192 -4.16069 33.4423 -3.61629C33.6476 -4.16069 34.1742 -4.49983 34.8524 -4.49983C35.852 -4.49983 36.4589 -3.87511 36.4589 -2.86662V-0.0107422H35.6378V-2.66136C35.6378 -3.34855 35.254 -3.74124 34.665 -3.74124C34.0314 -3.74124 33.6119 -3.295 33.6119 -2.59888V-0.0107422H32.7819V-2.67028C32.7819 -3.35748 32.4071 -3.73231 31.8181 -3.73231C31.1844 -3.73231 30.7649 -3.295 30.7649 -2.59888V-0.0107422ZM39.5049 0.0963533C38.2197 0.0963533 37.3362 -0.831808 37.3362 -2.18835C37.3362 -3.55382 38.2019 -4.49983 39.4692 -4.49983C40.7097 -4.49983 41.5218 -3.64307 41.5218 -2.34899V-2.03663L38.1483 -2.02771C38.2108 -1.10847 38.6927 -0.599768 39.5227 -0.599768C40.1742 -0.599768 40.6026 -0.867506 40.7454 -1.36729H41.5308C41.3166 -0.4302 40.5848 0.0963533 39.5049 0.0963533ZM39.4692 -3.79478C38.7374 -3.79478 38.2733 -3.35748 38.1662 -2.58996H40.6829C40.6829 -3.31285 40.2099 -3.79478 39.4692 -3.79478Z" fill="#C4C4C4"/>
<path d="M48.1718 1.0144V0.22903C47.0473 0.166558 46.2887 -0.476015 46.2173 -1.45772H46.8777C46.9134 -0.833 47.4042 -0.413543 48.1718 -0.35107V-2.83212L47.8237 -2.92136C46.8241 -3.16233 46.2976 -3.72458 46.2976 -4.59919C46.2976 -5.58983 47.0383 -6.27702 48.1718 -6.36627V-7.14271H48.6448V-6.36627C49.68 -6.29487 50.3583 -5.67015 50.4475 -4.66166H49.805C49.7425 -5.33101 49.332 -5.7237 48.6448 -5.79509V-3.34082L49.0374 -3.24265C50.0459 -2.99276 50.5546 -2.43051 50.5546 -1.57374C50.5546 -0.547412 49.8139 0.139784 48.6448 0.22903V1.0144H48.1718ZM47.9397 -3.51039L48.1718 -3.45684V-5.78617C47.4132 -5.70585 46.9312 -5.25962 46.9312 -4.60812C46.9312 -4.04587 47.2614 -3.67996 47.9397 -3.51039ZM48.9036 -2.65362L48.6448 -2.7161V-0.35107C49.4301 -0.431392 49.921 -0.877623 49.921 -1.53805C49.921 -2.11815 49.5908 -2.49298 48.9036 -2.65362ZM55.5478 0.130859H51.3353V-0.377844L53.3791 -2.16277C54.5571 -3.1891 54.8606 -3.63533 54.8606 -4.39393C54.8606 -5.25962 54.3429 -5.78617 53.4951 -5.78617C52.6115 -5.78617 52.0314 -5.14359 52.0047 -4.15296H51.3621C51.3978 -5.49166 52.2456 -6.37519 53.504 -6.37519C54.7088 -6.37519 55.5121 -5.59875 55.5121 -4.42963C55.5121 -3.50146 55.0926 -2.88566 53.8164 -1.77009L52.326 -0.467091H55.5478V0.130859ZM60.5766 0.130859H56.3641V-0.377844L58.4079 -2.16277C59.5859 -3.1891 59.8894 -3.63533 59.8894 -4.39393C59.8894 -5.25962 59.3717 -5.78617 58.5239 -5.78617C57.6404 -5.78617 57.0603 -5.14359 57.0335 -4.15296H56.3909C56.4266 -5.49166 57.2745 -6.37519 58.5328 -6.37519C59.7377 -6.37519 60.5409 -5.59875 60.5409 -4.42963C60.5409 -3.50146 60.1214 -2.88566 58.8452 -1.77009L57.3548 -0.467091H60.5766V0.130859ZM63.2493 -3.2962H62.7406V-3.74243L64.7129 -5.688H61.6518V-6.25917H65.5251V-5.74155L63.6152 -3.8406C64.8111 -3.77813 65.6679 -3.01953 65.6679 -1.85933C65.6679 -0.592035 64.7397 0.237955 63.4456 0.237955C62.1873 0.237955 61.3394 -0.538488 61.3394 -1.81471H61.9731C61.9731 -0.895473 62.5442 -0.342146 63.4456 -0.342146C64.4006 -0.342146 65.0164 -0.94902 65.0164 -1.87718C65.0164 -2.7518 64.3916 -3.2962 63.2493 -3.2962ZM67.4828 -6.25917V-2.41266L70.5618 -6.25917H71.3293L69.1606 -3.55501L71.365 0.130859H70.6153L68.7411 -3.01953L67.4828 -1.45772V0.130859H66.8402V-6.25917H67.4828Z" fill="#27AE60"/>
<rect x="169.012" y="42.9092" width="51.6304" height="13.8152" rx="2.9076" fill="#3EDC81"/>
<path d="M175.298 51.8169V47.566H176.99C177.828 47.566 178.339 48.0021 178.339 48.7116C178.339 49.1826 178.13 49.5199 177.729 49.6885C178.176 49.8339 178.403 50.1712 178.403 50.6655C178.403 51.3924 177.897 51.8169 177.019 51.8169H175.298ZM176.926 48.2231H176.042V49.3803H176.944C177.351 49.3803 177.577 49.1652 177.577 48.7872C177.577 48.4208 177.345 48.2231 176.926 48.2231ZM176.99 50.0084H176.042V51.1598H176.99C177.409 51.1598 177.641 50.9562 177.641 50.5724C177.641 50.2119 177.403 50.0084 176.99 50.0084ZM180.813 48.9442H181.522V51.8169H180.865L180.813 51.4331C180.638 51.7064 180.266 51.8925 179.882 51.8925C179.22 51.8925 178.83 51.4447 178.83 50.7411V48.9442H179.539V50.491C179.539 51.0377 179.755 51.2586 180.15 51.2586C180.598 51.2586 180.813 50.997 180.813 50.4503V48.9442ZM182.854 51.8169H182.15V47.4904H182.854V51.8169ZM184.197 51.8169H183.494V47.4904H184.197V51.8169ZM185.18 48.3685C184.936 48.3685 184.744 48.1766 184.744 47.9382C184.744 47.6997 184.936 47.5137 185.18 47.5137C185.412 47.5137 185.604 47.6997 185.604 47.9382C185.604 48.1766 185.412 48.3685 185.18 48.3685ZM184.825 51.8169V48.9442H185.535V51.8169H184.825ZM185.93 50.9446H186.605C186.611 51.1947 186.797 51.3517 187.122 51.3517C187.454 51.3517 187.634 51.2179 187.634 51.0086C187.634 50.8632 187.559 50.7585 187.303 50.7004L186.785 50.5783C186.268 50.462 186.018 50.2177 186.018 49.7583C186.018 49.1942 186.494 48.857 187.157 48.857C187.803 48.857 188.239 49.2291 188.245 49.7874H187.57C187.564 49.5432 187.402 49.3861 187.128 49.3861C186.849 49.3861 186.686 49.5141 186.686 49.7292C186.686 49.8921 186.814 49.9967 187.058 50.0549L187.576 50.177C188.059 50.2875 188.303 50.5085 188.303 50.9504C188.303 51.5319 187.809 51.8925 187.099 51.8925C186.384 51.8925 185.93 51.5087 185.93 50.9446ZM189.436 51.8169H188.727V47.4904H189.442V49.3164C189.622 49.0372 189.96 48.857 190.372 48.857C191.082 48.857 191.454 49.3047 191.454 50.0491V51.8169H190.745V50.2177C190.745 49.7351 190.506 49.5024 190.146 49.5024C189.698 49.5024 189.436 49.8165 189.436 50.2468V51.8169ZM195.271 50.3515H194.335V51.8169H193.591V47.566H195.271C196.126 47.566 196.678 48.1242 196.678 48.9558C196.678 49.7758 196.12 50.3515 195.271 50.3515ZM195.126 48.2289H194.335V49.6885H195.114C195.626 49.6885 195.899 49.4152 195.899 48.95C195.899 48.4848 195.62 48.2289 195.126 48.2289ZM198.227 51.8925C197.372 51.8925 196.773 51.2703 196.773 50.3805C196.773 49.4792 197.36 48.857 198.204 48.857C199.064 48.857 199.611 49.4327 199.611 50.3282V50.5434L197.448 50.5492C197.5 51.0551 197.767 51.311 198.238 51.311C198.628 51.311 198.884 51.1598 198.965 50.8865H199.622C199.5 51.5145 198.977 51.8925 198.227 51.8925ZM198.209 49.4385C197.791 49.4385 197.535 49.6653 197.465 50.0956H198.907C198.907 49.7002 198.634 49.4385 198.209 49.4385ZM200.772 51.8169H200.062V48.9442H200.719L200.778 49.3164C200.958 49.0256 201.307 48.857 201.696 48.857C202.417 48.857 202.79 49.3047 202.79 50.0491V51.8169H202.08V50.2177C202.08 49.7351 201.842 49.5024 201.475 49.5024C201.039 49.5024 200.772 49.8048 200.772 50.2701V51.8169ZM204.08 51.8169H203.37V48.9442H204.027L204.086 49.3164C204.266 49.0256 204.615 48.857 205.004 48.857C205.726 48.857 206.098 49.3047 206.098 50.0491V51.8169H205.388V50.2177C205.388 49.7351 205.15 49.5024 204.783 49.5024C204.347 49.5024 204.08 49.8048 204.08 50.2701V51.8169ZM207.533 51.8925C206.923 51.8925 206.551 51.5378 206.551 50.997C206.551 50.4678 206.934 50.1363 207.615 50.084L208.475 50.02V49.956C208.475 49.5664 208.243 49.4094 207.882 49.4094C207.464 49.4094 207.231 49.5839 207.231 49.8862H206.626C206.626 49.264 207.138 48.857 207.917 48.857C208.691 48.857 209.167 49.2757 209.167 50.0723V51.8169H208.545L208.493 51.3924C208.371 51.689 207.981 51.8925 207.533 51.8925ZM207.766 51.3575C208.202 51.3575 208.481 51.0958 208.481 50.6539V50.5027L207.882 50.5492C207.44 50.5899 207.272 50.7353 207.272 50.9679C207.272 51.2296 207.446 51.3575 207.766 51.3575ZM210.457 51.8169H209.748V48.9442H210.405L210.463 49.3164C210.644 49.0256 210.992 48.857 211.382 48.857C212.103 48.857 212.475 49.3047 212.475 50.0491V51.8169H211.766V50.2177C211.766 49.7351 211.527 49.5024 211.161 49.5024C210.725 49.5024 210.457 49.8048 210.457 50.2701V51.8169ZM214.033 51.8169H213.324V49.5373H212.771V48.9442H213.324V48.0486H214.033V48.9442H214.591V49.5373H214.033V51.8169Z" fill="black"/>
<path d="M217.504 160.774V60.6157L128.799 160.774H217.504Z" fill="#114FEE" fill-opacity="0.3" stroke="#114FEE" stroke-width="0.56708" stroke-dasharray="1.13 1.13"/>
<path d="M189.937 91.603L128.419 160.811H217.877L189.937 91.603Z" stroke="#114FEE" stroke-width="0.56708"/>
<rect x="125.398" y="162.35" width="6.80496" height="10.2074" rx="1.13416" fill="#114FEE"/>
<path d="M128.528 169.454H127.292V165.393H128.517C129.741 165.393 130.558 166.21 130.558 167.423C130.558 168.637 129.747 169.454 128.528 169.454ZM128.5 165.768H127.7V169.079H128.511C129.503 169.079 130.138 168.433 130.138 167.423C130.138 166.408 129.503 165.768 128.5 165.768Z" fill="white"/>
<rect x="214.474" y="162.35" width="6.80496" height="10.2074" rx="1.13416" fill="#114FEE"/>
<path d="M217.96 169.516C216.826 169.516 216.055 168.671 216.055 167.423C216.055 166.176 216.837 165.325 217.983 165.325C218.856 165.325 219.542 165.853 219.707 166.658H219.27C219.1 166.074 218.601 165.717 217.966 165.717C217.076 165.717 216.48 166.397 216.48 167.423C216.48 168.444 217.076 169.125 217.966 169.125C218.607 169.125 219.117 168.779 219.293 168.234H219.73C219.542 169 218.834 169.516 217.96 169.516Z" fill="white"/>
<rect x="184.901" y="78.9897" width="6.23788" height="10.2074" rx="1.13416" fill="#114FEE"/>
<path d="M186.686 86.0933H186.272L187.764 82.033H188.268L189.777 86.0933H189.352L188.955 85.0158H187.083L186.686 86.0933ZM187.962 82.6057L187.208 84.6586H188.824L188.064 82.6057C188.047 82.549 188.019 82.481 188.013 82.4413C188.008 82.4753 187.985 82.549 187.962 82.6057Z" fill="white"/>
</g>
<defs>
<radialGradient id="paint0_radial_360_5243" cx="0" cy="0" r="1" gradientUnits="userSpaceOnUse" gradientTransform="translate(170 100) rotate(90) scale(100 170)">
<stop offset="0.582781" stop-color="white" stop-opacity="0.8"/>
<stop offset="1" stop-color="white" stop-opacity="0"/>
</radialGradient>
<linearGradient id="paint1_linear_360_5243" x1="225" y1="-68" x2="225" y2="286" gradientUnits="userSpaceOnUse">
<stop stop-color="white" stop-opacity="0.1"/>
<stop offset="1" stop-color="white" stop-opacity="0.05"/>
</linearGradient>
</defs>
</svg>
