<svg width="1322" height="208" viewBox="0 0 1322 208" fill="none" xmlns="http://www.w3.org/2000/svg">
<path d="M0.12793 203.452V0.510986H85.3632C97.9262 0.510986 108.943 2.73368 118.414 7.17905C128.077 11.4312 135.519 17.616 140.737 25.7337C146.149 33.8513 148.855 43.5152 148.855 54.7253V57.9143C148.855 70.6706 145.762 80.9143 139.577 88.6454C133.586 96.1833 126.241 101.498 117.544 104.591V109.229C124.888 109.616 130.783 112.129 135.229 116.767C139.674 121.213 141.897 127.687 141.897 136.192V203.452H110.296V140.54C110.296 135.322 108.943 131.166 106.237 128.074C103.531 124.982 99.1825 123.435 93.191 123.435H31.4389V203.452H0.12793ZM31.4389 95.0236H81.8842C93.0943 95.0236 101.792 92.2211 107.977 86.616C114.162 80.8177 117.254 72.99 117.254 63.1328V60.8135C117.254 50.9564 114.162 43.2253 107.977 37.6202C101.985 31.8219 93.2876 28.9227 81.8842 28.9227H31.4389V95.0236Z" fill="url(#paint0_linear_683_1699)"/>
<path d="M235.202 207.511C220.706 207.511 208.047 204.515 197.223 198.524C186.4 192.339 177.895 183.738 171.711 172.721C165.719 161.511 162.723 148.561 162.723 133.872V130.393C162.723 115.511 165.719 102.561 171.711 91.5446C177.702 80.3345 186.013 71.7337 196.643 65.7421C207.467 59.5572 219.933 56.4648 234.043 56.4648C247.765 56.4648 259.748 59.5572 269.992 65.7421C280.429 71.7337 288.547 80.1412 294.345 90.9648C300.143 101.788 303.043 114.448 303.043 128.944V140.25H193.164C193.551 152.814 197.706 162.864 205.631 170.402C213.748 177.746 223.799 181.419 235.782 181.419C246.992 181.419 255.4 178.906 261.005 173.881C266.803 168.856 271.248 163.057 274.341 156.486L298.984 169.242C296.278 174.654 292.316 180.356 287.097 186.347C282.072 192.339 275.404 197.364 267.093 201.423C258.782 205.482 248.152 207.511 235.202 207.511ZM193.454 117.347H272.601C271.828 106.524 267.963 98.116 261.005 92.1244C254.047 85.9396 244.963 82.8471 233.753 82.8471C222.543 82.8471 213.362 85.9396 206.211 92.1244C199.253 98.116 195 106.524 193.454 117.347Z" fill="url(#paint1_linear_683_1699)"/>
<path d="M352.446 203.452L304.32 60.5236H335.921L373.9 181.419H378.538L416.517 60.5236H448.118L399.992 203.452H352.446Z" fill="url(#paint2_linear_683_1699)"/>
<path d="M524.473 207.511C510.17 207.511 497.414 204.612 486.204 198.814C475.187 192.822 466.489 184.318 460.111 173.301C453.733 162.284 450.544 149.238 450.544 134.162V129.814C450.544 114.738 453.733 101.788 460.111 90.9648C466.489 79.948 475.187 71.4438 486.204 65.4522C497.414 59.4606 510.17 56.4648 524.473 56.4648C538.775 56.4648 551.531 59.4606 562.742 65.4522C573.952 71.4438 582.746 79.948 589.124 90.9648C595.502 101.788 598.691 114.738 598.691 129.814V134.162C598.691 149.238 595.502 162.284 589.124 173.301C582.746 184.318 573.952 192.822 562.742 198.814C551.531 204.612 538.775 207.511 524.473 207.511ZM524.473 180.839C537.616 180.839 548.246 176.683 556.363 168.372C564.674 159.868 568.83 148.175 568.83 133.292V130.683C568.83 115.801 564.771 104.204 556.653 95.8933C548.536 87.3891 537.809 83.137 524.473 83.137C511.523 83.137 500.893 87.3891 492.582 95.8933C484.464 104.204 480.405 115.801 480.405 130.683V133.292C480.405 148.175 484.464 159.868 492.582 168.372C500.893 176.683 511.523 180.839 524.473 180.839Z" fill="url(#paint3_linear_683_1699)"/>
<path d="M621.373 203.452V0.510986H651.234V203.452H621.373Z" fill="url(#paint4_linear_683_1699)"/>
<path d="M735.849 206.061C725.025 206.061 715.361 203.645 706.857 198.814C698.353 193.982 691.685 187.12 686.853 178.229C682.021 169.339 679.605 158.708 679.605 146.339V60.5236H709.466V144.309C709.466 156.679 712.559 165.86 718.744 171.851C724.928 177.65 733.529 180.549 744.546 180.549C756.722 180.549 766.483 176.49 773.828 168.372C781.365 160.061 785.134 148.175 785.134 132.713V60.5236H814.996V203.452H785.714V181.998H781.075C778.37 187.797 773.538 193.305 766.58 198.524C759.622 203.549 749.378 206.061 735.849 206.061Z" fill="url(#paint5_linear_683_1699)"/>
<path d="M898.276 203.452C889.579 203.452 882.621 200.843 877.402 195.624C872.377 190.406 869.864 183.448 869.864 174.75V85.7463H830.436V60.5236H869.864V13.2673H899.726V60.5236H942.343V85.7463H899.726V169.532C899.726 175.33 902.432 178.229 907.843 178.229H937.705V203.452H898.276Z" fill="url(#paint6_linear_683_1699)"/>
<path d="M962.93 203.452V60.5236H992.791V203.452H962.93ZM978.005 41.0992C972.207 41.0992 967.278 39.2631 963.22 35.5908C959.354 31.7253 957.421 26.7967 957.421 20.8051C957.421 14.8135 959.354 9.98158 963.22 6.30932C967.278 2.44376 972.207 0.510986 978.005 0.510986C983.997 0.510986 988.925 2.44376 992.791 6.30932C996.657 9.98158 998.589 14.8135 998.589 20.8051C998.589 26.7967 996.657 31.7253 992.791 35.5908C988.925 39.2631 983.997 41.0992 978.005 41.0992Z" fill="url(#paint7_linear_683_1699)"/>
<path d="M1089.58 207.511C1075.28 207.511 1062.52 204.612 1051.31 198.814C1040.3 192.822 1031.6 184.318 1025.22 173.301C1018.84 162.284 1015.65 149.238 1015.65 134.162V129.814C1015.65 114.738 1018.84 101.788 1025.22 90.9648C1031.6 79.948 1040.3 71.4438 1051.31 65.4522C1062.52 59.4606 1075.28 56.4648 1089.58 56.4648C1103.88 56.4648 1116.64 59.4606 1127.85 65.4522C1139.06 71.4438 1147.86 79.948 1154.23 90.9648C1160.61 101.788 1163.8 114.738 1163.8 129.814V134.162C1163.8 149.238 1160.61 162.284 1154.23 173.301C1147.86 184.318 1139.06 192.822 1127.85 198.814C1116.64 204.612 1103.88 207.511 1089.58 207.511ZM1089.58 180.839C1102.73 180.839 1113.36 176.683 1121.47 168.372C1129.78 159.868 1133.94 148.175 1133.94 133.292V130.683C1133.94 115.801 1129.88 104.204 1121.76 95.8933C1113.65 87.3891 1102.92 83.137 1089.58 83.137C1076.63 83.137 1066 87.3891 1057.69 95.8933C1049.57 104.204 1045.52 115.801 1045.52 130.683V133.292C1045.52 148.175 1049.57 159.868 1057.69 168.372C1066 176.683 1076.63 180.839 1089.58 180.839Z" fill="url(#paint8_linear_683_1699)"/>
<path d="M1186.48 203.452V60.5236H1215.76V81.9774H1220.4C1223.11 76.1791 1227.94 70.7673 1234.9 65.7421C1241.86 60.7169 1252.2 58.2043 1265.92 58.2043C1276.74 58.2043 1286.31 60.6202 1294.62 65.4522C1303.13 70.2841 1309.79 77.1454 1314.63 86.0362C1319.46 94.7337 1321.87 105.267 1321.87 117.637V203.452H1292.01V119.956C1292.01 107.587 1288.92 98.5026 1282.73 92.7043C1276.55 86.7127 1268.05 83.7169 1257.22 83.7169C1244.85 83.7169 1234.9 87.7757 1227.36 95.8933C1220.02 104.011 1216.34 115.801 1216.34 131.263V203.452H1186.48Z" fill="url(#paint9_linear_683_1699)"/>
<defs>
<linearGradient id="paint0_linear_683_1699" x1="-19.8157" y1="193.674" x2="693.118" y2="-38.1873" gradientUnits="userSpaceOnUse">
<stop stop-color="#0276DB"/>
<stop offset="1" stop-color="#3EDC81"/>
</linearGradient>
<linearGradient id="paint1_linear_683_1699" x1="-19.8157" y1="193.674" x2="693.118" y2="-38.1873" gradientUnits="userSpaceOnUse">
<stop stop-color="#0276DB"/>
<stop offset="1" stop-color="#3EDC81"/>
</linearGradient>
<linearGradient id="paint2_linear_683_1699" x1="-19.8157" y1="193.674" x2="693.118" y2="-38.1873" gradientUnits="userSpaceOnUse">
<stop stop-color="#0276DB"/>
<stop offset="1" stop-color="#3EDC81"/>
</linearGradient>
<linearGradient id="paint3_linear_683_1699" x1="-19.8157" y1="193.674" x2="693.118" y2="-38.1873" gradientUnits="userSpaceOnUse">
<stop stop-color="#0276DB"/>
<stop offset="1" stop-color="#3EDC81"/>
</linearGradient>
<linearGradient id="paint4_linear_683_1699" x1="-19.8157" y1="193.674" x2="693.118" y2="-38.1873" gradientUnits="userSpaceOnUse">
<stop stop-color="#0276DB"/>
<stop offset="1" stop-color="#3EDC81"/>
</linearGradient>
<linearGradient id="paint5_linear_683_1699" x1="-19.8157" y1="193.674" x2="693.118" y2="-38.1873" gradientUnits="userSpaceOnUse">
<stop stop-color="#0276DB"/>
<stop offset="1" stop-color="#3EDC81"/>
</linearGradient>
<linearGradient id="paint6_linear_683_1699" x1="-19.8157" y1="193.674" x2="693.118" y2="-38.1873" gradientUnits="userSpaceOnUse">
<stop stop-color="#0276DB"/>
<stop offset="1" stop-color="#3EDC81"/>
</linearGradient>
<linearGradient id="paint7_linear_683_1699" x1="-19.8157" y1="193.674" x2="693.118" y2="-38.1873" gradientUnits="userSpaceOnUse">
<stop stop-color="#0276DB"/>
<stop offset="1" stop-color="#3EDC81"/>
</linearGradient>
<linearGradient id="paint8_linear_683_1699" x1="-19.8157" y1="193.674" x2="693.118" y2="-38.1873" gradientUnits="userSpaceOnUse">
<stop stop-color="#0276DB"/>
<stop offset="1" stop-color="#3EDC81"/>
</linearGradient>
<linearGradient id="paint9_linear_683_1699" x1="-19.8157" y1="193.674" x2="693.118" y2="-38.1873" gradientUnits="userSpaceOnUse">
<stop stop-color="#0276DB"/>
<stop offset="1" stop-color="#3EDC81"/>
</linearGradient>
</defs>
</svg>
