<svg width="291" height="201" viewBox="0 0 291 201" fill="none" xmlns="http://www.w3.org/2000/svg">
<path d="M134.191 110.689H132.427V97.6752H137.341C140.131 97.6752 141.787 99.1512 141.787 101.581C141.787 103.381 140.887 104.677 139.267 105.199L141.913 110.689H139.951L137.521 105.541H134.191V110.689ZM134.191 99.2592V103.975H137.359C138.997 103.975 139.933 103.093 139.933 101.599C139.933 100.087 138.961 99.2592 137.341 99.2592H134.191ZM144.654 99.7992C144.042 99.7992 143.538 99.2952 143.538 98.6832C143.538 98.0532 144.042 97.5672 144.654 97.5672C145.266 97.5672 145.77 98.0532 145.77 98.6832C145.77 99.2952 145.266 99.7992 144.654 99.7992ZM143.826 110.689V101.887H145.518V110.689H143.826ZM147.165 108.133H148.785C148.785 109.033 149.469 109.573 150.585 109.573C151.773 109.573 152.457 109.087 152.457 108.277C152.457 107.683 152.169 107.323 151.251 107.089L149.703 106.729C148.137 106.351 147.399 105.577 147.399 104.281C147.399 102.661 148.767 101.635 150.711 101.635C152.637 101.635 153.897 102.715 153.933 104.389H152.313C152.277 103.507 151.683 102.949 150.657 102.949C149.595 102.949 149.001 103.417 149.001 104.227C149.001 104.821 149.433 105.217 150.297 105.433L151.845 105.811C153.339 106.171 154.077 106.855 154.077 108.169C154.077 109.843 152.637 110.905 150.549 110.905C148.479 110.905 147.165 109.807 147.165 108.133ZM157.591 110.689H155.899V97.4412H157.591V106.027L161.497 101.887H163.621L160.255 105.397L163.603 110.689H161.659L159.085 106.621L157.591 108.187V110.689Z" fill="white"/>
<path d="M124.649 150.689H122.101V131.891H124.649V139.977H133.957V131.891H136.505V150.689H133.957V142.343H124.649V150.689ZM141.515 134.959C140.631 134.959 139.903 134.231 139.903 133.347C139.903 132.437 140.631 131.735 141.515 131.735C142.399 131.735 143.127 132.437 143.127 133.347C143.127 134.231 142.399 134.959 141.515 134.959ZM140.319 150.689V137.975H142.763V150.689H140.319ZM145.375 144.007C145.375 140.419 147.689 137.611 151.381 137.611C153.435 137.611 155.021 138.547 155.827 140.133L156.009 137.975H158.193V150.169C158.193 154.173 155.723 156.721 151.823 156.721C148.365 156.721 145.999 154.771 145.531 151.547H147.975C148.287 153.419 149.691 154.511 151.823 154.511C154.215 154.511 155.775 152.951 155.775 150.533V147.985C154.943 149.467 153.279 150.351 151.277 150.351C147.663 150.351 145.375 147.569 145.375 144.007ZM147.819 143.955C147.819 146.347 149.301 148.219 151.693 148.219C154.163 148.219 155.671 146.451 155.671 143.955C155.671 141.511 154.215 139.743 151.719 139.743C149.275 139.743 147.819 141.615 147.819 143.955ZM164.034 150.663H161.59V131.553H164.034V139.925C164.84 138.547 166.374 137.611 168.35 137.611C171.6 137.611 173.16 139.665 173.16 142.915V150.689H170.716V143.461C170.716 140.887 169.494 139.847 167.674 139.847C165.308 139.847 164.034 141.563 164.034 143.747V150.663Z" fill="#DB392A"/>
<path d="M57.8472 158.689C57.8472 135.615 67.2766 113.487 84.0611 97.1709C100.846 80.8553 123.61 71.6892 147.347 71.6892C171.084 71.6892 193.849 80.8553 210.633 97.1709C227.418 113.487 236.847 135.615 236.847 158.689" stroke="url(#paint0_linear_360_3175)" stroke-linecap="round" stroke-dasharray="0 0.56 5.58 0 0.56 5.58"/>
<path d="M19.1282 175.121V185.233H24.2162V186.689H17.5602V175.121H19.1282ZM24.9154 182.769C24.9154 180.353 26.6434 178.657 28.9954 178.657C31.3314 178.657 33.0594 180.353 33.0594 182.769C33.0594 185.185 31.3314 186.881 28.9954 186.881C26.6434 186.881 24.9154 185.185 24.9154 182.769ZM26.4354 182.769C26.4354 184.401 27.4754 185.537 28.9954 185.537C30.4994 185.537 31.5554 184.401 31.5554 182.769C31.5554 181.137 30.4994 180.001 28.9954 180.001C27.4754 180.001 26.4354 181.137 26.4354 182.769ZM35.9649 186.689L33.4049 178.865H34.9569L36.2529 182.929C36.4289 183.505 36.5889 184.097 36.7329 184.785C36.8609 184.097 37.0689 183.441 37.2449 182.929L38.5569 178.865H40.0929L41.3889 182.929C41.5169 183.313 41.7729 184.225 41.9009 184.785C42.0289 184.161 42.1729 183.617 42.3969 182.929L43.7089 178.865H45.2769L42.6049 186.689H41.1809L39.8209 182.497C39.5649 181.713 39.4049 181.105 39.3249 180.673C39.2449 181.057 39.1009 181.569 38.8129 182.513L37.4529 186.689H35.9649Z" fill="#3EDC81"/>
<path d="M258.879 186.689H257.311V175.121H258.879V180.097H264.607V175.121H266.175V186.689H264.607V181.553H258.879V186.689ZM269.258 177.009C268.714 177.009 268.266 176.561 268.266 176.017C268.266 175.457 268.714 175.025 269.258 175.025C269.802 175.025 270.25 175.457 270.25 176.017C270.25 176.561 269.802 177.009 269.258 177.009ZM268.522 186.689V178.865H270.026V186.689H268.522ZM271.634 182.577C271.634 180.369 273.058 178.641 275.33 178.641C276.594 178.641 277.57 179.217 278.066 180.193L278.178 178.865H279.522V186.369C279.522 188.833 278.002 190.401 275.602 190.401C273.474 190.401 272.018 189.201 271.73 187.217H273.234C273.426 188.369 274.29 189.041 275.602 189.041C277.074 189.041 278.034 188.081 278.034 186.593V185.025C277.522 185.937 276.498 186.481 275.266 186.481C273.042 186.481 271.634 184.769 271.634 182.577ZM273.138 182.545C273.138 184.017 274.05 185.169 275.522 185.169C277.042 185.169 277.97 184.081 277.97 182.545C277.97 181.041 277.074 179.953 275.538 179.953C274.034 179.953 273.138 181.105 273.138 182.545ZM283.116 186.673H281.612V174.913H283.116V180.065C283.612 179.217 284.556 178.641 285.772 178.641C287.772 178.641 288.732 179.905 288.732 181.905V186.689H287.228V182.241C287.228 180.657 286.476 180.017 285.356 180.017C283.9 180.017 283.116 181.073 283.116 182.417V186.673Z" fill="#DB392A"/>
<path d="M278.847 162.189C278.847 127.313 264.993 93.8657 240.332 69.2047C215.671 44.5436 182.223 30.6892 147.347 30.6892C112.471 30.6892 79.0237 44.5436 54.3626 69.2047C29.7016 93.8657 15.8472 127.313 15.8472 162.189H47.4072C47.4072 135.683 57.9365 110.263 76.6789 91.5209C95.4213 72.7786 120.841 62.2492 147.347 62.2492C173.853 62.2492 199.273 72.7786 218.015 91.521C236.758 110.263 247.287 135.683 247.287 162.189H278.847Z" fill="white" fill-opacity="0.1"/>
<path d="M278.847 162.189C278.847 144.92 275.446 127.821 268.837 111.866C262.229 95.912 252.543 81.4156 240.332 69.2047C228.121 56.9938 213.624 47.3075 197.67 40.699C181.716 34.0906 164.616 30.6892 147.347 30.6892C130.078 30.6892 112.979 34.0906 97.0243 40.6991C81.07 47.3075 66.5735 56.9938 54.3626 69.2047C42.1517 81.4156 32.4655 95.912 25.857 111.866C19.2485 127.821 15.8472 144.92 15.8472 162.189H47.4072C47.4072 149.065 49.9922 136.069 55.0146 123.944C60.0371 111.819 67.3986 100.801 76.6789 91.521C85.9592 82.2407 96.9765 74.8791 109.102 69.8567C121.227 64.8342 134.223 62.2492 147.347 62.2492C160.471 62.2492 173.467 64.8342 185.593 69.8567C197.718 74.8791 208.735 82.2407 218.015 91.521C227.296 100.801 234.657 111.819 239.68 123.944C244.702 136.069 247.287 149.065 247.287 162.189H278.847Z" fill="url(#paint1_linear_360_3175)"/>
<g filter="url(#filter0_d_360_3175)">
<path d="M246.949 151.725L278.247 148.168" stroke="white" stroke-width="3"/>
</g>
<path d="M117.918 15.6892H116.19V2.67521H117.918L122.4 13.6192L126.882 2.67521H128.646V15.6892H126.918V10.5412C126.918 8.11121 126.936 7.22921 127.026 6.31121L123.228 15.6892H121.572L117.792 6.34721C117.882 6.97721 117.918 8.30921 117.918 10.1272V15.6892ZM135.096 15.9052C132.504 15.9052 130.722 14.0332 130.722 11.2972C130.722 8.54321 132.468 6.63521 135.024 6.63521C137.526 6.63521 139.164 8.36321 139.164 10.9732V11.6032L132.36 11.6212C132.486 13.4752 133.458 14.5012 135.132 14.5012C136.446 14.5012 137.31 13.9612 137.598 12.9532H139.182C138.75 14.8432 137.274 15.9052 135.096 15.9052ZM135.024 8.05721C133.548 8.05721 132.612 8.93921 132.396 10.4872H137.472C137.472 9.02921 136.518 8.05721 135.024 8.05721ZM144.492 15.9052C141.936 15.9052 140.388 13.9972 140.388 11.3152C140.388 8.61521 141.954 6.63521 144.564 6.63521C145.914 6.63521 147.048 7.22921 147.642 8.30921V2.44121H149.316V15.6892H147.804L147.66 14.0872C147.084 15.2932 145.896 15.9052 144.492 15.9052ZM144.834 14.3752C146.562 14.3752 147.624 13.0972 147.624 11.2612C147.624 9.46121 146.562 8.16521 144.834 8.16521C143.106 8.16521 142.098 9.46121 142.098 11.2612C142.098 13.0792 143.106 14.3752 144.834 14.3752ZM152.495 4.79921C151.883 4.79921 151.379 4.29521 151.379 3.68321C151.379 3.05321 151.883 2.56721 152.495 2.56721C153.107 2.56721 153.611 3.05321 153.611 3.68321C153.611 4.29521 153.107 4.79921 152.495 4.79921ZM151.667 15.6892V6.88721H153.359V15.6892H151.667ZM161.264 6.88721H162.938V15.6892H161.426L161.246 14.3572C160.742 15.2752 159.572 15.9052 158.276 15.9052C156.224 15.9052 155.072 14.5192 155.072 12.3592V6.88721H156.764V11.8012C156.764 13.6912 157.574 14.4112 158.87 14.4112C160.418 14.4112 161.264 13.4212 161.264 11.5312V6.88721ZM166.995 15.6892H165.303V6.88721H166.815L166.977 8.03921C167.427 7.21121 168.363 6.63521 169.605 6.63521C170.973 6.63521 171.945 7.31921 172.395 8.41721C172.809 7.31921 173.871 6.63521 175.239 6.63521C177.255 6.63521 178.479 7.89521 178.479 9.92921V15.6892H176.823V10.3432C176.823 8.95721 176.049 8.16521 174.861 8.16521C173.583 8.16521 172.737 9.06521 172.737 10.4692V15.6892H171.063V10.3252C171.063 8.93921 170.307 8.18321 169.119 8.18321C167.841 8.18321 166.995 9.06521 166.995 10.4692V15.6892Z" fill="#F59D31"/>
<defs>
<filter id="filter0_d_360_3175" x="242.78" y="146.677" width="39.6372" height="14.5386" filterUnits="userSpaceOnUse" color-interpolation-filters="sRGB">
<feFlood flood-opacity="0" result="BackgroundImageFix"/>
<feColorMatrix in="SourceAlpha" type="matrix" values="0 0 0 0 0 0 0 0 0 0 0 0 0 0 0 0 0 0 127 0" result="hardAlpha"/>
<feOffset dy="4"/>
<feGaussianBlur stdDeviation="2"/>
<feComposite in2="hardAlpha" operator="out"/>
<feColorMatrix type="matrix" values="0 0 0 0 0 0 0 0 0 0 0 0 0 0 0 0 0 0 0.25 0"/>
<feBlend mode="normal" in2="BackgroundImageFix" result="effect1_dropShadow_360_3175"/>
<feBlend mode="normal" in="SourceGraphic" in2="effect1_dropShadow_360_3175" result="shape"/>
</filter>
<linearGradient id="paint0_linear_360_3175" x1="64.9148" y1="115.189" x2="227.922" y2="115.189" gradientUnits="userSpaceOnUse">
<stop stop-color="#1AF273"/>
<stop offset="0.842874" stop-color="#FF6135"/>
<stop offset="1" stop-color="#FF1400"/>
</linearGradient>
<linearGradient id="paint1_linear_360_3175" x1="15.6392" y1="154.689" x2="278.639" y2="154.689" gradientUnits="userSpaceOnUse">
<stop stop-color="#15B359"/>
<stop offset="0.5" stop-color="#C96144"/>
<stop offset="1" stop-color="#DC3527"/>
</linearGradient>
</defs>
</svg>
