<svg width="239" height="190" viewBox="0 0 239 190" fill="none" xmlns="http://www.w3.org/2000/svg">
<g clip-path="url(#clip0_1086_2988)">
<mask id="path-1-inside-1_1086_2988" fill="white">
<path d="M0.5 0.167236H238.5V189.167H0.5V0.167236Z"/>
</mask>
<path d="M0.5 0.167236H238.5V189.167H0.5V0.167236Z" fill="url(#paint0_linear_1086_2988)" fill-opacity="0.05"/>
<mask id="mask0_1086_2988" style="mask-type:alpha" maskUnits="userSpaceOnUse" x="0" y="4" width="239" height="141">
<rect width="238" height="140" transform="translate(0.5 4.16724)" fill="url(#paint1_linear_1086_2988)"/>
</mask>
<g mask="url(#mask0_1086_2988)">
<path d="M17.5049 -196.727H387.344C392.089 -196.727 394.461 -196.727 396.274 -195.803C397.868 -194.991 399.164 -193.695 399.977 -192.101C400.9 -190.288 400.9 -187.916 400.9 -183.17V130.748C400.9 135.493 400.9 137.866 399.977 139.678C399.164 141.272 397.868 142.569 396.274 143.381C394.461 144.304 392.089 144.304 387.344 144.304H31.0614C26.3162 144.304 23.9436 144.304 22.1311 143.381C20.5369 142.569 19.2407 141.272 18.4284 139.678C17.5049 137.866 17.5049 135.493 17.5049 130.748V-196.727Z" fill="url(#paint2_linear_1086_2988)" fill-opacity="0.8"/>
<path d="M387.344 -196.462C389.72 -196.462 391.487 -196.462 392.887 -196.348C394.283 -196.234 395.291 -196.007 396.153 -195.568C397.698 -194.781 398.954 -193.525 399.741 -191.981C400.181 -191.118 400.406 -190.11 400.521 -188.714C400.635 -187.315 400.636 -185.547 400.636 -183.17V130.748C400.636 133.125 400.635 134.891 400.521 136.291C400.406 137.687 400.181 138.696 399.741 139.558C398.954 141.103 397.698 142.358 396.153 143.145C395.291 143.585 394.283 143.81 392.887 143.925C391.487 144.039 389.721 144.04 387.344 144.04H31.0615C28.6845 144.04 26.9172 144.039 25.5176 143.925C24.1213 143.81 23.1135 143.585 22.251 143.145C20.7067 142.358 19.451 141.103 18.6641 139.558C18.2245 138.696 17.9979 137.687 17.8838 136.291C17.7695 134.891 17.7695 133.125 17.7695 130.748V-196.462H387.344Z" stroke="white" stroke-opacity="0.05" stroke-width="0.529552"/>
<path d="M32.8778 8.14091C32.8769 8.14091 32.8769 6.10983 32.8769 6.10983L30.0324 6.10861C30.0332 6.10861 30.0332 8.13969 30.0332 8.13969L32.8778 8.14091ZM29.627 6.10983C29.6268 6.05642 29.6372 6.0035 29.6575 5.9541C29.6778 5.90469 29.7076 5.85978 29.7452 5.82192C29.7829 5.78405 29.8276 5.75399 29.8769 5.73344C29.9262 5.71289 29.979 5.70226 30.0324 5.70215H32.8778C33.1016 5.70215 33.2832 5.88018 33.2832 6.10983V8.13969C33.2834 8.1931 33.273 8.24602 33.2527 8.29542C33.2324 8.34482 33.2026 8.38974 33.1649 8.4276C33.1273 8.46546 33.0825 8.49553 33.0333 8.51608C32.984 8.53663 32.9311 8.54726 32.8778 8.54737H30.0324C29.9789 8.54764 29.9259 8.53727 29.8765 8.51685C29.827 8.49643 29.7821 8.46638 29.7444 8.42844C29.7067 8.39051 29.6769 8.34544 29.6567 8.29587C29.6365 8.24629 29.6264 8.19321 29.627 8.13969V6.10983Z" fill="white"/>
<path fill-rule="evenodd" clip-rule="evenodd" d="M31.251 6.92065H31.6572V7.73357H31.251V6.92065Z" fill="white"/>
<path d="M32.4687 4.6868C32.4687 4.4173 32.3617 4.15884 32.1713 3.96828C31.9808 3.77771 31.7225 3.67065 31.4531 3.67065C31.1838 3.67065 30.9254 3.77771 30.735 3.96828C30.5445 4.15884 30.4375 4.4173 30.4375 4.6868V5.90619H30.8437V4.6868C30.8437 4.5251 30.9079 4.37003 31.0222 4.25569C31.1365 4.14135 31.2915 4.07711 31.4531 4.07711C31.6147 4.07711 31.7697 4.14135 31.884 4.25569C31.9983 4.37003 32.0625 4.5251 32.0625 4.6868V4.89003H32.4687V4.6868Z" fill="white"/>
<path d="M24.752 4.77017C24.752 4.66238 24.7948 4.55901 24.871 4.4828L29.399 -0.047606C29.4556 -0.104262 29.5228 -0.149207 29.5968 -0.179871C29.6707 -0.210535 29.75 -0.226318 29.83 -0.226318C29.9101 -0.226318 29.9894 -0.210535 30.0633 -0.179871C30.1373 -0.149207 30.2045 -0.104262 30.2611 -0.047606L31.3112 1.00309C31.3678 1.05971 31.4128 1.12694 31.4434 1.20094C31.4741 1.27494 31.4898 1.35425 31.4898 1.43435C31.4898 1.51445 31.4741 1.59376 31.4434 1.66776C31.4128 1.74175 31.3678 1.80898 31.3112 1.8656L26.7832 6.39601C26.707 6.47224 26.6037 6.51508 26.496 6.5151H25.1582C25.0505 6.5151 24.9471 6.47228 24.8709 6.39605C24.7948 6.31983 24.752 6.21644 24.752 6.10864V4.77017ZM25.1582 4.77017V6.10864H26.496L31.024 1.57824C31.0429 1.55936 31.0579 1.53693 31.0682 1.51224C31.0784 1.48755 31.0837 1.46108 31.0837 1.43435C31.0837 1.40762 31.0784 1.38115 31.0682 1.35646C31.0579 1.33177 31.0429 1.30934 31.024 1.29046L29.9739 0.239761C29.955 0.220835 29.9326 0.205819 29.9079 0.195574C29.8832 0.185329 29.8568 0.180055 29.83 0.180055C29.8033 0.180055 29.7769 0.185329 29.7522 0.195574C29.7275 0.205819 29.7051 0.220835 29.6862 0.239761L25.1582 4.77017Z" fill="white"/>
<path d="M28.873 0.764825L30.498 2.39067L30.7856 2.10289L29.1606 0.477051L28.873 0.764825ZM25.2168 4.42297L26.8418 6.04881L27.1294 5.76103L25.5044 4.13519L25.2168 4.42297Z" fill="white"/>
<path d="M29.6855 1.29199L26.0293 4.95013L26.3169 5.23791L29.9731 1.57977L29.6855 1.29199Z" fill="white"/>
<path fill-rule="evenodd" clip-rule="evenodd" d="M29.2197 19.1108C28.8965 19.1108 28.5865 19.2393 28.3579 19.468C28.1294 19.6966 28.001 20.0068 28.001 20.3302V21.5496H31.4541C31.7234 21.5496 31.9817 21.6566 32.1722 21.8472C32.3627 22.0378 32.4697 22.2962 32.4697 22.5657V25.4109C32.4697 25.5444 32.4434 25.6765 32.3924 25.7998C32.3413 25.9231 32.2665 26.0351 32.1722 26.1295C32.0779 26.2238 31.9659 26.2987 31.8427 26.3497C31.7195 26.4008 31.5874 26.4271 31.4541 26.4271H26.9853C26.852 26.4271 26.7199 26.4008 26.5967 26.3497C26.4735 26.2987 26.3615 26.2238 26.2672 26.1295C26.1729 26.0351 26.0981 25.9231 26.047 25.7998C25.996 25.6765 25.9697 25.5444 25.9697 25.4109V22.5657C25.9697 22.2962 26.0767 22.0378 26.2672 21.8472C26.4577 21.6566 26.716 21.5496 26.9853 21.5496H27.5947V20.3302C27.5947 19.899 27.7659 19.4854 28.0707 19.1805C28.3754 18.8756 28.7887 18.7043 29.2197 18.7043C29.6507 18.7043 30.064 18.8756 30.3687 19.1805C30.6735 19.4854 30.8447 19.899 30.8447 20.3302H30.4384C30.4384 20.0068 30.31 19.6966 30.0815 19.468C29.8529 19.2393 29.5429 19.1108 29.2197 19.1108ZM28.8135 23.5819C28.8135 23.4741 28.8563 23.3707 28.9324 23.2945C29.0086 23.2182 29.112 23.1754 29.2197 23.1754C29.3274 23.1754 29.4308 23.2182 29.507 23.2945C29.5831 23.3707 29.6259 23.4741 29.6259 23.5819V24.3948C29.6259 24.5026 29.5831 24.606 29.507 24.6822C29.4308 24.7584 29.3274 24.8012 29.2197 24.8012C29.112 24.8012 29.0086 24.7584 28.9324 24.6822C28.8563 24.606 28.8135 24.5026 28.8135 24.3948V23.5819ZM26.376 22.5657C26.376 22.2284 26.6482 21.956 26.9853 21.956H31.4541C31.7912 21.956 32.0634 22.2284 32.0634 22.5657V25.4109C32.0634 25.7483 31.7912 26.0206 31.4541 26.0206H26.9853C26.8237 26.0206 26.6687 25.9564 26.5545 25.8421C26.4402 25.7277 26.376 25.5726 26.376 25.4109V22.5657Z" fill="white"/>
<path fill-rule="evenodd" clip-rule="evenodd" d="M25.5652 38.9278L25.3987 38.6351L25.3865 38.6189L25.3987 38.6026C25.6337 38.1772 25.9188 37.7815 26.2477 37.4239C26.8449 36.7735 27.7102 36.1557 28.8152 36.1557C29.9243 36.1557 30.7855 36.7776 31.3867 37.4239C31.7143 37.7818 31.9979 38.1775 32.2317 38.6026L32.2439 38.6189L32.2317 38.6351C31.9967 39.0605 31.7117 39.4562 31.3827 39.8139C30.7855 40.4642 29.9202 41.082 28.8152 41.082C27.7062 41.082 26.8449 40.4601 26.2437 39.8139C25.9923 39.5397 25.7666 39.2431 25.5693 38.9278H25.5652ZM32.6542 38.5295L32.4714 38.6189L32.6542 38.7083L32.6502 38.7164C32.6311 38.755 32.6107 38.7929 32.5892 38.8302C32.3386 39.2849 32.0344 39.7079 31.6833 40.0903C31.0496 40.7772 30.0827 41.4885 28.8152 41.4885C27.5477 41.4885 26.5808 40.7772 25.9471 40.0903C25.5668 39.6761 25.2418 39.2143 24.9802 38.7164V38.7083H24.9762L25.159 38.6189L24.9762 38.5295L24.9802 38.5213C24.9994 38.4828 25.0197 38.4448 25.0412 38.4075C25.2918 37.9528 25.5959 37.5298 25.9471 37.1475C26.5808 36.4606 27.5477 35.7493 28.8152 35.7493C30.0827 35.7493 31.0496 36.4606 31.6833 37.1475C32.0636 37.5617 32.3886 38.0235 32.6502 38.5213V38.5295H32.6542ZM32.4714 38.6189L32.6542 38.5295L32.6949 38.6189L32.6542 38.7083L32.4714 38.6189ZM24.9762 38.5295L25.159 38.6189L24.9762 38.7083L24.9355 38.6189L24.9762 38.5295ZM27.7387 38.6189C27.7408 38.4797 27.7703 38.3424 27.8256 38.2147C27.8809 38.087 27.9609 37.9716 28.0609 37.8749C28.1609 37.7782 28.2791 37.7022 28.4085 37.6513C28.5379 37.6005 28.6762 37.5756 28.8152 37.5783C28.9543 37.5756 29.0925 37.6005 29.2219 37.6513C29.3514 37.7022 29.4695 37.7782 29.5695 37.8749C29.6695 37.9716 29.7495 38.087 29.8048 38.2147C29.8601 38.3424 29.8896 38.4797 29.8918 38.6189C29.8896 38.758 29.8601 38.8954 29.8048 39.023C29.7495 39.1507 29.6695 39.2662 29.5695 39.3629C29.4695 39.4596 29.3514 39.5355 29.2219 39.5864C29.0925 39.6373 28.9543 39.6621 28.8152 39.6594C28.6762 39.6621 28.5379 39.6373 28.4085 39.5864C28.2791 39.5355 28.1609 39.4596 28.0609 39.3629C27.9609 39.2662 27.8809 39.1507 27.8256 39.023C27.7703 38.8954 27.7408 38.758 27.7387 38.6189ZM28.8152 37.1719C28.6228 37.1692 28.4318 37.2045 28.253 37.2758C28.0743 37.3472 27.9114 37.4531 27.7737 37.5875C27.6359 37.7219 27.526 37.8822 27.4503 38.0592C27.3746 38.2362 27.3345 38.4264 27.3324 38.6189C27.3345 38.8114 27.3746 39.0016 27.4503 39.1786C27.526 39.3556 27.6359 39.5159 27.7737 39.6503C27.9114 39.7847 28.0743 39.8906 28.253 39.9619C28.4318 40.0332 28.6228 40.0686 28.8152 40.0659C29.6277 40.0659 30.298 39.4237 30.298 38.6189C30.2959 38.4264 30.2558 38.2362 30.1801 38.0592C30.1044 37.8822 29.9945 37.7219 29.8568 37.5875C29.719 37.4531 29.5561 37.3472 29.3774 37.2758C29.1986 37.2045 29.0076 37.1692 28.8152 37.1719ZM32.0042 42.0494L32.3292 41.7242L32.6136 42.0128L32.2927 42.338C32.2555 42.376 32.2346 42.4271 32.2346 42.4802C32.2346 42.5334 32.2555 42.5845 32.2927 42.6225L32.5324 42.8623C32.6136 42.9436 32.7355 42.9436 32.8167 42.8623L33.548 42.1307L33.8324 42.4193L33.1052 43.1509C32.9909 43.2651 32.836 43.3292 32.6745 43.3292C32.5131 43.3292 32.3582 43.2651 32.2439 43.1509L32.0042 42.9111C31.8901 42.7968 31.826 42.6418 31.826 42.4802C31.826 42.3187 31.8901 42.1637 32.0042 42.0494ZM30.2371 43.2932L30.0949 43.1509C30.0845 43.1594 30.075 43.169 30.0664 43.1794L29.6602 43.789L29.254 44.3987C29.2332 44.4295 29.2212 44.4653 29.2194 44.5024C29.2175 44.5394 29.2258 44.5763 29.2434 44.6089C29.261 44.6416 29.2871 44.6688 29.3191 44.6876C29.351 44.7065 29.3875 44.7162 29.4246 44.7158H31.0496C31.3158 44.7077 31.5682 44.5953 31.7524 44.4028C31.9448 44.2185 32.0571 43.966 32.0652 43.6996C32.0571 43.4333 31.9448 43.1807 31.7524 42.9965C31.5682 42.804 31.3158 42.6916 31.0496 42.6835C30.8081 42.6961 30.5754 42.7779 30.3793 42.9192C30.2797 42.9858 30.186 43.0606 30.0989 43.1428V43.1468H30.0949L30.2371 43.2932ZM30.3955 43.4232L30.0014 44.0167L29.8024 44.3093H31.0496C31.1877 44.3093 31.3421 44.2402 31.4639 44.1142C31.5858 43.9923 31.6589 43.8378 31.6589 43.6996C31.6589 43.5614 31.5899 43.407 31.4639 43.285C31.3421 43.1631 31.1877 43.0899 31.0496 43.0899C30.9074 43.0899 30.7449 43.1631 30.6027 43.2607C30.5296 43.3095 30.4603 43.3639 30.3955 43.4232Z" fill="white"/>
<rect x="46.1006" y="-159.478" width="0.406247" height="283.777" fill="#C4C4C4" fill-opacity="0.06"/>
<rect x="63.9805" y="-159.478" width="0.406247" height="283.777" fill="#C4C4C4" fill-opacity="0.06"/>
<rect x="81.8594" y="-159.478" width="0.406247" height="283.777" fill="#C4C4C4" fill-opacity="0.06"/>
<rect x="99.7393" y="-159.478" width="0.406247" height="283.777" fill="#C4C4C4" fill-opacity="0.06"/>
<rect x="117.618" y="-159.478" width="0.406247" height="283.777" fill="#C4C4C4" fill-opacity="0.06"/>
<rect x="135.498" y="-159.478" width="0.406247" height="283.777" fill="#C4C4C4" fill-opacity="0.06"/>
<rect x="153.377" y="-159.478" width="0.406247" height="283.777" fill="#C4C4C4" fill-opacity="0.06"/>
<rect x="171.257" y="-159.478" width="0.406247" height="283.777" fill="#C4C4C4" fill-opacity="0.06"/>
<rect x="189.136" y="-159.478" width="0.406247" height="283.777" fill="#C4C4C4" fill-opacity="0.06"/>
<rect x="207.016" y="-159.478" width="0.406247" height="283.777" fill="#C4C4C4" fill-opacity="0.06"/>
<rect x="224.896" y="-159.478" width="0.406247" height="283.777" fill="#C4C4C4" fill-opacity="0.06"/>
<rect x="43.4531" y="39.1035" width="0.548217" height="306.815" transform="rotate(-90 43.4531 39.1035)" fill="#C4C4C4" fill-opacity="0.06"/>
<rect x="43.4531" y="21.0823" width="0.548217" height="306.815" transform="rotate(-90 43.4531 21.0823)" fill="#C4C4C4" fill-opacity="0.06"/>
<rect x="64.8398" y="-58.9966" width="4.06247" height="64.2609" fill="#E10000"/>
<rect x="66.4648" y="5.26416" width="0.812494" height="7.66728" fill="#E10000"/>
<rect x="120.604" y="2.6228" width="0.812494" height="3.02513" fill="#27AE60"/>
<rect x="89.668" y="2.93726" width="0.812494" height="3.02513" fill="#27AE60"/>
<rect x="80.3086" y="-2.40698" width="4.06247" height="7.66139" fill="#27AE60"/>
<rect x="81.9336" y="5.25439" width="0.812494" height="3.02513" fill="#27AE60"/>
<rect x="72.5742" y="0.619385" width="4.06247" height="7.66139" fill="#27AE60"/>
<rect x="74.1992" y="8.28076" width="0.812494" height="3.02513" fill="#27AE60"/>
<path d="M40.6292 134.362C40.6292 133.087 41.2891 132.223 42.3245 132.223C43.3542 132.223 44.0141 133.087 44.0141 134.362C44.0141 135.642 43.3827 136.489 42.3245 136.489C41.2607 136.489 40.6292 135.642 40.6292 134.362ZM41.181 134.362C41.181 135.374 41.602 135.989 42.3245 135.989C43.047 135.989 43.4623 135.374 43.4623 134.362C43.4623 133.338 43.047 132.723 42.3245 132.723C41.602 132.723 41.181 133.338 41.181 134.362ZM44.5623 135.272C44.5623 134.777 44.8524 134.379 45.3076 134.214C44.9207 134.049 44.7102 133.725 44.7102 133.309C44.7102 132.667 45.2621 132.228 46.0813 132.228C46.8891 132.228 47.4352 132.667 47.4352 133.315C47.4352 133.736 47.2191 134.06 46.8322 134.214C47.293 134.362 47.5888 134.771 47.5888 135.278C47.5888 136 46.9858 136.484 46.0756 136.484C45.1597 136.484 44.5623 136 44.5623 135.272ZM45.2222 133.343C45.2222 133.747 45.5579 134.009 46.0699 134.009C46.5876 134.009 46.9118 133.753 46.9118 133.355C46.9118 132.962 46.5876 132.712 46.0699 132.712C45.5579 132.712 45.2222 132.962 45.2222 133.343ZM45.1085 135.232C45.1085 135.693 45.4896 135.989 46.0756 135.989C46.6558 135.989 47.037 135.693 47.037 135.232C47.037 134.777 46.6615 134.487 46.0699 134.487C45.4839 134.487 45.1085 134.777 45.1085 135.232ZM48.6925 134.35C48.4706 134.35 48.2829 134.168 48.2829 133.958C48.2829 133.736 48.4706 133.554 48.6925 133.554C48.9087 133.554 49.0964 133.736 49.0964 133.958C49.0964 134.168 48.9087 134.35 48.6925 134.35ZM48.6925 136.484C48.4706 136.484 48.2829 136.302 48.2829 136.086C48.2829 135.864 48.4706 135.682 48.6925 135.682C48.9087 135.682 49.0964 135.864 49.0964 136.086C49.0964 136.302 48.9087 136.484 48.6925 136.484ZM49.8126 134.362C49.8126 133.087 50.4726 132.223 51.5079 132.223C52.5376 132.223 53.1976 133.087 53.1976 134.362C53.1976 135.642 52.5661 136.489 51.5079 136.489C50.4441 136.489 49.8126 135.642 49.8126 134.362ZM50.3645 134.362C50.3645 135.374 50.7854 135.989 51.5079 135.989C52.2304 135.989 52.6457 135.374 52.6457 134.362C52.6457 133.338 52.2304 132.723 51.5079 132.723C50.7854 132.723 50.3645 133.338 50.3645 134.362ZM53.7571 134.362C53.7571 133.087 54.417 132.223 55.4524 132.223C56.4821 132.223 57.142 133.087 57.142 134.362C57.142 135.642 56.5106 136.489 55.4524 136.489C54.3886 136.489 53.7571 135.642 53.7571 134.362ZM54.3089 134.362C54.3089 135.374 54.7299 135.989 55.4524 135.989C56.1749 135.989 56.5902 135.374 56.5902 134.362C56.5902 133.338 56.1749 132.723 55.4524 132.723C54.7299 132.723 54.3089 133.338 54.3089 134.362Z" fill="#C4C4C4"/>
<path d="M79.7599 134.362C79.7599 133.087 80.4198 132.223 81.4552 132.223C82.4849 132.223 83.1448 133.087 83.1448 134.362C83.1448 135.642 82.5133 136.489 81.4552 136.489C80.3914 136.489 79.7599 135.642 79.7599 134.362ZM80.3117 134.362C80.3117 135.374 80.7327 135.989 81.4552 135.989C82.1777 135.989 82.593 135.374 82.593 134.362C82.593 133.338 82.1777 132.723 81.4552 132.723C80.7327 132.723 80.3117 133.338 80.3117 134.362ZM86.0994 135.113L85.138 136.416H84.4895L85.5192 135.05C85.3769 135.107 85.229 135.136 85.0868 135.136C84.2334 135.136 83.6589 134.521 83.6589 133.702C83.6589 132.849 84.3074 132.228 85.1551 132.228C86.0084 132.228 86.6683 132.871 86.6683 133.708C86.6683 134.191 86.5204 134.538 86.0994 135.113ZM86.0994 133.702C86.0994 133.139 85.7126 132.729 85.1551 132.729C84.6089 132.729 84.2221 133.139 84.2221 133.702C84.2221 134.265 84.6089 134.663 85.1551 134.663C85.7126 134.663 86.0994 134.265 86.0994 133.702ZM87.7454 134.35C87.5235 134.35 87.3358 134.168 87.3358 133.958C87.3358 133.736 87.5235 133.554 87.7454 133.554C87.9616 133.554 88.1493 133.736 88.1493 133.958C88.1493 134.168 87.9616 134.35 87.7454 134.35ZM87.7454 136.484C87.5235 136.484 87.3358 136.302 87.3358 136.086C87.3358 135.864 87.5235 135.682 87.7454 135.682C87.9616 135.682 88.1493 135.864 88.1493 136.086C88.1493 136.302 87.9616 136.484 87.7454 136.484ZM88.8655 134.362C88.8655 133.087 89.5255 132.223 90.5608 132.223C91.5905 132.223 92.2505 133.087 92.2505 134.362C92.2505 135.642 91.619 136.489 90.5608 136.489C89.497 136.489 88.8655 135.642 88.8655 134.362ZM89.4174 134.362C89.4174 135.374 89.8384 135.989 90.5608 135.989C91.2833 135.989 91.6986 135.374 91.6986 134.362C91.6986 133.338 91.2833 132.723 90.5608 132.723C89.8384 132.723 89.4174 133.338 89.4174 134.362ZM92.81 134.362C92.81 133.087 93.4699 132.223 94.5053 132.223C95.535 132.223 96.195 133.087 96.195 134.362C96.195 135.642 95.5635 136.489 94.5053 136.489C93.4415 136.489 92.81 135.642 92.81 134.362ZM93.3619 134.362C93.3619 135.374 93.7828 135.989 94.5053 135.989C95.2278 135.989 95.6431 135.374 95.6431 134.362C95.6431 133.338 95.2278 132.723 94.5053 132.723C93.7828 132.723 93.3619 133.338 93.3619 134.362Z" fill="#C4C4C4"/>
<path d="M119.73 132.803H118.865V132.302H120.265V136.416H119.73V132.803ZM121.017 134.362C121.017 133.087 121.677 132.223 122.713 132.223C123.742 132.223 124.402 133.087 124.402 134.362C124.402 135.642 123.771 136.489 122.713 136.489C121.649 136.489 121.017 135.642 121.017 134.362ZM121.569 134.362C121.569 135.374 121.99 135.989 122.713 135.989C123.435 135.989 123.85 135.374 123.85 134.362C123.85 133.338 123.435 132.723 122.713 132.723C121.99 132.723 121.569 133.338 121.569 134.362ZM125.525 134.35C125.303 134.35 125.115 134.168 125.115 133.958C125.115 133.736 125.303 133.554 125.525 133.554C125.741 133.554 125.929 133.736 125.929 133.958C125.929 134.168 125.741 134.35 125.525 134.35ZM125.525 136.484C125.303 136.484 125.115 136.302 125.115 136.086C125.115 135.864 125.303 135.682 125.525 135.682C125.741 135.682 125.929 135.864 125.929 136.086C125.929 136.302 125.741 136.484 125.525 136.484ZM126.645 134.362C126.645 133.087 127.305 132.223 128.34 132.223C129.37 132.223 130.03 133.087 130.03 134.362C130.03 135.642 129.399 136.489 128.34 136.489C127.277 136.489 126.645 135.642 126.645 134.362ZM127.197 134.362C127.197 135.374 127.618 135.989 128.34 135.989C129.063 135.989 129.478 135.374 129.478 134.362C129.478 133.338 129.063 132.723 128.34 132.723C127.618 132.723 127.197 133.338 127.197 134.362ZM130.59 134.362C130.59 133.087 131.25 132.223 132.285 132.223C133.315 132.223 133.975 133.087 133.975 134.362C133.975 135.642 133.343 136.489 132.285 136.489C131.221 136.489 130.59 135.642 130.59 134.362ZM131.141 134.362C131.141 135.374 131.562 135.989 132.285 135.989C133.007 135.989 133.423 135.374 133.423 134.362C133.423 133.338 133.007 132.723 132.285 132.723C131.562 132.723 131.141 133.338 131.141 134.362Z" fill="#C4C4C4"/>
<path d="M157.548 132.803H156.683V132.302H158.083V136.416H157.548V132.803ZM159.57 132.803H158.705V132.302H160.105V136.416H159.57V132.803ZM161.42 134.35C161.199 134.35 161.011 134.168 161.011 133.958C161.011 133.736 161.199 133.554 161.42 133.554C161.637 133.554 161.824 133.736 161.824 133.958C161.824 134.168 161.637 134.35 161.42 134.35ZM161.42 136.484C161.199 136.484 161.011 136.302 161.011 136.086C161.011 135.864 161.199 135.682 161.42 135.682C161.637 135.682 161.824 135.864 161.824 136.086C161.824 136.302 161.637 136.484 161.42 136.484ZM162.541 134.362C162.541 133.087 163.2 132.223 164.236 132.223C165.266 132.223 165.925 133.087 165.925 134.362C165.925 135.642 165.294 136.489 164.236 136.489C163.172 136.489 162.541 135.642 162.541 134.362ZM163.092 134.362C163.092 135.374 163.513 135.989 164.236 135.989C164.958 135.989 165.374 135.374 165.374 134.362C165.374 133.338 164.958 132.723 164.236 132.723C163.513 132.723 163.092 133.338 163.092 134.362ZM166.485 134.362C166.485 133.087 167.145 132.223 168.18 132.223C169.21 132.223 169.87 133.087 169.87 134.362C169.87 135.642 169.238 136.489 168.18 136.489C167.116 136.489 166.485 135.642 166.485 134.362ZM167.037 134.362C167.037 135.374 167.458 135.989 168.18 135.989C168.903 135.989 169.318 135.374 169.318 134.362C169.318 133.338 168.903 132.723 168.18 132.723C167.458 132.723 167.037 133.338 167.037 134.362Z" fill="#C4C4C4"/>
<path d="M193.374 132.803H192.509V132.302H193.909V136.416H193.374V132.803ZM197.42 136.41L194.644 136.416V135.989L195.97 134.845C196.635 134.271 196.823 133.992 196.823 133.554C196.823 133.036 196.527 132.729 196.032 132.729C195.526 132.729 195.196 133.099 195.184 133.685H194.627C194.644 132.803 195.202 132.228 196.038 132.228C196.863 132.228 197.392 132.729 197.392 133.52C197.392 134.106 197.102 134.521 196.373 135.153L195.52 135.892H197.42V136.41ZM198.497 134.35C198.275 134.35 198.087 134.168 198.087 133.958C198.087 133.736 198.275 133.554 198.497 133.554C198.713 133.554 198.9 133.736 198.9 133.958C198.9 134.168 198.713 134.35 198.497 134.35ZM198.497 136.484C198.275 136.484 198.087 136.302 198.087 136.086C198.087 135.864 198.275 135.682 198.497 135.682C198.713 135.682 198.9 135.864 198.9 136.086C198.9 136.302 198.713 136.484 198.497 136.484ZM199.617 134.362C199.617 133.087 200.277 132.223 201.312 132.223C202.342 132.223 203.002 133.087 203.002 134.362C203.002 135.642 202.37 136.489 201.312 136.489C200.248 136.489 199.617 135.642 199.617 134.362ZM200.169 134.362C200.169 135.374 200.59 135.989 201.312 135.989C202.034 135.989 202.45 135.374 202.45 134.362C202.45 133.338 202.034 132.723 201.312 132.723C200.59 132.723 200.169 133.338 200.169 134.362ZM203.561 134.362C203.561 133.087 204.221 132.223 205.256 132.223C206.286 132.223 206.946 133.087 206.946 134.362C206.946 135.642 206.315 136.489 205.256 136.489C204.193 136.489 203.561 135.642 203.561 134.362ZM204.113 134.362C204.113 135.374 204.534 135.989 205.256 135.989C205.979 135.989 206.394 135.374 206.394 134.362C206.394 133.338 205.979 132.723 205.256 132.723C204.534 132.723 204.113 133.338 204.113 134.362Z" fill="#C4C4C4"/>
<path d="M230.454 132.803H229.589V132.302H230.989V136.416H230.454V132.803ZM232.919 134.288H232.509V133.918L233.675 132.797H231.826V132.302H234.381V132.752L233.254 133.827C233.954 133.912 234.483 134.385 234.483 135.124C234.483 135.955 233.857 136.484 233.021 136.484C232.213 136.484 231.633 135.989 231.633 135.136H232.185C232.185 135.67 232.515 135.983 233.032 135.983C233.567 135.983 233.914 135.642 233.914 135.113C233.914 134.618 233.573 134.288 232.919 134.288ZM235.538 134.35C235.316 134.35 235.128 134.168 235.128 133.958C235.128 133.736 235.316 133.554 235.538 133.554C235.754 133.554 235.942 133.736 235.942 133.958C235.942 134.168 235.754 134.35 235.538 134.35ZM235.538 136.484C235.316 136.484 235.128 136.302 235.128 136.086C235.128 135.864 235.316 135.682 235.538 135.682C235.754 135.682 235.942 135.864 235.942 136.086C235.942 136.302 235.754 136.484 235.538 136.484ZM236.658 134.362C236.658 133.087 237.318 132.223 238.353 132.223C239.383 132.223 240.043 133.087 240.043 134.362C240.043 135.642 239.411 136.489 238.353 136.489C237.289 136.489 236.658 135.642 236.658 134.362ZM237.21 134.362C237.21 135.374 237.631 135.989 238.353 135.989C239.076 135.989 239.491 135.374 239.491 134.362C239.491 133.338 239.076 132.723 238.353 132.723C237.631 132.723 237.21 133.338 237.21 134.362ZM240.602 134.362C240.602 133.087 241.262 132.223 242.298 132.223C243.327 132.223 243.987 133.087 243.987 134.362C243.987 135.642 243.356 136.489 242.298 136.489C241.234 136.489 240.602 135.642 240.602 134.362ZM241.154 134.362C241.154 135.374 241.575 135.989 242.298 135.989C243.02 135.989 243.435 135.374 243.435 134.362C243.435 133.338 243.02 132.723 242.298 132.723C241.575 132.723 241.154 133.338 241.154 134.362Z" fill="#C4C4C4"/>
<g clip-path="url(#clip1_1086_2988)">
<path d="M54.3524 52.1104H53.7152V47.4097H55.4902C56.4979 47.4097 57.0961 47.9428 57.0961 48.8205C57.0961 49.4707 56.771 49.9388 56.1859 50.1273L57.1416 52.1104H56.4329L55.5552 50.2509H54.3524V52.1104ZM54.3524 47.9818V49.6852H55.4967C56.0883 49.6852 56.4264 49.3667 56.4264 48.827C56.4264 48.2809 56.0753 47.9818 55.4902 47.9818H54.3524ZM57.6962 48.6775C57.6962 47.8713 58.3463 47.3251 59.3151 47.3251C60.2123 47.3251 60.791 47.8258 60.843 48.6385H60.1993C60.1668 48.1703 59.8352 47.8973 59.3086 47.8973C58.7169 47.8973 58.3333 48.1964 58.3333 48.658C58.3333 49.0351 58.5479 49.2626 58.99 49.3667L59.7637 49.5487C60.5309 49.7242 60.921 50.1403 60.921 50.8035C60.921 51.6487 60.2643 52.1884 59.2631 52.1884C58.3073 52.1884 57.6702 51.6877 57.6312 50.8815H58.2813C58.2943 51.3302 58.6714 51.6162 59.2631 51.6162C59.8872 51.6162 60.2838 51.3237 60.2838 50.8555C60.2838 50.4849 60.0823 50.2509 59.6337 50.1469L58.86 49.9713C58.0928 49.7958 57.6962 49.3536 57.6962 48.6775ZM62.3588 47.4097V52.1104H61.7217V47.4097H62.3588ZM65.9025 47.9818H64.9142V47.4097H66.5136V52.1104H65.9025V47.9818ZM70.8779 51.1611H70.3188V52.1104H69.7076V51.1611H67.276V50.5955L69.4931 47.4097H70.3188V50.5955H70.8779V51.1611ZM67.9652 50.5955H69.7076V48.0858L67.9652 50.5955Z" fill="#C4C4C4"/>
<path d="M76.4072 48.9351L77.6038 47.324H78.1653L76.9085 48.9885C77.1358 48.8749 77.3431 48.8281 77.5637 48.8281C78.5597 48.8281 79.2215 49.5567 79.2215 50.4926C79.2215 51.4753 78.4795 52.1906 77.5236 52.1906C76.5609 52.1906 75.8055 51.4486 75.8055 50.4926C75.8055 49.9378 75.9593 49.5501 76.4072 48.9351ZM76.2935 50.4993C76.2935 51.228 76.7949 51.7561 77.5236 51.7561C78.2321 51.7561 78.7402 51.228 78.7402 50.4993C78.7402 49.7707 78.2321 49.2492 77.5236 49.2492C76.7949 49.2492 76.2935 49.7707 76.2935 50.4993ZM82.9036 52.1104H79.7484V51.7293L81.2792 50.3923C82.1616 49.6236 82.3889 49.2894 82.3889 48.7211C82.3889 48.0727 82.0012 47.6783 81.3661 47.6783C80.7043 47.6783 80.2698 48.1596 80.2498 48.9016H79.7685C79.7952 47.8989 80.4303 47.2371 81.3728 47.2371C82.2753 47.2371 82.8769 47.8187 82.8769 48.6944C82.8769 49.3896 82.5627 49.8509 81.6068 50.6865L80.4904 51.6625H82.9036V52.1104ZM84.1031 52.1839C83.8758 52.1839 83.682 51.9967 83.682 51.7761C83.682 51.5488 83.8758 51.355 84.1031 51.355C84.3304 51.355 84.5242 51.5488 84.5242 51.7761C84.5242 51.9967 84.3304 52.1839 84.1031 52.1839ZM86.7393 52.1906C85.7767 52.1906 85.1617 51.5889 85.1617 50.6464H85.643C85.643 51.3349 86.0641 51.7494 86.746 51.7494C87.4679 51.7494 87.9359 51.2681 87.9359 50.5595C87.9359 49.891 87.5013 49.3629 86.746 49.3629C86.3048 49.3629 85.9037 49.5634 85.643 49.8509L85.2619 49.7306L85.8368 47.324H88.1498V47.7652H86.1844L85.8235 49.2693C86.0908 49.0554 86.4385 48.9351 86.8128 48.9351C87.8088 48.9351 88.4239 49.6503 88.4239 50.5461C88.4239 51.5087 87.742 52.1906 86.7393 52.1906ZM89.6071 48.9351L90.8037 47.324H91.3652L90.1085 48.9885C90.3358 48.8749 90.543 48.8281 90.7636 48.8281C91.7596 48.8281 92.4214 49.5567 92.4214 50.4926C92.4214 51.4753 91.6794 52.1906 90.7235 52.1906C89.7609 52.1906 89.0055 51.4486 89.0055 50.4926C89.0055 49.9378 89.1592 49.5501 89.6071 48.9351ZM89.4935 50.4993C89.4935 51.228 89.9948 51.7561 90.7235 51.7561C91.4321 51.7561 91.9401 51.228 91.9401 50.4993C91.9401 49.7707 91.4321 49.2492 90.7235 49.2492C89.9948 49.2492 89.4935 49.7707 89.4935 50.4993Z" fill="url(#paint3_linear_1086_2988)"/>
<path d="M46.1016 55.0945H350.058" stroke="white" stroke-opacity="0.15" stroke-width="0.477488"/>
<path d="M46.1016 72.3425H350.041" stroke="white" stroke-opacity="0.15" stroke-width="0.477488"/>
<path d="M46.1016 89.5906H385.356" stroke="white" stroke-opacity="0.15" stroke-width="0.477488"/>
<path d="M46.1016 106.838H350.345" stroke="white" stroke-opacity="0.15" stroke-width="0.477488"/>
<path d="M46.1016 124.086H350.294" stroke="white" stroke-opacity="0.15" stroke-width="0.477488"/>
<path d="M47.5664 68.9822L49.4344 62.5845L51.3025 61.5608L53.1705 65.6554L55.2721 64.8876L57.3736 60.0254L59.4751 66.679L63.6782 64.8876L65.5463 71.7971H67.8813L69.7494 65.6554L71.3839 75.1239L73.7189 74.3562L77.6885 93.5493L79.7901 86.6398L81.6581 91.2461L83.5261 90.2225L85.8612 91.7579L87.7292 96.6202L89.5973 93.5493L96.1354 92.7816L101.739 104.297L104.075 89.1989L105.943 85.1043L107.811 83.5689L110.146 74.3562L112.014 72.309L114.115 73.5885L116.217 68.2144L117.851 67.4467L119.953 71.2853H121.821L123.689 67.4467L126.024 64.3758L127.892 67.4467L129.994 60.5372L136.065 93.5493L138.166 91.7579L140.034 110.695L142.136 103.53L143.77 102.25H146.105L150.075 88.687L152.644 91.2461L154.278 94.317L156.146 91.2461L158.248 90.2225L160.583 98.4115L161.984 104.809L164.319 103.53L167.821 96.6202L170.857 97.132L174.126 91.7579L176.227 99.1793L178.329 97.132L180.197 99.947L182.299 97.132L184.4 97.6438L187.436 94.317L190.238 92.5257L192.339 89.1989L195.608 95.3406L200.278 101.738H202.614L204.715 100.459L206.35 102.762H208.451L210.553 100.459L212.421 107.88L214.522 106.089L216.39 113.51L220.36 99.947L222.461 100.459L224.329 94.317L230.634 104.809L232.502 102.25L236.705 106.089H239.274L242.543 81.0098L244.644 77.9389L246.746 81.7775L250.949 70.7735L254.452 67.4467L256.553 74.3562L258.655 72.309L260.756 77.9389L262.624 74.3562L264.726 73.8444L267.061 68.4703L268.695 67.4467L271.03 82.8012L272.665 79.9862L274.767 84.8484L277.102 79.9862L281.071 85.3602L284.807 75.1239L286.909 87.4075L288.777 89.1989L291.112 88.4311L293.213 86.128L296.949 85.3602L299.051 79.9862L301.153 78.7066L303.021 75.1239H305.122L310.726 61.5608L313.061 78.7066L315.396 75.1239H317.264L319.833 78.7066L321 81.7775L324.97 78.7066L327.305 80.498H329.173L330.808 76.1476H333.61L339.447 98.4115L343.183 86.6398L345.985 90.7343L350.189 91.2461" stroke="url(#paint4_linear_1086_2988)" stroke-width="0.477488"/>
<path d="M48.9574 62.1206L47.0864 68.682L45.4492 119.335H350.19V91.5154L345.98 90.9905L343.173 86.7912L339.431 98.8641L333.584 76.0306H330.778L329.141 80.4923H327.27L324.931 78.6552L320.955 81.8046L319.786 78.6552L317.213 74.9808H315.342L313.003 78.6552L310.665 61.0708L305.051 74.9808H302.947L301.076 78.6552L298.971 79.9674L296.866 85.479L293.124 86.2663L291.019 88.6284L288.68 89.4158L286.809 87.5786L284.704 74.9808L280.962 85.479L276.986 79.9674L274.648 84.954L272.543 79.9674L270.906 82.8544L268.567 67.1072L266.93 68.157L264.591 73.6686L262.486 74.1935L260.615 77.8678L258.51 72.0938L256.405 74.1935L254.3 67.1072L250.792 70.5191L246.583 81.8046L244.478 77.8678L242.373 81.0173L239.098 106.738H236.526L232.316 102.801L230.445 105.425L224.13 94.6648L222.259 100.964L220.155 100.439L216.179 114.349L214.308 106.738L212.203 108.575L210.332 100.964L208.227 103.326H206.122L204.485 100.964L202.38 102.276H200.041L195.364 95.7146L192.089 89.4158L189.985 92.8276L187.178 94.6648L184.138 98.0767L182.033 97.5518L179.928 100.439L178.057 97.5518L175.952 99.6514L173.847 92.0403L170.573 97.5518L167.532 97.0269L164.024 104.113L161.686 105.425L160.282 98.8641L157.944 90.4656L155.839 91.5154L153.968 94.6648L152.331 91.5154L149.758 88.8908L145.782 102.801H143.443L141.806 104.113L139.701 111.462L137.83 92.0403L135.725 93.8775L129.645 60.021L127.54 67.1072L125.669 63.9578L123.33 67.1072L121.459 71.044H119.588L117.483 67.1072L115.846 67.8946L113.741 73.4061L111.636 72.0938L109.765 74.1935L107.426 83.6418L105.555 85.2165L103.684 89.4158L101.346 104.9L95.7325 93.0901L89.184 93.8775L87.313 97.0269L85.442 92.0403L83.1032 90.4656L81.2322 91.5154L79.3612 86.7912L77.2563 93.8775L73.2805 74.1935L70.9417 74.9808L69.3046 65.2701L67.4336 71.5689H65.0948L63.2238 64.4827L59.014 66.3199L56.9091 59.4961L54.8043 64.4827L52.6994 65.2701L50.8284 61.0708L48.9574 62.1206Z" fill="url(#paint5_linear_1086_2988)"/>
<path d="M46.7695 89.7073L371.776 89.7073" stroke="url(#paint6_linear_1086_2988)" stroke-width="0.477488"/>
</g>
</g>
<path opacity="0.9" d="M87.6986 171.167H86.4638V162.057H89.9036C91.8566 162.057 93.0158 163.091 93.0158 164.792C93.0158 166.052 92.3858 166.959 91.2518 167.324L93.104 171.167H91.7306L90.0296 167.564H87.6986V171.167ZM87.6986 163.166V166.467H89.9162C91.0628 166.467 91.718 165.85 91.718 164.804C91.718 163.746 91.0376 163.166 89.9036 163.166H87.6986ZM93.9268 164.514C93.9268 162.952 95.1868 161.894 97.0642 161.894C98.803 161.894 99.9244 162.864 100.025 164.439H98.7778C98.7148 163.532 98.0722 163.002 97.0516 163.002C95.905 163.002 95.1616 163.582 95.1616 164.477C95.1616 165.207 95.5774 165.648 96.4342 165.85L97.9336 166.203C99.4204 166.543 100.176 167.349 100.176 168.635C100.176 170.273 98.9038 171.318 96.9634 171.318C95.1112 171.318 93.8764 170.348 93.8008 168.786H95.0608C95.086 169.655 95.8168 170.21 96.9634 170.21C98.173 170.21 98.9416 169.643 98.9416 168.735C98.9416 168.017 98.551 167.564 97.6816 167.362L96.1822 167.022C94.6954 166.682 93.9268 165.825 93.9268 164.514ZM102.711 162.057V171.167H101.476V162.057H102.711ZM108.155 171.167H106.869L110.196 162.057H111.569L114.908 171.167H113.61L112.791 168.899H108.961L108.155 171.167ZM110.725 164.023L109.339 167.828H112.426L111.027 164.023C110.964 163.847 110.901 163.632 110.876 163.494C110.851 163.62 110.788 163.834 110.725 164.023ZM116.85 171.167H115.666V165.006H116.737L116.863 165.951C117.253 165.245 118.034 164.829 118.904 164.829C120.529 164.829 121.273 165.825 121.273 167.4V171.167H120.088V167.664C120.088 166.417 119.509 165.913 118.601 165.913C117.493 165.913 116.85 166.707 116.85 167.904V171.167ZM124.463 171.318C123.14 171.318 122.359 170.575 122.359 169.454C122.359 168.32 123.203 167.614 124.652 167.501L126.592 167.349V167.173C126.592 166.14 125.975 165.774 125.143 165.774C124.148 165.774 123.581 166.215 123.581 166.959H122.548C122.548 165.674 123.606 164.829 125.194 164.829C126.718 164.829 127.751 165.636 127.751 167.299V171.167H126.743L126.617 170.172C126.302 170.877 125.458 171.318 124.463 171.318ZM124.803 170.399C125.924 170.399 126.605 169.668 126.605 168.509V168.181L125.03 168.307C123.984 168.408 123.556 168.811 123.556 169.416C123.556 170.071 124.034 170.399 124.803 170.399ZM130.349 171.167H129.165V161.894H130.349V171.167ZM131.249 173.927V172.956H132.042C132.609 172.956 133.063 172.868 133.353 172.087L133.567 171.495L131.085 165.006H132.332L134.121 169.97L135.948 165.006H137.171L134.26 172.553C133.844 173.612 133.227 174.053 132.282 174.053C131.891 174.053 131.564 174.002 131.249 173.927ZM142.287 171.167H137.486V170.21L140.813 166.001H137.486V165.006H142.287V165.976L138.935 170.172H142.287V171.167ZM145.894 171.318C144.08 171.318 142.832 170.008 142.832 168.093C142.832 166.165 144.054 164.829 145.844 164.829C147.595 164.829 148.742 166.039 148.742 167.866V168.307L143.979 168.32C144.067 169.617 144.747 170.336 145.919 170.336C146.839 170.336 147.444 169.958 147.645 169.252H148.754C148.452 170.575 147.419 171.318 145.894 171.318ZM145.844 165.825C144.81 165.825 144.155 166.442 144.004 167.526H147.557C147.557 166.505 146.889 165.825 145.844 165.825ZM153.341 164.955V166.039H152.811C151.69 166.039 150.997 166.719 150.997 167.904V171.167H149.813V165.018H150.921L150.997 165.951C151.249 165.308 151.866 164.88 152.711 164.88C152.925 164.88 153.101 164.905 153.341 164.955Z" fill="white"/>
<g filter="url(#filter0_f_1086_2988)">
<path d="M202.65 44.1134C202.65 17.8916 216.743 0.102295 238.344 0.102295C259.946 0.102295 274.154 17.8916 274.154 44.1134C274.154 70.2197 260.754 87.6624 238.344 87.6624C215.935 87.6624 202.65 70.2197 202.65 44.1134ZM217.205 44.1134C217.205 63.6354 225.06 74.6093 238.344 74.6093C251.744 74.6093 259.599 63.6354 259.599 44.1134C259.599 24.1294 251.744 13.1555 238.344 13.1555C225.06 13.1555 217.205 24.1294 217.205 44.1134Z" fill="url(#paint7_linear_1086_2988)"/>
<path d="M306.4 44.3444H296.119V34.7567L317.836 14.7727H282.719V1.71951H336.318V13.502L315.756 32.4464C328.694 34.9877 338.744 44.4599 338.744 59.3613C338.744 76.6885 325.229 87.6624 308.132 87.6624C291.614 87.6624 278.792 77.4971 278.792 59.2458H293.347C293.347 68.949 299.353 74.4937 308.363 74.4937C317.605 74.4937 323.727 68.487 323.727 59.1303C323.727 50.5822 318.182 44.3444 306.4 44.3444Z" fill="url(#paint8_linear_1086_2988)"/>
</g>
</g>
<path d="M238.5 0.167236H239.2V-0.532764H238.5V0.167236ZM238.5 189.167V189.867H239.2V189.167H238.5ZM0.5 0.167236V0.867236H238.5V0.167236V-0.532764H0.5V0.167236ZM238.5 0.167236H237.8V189.167H238.5H239.2V0.167236H238.5ZM238.5 189.167V188.467H0.5V189.167V189.867H238.5V189.167Z" fill="url(#paint9_linear_1086_2988)" fill-opacity="0.1" mask="url(#path-1-inside-1_1086_2988)"/>
<defs>
<filter id="filter0_f_1086_2988" x="119.002" y="-83.5462" width="303.391" height="254.857" filterUnits="userSpaceOnUse" color-interpolation-filters="sRGB">
<feFlood flood-opacity="0" result="BackgroundImageFix"/>
<feBlend mode="normal" in="SourceGraphic" in2="BackgroundImageFix" result="shape"/>
<feGaussianBlur stdDeviation="41.8243" result="effect1_foregroundBlur_1086_2988"/>
</filter>
<linearGradient id="paint0_linear_1086_2988" x1="235.7" y1="2.75124" x2="12.1369" y2="153.914" gradientUnits="userSpaceOnUse">
<stop stop-color="white"/>
<stop offset="1" stop-color="white" stop-opacity="0"/>
</linearGradient>
<linearGradient id="paint1_linear_1086_2988" x1="119" y1="0" x2="119" y2="140" gradientUnits="userSpaceOnUse">
<stop stop-color="white" stop-opacity="0"/>
<stop offset="0.244579" stop-color="white" stop-opacity="0.638456"/>
<stop offset="0.60146" stop-color="white" stop-opacity="0.828827"/>
<stop offset="1" stop-color="white"/>
</linearGradient>
<linearGradient id="paint2_linear_1086_2988" x1="209.203" y1="-196.727" x2="209.203" y2="144.304" gradientUnits="userSpaceOnUse">
<stop stop-color="white" stop-opacity="0.1"/>
<stop offset="1" stop-color="white" stop-opacity="0.05"/>
</linearGradient>
<linearGradient id="paint3_linear_1086_2988" x1="84.498" y1="45.1104" x2="84.498" y2="54.1104" gradientUnits="userSpaceOnUse">
<stop stop-color="#15B0F8"/>
<stop offset="1" stop-color="#0276DB"/>
</linearGradient>
<linearGradient id="paint4_linear_1086_2988" x1="198.877" y1="60.0254" x2="198.877" y2="113.51" gradientUnits="userSpaceOnUse">
<stop stop-color="#15B0F8"/>
<stop offset="1" stop-color="#0276DB"/>
</linearGradient>
<linearGradient id="paint5_linear_1086_2988" x1="197.819" y1="59.4961" x2="197.819" y2="119.335" gradientUnits="userSpaceOnUse">
<stop offset="0.11" stop-color="#15B0F8"/>
<stop offset="0.49" stop-opacity="0"/>
</linearGradient>
<linearGradient id="paint6_linear_1086_2988" x1="209.273" y1="89.7073" x2="209.273" y2="90.7073" gradientUnits="userSpaceOnUse">
<stop stop-color="#F59D31"/>
<stop offset="1" stop-color="#CD7509"/>
</linearGradient>
<linearGradient id="paint7_linear_1086_2988" x1="219.017" y1="74.4433" x2="233.864" y2="-0.186887" gradientUnits="userSpaceOnUse">
<stop stop-color="#0276DB"/>
<stop offset="1" stop-color="#3EDC81"/>
</linearGradient>
<linearGradient id="paint8_linear_1086_2988" x1="219.017" y1="74.4433" x2="233.864" y2="-0.186887" gradientUnits="userSpaceOnUse">
<stop stop-color="#0276DB"/>
<stop offset="1" stop-color="#3EDC81"/>
</linearGradient>
<linearGradient id="paint9_linear_1086_2988" x1="238.5" y1="94.6672" x2="0.5" y2="94.6672" gradientUnits="userSpaceOnUse">
<stop stop-color="white"/>
<stop offset="1" stop-color="white" stop-opacity="0"/>
</linearGradient>
<clipPath id="clip0_1086_2988">
<path d="M0.5 0.167236H238.5V189.167H0.5V0.167236Z" fill="white"/>
</clipPath>
<clipPath id="clip1_1086_2988">
<rect width="352.152" height="90.0238" fill="white" transform="translate(39.7461 40.2954)"/>
</clipPath>
</defs>
</svg>
