<svg width="341" height="299" viewBox="0 0 341 299" fill="none" xmlns="http://www.w3.org/2000/svg">
<g clip-path="url(#clip0_1471_2617)">
<path d="M0 10.8522C0 5.00863 4.73713 0.271484 10.5807 0.271484H330.086C335.93 0.271484 340.667 5.00861 340.667 10.8522V288.419C340.667 294.262 335.93 298.999 330.086 298.999H10.5807C4.73713 298.999 0 294.262 0 288.419V10.8522Z" fill="url(#paint0_linear_1471_2617)" fill-opacity="0.05"/>
<path d="M19.3327 29.7713V33.1047M25.9994 24.7713V33.1047M34.3327 35.6047H17.666M32.666 28.1047V33.1047M20.666 24.6047C20.5347 24.4296 20.3702 24.2821 20.1818 24.1706C19.9935 24.059 19.7851 23.9857 19.5684 23.9548C19.3517 23.9238 19.1311 23.9358 18.9191 23.9902C18.707 24.0445 18.5078 24.14 18.3327 24.2713C18.1576 24.4027 18.0101 24.5672 17.8986 24.7555C17.7871 24.9439 17.7137 25.1523 17.6828 25.369C17.6203 25.8066 17.7341 26.2511 17.9994 26.6047C18.2646 26.9583 18.6594 27.1921 19.097 27.2546C19.5346 27.3171 19.9791 27.2032 20.3327 26.938C20.6863 26.6728 20.9201 26.278 20.9826 25.8404C21.0451 25.4028 20.9312 24.9583 20.666 24.6047ZM20.666 24.6047L24.666 21.6047M24.666 21.6047C24.8364 21.8322 25.0621 22.0124 25.3218 22.128C25.5814 22.2437 25.8663 22.2911 26.1494 22.2656C26.4325 22.2401 26.7044 22.1427 26.9392 21.9825C27.174 21.8223 27.364 21.6048 27.491 21.3505M24.666 21.6047C24.4882 21.3672 24.3769 21.0865 24.3438 20.7916C24.3107 20.4967 24.3569 20.1984 24.4777 19.9273C24.5984 19.6563 24.7894 19.4224 25.0307 19.2498C25.2721 19.0773 25.5552 18.9723 25.8507 18.9457C26.1463 18.9191 26.4435 18.9719 26.7118 19.0986C26.9801 19.2253 27.2097 19.4214 27.3769 19.6665C27.5441 19.9116 27.6429 20.1969 27.6629 20.493C27.683 20.789 27.6236 21.0851 27.491 21.3505M27.491 21.3505L31.1744 23.1922C31.0764 23.388 31.018 23.6011 31.0024 23.8195C30.9869 24.0378 31.0144 24.2571 31.0836 24.4648C31.2233 24.8843 31.524 25.231 31.9194 25.4288C32.3147 25.6267 32.7725 25.6593 33.192 25.5196C33.6114 25.3799 33.9582 25.0792 34.156 24.6838C34.3498 24.289 34.3796 23.8337 34.239 23.417C34.0985 23.0002 33.7989 22.656 33.4056 22.4592C33.0124 22.2624 32.5572 22.229 32.1394 22.3663C31.7216 22.5036 31.3751 22.8004 31.1752 23.1922" stroke="white" stroke-width="1.25" stroke-linecap="round" stroke-linejoin="round"/>
<path d="M48.56 33.2715L44.16 21.7035H45.84L48.656 29.0955C48.912 29.7515 49.136 30.4075 49.376 31.2715C49.648 30.3595 49.92 29.5915 50.112 29.0795L52.912 21.7035H54.544L50.192 33.2715H48.56ZM53.6935 29.3515C53.6935 26.9355 55.4215 25.2395 57.7735 25.2395C60.1095 25.2395 61.8375 26.9355 61.8375 29.3515C61.8375 31.7675 60.1095 33.4635 57.7735 33.4635C55.4215 33.4635 53.6935 31.7675 53.6935 29.3515ZM55.2135 29.3515C55.2135 30.9835 56.2535 32.1195 57.7735 32.1195C59.2775 32.1195 60.3335 30.9835 60.3335 29.3515C60.3335 27.7195 59.2775 26.5835 57.7735 26.5835C56.2535 26.5835 55.2135 27.7195 55.2135 29.3515ZM64.7184 33.2715H63.2144V21.4955H64.7184V33.2715ZM68.9004 33.4635C67.2204 33.4635 66.2284 32.5195 66.2284 31.0955C66.2284 29.6555 67.3004 28.7595 69.1404 28.6155L71.6044 28.4235V28.1995C71.6044 26.8875 70.8204 26.4235 69.7644 26.4235C68.5004 26.4235 67.7804 26.9835 67.7804 27.9275H66.4684C66.4684 26.2955 67.8124 25.2235 69.8284 25.2235C71.7644 25.2235 73.0764 26.2475 73.0764 28.3595V33.2715H71.7964L71.6364 32.0075C71.2364 32.9035 70.1644 33.4635 68.9004 33.4635ZM69.3324 32.2955C70.7564 32.2955 71.6204 31.3675 71.6204 29.8955V29.4795L69.6204 29.6395C68.2924 29.7675 67.7484 30.2795 67.7484 31.0475C67.7484 31.8795 68.3564 32.2955 69.3324 32.2955ZM76.9222 33.2715H75.4182V26.7115H73.8822V25.4475H75.4182V22.9995H76.9222V25.4475H78.4582V26.7115H76.9222V33.2715ZM80.224 23.5915C79.68 23.5915 79.232 23.1435 79.232 22.5995C79.232 22.0395 79.68 21.6075 80.224 21.6075C80.768 21.6075 81.216 22.0395 81.216 22.5995C81.216 23.1435 80.768 23.5915 80.224 23.5915ZM79.488 33.2715V25.4475H80.992V33.2715H79.488ZM84.3915 33.2715H82.8875V21.4955H84.3915V33.2715ZM87.0215 23.5915C86.4775 23.5915 86.0295 23.1435 86.0295 22.5995C86.0295 22.0395 86.4775 21.6075 87.0215 21.6075C87.5655 21.6075 88.0135 22.0395 88.0135 22.5995C88.0135 23.1435 87.5655 23.5915 87.0215 23.5915ZM86.2855 33.2715V25.4475H87.7895V33.2715H86.2855ZM91.861 33.2715H90.357V26.7115H88.821V25.4475H90.357V22.9995H91.861V25.4475H93.397V26.7115H91.861V33.2715ZM93.6747 36.7755V35.5435H94.6827C95.4027 35.5435 95.9787 35.4315 96.3467 34.4395L96.6187 33.6875L93.4667 25.4475H95.0507L97.3227 31.7515L99.6427 25.4475H101.195L97.4987 35.0315C96.9707 36.3755 96.1867 36.9355 94.9867 36.9355C94.4907 36.9355 94.0747 36.8715 93.6747 36.7755ZM113.902 33.2715L112.99 32.2315C112.094 33.0315 110.862 33.4795 109.406 33.4795C106.926 33.4795 105.294 32.1995 105.294 30.2635C105.294 28.8395 106.206 27.7035 108.126 26.7115C107.134 25.5755 106.766 24.8715 106.766 24.0075C106.766 22.5515 107.902 21.5115 109.534 21.5115C111.118 21.5115 112.206 22.4875 112.206 23.9115C112.206 25.0635 111.614 25.9595 110.126 26.9675L112.894 30.1195C113.15 29.4955 113.294 28.7275 113.294 27.8635H114.75C114.75 29.1755 114.43 30.3275 113.87 31.2235L115.662 33.2715H113.902ZM108.19 23.9915C108.19 24.5995 108.462 25.0795 109.358 26.1035C110.334 25.5115 110.798 24.8075 110.798 23.9435C110.798 23.1915 110.318 22.7275 109.518 22.7275C108.702 22.7275 108.19 23.2235 108.19 23.9915ZM106.862 30.1515C106.862 31.4155 107.87 32.1835 109.55 32.1835C110.622 32.1835 111.486 31.8635 112.126 31.2395L108.878 27.5595C107.438 28.3595 106.862 29.1115 106.862 30.1515ZM121.877 33.2715H120.309V21.7035H124.677C127.157 21.7035 128.629 23.0155 128.629 25.1755C128.629 26.7755 127.829 27.9275 126.389 28.3915L128.741 33.2715H126.997L124.837 28.6955H121.877V33.2715ZM121.877 23.1115V27.3035H124.693C126.149 27.3035 126.981 26.5195 126.981 25.1915C126.981 23.8475 126.117 23.1115 124.677 23.1115H121.877ZM130.938 23.5915C130.394 23.5915 129.946 23.1435 129.946 22.5995C129.946 22.0395 130.394 21.6075 130.938 21.6075C131.482 21.6075 131.93 22.0395 131.93 22.5995C131.93 23.1435 131.482 23.5915 130.938 23.5915ZM130.202 33.2715V25.4475H131.706V33.2715H130.202ZM132.929 30.9995H134.369C134.369 31.7995 134.977 32.2795 135.969 32.2795C137.025 32.2795 137.633 31.8475 137.633 31.1275C137.633 30.5995 137.377 30.2795 136.561 30.0715L135.185 29.7515C133.793 29.4155 133.137 28.7275 133.137 27.5755C133.137 26.1355 134.353 25.2235 136.081 25.2235C137.793 25.2235 138.913 26.1835 138.945 27.6715H137.505C137.473 26.8875 136.945 26.3915 136.033 26.3915C135.089 26.3915 134.561 26.8075 134.561 27.5275C134.561 28.0555 134.945 28.4075 135.713 28.5995L137.089 28.9355C138.417 29.2555 139.073 29.8635 139.073 31.0315C139.073 32.5195 137.793 33.4635 135.937 33.4635C134.097 33.4635 132.929 32.4875 132.929 30.9995ZM141.957 33.2715H140.453V21.4955H141.957V29.1275L145.429 25.4475H147.317L144.325 28.5675L147.301 33.2715H145.573L143.285 29.6555L141.957 31.0475V33.2715ZM153.017 33.2715H151.385L155.609 21.7035H157.353L161.593 33.2715H159.945L158.905 30.3915H154.041L153.017 33.2715ZM156.281 24.1995L154.521 29.0315H158.441L156.665 24.1995C156.585 23.9755 156.505 23.7035 156.473 23.5275C156.441 23.6875 156.361 23.9595 156.281 24.1995ZM164.059 33.2715H162.555V25.4475H163.915L164.075 26.6475C164.571 25.7515 165.563 25.2235 166.667 25.2235C168.731 25.2235 169.675 26.4875 169.675 28.4875V33.2715H168.171V28.8235C168.171 27.2395 167.435 26.5995 166.283 26.5995C164.875 26.5995 164.059 27.6075 164.059 29.1275V33.2715ZM173.726 33.4635C172.046 33.4635 171.054 32.5195 171.054 31.0955C171.054 29.6555 172.126 28.7595 173.966 28.6155L176.43 28.4235V28.1995C176.43 26.8875 175.646 26.4235 174.59 26.4235C173.326 26.4235 172.606 26.9835 172.606 27.9275H171.294C171.294 26.2955 172.638 25.2235 174.654 25.2235C176.59 25.2235 177.902 26.2475 177.902 28.3595V33.2715H176.622L176.462 32.0075C176.062 32.9035 174.99 33.4635 173.726 33.4635ZM174.158 32.2955C175.582 32.2955 176.446 31.3675 176.446 29.8955V29.4795L174.446 29.6395C173.118 29.7675 172.574 30.2795 172.574 31.0475C172.574 31.8795 173.182 32.2955 174.158 32.2955ZM181.201 33.2715H179.697V21.4955H181.201V33.2715ZM182.343 36.7755V35.5435H183.351C184.071 35.5435 184.647 35.4315 185.015 34.4395L185.287 33.6875L182.135 25.4475H183.719L185.991 31.7515L188.311 25.4475H189.863L186.167 35.0315C185.639 36.3755 184.855 36.9355 183.655 36.9355C183.159 36.9355 182.743 36.8715 182.343 36.7755ZM196.36 33.2715H190.264V32.0555L194.488 26.7115H190.264V25.4475H196.36V26.6795L192.104 32.0075H196.36V33.2715ZM200.94 33.4635C198.636 33.4635 197.052 31.7995 197.052 29.3675C197.052 26.9195 198.604 25.2235 200.876 25.2235C203.1 25.2235 204.556 26.7595 204.556 29.0795V29.6395L198.508 29.6555C198.62 31.3035 199.484 32.2155 200.972 32.2155C202.14 32.2155 202.908 31.7355 203.164 30.8395H204.572C204.188 32.5195 202.876 33.4635 200.94 33.4635ZM200.876 26.4875C199.564 26.4875 198.732 27.2715 198.54 28.6475H203.052C203.052 27.3515 202.204 26.4875 200.876 26.4875ZM210.396 25.3835V26.7595H209.724C208.3 26.7595 207.42 27.6235 207.42 29.1275V33.2715H205.916V25.4635H207.324L207.42 26.6475C207.74 25.8315 208.524 25.2875 209.596 25.2875C209.868 25.2875 210.092 25.3195 210.396 25.3835Z" fill="white"/>
<path d="M311.332 22.2715H311.337M311.332 27.2715H311.337M311.332 32.2715H311.337M317.994 22.2715H317.999M317.994 27.2715H317.999M317.994 32.2715H317.999" stroke="white" stroke-width="1.25" stroke-linecap="round" stroke-linejoin="round"/>
<path d="M19.976 74.7715L16.14 64.7475H17.218L19.892 71.7195C20.102 72.2655 20.298 72.8115 20.522 73.5115C20.732 72.7835 20.984 72.0835 21.138 71.7055L23.798 64.7475H24.834L21.026 74.7715H19.976ZM24.1817 71.3835C24.1817 69.3115 25.6377 67.8135 27.6257 67.8135C29.6137 67.8135 31.0697 69.3115 31.0697 71.3835C31.0697 73.4415 29.6137 74.9395 27.6257 74.9395C25.6377 74.9395 24.1817 73.4415 24.1817 71.3835ZM25.1617 71.3695C25.1617 72.9655 26.1697 74.0715 27.6257 74.0715C29.0677 74.0715 30.0897 72.9655 30.0897 71.3695C30.0897 69.8015 29.0677 68.6815 27.6257 68.6815C26.1697 68.6815 25.1617 69.8015 25.1617 71.3695ZM33.3427 74.7715H32.3767V64.5655H33.3427V74.7715ZM37.0632 74.9395C35.6212 74.9395 34.7672 74.1275 34.7672 72.9375C34.7672 71.6915 35.7192 70.9075 37.3012 70.7815L39.5412 70.5995V70.3755C39.5412 69.0455 38.7432 68.6255 37.7492 68.6255C36.5732 68.6255 35.8732 69.1575 35.8732 70.0675H34.9912C34.9912 68.6955 36.1112 67.8135 37.7772 67.8135C39.3452 67.8135 40.4932 68.5975 40.4932 70.3895V74.7715H39.6812L39.5552 73.5815C39.1352 74.4355 38.2112 74.9395 37.0632 74.9395ZM37.2872 74.1555C38.7152 74.1555 39.5412 73.1615 39.5412 71.6915V71.3275L37.5392 71.4815C36.2652 71.5935 35.7472 72.1535 35.7472 72.9095C35.7472 73.7355 36.3632 74.1555 37.2872 74.1555ZM43.5826 74.7715H42.6306V68.8075H41.2726V67.9955H42.6306V65.8535H43.5826V67.9955H44.9406V68.8075H43.5826V74.7715ZM46.3945 66.1335C46.0025 66.1335 45.6805 65.8115 45.6805 65.4195C45.6805 65.0275 46.0025 64.6915 46.3945 64.6915C46.7865 64.6915 47.1225 65.0275 47.1225 65.4195C47.1225 65.8115 46.7865 66.1335 46.3945 66.1335ZM45.9185 74.7715V67.9955H46.8845V74.7715H45.9185ZM49.627 74.7715H48.661V64.5655H49.627V74.7715ZM51.8775 66.1335C51.4855 66.1335 51.1635 65.8115 51.1635 65.4195C51.1635 65.0275 51.4855 64.6915 51.8775 64.6915C52.2695 64.6915 52.6055 65.0275 52.6055 65.4195C52.6055 65.8115 52.2695 66.1335 51.8775 66.1335ZM51.4015 74.7715V67.9955H52.3675V74.7715H51.4015ZM55.656 74.7715H54.704V68.8075H53.346V67.9955H54.704V65.8535H55.656V67.9955H57.014V68.8075H55.656V74.7715ZM57.3059 77.7255V76.9275H58.0479C58.6359 76.9275 59.2239 76.8855 59.5599 75.9755L59.8539 75.1775L57.1099 67.9955H58.1319L60.3159 73.9035L62.4579 67.9955H63.4519L60.3439 76.3255C59.9519 77.3895 59.2939 77.8235 58.3279 77.8235C57.9219 77.8235 57.6139 77.7955 57.3059 77.7255Z" fill="white" fill-opacity="0.8"/>
<path d="M147.837 75.2715H146.269V63.7035H147.837V68.6795H153.565V63.7035H155.133V75.2715H153.565V70.1355H147.837V75.2715ZM159.064 63.7035V75.2715H157.496V63.7035H159.064ZM166.401 64.9835C163.905 64.9835 162.401 66.8235 162.401 69.5595C162.401 72.3595 164.033 73.9755 166.417 73.9755C168.385 73.9755 169.969 72.9675 169.969 70.6315V70.2955H166.097V68.9035H171.441V75.2875H170.129L170.017 73.7195C169.393 74.7275 167.985 75.4635 166.289 75.4635C163.009 75.4635 160.753 73.0955 160.753 69.5275C160.753 66.0075 163.025 63.5115 166.433 63.5115C168.961 63.5115 170.929 64.9675 171.313 67.1915H169.649C169.217 65.7195 167.937 64.9835 166.401 64.9835ZM174.924 75.2715H173.356V63.7035H174.924V68.6795H180.652V63.7035H182.22V75.2715H180.652V70.1355H174.924V75.2715ZM191.758 78.0395H190.51C189.038 76.1995 188.062 73.4155 188.062 70.5195C188.062 67.7995 188.942 64.9515 190.51 63.0155H191.758C190.494 64.7755 189.598 67.5275 189.598 70.5195C189.598 73.3515 190.398 76.1675 191.758 78.0395ZM193.266 68.8875L192.402 68.0235L197.714 62.7915L203.026 68.0235L202.178 68.8875L198.306 65.0955V75.2715H197.122V65.0955L193.266 68.8875ZM209.004 69.2395H212.364V65.8795H213.644V69.2395H217.004V70.5195H213.644V73.8955H212.364V70.5195H209.004V69.2395ZM222.063 69.2875H220.911V68.2475L224.191 65.0955H218.991V63.7035H226.175V64.9675L223.007 67.9915C224.975 68.2315 226.463 69.5595 226.463 71.6395C226.463 73.9755 224.703 75.4635 222.351 75.4635C220.079 75.4635 218.447 74.0715 218.447 71.6715H219.999C219.999 73.1755 220.927 74.0555 222.383 74.0555C223.887 74.0555 224.863 73.0955 224.863 71.6075C224.863 70.2155 223.903 69.2875 222.063 69.2875ZM227.524 69.4955C227.524 65.9115 229.38 63.4795 232.292 63.4795C235.188 63.4795 237.044 65.9115 237.044 69.4955C237.044 73.0955 235.268 75.4795 232.292 75.4795C229.3 75.4795 227.524 73.0955 227.524 69.4955ZM229.076 69.4955C229.076 72.3435 230.26 74.0715 232.292 74.0715C234.324 74.0715 235.492 72.3435 235.492 69.4955C235.492 66.6155 234.324 64.8875 232.292 64.8875C230.26 64.8875 229.076 66.6155 229.076 69.4955ZM244.026 66.4395C244.026 68.1515 242.81 69.3835 241.098 69.3835C239.402 69.3835 238.186 68.1515 238.186 66.4395C238.186 64.7115 239.402 63.4795 241.098 63.4795C242.81 63.4795 244.026 64.7115 244.026 66.4395ZM250.122 63.7195L241.338 75.2715H239.802L248.586 63.7195H250.122ZM242.794 66.4395C242.794 65.3995 242.106 64.6795 241.098 64.6795C240.106 64.6795 239.418 65.3995 239.418 66.4395C239.418 67.4635 240.106 68.1835 241.098 68.1835C242.09 68.1835 242.794 67.4635 242.794 66.4395ZM251.77 72.5355C251.77 74.2475 250.538 75.4795 248.842 75.4795C247.146 75.4795 245.914 74.2475 245.914 72.5355C245.914 70.8075 247.146 69.5915 248.842 69.5915C250.538 69.5915 251.77 70.8075 251.77 72.5355ZM250.522 72.5355C250.522 71.4955 249.85 70.7755 248.842 70.7755C247.85 70.7755 247.162 71.4955 247.162 72.5355C247.162 73.5595 247.85 74.2795 248.842 74.2795C249.834 74.2795 250.522 73.5595 250.522 72.5355ZM259.451 75.2715H257.947V68.7115H256.411V67.4475H257.947V64.9995H259.451V67.4475H260.987V68.7115H259.451V75.2715ZM263.521 75.2555H262.017V63.4955H263.521V68.6475C264.017 67.7995 264.961 67.2235 266.177 67.2235C268.177 67.2235 269.137 68.4875 269.137 70.4875V75.2715H267.633V70.8235C267.633 69.2395 266.881 68.5995 265.761 68.5995C264.305 68.5995 263.521 69.6555 263.521 70.9995V75.2555ZM271.636 65.5915C271.092 65.5915 270.644 65.1435 270.644 64.5995C270.644 64.0395 271.092 63.6075 271.636 63.6075C272.18 63.6075 272.628 64.0395 272.628 64.5995C272.628 65.1435 272.18 65.5915 271.636 65.5915ZM270.9 75.2715V67.4475H272.404V75.2715H270.9ZM273.628 72.9995H275.068C275.068 73.7995 275.676 74.2795 276.668 74.2795C277.724 74.2795 278.332 73.8475 278.332 73.1275C278.332 72.5995 278.076 72.2795 277.26 72.0715L275.884 71.7515C274.492 71.4155 273.836 70.7275 273.836 69.5755C273.836 68.1355 275.052 67.2235 276.78 67.2235C278.492 67.2235 279.612 68.1835 279.644 69.6715H278.204C278.172 68.8875 277.644 68.3915 276.732 68.3915C275.788 68.3915 275.26 68.8075 275.26 69.5275C275.26 70.0555 275.644 70.4075 276.412 70.5995L277.788 70.9355C279.116 71.2555 279.772 71.8635 279.772 73.0315C279.772 74.5195 278.492 75.4635 276.636 75.4635C274.796 75.4635 273.628 74.4875 273.628 72.9995ZM286.855 75.2715L284.295 67.4475H285.847L287.143 71.5115C287.319 72.0875 287.479 72.6795 287.623 73.3675C287.751 72.6795 287.959 72.0235 288.135 71.5115L289.447 67.4475H290.983L292.279 71.5115C292.407 71.8955 292.663 72.8075 292.791 73.3675C292.919 72.7435 293.063 72.1995 293.287 71.5115L294.599 67.4475H296.167L293.495 75.2715H292.071L290.711 71.0795C290.455 70.2955 290.295 69.6875 290.215 69.2555C290.135 69.6395 289.991 70.1515 289.703 71.0955L288.343 75.2715H286.855ZM300.153 75.4635C297.849 75.4635 296.265 73.7995 296.265 71.3675C296.265 68.9195 297.817 67.2235 300.089 67.2235C302.313 67.2235 303.769 68.7595 303.769 71.0795V71.6395L297.721 71.6555C297.833 73.3035 298.697 74.2155 300.185 74.2155C301.353 74.2155 302.121 73.7355 302.377 72.8395H303.785C303.401 74.5195 302.089 75.4635 300.153 75.4635ZM300.089 68.4875C298.777 68.4875 297.945 69.2715 297.753 70.6475H302.265C302.265 69.3515 301.417 68.4875 300.089 68.4875ZM308.504 75.4635C306.2 75.4635 304.616 73.7995 304.616 71.3675C304.616 68.9195 306.168 67.2235 308.44 67.2235C310.664 67.2235 312.12 68.7595 312.12 71.0795V71.6395L306.072 71.6555C306.184 73.3035 307.048 74.2155 308.536 74.2155C309.704 74.2155 310.472 73.7355 310.728 72.8395H312.136C311.752 74.5195 310.44 75.4635 308.504 75.4635ZM308.44 68.4875C307.128 68.4875 306.296 69.2715 306.104 70.6475H310.616C310.616 69.3515 309.768 68.4875 308.44 68.4875ZM315.016 75.2715H313.512V63.4955H315.016V71.1275L318.488 67.4475H320.376L317.384 70.5675L320.36 75.2715H318.632L316.344 71.6555L315.016 73.0475V75.2715ZM321.461 78.0395H320.197C321.557 76.1675 322.357 73.3515 322.357 70.5195C322.357 67.5275 321.477 64.7755 320.197 63.0155H321.461C323.013 64.9515 323.893 67.7995 323.893 70.5195C323.893 73.4155 322.917 76.1995 321.461 78.0395Z" fill="white"/>
<path d="M20.06 105.439C18.044 105.439 16.756 104.179 16.756 102.205H17.764C17.764 103.647 18.646 104.515 20.074 104.515C21.586 104.515 22.566 103.507 22.566 102.023C22.566 100.623 21.656 99.5175 20.074 99.5175C19.15 99.5175 18.31 99.9375 17.764 100.539L16.966 100.287L18.17 95.2475H23.014V96.1715H18.898L18.142 99.3215C18.702 98.8735 19.43 98.6215 20.214 98.6215C22.3 98.6215 23.588 100.119 23.588 101.995C23.588 104.011 22.16 105.439 20.06 105.439ZM28.1521 105.271H25.1001V95.2475H28.1241C31.1481 95.2475 33.1641 97.2635 33.1641 100.259C33.1641 103.255 31.1621 105.271 28.1521 105.271ZM28.0821 96.1715H26.1081V104.347H28.1101C30.5601 104.347 32.1281 102.751 32.1281 100.259C32.1281 97.7535 30.5601 96.1715 28.0821 96.1715ZM41.0657 105.271L37.2297 95.2475H38.3077L40.9817 102.219C41.1917 102.765 41.3877 103.311 41.6117 104.011C41.8217 103.283 42.0737 102.583 42.2277 102.205L44.8877 95.2475H45.9237L42.1157 105.271H41.0657ZM47.6934 105.439C46.2514 105.439 45.3974 104.627 45.3974 103.437C45.3974 102.191 46.3494 101.407 47.9314 101.281L50.1714 101.099V100.875C50.1714 99.5455 49.3734 99.1255 48.3794 99.1255C47.2034 99.1255 46.5034 99.6575 46.5034 100.567H45.6214C45.6214 99.1955 46.7414 98.3135 48.4074 98.3135C49.9754 98.3135 51.1234 99.0975 51.1234 100.889V105.271H50.3114L50.1854 104.081C49.7654 104.935 48.8414 105.439 47.6934 105.439ZM47.9174 104.655C49.3454 104.655 50.1714 103.661 50.1714 102.191V101.827L48.1694 101.981C46.8954 102.093 46.3774 102.653 46.3774 103.409C46.3774 104.235 46.9934 104.655 47.9174 104.655ZM56.3238 98.4115V99.2795H55.7918C54.5458 99.2795 53.7478 100.119 53.7478 101.407V105.271H52.7818V98.4955H53.6918L53.7618 99.5455C54.0278 98.8175 54.7418 98.3415 55.6938 98.3415C55.9038 98.3415 56.0858 98.3555 56.3238 98.4115ZM57.804 96.6335C57.412 96.6335 57.09 96.3115 57.09 95.9195C57.09 95.5275 57.412 95.1915 57.804 95.1915C58.196 95.1915 58.532 95.5275 58.532 95.9195C58.532 96.3115 58.196 96.6335 57.804 96.6335ZM57.328 105.271V98.4955H58.294V105.271H57.328ZM61.9745 105.439C60.5325 105.439 59.6785 104.627 59.6785 103.437C59.6785 102.191 60.6305 101.407 62.2125 101.281L64.4525 101.099V100.875C64.4525 99.5455 63.6545 99.1255 62.6605 99.1255C61.4845 99.1255 60.7845 99.6575 60.7845 100.567H59.9025C59.9025 99.1955 61.0225 98.3135 62.6885 98.3135C64.2565 98.3135 65.4045 99.0975 65.4045 100.889V105.271H64.5925L64.4665 104.081C64.0465 104.935 63.1225 105.439 61.9745 105.439ZM62.1985 104.655C63.6265 104.655 64.4525 103.661 64.4525 102.191V101.827L62.4505 101.981C61.1765 102.093 60.6585 102.653 60.6585 103.409C60.6585 104.235 61.2745 104.655 62.1985 104.655ZM68.0289 105.271H67.0629V98.4955H67.9029L68.0429 99.6715C68.4909 98.8035 69.3869 98.3135 70.3669 98.3135C72.2289 98.3135 72.9989 99.4195 72.9989 101.127V105.271H72.0329V101.337C72.0329 99.7555 71.3189 99.1955 70.1989 99.1955C68.8129 99.1955 68.0289 100.203 68.0289 101.729V105.271ZM74.1682 101.897C74.1682 99.7695 75.4702 98.3135 77.4442 98.3135C79.0122 98.3135 80.1602 99.2235 80.4262 100.623H79.4602C79.2082 99.6855 78.3962 99.1675 77.4582 99.1675C76.0862 99.1675 75.1202 100.217 75.1202 101.883C75.1202 103.493 76.0162 104.571 77.3882 104.571C78.3962 104.571 79.2082 104.011 79.4742 103.143H80.4542C80.1322 104.529 78.9282 105.439 77.3882 105.439C75.4702 105.439 74.1682 104.025 74.1682 101.897ZM84.4797 105.439C82.4917 105.439 81.1617 104.011 81.1617 101.883C81.1617 99.7695 82.4777 98.3135 84.4097 98.3135C86.2437 98.3135 87.4897 99.6155 87.4897 101.533V102.009H82.0997C82.1697 103.661 83.0377 104.613 84.4937 104.613C85.5997 104.613 86.3137 104.137 86.5657 103.241H87.4897C87.1257 104.669 86.0757 105.439 84.4797 105.439ZM84.4097 99.1395C83.1357 99.1395 82.2957 99.9795 82.1277 101.309H86.5237C86.5237 100.007 85.6837 99.1395 84.4097 99.1395Z" fill="white" fill-opacity="0.8"/>
<path d="M325.232 93.2058C324.919 92.8934 324.413 92.8934 324.1 93.2058L319.009 98.297C318.697 98.6094 318.697 99.1159 319.009 99.4283C319.322 99.7408 319.828 99.7408 320.141 99.4283L324.666 94.9029L329.191 99.4283C329.504 99.7408 330.01 99.7408 330.323 99.4283C330.635 99.1159 330.635 98.6094 330.323 98.297L325.232 93.2058ZM324.666 105.771L325.466 105.771L325.466 93.7715L324.666 93.7715L323.866 93.7715L323.866 105.771L324.666 105.771Z" fill="white"/>
<line x1="16" y1="128.771" x2="324.667" y2="128.771" stroke="white" stroke-opacity="0.05"/>
<path opacity="0.4" d="M161.309 220.084H159.901V212.043H162.97C164.796 212.043 165.863 212.967 165.863 214.551C165.863 215.629 165.357 216.399 164.411 216.784L165.94 220.084H164.4L163.036 217.081H161.309V220.084ZM161.309 213.297V215.838H162.97C163.861 215.838 164.389 215.365 164.389 214.551C164.389 213.748 163.861 213.297 162.97 213.297H161.309ZM168.623 212.043V220.084H167.215V212.043H168.623ZM169.888 214.287C169.888 212.879 171.054 211.9 172.748 211.9C174.376 211.9 175.41 212.802 175.454 214.254H174.046C174.013 213.561 173.518 213.154 172.726 213.154C171.857 213.154 171.296 213.572 171.296 214.243C171.296 214.815 171.604 215.134 172.275 215.288L173.54 215.563C174.915 215.86 175.586 216.564 175.586 217.763C175.586 219.259 174.42 220.227 172.649 220.227C170.933 220.227 169.811 219.314 169.778 217.873H171.186C171.197 218.555 171.747 218.962 172.649 218.962C173.584 218.962 174.178 218.555 174.178 217.884C174.178 217.345 173.903 217.026 173.243 216.883L171.967 216.597C170.603 216.3 169.888 215.519 169.888 214.287ZM178.213 212.043V216.267L181.469 212.043H183.13L180.468 215.475L183.163 220.084H181.535L179.544 216.663L178.213 218.368V220.084H176.805V212.043H178.213Z" fill="white"/>
<path d="M148.47 254.084H145.922V235.286H148.47V243.372H157.778V235.286H160.326V254.084H157.778V245.738H148.47V254.084ZM165.336 238.354C164.452 238.354 163.724 237.626 163.724 236.742C163.724 235.832 164.452 235.13 165.336 235.13C166.22 235.13 166.948 235.832 166.948 236.742C166.948 237.626 166.22 238.354 165.336 238.354ZM164.14 254.084V241.37H166.584V254.084H164.14ZM169.196 247.402C169.196 243.814 171.51 241.006 175.202 241.006C177.256 241.006 178.842 241.942 179.648 243.528L179.83 241.37H182.014V253.564C182.014 257.568 179.544 260.116 175.644 260.116C172.186 260.116 169.82 258.166 169.352 254.942H171.796C172.108 256.814 173.512 257.906 175.644 257.906C178.036 257.906 179.596 256.346 179.596 253.928V251.38C178.764 252.862 177.1 253.746 175.098 253.746C171.484 253.746 169.196 250.964 169.196 247.402ZM171.64 247.35C171.64 249.742 173.122 251.614 175.514 251.614C177.984 251.614 179.492 249.846 179.492 247.35C179.492 244.906 178.036 243.138 175.54 243.138C173.096 243.138 171.64 245.01 171.64 247.35ZM187.855 254.058H185.411V234.948H187.855V243.32C188.661 241.942 190.195 241.006 192.171 241.006C195.421 241.006 196.981 243.06 196.981 246.31V254.084H194.537V246.856C194.537 244.282 193.315 243.242 191.495 243.242C189.129 243.242 187.855 244.958 187.855 247.142V254.058Z" fill="white"/>
<path d="M81.668 273.084C81.668 250.01 91.0974 227.881 107.882 211.566C124.666 195.25 147.431 186.084 171.168 186.084C194.905 186.084 217.67 195.25 234.454 211.566C251.239 227.881 260.668 250.01 260.668 273.084" stroke="url(#paint1_linear_1471_2617)" stroke-linecap="round" stroke-dasharray="0 0.56 5.58 0 0.56 5.58"/>
<path d="M302.668 276.584C302.668 241.708 288.814 208.26 264.153 183.599C239.491 158.938 206.044 145.084 171.168 145.084C136.292 145.084 102.844 158.938 78.1834 183.599C53.5224 208.26 39.668 241.708 39.668 276.584H71.228C71.228 250.078 81.7573 224.658 100.5 205.916C119.242 187.173 144.662 176.644 171.168 176.644C197.674 176.644 223.094 187.173 241.836 205.916C260.579 224.658 271.108 250.078 271.108 276.584H302.668Z" fill="white" fill-opacity="0.1"/>
<path d="M302.668 276.584C302.668 259.315 299.267 242.215 292.658 226.261C286.05 210.307 276.363 195.81 264.153 183.599C251.942 171.389 237.445 161.702 221.491 155.094C205.537 148.485 188.437 145.084 171.168 145.084C153.899 145.084 136.799 148.485 120.845 155.094C104.891 161.702 90.3943 171.389 78.1834 183.599C65.9725 195.81 56.2863 210.307 49.6778 226.261C43.0693 242.215 39.668 259.315 39.668 276.584H71.228C71.228 263.46 73.813 250.464 78.8354 238.339C83.8579 226.213 91.2194 215.196 100.5 205.916C109.78 196.635 120.797 189.274 132.923 184.251C145.048 179.229 158.044 176.644 171.168 176.644C184.292 176.644 197.288 179.229 209.413 184.251C221.539 189.274 232.556 196.635 241.836 205.916C251.117 215.196 258.478 226.213 263.5 238.339C268.523 250.464 271.108 263.46 271.108 276.584H302.668Z" fill="url(#paint2_linear_1471_2617)"/>
<g filter="url(#filter0_d_1471_2617)">
<path d="M270.77 266.12L302.068 262.562" stroke="white" stroke-width="3"/>
</g>
</g>
<path d="M10.5811 0.771484H330.086C335.653 0.771484 340.167 5.28514 340.167 10.8525V288.419C340.167 293.986 335.653 298.499 330.086 298.499H10.5811C5.01371 298.499 0.500099 293.986 0.5 288.419V10.8525C0.5 5.28514 5.01365 0.771484 10.5811 0.771484Z" stroke="url(#paint3_linear_1471_2617)"/>
<defs>
<filter id="filter0_d_1471_2617" x="266.6" y="261.072" width="39.6387" height="14.5386" filterUnits="userSpaceOnUse" color-interpolation-filters="sRGB">
<feFlood flood-opacity="0" result="BackgroundImageFix"/>
<feColorMatrix in="SourceAlpha" type="matrix" values="0 0 0 0 0 0 0 0 0 0 0 0 0 0 0 0 0 0 127 0" result="hardAlpha"/>
<feOffset dy="4"/>
<feGaussianBlur stdDeviation="2"/>
<feComposite in2="hardAlpha" operator="out"/>
<feColorMatrix type="matrix" values="0 0 0 0 0 0 0 0 0 0 0 0 0 0 0 0 0 0 0.25 0"/>
<feBlend mode="normal" in2="BackgroundImageFix" result="effect1_dropShadow_1471_2617"/>
<feBlend mode="normal" in="SourceGraphic" in2="effect1_dropShadow_1471_2617" result="shape"/>
</filter>
<linearGradient id="paint0_linear_1471_2617" x1="170.333" y1="0.271484" x2="170.333" y2="298.999" gradientUnits="userSpaceOnUse">
<stop stop-color="white" stop-opacity="0.4"/>
<stop offset="1" stop-color="white" stop-opacity="0"/>
</linearGradient>
<linearGradient id="paint1_linear_1471_2617" x1="88.7356" y1="229.584" x2="251.743" y2="229.584" gradientUnits="userSpaceOnUse">
<stop stop-color="#1AF273"/>
<stop offset="0.842874" stop-color="#FF6135"/>
<stop offset="1" stop-color="#FF1400"/>
</linearGradient>
<linearGradient id="paint2_linear_1471_2617" x1="39.46" y1="269.084" x2="302.46" y2="269.084" gradientUnits="userSpaceOnUse">
<stop stop-color="#15B359"/>
<stop offset="0.5" stop-color="#C96144"/>
<stop offset="1" stop-color="#DC3527"/>
</linearGradient>
<linearGradient id="paint3_linear_1471_2617" x1="40.9696" y1="253.9" x2="183.456" y2="27.8421" gradientUnits="userSpaceOnUse">
<stop stop-color="#3EDC81"/>
<stop offset="1" stop-color="#0276DB"/>
</linearGradient>
<clipPath id="clip0_1471_2617">
<path d="M0 10.8522C0 5.00863 4.73713 0.271484 10.5807 0.271484H330.086C335.93 0.271484 340.667 5.00861 340.667 10.8522V288.419C340.667 294.262 335.93 298.999 330.086 298.999H10.5807C4.73713 298.999 0 294.262 0 288.419V10.8522Z" fill="white"/>
</clipPath>
</defs>
</svg>
