<svg width="397" height="299" viewBox="0 0 397 299" fill="none" xmlns="http://www.w3.org/2000/svg">
<path opacity="0.1" d="M19.0417 178.029C5.51892 180.136 8.37833 181.837 0 186.026V298.372H457V97.6731C457 97.6731 444.404 125.112 434.531 123.951C419.246 122.153 425.893 108.443 410.538 109.479C399.121 110.249 397.209 146.581 380.833 145.658C360.146 144.492 368.272 126.43 347.701 123.951C333.255 122.21 333.684 95.7655 319.138 95.3881C296.667 94.8052 293.505 73.1847 274.2 71.3956C228.639 67.1734 270.363 -0.710056 224.692 2.0839C180.125 4.81034 229.874 114.126 185.466 109.479C174.282 108.309 169.566 98.0391 158.427 99.5773C144.669 101.477 145.805 119.871 132.53 123.951C115.177 129.284 106.096 105.635 88.3533 109.479C71.3571 113.161 72.2305 138.755 54.84 138.803C31.4203 138.868 42.1822 174.423 19.0417 178.029Z" fill="url(#paint0_linear_1350_95920)"/>
<path d="M0 186.026C8.37833 181.837 5.51892 180.136 19.0417 178.029C42.1822 174.423 31.4203 138.868 54.84 138.803C72.2305 138.755 71.3571 113.161 88.3533 109.479C106.096 105.635 115.177 129.284 132.53 123.951C145.805 119.871 144.669 101.477 158.427 99.5773C169.566 98.0391 174.282 108.309 185.466 109.479C229.874 114.126 180.125 4.81034 224.692 2.0839C270.363 -0.710056 228.639 67.1734 274.2 71.3956C293.505 73.1847 296.667 94.8052 319.138 95.3881C333.684 95.7655 333.255 122.21 347.701 123.951C368.272 126.43 360.146 144.492 380.833 145.658C397.209 146.581 399.121 110.249 410.538 109.479C425.893 108.443 419.246 122.153 434.531 123.951C444.404 125.112 457 97.6731 457 97.6731" stroke="url(#paint1_linear_1350_95920)" stroke-width="3.80833" stroke-linecap="round"/>
<path opacity="0.5" d="M252.875 28.7422H321.425V298.372H252.875V28.7422Z" fill="url(#paint2_linear_1350_95920)"/>
<g filter="url(#filter0_d_1350_95920)">
<circle cx="287.147" cy="74.4423" r="15.2333" fill="white"/>
<circle cx="287.147" cy="74.4423" r="11.0442" stroke="url(#paint3_linear_1350_95920)" stroke-width="8.37833"/>
</g>
<path opacity="0.5" d="M21.98 288.33V287.929H23.0383V288.33C23.0383 289.121 23.4727 289.689 24.3639 289.689C25.2774 289.689 25.6785 289.132 25.6785 288.296V282.515H26.7702V288.341C26.7702 289.789 25.801 290.703 24.3639 290.703C22.8266 290.703 21.98 289.722 21.98 288.33ZM28.7059 290.569H27.5697L30.5106 282.515H31.7249L34.677 290.569H33.5296L32.8055 288.564H29.4189L28.7059 290.569ZM30.9785 284.252L29.7531 287.617H32.4824L31.2459 284.252C31.1902 284.097 31.1345 283.907 31.1122 283.785C31.0899 283.896 31.0342 284.085 30.9785 284.252ZM36.8394 290.569H35.7476V282.515H36.8394L40.9612 288.742V282.515H42.0529V290.569H40.9612L36.8394 284.342V290.569Z" fill="white"/>
<path d="M279.425 290.569H278.355V282.515H279.425L282.199 289.288L284.972 282.515H286.064V290.569H284.995V287.383C284.995 285.879 285.006 285.333 285.062 284.765L282.711 290.569H281.686L279.347 284.787C279.402 285.177 279.425 286.001 279.425 287.127V290.569ZM288.274 290.569H287.138L290.078 282.515H291.293L294.245 290.569H293.097L292.373 288.564H288.987L288.274 290.569ZM290.546 284.252L289.321 287.617H292.05L290.814 284.252C290.758 284.097 290.702 283.907 290.68 283.785C290.658 283.896 290.602 284.085 290.546 284.252ZM296.415 287.294L293.686 282.515H294.911L296.705 285.734C296.816 285.923 296.883 286.079 296.972 286.269C297.073 286.068 297.095 286.001 297.24 285.734L299.022 282.515H300.214L297.507 287.294V290.569H296.415V287.294Z" fill="white"/>
<path opacity="0.5" d="M91.6719 287.149H88.5081V290.569H87.4164V282.515H92.2734V283.517H88.5081V286.157H91.6719V287.149ZM98.5084 290.569H93.5956V282.515H98.5084V283.517H94.6873V286.035H98.1296V287.004H94.6873V289.555H98.5084V290.569ZM100.09 290.569V282.515H103.165C104.736 282.515 105.694 283.317 105.694 284.642C105.694 285.567 105.293 286.191 104.491 286.525C105.382 286.815 105.839 287.461 105.839 288.419C105.839 289.756 104.869 290.569 103.276 290.569H100.09ZM103.098 283.484H101.182V286.068H103.165C104.067 286.068 104.58 285.578 104.58 284.743C104.58 283.941 104.045 283.484 103.098 283.484ZM103.254 287.015H101.182V289.6H103.254C104.19 289.6 104.713 289.121 104.713 288.285C104.713 287.483 104.179 287.015 103.254 287.015Z" fill="white"/>
<path opacity="0.5" d="M152.756 290.569H151.686V282.515H152.756L155.53 289.288L158.303 282.515H159.395V290.569H158.326V287.383C158.326 285.879 158.337 285.333 158.392 284.765L156.042 290.569H155.017L152.678 284.787C152.733 285.177 152.756 286.001 152.756 287.127V290.569ZM161.605 290.569H160.468L163.409 282.515H164.624L167.576 290.569H166.428L165.704 288.564H162.318L161.605 290.569ZM163.877 284.252L162.652 287.617H165.381L164.145 284.252C164.089 284.097 164.033 283.907 164.011 283.785C163.989 283.896 163.933 284.085 163.877 284.252ZM169.738 290.569H168.646V282.515H171.688C173.414 282.515 174.439 283.428 174.439 284.932C174.439 286.046 173.882 286.848 172.88 287.171L174.517 290.569H173.303L171.799 287.383H169.738V290.569ZM169.738 283.495V286.414H171.699C172.713 286.414 173.292 285.868 173.292 284.943C173.292 284.007 172.69 283.495 171.688 283.495H169.738Z" fill="white"/>
<path opacity="0.5" d="M344.599 288.33V287.929H345.658V288.33C345.658 289.121 346.092 289.689 346.983 289.689C347.897 289.689 348.298 289.132 348.298 288.296V282.515H349.389V288.341C349.389 289.789 348.42 290.703 346.983 290.703C345.446 290.703 344.599 289.722 344.599 288.33ZM351.153 287.706V282.515H352.245V287.639C352.245 288.931 352.958 289.644 354.239 289.644C355.509 289.644 356.21 288.92 356.21 287.639V282.515H357.313V287.706C357.313 289.555 356.132 290.703 354.239 290.703C352.334 290.703 351.153 289.566 351.153 287.706ZM360.22 290.569H359.128V282.515H360.22L364.342 288.742V282.515H365.434V290.569H364.342L360.22 284.342V290.569Z" fill="white"/>
<path opacity="0.5" d="M214.831 290.569H213.695L216.636 282.515H217.85L220.802 290.569H219.655L218.931 288.564H215.544L214.831 290.569ZM217.104 284.252L215.878 287.617H218.608L217.371 284.252C217.316 284.097 217.26 283.907 217.238 283.785C217.215 283.896 217.16 284.085 217.104 284.252ZM225.003 287.695H222.965V290.569H221.873V282.515H225.003C226.585 282.515 227.599 283.551 227.599 285.099C227.599 286.603 226.574 287.695 225.003 287.695ZM224.814 283.495H222.965V286.714H224.769C225.85 286.714 226.452 286.079 226.452 285.088C226.452 284.074 225.839 283.495 224.814 283.495ZM229.927 290.569H228.836V282.515H231.877C233.603 282.515 234.628 283.428 234.628 284.932C234.628 286.046 234.071 286.848 233.069 287.171L234.706 290.569H233.492L231.988 287.383H229.927V290.569ZM229.927 283.495V286.414H231.888C232.902 286.414 233.481 285.868 233.481 284.943C233.481 284.007 232.879 283.495 231.877 283.495H229.927Z" fill="white"/>
<defs>
<filter id="filter0_d_1350_95920" x="252.872" y="43.9757" width="68.5501" height="68.5499" filterUnits="userSpaceOnUse" color-interpolation-filters="sRGB">
<feFlood flood-opacity="0" result="BackgroundImageFix"/>
<feColorMatrix in="SourceAlpha" type="matrix" values="0 0 0 0 0 0 0 0 0 0 0 0 0 0 0 0 0 0 127 0" result="hardAlpha"/>
<feOffset dy="3.80833"/>
<feGaussianBlur stdDeviation="9.52083"/>
<feColorMatrix type="matrix" values="0 0 0 0 0 0 0 0 0 0 0 0 0 0 0 0 0 0 0.1 0"/>
<feBlend mode="normal" in2="BackgroundImageFix" result="effect1_dropShadow_1350_95920"/>
<feBlend mode="normal" in="SourceGraphic" in2="effect1_dropShadow_1350_95920" result="shape"/>
</filter>
<linearGradient id="paint0_linear_1350_95920" x1="228.5" y1="2" x2="228.5" y2="298.372" gradientUnits="userSpaceOnUse">
<stop stop-color="#3EDC81"/>
<stop offset="1" stop-color="#3EDC81" stop-opacity="0"/>
</linearGradient>
<linearGradient id="paint1_linear_1350_95920" x1="228.5" y1="2" x2="228.5" y2="186.026" gradientUnits="userSpaceOnUse">
<stop stop-color="#3EDC81"/>
<stop offset="1" stop-color="#2AC86D"/>
</linearGradient>
<linearGradient id="paint2_linear_1350_95920" x1="287.15" y1="28.7422" x2="287.15" y2="298.372" gradientUnits="userSpaceOnUse">
<stop offset="0.0104167" stop-color="#3EDC81" stop-opacity="0"/>
<stop offset="0.28125" stop-color="#3EDC81"/>
<stop offset="0.666667" stop-color="#20BE63"/>
<stop offset="0.984375" stop-color="#20BE63" stop-opacity="0"/>
</linearGradient>
<linearGradient id="paint3_linear_1350_95920" x1="287.147" y1="59.209" x2="287.147" y2="89.6757" gradientUnits="userSpaceOnUse">
<stop stop-color="#3EDC81"/>
<stop offset="1" stop-color="#20BE63"/>
</linearGradient>
</defs>
</svg>
