<svg width="340" height="201" viewBox="0 0 340 201" fill="none" xmlns="http://www.w3.org/2000/svg">
<mask id="mask0_360_4453" style="mask-type:alpha" maskUnits="userSpaceOnUse" x="0" y="0" width="340" height="201">
<rect width="340" height="200" transform="translate(0 0.0654297)" fill="url(#paint0_linear_360_4453)"/>
</mask>
<g mask="url(#mask0_360_4453)">
<path d="M24.2925 -286.926H552.634C559.412 -286.926 562.802 -286.926 565.391 -285.607C567.669 -284.446 569.52 -282.594 570.681 -280.317C572 -277.728 572 -274.338 572 -267.559V180.895C572 187.674 572 191.063 570.681 193.653C569.52 195.93 567.669 197.782 565.391 198.942C562.802 200.262 559.412 200.262 552.634 200.262H43.6589C36.88 200.262 33.4906 200.262 30.9014 198.942C28.6239 197.782 26.7722 195.93 25.6117 193.653C24.2925 191.063 24.2925 187.674 24.2925 180.895V-286.926Z" fill="url(#paint1_linear_360_4453)" fill-opacity="0.8"/>
<path d="M552.633 -286.548C556.029 -286.548 558.553 -286.547 560.552 -286.384C562.547 -286.221 563.987 -285.897 565.219 -285.27C567.425 -284.145 569.219 -282.352 570.343 -280.146C570.971 -278.913 571.295 -277.473 571.458 -275.479C571.622 -273.479 571.622 -270.955 571.622 -267.56V180.896C571.622 184.291 571.622 186.815 571.458 188.814C571.296 190.809 570.971 192.248 570.343 193.48C569.219 195.687 567.426 197.481 565.219 198.605C563.987 199.233 562.547 199.557 560.552 199.72C558.553 199.883 556.029 199.884 552.633 199.884H43.6587C40.2631 199.884 37.7391 199.883 35.7397 199.72C33.7448 199.557 32.3051 199.233 31.0728 198.605C28.8665 197.481 27.0729 195.687 25.9487 193.48C25.3209 192.248 24.9975 190.809 24.8345 188.814C24.6711 186.815 24.6704 184.291 24.6704 180.896V-286.548H552.633Z" stroke="white" stroke-opacity="0.05" stroke-width="0.756502"/>
<path d="M46.2534 5.74176C46.2522 5.74176 46.2522 2.84021 46.2522 2.84021L42.1886 2.83847C42.1898 2.83847 42.1898 5.74001 42.1898 5.74001L46.2534 5.74176ZM41.6094 2.84021C41.6092 2.76391 41.624 2.68831 41.653 2.61774C41.682 2.54716 41.7246 2.483 41.7784 2.42891C41.8321 2.37482 41.8961 2.33187 41.9665 2.30251C42.0369 2.27315 42.1123 2.25796 42.1886 2.25781H46.2534C46.5732 2.25781 46.8326 2.51214 46.8326 2.84021V5.74001C46.8328 5.81632 46.818 5.89192 46.789 5.96249C46.76 6.03306 46.7174 6.09723 46.6636 6.15132C46.6098 6.20541 46.5459 6.24836 46.4755 6.27771C46.4051 6.30707 46.3296 6.32226 46.2534 6.32241H42.1886C42.1122 6.3228 42.0365 6.30798 41.9658 6.27882C41.8952 6.24965 41.831 6.20672 41.7771 6.15252C41.7233 6.09832 41.6807 6.03394 41.6519 5.96313C41.6231 5.89231 41.6086 5.81647 41.6094 5.74001V2.84021Z" fill="white"/>
<path fill-rule="evenodd" clip-rule="evenodd" d="M43.929 3.99854H44.5093V5.15985H43.929V3.99854Z" fill="white"/>
<path d="M45.6693 0.807601C45.6693 0.422601 45.5165 0.0533696 45.2444 -0.218866C44.9723 -0.491102 44.6033 -0.644043 44.2185 -0.644043C43.8337 -0.644043 43.4646 -0.491102 43.1925 -0.218866C42.9204 0.0533696 42.7676 0.422601 42.7676 0.807601V2.54957H43.3479V0.807601C43.3479 0.576601 43.4396 0.355062 43.6029 0.19172C43.7662 0.0283787 43.9876 -0.0633855 44.2185 -0.0633855C44.4493 -0.0633855 44.6708 0.0283787 44.834 0.19172C44.9973 0.355062 45.089 0.576601 45.089 0.807601V1.09793H45.6693V0.807601Z" fill="white"/>
<path d="M34.644 0.926411C34.6441 0.772423 34.7052 0.624755 34.8141 0.515886L41.2827 -5.95612C41.3635 -6.03706 41.4595 -6.10127 41.5652 -6.14507C41.6708 -6.18888 41.7841 -6.21143 41.8985 -6.21143C42.0128 -6.21143 42.1261 -6.18888 42.2317 -6.14507C42.3374 -6.10127 42.4334 -6.03706 42.5142 -5.95612L44.0144 -4.45512C44.0953 -4.37424 44.1595 -4.2782 44.2033 -4.17249C44.2471 -4.06678 44.2696 -3.95347 44.2696 -3.83905C44.2696 -3.72462 44.2471 -3.61131 44.2033 -3.5056C44.1595 -3.39989 44.0953 -3.30385 44.0144 -3.22297L37.5458 3.24904C37.437 3.35794 37.2894 3.41914 37.1355 3.41917H35.2244C35.0705 3.41917 34.9229 3.358 34.814 3.2491C34.7052 3.14021 34.644 2.99252 34.644 2.83852V0.926411ZM35.2244 0.926411V2.83852H37.1355L43.6041 -3.63349C43.6311 -3.66046 43.6526 -3.6925 43.6672 -3.72777C43.6818 -3.76304 43.6894 -3.80086 43.6894 -3.83905C43.6894 -3.87723 43.6818 -3.91505 43.6672 -3.95032C43.6526 -3.98559 43.6311 -4.01763 43.6041 -4.0446L42.1039 -5.5456C42.0769 -5.57263 42.0449 -5.59409 42.0097 -5.60872C41.9744 -5.62336 41.9366 -5.63089 41.8985 -5.63089C41.8603 -5.63089 41.8225 -5.62336 41.7872 -5.60872C41.752 -5.59409 41.72 -5.57263 41.693 -5.5456L35.2244 0.926411Z" fill="white"/>
<path d="M40.532 -4.79544L42.8534 -2.47281L43.2643 -2.88391L40.9429 -5.20654L40.532 -4.79544ZM35.3088 0.430479L37.6302 2.75311L38.0411 2.342L35.7197 0.0193734L35.3088 0.430479Z" fill="white"/>
<path d="M41.6934 -4.04248L36.4702 1.18344L36.8811 1.59454L42.1043 -3.63137L41.6934 -4.04248Z" fill="white"/>
<path fill-rule="evenodd" clip-rule="evenodd" d="M41.0273 21.4142C40.5656 21.4142 40.1227 21.5977 39.7962 21.9244C39.4697 22.251 39.2863 22.6941 39.2863 23.1561V24.8981H44.2193C44.6041 24.8981 44.9731 25.051 45.2452 25.3233C45.5173 25.5955 45.6702 25.9647 45.6702 26.3497V30.4143C45.6702 30.605 45.6326 30.7937 45.5597 30.9699C45.4868 31.146 45.3799 31.306 45.2452 31.4408C45.1105 31.5756 44.9505 31.6825 44.7745 31.7555C44.5985 31.8284 44.4098 31.866 44.2193 31.866H37.8354C37.6449 31.866 37.4562 31.8284 37.2802 31.7555C37.1041 31.6825 36.9442 31.5756 36.8095 31.4408C36.6747 31.306 36.5679 31.146 36.495 30.9699C36.422 30.7937 36.3845 30.605 36.3845 30.4143V26.3497C36.3845 25.9647 36.5374 25.5955 36.8095 25.3233C37.0816 25.051 37.4506 24.8981 37.8354 24.8981H38.7059V23.1561C38.7059 22.5401 38.9505 21.9494 39.3859 21.5138C39.8212 21.0782 40.4117 20.8335 41.0273 20.8335C41.643 20.8335 42.2335 21.0782 42.6688 21.5138C43.1042 21.9494 43.3488 22.5401 43.3488 23.1561H42.7684C42.7684 22.6941 42.585 22.251 42.2585 21.9244C41.9319 21.5977 41.4891 21.4142 41.0273 21.4142ZM40.447 27.8014C40.447 27.6474 40.5081 27.4997 40.617 27.3908C40.7258 27.2819 40.8734 27.2207 41.0273 27.2207C41.1813 27.2207 41.3289 27.2819 41.4377 27.3908C41.5466 27.4997 41.6077 27.6474 41.6077 27.8014V28.9627C41.6077 29.1167 41.5466 29.2644 41.4377 29.3733C41.3289 29.4822 41.1813 29.5434 41.0273 29.5434C40.8734 29.5434 40.7258 29.4822 40.617 29.3733C40.5081 29.2644 40.447 29.1167 40.447 28.9627V27.8014ZM36.9649 26.3497C36.9649 25.8678 37.3537 25.4788 37.8354 25.4788H44.2193C44.701 25.4788 45.0898 25.8678 45.0898 26.3497V30.4143C45.0898 30.8963 44.701 31.2853 44.2193 31.2853H37.8354C37.6045 31.2853 37.3831 31.1936 37.2198 31.0302C37.0566 30.8669 36.9649 30.6453 36.9649 30.4143V26.3497Z" fill="white"/>
<path fill-rule="evenodd" clip-rule="evenodd" d="M35.8065 49.7238L35.5686 49.3058L35.5512 49.2825L35.5686 49.2593C35.9044 48.6517 36.3116 48.0863 36.7815 47.5754C37.6346 46.6464 38.8708 45.7638 40.4494 45.7638C42.0337 45.7638 43.2641 46.6522 44.123 47.5754C44.5909 48.0867 44.9961 48.652 45.3301 49.2593L45.3475 49.2825L45.3301 49.3058C44.9943 49.9134 44.5871 50.4788 44.1172 50.9897C43.2641 51.9187 42.0279 52.8013 40.4494 52.8013C38.865 52.8013 37.6346 51.9129 36.7757 50.9897C36.4167 50.598 36.0942 50.1743 35.8123 49.7238H35.8065ZM45.9337 49.1548L45.6725 49.2825L45.9337 49.4103L45.9279 49.4219C45.9006 49.477 45.8715 49.5312 45.8408 49.5845C45.4828 50.234 45.0483 50.8383 44.5466 51.3845C43.6413 52.3658 42.2601 53.382 40.4494 53.382C38.6387 53.382 37.2574 52.3658 36.3521 51.3845C35.8088 50.7928 35.3445 50.1331 34.9708 49.4219V49.4103H34.965L35.2262 49.2825L34.965 49.1548L34.9708 49.1432C34.9982 49.0882 35.0273 49.0339 35.0579 48.9806C35.4159 48.3311 35.8504 47.7267 36.3521 47.1806C37.2574 46.1993 38.6387 45.1831 40.4494 45.1831C42.2601 45.1831 43.6413 46.1993 44.5466 47.1806C45.0899 47.7723 45.5542 48.432 45.9279 49.1432V49.1548H45.9337ZM45.6725 49.2825L45.9337 49.1548L45.9917 49.2825L45.9337 49.4103L45.6725 49.2825ZM34.965 49.1548L35.2262 49.2825L34.965 49.4103L34.907 49.2825L34.965 49.1548ZM38.9114 49.2825C38.9144 49.0838 38.9567 48.8876 39.0357 48.7052C39.1147 48.5228 39.2289 48.3578 39.3718 48.2197C39.5147 48.0816 39.6834 47.9731 39.8683 47.9004C40.0533 47.8277 40.2507 47.7922 40.4494 47.7961C40.648 47.7922 40.8454 47.8277 41.0304 47.9004C41.2153 47.9731 41.384 48.0816 41.5269 48.2197C41.6698 48.3578 41.784 48.5228 41.863 48.7052C41.942 48.8876 41.9843 49.0838 41.9873 49.2825C41.9843 49.4813 41.942 49.6775 41.863 49.8599C41.784 50.0423 41.6698 50.2073 41.5269 50.3454C41.384 50.4835 41.2153 50.592 41.0304 50.6647C40.8454 50.7374 40.648 50.7729 40.4494 50.769C40.2507 50.7729 40.0533 50.7374 39.8683 50.6647C39.6834 50.592 39.5147 50.4835 39.3718 50.3454C39.2289 50.2073 39.1147 50.0423 39.0357 49.8599C38.9567 49.6775 38.9144 49.4813 38.9114 49.2825ZM40.4494 47.2154C40.1745 47.2116 39.9016 47.262 39.6463 47.3639C39.3909 47.4658 39.1582 47.6171 38.9614 47.8091C38.7646 48.0012 38.6077 48.2301 38.4995 48.483C38.3913 48.7358 38.3341 49.0075 38.3311 49.2825C38.3341 49.5576 38.3913 49.8293 38.4995 50.0821C38.6077 50.3349 38.7646 50.5639 38.9614 50.756C39.1582 50.948 39.3909 51.0993 39.6463 51.2012C39.9016 51.3031 40.1745 51.3535 40.4494 51.3497C41.6101 51.3497 42.5676 50.4322 42.5676 49.2825C42.5646 49.0075 42.5074 48.7358 42.3992 48.483C42.291 48.2301 42.1341 48.0012 41.9373 47.8091C41.7405 47.6171 41.5078 47.4658 41.2524 47.3639C40.9971 47.262 40.7242 47.2116 40.4494 47.2154ZM45.0051 54.1833L45.4694 53.7188L45.8756 54.131L45.4172 54.5956C45.364 54.6498 45.3342 54.7228 45.3342 54.7988C45.3342 54.8748 45.364 54.9478 45.4172 55.002L45.7596 55.3446C45.8756 55.4607 46.0498 55.4607 46.1658 55.3446L47.2105 54.2994L47.6167 54.7117L46.5779 55.7569C46.4146 55.92 46.1934 56.0116 45.9627 56.0116C45.732 56.0116 45.5108 55.92 45.3475 55.7569L45.0051 55.4143C44.8421 55.251 44.7505 55.0296 44.7505 54.7988C44.7505 54.568 44.8421 54.3466 45.0051 54.1833ZM42.4806 55.9601L42.2775 55.7569C42.2626 55.769 42.249 55.7827 42.2368 55.7975L41.6565 56.6685L41.0761 57.5395C41.0465 57.5834 41.0294 57.6346 41.0267 57.6875C41.0241 57.7404 41.0359 57.7931 41.061 57.8397C41.0861 57.8864 41.1235 57.9253 41.1692 57.9522C41.2148 57.9791 41.2669 57.993 41.3199 57.9924H43.6413C44.0216 57.9809 44.3822 57.8203 44.6453 57.5453C44.9201 57.282 45.0806 56.9213 45.0922 56.5408C45.0806 56.1602 44.9201 55.7995 44.6453 55.5362C44.3822 55.2612 44.0216 55.1007 43.6413 55.0891C43.2964 55.1071 42.964 55.224 42.6837 55.4259C42.5416 55.521 42.4076 55.6278 42.2833 55.7453V55.7511H42.2775L42.4806 55.9601ZM42.7069 56.1459L42.144 56.9937L41.8596 57.4117H43.6413C43.8386 57.4117 44.0591 57.313 44.2332 57.133C44.4074 56.9588 44.5118 56.7382 44.5118 56.5408C44.5118 56.3433 44.4132 56.1227 44.2332 55.9485C44.0591 55.7743 43.8386 55.6698 43.6413 55.6698C43.4382 55.6698 43.206 55.7743 43.0029 55.9137C42.8985 55.9835 42.7996 56.0611 42.7069 56.1459Z" fill="white"/>
<rect x="65.1436" y="-233.713" width="0.580353" height="405.396" fill="#C4C4C4" fill-opacity="0.06"/>
<rect x="90.6855" y="-233.713" width="0.580353" height="405.396" fill="#C4C4C4" fill-opacity="0.06"/>
<rect x="116.228" y="-233.713" width="0.580353" height="405.396" fill="#C4C4C4" fill-opacity="0.06"/>
<rect x="141.77" y="-233.713" width="0.580353" height="405.396" fill="#C4C4C4" fill-opacity="0.06"/>
<rect x="167.312" y="-233.713" width="0.580353" height="405.396" fill="#C4C4C4" fill-opacity="0.06"/>
<rect x="192.854" y="-233.713" width="0.580353" height="405.396" fill="#C4C4C4" fill-opacity="0.06"/>
<rect x="218.396" y="-233.713" width="0.580353" height="405.396" fill="#C4C4C4" fill-opacity="0.06"/>
<rect x="243.938" y="-233.713" width="0.580353" height="405.396" fill="#C4C4C4" fill-opacity="0.06"/>
<rect x="269.48" y="-233.713" width="0.580353" height="405.396" fill="#C4C4C4" fill-opacity="0.06"/>
<rect x="295.022" y="-233.713" width="0.580353" height="405.396" fill="#C4C4C4" fill-opacity="0.06"/>
<rect x="320.564" y="-233.713" width="0.580353" height="405.396" fill="#C4C4C4" fill-opacity="0.06"/>
<rect x="61.3611" y="49.9751" width="0.783167" height="438.307" transform="rotate(-90 61.3611 49.9751)" fill="#C4C4C4" fill-opacity="0.06"/>
<rect x="61.3611" y="24.23" width="0.783167" height="438.307" transform="rotate(-90 61.3611 24.23)" fill="#C4C4C4" fill-opacity="0.06"/>
<rect x="91.915" y="-90.1675" width="5.80353" height="91.8012" fill="#E10000"/>
<rect x="94.2363" y="1.6333" width="1.16071" height="10.9533" fill="#E10000"/>
<rect x="171.577" y="-2.14014" width="1.16071" height="4.32161" fill="#27AE60"/>
<rect x="127.384" y="-1.69043" width="1.16071" height="4.32161" fill="#27AE60"/>
<rect x="114.013" y="-9.32617" width="5.80353" height="10.9448" fill="#27AE60"/>
<rect x="116.334" y="1.61914" width="1.16071" height="4.32161" fill="#27AE60"/>
<rect x="102.964" y="-5.00244" width="5.80353" height="10.9448" fill="#27AE60"/>
<rect x="105.285" y="5.94238" width="1.16071" height="4.32161" fill="#27AE60"/>
<path d="M57.327 186.488C57.327 184.667 58.2698 183.432 59.7489 183.432C61.2199 183.432 62.1626 184.667 62.1626 186.488C62.1626 188.316 61.2605 189.527 59.7489 189.527C58.2291 189.527 57.327 188.316 57.327 186.488ZM58.1153 186.488C58.1153 187.934 58.7167 188.812 59.7489 188.812C60.781 188.812 61.3743 187.934 61.3743 186.488C61.3743 185.025 60.781 184.147 59.7489 184.147C58.7167 184.147 58.1153 185.025 58.1153 186.488ZM62.9457 187.788C62.9457 187.081 63.3602 186.512 64.0104 186.276C63.4577 186.041 63.157 185.577 63.157 184.984C63.157 184.066 63.9454 183.44 65.1157 183.44C66.2697 183.44 67.0499 184.066 67.0499 184.992C67.0499 185.594 66.7411 186.057 66.1884 186.276C66.8467 186.488 67.2693 187.073 67.2693 187.796C67.2693 188.828 66.4079 189.519 65.1075 189.519C63.7991 189.519 62.9457 188.828 62.9457 187.788ZM63.8885 185.033C63.8885 185.61 64.368 185.984 65.0994 185.984C65.839 185.984 66.3022 185.618 66.3022 185.049C66.3022 184.488 65.839 184.131 65.0994 184.131C64.368 184.131 63.8885 184.488 63.8885 185.033ZM63.7259 187.731C63.7259 188.389 64.2705 188.812 65.1075 188.812C65.9365 188.812 66.481 188.389 66.481 187.731C66.481 187.081 65.9446 186.666 65.0994 186.666C64.2623 186.666 63.7259 187.081 63.7259 187.731ZM68.846 186.471C68.529 186.471 68.2608 186.211 68.2608 185.91C68.2608 185.594 68.529 185.333 68.846 185.333C69.1548 185.333 69.423 185.594 69.423 185.91C69.423 186.211 69.1548 186.471 68.846 186.471ZM68.846 189.519C68.529 189.519 68.2608 189.259 68.2608 188.95C68.2608 188.633 68.529 188.373 68.846 188.373C69.1548 188.373 69.423 188.633 69.423 188.95C69.423 189.259 69.1548 189.519 68.846 189.519ZM70.4462 186.488C70.4462 184.667 71.3889 183.432 72.8681 183.432C74.3391 183.432 75.2818 184.667 75.2818 186.488C75.2818 188.316 74.3797 189.527 72.8681 189.527C71.3483 189.527 70.4462 188.316 70.4462 186.488ZM71.2345 186.488C71.2345 187.934 71.8359 188.812 72.8681 188.812C73.9002 188.812 74.4935 187.934 74.4935 186.488C74.4935 185.025 73.9002 184.147 72.8681 184.147C71.8359 184.147 71.2345 185.025 71.2345 186.488ZM76.0812 186.488C76.0812 184.667 77.0239 183.432 78.5031 183.432C79.974 183.432 80.9168 184.667 80.9168 186.488C80.9168 188.316 80.0147 189.527 78.5031 189.527C76.9833 189.527 76.0812 188.316 76.0812 186.488ZM76.8695 186.488C76.8695 187.934 77.4709 188.812 78.5031 188.812C79.5352 188.812 80.1285 187.934 80.1285 186.488C80.1285 185.025 79.5352 184.147 78.5031 184.147C77.4709 184.147 76.8695 185.025 76.8695 186.488Z" fill="#C4C4C4"/>
<path d="M113.228 186.488C113.228 184.667 114.171 183.432 115.65 183.432C117.121 183.432 118.063 184.667 118.063 186.488C118.063 188.316 117.161 189.527 115.65 189.527C114.13 189.527 113.228 188.316 113.228 186.488ZM114.016 186.488C114.016 187.934 114.618 188.812 115.65 188.812C116.682 188.812 117.275 187.934 117.275 186.488C117.275 185.025 116.682 184.147 115.65 184.147C114.618 184.147 114.016 185.025 114.016 186.488ZM122.284 187.56L120.911 189.421H119.984L121.455 187.471C121.252 187.552 121.041 187.593 120.838 187.593C119.619 187.593 118.798 186.715 118.798 185.545C118.798 184.326 119.724 183.44 120.935 183.44C122.154 183.44 123.097 184.358 123.097 185.553C123.097 186.244 122.886 186.739 122.284 187.56ZM122.284 185.545C122.284 184.74 121.732 184.155 120.935 184.155C120.155 184.155 119.602 184.74 119.602 185.545C119.602 186.349 120.155 186.918 120.935 186.918C121.732 186.918 122.284 186.349 122.284 185.545ZM124.636 186.471C124.319 186.471 124.051 186.211 124.051 185.91C124.051 185.594 124.319 185.333 124.636 185.333C124.944 185.333 125.213 185.594 125.213 185.91C125.213 186.211 124.944 186.471 124.636 186.471ZM124.636 189.519C124.319 189.519 124.051 189.259 124.051 188.95C124.051 188.633 124.319 188.373 124.636 188.373C124.944 188.373 125.213 188.633 125.213 188.95C125.213 189.259 124.944 189.519 124.636 189.519ZM126.236 186.488C126.236 184.667 127.179 183.432 128.658 183.432C130.129 183.432 131.071 184.667 131.071 186.488C131.071 188.316 130.169 189.527 128.658 189.527C127.138 189.527 126.236 188.316 126.236 186.488ZM127.024 186.488C127.024 187.934 127.626 188.812 128.658 188.812C129.69 188.812 130.283 187.934 130.283 186.488C130.283 185.025 129.69 184.147 128.658 184.147C127.626 184.147 127.024 185.025 127.024 186.488ZM131.871 186.488C131.871 184.667 132.814 183.432 134.293 183.432C135.764 183.432 136.706 184.667 136.706 186.488C136.706 188.316 135.804 189.527 134.293 189.527C132.773 189.527 131.871 188.316 131.871 186.488ZM132.659 186.488C132.659 187.934 133.261 188.812 134.293 188.812C135.325 188.812 135.918 187.934 135.918 186.488C135.918 185.025 135.325 184.147 134.293 184.147C133.261 184.147 132.659 185.025 132.659 186.488Z" fill="#C4C4C4"/>
<path d="M170.328 184.261H169.093V183.546H171.092V189.421H170.328V184.261ZM172.167 186.488C172.167 184.667 173.11 183.432 174.589 183.432C176.06 183.432 177.002 184.667 177.002 186.488C177.002 188.316 176.1 189.527 174.589 189.527C173.069 189.527 172.167 188.316 172.167 186.488ZM172.955 186.488C172.955 187.934 173.557 188.812 174.589 188.812C175.621 188.812 176.214 187.934 176.214 186.488C176.214 185.025 175.621 184.147 174.589 184.147C173.557 184.147 172.955 185.025 172.955 186.488ZM178.606 186.471C178.289 186.471 178.021 186.211 178.021 185.91C178.021 185.594 178.289 185.333 178.606 185.333C178.915 185.333 179.183 185.594 179.183 185.91C179.183 186.211 178.915 186.471 178.606 186.471ZM178.606 189.519C178.289 189.519 178.021 189.259 178.021 188.95C178.021 188.633 178.289 188.373 178.606 188.373C178.915 188.373 179.183 188.633 179.183 188.95C179.183 189.259 178.915 189.519 178.606 189.519ZM180.207 186.488C180.207 184.667 181.149 183.432 182.628 183.432C184.099 183.432 185.042 184.667 185.042 186.488C185.042 188.316 184.14 189.527 182.628 189.527C181.109 189.527 180.207 188.316 180.207 186.488ZM180.995 186.488C180.995 187.934 181.596 188.812 182.628 188.812C183.661 188.812 184.254 187.934 184.254 186.488C184.254 185.025 183.661 184.147 182.628 184.147C181.596 184.147 180.995 185.025 180.995 186.488ZM185.842 186.488C185.842 184.667 186.784 183.432 188.263 183.432C189.734 183.432 190.677 184.667 190.677 186.488C190.677 188.316 189.775 189.527 188.263 189.527C186.744 189.527 185.842 188.316 185.842 186.488ZM186.63 186.488C186.63 187.934 187.231 188.812 188.263 188.812C189.296 188.812 189.889 187.934 189.889 186.488C189.889 185.025 189.296 184.147 188.263 184.147C187.231 184.147 186.63 185.025 186.63 186.488Z" fill="#C4C4C4"/>
<path d="M224.354 184.261H223.119V183.546H225.118V189.421H224.354V184.261ZM227.243 184.261H226.008V183.546H228.007V189.421H227.243V184.261ZM229.886 186.471C229.569 186.471 229.301 186.211 229.301 185.91C229.301 185.594 229.569 185.333 229.886 185.333C230.195 185.333 230.463 185.594 230.463 185.91C230.463 186.211 230.195 186.471 229.886 186.471ZM229.886 189.519C229.569 189.519 229.301 189.259 229.301 188.95C229.301 188.633 229.569 188.373 229.886 188.373C230.195 188.373 230.463 188.633 230.463 188.95C230.463 189.259 230.195 189.519 229.886 189.519ZM231.486 186.488C231.486 184.667 232.429 183.432 233.908 183.432C235.379 183.432 236.322 184.667 236.322 186.488C236.322 188.316 235.42 189.527 233.908 189.527C232.389 189.527 231.486 188.316 231.486 186.488ZM232.275 186.488C232.275 187.934 232.876 188.812 233.908 188.812C234.94 188.812 235.534 187.934 235.534 186.488C235.534 185.025 234.94 184.147 233.908 184.147C232.876 184.147 232.275 185.025 232.275 186.488ZM237.121 186.488C237.121 184.667 238.064 183.432 239.543 183.432C241.014 183.432 241.957 184.667 241.957 186.488C241.957 188.316 241.055 189.527 239.543 189.527C238.024 189.527 237.121 188.316 237.121 186.488ZM237.91 186.488C237.91 187.934 238.511 188.812 239.543 188.812C240.575 188.812 241.169 187.934 241.169 186.488C241.169 185.025 240.575 184.147 239.543 184.147C238.511 184.147 237.91 185.025 237.91 186.488Z" fill="#C4C4C4"/>
<path d="M275.534 184.261H274.299V183.546H276.298V189.421H275.534V184.261ZM281.315 189.413L277.349 189.421V188.812L279.242 187.178C280.193 186.357 280.461 185.959 280.461 185.333C280.461 184.594 280.039 184.155 279.332 184.155C278.608 184.155 278.137 184.683 278.121 185.52H277.324C277.349 184.261 278.145 183.44 279.34 183.44C280.518 183.44 281.274 184.155 281.274 185.285C281.274 186.122 280.86 186.715 279.819 187.617L278.6 188.674H281.315V189.413ZM282.852 186.471C282.535 186.471 282.267 186.211 282.267 185.91C282.267 185.594 282.535 185.333 282.852 185.333C283.161 185.333 283.429 185.594 283.429 185.91C283.429 186.211 283.161 186.471 282.852 186.471ZM282.852 189.519C282.535 189.519 282.267 189.259 282.267 188.95C282.267 188.633 282.535 188.373 282.852 188.373C283.161 188.373 283.429 188.633 283.429 188.95C283.429 189.259 283.161 189.519 282.852 189.519ZM284.452 186.488C284.452 184.667 285.395 183.432 286.874 183.432C288.345 183.432 289.288 184.667 289.288 186.488C289.288 188.316 288.386 189.527 286.874 189.527C285.355 189.527 284.452 188.316 284.452 186.488ZM285.241 186.488C285.241 187.934 285.842 188.812 286.874 188.812C287.906 188.812 288.5 187.934 288.5 186.488C288.5 185.025 287.906 184.147 286.874 184.147C285.842 184.147 285.241 185.025 285.241 186.488ZM290.087 186.488C290.087 184.667 291.03 183.432 292.509 183.432C293.98 183.432 294.923 184.667 294.923 186.488C294.923 188.316 294.021 189.527 292.509 189.527C290.99 189.527 290.087 188.316 290.087 186.488ZM290.876 186.488C290.876 187.934 291.477 188.812 292.509 188.812C293.541 188.812 294.135 187.934 294.135 186.488C294.135 185.025 293.541 184.147 292.509 184.147C291.477 184.147 290.876 185.025 290.876 186.488Z" fill="#C4C4C4"/>
<path d="M328.505 184.261H327.27V183.546H329.269V189.421H328.505V184.261ZM332.026 186.382H331.441V185.854L333.107 184.253H330.466V183.546H334.115V184.188L332.506 185.724C333.505 185.845 334.261 186.52 334.261 187.577C334.261 188.763 333.367 189.519 332.172 189.519C331.018 189.519 330.189 188.812 330.189 187.593H330.978C330.978 188.357 331.449 188.804 332.189 188.804C332.953 188.804 333.448 188.316 333.448 187.56C333.448 186.853 332.961 186.382 332.026 186.382ZM335.768 186.471C335.451 186.471 335.182 186.211 335.182 185.91C335.182 185.594 335.451 185.333 335.768 185.333C336.076 185.333 336.345 185.594 336.345 185.91C336.345 186.211 336.076 186.471 335.768 186.471ZM335.768 189.519C335.451 189.519 335.182 189.259 335.182 188.95C335.182 188.633 335.451 188.373 335.768 188.373C336.076 188.373 336.345 188.633 336.345 188.95C336.345 189.259 336.076 189.519 335.768 189.519ZM337.368 186.488C337.368 184.667 338.311 183.432 339.79 183.432C341.261 183.432 342.203 184.667 342.203 186.488C342.203 188.316 341.301 189.527 339.79 189.527C338.27 189.527 337.368 188.316 337.368 186.488ZM338.156 186.488C338.156 187.934 338.758 188.812 339.79 188.812C340.822 188.812 341.415 187.934 341.415 186.488C341.415 185.025 340.822 184.147 339.79 184.147C338.758 184.147 338.156 185.025 338.156 186.488ZM343.003 186.488C343.003 184.667 343.946 183.432 345.425 183.432C346.896 183.432 347.838 184.667 347.838 186.488C347.838 188.316 346.936 189.527 345.425 189.527C343.905 189.527 343.003 188.316 343.003 186.488ZM343.791 186.488C343.791 187.934 344.392 188.812 345.425 188.812C346.457 188.812 347.05 187.934 347.05 186.488C347.05 185.025 346.457 184.147 345.425 184.147C344.392 184.147 343.791 185.025 343.791 186.488Z" fill="#C4C4C4"/>
<g clip-path="url(#clip0_360_4453)">
<path d="M76.3586 69.0552H75.4484V62.3399H77.984C79.4237 62.3399 80.2782 63.1015 80.2782 64.3554C80.2782 65.2842 79.8138 65.953 78.9778 66.2223L80.3432 69.0552H79.3308L78.0769 66.3988H76.3586V69.0552ZM76.3586 63.1572V65.5907H77.9933C78.8385 65.5907 79.3215 65.1356 79.3215 64.3647C79.3215 63.5845 78.82 63.1572 77.984 63.1572H76.3586ZM81.1354 64.1511C81.1354 62.9993 82.0642 62.2191 83.4482 62.2191C84.7299 62.2191 85.5566 62.9343 85.6309 64.0953H84.7114C84.6649 63.4266 84.1912 63.0365 83.4389 63.0365C82.5937 63.0365 82.0457 63.4638 82.0457 64.1232C82.0457 64.6619 82.3522 64.987 82.9838 65.1356L84.089 65.3957C85.185 65.6465 85.7423 66.2409 85.7423 67.1883C85.7423 68.3957 84.8042 69.1666 83.3739 69.1666C82.0085 69.1666 81.0983 68.4515 81.0426 67.2997H81.9714C81.9899 67.9406 82.5287 68.3493 83.3739 68.3493C84.2655 68.3493 84.8321 67.9313 84.8321 67.2626C84.8321 66.7332 84.5442 66.3988 83.9033 66.2502L82.798 65.9994C81.702 65.7486 81.1354 65.117 81.1354 64.1511ZM87.7964 62.3399V69.0552H86.8861V62.3399H87.7964ZM92.8587 63.1572H91.447V62.3399H93.7318V69.0552H92.8587V63.1572ZM99.9665 67.6991H99.1677V69.0552H98.2947V67.6991H94.8209V66.8911L97.9882 62.3399H99.1677V66.8911H99.9665V67.6991ZM95.8055 66.8911H98.2947V63.3059L95.8055 66.8911Z" fill="#C4C4C4"/>
<path d="M107.295 64.019L109.004 61.7175H109.806L108.011 64.0954C108.336 63.9331 108.632 63.8662 108.947 63.8662C110.37 63.8662 111.315 64.9072 111.315 66.2441C111.315 67.6479 110.255 68.6698 108.89 68.6698C107.515 68.6698 106.435 67.6097 106.435 66.2441C106.435 65.4515 106.655 64.8976 107.295 64.019ZM107.133 66.2537C107.133 67.2946 107.849 68.049 108.89 68.049C109.902 68.049 110.628 67.2946 110.628 66.2537C110.628 65.2128 109.902 64.4679 108.89 64.4679C107.849 64.4679 107.133 65.2128 107.133 66.2537ZM116.576 68.5552H112.068V68.0108L114.255 66.1009C115.515 65.0027 115.84 64.5252 115.84 63.7134C115.84 62.7871 115.286 62.2237 114.379 62.2237C113.434 62.2237 112.813 62.9113 112.784 63.9713H112.097C112.135 62.5388 113.042 61.5934 114.389 61.5934C115.678 61.5934 116.537 62.4242 116.537 63.6752C116.537 64.6684 116.088 65.3274 114.723 66.5211L113.128 67.9153H116.576V68.5552ZM118.289 68.6602C117.964 68.6602 117.687 68.3928 117.687 68.0777C117.687 67.753 117.964 67.4761 118.289 67.4761C118.614 67.4761 118.891 67.753 118.891 68.0777C118.891 68.3928 118.614 68.6602 118.289 68.6602ZM122.055 68.6698C120.68 68.6698 119.801 67.8103 119.801 66.4638H120.489C120.489 67.4474 121.09 68.0395 122.065 68.0395C123.096 68.0395 123.764 67.3519 123.764 66.3396C123.764 65.3847 123.144 64.6302 122.065 64.6302C121.434 64.6302 120.861 64.9167 120.489 65.3274L119.944 65.1555L120.766 61.7175H124.07V62.3478H121.262L120.747 64.4965C121.129 64.1909 121.625 64.019 122.16 64.019C123.583 64.019 124.462 65.0409 124.462 66.3205C124.462 67.6957 123.487 68.6698 122.055 68.6698ZM126.152 64.019L127.861 61.7175H128.663L126.868 64.0954C127.193 63.9331 127.489 63.8662 127.804 63.8662C129.227 63.8662 130.172 64.9072 130.172 66.2441C130.172 67.6479 129.112 68.6698 127.747 68.6698C126.372 68.6698 125.292 67.6097 125.292 66.2441C125.292 65.4515 125.512 64.8976 126.152 64.019ZM125.99 66.2537C125.99 67.2946 126.706 68.049 127.747 68.049C128.759 68.049 129.485 67.2946 129.485 66.2537C129.485 65.2128 128.759 64.4679 127.747 64.4679C126.706 64.4679 125.99 65.2128 125.99 66.2537Z" fill="url(#paint2_linear_360_4453)"/>
<path d="M65.1436 72.9609H499.367" stroke="white" stroke-opacity="0.15" stroke-width="0.682126"/>
<path d="M65.1436 97.6011H499.343" stroke="white" stroke-opacity="0.15" stroke-width="0.682126"/>
<path d="M65.1436 122.241H549.792" stroke="white" stroke-opacity="0.15" stroke-width="0.682126"/>
<path d="M65.1436 146.881H499.778" stroke="white" stroke-opacity="0.15" stroke-width="0.682126"/>
<path d="M65.1436 171.521H499.704" stroke="white" stroke-opacity="0.15" stroke-width="0.682126"/>
<path d="M67.2385 92.8017L69.9072 83.6622L72.5758 82.1998L75.2444 88.0492L78.2466 86.9524L81.2488 80.0063L84.251 89.5115L90.2554 86.9524L92.924 96.8231H96.2598L98.9285 88.0492L101.263 101.576L104.599 100.479L110.27 127.898L113.272 118.027L115.941 124.607L118.61 123.145L121.945 125.339L124.614 132.285L127.283 127.898L136.623 126.801L144.629 143.252L147.964 121.683L150.633 115.833L153.302 113.64L156.637 100.479L159.306 97.5543L162.308 99.3822L165.31 91.705L167.646 90.6082L170.648 96.092H173.316L175.985 90.6082L179.321 86.2212L181.989 90.6082L184.992 80.7375L193.665 127.898L196.667 125.339L199.335 152.392L202.338 142.155L204.673 140.327H208.008L213.679 120.952L217.349 124.607L219.684 128.994L222.352 124.607L225.355 123.145L228.69 134.844L230.692 143.983L234.028 142.155L239.031 132.285L243.368 133.016L248.038 125.339L251.04 135.94L254.042 133.016L256.711 137.037L259.713 133.016L262.715 133.747L267.052 128.994L271.055 126.435L274.057 121.683L278.727 130.457L285.399 139.596H288.734L291.737 137.768L294.072 141.059H297.074L300.076 137.768L302.745 148.37L305.747 145.811L308.416 156.413L314.086 137.037L317.089 137.768L319.757 128.994L328.764 143.983L331.432 140.327L337.437 145.811H341.106L345.776 109.984L348.779 105.597L351.781 111.081L357.785 95.3608L362.789 90.6082L365.791 100.479L368.793 97.5543L371.795 105.597L374.464 100.479L377.466 99.7478L380.802 92.0706L383.137 90.6082L386.473 112.543L388.808 108.522L391.81 115.468L395.146 108.522L400.817 116.199L406.154 101.576L409.156 119.124L411.825 121.683L415.161 120.586L418.163 117.296L423.5 116.199L426.502 108.522L429.504 106.694L432.173 101.576H435.175L443.181 82.1998L446.517 106.694L449.853 101.576H452.521L456.191 106.694L457.859 111.081L463.529 106.694L466.865 109.253H469.534L471.869 103.038H475.872L484.211 134.844L489.548 118.027L493.551 123.876L499.556 124.607" stroke="url(#paint3_linear_360_4453)" stroke-width="0.682126"/>
<path d="M69.2243 82.9993L66.5514 92.3727L64.2126 164.735H499.556V124.992L493.542 124.242L489.533 118.243L484.187 135.49L475.834 102.871H471.825L469.486 109.245H466.813L463.472 106.62L457.792 111.119L456.122 106.62L452.447 101.371H449.774L446.433 106.62L443.092 81.4996L435.073 101.371H432.066L429.393 106.62L426.386 108.495L423.379 116.368L418.034 117.493L415.027 120.868L411.685 121.992L409.013 119.368L406.006 101.371L400.66 116.368L394.98 108.495L391.639 115.619L388.632 108.495L386.293 112.619L382.952 90.1231L380.613 91.6228L377.272 99.4964L374.265 100.246L371.592 105.495L368.585 97.2468L365.578 100.246L362.572 90.1231L357.56 94.9972L351.546 111.119L348.539 105.495L345.532 109.995L340.854 146.738H337.179L331.165 141.114L328.492 144.863L319.472 129.491L316.799 138.489L313.792 137.74L308.112 157.611L305.439 146.738L302.432 149.362L299.759 138.489L296.752 141.864H293.745L291.406 138.489L288.399 140.364H285.058L278.376 130.991L273.699 121.992L270.692 126.867L266.682 129.491L262.339 134.365L259.332 133.615L256.325 137.74L253.652 133.615L250.645 136.615L247.638 125.742L242.961 133.615L238.617 132.865L233.606 142.989L230.265 144.863L228.26 135.49L224.919 123.492L221.912 124.992L219.239 129.491L216.9 124.992L213.225 121.243L207.545 141.114H204.204L201.865 142.989L198.858 153.487L196.185 125.742L193.179 128.366L184.492 79.9999L181.485 90.1231L178.812 85.6239L175.471 90.1231L172.798 95.7471H170.125L167.118 90.1231L164.779 91.2479L161.772 99.1215L158.765 97.2468L156.092 100.246L152.751 113.744L150.079 115.993L147.406 121.992L144.065 144.113L136.046 127.241L126.691 128.366L124.018 132.865L121.345 125.742L118.004 123.492L115.331 124.992L112.658 118.243L109.651 128.366L103.972 100.246L100.63 101.371L98.2917 87.4985L95.6188 96.4969H92.2778L89.6049 86.3737L83.5909 88.9983L80.584 79.25L77.577 86.3737L74.57 87.4985L71.8971 81.4996L69.2243 82.9993Z" fill="url(#paint4_linear_360_4453)"/>
<path d="M66.0979 122.265L530.392 122.265" stroke="url(#paint5_linear_360_4453)" stroke-width="0.682126"/>
</g>
</g>
<defs>
<linearGradient id="paint0_linear_360_4453" x1="170" y1="0" x2="170" y2="200" gradientUnits="userSpaceOnUse">
<stop stop-color="white" stop-opacity="0"/>
<stop offset="0.244579" stop-color="white" stop-opacity="0.638456"/>
<stop offset="0.60146" stop-color="white" stop-opacity="0.828827"/>
<stop offset="1" stop-color="white"/>
</linearGradient>
<linearGradient id="paint1_linear_360_4453" x1="298.146" y1="-286.926" x2="298.146" y2="200.262" gradientUnits="userSpaceOnUse">
<stop stop-color="white" stop-opacity="0.1"/>
<stop offset="1" stop-color="white" stop-opacity="0.05"/>
</linearGradient>
<linearGradient id="paint2_linear_360_4453" x1="118.496" y1="58.5552" x2="118.496" y2="71.5552" gradientUnits="userSpaceOnUse">
<stop stop-color="#15B0F8"/>
<stop offset="1" stop-color="#0276DB"/>
</linearGradient>
<linearGradient id="paint3_linear_360_4453" x1="283.397" y1="80.0063" x2="283.397" y2="156.413" gradientUnits="userSpaceOnUse">
<stop stop-color="#15B0F8"/>
<stop offset="1" stop-color="#0276DB"/>
</linearGradient>
<linearGradient id="paint4_linear_360_4453" x1="281.884" y1="79.25" x2="281.884" y2="164.735" gradientUnits="userSpaceOnUse">
<stop offset="0.11" stop-color="#15B0F8"/>
<stop offset="0.49" stop-opacity="0"/>
</linearGradient>
<linearGradient id="paint5_linear_360_4453" x1="298.245" y1="122.265" x2="298.245" y2="123.265" gradientUnits="userSpaceOnUse">
<stop stop-color="#F59D31"/>
<stop offset="1" stop-color="#CD7509"/>
</linearGradient>
<clipPath id="clip0_360_4453">
<rect width="503.074" height="128.605" fill="white" transform="translate(56.0654 51.6772)"/>
</clipPath>
</defs>
</svg>
