<svg width="311" height="235" viewBox="0 0 311 235" fill="none" xmlns="http://www.w3.org/2000/svg">
<path d="M23.9746 1.19141H286.445C290.649 1.19141 293.774 1.19231 296.249 1.39453C298.718 1.59632 300.5 1.99716 302.025 2.77441C304.757 4.16612 306.977 6.38679 308.369 9.11816C309.146 10.6438 309.547 12.4258 309.749 14.8955C309.951 17.3705 309.952 20.4949 309.952 24.6982V618.946C309.952 623.15 309.951 626.275 309.749 628.75C309.547 631.22 309.146 633.002 308.369 634.527C306.977 637.259 304.757 639.479 302.025 640.871C300.5 641.648 298.718 642.048 296.249 642.25C293.774 642.452 290.649 642.453 286.445 642.453H23.9746C19.7713 642.453 16.6469 642.452 14.1719 642.25C11.7023 642.048 9.92011 641.648 8.39453 640.871C5.66324 639.479 3.4425 637.259 2.05078 634.527C1.27343 633.002 0.872685 631.22 0.670898 628.75C0.468668 626.275 0.467773 623.15 0.467773 618.946V24.6982C0.467773 20.4949 0.468711 17.3705 0.670898 14.8955C0.872677 12.4259 1.27346 10.6438 2.05078 9.11816C3.44249 6.38678 5.66315 4.16612 8.39453 2.77441C9.92016 1.9971 11.7022 1.59631 14.1719 1.39453C16.6469 1.19234 19.7713 1.19141 23.9746 1.19141Z" fill="url(#paint0_linear_468_3369)"/>
<path d="M23.9746 1.19141H286.445C290.649 1.19141 293.774 1.19231 296.249 1.39453C298.718 1.59632 300.5 1.99716 302.025 2.77441C304.757 4.16612 306.977 6.38679 308.369 9.11816C309.146 10.6438 309.547 12.4258 309.749 14.8955C309.951 17.3705 309.952 20.4949 309.952 24.6982V618.946C309.952 623.15 309.951 626.275 309.749 628.75C309.547 631.22 309.146 633.002 308.369 634.527C306.977 637.259 304.757 639.479 302.025 640.871C300.5 641.648 298.718 642.048 296.249 642.25C293.774 642.452 290.649 642.453 286.445 642.453H23.9746C19.7713 642.453 16.6469 642.452 14.1719 642.25C11.7023 642.048 9.92011 641.648 8.39453 640.871C5.66324 639.479 3.4425 637.259 2.05078 634.527C1.27343 633.002 0.872685 631.22 0.670898 628.75C0.468668 626.275 0.467773 623.15 0.467773 618.946V24.6982C0.467773 20.4949 0.468711 17.3705 0.670898 14.8955C0.872677 12.4259 1.27346 10.6438 2.05078 9.11816C3.44249 6.38678 5.66315 4.16612 8.39453 2.77441C9.92016 1.9971 11.7022 1.59631 14.1719 1.39453C16.6469 1.19234 19.7713 1.19141 23.9746 1.19141Z" fill="url(#paint1_radial_468_3369)"/>
<path d="M23.9746 1.19141H286.445C290.649 1.19141 293.774 1.19231 296.249 1.39453C298.718 1.59632 300.5 1.99716 302.025 2.77441C304.757 4.16612 306.977 6.38679 308.369 9.11816C309.146 10.6438 309.547 12.4258 309.749 14.8955C309.951 17.3705 309.952 20.4949 309.952 24.6982V618.946C309.952 623.15 309.951 626.275 309.749 628.75C309.547 631.22 309.146 633.002 308.369 634.527C306.977 637.259 304.757 639.479 302.025 640.871C300.5 641.648 298.718 642.048 296.249 642.25C293.774 642.452 290.649 642.453 286.445 642.453H23.9746C19.7713 642.453 16.6469 642.452 14.1719 642.25C11.7023 642.048 9.92011 641.648 8.39453 640.871C5.66324 639.479 3.4425 637.259 2.05078 634.527C1.27343 633.002 0.872685 631.22 0.670898 628.75C0.468668 626.275 0.467773 623.15 0.467773 618.946V24.6982C0.467773 20.4949 0.468711 17.3705 0.670898 14.8955C0.872677 12.4259 1.27346 10.6438 2.05078 9.11816C3.44249 6.38678 5.66315 4.16612 8.39453 2.77441C9.92016 1.9971 11.7022 1.59631 14.1719 1.39453C16.6469 1.19234 19.7713 1.19141 23.9746 1.19141Z" stroke="url(#paint2_linear_468_3369)" stroke-width="0.936523"/>
<path d="M19.7534 35.4136V24.7077H23.8403C25.9281 24.7077 27.2016 25.7738 27.2016 27.5359C27.2016 28.7649 26.6685 29.5942 25.6024 30.0384C26.787 30.4234 27.3941 31.2822 27.3941 32.5557C27.3941 34.3326 26.1058 35.4136 23.9883 35.4136H19.7534ZM23.7514 25.9959H21.2045V29.4313H23.8403C25.0397 29.4313 25.7208 28.7798 25.7208 27.6692C25.7208 26.603 25.0101 25.9959 23.7514 25.9959ZM23.9587 30.6899H21.2045V34.1253H23.9587C25.2026 34.1253 25.8985 33.4886 25.8985 32.378C25.8985 31.3119 25.1878 30.6899 23.9587 30.6899ZM33.6825 28.1726H35.0596V35.4136H33.8158L33.6677 34.3178C33.2531 35.073 32.2906 35.5913 31.2244 35.5913C29.5363 35.5913 28.5887 34.4511 28.5887 32.6742V28.1726H29.9806V32.2151C29.9806 33.7699 30.6469 34.3622 31.7131 34.3622C32.9865 34.3622 33.6825 33.5478 33.6825 31.993V28.1726ZM36.087 38.6564V37.5163H37.0199C37.6862 37.5163 38.2193 37.4126 38.5599 36.4945L38.8116 35.7986L35.8945 28.1726H37.3604L39.4631 34.0068L41.6102 28.1726H43.0466L39.626 37.0424C39.1374 38.2863 38.4118 38.8045 37.3012 38.8045C36.8422 38.8045 36.4572 38.7453 36.087 38.6564ZM43.9571 35.4136H42.58L46.7558 24.7225H48.1477L43.9571 35.4136ZM48.4731 27.5951C48.4731 25.759 49.9539 24.5152 52.1602 24.5152C54.2037 24.5152 55.5215 25.6553 55.64 27.5063H54.174C54.1 26.4402 53.3448 25.8182 52.1454 25.8182C50.7979 25.8182 49.9243 26.4994 49.9243 27.5507C49.9243 28.4096 50.4129 28.9278 51.4198 29.1648L53.1819 29.5794C54.9292 29.9792 55.8177 30.9269 55.8177 32.4372C55.8177 34.3622 54.3221 35.5913 52.0417 35.5913C49.865 35.5913 48.4139 34.4511 48.325 32.6149H49.8058C49.8354 33.6367 50.6943 34.2882 52.0417 34.2882C53.4633 34.2882 54.3665 33.6219 54.3665 32.5557C54.3665 31.7117 53.9075 31.1786 52.8858 30.9417L51.1237 30.5419C49.3764 30.1421 48.4731 29.1351 48.4731 27.5951ZM60.2326 35.5913C58.1003 35.5913 56.6343 34.0513 56.6343 31.8005C56.6343 29.5349 58.0707 27.9653 60.1733 27.9653C62.2316 27.9653 63.5791 29.3869 63.5791 31.534V32.0522L57.9818 32.067C58.0855 33.5922 58.8851 34.4363 60.2622 34.4363C61.3431 34.4363 62.0539 33.992 62.2908 33.1628H63.5939C63.2385 34.7176 62.0243 35.5913 60.2326 35.5913ZM60.1733 29.1351C58.9591 29.1351 58.1891 29.8607 58.0114 31.1342H62.1872C62.1872 29.9348 61.4024 29.1351 60.1733 29.1351ZM66.2592 35.4136H64.8672V24.5152H66.2592V35.4136ZM69.4335 35.4136H68.0416V24.5152H69.4335V35.4136Z" fill="white"/>
<path d="M18.5095 72.9108C18.5095 67.7276 18.5095 65.136 19.5182 63.1563C20.4055 61.4149 21.8213 59.9991 23.5627 59.1119C25.5424 58.1031 28.134 58.1031 33.3172 58.1031H277.103C282.286 58.1031 284.878 58.1031 286.857 59.1119C288.599 59.9991 290.014 61.4149 290.902 63.1563C291.91 65.136 291.91 67.7276 291.91 72.9108V76.6127C291.91 81.7958 291.91 84.3874 290.902 86.3671C290.014 88.1085 288.599 89.5243 286.857 90.4116C284.878 91.4203 282.286 91.4203 277.103 91.4203H33.3171C28.134 91.4203 25.5424 91.4203 23.5627 90.4116C21.8213 89.5243 20.4055 88.1085 19.5182 86.3671C18.5095 84.3874 18.5095 81.7958 18.5095 76.6127V72.9108Z" fill="url(#paint3_linear_468_3369)" fill-opacity="0.2"/>
<g filter="url(#filter0_dd_468_3369)">
<path d="M22.2114 67.1127C22.2114 64.0459 24.6975 61.5598 27.7643 61.5598H147.806C150.873 61.5598 153.359 64.0459 153.359 67.1127V82.4108C153.359 85.4775 150.873 87.9636 147.806 87.9636H27.7643C24.6975 87.9636 22.2114 85.4775 22.2114 82.4108V67.1127Z" fill="white"/>
<path d="M77.9116 79.2617V69.894H81.4876C83.3145 69.894 84.4288 70.8269 84.4288 72.3688C84.4288 73.4442 83.9623 74.1697 83.0295 74.5584C84.066 74.8953 84.5972 75.6468 84.5972 76.7611C84.5972 78.3159 83.47 79.2617 81.6172 79.2617H77.9116ZM81.4099 71.0213H79.1813V74.0272H81.4876C82.5371 74.0272 83.1331 73.4571 83.1331 72.4854C83.1331 71.5525 82.5112 71.0213 81.4099 71.0213ZM81.5913 75.1285H79.1813V78.1345H81.5913C82.6796 78.1345 83.2886 77.5774 83.2886 76.6056C83.2886 75.6727 82.6667 75.1285 81.5913 75.1285ZM90.2809 72.9259H91.4859V79.2617H90.3976L90.268 78.3029C89.9052 78.9637 89.063 79.4172 88.1301 79.4172C86.6531 79.4172 85.8239 78.4195 85.8239 76.8647V72.9259H87.0418V76.4631C87.0418 77.8235 87.6248 78.3418 88.5577 78.3418C89.672 78.3418 90.2809 77.6292 90.2809 76.2687V72.9259ZM92.5663 82.0992V81.1016H93.3826C93.9656 81.1016 94.432 81.0109 94.7301 80.2076L94.9503 79.5986L92.3979 72.9259H93.6806L95.5204 78.0308L97.3991 72.9259H98.6559L95.6629 80.687C95.2354 81.7753 94.6005 82.2288 93.6287 82.2288C93.2271 82.2288 92.8902 82.177 92.5663 82.0992Z" fill="#111111"/>
</g>
<path d="M213.009 72.4206C213.009 70.814 214.305 69.7256 216.235 69.7256C218.023 69.7256 219.176 70.7233 219.28 72.3429H217.997C217.933 71.41 217.272 70.8658 216.222 70.8658C215.043 70.8658 214.279 71.4618 214.279 72.3817C214.279 73.1332 214.706 73.5867 215.587 73.794L217.129 74.1568C218.658 74.5066 219.435 75.3358 219.435 76.6574C219.435 78.3418 218.127 79.4172 216.132 79.4172C214.227 79.4172 212.957 78.4195 212.879 76.8129H214.175C214.201 77.7069 214.952 78.277 216.132 78.277C217.375 78.277 218.166 77.694 218.166 76.7611C218.166 76.0225 217.764 75.5561 216.87 75.3488L215.328 74.999C213.799 74.6491 213.009 73.7681 213.009 72.4206ZM223.48 79.4172C221.614 79.4172 220.331 78.0697 220.331 76.1003C220.331 74.1179 221.588 72.7445 223.428 72.7445C225.229 72.7445 226.408 73.9884 226.408 75.8671V76.3206L221.51 76.3335C221.601 77.668 222.301 78.4066 223.506 78.4066C224.452 78.4066 225.074 78.0179 225.281 77.2923H226.421C226.11 78.6528 225.048 79.4172 223.48 79.4172ZM223.428 73.7681C222.366 73.7681 221.692 74.403 221.536 75.5172H225.19C225.19 74.4677 224.503 73.7681 223.428 73.7681ZM228.935 79.2617H227.717V69.7256H228.935V79.2617ZM231.894 79.2617H230.676V69.7256H231.894V79.2617Z" fill="white"/>
<path d="M18.5095 121.036C18.5095 115.852 18.5095 113.261 19.5182 111.281C20.4055 109.54 21.8213 108.124 23.5627 107.237C25.5424 106.228 28.134 106.228 33.3172 106.228H277.103C282.286 106.228 284.878 106.228 286.857 107.237C288.599 108.124 290.014 109.54 290.902 111.281C291.91 113.261 291.91 115.852 291.91 121.036V124.737C291.91 129.921 291.91 132.512 290.902 134.492C290.014 136.233 288.599 137.649 286.857 138.536C284.878 139.545 282.286 139.545 277.103 139.545H33.3171C28.134 139.545 25.5424 139.545 23.5627 138.536C21.8213 137.649 20.4055 136.233 19.5182 134.492C18.5095 132.512 18.5095 129.921 18.5095 124.737V121.036Z" fill="url(#paint4_linear_468_3369)" fill-opacity="0.2"/>
<g filter="url(#filter1_dd_468_3369)">
<path d="M47.7059 127.386H46.4621V118.019H47.7059L50.9321 125.896L54.1583 118.019H55.4281V127.386H54.1843V123.681C54.1843 121.932 54.1972 121.297 54.262 120.636L51.5281 127.386H50.3361L47.6152 120.662C47.68 121.115 47.7059 122.074 47.7059 123.383V127.386ZM59.1771 127.542C57.8167 127.542 57.0134 126.778 57.0134 125.624C57.0134 124.458 57.8815 123.733 59.3715 123.616L61.3668 123.461V123.279C61.3668 122.217 60.7319 121.841 59.8768 121.841C58.8532 121.841 58.2702 122.295 58.2702 123.059H57.2077C57.2077 121.737 58.2961 120.869 59.9286 120.869C61.4964 120.869 62.5588 121.698 62.5588 123.409V127.386H61.5223L61.3927 126.363C61.0688 127.088 60.2007 127.542 59.1771 127.542ZM59.527 126.596C60.6801 126.596 61.3798 125.845 61.3798 124.653V124.316L59.7602 124.445C58.6848 124.549 58.2443 124.964 58.2443 125.585C58.2443 126.259 58.7366 126.596 59.527 126.596ZM67.7957 120.999V122.113H67.2515C66.0983 122.113 65.3857 122.813 65.3857 124.031V127.386H64.1678V121.064H65.308L65.3857 122.022C65.6448 121.362 66.2797 120.921 67.1478 120.921C67.3681 120.921 67.5495 120.947 67.7957 120.999ZM70.1041 127.386H68.8861V117.85H70.1041V124.031L72.9157 121.051H74.4446L72.0217 123.577L74.4316 127.386H73.0323L71.1795 124.458L70.1041 125.585V127.386ZM77.8555 127.542C75.9897 127.542 74.707 126.194 74.707 124.225C74.707 122.243 75.9638 120.869 77.8037 120.869C79.6047 120.869 80.7837 122.113 80.7837 123.992V124.445L75.8861 124.458C75.9768 125.793 76.6764 126.531 77.8814 126.531C78.8273 126.531 79.4492 126.143 79.6565 125.417H80.7967C80.4857 126.778 79.4233 127.542 77.8555 127.542ZM77.8037 121.893C76.7412 121.893 76.0675 122.528 75.912 123.642H79.5658C79.5658 122.593 78.8791 121.893 77.8037 121.893ZM83.7911 127.386H82.5731V122.074H81.3293V121.051H82.5731V119.068H83.7911V121.051H85.0349V122.074H83.7911V127.386Z" fill="white"/>
</g>
<g filter="url(#filter2_dd_468_3369)">
<path d="M112.111 115.237C112.111 112.171 114.597 109.685 117.664 109.685H192.756C195.823 109.685 198.309 112.171 198.309 115.237V130.536C198.309 133.602 195.823 136.088 192.756 136.088H117.664C114.597 136.088 112.111 133.602 112.111 130.536V115.237Z" fill="white"/>
<path d="M143.704 118.019V126.207H147.824V127.386H142.434V118.019H143.704ZM149.515 119.548C149.074 119.548 148.711 119.185 148.711 118.744C148.711 118.291 149.074 117.941 149.515 117.941C149.955 117.941 150.318 118.291 150.318 118.744C150.318 119.185 149.955 119.548 149.515 119.548ZM148.919 127.386V121.051H150.137V127.386H148.919ZM153.045 127.386H151.827V121.051H152.915L153.032 121.88C153.356 121.284 154.03 120.869 154.924 120.869C155.908 120.869 156.608 121.362 156.932 122.152C157.23 121.362 157.994 120.869 158.979 120.869C160.43 120.869 161.311 121.776 161.311 123.24V127.386H160.119V123.538C160.119 122.541 159.562 121.971 158.707 121.971C157.787 121.971 157.178 122.618 157.178 123.629V127.386H155.973V123.525C155.973 122.528 155.429 121.984 154.574 121.984C153.654 121.984 153.045 122.618 153.045 123.629V127.386ZM163.518 119.548C163.077 119.548 162.715 119.185 162.715 118.744C162.715 118.291 163.077 117.941 163.518 117.941C163.958 117.941 164.321 118.291 164.321 118.744C164.321 119.185 163.958 119.548 163.518 119.548ZM162.922 127.386V121.051H164.14V127.386H162.922ZM167.618 127.386H166.4V122.074H165.156V121.051H166.4V119.068H167.618V121.051H168.862V122.074H167.618V127.386Z" fill="#111111"/>
</g>
<path d="M232.352 120.545C232.352 118.939 233.647 117.85 235.578 117.85C237.366 117.85 238.519 118.848 238.623 120.468H237.34C237.275 119.535 236.614 118.991 235.565 118.991C234.386 118.991 233.621 119.587 233.621 120.506C233.621 121.258 234.049 121.711 234.93 121.919L236.472 122.282C238.001 122.631 238.778 123.461 238.778 124.782C238.778 126.467 237.47 127.542 235.474 127.542C233.57 127.542 232.3 126.544 232.222 124.938H233.518C233.544 125.832 234.295 126.402 235.474 126.402C236.718 126.402 237.508 125.819 237.508 124.886C237.508 124.147 237.107 123.681 236.213 123.474L234.671 123.124C233.142 122.774 232.352 121.893 232.352 120.545ZM241.877 127.386H240.659V122.074H239.415V121.051H240.659V119.068H241.877V121.051H243.121V122.074H241.877V127.386ZM243.658 124.212C243.658 122.256 245.057 120.882 246.962 120.882C248.854 120.882 250.253 122.256 250.253 124.212C250.253 126.169 248.854 127.542 246.962 127.542C245.057 127.542 243.658 126.169 243.658 124.212ZM244.889 124.212C244.889 125.534 245.731 126.454 246.962 126.454C248.18 126.454 249.035 125.534 249.035 124.212C249.035 122.891 248.18 121.971 246.962 121.971C245.731 121.971 244.889 122.891 244.889 124.212ZM251.523 130.224V121.051H252.625L252.715 122.191C253.143 121.323 253.998 120.869 255.009 120.869C256.823 120.869 257.95 122.23 257.95 124.173C257.95 126.104 256.887 127.555 255.009 127.555C253.998 127.555 253.156 127.127 252.741 126.35V130.224H251.523ZM252.754 124.225C252.754 125.521 253.506 126.454 254.75 126.454C255.993 126.454 256.732 125.521 256.732 124.225C256.732 122.916 255.993 121.984 254.75 121.984C253.506 121.984 252.754 122.903 252.754 124.225Z" fill="white"/>
<path d="M23.2387 165.01H20.8676V168.353H19.5979V158.985H23.2387C25.0786 158.985 26.2576 160.19 26.2576 161.991C26.2576 163.74 25.0656 165.01 23.2387 165.01ZM23.0184 160.125H20.8676V163.87H22.9666C24.2234 163.87 24.9231 163.131 24.9231 161.978C24.9231 160.799 24.2105 160.125 23.0184 160.125ZM31.0386 161.965V163.079H30.4944C29.3413 163.079 28.6287 163.779 28.6287 164.997V168.353H27.4108V162.03H28.5509L28.6287 162.989C28.8878 162.328 29.5227 161.887 30.3908 161.887C30.6111 161.887 30.7925 161.913 31.0386 161.965ZM32.6992 160.514C32.2587 160.514 31.8959 160.151 31.8959 159.711C31.8959 159.257 32.2587 158.907 32.6992 158.907C33.1397 158.907 33.5025 159.257 33.5025 159.711C33.5025 160.151 33.1397 160.514 32.6992 160.514ZM32.1032 168.353V162.017H33.3211V168.353H32.1032ZM34.597 165.191C34.597 163.209 35.8538 161.836 37.7066 161.836C39.3002 161.836 40.4145 162.743 40.6348 164.155H39.4168C39.2095 163.352 38.5617 162.924 37.7454 162.924C36.5923 162.924 35.8019 163.805 35.8019 165.178C35.8019 166.539 36.5405 167.42 37.6936 167.42C38.5617 167.42 39.2095 166.966 39.4298 166.215H40.6477C40.4015 167.588 39.2225 168.508 37.6936 168.508C35.8278 168.508 34.597 167.187 34.597 165.191ZM44.5889 168.508C42.7231 168.508 41.4404 167.161 41.4404 165.191C41.4404 163.209 42.6972 161.836 44.5371 161.836C46.338 161.836 47.5171 163.079 47.5171 164.958V165.412L42.6195 165.425C42.7102 166.759 43.4098 167.498 44.6148 167.498C45.5606 167.498 46.1826 167.109 46.3899 166.383H47.53C47.2191 167.744 46.1566 168.508 44.5889 168.508ZM44.5371 162.859C43.4746 162.859 42.8009 163.494 42.6454 164.608H46.2992C46.2992 163.559 45.6125 162.859 44.5371 162.859Z" fill="white"/>
<g filter="url(#filter3_d_468_3369)">
<path d="M18.5095 186.309C18.5095 181.198 22.653 177.055 27.7643 177.055H141.328C146.439 177.055 150.583 181.198 150.583 186.309V205.309C150.583 210.421 146.439 214.564 141.328 214.564H27.7643C22.653 214.564 18.5095 210.421 18.5095 205.309V186.309Z" fill="url(#paint5_linear_468_3369)" fill-opacity="0.2" shape-rendering="crispEdges"/>
<path d="M27.7644 177.518H141.328C146.184 177.518 150.12 181.454 150.12 186.31V205.31C150.12 210.165 146.184 214.102 141.328 214.102H27.7644C22.9087 214.102 18.9725 210.165 18.9724 205.31V186.31C18.9724 181.454 22.9087 177.518 27.7644 177.518Z" stroke="white" stroke-opacity="0.3" stroke-width="0.925477" shape-rendering="crispEdges"/>
<path d="M31.9604 191.875H30.0687V191.033H32.8544V200.31H31.9604V191.875ZM34.5774 195.671C34.5774 192.795 35.9897 190.851 38.296 190.851C40.5893 190.851 42.0016 192.795 42.0016 195.671C42.0016 198.56 40.6153 200.478 38.296 200.478C35.9638 200.478 34.5774 198.56 34.5774 195.671ZM35.4974 195.671C35.4974 198.081 36.5209 199.636 38.296 199.636C40.0711 199.636 41.0946 198.081 41.0946 195.671C41.0946 193.248 40.0711 191.706 38.296 191.706C36.5209 191.706 35.4974 193.248 35.4974 195.671ZM45.8083 195.334H45.0698V194.686L47.9332 191.862H43.4891V191.033H49.1123V191.784L46.3396 194.544C48.0758 194.635 49.3196 195.736 49.3196 197.42C49.3196 199.26 47.9721 200.465 46.0934 200.465C44.2665 200.465 43.0356 199.338 43.0356 197.485H43.9555C43.9555 198.82 44.7848 199.623 46.0934 199.623C47.4798 199.623 48.3738 198.742 48.3738 197.394C48.3738 196.125 47.4668 195.334 45.8083 195.334ZM52.0139 199.869C52.0139 200.672 51.392 201.372 50.5887 201.489V201.009C51.0551 200.931 51.392 200.595 51.392 200.232C51.3142 200.284 51.2106 200.323 51.0551 200.323C50.6923 200.323 50.3813 200.063 50.3813 199.623C50.3813 199.169 50.6923 198.845 51.1458 198.845C51.6122 198.845 52.0139 199.221 52.0139 199.869ZM54.1834 194.155L56.5027 191.033H57.591L55.1552 194.259C55.5957 194.039 55.9974 193.948 56.4249 193.948C58.3555 193.948 59.6382 195.36 59.6382 197.174C59.6382 199.079 58.2 200.465 56.3472 200.465C54.4814 200.465 53.0173 199.027 53.0173 197.174C53.0173 196.099 53.3153 195.347 54.1834 194.155ZM53.9632 197.187C53.9632 198.599 54.9349 199.623 56.3472 199.623C57.7206 199.623 58.7053 198.599 58.7053 197.187C58.7053 195.775 57.7206 194.764 56.3472 194.764C54.9349 194.764 53.9632 195.775 53.9632 197.187ZM65.9482 197.174L63.6289 200.31H62.5406L64.9764 197.07C64.5489 197.304 64.1472 197.381 63.7067 197.381C61.7761 197.381 60.4934 195.969 60.4934 194.155C60.4934 192.263 61.9316 190.864 63.7844 190.864C65.6502 190.864 67.1143 192.302 67.1143 194.168C67.1143 195.244 66.8292 195.995 65.9482 197.174ZM66.1814 194.155C66.1814 192.743 65.1967 191.719 63.7844 191.719C62.411 191.719 61.4263 192.743 61.4263 194.155C61.4263 195.554 62.411 196.565 63.7844 196.565C65.1967 196.565 66.1814 195.554 66.1814 194.155ZM74.2999 200.31H68.1843V199.571L71.1514 196.98C72.8617 195.49 73.3022 194.842 73.3022 193.741C73.3022 192.484 72.5507 191.719 71.3198 191.719C70.0371 191.719 69.1949 192.652 69.1561 194.09H68.2232C68.275 192.147 69.5059 190.864 71.3328 190.864C73.0819 190.864 74.248 191.991 74.248 193.689C74.248 195.036 73.6391 195.93 71.7863 197.55L69.6225 199.441H74.2999V200.31ZM76.5469 200.452C76.1064 200.452 75.7307 200.089 75.7307 199.662C75.7307 199.221 76.1064 198.845 76.5469 198.845C76.9875 198.845 77.3632 199.221 77.3632 199.662C77.3632 200.089 76.9875 200.452 76.5469 200.452ZM81.1246 195.334H80.3861V194.686L83.2495 191.862H78.8054V191.033H84.4286V191.784L81.6558 194.544C83.392 194.635 84.6359 195.736 84.6359 197.42C84.6359 199.26 83.2884 200.465 81.4097 200.465C79.5828 200.465 78.3519 199.338 78.3519 197.485H79.2718C79.2718 198.82 80.101 199.623 81.4097 199.623C82.796 199.623 83.69 198.742 83.69 197.394C83.69 196.125 82.7831 195.334 81.1246 195.334ZM91.6037 200.31H85.4882V199.571L88.4552 196.98C90.1655 195.49 90.6061 194.842 90.6061 193.741C90.6061 192.484 89.8546 191.719 88.6237 191.719C87.341 191.719 86.4988 192.652 86.4599 194.09H85.527C85.5789 192.147 86.8097 190.864 88.6366 190.864C90.3858 190.864 91.5519 191.991 91.5519 193.689C91.5519 195.036 90.9429 195.93 89.0901 197.55L86.9264 199.441H91.6037V200.31Z" fill="white"/>
<path d="M132.073 196.623L135.509 193.187L136.49 194.168L132.073 198.586L127.656 194.168L128.637 193.187L132.073 196.623Z" fill="white" fill-opacity="0.6"/>
</g>
<path d="M160.019 160.151V158.985H166.925V160.151H164.113V168.353H162.843V160.151H160.019ZM168.512 160.514C168.072 160.514 167.709 160.151 167.709 159.711C167.709 159.257 168.072 158.907 168.512 158.907C168.953 158.907 169.316 159.257 169.316 159.711C169.316 160.151 168.953 160.514 168.512 160.514ZM167.916 168.353V162.017H169.134V168.353H167.916ZM170.41 165.191C170.41 163.209 171.667 161.836 173.52 161.836C175.113 161.836 176.227 162.743 176.448 164.155H175.23C175.023 163.352 174.375 162.924 173.558 162.924C172.405 162.924 171.615 163.805 171.615 165.178C171.615 166.539 172.353 167.42 173.507 167.42C174.375 167.42 175.023 166.966 175.243 166.215H176.461C176.215 167.588 175.035 168.508 173.507 168.508C171.641 168.508 170.41 167.187 170.41 165.191ZM178.912 168.353H177.694V158.817H178.912V164.997L181.723 162.017H183.252L180.829 164.544L183.239 168.353H181.84L179.987 165.425L178.912 166.552V168.353ZM183.69 166.513H184.856C184.856 167.161 185.348 167.549 186.151 167.549C187.006 167.549 187.499 167.2 187.499 166.617C187.499 166.189 187.291 165.93 186.631 165.761L185.516 165.502C184.389 165.23 183.858 164.673 183.858 163.74C183.858 162.574 184.843 161.836 186.242 161.836C187.628 161.836 188.535 162.613 188.561 163.818H187.395C187.369 163.183 186.942 162.781 186.203 162.781C185.439 162.781 185.011 163.118 185.011 163.701C185.011 164.129 185.322 164.414 185.944 164.569L187.058 164.842C188.134 165.101 188.665 165.593 188.665 166.539C188.665 167.744 187.628 168.508 186.125 168.508C184.635 168.508 183.69 167.718 183.69 166.513Z" fill="white"/>
<g filter="url(#filter4_d_468_3369)">
<path d="M159.837 186.309C159.837 181.198 163.981 177.055 169.092 177.055H282.656C287.767 177.055 291.91 181.198 291.91 186.309V205.309C291.91 210.421 287.767 214.564 282.656 214.564H169.092C163.981 214.564 159.837 210.421 159.837 205.309V186.309Z" fill="url(#paint6_linear_468_3369)" fill-opacity="0.2" shape-rendering="crispEdges"/>
<path d="M169.092 177.518H282.656C287.511 177.518 291.448 181.454 291.448 186.31V205.31C291.448 210.165 287.511 214.102 282.656 214.102H169.092C164.237 214.102 160.3 210.165 160.3 205.31V186.31C160.3 181.454 164.237 177.518 169.092 177.518Z" stroke="white" stroke-opacity="0.3" stroke-width="0.925477" shape-rendering="crispEdges"/>
<path d="M172.071 200.31H171.125L174.532 191.033H175.686L179.132 200.31H178.16L177.253 197.848H172.978L172.071 200.31ZM174.986 192.341L173.263 197.032H176.955L175.219 192.341C175.18 192.212 175.115 192.056 175.102 191.965C175.089 192.043 175.038 192.212 174.986 192.341ZM179.618 198.547H180.473C180.473 199.273 181.018 199.727 181.899 199.727C182.87 199.727 183.44 199.312 183.44 198.638C183.44 198.12 183.181 197.822 182.443 197.64L181.367 197.368C180.279 197.096 179.748 196.526 179.748 195.671C179.748 194.57 180.668 193.87 182.015 193.87C183.337 193.87 184.192 194.596 184.231 195.762H183.363C183.337 195.036 182.832 194.609 181.989 194.609C181.108 194.609 180.616 194.984 180.616 195.658C180.616 196.138 180.953 196.474 181.64 196.643L182.715 196.915C183.803 197.187 184.296 197.692 184.296 198.599C184.296 199.727 183.337 200.465 181.912 200.465C180.499 200.465 179.618 199.714 179.618 198.547ZM186.623 200.31H185.729V190.864H186.623V197.278L189.732 194.039H190.859L188.449 196.539L190.872 200.31H189.836L187.84 197.174L186.623 198.431V200.31ZM195.482 195.542H198.319V192.704H199.123V195.542H201.96V196.345H199.123V199.195H198.319V196.345H195.482V195.542ZM208.782 191.875H206.89V191.033H209.676V200.31H208.782V191.875ZM213.964 195.334H213.226V194.686L216.089 191.862H211.645V191.033H217.268V191.784L214.496 194.544C216.232 194.635 217.476 195.736 217.476 197.42C217.476 199.26 216.128 200.465 214.249 200.465C212.423 200.465 211.192 199.338 211.192 197.485H212.112C212.112 198.82 212.941 199.623 214.249 199.623C215.636 199.623 216.53 198.742 216.53 197.394C216.53 196.125 215.623 195.334 213.964 195.334ZM218.685 195.671C218.685 192.795 220.098 190.851 222.404 190.851C224.697 190.851 226.109 192.795 226.109 195.671C226.109 198.56 224.723 200.478 222.404 200.478C220.072 200.478 218.685 198.56 218.685 195.671ZM219.605 195.671C219.605 198.081 220.629 199.636 222.404 199.636C224.179 199.636 225.202 198.081 225.202 195.671C225.202 193.248 224.179 191.706 222.404 191.706C220.629 191.706 219.605 193.248 219.605 195.671ZM227.4 197.783C227.4 196.643 228.087 195.736 229.188 195.36C228.255 194.984 227.724 194.22 227.724 193.261C227.724 191.836 228.942 190.864 230.717 190.864C232.479 190.864 233.658 191.836 233.658 193.274C233.658 194.246 233.14 195.01 232.22 195.36C233.295 195.697 234.008 196.63 234.008 197.796C234.008 199.377 232.674 200.465 230.704 200.465C228.735 200.465 227.4 199.377 227.4 197.783ZM228.605 193.287C228.605 194.311 229.434 194.997 230.704 194.997C231.961 194.997 232.777 194.337 232.777 193.313C232.777 192.315 231.961 191.693 230.704 191.693C229.434 191.693 228.605 192.315 228.605 193.287ZM228.32 197.705C228.32 198.858 229.279 199.623 230.717 199.623C232.129 199.623 233.088 198.858 233.088 197.705C233.088 196.565 232.155 195.827 230.691 195.827C229.253 195.827 228.32 196.565 228.32 197.705ZM238.34 200.465C236.474 200.465 235.282 199.299 235.282 197.472H236.215C236.215 198.807 237.031 199.61 238.353 199.61C239.752 199.61 240.659 198.677 240.659 197.304C240.659 196.008 239.817 194.984 238.353 194.984C237.498 194.984 236.72 195.373 236.215 195.93L235.476 195.697L236.591 191.033H241.074V191.888H237.264L236.565 194.803C237.083 194.388 237.757 194.155 238.482 194.155C240.413 194.155 241.605 195.542 241.605 197.278C241.605 199.143 240.283 200.465 238.34 200.465Z" fill="white"/>
</g>
<path d="M19.5331 240.042V234.004H20.8029V239.964C20.8029 241.467 21.6321 242.296 23.1221 242.296C24.5992 242.296 25.4154 241.454 25.4154 239.964V234.004H26.6981V240.042C26.6981 242.193 25.3247 243.527 23.1221 243.527C20.9065 243.527 19.5331 242.206 19.5331 240.042ZM29.7422 243.372H28.5242V237.036H29.6255L29.7551 238.008C30.1568 237.282 30.9601 236.855 31.8541 236.855C33.5255 236.855 34.2899 237.878 34.2899 239.498V243.372H33.072V239.77C33.072 238.487 32.476 237.969 31.5431 237.969C30.4029 237.969 29.7422 238.785 29.7422 240.016V243.372ZM36.4951 235.533C36.0546 235.533 35.6918 235.17 35.6918 234.73C35.6918 234.276 36.0546 233.926 36.4951 233.926C36.9356 233.926 37.2984 234.276 37.2984 234.73C37.2984 235.17 36.9356 235.533 36.4951 235.533ZM35.8991 243.372V237.036H37.117V243.372H35.8991ZM40.5955 243.372H39.3776V238.06H38.1337V237.036H39.3776V235.054H40.5955V237.036H41.8393V238.06H40.5955V243.372ZM42.3363 241.532H43.5024C43.5024 242.18 43.9948 242.569 44.7981 242.569C45.6533 242.569 46.1456 242.219 46.1456 241.636C46.1456 241.208 45.9383 240.949 45.2775 240.78L44.1632 240.521C43.036 240.249 42.5048 239.692 42.5048 238.759C42.5048 237.593 43.4895 236.855 44.8888 236.855C46.2752 236.855 47.1821 237.632 47.2081 238.837H46.042C46.016 238.202 45.5885 237.8 44.8499 237.8C44.0855 237.8 43.6579 238.137 43.6579 238.72C43.6579 239.148 43.9689 239.433 44.5908 239.588L45.7051 239.861C46.7805 240.12 47.3117 240.612 47.3117 241.558C47.3117 242.763 46.2752 243.527 44.7722 243.527C43.2822 243.527 42.3363 242.737 42.3363 241.532Z" fill="white"/>
<g opacity="0.3">
<path d="M162.196 243.372H160.926V234.004H164.463C166.471 234.004 167.663 235.067 167.663 236.816C167.663 238.111 167.015 239.044 165.849 239.42L167.754 243.372H166.342L164.593 239.666H162.196V243.372ZM162.196 235.144V238.539H164.476C165.655 238.539 166.329 237.904 166.329 236.829C166.329 235.74 165.629 235.144 164.463 235.144H162.196ZM169.714 235.533C169.274 235.533 168.911 235.17 168.911 234.73C168.911 234.276 169.274 233.926 169.714 233.926C170.155 233.926 170.518 234.276 170.518 234.73C170.518 235.17 170.155 235.533 169.714 235.533ZM169.118 243.372V237.036H170.336V243.372H169.118ZM171.508 241.532H172.674C172.674 242.18 173.167 242.569 173.97 242.569C174.825 242.569 175.318 242.219 175.318 241.636C175.318 241.208 175.11 240.949 174.449 240.78L173.335 240.521C172.208 240.249 171.677 239.692 171.677 238.759C171.677 237.593 172.661 236.855 174.061 236.855C175.447 236.855 176.354 237.632 176.38 238.837H175.214C175.188 238.202 174.76 237.8 174.022 237.8C173.257 237.8 172.83 238.137 172.83 238.72C172.83 239.148 173.141 239.433 173.763 239.588L174.877 239.861C175.952 240.12 176.484 240.612 176.484 241.558C176.484 242.763 175.447 243.527 173.944 243.527C172.454 243.527 171.508 242.737 171.508 241.532ZM179 243.372H177.783V233.836H179V240.016L181.812 237.036H183.341L180.918 239.563L183.328 243.372H181.929L180.076 240.444L179 241.571V243.372ZM192.116 236.22C192.116 237.606 191.131 238.604 189.745 238.604C188.371 238.604 187.387 237.606 187.387 236.22C187.387 234.82 188.371 233.823 189.745 233.823C191.131 233.823 192.116 234.82 192.116 236.22ZM197.052 234.017L189.939 243.372H188.695L195.808 234.017H197.052ZM191.118 236.22C191.118 235.378 190.561 234.795 189.745 234.795C188.941 234.795 188.384 235.378 188.384 236.22C188.384 237.049 188.941 237.632 189.745 237.632C190.548 237.632 191.118 237.049 191.118 236.22ZM198.387 241.156C198.387 242.543 197.389 243.54 196.016 243.54C194.642 243.54 193.645 242.543 193.645 241.156C193.645 239.757 194.642 238.772 196.016 238.772C197.389 238.772 198.387 239.757 198.387 241.156ZM197.376 241.156C197.376 240.314 196.832 239.731 196.016 239.731C195.212 239.731 194.655 240.314 194.655 241.156C194.655 241.985 195.212 242.569 196.016 242.569C196.819 242.569 197.376 241.985 197.376 241.156Z" fill="white"/>
</g>
<defs>
<filter id="filter0_dd_468_3369" x="12.2114" y="57.5598" width="151.147" height="46.4038" filterUnits="userSpaceOnUse" color-interpolation-filters="sRGB">
<feFlood flood-opacity="0" result="BackgroundImageFix"/>
<feColorMatrix in="SourceAlpha" type="matrix" values="0 0 0 0 0 0 0 0 0 0 0 0 0 0 0 0 0 0 127 0" result="hardAlpha"/>
<feOffset dy="2"/>
<feGaussianBlur stdDeviation="2"/>
<feColorMatrix type="matrix" values="0 0 0 0 0.054902 0 0 0 0 0.0705882 0 0 0 0 0.105882 0 0 0 0.03 0"/>
<feBlend mode="normal" in2="BackgroundImageFix" result="effect1_dropShadow_468_3369"/>
<feColorMatrix in="SourceAlpha" type="matrix" values="0 0 0 0 0 0 0 0 0 0 0 0 0 0 0 0 0 0 127 0" result="hardAlpha"/>
<feOffset dy="6"/>
<feGaussianBlur stdDeviation="5"/>
<feColorMatrix type="matrix" values="0 0 0 0 0.054902 0 0 0 0 0.0705882 0 0 0 0 0.105882 0 0 0 0.06 0"/>
<feBlend mode="normal" in2="effect1_dropShadow_468_3369" result="effect2_dropShadow_468_3369"/>
<feBlend mode="normal" in="SourceGraphic" in2="effect2_dropShadow_468_3369" result="shape"/>
</filter>
<filter id="filter1_dd_468_3369" x="12.2114" y="105.685" width="106.198" height="46.4038" filterUnits="userSpaceOnUse" color-interpolation-filters="sRGB">
<feFlood flood-opacity="0" result="BackgroundImageFix"/>
<feColorMatrix in="SourceAlpha" type="matrix" values="0 0 0 0 0 0 0 0 0 0 0 0 0 0 0 0 0 0 127 0" result="hardAlpha"/>
<feOffset dy="2"/>
<feGaussianBlur stdDeviation="2"/>
<feColorMatrix type="matrix" values="0 0 0 0 0.054902 0 0 0 0 0.0705882 0 0 0 0 0.105882 0 0 0 0.03 0"/>
<feBlend mode="normal" in2="BackgroundImageFix" result="effect1_dropShadow_468_3369"/>
<feColorMatrix in="SourceAlpha" type="matrix" values="0 0 0 0 0 0 0 0 0 0 0 0 0 0 0 0 0 0 127 0" result="hardAlpha"/>
<feOffset dy="6"/>
<feGaussianBlur stdDeviation="5"/>
<feColorMatrix type="matrix" values="0 0 0 0 0.054902 0 0 0 0 0.0705882 0 0 0 0 0.105882 0 0 0 0.06 0"/>
<feBlend mode="normal" in2="effect1_dropShadow_468_3369" result="effect2_dropShadow_468_3369"/>
<feBlend mode="normal" in="SourceGraphic" in2="effect2_dropShadow_468_3369" result="shape"/>
</filter>
<filter id="filter2_dd_468_3369" x="102.111" y="105.685" width="106.198" height="46.4038" filterUnits="userSpaceOnUse" color-interpolation-filters="sRGB">
<feFlood flood-opacity="0" result="BackgroundImageFix"/>
<feColorMatrix in="SourceAlpha" type="matrix" values="0 0 0 0 0 0 0 0 0 0 0 0 0 0 0 0 0 0 127 0" result="hardAlpha"/>
<feOffset dy="2"/>
<feGaussianBlur stdDeviation="2"/>
<feColorMatrix type="matrix" values="0 0 0 0 0.054902 0 0 0 0 0.0705882 0 0 0 0 0.105882 0 0 0 0.03 0"/>
<feBlend mode="normal" in2="BackgroundImageFix" result="effect1_dropShadow_468_3369"/>
<feColorMatrix in="SourceAlpha" type="matrix" values="0 0 0 0 0 0 0 0 0 0 0 0 0 0 0 0 0 0 127 0" result="hardAlpha"/>
<feOffset dy="6"/>
<feGaussianBlur stdDeviation="5"/>
<feColorMatrix type="matrix" values="0 0 0 0 0.054902 0 0 0 0 0.0705882 0 0 0 0 0.105882 0 0 0 0.06 0"/>
<feBlend mode="normal" in2="effect1_dropShadow_468_3369" result="effect2_dropShadow_468_3369"/>
<feBlend mode="normal" in="SourceGraphic" in2="effect2_dropShadow_468_3369" result="shape"/>
</filter>
<filter id="filter3_d_468_3369" x="16.6586" y="176.129" width="135.775" height="41.2114" filterUnits="userSpaceOnUse" color-interpolation-filters="sRGB">
<feFlood flood-opacity="0" result="BackgroundImageFix"/>
<feColorMatrix in="SourceAlpha" type="matrix" values="0 0 0 0 0 0 0 0 0 0 0 0 0 0 0 0 0 0 127 0" result="hardAlpha"/>
<feOffset dy="0.925477"/>
<feGaussianBlur stdDeviation="0.925477"/>
<feComposite in2="hardAlpha" operator="out"/>
<feColorMatrix type="matrix" values="0 0 0 0 0.0392157 0 0 0 0 0.0509804 0 0 0 0 0.0784314 0 0 0 0.03 0"/>
<feBlend mode="normal" in2="BackgroundImageFix" result="effect1_dropShadow_468_3369"/>
<feBlend mode="normal" in="SourceGraphic" in2="effect1_dropShadow_468_3369" result="shape"/>
</filter>
<filter id="filter4_d_468_3369" x="157.837" y="176.055" width="136.073" height="41.5095" filterUnits="userSpaceOnUse" color-interpolation-filters="sRGB">
<feFlood flood-opacity="0" result="BackgroundImageFix"/>
<feColorMatrix in="SourceAlpha" type="matrix" values="0 0 0 0 0 0 0 0 0 0 0 0 0 0 0 0 0 0 127 0" result="hardAlpha"/>
<feOffset dy="1"/>
<feGaussianBlur stdDeviation="1"/>
<feComposite in2="hardAlpha" operator="out"/>
<feColorMatrix type="matrix" values="0 0 0 0 0.0392157 0 0 0 0 0.0509804 0 0 0 0 0.0784314 0 0 0 0.03 0"/>
<feBlend mode="normal" in2="BackgroundImageFix" result="effect1_dropShadow_468_3369"/>
<feBlend mode="normal" in="SourceGraphic" in2="effect1_dropShadow_468_3369" result="shape"/>
</filter>
<linearGradient id="paint0_linear_468_3369" x1="37.3321" y1="545.967" x2="476.815" y2="167.632" gradientUnits="userSpaceOnUse">
<stop stop-color="#0276DB"/>
<stop offset="1" stop-color="#3EDC81"/>
</linearGradient>
<radialGradient id="paint1_radial_468_3369" cx="0" cy="0" r="1" gradientUnits="userSpaceOnUse" gradientTransform="translate(155.407 1.18764) rotate(90.0176) scale(641.734 310.196)">
<stop stop-color="#161616" stop-opacity="0.6"/>
<stop offset="0.740127" stop-color="#161616" stop-opacity="0.946662"/>
<stop offset="1" stop-color="#161616"/>
</radialGradient>
<linearGradient id="paint2_linear_468_3369" x1="37.3321" y1="545.967" x2="295.634" y2="142.172" gradientUnits="userSpaceOnUse">
<stop stop-color="#0276DB"/>
<stop offset="1" stop-color="#3EDC81"/>
</linearGradient>
<linearGradient id="paint3_linear_468_3369" x1="155.21" y1="58.1031" x2="155.21" y2="91.4203" gradientUnits="userSpaceOnUse">
<stop stop-color="white" stop-opacity="0.2"/>
<stop offset="1" stop-color="white" stop-opacity="0.1"/>
</linearGradient>
<linearGradient id="paint4_linear_468_3369" x1="155.21" y1="106.228" x2="155.21" y2="139.545" gradientUnits="userSpaceOnUse">
<stop stop-color="white" stop-opacity="0.2"/>
<stop offset="1" stop-color="white" stop-opacity="0.1"/>
</linearGradient>
<linearGradient id="paint5_linear_468_3369" x1="84.5461" y1="177.055" x2="84.5461" y2="214.564" gradientUnits="userSpaceOnUse">
<stop stop-color="white" stop-opacity="0.2"/>
<stop offset="1" stop-color="white" stop-opacity="0.1"/>
</linearGradient>
<linearGradient id="paint6_linear_468_3369" x1="225.874" y1="177.055" x2="225.874" y2="214.564" gradientUnits="userSpaceOnUse">
<stop stop-color="white" stop-opacity="0.2"/>
<stop offset="1" stop-color="white" stop-opacity="0.1"/>
</linearGradient>
</defs>
</svg>
