<svg width="500" height="365" viewBox="0 0 500 365" fill="none" xmlns="http://www.w3.org/2000/svg">
<g clip-path="url(#clip0_1086_2085)">
<g filter="url(#filter0_f_1086_2085)">
<circle cx="250" cy="182.77" r="85" fill="#3EDC81"/>
</g>
<g clip-path="url(#clip1_1086_2085)">
<path d="M40 56.0563C40 48.2553 40 44.3548 41.5182 41.3752C42.8536 38.7543 44.9845 36.6234 47.6054 35.288C50.585 33.7698 54.4855 33.7698 62.2865 33.7698H334.767C342.568 33.7698 346.469 33.7698 349.448 35.288C352.069 36.6234 354.2 38.7543 355.535 41.3752C357.054 44.3548 357.054 48.2553 357.054 56.0563V156.972C357.054 164.773 357.054 168.673 355.535 171.653C354.2 174.274 352.069 176.404 349.448 177.74C346.469 179.258 342.568 179.258 334.767 179.258H62.2866C54.4855 179.258 50.585 179.258 47.6054 177.74C44.9845 176.404 42.8536 174.274 41.5182 171.653C40 168.673 40 164.773 40 156.972V56.0563Z" fill="url(#paint0_linear_1086_2085)"/>
<path d="M40 56.0563C40 48.2553 40 44.3548 41.5182 41.3752C42.8536 38.7543 44.9845 36.6234 47.6054 35.288C50.585 33.7698 54.4855 33.7698 62.2865 33.7698H334.767C342.568 33.7698 346.469 33.7698 349.448 35.288C352.069 36.6234 354.2 38.7543 355.535 41.3752C357.054 44.3548 357.054 48.2553 357.054 56.0563V156.972C357.054 164.773 357.054 168.673 355.535 171.653C354.2 174.274 352.069 176.404 349.448 177.74C346.469 179.258 342.568 179.258 334.767 179.258H62.2866C54.4855 179.258 50.585 179.258 47.6054 177.74C44.9845 176.404 42.8536 174.274 41.5182 171.653C40 168.673 40 164.773 40 156.972V56.0563Z" fill="url(#paint1_radial_1086_2085)"/>
<rect width="317.054" height="26.7057" transform="translate(40 33.7698)" fill="url(#paint2_linear_1086_2085)"/>
<path d="M158.496 45.8332H163.008L157.207 54.2132V48.4117H152.694L158.496 40.0317V45.8332Z" fill="white"/>
<path d="M173.353 52.1226H172.07V42.4562H173.353L176.682 50.585L180.011 42.4562H181.321V52.1226H180.038V48.2988C180.038 46.4939 180.051 45.8388 180.118 45.1569L177.297 52.1226H176.067L173.26 45.1837C173.326 45.6516 173.353 46.641 173.353 47.9913V52.1226ZM182.663 48.847C182.663 46.8281 184.107 45.411 186.072 45.411C188.024 45.411 189.468 46.8281 189.468 48.847C189.468 50.8658 188.024 52.283 186.072 52.283C184.107 52.283 182.663 50.8658 182.663 48.847ZM183.933 48.847C183.933 50.2107 184.802 51.1599 186.072 51.1599C187.329 51.1599 188.212 50.2107 188.212 48.847C188.212 47.4833 187.329 46.534 186.072 46.534C184.802 46.534 183.933 47.4833 183.933 48.847ZM190.057 50.2241H191.261C191.261 50.8925 191.769 51.2936 192.598 51.2936C193.48 51.2936 193.988 50.9327 193.988 50.331C193.988 49.8898 193.774 49.6224 193.092 49.4486L191.942 49.1812C190.779 48.9005 190.231 48.3256 190.231 47.3629C190.231 46.1597 191.247 45.3976 192.691 45.3976C194.122 45.3976 195.058 46.1998 195.084 47.4432H193.881C193.854 46.788 193.413 46.3736 192.651 46.3736C191.862 46.3736 191.421 46.7212 191.421 47.3228C191.421 47.764 191.742 48.0582 192.384 48.2186L193.533 48.4994C194.643 48.7668 195.191 49.2748 195.191 50.2508C195.191 51.4942 194.122 52.283 192.571 52.283C191.033 52.283 190.057 51.4674 190.057 50.2241ZM198.163 52.1226H196.906V46.641H195.622V45.5848H196.906V43.5392H198.163V45.5848H199.446V46.641H198.163V52.1226ZM207.666 48.6732H205.219V52.1226H203.909V42.4562H207.666C209.564 42.4562 210.781 43.6996 210.781 45.558C210.781 47.3629 209.551 48.6732 207.666 48.6732ZM207.439 43.6328H205.219V47.4966H207.385C208.682 47.4966 209.404 46.7346 209.404 45.5447C209.404 44.328 208.669 43.6328 207.439 43.6328ZM211.056 48.847C211.056 46.8281 212.499 45.411 214.465 45.411C216.417 45.411 217.861 46.8281 217.861 48.847C217.861 50.8658 216.417 52.283 214.465 52.283C212.499 52.283 211.056 50.8658 211.056 48.847ZM212.326 48.847C212.326 50.2107 213.195 51.1599 214.465 51.1599C215.722 51.1599 216.604 50.2107 216.604 48.847C216.604 47.4833 215.722 46.534 214.465 46.534C213.195 46.534 212.326 47.4833 212.326 48.847ZM218.985 55.0505V45.5848H220.121L220.215 46.7613C220.656 45.8655 221.538 45.3976 222.581 45.3976C224.453 45.3976 225.616 46.8014 225.616 48.8069C225.616 50.799 224.52 52.2964 222.581 52.2964C221.538 52.2964 220.669 51.8552 220.241 51.053V55.0505H218.985ZM220.255 48.8603C220.255 50.1973 221.03 51.1599 222.314 51.1599C223.597 51.1599 224.359 50.1973 224.359 48.8603C224.359 47.51 223.597 46.5474 222.314 46.5474C221.03 46.5474 220.255 47.4966 220.255 48.8603ZM231.096 45.5848H232.339V52.1226H231.216L231.083 51.1332C230.708 51.8151 229.839 52.283 228.877 52.283C227.353 52.283 226.497 51.2535 226.497 49.6492V45.5848H227.754V49.2347C227.754 50.6385 228.355 51.1733 229.318 51.1733C230.468 51.1733 231.096 50.438 231.096 49.0342V45.5848ZM235.179 52.1226H233.922V42.2824H235.179V52.1226ZM238.673 52.283C237.27 52.283 236.441 51.4942 236.441 50.3043C236.441 49.101 237.336 48.3523 238.874 48.232L240.933 48.0715V47.8844C240.933 46.788 240.278 46.4003 239.395 46.4003C238.339 46.4003 237.738 46.8683 237.738 47.6571H236.641C236.641 46.2934 237.764 45.3976 239.449 45.3976C241.067 45.3976 242.163 46.2532 242.163 48.0181V52.1226H241.093L240.96 51.0663C240.625 51.8151 239.73 52.283 238.673 52.283ZM239.034 51.307C240.224 51.307 240.946 50.5316 240.946 49.3015V48.9539L239.275 49.0876C238.165 49.1946 237.711 49.6224 237.711 50.2642C237.711 50.9594 238.219 51.307 239.034 51.307ZM247.38 45.5313V46.6811H246.818C245.628 46.6811 244.893 47.403 244.893 48.6598V52.1226H243.636V45.5981H244.813L244.893 46.5875C245.16 45.9056 245.815 45.4511 246.711 45.4511C246.938 45.4511 247.126 45.4778 247.38 45.5313Z" fill="white"/>
<path d="M303.574 178.927L303.574 178.589C303.574 176.666 302.015 175.107 300.092 175.107L96.9607 175.107C95.0375 175.107 93.4784 176.666 93.4784 178.589L93.4784 178.927L303.574 178.927Z" fill="url(#paint3_linear_1086_2085)"/>
<path d="M188.761 88.7092H184.217V95.1152H181.784V77.1635H188.761C192.287 77.1635 194.546 79.4726 194.546 82.9239C194.546 86.2759 192.262 88.7092 188.761 88.7092ZM188.339 79.3485H184.217V86.5242H188.24C190.648 86.5242 191.989 85.1089 191.989 82.8991C191.989 80.6396 190.623 79.3485 188.339 79.3485ZM203.361 82.8743V85.0096H202.318C200.108 85.0096 198.743 86.3504 198.743 88.6844V95.1152H196.409V82.9984H198.594L198.743 84.8358C199.239 83.5695 200.456 82.7253 202.119 82.7253C202.541 82.7253 202.889 82.775 203.361 82.8743ZM203.822 89.032C203.822 85.2828 206.504 82.6508 210.154 82.6508C213.779 82.6508 216.461 85.2828 216.461 89.032C216.461 92.7813 213.779 95.4132 210.154 95.4132C206.504 95.4132 203.822 92.7813 203.822 89.032ZM206.181 89.032C206.181 91.5646 207.795 93.3275 210.154 93.3275C212.488 93.3275 214.127 91.5646 214.127 89.032C214.127 86.4994 212.488 84.7365 210.154 84.7365C207.795 84.7365 206.181 86.4994 206.181 89.032Z" fill="white"/>
<path d="M135.483 135.294V133.233C132.032 132.985 129.822 130.974 129.747 127.944H132.926C132.95 129.36 133.869 130.253 135.483 130.452V125.163L134.688 124.99C131.56 124.319 129.996 122.581 129.996 119.85C129.996 116.945 132.181 114.859 135.483 114.512V112.401H137.395V114.512C140.523 114.834 142.46 116.796 142.559 119.775H139.481C139.431 118.435 138.686 117.566 137.395 117.292V122.631L138.239 122.829C141.417 123.525 142.857 125.064 142.857 127.696C142.857 130.725 140.722 132.811 137.395 133.183V135.294H135.483ZM135.384 122.184L135.483 122.209V117.268C133.993 117.516 133.099 118.41 133.099 119.751C133.099 121.067 133.795 121.836 135.384 122.184ZM137.569 125.61L137.395 125.561V130.402C138.885 130.104 139.779 129.235 139.779 127.969C139.779 126.703 139.058 125.933 137.569 125.61ZM156.955 132.91L144.367 132.935V130.551L150.301 125.536C152.759 123.45 153.579 122.258 153.579 120.52C153.579 118.459 152.461 117.292 150.549 117.292C148.563 117.292 147.322 118.683 147.297 121.017H144.143C144.168 117.044 146.701 114.462 150.549 114.462C154.423 114.462 156.831 116.672 156.831 120.347C156.831 122.879 155.441 124.791 152.685 127.15L149.407 129.956H156.955V132.91ZM172.204 129.484H169.994V132.935H166.99V129.484H157.778V126.703L165.997 114.785H169.994V126.703H172.204V129.484ZM161.155 126.703H166.99V118.211L161.155 126.703ZM183.703 127.597L179.78 132.935H176.155L180.5 127.15C180.054 127.274 179.582 127.348 179.135 127.348C175.386 127.348 172.853 124.716 172.853 121.042C172.853 117.168 175.733 114.462 179.607 114.462C183.53 114.462 186.46 117.342 186.46 121.067C186.46 123.252 185.739 124.841 183.703 127.597ZM183.207 121.042C183.207 118.832 181.742 117.292 179.607 117.292C177.521 117.292 176.056 118.832 176.056 121.042C176.056 123.227 177.521 124.741 179.607 124.741C181.767 124.741 183.207 123.227 183.207 121.042ZM189.864 132.935H186.86L193.936 114.81H196.965L189.864 132.935ZM199.831 132.935H196.802V120.669H199.583L199.831 122.109C200.452 121.091 201.693 120.297 203.456 120.297C205.319 120.297 206.61 121.216 207.255 122.631C207.876 121.216 209.316 120.297 211.178 120.297C214.158 120.297 215.797 122.085 215.797 124.915V132.935H212.792V125.71C212.792 123.947 211.849 123.028 210.409 123.028C208.944 123.028 207.826 123.972 207.826 125.983V132.935H204.797V125.685C204.797 123.972 203.878 123.053 202.438 123.053C200.998 123.053 199.831 123.996 199.831 125.983V132.935ZM217.554 126.777C217.554 122.954 220.31 120.322 224.109 120.322C227.908 120.322 230.664 122.954 230.664 126.777C230.664 130.601 227.908 133.233 224.109 133.233C220.31 133.233 217.554 130.601 217.554 126.777ZM220.583 126.777C220.583 129.012 222.023 130.527 224.109 130.527C226.194 130.527 227.634 129.012 227.634 126.777C227.634 124.543 226.194 123.028 224.109 123.028C222.023 123.028 220.583 124.543 220.583 126.777ZM235.597 132.935H232.568V120.669H235.374L235.622 122.258C236.392 121.017 237.882 120.297 239.545 120.297C242.624 120.297 244.213 122.209 244.213 125.387V132.935H241.184V126.107C241.184 124.046 240.166 123.053 238.602 123.053C236.739 123.053 235.597 124.344 235.597 126.33V132.935ZM250.864 132.935H247.835V123.202H245.476V120.669H247.835V116.846H250.864V120.669H253.248V123.202H250.864V132.935ZM257.664 132.935H254.634V114.462H257.688V122.258C258.458 121.067 259.898 120.297 261.661 120.297C264.69 120.297 266.279 122.209 266.279 125.387V132.935H263.25V126.107C263.25 124.046 262.232 123.053 260.693 123.053C258.781 123.053 257.664 124.394 257.664 126.231V132.935Z" fill="white"/>
<path d="M123.105 149.681C123.105 148.306 124.205 147.401 125.855 147.401C127.333 147.401 128.307 148.226 128.433 149.601H127.597C127.505 148.673 126.875 148.146 125.844 148.146C124.686 148.146 123.93 148.742 123.93 149.67C123.93 150.392 124.354 150.85 125.213 151.068L126.623 151.412C127.906 151.721 128.571 152.455 128.571 153.566C128.571 154.987 127.471 155.893 125.775 155.893C124.182 155.893 123.105 155.056 123.002 153.715H123.85C123.895 154.575 124.652 155.136 125.775 155.136C126.978 155.136 127.746 154.552 127.746 153.612C127.746 152.879 127.333 152.397 126.451 152.191L125.064 151.847C123.781 151.538 123.105 150.805 123.105 149.681ZM132.209 155.893C130.582 155.893 129.493 154.724 129.493 152.982C129.493 151.251 130.57 150.06 132.152 150.06C133.653 150.06 134.673 151.125 134.673 152.695V153.085H130.261C130.318 154.437 131.029 155.217 132.221 155.217C133.126 155.217 133.71 154.827 133.917 154.093H134.673C134.375 155.262 133.516 155.893 132.209 155.893ZM132.152 150.736C131.109 150.736 130.421 151.423 130.284 152.512H133.882C133.882 151.446 133.195 150.736 132.152 150.736ZM138.837 150.14V150.85H138.401C137.381 150.85 136.728 151.538 136.728 152.592V155.755H135.937V150.209H136.682L136.739 151.068C136.957 150.472 137.542 150.083 138.321 150.083C138.493 150.083 138.642 150.094 138.837 150.14ZM140.277 148.684C139.957 148.684 139.693 148.421 139.693 148.1C139.693 147.779 139.957 147.504 140.277 147.504C140.598 147.504 140.873 147.779 140.873 148.1C140.873 148.421 140.598 148.684 140.277 148.684ZM139.888 155.755V150.209H140.679V155.755H139.888ZM141.938 152.982C141.938 151.286 143.13 150.06 144.757 150.06C146.384 150.06 147.576 151.286 147.576 152.982C147.576 154.666 146.384 155.893 144.757 155.893C143.13 155.893 141.938 154.666 141.938 152.982ZM142.74 152.97C142.74 154.277 143.565 155.182 144.757 155.182C145.937 155.182 146.774 154.277 146.774 152.97C146.774 151.687 145.937 150.77 144.757 150.77C143.565 150.77 142.74 151.687 142.74 152.97ZM152.603 150.209H153.393V155.755H152.706L152.603 154.815C152.293 155.457 151.526 155.893 150.655 155.893C149.348 155.893 148.638 154.999 148.638 153.647V150.197H149.44V153.394C149.44 154.712 150.024 155.182 150.907 155.182C151.972 155.182 152.603 154.472 152.603 153.154V150.209ZM154.459 154.197H155.215C155.215 154.838 155.697 155.239 156.476 155.239C157.335 155.239 157.84 154.873 157.84 154.277C157.84 153.818 157.61 153.555 156.957 153.394L156.006 153.154C155.043 152.913 154.573 152.409 154.573 151.653C154.573 150.678 155.387 150.06 156.579 150.06C157.748 150.06 158.504 150.701 158.539 151.733H157.771C157.748 151.091 157.301 150.713 156.556 150.713C155.777 150.713 155.341 151.045 155.341 151.641C155.341 152.065 155.639 152.363 156.247 152.512L157.198 152.753C158.16 152.993 158.596 153.44 158.596 154.242C158.596 155.239 157.748 155.893 156.487 155.893C155.238 155.893 154.459 155.228 154.459 154.197ZM164.073 147.55V155.755H163.248V147.55H164.073ZM166.687 155.755H165.896V150.209H166.584L166.698 151.171C167.065 150.461 167.798 150.06 168.601 150.06C170.125 150.06 170.755 150.965 170.755 152.363V155.755H169.964V152.535C169.964 151.24 169.38 150.782 168.463 150.782C167.329 150.782 166.687 151.607 166.687 152.856V155.755ZM171.794 154.197H172.55C172.55 154.838 173.032 155.239 173.811 155.239C174.67 155.239 175.175 154.873 175.175 154.277C175.175 153.818 174.945 153.555 174.292 153.394L173.341 153.154C172.378 152.913 171.909 152.409 171.909 151.653C171.909 150.678 172.722 150.06 173.914 150.06C175.083 150.06 175.839 150.701 175.874 151.733H175.106C175.083 151.091 174.636 150.713 173.891 150.713C173.112 150.713 172.676 151.045 172.676 151.641C172.676 152.065 172.974 152.363 173.582 152.512L174.533 152.753C175.496 152.993 175.931 153.44 175.931 154.242C175.931 155.239 175.083 155.893 173.822 155.893C172.573 155.893 171.794 155.228 171.794 154.197ZM177.622 148.684C177.302 148.684 177.038 148.421 177.038 148.1C177.038 147.779 177.302 147.504 177.622 147.504C177.943 147.504 178.218 147.779 178.218 148.1C178.218 148.421 177.943 148.684 177.622 148.684ZM177.233 155.755V150.209H178.023V155.755H177.233ZM179.294 152.821C179.294 151.309 180.268 150.06 181.896 150.06C182.858 150.06 183.592 150.507 183.947 151.32L184.027 150.209H184.715V155.583C184.715 157.233 183.66 158.311 182.033 158.311C180.612 158.311 179.615 157.508 179.397 156.168H180.188C180.36 157.062 181.048 157.589 182.045 157.589C183.179 157.589 183.935 156.821 183.935 155.663V154.346C183.557 155.125 182.789 155.583 181.838 155.583C180.257 155.583 179.294 154.334 179.294 152.821ZM180.085 152.81C180.085 153.944 180.784 154.873 181.953 154.873C183.156 154.873 183.867 154.002 183.867 152.81C183.867 151.63 183.179 150.759 181.964 150.759C180.773 150.759 180.085 151.687 180.085 152.81ZM187.155 155.744H186.365V147.401H187.155V151.171C187.511 150.507 188.187 150.06 189.115 150.06C190.57 150.06 191.224 150.965 191.224 152.363V155.755H190.433V152.535C190.433 151.24 189.826 150.782 188.966 150.782C187.774 150.782 187.155 151.664 187.155 152.73V155.744ZM194.072 155.755H193.292V150.873H192.181V150.209H193.292V148.455H194.072V150.209H195.183V150.873H194.072V155.755ZM195.743 154.197H196.499C196.499 154.838 196.981 155.239 197.76 155.239C198.62 155.239 199.124 154.873 199.124 154.277C199.124 153.818 198.895 153.555 198.241 153.394L197.29 153.154C196.328 152.913 195.858 152.409 195.858 151.653C195.858 150.678 196.671 150.06 197.863 150.06C199.032 150.06 199.788 150.701 199.823 151.733H199.055C199.032 151.091 198.585 150.713 197.84 150.713C197.061 150.713 196.626 151.045 196.626 151.641C196.626 152.065 196.924 152.363 197.531 152.512L198.482 152.753C199.445 152.993 199.88 153.44 199.88 154.242C199.88 155.239 199.032 155.893 197.772 155.893C196.522 155.893 195.743 155.228 195.743 154.197ZM201.768 155.881C201.379 155.881 201.047 155.56 201.047 155.182C201.047 154.793 201.379 154.46 201.768 154.46C202.158 154.46 202.49 154.793 202.49 155.182C202.49 155.56 202.158 155.881 201.768 155.881ZM206.949 149.681C206.949 148.306 208.049 147.401 209.699 147.401C211.178 147.401 212.152 148.226 212.278 149.601H211.441C211.35 148.673 210.719 148.146 209.688 148.146C208.53 148.146 207.774 148.742 207.774 149.67C207.774 150.392 208.198 150.85 209.058 151.068L210.467 151.412C211.751 151.721 212.415 152.455 212.415 153.566C212.415 154.987 211.315 155.893 209.619 155.893C208.026 155.893 206.949 155.056 206.846 153.715H207.694C207.74 154.575 208.496 155.136 209.619 155.136C210.822 155.136 211.59 154.552 211.59 153.612C211.59 152.879 211.178 152.397 210.295 152.191L208.909 151.847C207.625 151.538 206.949 150.805 206.949 149.681ZM216.054 155.893C214.426 155.893 213.338 154.724 213.338 152.982C213.338 151.251 214.415 150.06 215.996 150.06C217.497 150.06 218.517 151.125 218.517 152.695V153.085H214.105C214.163 154.437 214.873 155.217 216.065 155.217C216.97 155.217 217.555 154.827 217.761 154.093H218.517C218.219 155.262 217.36 155.893 216.054 155.893ZM215.996 150.736C214.953 150.736 214.266 151.423 214.128 152.512H217.727C217.727 151.446 217.039 150.736 215.996 150.736ZM222.681 150.14V150.85H222.245C221.226 150.85 220.572 151.538 220.572 152.592V155.755H219.782V150.209H220.527L220.584 151.068C220.802 150.472 221.386 150.083 222.165 150.083C222.337 150.083 222.486 150.094 222.681 150.14ZM224.122 148.684C223.801 148.684 223.537 148.421 223.537 148.1C223.537 147.779 223.801 147.504 224.122 147.504C224.443 147.504 224.718 147.779 224.718 148.1C224.718 148.421 224.443 148.684 224.122 148.684ZM223.732 155.755V150.209H224.523V155.755H223.732ZM225.782 152.982C225.782 151.286 226.974 150.06 228.601 150.06C230.229 150.06 231.42 151.286 231.42 152.982C231.42 154.666 230.229 155.893 228.601 155.893C226.974 155.893 225.782 154.666 225.782 152.982ZM226.584 152.97C226.584 154.277 227.409 155.182 228.601 155.182C229.782 155.182 230.618 154.277 230.618 152.97C230.618 151.687 229.782 150.77 228.601 150.77C227.409 150.77 226.584 151.687 226.584 152.97ZM236.447 150.209H237.238V155.755H236.55L236.447 154.815C236.138 155.457 235.37 155.893 234.499 155.893C233.193 155.893 232.482 154.999 232.482 153.647V150.197H233.284V153.394C233.284 154.712 233.869 155.182 234.751 155.182C235.817 155.182 236.447 154.472 236.447 153.154V150.209ZM238.303 154.197H239.06C239.06 154.838 239.541 155.239 240.32 155.239C241.18 155.239 241.684 154.873 241.684 154.277C241.684 153.818 241.455 153.555 240.801 153.394L239.85 153.154C238.888 152.913 238.418 152.409 238.418 151.653C238.418 150.678 239.231 150.06 240.423 150.06C241.592 150.06 242.349 150.701 242.383 151.733H241.615C241.592 151.091 241.145 150.713 240.4 150.713C239.621 150.713 239.186 151.045 239.186 151.641C239.186 152.065 239.484 152.363 240.091 152.512L241.042 152.753C242.005 152.993 242.44 153.44 242.44 154.242C242.44 155.239 241.592 155.893 240.332 155.893C239.082 155.893 238.303 155.228 238.303 154.197ZM250.53 148.192C248.639 148.192 247.447 149.59 247.447 151.687C247.447 153.818 248.708 155.113 250.553 155.113C251.928 155.113 253.269 154.449 253.269 152.478V152.054H250.301V151.32H254.048V155.767H253.395L253.315 154.46C252.879 155.274 251.848 155.893 250.519 155.893C248.192 155.893 246.588 154.22 246.588 151.687C246.588 149.177 248.192 147.412 250.542 147.412C252.272 147.412 253.613 148.398 253.934 149.888H253.04C252.696 148.765 251.733 148.192 250.53 148.192ZM257.108 155.893C255.928 155.893 255.229 155.228 255.229 154.254C255.229 153.234 256.008 152.592 257.303 152.489L259.136 152.34V152.157C259.136 151.068 258.483 150.724 257.67 150.724C256.707 150.724 256.134 151.16 256.134 151.905H255.412C255.412 150.782 256.329 150.06 257.692 150.06C258.976 150.06 259.916 150.701 259.916 152.168V155.755H259.251L259.148 154.781C258.804 155.48 258.048 155.893 257.108 155.893ZM257.291 155.251C258.46 155.251 259.136 154.437 259.136 153.234V152.936L257.498 153.062C256.455 153.154 256.031 153.612 256.031 154.231C256.031 154.907 256.535 155.251 257.291 155.251ZM261.892 148.684C261.571 148.684 261.308 148.421 261.308 148.1C261.308 147.779 261.571 147.504 261.892 147.504C262.213 147.504 262.488 147.779 262.488 148.1C262.488 148.421 262.213 148.684 261.892 148.684ZM261.502 155.755V150.209H262.293V155.755H261.502ZM264.733 155.755H263.942V150.209H264.63L264.744 151.171C265.111 150.461 265.844 150.06 266.647 150.06C268.171 150.06 268.801 150.965 268.801 152.363V155.755H268.01V152.535C268.01 151.24 267.426 150.782 266.509 150.782C265.375 150.782 264.733 151.607 264.733 152.856V155.755ZM269.84 154.197H270.596C270.596 154.838 271.078 155.239 271.857 155.239C272.716 155.239 273.221 154.873 273.221 154.277C273.221 153.818 272.991 153.555 272.338 153.394L271.387 153.154C270.424 152.913 269.955 152.409 269.955 151.653C269.955 150.678 270.768 150.06 271.96 150.06C273.129 150.06 273.885 150.701 273.92 151.733H273.152C273.129 151.091 272.682 150.713 271.937 150.713C271.158 150.713 270.722 151.045 270.722 151.641C270.722 152.065 271.02 152.363 271.628 152.512L272.579 152.753C273.541 152.993 273.977 153.44 273.977 154.242C273.977 155.239 273.129 155.893 271.868 155.893C270.619 155.893 269.84 155.228 269.84 154.197Z" fill="white" fill-opacity="0.8"/>
</g>
<path d="M62.2861 34.2053H334.768C338.675 34.2053 341.579 34.2058 343.88 34.3938C346.176 34.5814 347.833 34.9534 349.251 35.676C351.79 36.9697 353.854 39.0337 355.147 41.5725C355.87 42.9907 356.242 44.6478 356.43 46.9436C356.618 49.2443 356.618 52.1487 356.618 56.0559V156.972C356.618 160.879 356.618 163.784 356.43 166.084C356.242 168.38 355.87 170.037 355.147 171.455C353.854 173.994 351.79 176.058 349.251 177.352C347.833 178.074 346.176 178.446 343.88 178.634C341.579 178.822 338.675 178.823 334.768 178.823H62.2861C58.3789 178.823 55.4746 178.822 53.1738 178.634C50.878 178.446 49.2209 178.074 47.8027 177.352C45.264 176.058 43.1999 173.994 41.9062 171.455C41.1836 170.037 40.8116 168.38 40.624 166.084C40.4361 163.784 40.4355 160.879 40.4355 156.972V56.0559C40.4355 52.1486 40.4361 49.2443 40.624 46.9436C40.8116 44.6478 41.1836 42.9907 41.9062 41.5725C43.1999 39.0337 45.264 36.9697 47.8027 35.676C49.2209 34.9534 50.878 34.5814 53.1738 34.3938C55.4746 34.2058 58.3789 34.2053 62.2861 34.2053Z" stroke="url(#paint4_linear_1086_2085)" stroke-width="0.870568"/>
<path d="M143.138 221.545C143.138 213.744 143.138 209.843 144.656 206.863C145.991 204.243 148.122 202.112 150.743 200.776C153.723 199.258 157.623 199.258 165.424 199.258H437.905C445.706 199.258 449.606 199.258 452.586 200.776C455.207 202.112 457.338 204.243 458.673 206.863C460.191 209.843 460.191 213.744 460.191 221.545V309.444C460.191 317.246 460.191 321.146 458.673 324.126C457.338 326.747 455.207 328.877 452.586 330.213C449.606 331.731 445.706 331.731 437.905 331.731H165.424C157.623 331.731 153.723 331.731 150.743 330.213C148.122 328.877 145.991 326.747 144.656 324.126C143.138 321.146 143.138 317.246 143.138 309.444V221.545Z" fill="url(#paint5_linear_1086_2085)" fill-opacity="0.4"/>
<path d="M143.138 221.545C143.138 213.744 143.138 209.843 144.656 206.863C145.991 204.243 148.122 202.112 150.743 200.776C153.723 199.258 157.623 199.258 165.424 199.258H437.905C445.706 199.258 449.606 199.258 452.586 200.776C455.207 202.112 457.338 204.243 458.673 206.863C460.191 209.843 460.191 213.744 460.191 221.545V309.444C460.191 317.246 460.191 321.146 458.673 324.126C457.338 326.747 455.207 328.877 452.586 330.213C449.606 331.731 445.706 331.731 437.905 331.731H165.424C157.623 331.731 153.723 331.731 150.743 330.213C148.122 328.877 145.991 326.747 144.656 324.126C143.138 321.146 143.138 317.246 143.138 309.444V221.545Z" fill="url(#paint6_radial_1086_2085)"/>
<path d="M165.424 199.694H437.905C441.813 199.694 444.717 199.694 447.018 199.882C449.313 200.07 450.97 200.442 452.389 201.164C454.927 202.458 456.992 204.522 458.285 207.061C459.008 208.479 459.38 210.136 459.567 212.432C459.755 214.733 459.756 217.637 459.756 221.544V309.445C459.756 313.352 459.755 316.257 459.567 318.558C459.38 320.854 459.008 322.51 458.285 323.928C456.991 326.467 454.928 328.532 452.389 329.825C450.97 330.548 449.313 330.92 447.018 331.108C444.717 331.296 441.813 331.296 437.905 331.296H165.424C161.517 331.296 158.612 331.296 156.312 331.108C154.016 330.92 152.359 330.548 150.94 329.825C148.401 328.532 146.338 326.467 145.044 323.928C144.321 322.51 143.949 320.854 143.762 318.558C143.574 316.257 143.573 313.352 143.573 309.445V221.544C143.573 217.637 143.574 214.733 143.762 212.432C143.949 210.136 144.321 208.479 145.044 207.061C146.338 204.522 148.402 202.458 150.94 201.164C152.359 200.442 154.016 200.07 156.312 199.882C158.612 199.694 161.517 199.694 165.424 199.694Z" stroke="white" stroke-opacity="0.3" stroke-width="0.870568"/>
<path d="M289.863 247.175L283.035 229.223H285.642L290.012 240.694C290.41 241.712 290.757 242.73 291.13 244.071C291.552 242.656 291.974 241.464 292.272 240.669L296.617 229.223H299.15L292.396 247.175H289.863ZM303.419 229.223V247.175H300.986V229.223H303.419ZM314.086 240.769H309.542V247.175H307.109V229.223H314.086C317.612 229.223 319.871 231.532 319.871 234.983C319.871 238.335 317.587 240.769 314.086 240.769ZM313.664 231.408H309.542V238.584H313.564C315.973 238.584 317.314 237.168 317.314 234.958C317.314 232.699 315.948 231.408 313.664 231.408Z" fill="white"/>
<path d="M238.885 287.353V285.292C235.434 285.044 233.224 283.033 233.149 280.004H236.327C236.352 281.419 237.271 282.313 238.885 282.511V277.223L238.09 277.049C234.962 276.379 233.398 274.64 233.398 271.909C233.398 269.004 235.583 266.919 238.885 266.571V264.46H240.797V266.571C243.925 266.894 245.862 268.855 245.961 271.835H242.882C242.833 270.494 242.088 269.625 240.797 269.352V274.69L241.641 274.889C244.819 275.584 246.259 277.123 246.259 279.755C246.259 282.785 244.124 284.87 240.797 285.243V287.353H238.885ZM238.786 274.243L238.885 274.268V269.327C237.395 269.575 236.501 270.469 236.501 271.81C236.501 273.126 237.196 273.896 238.786 274.243ZM240.971 277.67L240.797 277.62V282.462C242.286 282.164 243.18 281.295 243.18 280.028C243.18 278.762 242.46 277.992 240.971 277.67ZM253.057 276.006H250.848V273.945L255.516 269.65H247.967V266.844H259.488V269.377L255.069 273.449C257.85 273.995 260.01 276.031 260.01 279.234C260.01 282.958 257.105 285.317 253.43 285.317C249.879 285.317 247.123 283.132 247.123 279.209H250.252C250.252 281.295 251.543 282.487 253.48 282.487C255.466 282.487 256.782 281.195 256.782 279.184C256.782 277.347 255.59 276.006 253.057 276.006ZM272.011 279.656L268.088 284.994H264.463L268.808 279.209C268.361 279.333 267.889 279.408 267.442 279.408C263.693 279.408 261.16 276.776 261.16 273.101C261.16 269.228 264.04 266.521 267.914 266.521C271.837 266.521 274.767 269.401 274.767 273.126C274.767 275.311 274.047 276.9 272.011 279.656ZM271.514 273.101C271.514 270.891 270.049 269.352 267.914 269.352C265.828 269.352 264.363 270.891 264.363 273.101C264.363 275.286 265.828 276.801 267.914 276.801C270.074 276.801 271.514 275.286 271.514 273.101ZM286.911 279.656L282.988 284.994H279.363L283.708 279.209C283.261 279.333 282.79 279.408 282.343 279.408C278.593 279.408 276.061 276.776 276.061 273.101C276.061 269.228 278.941 266.521 282.814 266.521C286.738 266.521 289.667 269.401 289.667 273.126C289.667 275.311 288.947 276.9 286.911 279.656ZM286.415 273.101C286.415 270.891 284.95 269.352 282.814 269.352C280.729 269.352 279.264 270.891 279.264 273.101C279.264 275.286 280.729 276.801 282.814 276.801C284.975 276.801 286.415 275.286 286.415 273.101ZM293.072 284.994H290.068L297.144 266.869H300.173L293.072 284.994ZM303.039 284.994H300.01V272.729H302.791L303.039 274.169C303.66 273.151 304.901 272.356 306.664 272.356C308.526 272.356 309.817 273.275 310.463 274.69C311.084 273.275 312.524 272.356 314.386 272.356C317.366 272.356 319.004 274.144 319.004 276.974V284.994H316V277.769C316 276.006 315.057 275.087 313.616 275.087C312.151 275.087 311.034 276.031 311.034 278.042V284.994H308.005V277.744C308.005 276.031 307.086 275.112 305.646 275.112C304.206 275.112 303.039 276.056 303.039 278.042V284.994ZM320.761 278.837C320.761 275.013 323.518 272.381 327.316 272.381C331.115 272.381 333.871 275.013 333.871 278.837C333.871 282.66 331.115 285.292 327.316 285.292C323.518 285.292 320.761 282.66 320.761 278.837ZM323.791 278.837C323.791 281.071 325.231 282.586 327.316 282.586C329.402 282.586 330.842 281.071 330.842 278.837C330.842 276.602 329.402 275.087 327.316 275.087C325.231 275.087 323.791 276.602 323.791 278.837ZM338.805 284.994H335.776V272.729H338.582L338.83 274.318C339.6 273.076 341.089 272.356 342.753 272.356C345.832 272.356 347.421 274.268 347.421 277.446V284.994H344.392V278.166C344.392 276.105 343.374 275.112 341.81 275.112C339.947 275.112 338.805 276.403 338.805 278.39V284.994ZM354.072 284.994H351.043V275.261H348.684V272.729H351.043V268.905H354.072V272.729H356.456V275.261H354.072V284.994ZM360.871 284.994H357.842V266.521H360.896V274.318C361.666 273.126 363.106 272.356 364.869 272.356C367.898 272.356 369.487 274.268 369.487 277.446V284.994H366.458V278.166C366.458 276.105 365.44 275.112 363.901 275.112C361.989 275.112 360.871 276.453 360.871 278.29V284.994Z" fill="white"/>
<path d="M202.565 307.814H197.649V299.609H202.554V300.366H198.474V303.322H202.175V304.067H198.474V307.058H202.565V307.814ZM204.894 307.814H204.103V299.46H204.894V307.814ZM206.965 300.744C206.644 300.744 206.38 300.48 206.38 300.159C206.38 299.838 206.644 299.563 206.965 299.563C207.286 299.563 207.561 299.838 207.561 300.159C207.561 300.48 207.286 300.744 206.965 300.744ZM206.575 307.814V302.268H207.366V307.814H206.575ZM210.287 307.814H209.508V302.933H208.396V302.268H209.508V300.515H210.287V302.268H211.399V302.933H210.287V307.814ZM214.699 307.952C213.071 307.952 211.983 306.783 211.983 305.041C211.983 303.311 213.06 302.119 214.641 302.119C216.143 302.119 217.163 303.185 217.163 304.755V305.144H212.75C212.808 306.497 213.518 307.276 214.71 307.276C215.615 307.276 216.2 306.886 216.406 306.153H217.163C216.865 307.322 216.005 307.952 214.699 307.952ZM214.641 302.795C213.599 302.795 212.911 303.483 212.773 304.571H216.372C216.372 303.506 215.684 302.795 214.641 302.795ZM220.917 300.366V299.609H226.796V300.366H224.264V307.814H223.439V300.366H220.917ZM229.977 302.199V302.91H229.541C228.521 302.91 227.868 303.597 227.868 304.652V307.814H227.078V302.268H227.822L227.88 303.127C228.097 302.531 228.682 302.142 229.461 302.142C229.633 302.142 229.782 302.153 229.977 302.199ZM232.397 307.952C231.217 307.952 230.518 307.287 230.518 306.313C230.518 305.293 231.297 304.652 232.592 304.548L234.425 304.399V304.216C234.425 303.127 233.772 302.784 232.959 302.784C231.996 302.784 231.423 303.219 231.423 303.964H230.701C230.701 302.841 231.618 302.119 232.982 302.119C234.265 302.119 235.205 302.761 235.205 304.228V307.814H234.54L234.437 306.84C234.093 307.539 233.337 307.952 232.397 307.952ZM232.58 307.31C233.749 307.31 234.425 306.497 234.425 305.293V304.995L232.787 305.121C231.744 305.213 231.32 305.671 231.32 306.29C231.32 306.966 231.824 307.31 232.58 307.31ZM238.969 307.952C237.353 307.952 236.402 306.714 236.402 305.053C236.402 303.38 237.353 302.119 239.003 302.119C239.92 302.119 240.653 302.52 241.043 303.322V299.46H241.834V307.814H241.146L241.066 306.68C240.676 307.539 239.897 307.952 238.969 307.952ZM239.106 307.23C240.321 307.23 241.032 306.313 241.032 305.03C241.032 303.758 240.321 302.829 239.106 302.829C237.903 302.829 237.204 303.758 237.204 305.03C237.204 306.313 237.903 307.23 239.106 307.23ZM243.873 300.744C243.553 300.744 243.289 300.48 243.289 300.159C243.289 299.838 243.553 299.563 243.873 299.563C244.194 299.563 244.469 299.838 244.469 300.159C244.469 300.48 244.194 300.744 243.873 300.744ZM243.484 307.814V302.268H244.275V307.814H243.484ZM246.714 307.814H245.923V302.268H246.611L246.726 303.231C247.092 302.52 247.826 302.119 248.628 302.119C250.152 302.119 250.782 303.024 250.782 304.422V307.814H249.992V304.594C249.992 303.299 249.407 302.841 248.49 302.841C247.356 302.841 246.714 303.666 246.714 304.915V307.814ZM251.98 304.881C251.98 303.368 252.954 302.119 254.582 302.119C255.544 302.119 256.278 302.566 256.633 303.38L256.713 302.268H257.401V307.643C257.401 309.293 256.346 310.37 254.719 310.37C253.298 310.37 252.301 309.568 252.083 308.227H252.874C253.046 309.121 253.734 309.648 254.731 309.648C255.865 309.648 256.621 308.88 256.621 307.723V306.405C256.243 307.184 255.475 307.643 254.524 307.643C252.943 307.643 251.98 306.393 251.98 304.881ZM252.771 304.869C252.771 306.004 253.47 306.932 254.639 306.932C255.842 306.932 256.553 306.061 256.553 304.869C256.553 303.689 255.865 302.818 254.65 302.818C253.459 302.818 252.771 303.746 252.771 304.869ZM263.226 299.609V307.814H262.401V299.609H263.226ZM265.84 307.814H265.049V302.268H265.737L265.851 303.231C266.218 302.52 266.952 302.119 267.754 302.119C269.278 302.119 269.908 303.024 269.908 304.422V307.814H269.117V304.594C269.117 303.299 268.533 302.841 267.616 302.841C266.482 302.841 265.84 303.666 265.84 304.915V307.814ZM272.756 307.814H271.977V302.933H270.865V302.268H271.977V300.515H272.756V302.268H273.868V302.933H272.756V307.814ZM277.168 307.952C275.541 307.952 274.452 306.783 274.452 305.041C274.452 303.311 275.529 302.119 277.111 302.119C278.612 302.119 279.632 303.185 279.632 304.755V305.144H275.22C275.277 306.497 275.987 307.276 277.179 307.276C278.085 307.276 278.669 306.886 278.875 306.153H279.632C279.334 307.322 278.474 307.952 277.168 307.952ZM277.111 302.795C276.068 302.795 275.38 303.483 275.243 304.571H278.841C278.841 303.506 278.153 302.795 277.111 302.795ZM281.721 307.814H280.93V299.46H281.721V307.814ZM284.228 307.814H283.437V299.46H284.228V307.814ZM286.299 300.744C285.978 300.744 285.715 300.48 285.715 300.159C285.715 299.838 285.978 299.563 286.299 299.563C286.62 299.563 286.895 299.838 286.895 300.159C286.895 300.48 286.62 300.744 286.299 300.744ZM285.91 307.814V302.268H286.7V307.814H285.91ZM287.971 304.881C287.971 303.368 288.945 302.119 290.572 302.119C291.535 302.119 292.268 302.566 292.624 303.38L292.704 302.268H293.392V307.643C293.392 309.293 292.337 310.37 290.71 310.37C289.289 310.37 288.292 309.568 288.074 308.227H288.865C289.037 309.121 289.724 309.648 290.721 309.648C291.856 309.648 292.612 308.88 292.612 307.723V306.405C292.234 307.184 291.466 307.643 290.515 307.643C288.934 307.643 287.971 306.393 287.971 304.881ZM288.762 304.869C288.762 306.004 289.461 306.932 290.63 306.932C291.833 306.932 292.544 306.061 292.544 304.869C292.544 303.689 291.856 302.818 290.641 302.818C289.449 302.818 288.762 303.746 288.762 304.869ZM297.368 307.952C295.741 307.952 294.652 306.783 294.652 305.041C294.652 303.311 295.729 302.119 297.311 302.119C298.812 302.119 299.832 303.185 299.832 304.755V305.144H295.42C295.477 306.497 296.188 307.276 297.379 307.276C298.285 307.276 298.869 306.886 299.075 306.153H299.832C299.534 307.322 298.674 307.952 297.368 307.952ZM297.311 302.795C296.268 302.795 295.58 303.483 295.443 304.571H299.041C299.041 303.506 298.353 302.795 297.311 302.795ZM301.887 307.814H301.096V302.268H301.784L301.898 303.231C302.265 302.52 302.998 302.119 303.801 302.119C305.325 302.119 305.955 303.024 305.955 304.422V307.814H305.164V304.594C305.164 303.299 304.58 302.841 303.663 302.841C302.528 302.841 301.887 303.666 301.887 304.915V307.814ZM307.141 305.053C307.141 303.311 308.207 302.119 309.823 302.119C311.106 302.119 312.046 302.864 312.264 304.01H311.473C311.267 303.242 310.602 302.818 309.834 302.818C308.711 302.818 307.921 303.677 307.921 305.041C307.921 306.359 308.654 307.241 309.777 307.241C310.602 307.241 311.267 306.783 311.485 306.073H312.287C312.023 307.207 311.038 307.952 309.777 307.952C308.207 307.952 307.141 306.795 307.141 305.053ZM315.811 307.952C314.184 307.952 313.095 306.783 313.095 305.041C313.095 303.311 314.172 302.119 315.754 302.119C317.255 302.119 318.275 303.185 318.275 304.755V305.144H313.863C313.92 306.497 314.631 307.276 315.822 307.276C316.728 307.276 317.312 306.886 317.518 306.153H318.275C317.977 307.322 317.117 307.952 315.811 307.952ZM315.754 302.795C314.711 302.795 314.023 303.483 313.886 304.571H317.484C317.484 303.506 316.797 302.795 315.754 302.795ZM319.868 307.941C319.479 307.941 319.146 307.62 319.146 307.241C319.146 306.852 319.479 306.519 319.868 306.519C320.258 306.519 320.59 306.852 320.59 307.241C320.59 307.62 320.258 307.941 319.868 307.941ZM325.542 307.814V299.609H328.544C330.125 299.609 331.1 300.411 331.1 301.729C331.1 302.692 330.676 303.345 329.828 303.677C330.779 303.987 331.26 304.652 331.26 305.66C331.26 306.978 330.274 307.814 328.716 307.814H325.542ZM328.533 300.343H326.367V303.345H328.636C329.667 303.345 330.252 302.772 330.252 301.798C330.252 300.881 329.633 300.343 328.533 300.343ZM328.716 304.067H326.367V307.07H328.716C329.793 307.07 330.423 306.508 330.423 305.557C330.423 304.629 329.782 304.067 328.716 304.067ZM336.473 302.268H337.264V307.814H336.576L336.473 306.875C336.164 307.516 335.396 307.952 334.525 307.952C333.219 307.952 332.508 307.058 332.508 305.706V302.256H333.31V305.454C333.31 306.772 333.895 307.241 334.777 307.241C335.843 307.241 336.473 306.531 336.473 305.213V302.268ZM339.301 300.744C338.98 300.744 338.716 300.48 338.716 300.159C338.716 299.838 338.98 299.563 339.301 299.563C339.622 299.563 339.897 299.838 339.897 300.159C339.897 300.48 339.622 300.744 339.301 300.744ZM338.911 307.814V302.268H339.702V307.814H338.911ZM342.176 307.814H341.385V299.46H342.176V307.814ZM345.13 307.814H344.35V302.933H343.239V302.268H344.35V300.515H345.13V302.268H346.241V302.933H345.13V307.814ZM349.83 302.268H350.678V301.191C350.678 299.942 351.366 299.46 352.214 299.46C352.409 299.46 352.638 299.472 352.821 299.506V300.182H352.351C351.652 300.182 351.469 300.537 351.469 301.191V302.268H352.775V302.933H351.469V307.814H350.678V302.933H349.83V302.268ZM353.294 305.041C353.294 303.345 354.486 302.119 356.113 302.119C357.74 302.119 358.932 303.345 358.932 305.041C358.932 306.726 357.74 307.952 356.113 307.952C354.486 307.952 353.294 306.726 353.294 305.041ZM354.096 305.03C354.096 306.336 354.921 307.241 356.113 307.241C357.293 307.241 358.13 306.336 358.13 305.03C358.13 303.746 357.293 302.829 356.113 302.829C354.921 302.829 354.096 303.746 354.096 305.03ZM363.096 302.199V302.91H362.661C361.641 302.91 360.987 303.597 360.987 304.652V307.814H360.197V302.268H360.942L360.999 303.127C361.217 302.531 361.801 302.142 362.58 302.142C362.752 302.142 362.901 302.153 363.096 302.199ZM366.638 300.366V299.609H372.517V300.366H369.984V307.814H369.159V300.366H366.638ZM372.24 305.041C372.24 303.345 373.432 302.119 375.06 302.119C376.687 302.119 377.879 303.345 377.879 305.041C377.879 306.726 376.687 307.952 375.06 307.952C373.432 307.952 372.24 306.726 372.24 305.041ZM373.043 305.03C373.043 306.336 373.868 307.241 375.06 307.241C376.24 307.241 377.076 306.336 377.076 305.03C377.076 303.746 376.24 302.829 375.06 302.829C373.868 302.829 373.043 303.746 373.043 305.03ZM379.143 310.232V302.268H379.831L379.911 303.391C380.301 302.531 381.08 302.119 382.008 302.119C383.613 302.119 384.575 303.345 384.575 305.018C384.575 306.691 383.647 307.952 382.008 307.952C381.069 307.952 380.324 307.551 379.934 306.749V310.232H379.143ZM379.945 305.041C379.945 306.313 380.656 307.241 381.871 307.241C383.074 307.241 383.773 306.313 383.773 305.041C383.773 303.758 383.074 302.841 381.871 302.841C380.656 302.841 379.945 303.758 379.945 305.041ZM385.836 310.232V302.268H386.523L386.603 303.391C386.993 302.531 387.772 302.119 388.701 302.119C390.305 302.119 391.268 303.345 391.268 305.018C391.268 306.691 390.339 307.952 388.701 307.952C387.761 307.952 387.016 307.551 386.626 306.749V310.232H385.836ZM386.638 305.041C386.638 306.313 387.348 307.241 388.563 307.241C389.766 307.241 390.465 306.313 390.465 305.041C390.465 303.758 389.766 302.841 388.563 302.841C387.348 302.841 386.638 303.758 386.638 305.041ZM394.854 307.952C393.227 307.952 392.138 306.783 392.138 305.041C392.138 303.311 393.216 302.119 394.797 302.119C396.298 302.119 397.318 303.185 397.318 304.755V305.144H392.906C392.963 306.497 393.674 307.276 394.866 307.276C395.771 307.276 396.356 306.886 396.562 306.153H397.318C397.02 307.322 396.161 307.952 394.854 307.952ZM394.797 302.795C393.754 302.795 393.067 303.483 392.929 304.571H396.527C396.527 303.506 395.84 302.795 394.797 302.795ZM401.482 302.199V302.91H401.046C400.026 302.91 399.373 303.597 399.373 304.652V307.814H398.582V302.268H399.327L399.385 303.127C399.602 302.531 400.187 302.142 400.966 302.142C401.138 302.142 401.287 302.153 401.482 302.199ZM402.063 306.256H402.819C402.819 306.898 403.301 307.299 404.08 307.299C404.939 307.299 405.444 306.932 405.444 306.336C405.444 305.878 405.214 305.614 404.561 305.454L403.61 305.213C402.647 304.972 402.178 304.468 402.178 303.712C402.178 302.738 402.991 302.119 404.183 302.119C405.352 302.119 406.108 302.761 406.143 303.792H405.375C405.352 303.15 404.905 302.772 404.16 302.772C403.381 302.772 402.945 303.104 402.945 303.7C402.945 304.124 403.243 304.422 403.851 304.571L404.802 304.812C405.765 305.053 406.2 305.5 406.2 306.302C406.2 307.299 405.352 307.952 404.091 307.952C402.842 307.952 402.063 307.287 402.063 306.256Z" fill="white" fill-opacity="0.8"/>
</g>
<defs>
<filter id="filter0_f_1086_2085" x="-162.2" y="-229.43" width="824.4" height="824.4" filterUnits="userSpaceOnUse" color-interpolation-filters="sRGB">
<feFlood flood-opacity="0" result="BackgroundImageFix"/>
<feBlend mode="normal" in="SourceGraphic" in2="BackgroundImageFix" result="shape"/>
<feGaussianBlur stdDeviation="163.6" result="effect1_foregroundBlur_1086_2085"/>
</filter>
<linearGradient id="paint0_linear_1086_2085" x1="78.1299" y1="157.293" x2="126.783" y2="-31.5372" gradientUnits="userSpaceOnUse">
<stop stop-color="#0276DB"/>
<stop offset="1" stop-color="#3EDC81"/>
</linearGradient>
<radialGradient id="paint1_radial_1086_2085" cx="0" cy="0" r="1" gradientUnits="userSpaceOnUse" gradientTransform="translate(198.728 33.8749) rotate(90.0793) scale(145.383 316.824)">
<stop stop-color="#161616" stop-opacity="0.6"/>
<stop offset="0.740127" stop-color="#161616" stop-opacity="0.946662"/>
<stop offset="1" stop-color="#161616"/>
</radialGradient>
<linearGradient id="paint2_linear_1086_2085" x1="38.1298" y1="22.6739" x2="38.7457" y2="-0.972992" gradientUnits="userSpaceOnUse">
<stop stop-color="#0276DB"/>
<stop offset="1" stop-color="#3EDC81"/>
</linearGradient>
<linearGradient id="paint3_linear_1086_2085" x1="125.197" y1="178.468" x2="125.838" y2="167.559" gradientUnits="userSpaceOnUse">
<stop stop-color="#0276DB"/>
<stop offset="1" stop-color="#3EDC81"/>
</linearGradient>
<linearGradient id="paint4_linear_1086_2085" x1="78.1298" y1="157.293" x2="96.0598" y2="30.9257" gradientUnits="userSpaceOnUse">
<stop stop-color="#0276DB"/>
<stop offset="1" stop-color="#3EDC81"/>
</linearGradient>
<linearGradient id="paint5_linear_1086_2085" x1="181.268" y1="311.731" x2="222.039" y2="137.944" gradientUnits="userSpaceOnUse">
<stop stop-color="white" stop-opacity="0"/>
<stop offset="1" stop-color="white"/>
</linearGradient>
<radialGradient id="paint6_radial_1086_2085" cx="0" cy="0" r="1" gradientUnits="userSpaceOnUse" gradientTransform="translate(301.866 199.354) rotate(90.0871) scale(132.377 316.824)">
<stop stop-color="#161616" stop-opacity="0.6"/>
<stop offset="0.740127" stop-color="#161616" stop-opacity="0.946662"/>
<stop offset="1" stop-color="#161616"/>
</radialGradient>
<clipPath id="clip0_1086_2085">
<rect width="500" height="364" fill="white" transform="translate(0 0.769775)"/>
</clipPath>
<clipPath id="clip1_1086_2085">
<path d="M40 56.0563C40 48.2553 40 44.3548 41.5182 41.3752C42.8536 38.7543 44.9845 36.6234 47.6054 35.288C50.585 33.7698 54.4855 33.7698 62.2865 33.7698H334.767C342.568 33.7698 346.469 33.7698 349.448 35.288C352.069 36.6234 354.2 38.7543 355.535 41.3752C357.054 44.3548 357.054 48.2553 357.054 56.0563V156.972C357.054 164.773 357.054 168.673 355.535 171.653C354.2 174.274 352.069 176.404 349.448 177.74C346.469 179.258 342.568 179.258 334.767 179.258H62.2866C54.4855 179.258 50.585 179.258 47.6054 177.74C44.9845 176.404 42.8536 174.274 41.5182 171.653C40 168.673 40 164.773 40 156.972V56.0563Z" fill="white"/>
</clipPath>
</defs>
</svg>
