<svg width="452" height="347" viewBox="0 0 452 347" fill="none" xmlns="http://www.w3.org/2000/svg">
<path d="M26.2012 1.26978H425.802C430.29 1.26978 433.627 1.27064 436.27 1.48657C438.907 1.70203 440.809 2.12918 442.438 2.95923C445.355 4.44522 447.726 6.81632 449.212 9.73267C450.042 11.3617 450.47 13.2645 450.686 15.9016C450.901 18.5445 450.901 21.8809 450.901 26.3694V321.17C450.901 325.659 450.901 328.995 450.686 331.638C450.47 334.275 450.042 336.178 449.212 337.807C447.726 340.723 445.355 343.094 442.438 344.58C440.809 345.41 438.907 345.838 436.27 346.053C433.627 346.269 430.29 346.27 425.802 346.27H26.2012C21.7127 346.27 18.3763 346.269 15.7334 346.053C13.0964 345.838 11.1935 345.41 9.56445 344.58C6.64812 343.094 4.27702 340.723 2.79102 337.807C1.96098 336.178 1.53382 334.275 1.31836 331.638C1.10243 328.995 1.10156 325.659 1.10156 321.17V26.3694C1.10156 21.8809 1.10243 18.5445 1.31836 15.9016C1.53382 13.2646 1.96098 11.3617 2.79102 9.73267C4.27702 6.81633 6.64812 4.44523 9.56445 2.95923C11.1935 2.1292 13.0964 1.70204 15.7334 1.48657C17.7156 1.32462 20.088 1.28391 23.0439 1.27368L26.2012 1.26978Z" fill="url(#paint0_linear_1648_9719)"/>
<path d="M26.2012 1.26978H425.802C430.29 1.26978 433.627 1.27064 436.27 1.48657C438.907 1.70203 440.809 2.12918 442.438 2.95923C445.355 4.44522 447.726 6.81632 449.212 9.73267C450.042 11.3617 450.47 13.2645 450.686 15.9016C450.901 18.5445 450.901 21.8809 450.901 26.3694V321.17C450.901 325.659 450.901 328.995 450.686 331.638C450.47 334.275 450.042 336.178 449.212 337.807C447.726 340.723 445.355 343.094 442.438 344.58C440.809 345.41 438.907 345.838 436.27 346.053C433.627 346.269 430.29 346.27 425.802 346.27H26.2012C21.7127 346.27 18.3763 346.269 15.7334 346.053C13.0964 345.838 11.1935 345.41 9.56445 344.58C6.64812 343.094 4.27702 340.723 2.79102 337.807C1.96098 336.178 1.53382 334.275 1.31836 331.638C1.10243 328.995 1.10156 325.659 1.10156 321.17V26.3694C1.10156 21.8809 1.10243 18.5445 1.31836 15.9016C1.53382 13.2646 1.96098 11.3617 2.79102 9.73267C4.27702 6.81633 6.64812 4.44523 9.56445 2.95923C11.1935 2.1292 13.0964 1.70204 15.7334 1.48657C17.7156 1.32462 20.088 1.28391 23.0439 1.27368L26.2012 1.26978Z" fill="url(#paint1_radial_1648_9719)"/>
<path d="M26.2012 1.26978H425.802C430.29 1.26978 433.627 1.27064 436.27 1.48657C438.907 1.70203 440.809 2.12918 442.438 2.95923C445.355 4.44522 447.726 6.81632 449.212 9.73267C450.042 11.3617 450.47 13.2645 450.686 15.9016C450.901 18.5445 450.901 21.8809 450.901 26.3694V321.17C450.901 325.659 450.901 328.995 450.686 331.638C450.47 334.275 450.042 336.178 449.212 337.807C447.726 340.723 445.355 343.094 442.438 344.58C440.809 345.41 438.907 345.838 436.27 346.053C433.627 346.269 430.29 346.27 425.802 346.27H26.2012C21.7127 346.27 18.3763 346.269 15.7334 346.053C13.0964 345.838 11.1935 345.41 9.56445 344.58C6.64812 343.094 4.27702 340.723 2.79102 337.807C1.96098 336.178 1.53382 334.275 1.31836 331.638C1.10243 328.995 1.10156 325.659 1.10156 321.17V26.3694C1.10156 21.8809 1.10243 18.5445 1.31836 15.9016C1.53382 13.2646 1.96098 11.3617 2.79102 9.73267C4.27702 6.81633 6.64812 4.44523 9.56445 2.95923C11.1935 2.1292 13.0964 1.70204 15.7334 1.48657C17.7156 1.32462 20.088 1.28391 23.0439 1.27368L26.2012 1.26978Z" stroke="url(#paint2_linear_1648_9719)"/>
<g clip-path="url(#clip0_1648_9719)">
<path d="M37.0312 59.8153C37.0312 52.7987 37.0312 49.2904 38.3968 46.6104C39.5979 44.2531 41.5145 42.3364 43.8719 41.1353C46.5519 39.7698 50.0602 39.7698 57.0768 39.7698H302.158C309.175 39.7698 312.683 39.7698 315.363 41.1353C317.721 42.3364 319.637 44.2531 320.838 46.6104C322.204 49.2904 322.204 52.7987 322.204 59.8153V150.583C322.204 157.6 322.204 161.108 320.838 163.788C319.637 166.145 317.721 168.062 315.363 169.263C312.683 170.629 309.175 170.629 302.158 170.629H57.0768C50.0602 170.629 46.5519 170.629 43.8719 169.263C41.5145 168.062 39.5979 166.145 38.3968 163.788C37.0312 161.108 37.0312 157.6 37.0312 150.583V59.8153Z" fill="url(#paint3_linear_1648_9719)"/>
<path d="M37.0312 59.8153C37.0312 52.7987 37.0312 49.2904 38.3968 46.6104C39.5979 44.2531 41.5145 42.3364 43.8719 41.1353C46.5519 39.7698 50.0602 39.7698 57.0768 39.7698H302.158C309.175 39.7698 312.683 39.7698 315.363 41.1353C317.721 42.3364 319.637 44.2531 320.838 46.6104C322.204 49.2904 322.204 52.7987 322.204 59.8153V150.583C322.204 157.6 322.204 161.108 320.838 163.788C319.637 166.145 317.721 168.062 315.363 169.263C312.683 170.629 309.175 170.629 302.158 170.629H57.0768C50.0602 170.629 46.5519 170.629 43.8719 169.263C41.5145 168.062 39.5979 166.145 38.3968 163.788C37.0312 161.108 37.0312 157.6 37.0312 150.583V59.8153Z" fill="url(#paint4_radial_1648_9719)"/>
<rect width="285.173" height="23.8303" transform="translate(37.0312 39.7698)" fill="url(#paint5_linear_1648_9719)"/>
<path d="M143.74 50.5254H147.798L142.58 58.0627V52.8446H138.521L143.74 45.3073V50.5254Z" fill="white"/>
<path d="M156.976 56.6849H155.822V47.9906H156.976L159.971 55.302L162.965 47.9906H164.143V56.6849H162.989V53.2457C162.989 51.6223 163.001 51.033 163.061 50.4197L160.524 56.6849H159.417L156.892 50.4438C156.952 50.8647 156.976 51.7545 156.976 52.9691V56.6849ZM165.35 53.7387C165.35 51.9229 166.649 50.6482 168.417 50.6482C170.172 50.6482 171.471 51.9229 171.471 53.7387C171.471 55.5546 170.172 56.8292 168.417 56.8292C166.649 56.8292 165.35 55.5546 165.35 53.7387ZM166.493 53.7387C166.493 54.9653 167.274 55.8191 168.417 55.8191C169.547 55.8191 170.341 54.9653 170.341 53.7387C170.341 52.5121 169.547 51.6583 168.417 51.6583C167.274 51.6583 166.493 52.5121 166.493 53.7387ZM172.001 54.9773H173.083C173.083 55.5786 173.54 55.9394 174.286 55.9394C175.079 55.9394 175.536 55.6147 175.536 55.0735C175.536 54.6767 175.344 54.4362 174.731 54.2799L173.696 54.0394C172.65 53.7868 172.157 53.2697 172.157 52.4039C172.157 51.3216 173.071 50.6362 174.37 50.6362C175.657 50.6362 176.498 51.3577 176.522 52.4761H175.44C175.416 51.8868 175.019 51.514 174.334 51.514C173.624 51.514 173.227 51.8267 173.227 52.3678C173.227 52.7647 173.516 53.0292 174.093 53.1735L175.127 53.4261C176.126 53.6666 176.619 54.1235 176.619 55.0014C176.619 56.1197 175.657 56.8292 174.262 56.8292C172.879 56.8292 172.001 56.0957 172.001 54.9773ZM179.291 56.6849H178.161V51.7545H177.006V50.8045H178.161V48.9647H179.291V50.8045H180.446V51.7545H179.291V56.6849ZM187.839 53.5824H185.638V56.6849H184.46V47.9906H187.839C189.546 47.9906 190.641 49.109 190.641 50.7805C190.641 52.4039 189.534 53.5824 187.839 53.5824ZM187.634 49.0488H185.638V52.5242H187.586C188.753 52.5242 189.402 51.8387 189.402 50.7685C189.402 49.6742 188.741 49.0488 187.634 49.0488ZM190.888 53.7387C190.888 51.9229 192.186 50.6482 193.954 50.6482C195.71 50.6482 197.009 51.9229 197.009 53.7387C197.009 55.5546 195.71 56.8292 193.954 56.8292C192.186 56.8292 190.888 55.5546 190.888 53.7387ZM192.03 53.7387C192.03 54.9653 192.812 55.8191 193.954 55.8191C195.084 55.8191 195.878 54.9653 195.878 53.7387C195.878 52.5121 195.084 51.6583 193.954 51.6583C192.812 51.6583 192.03 52.5121 192.03 53.7387ZM198.019 59.3185V50.8045H199.041L199.126 51.8628C199.522 51.0571 200.316 50.6362 201.254 50.6362C202.938 50.6362 203.984 51.8988 203.984 53.7026C203.984 55.4944 202.998 56.8413 201.254 56.8413C200.316 56.8413 199.534 56.4444 199.15 55.7229V59.3185H198.019ZM199.162 53.7508C199.162 54.9533 199.859 55.8191 201.014 55.8191C202.168 55.8191 202.853 54.9533 202.853 53.7508C202.853 52.5362 202.168 51.6704 201.014 51.6704C199.859 51.6704 199.162 52.5242 199.162 53.7508ZM208.913 50.8045H210.031V56.6849H209.021L208.901 55.7951C208.564 56.4084 207.783 56.8292 206.917 56.8292C205.546 56.8292 204.776 55.9033 204.776 54.4602V50.8045H205.907V54.0875C205.907 55.3501 206.448 55.8311 207.314 55.8311C208.348 55.8311 208.913 55.1697 208.913 53.9071V50.8045ZM212.585 56.6849H211.455V47.8343H212.585V56.6849ZM215.728 56.8292C214.466 56.8292 213.72 56.1197 213.72 55.0495C213.72 53.9672 214.526 53.2938 215.909 53.1856L217.761 53.0413V52.8729C217.761 51.8868 217.171 51.5381 216.378 51.5381C215.428 51.5381 214.887 51.959 214.887 52.6685H213.901C213.901 51.4419 214.911 50.6362 216.426 50.6362C217.881 50.6362 218.867 51.4058 218.867 52.9932V56.6849H217.905L217.785 55.7349C217.484 56.4084 216.678 56.8292 215.728 56.8292ZM216.053 55.9514C217.123 55.9514 217.773 55.2539 217.773 54.1476V53.8349L216.27 53.9552C215.271 54.0514 214.863 54.4362 214.863 55.0134C214.863 55.6387 215.32 55.9514 216.053 55.9514ZM223.559 50.7564V51.7906H223.054C221.984 51.7906 221.322 52.44 221.322 53.5704V56.6849H220.192V50.8166H221.25L221.322 51.7064C221.563 51.0931 222.152 50.6843 222.958 50.6843C223.162 50.6843 223.331 50.7083 223.559 50.7564Z" fill="white"/>
<path d="M274.104 170.331L274.104 170.027C274.104 168.297 272.701 166.895 270.971 166.895L88.2659 166.895C86.536 166.895 85.1337 168.297 85.1337 170.027L85.1337 170.331L274.104 170.331Z" fill="url(#paint6_linear_1648_9719)"/>
<path d="M170.834 88.7098H166.748V94.4717H164.559V78.3251H170.834C174.006 78.3251 176.038 80.402 176.038 83.5063C176.038 86.5212 173.983 88.7098 170.834 88.7098ZM170.455 80.2904H166.748V86.7445H170.365C172.532 86.7445 173.738 85.4716 173.738 83.4839C173.738 81.4517 172.509 80.2904 170.455 80.2904ZM183.966 83.4616V85.3822H183.028C181.041 85.3822 179.812 86.5882 179.812 88.6875V94.4717H177.713V83.5733H179.678L179.812 85.2259C180.259 84.0869 181.353 83.3276 182.849 83.3276C183.229 83.3276 183.542 83.3723 183.966 83.4616ZM184.381 89.0001C184.381 85.6279 186.793 83.2606 190.076 83.2606C193.337 83.2606 195.749 85.6279 195.749 89.0001C195.749 92.3724 193.337 94.7397 190.076 94.7397C186.793 94.7397 184.381 92.3724 184.381 89.0001ZM186.503 89.0001C186.503 91.2781 187.954 92.8637 190.076 92.8637C192.175 92.8637 193.649 91.2781 193.649 89.0001C193.649 86.7222 192.175 85.1366 190.076 85.1366C187.954 85.1366 186.503 86.7222 186.503 89.0001Z" fill="white"/>
<path d="M122.926 130.029V128.175C119.821 127.952 117.834 126.143 117.767 123.419H120.625C120.648 124.692 121.474 125.496 122.926 125.674V120.917L122.211 120.761C119.397 120.158 117.99 118.595 117.99 116.138C117.99 113.525 119.955 111.649 122.926 111.337V109.438H124.645V111.337C127.459 111.627 129.201 113.391 129.291 116.071H126.521C126.477 114.865 125.807 114.083 124.645 113.838V118.639L125.405 118.818C128.263 119.443 129.559 120.828 129.559 123.195C129.559 125.92 127.638 127.796 124.645 128.131V130.029H122.926ZM122.836 118.237L122.926 118.26V113.815C121.586 114.039 120.782 114.843 120.782 116.049C120.782 117.232 121.407 117.925 122.836 118.237ZM124.802 121.319L124.645 121.275V125.63C125.985 125.362 126.789 124.58 126.789 123.441C126.789 122.302 126.142 121.61 124.802 121.319ZM142.239 127.885L130.916 127.907V125.764L136.254 121.252C138.465 119.376 139.202 118.304 139.202 116.741C139.202 114.887 138.197 113.838 136.477 113.838C134.691 113.838 133.574 115.088 133.552 117.188H130.715C130.738 113.614 133.016 111.292 136.477 111.292C139.961 111.292 142.127 113.279 142.127 116.585C142.127 118.863 140.877 120.582 138.398 122.704L135.45 125.228H142.239V127.885ZM155.954 124.803H153.967V127.907H151.264V124.803H142.979V122.302L150.371 111.582H153.967V122.302H155.954V124.803ZM146.016 122.302H151.264V114.664L146.016 122.302ZM166.297 123.106L162.769 127.907H159.508L163.416 122.704C163.014 122.816 162.59 122.883 162.188 122.883C158.816 122.883 156.538 120.515 156.538 117.21C156.538 113.726 159.129 111.292 162.612 111.292C166.141 111.292 168.776 113.882 168.776 117.232C168.776 119.198 168.129 120.627 166.297 123.106ZM165.851 117.21C165.851 115.222 164.533 113.838 162.612 113.838C160.736 113.838 159.419 115.222 159.419 117.21C159.419 119.175 160.736 120.538 162.612 120.538C164.555 120.538 165.851 119.175 165.851 117.21ZM171.838 127.907H169.136L175.501 111.605H178.226L171.838 127.907ZM180.803 127.907H178.079V116.875H180.58L180.803 118.17C181.362 117.255 182.478 116.54 184.064 116.54C185.739 116.54 186.9 117.366 187.481 118.639C188.039 117.366 189.334 116.54 191.009 116.54C193.689 116.54 195.163 118.148 195.163 120.694V127.907H192.461V121.409C192.461 119.823 191.612 118.997 190.317 118.997C189 118.997 187.995 119.845 187.995 121.654V127.907H185.27V121.386C185.27 119.845 184.444 119.019 183.148 119.019C181.853 119.019 180.803 119.868 180.803 121.654V127.907ZM196.744 122.369C196.744 118.93 199.223 116.562 202.64 116.562C206.057 116.562 208.535 118.93 208.535 122.369C208.535 125.808 206.057 128.175 202.64 128.175C199.223 128.175 196.744 125.808 196.744 122.369ZM199.468 122.369C199.468 124.379 200.764 125.741 202.64 125.741C204.516 125.741 205.811 124.379 205.811 122.369C205.811 120.359 204.516 118.997 202.64 118.997C200.764 118.997 199.468 120.359 199.468 122.369ZM212.973 127.907H210.248V116.875H212.772L212.995 118.304C213.688 117.188 215.028 116.54 216.524 116.54C219.293 116.54 220.723 118.26 220.723 121.118V127.907H217.998V121.766C217.998 119.912 217.082 119.019 215.675 119.019C214 119.019 212.973 120.18 212.973 121.967V127.907ZM226.705 127.907H223.98V119.153H221.859V116.875H223.98V113.436H226.705V116.875H228.849V119.153H226.705V127.907ZM232.82 127.907H230.096V111.292H232.843V118.304C233.535 117.232 234.83 116.54 236.416 116.54C239.141 116.54 240.57 118.26 240.57 121.118V127.907H237.845V121.766C237.845 119.912 236.93 119.019 235.545 119.019C233.825 119.019 232.82 120.225 232.82 121.878V127.907Z" fill="white"/>
<path d="M111.78 142.88C111.78 141.643 112.77 140.829 114.254 140.829C115.584 140.829 116.46 141.571 116.573 142.808H115.821C115.738 141.973 115.171 141.499 114.244 141.499C113.203 141.499 112.522 142.035 112.522 142.87C112.522 143.519 112.904 143.932 113.677 144.128L114.944 144.437C116.099 144.715 116.697 145.375 116.697 146.375C116.697 147.653 115.707 148.467 114.182 148.467C112.749 148.467 111.78 147.715 111.687 146.509H112.45C112.491 147.282 113.172 147.787 114.182 147.787C115.264 147.787 115.955 147.261 115.955 146.416C115.955 145.756 115.584 145.323 114.79 145.138L113.543 144.828C112.388 144.55 111.78 143.89 111.78 142.88ZM119.969 148.467C118.505 148.467 117.526 147.416 117.526 145.849C117.526 144.292 118.495 143.22 119.918 143.22C121.268 143.22 122.185 144.179 122.185 145.591V145.942H118.217C118.268 147.158 118.907 147.859 119.979 147.859C120.794 147.859 121.319 147.508 121.505 146.849H122.185C121.917 147.9 121.144 148.467 119.969 148.467ZM119.918 143.829C118.98 143.829 118.361 144.447 118.237 145.426H121.474C121.474 144.468 120.856 143.829 119.918 143.829ZM125.93 143.293V143.932H125.538C124.621 143.932 124.034 144.55 124.034 145.498V148.343H123.322V143.354H123.992L124.044 144.128C124.24 143.592 124.765 143.241 125.466 143.241C125.621 143.241 125.755 143.251 125.93 143.293ZM127.226 141.984C126.937 141.984 126.7 141.746 126.7 141.458C126.7 141.169 126.937 140.922 127.226 140.922C127.515 140.922 127.762 141.169 127.762 141.458C127.762 141.746 127.515 141.984 127.226 141.984ZM126.876 148.343V143.354H127.587V148.343H126.876ZM128.719 145.849C128.719 144.323 129.791 143.22 131.255 143.22C132.719 143.22 133.791 144.323 133.791 145.849C133.791 147.364 132.719 148.467 131.255 148.467C129.791 148.467 128.719 147.364 128.719 145.849ZM129.441 145.839C129.441 147.014 130.183 147.828 131.255 147.828C132.317 147.828 133.069 147.014 133.069 145.839C133.069 144.684 132.317 143.86 131.255 143.86C130.183 143.86 129.441 144.684 129.441 145.839ZM138.312 143.354H139.023V148.343H138.405L138.312 147.498C138.034 148.075 137.343 148.467 136.56 148.467C135.385 148.467 134.746 147.663 134.746 146.447V143.344H135.467V146.22C135.467 147.405 135.993 147.828 136.787 147.828C137.745 147.828 138.312 147.189 138.312 146.003V143.354ZM139.981 146.941H140.662C140.662 147.519 141.095 147.879 141.796 147.879C142.569 147.879 143.022 147.55 143.022 147.014C143.022 146.601 142.816 146.364 142.229 146.22L141.373 146.003C140.507 145.787 140.085 145.333 140.085 144.653C140.085 143.777 140.816 143.22 141.888 143.22C142.94 143.22 143.62 143.798 143.651 144.725H142.96C142.94 144.148 142.538 143.808 141.868 143.808C141.167 143.808 140.775 144.107 140.775 144.643C140.775 145.024 141.043 145.292 141.589 145.426L142.445 145.643C143.311 145.859 143.702 146.261 143.702 146.983C143.702 147.879 142.94 148.467 141.806 148.467C140.682 148.467 139.981 147.869 139.981 146.941ZM148.629 140.963V148.343H147.887V140.963H148.629ZM150.98 148.343H150.269V143.354H150.887L150.99 144.22C151.32 143.581 151.98 143.22 152.701 143.22C154.072 143.22 154.639 144.035 154.639 145.292V148.343H153.928V145.447C153.928 144.282 153.402 143.87 152.578 143.87C151.557 143.87 150.98 144.612 150.98 145.735V148.343ZM155.574 146.941H156.254C156.254 147.519 156.687 147.879 157.388 147.879C158.161 147.879 158.614 147.55 158.614 147.014C158.614 146.601 158.408 146.364 157.821 146.22L156.965 146.003C156.099 145.787 155.677 145.333 155.677 144.653C155.677 143.777 156.408 143.22 157.48 143.22C158.532 143.22 159.212 143.798 159.243 144.725H158.552C158.532 144.148 158.13 143.808 157.46 143.808C156.759 143.808 156.367 144.107 156.367 144.643C156.367 145.024 156.635 145.292 157.181 145.426L158.037 145.643C158.903 145.859 159.294 146.261 159.294 146.983C159.294 147.879 158.532 148.467 157.398 148.467C156.274 148.467 155.574 147.869 155.574 146.941ZM160.816 141.984C160.527 141.984 160.29 141.746 160.29 141.458C160.29 141.169 160.527 140.922 160.816 140.922C161.104 140.922 161.352 141.169 161.352 141.458C161.352 141.746 161.104 141.984 160.816 141.984ZM160.465 148.343V143.354H161.177V148.343H160.465ZM162.32 145.705C162.32 144.344 163.196 143.22 164.659 143.22C165.525 143.22 166.185 143.622 166.504 144.354L166.577 143.354H167.195V148.189C167.195 149.673 166.247 150.642 164.783 150.642C163.505 150.642 162.608 149.92 162.412 148.714H163.124C163.278 149.518 163.897 149.992 164.793 149.992C165.814 149.992 166.494 149.302 166.494 148.261V147.075C166.154 147.776 165.463 148.189 164.608 148.189C163.185 148.189 162.32 147.065 162.32 145.705ZM163.031 145.694C163.031 146.715 163.66 147.55 164.711 147.55C165.793 147.55 166.432 146.766 166.432 145.694C166.432 144.633 165.814 143.849 164.721 143.849C163.649 143.849 163.031 144.684 163.031 145.694ZM169.39 148.333H168.679V140.829H169.39V144.22C169.71 143.622 170.318 143.22 171.153 143.22C172.462 143.22 173.049 144.035 173.049 145.292V148.343H172.338V145.447C172.338 144.282 171.792 143.87 171.019 143.87C169.947 143.87 169.39 144.664 169.39 145.622V148.333ZM175.611 148.343H174.91V143.952H173.91V143.354H174.91V141.777H175.611V143.354H176.611V143.952H175.611V148.343ZM177.114 146.941H177.795C177.795 147.519 178.228 147.879 178.929 147.879C179.702 147.879 180.155 147.55 180.155 147.014C180.155 146.601 179.949 146.364 179.361 146.22L178.506 146.003C177.64 145.787 177.218 145.333 177.218 144.653C177.218 143.777 177.949 143.22 179.021 143.22C180.073 143.22 180.753 143.798 180.784 144.725H180.093C180.073 144.148 179.671 143.808 179.001 143.808C178.3 143.808 177.908 144.107 177.908 144.643C177.908 145.024 178.176 145.292 178.722 145.426L179.578 145.643C180.444 145.859 180.835 146.261 180.835 146.983C180.835 147.879 180.073 148.467 178.939 148.467C177.815 148.467 177.114 147.869 177.114 146.941ZM182.534 148.457C182.183 148.457 181.885 148.168 181.885 147.828C181.885 147.477 182.183 147.179 182.534 147.179C182.884 147.179 183.183 147.477 183.183 147.828C183.183 148.168 182.884 148.457 182.534 148.457ZM187.194 142.88C187.194 141.643 188.183 140.829 189.667 140.829C190.997 140.829 191.873 141.571 191.986 142.808H191.234C191.152 141.973 190.585 141.499 189.657 141.499C188.616 141.499 187.936 142.035 187.936 142.87C187.936 143.519 188.317 143.932 189.09 144.128L190.358 144.437C191.512 144.715 192.11 145.375 192.11 146.375C192.11 147.653 191.121 148.467 189.595 148.467C188.162 148.467 187.194 147.715 187.101 146.509H187.864C187.905 147.282 188.585 147.787 189.595 147.787C190.677 147.787 191.368 147.261 191.368 146.416C191.368 145.756 190.997 145.323 190.203 145.138L188.956 144.828C187.802 144.55 187.194 143.89 187.194 142.88ZM195.383 148.467C193.919 148.467 192.94 147.416 192.94 145.849C192.94 144.292 193.909 143.22 195.331 143.22C196.681 143.22 197.599 144.179 197.599 145.591V145.942H193.63C193.682 147.158 194.321 147.859 195.393 147.859C196.207 147.859 196.733 147.508 196.918 146.849H197.599C197.331 147.9 196.558 148.467 195.383 148.467ZM195.331 143.829C194.393 143.829 193.775 144.447 193.651 145.426H196.887C196.887 144.468 196.269 143.829 195.331 143.829ZM201.344 143.293V143.932H200.952C200.034 143.932 199.447 144.55 199.447 145.498V148.343H198.736V143.354H199.406L199.457 144.128C199.653 143.592 200.179 143.241 200.88 143.241C201.034 143.241 201.168 143.251 201.344 143.293ZM202.639 141.984C202.351 141.984 202.114 141.746 202.114 141.458C202.114 141.169 202.351 140.922 202.639 140.922C202.928 140.922 203.175 141.169 203.175 141.458C203.175 141.746 202.928 141.984 202.639 141.984ZM202.289 148.343V143.354H203V148.343H202.289ZM204.133 145.849C204.133 144.323 205.205 143.22 206.669 143.22C208.132 143.22 209.204 144.323 209.204 145.849C209.204 147.364 208.132 148.467 206.669 148.467C205.205 148.467 204.133 147.364 204.133 145.849ZM204.854 145.839C204.854 147.014 205.597 147.828 206.669 147.828C207.73 147.828 208.483 147.014 208.483 145.839C208.483 144.684 207.73 143.86 206.669 143.86C205.597 143.86 204.854 144.684 204.854 145.839ZM213.725 143.354H214.437V148.343H213.818L213.725 147.498C213.447 148.075 212.757 148.467 211.973 148.467C210.798 148.467 210.159 147.663 210.159 146.447V143.344H210.881V146.22C210.881 147.405 211.406 147.828 212.2 147.828C213.159 147.828 213.725 147.189 213.725 146.003V143.354ZM215.395 146.941H216.075C216.075 147.519 216.508 147.879 217.209 147.879C217.982 147.879 218.436 147.55 218.436 147.014C218.436 146.601 218.229 146.364 217.642 146.22L216.786 146.003C215.921 145.787 215.498 145.333 215.498 144.653C215.498 143.777 216.23 143.22 217.302 143.22C218.353 143.22 219.033 143.798 219.064 144.725H218.374C218.353 144.148 217.951 143.808 217.281 143.808C216.58 143.808 216.189 144.107 216.189 144.643C216.189 145.024 216.457 145.292 217.003 145.426L217.858 145.643C218.724 145.859 219.116 146.261 219.116 146.983C219.116 147.879 218.353 148.467 217.219 148.467C216.096 148.467 215.395 147.869 215.395 146.941ZM226.392 141.54C224.692 141.54 223.62 142.798 223.62 144.684C223.62 146.601 224.753 147.766 226.413 147.766C227.65 147.766 228.856 147.168 228.856 145.395V145.014H226.186V144.354H229.557V148.354H228.969L228.897 147.179C228.505 147.91 227.578 148.467 226.382 148.467C224.29 148.467 222.847 146.962 222.847 144.684C222.847 142.427 224.29 140.839 226.403 140.839C227.959 140.839 229.165 141.726 229.454 143.066H228.65C228.34 142.056 227.475 141.54 226.392 141.54ZM232.309 148.467C231.247 148.467 230.618 147.869 230.618 146.993C230.618 146.076 231.319 145.498 232.484 145.406L234.133 145.272V145.107C234.133 144.128 233.546 143.818 232.814 143.818C231.948 143.818 231.433 144.21 231.433 144.88H230.783C230.783 143.87 231.608 143.22 232.834 143.22C233.989 143.22 234.834 143.798 234.834 145.117V148.343H234.236L234.144 147.467C233.834 148.096 233.154 148.467 232.309 148.467ZM232.474 147.89C233.525 147.89 234.133 147.158 234.133 146.076V145.808L232.659 145.921C231.721 146.003 231.34 146.416 231.34 146.972C231.34 147.581 231.793 147.89 232.474 147.89ZM236.612 141.984C236.323 141.984 236.086 141.746 236.086 141.458C236.086 141.169 236.323 140.922 236.612 140.922C236.9 140.922 237.148 141.169 237.148 141.458C237.148 141.746 236.9 141.984 236.612 141.984ZM236.261 148.343V143.354H236.973V148.343H236.261ZM239.167 148.343H238.456V143.354H239.074L239.177 144.22C239.507 143.581 240.167 143.22 240.888 143.22C242.259 143.22 242.826 144.035 242.826 145.292V148.343H242.115V145.447C242.115 144.282 241.589 143.87 240.765 143.87C239.744 143.87 239.167 144.612 239.167 145.735V148.343ZM243.761 146.941H244.441C244.441 147.519 244.874 147.879 245.575 147.879C246.348 147.879 246.801 147.55 246.801 147.014C246.801 146.601 246.595 146.364 246.008 146.22L245.152 146.003C244.286 145.787 243.864 145.333 243.864 144.653C243.864 143.777 244.595 143.22 245.667 143.22C246.719 143.22 247.399 143.798 247.43 144.725H246.739C246.719 144.148 246.317 143.808 245.647 143.808C244.946 143.808 244.554 144.107 244.554 144.643C244.554 145.024 244.822 145.292 245.368 145.426L246.224 145.643C247.09 145.859 247.482 146.261 247.482 146.983C247.482 147.879 246.719 148.467 245.585 148.467C244.461 148.467 243.761 147.869 243.761 146.941Z" fill="white" fill-opacity="0.8"/>
</g>
<path d="M57.0771 40.1614H302.158C305.673 40.1614 308.286 40.1612 310.355 40.3303C312.42 40.499 313.91 40.8347 315.186 41.4846C317.469 42.6482 319.326 44.5047 320.489 46.7883C321.139 48.0639 321.474 49.5536 321.643 51.6184C321.812 53.6879 321.812 56.3009 321.812 59.8157V150.583C321.812 154.098 321.812 156.71 321.643 158.78C321.474 160.844 321.139 162.335 320.489 163.611C319.326 165.894 317.469 167.751 315.186 168.914C313.91 169.564 312.42 169.899 310.355 170.068C308.286 170.237 305.673 170.238 302.158 170.238H57.0771C53.5624 170.238 50.9494 170.237 48.8799 170.068C46.8151 169.899 45.3254 169.564 44.0498 168.914C41.7663 167.751 39.9097 165.894 38.7461 163.611C38.0961 162.335 37.7605 160.844 37.5918 158.78C37.4227 156.71 37.4229 154.098 37.4229 150.583V59.8157C37.4229 56.3009 37.4227 53.6879 37.5918 51.6184C37.7605 49.5535 38.0962 48.0639 38.7461 46.7883C39.9097 44.5047 41.7662 42.6482 44.0498 41.4846C45.3254 40.8347 46.815 40.499 48.8799 40.3303C50.9494 40.1612 53.5624 40.1614 57.0771 40.1614Z" stroke="url(#paint7_linear_1648_9719)" stroke-width="0.783029"/>
<path d="M129.799 208.663C129.799 201.647 129.799 198.138 131.164 195.458C132.365 193.101 134.282 191.184 136.639 189.983C139.319 188.618 142.828 188.618 149.844 188.618H394.926C401.942 188.618 405.451 188.618 408.131 189.983C410.488 191.184 412.405 193.101 413.606 195.458C414.971 198.138 414.971 201.647 414.971 208.663V287.724C414.971 294.741 414.971 298.249 413.606 300.929C412.405 303.287 410.488 305.203 408.131 306.404C405.451 307.77 401.942 307.77 394.926 307.77H149.844C142.828 307.77 139.319 307.77 136.639 306.404C134.282 305.203 132.365 303.287 131.164 300.929C129.799 298.249 129.799 294.741 129.799 287.724V208.663Z" fill="url(#paint8_linear_1648_9719)" fill-opacity="0.4"/>
<path d="M129.799 208.663C129.799 201.647 129.799 198.138 131.164 195.458C132.365 193.101 134.282 191.184 136.639 189.983C139.319 188.618 142.828 188.618 149.844 188.618H394.926C401.942 188.618 405.451 188.618 408.131 189.983C410.488 191.184 412.405 193.101 413.606 195.458C414.971 198.138 414.971 201.647 414.971 208.663V287.724C414.971 294.741 414.971 298.249 413.606 300.929C412.405 303.287 410.488 305.203 408.131 306.404C405.451 307.77 401.942 307.77 394.926 307.77H149.844C142.828 307.77 139.319 307.77 136.639 306.404C134.282 305.203 132.365 303.287 131.164 300.929C129.799 298.249 129.799 294.741 129.799 287.724V208.663Z" fill="url(#paint9_radial_1648_9719)"/>
<path d="M149.845 189.009H394.926C398.441 189.009 401.054 189.009 403.123 189.178C405.188 189.347 406.678 189.683 407.953 190.333C410.237 191.496 412.093 193.353 413.257 195.636C413.907 196.912 414.241 198.401 414.41 200.466C414.579 202.536 414.58 205.149 414.58 208.664V287.724C414.58 291.239 414.579 293.852 414.41 295.921C414.241 297.986 413.907 299.476 413.257 300.751C412.093 303.035 410.237 304.892 407.953 306.055C406.678 306.705 405.188 307.041 403.123 307.209C401.054 307.379 398.441 307.378 394.926 307.378H149.845C146.33 307.378 143.717 307.379 141.647 307.209C139.583 307.041 138.093 306.705 136.817 306.055C134.534 304.892 132.677 303.035 131.514 300.751C130.864 299.476 130.528 297.986 130.359 295.921C130.19 293.852 130.19 291.239 130.19 287.724V208.664C130.19 205.149 130.19 202.536 130.359 200.466C130.528 198.401 130.864 196.912 131.514 195.636C132.677 193.353 134.534 191.496 136.817 190.333C138.093 189.683 139.583 189.347 141.647 189.178C143.717 189.009 146.33 189.009 149.845 189.009Z" stroke="white" stroke-opacity="0.3" stroke-width="0.783029"/>
<path d="M261.771 231.758L255.629 215.611H257.974L261.905 225.929C262.262 226.845 262.575 227.76 262.91 228.966C263.289 227.693 263.669 226.622 263.937 225.907L267.845 215.611H270.123L264.049 231.758H261.771ZM273.963 215.611V231.758H271.774V215.611H273.963ZM283.557 225.996H279.47V231.758H277.282V215.611H283.557C286.729 215.611 288.761 217.688 288.761 220.793C288.761 223.808 286.706 225.996 283.557 225.996ZM283.178 217.577H279.47V224.031H283.088C285.255 224.031 286.461 222.758 286.461 220.77C286.461 218.738 285.232 217.577 283.178 217.577Z" fill="white"/>
<path d="M215.918 267.315V265.462C212.814 265.239 210.826 263.43 210.759 260.705H213.618C213.64 261.978 214.467 262.782 215.918 262.961V258.204L215.204 258.047C212.39 257.444 210.983 255.881 210.983 253.424C210.983 250.812 212.948 248.936 215.918 248.623V246.725H217.638V248.623C220.452 248.913 222.194 250.678 222.283 253.357H219.514C219.469 252.151 218.799 251.37 217.638 251.124V255.926L218.397 256.104C221.256 256.73 222.551 258.114 222.551 260.482C222.551 263.206 220.63 265.082 217.638 265.417V267.315H215.918ZM215.829 255.524L215.918 255.546V251.102C214.578 251.325 213.774 252.129 213.774 253.335C213.774 254.519 214.4 255.211 215.829 255.524ZM217.794 258.606L217.638 258.561V262.916C218.978 262.648 219.782 261.866 219.782 260.727C219.782 259.588 219.134 258.896 217.794 258.606ZM228.666 257.109H226.678V255.256L230.877 251.392H224.087V248.869H234.45V251.147L230.475 254.809C232.976 255.3 234.919 257.132 234.919 260.013C234.919 263.363 232.306 265.484 229.001 265.484C225.807 265.484 223.328 263.519 223.328 259.99H226.142C226.142 261.866 227.303 262.938 229.045 262.938C230.832 262.938 232.016 261.777 232.016 259.968C232.016 258.315 230.944 257.109 228.666 257.109ZM245.713 260.392L242.184 265.194H238.924L242.832 259.99C242.43 260.102 242.006 260.169 241.604 260.169C238.232 260.169 235.954 257.802 235.954 254.496C235.954 251.013 238.544 248.578 242.028 248.578C245.557 248.578 248.192 251.169 248.192 254.519C248.192 256.484 247.544 257.913 245.713 260.392ZM245.266 254.496C245.266 252.509 243.949 251.124 242.028 251.124C240.152 251.124 238.835 252.509 238.835 254.496C238.835 256.462 240.152 257.824 242.028 257.824C243.971 257.824 245.266 256.462 245.266 254.496ZM259.115 260.392L255.587 265.194H252.326L256.234 259.99C255.832 260.102 255.408 260.169 255.006 260.169C251.634 260.169 249.356 257.802 249.356 254.496C249.356 251.013 251.947 248.578 255.43 248.578C258.959 248.578 261.594 251.169 261.594 254.519C261.594 256.484 260.947 257.913 259.115 260.392ZM258.669 254.496C258.669 252.509 257.351 251.124 255.43 251.124C253.555 251.124 252.237 252.509 252.237 254.496C252.237 256.462 253.555 257.824 255.43 257.824C257.373 257.824 258.669 256.462 258.669 254.496ZM264.657 265.194H261.954L268.319 248.891H271.044L264.657 265.194ZM273.621 265.194H270.897V254.161H273.398L273.621 255.457C274.18 254.541 275.296 253.826 276.882 253.826C278.557 253.826 279.718 254.653 280.299 255.926C280.857 254.653 282.153 253.826 283.827 253.826C286.507 253.826 287.981 255.434 287.981 257.98V265.194H285.279V258.695C285.279 257.109 284.43 256.283 283.135 256.283C281.818 256.283 280.813 257.132 280.813 258.941V265.194H278.088V258.673C278.088 257.132 277.262 256.305 275.966 256.305C274.671 256.305 273.621 257.154 273.621 258.941V265.194ZM289.562 259.655C289.562 256.216 292.041 253.849 295.458 253.849C298.875 253.849 301.353 256.216 301.353 259.655C301.353 263.095 298.875 265.462 295.458 265.462C292.041 265.462 289.562 263.095 289.562 259.655ZM292.286 259.655C292.286 261.665 293.582 263.028 295.458 263.028C297.334 263.028 298.629 261.665 298.629 259.655C298.629 257.645 297.334 256.283 295.458 256.283C293.582 256.283 292.286 257.645 292.286 259.655ZM305.791 265.194H303.066V254.161H305.59L305.813 255.591C306.506 254.474 307.846 253.826 309.342 253.826C312.111 253.826 313.541 255.546 313.541 258.405V265.194H310.816V259.052C310.816 257.199 309.9 256.305 308.493 256.305C306.818 256.305 305.791 257.467 305.791 259.253V265.194ZM319.523 265.194H316.798V256.439H314.677V254.161H316.798V250.722H319.523V254.161H321.667V256.439H319.523V265.194ZM325.638 265.194H322.914V248.578H325.661V255.591C326.353 254.519 327.648 253.826 329.234 253.826C331.959 253.826 333.388 255.546 333.388 258.405V265.194H330.663V259.052C330.663 257.199 329.748 256.305 328.363 256.305C326.643 256.305 325.638 257.511 325.638 259.164V265.194Z" fill="white"/>
<path d="M183.25 285.63H178.829V278.25H183.24V278.93H179.571V281.589H182.9V282.259H179.571V284.949H183.25V285.63ZM185.345 285.63H184.634V278.116H185.345V285.63ZM187.208 279.27C186.919 279.27 186.682 279.033 186.682 278.744C186.682 278.456 186.919 278.208 187.208 278.208C187.497 278.208 187.744 278.456 187.744 278.744C187.744 279.033 187.497 279.27 187.208 279.27ZM186.857 285.63V280.641H187.569V285.63H186.857ZM190.196 285.63H189.495V281.239H188.495V280.641H189.495V279.064H190.196V280.641H191.196V281.239H190.196V285.63ZM194.164 285.753C192.7 285.753 191.721 284.702 191.721 283.135C191.721 281.579 192.69 280.507 194.112 280.507C195.463 280.507 196.38 281.465 196.38 282.878V283.228H192.412C192.463 284.444 193.102 285.145 194.174 285.145C194.989 285.145 195.514 284.795 195.7 284.135H196.38C196.112 285.186 195.339 285.753 194.164 285.753ZM194.112 281.115C193.174 281.115 192.556 281.733 192.432 282.713H195.669C195.669 281.754 195.05 281.115 194.112 281.115ZM199.757 278.93V278.25H205.045V278.93H202.767V285.63H202.025V278.93H199.757ZM207.906 280.579V281.218H207.514C206.597 281.218 206.009 281.836 206.009 282.785V285.63H205.298V280.641H205.968L206.02 281.414C206.215 280.878 206.741 280.527 207.442 280.527C207.597 280.527 207.731 280.538 207.906 280.579ZM210.083 285.753C209.021 285.753 208.392 285.155 208.392 284.279C208.392 283.362 209.093 282.785 210.258 282.692L211.907 282.558V282.393C211.907 281.414 211.32 281.105 210.588 281.105C209.722 281.105 209.207 281.496 209.207 282.166H208.557C208.557 281.156 209.382 280.507 210.608 280.507C211.763 280.507 212.608 281.084 212.608 282.403V285.63H212.01L211.918 284.754C211.608 285.382 210.928 285.753 210.083 285.753ZM210.248 285.176C211.299 285.176 211.907 284.444 211.907 283.362V283.094L210.433 283.207C209.495 283.29 209.114 283.702 209.114 284.259C209.114 284.867 209.567 285.176 210.248 285.176ZM215.994 285.753C214.54 285.753 213.685 284.64 213.685 283.146C213.685 281.641 214.54 280.507 216.025 280.507C216.849 280.507 217.509 280.868 217.859 281.589V278.116H218.571V285.63H217.952L217.88 284.609C217.53 285.382 216.829 285.753 215.994 285.753ZM216.117 285.104C217.21 285.104 217.849 284.279 217.849 283.125C217.849 281.981 217.21 281.146 216.117 281.146C215.035 281.146 214.406 281.981 214.406 283.125C214.406 284.279 215.035 285.104 216.117 285.104ZM220.405 279.27C220.117 279.27 219.879 279.033 219.879 278.744C219.879 278.456 220.117 278.208 220.405 278.208C220.694 278.208 220.941 278.456 220.941 278.744C220.941 279.033 220.694 279.27 220.405 279.27ZM220.055 285.63V280.641H220.766V285.63H220.055ZM222.96 285.63H222.249V280.641H222.867L222.971 281.507C223.3 280.868 223.96 280.507 224.682 280.507C226.052 280.507 226.619 281.321 226.619 282.579V285.63H225.908V282.733C225.908 281.569 225.382 281.156 224.558 281.156C223.537 281.156 222.96 281.898 222.96 283.022V285.63ZM227.697 282.991C227.697 281.63 228.573 280.507 230.037 280.507C230.902 280.507 231.562 280.909 231.882 281.641L231.954 280.641H232.572V285.475C232.572 286.959 231.624 287.928 230.16 287.928C228.882 287.928 227.985 287.207 227.79 286.001H228.501C228.655 286.805 229.274 287.279 230.171 287.279C231.191 287.279 231.871 286.588 231.871 285.547V284.362C231.531 285.063 230.841 285.475 229.985 285.475C228.563 285.475 227.697 284.352 227.697 282.991ZM228.408 282.981C228.408 284.001 229.037 284.836 230.088 284.836C231.17 284.836 231.809 284.053 231.809 282.981C231.809 281.919 231.191 281.136 230.098 281.136C229.026 281.136 228.408 281.97 228.408 282.981ZM237.812 278.25V285.63H237.07V278.25H237.812ZM240.163 285.63H239.452V280.641H240.07L240.173 281.507C240.503 280.868 241.163 280.507 241.884 280.507C243.255 280.507 243.822 281.321 243.822 282.579V285.63H243.111V282.733C243.111 281.569 242.585 281.156 241.76 281.156C240.74 281.156 240.163 281.898 240.163 283.022V285.63ZM246.384 285.63H245.683V281.239H244.683V280.641H245.683V279.064H246.384V280.641H247.383V281.239H246.384V285.63ZM250.352 285.753C248.888 285.753 247.909 284.702 247.909 283.135C247.909 281.579 248.878 280.507 250.3 280.507C251.65 280.507 252.568 281.465 252.568 282.878V283.228H248.599C248.651 284.444 249.29 285.145 250.362 285.145C251.176 285.145 251.702 284.795 251.887 284.135H252.568C252.3 285.186 251.527 285.753 250.352 285.753ZM250.3 281.115C249.362 281.115 248.744 281.733 248.62 282.713H251.857C251.857 281.754 251.238 281.115 250.3 281.115ZM254.447 285.63H253.736V278.116H254.447V285.63ZM256.702 285.63H255.991V278.116H256.702V285.63ZM258.565 279.27C258.276 279.27 258.039 279.033 258.039 278.744C258.039 278.456 258.276 278.208 258.565 278.208C258.853 278.208 259.101 278.456 259.101 278.744C259.101 279.033 258.853 279.27 258.565 279.27ZM258.214 285.63V280.641H258.926V285.63H258.214ZM260.069 282.991C260.069 281.63 260.945 280.507 262.408 280.507C263.274 280.507 263.934 280.909 264.253 281.641L264.326 280.641H264.944V285.475C264.944 286.959 263.996 287.928 262.532 287.928C261.254 287.928 260.357 287.207 260.161 286.001H260.873C261.027 286.805 261.646 287.279 262.542 287.279C263.563 287.279 264.243 286.588 264.243 285.547V284.362C263.903 285.063 263.212 285.475 262.357 285.475C260.934 285.475 260.069 284.352 260.069 282.991ZM260.78 282.981C260.78 284.001 261.409 284.836 262.46 284.836C263.542 284.836 264.181 284.053 264.181 282.981C264.181 281.919 263.563 281.136 262.47 281.136C261.398 281.136 260.78 281.97 260.78 282.981ZM268.521 285.753C267.057 285.753 266.078 284.702 266.078 283.135C266.078 281.579 267.047 280.507 268.469 280.507C269.819 280.507 270.737 281.465 270.737 282.878V283.228H266.768C266.82 284.444 267.459 285.145 268.531 285.145C269.345 285.145 269.871 284.795 270.056 284.135H270.737C270.469 285.186 269.696 285.753 268.521 285.753ZM268.469 281.115C267.531 281.115 266.913 281.733 266.789 282.713H270.025C270.025 281.754 269.407 281.115 268.469 281.115ZM272.585 285.63H271.874V280.641H272.492L272.595 281.507C272.925 280.868 273.585 280.507 274.306 280.507C275.677 280.507 276.244 281.321 276.244 282.579V285.63H275.533V282.733C275.533 281.569 275.007 281.156 274.183 281.156C273.162 281.156 272.585 281.898 272.585 283.022V285.63ZM277.311 283.146C277.311 281.579 278.27 280.507 279.723 280.507C280.878 280.507 281.723 281.177 281.919 282.208H281.207C281.022 281.517 280.424 281.136 279.733 281.136C278.723 281.136 278.012 281.909 278.012 283.135C278.012 284.321 278.672 285.114 279.682 285.114C280.424 285.114 281.022 284.702 281.218 284.063H281.939C281.702 285.083 280.816 285.753 279.682 285.753C278.27 285.753 277.311 284.712 277.311 283.146ZM285.109 285.753C283.645 285.753 282.666 284.702 282.666 283.135C282.666 281.579 283.635 280.507 285.058 280.507C286.408 280.507 287.325 281.465 287.325 282.878V283.228H283.357C283.408 284.444 284.047 285.145 285.119 285.145C285.934 285.145 286.459 284.795 286.645 284.135H287.325C287.057 285.186 286.284 285.753 285.109 285.753ZM285.058 281.115C284.12 281.115 283.501 281.733 283.377 282.713H286.614C286.614 281.754 285.995 281.115 285.058 281.115ZM288.758 285.743C288.408 285.743 288.109 285.454 288.109 285.114C288.109 284.764 288.408 284.465 288.758 284.465C289.109 284.465 289.408 284.764 289.408 285.114C289.408 285.454 289.109 285.743 288.758 285.743ZM293.861 285.63V278.25H296.562C297.984 278.25 298.86 278.971 298.86 280.156C298.86 281.022 298.479 281.61 297.716 281.909C298.572 282.187 299.005 282.785 299.005 283.692C299.005 284.877 298.118 285.63 296.716 285.63H293.861ZM296.551 278.909H294.603V281.61H296.644C297.572 281.61 298.098 281.094 298.098 280.218C298.098 279.394 297.541 278.909 296.551 278.909ZM296.716 282.259H294.603V284.96H296.716C297.685 284.96 298.252 284.455 298.252 283.599C298.252 282.764 297.675 282.259 296.716 282.259ZM303.694 280.641H304.405V285.63H303.786L303.694 284.784C303.415 285.362 302.725 285.753 301.941 285.753C300.766 285.753 300.127 284.949 300.127 283.733V280.631H300.849V283.506C300.849 284.692 301.374 285.114 302.168 285.114C303.127 285.114 303.694 284.475 303.694 283.29V280.641ZM306.237 279.27C305.948 279.27 305.711 279.033 305.711 278.744C305.711 278.456 305.948 278.208 306.237 278.208C306.525 278.208 306.773 278.456 306.773 278.744C306.773 279.033 306.525 279.27 306.237 279.27ZM305.886 285.63V280.641H306.597V285.63H305.886ZM308.823 285.63H308.112V278.116H308.823V285.63ZM311.48 285.63H310.779V281.239H309.779V280.641H310.779V279.064H311.48V280.641H312.479V281.239H311.48V285.63ZM315.708 280.641H316.47V279.672C316.47 278.548 317.089 278.116 317.852 278.116C318.027 278.116 318.233 278.126 318.398 278.157V278.765H317.975C317.346 278.765 317.182 279.084 317.182 279.672V280.641H318.357V281.239H317.182V285.63H316.47V281.239H315.708V280.641ZM318.823 283.135C318.823 281.61 319.895 280.507 321.358 280.507C322.822 280.507 323.894 281.61 323.894 283.135C323.894 284.65 322.822 285.753 321.358 285.753C319.895 285.753 318.823 284.65 318.823 283.135ZM319.544 283.125C319.544 284.3 320.286 285.114 321.358 285.114C322.42 285.114 323.172 284.3 323.172 283.125C323.172 281.97 322.42 281.146 321.358 281.146C320.286 281.146 319.544 281.97 319.544 283.125ZM327.639 280.579V281.218H327.248C326.33 281.218 325.743 281.836 325.743 282.785V285.63H325.032V280.641H325.702L325.753 281.414C325.949 280.878 326.475 280.527 327.175 280.527C327.33 280.527 327.464 280.538 327.639 280.579ZM330.825 278.93V278.25H336.113V278.93H333.835V285.63H333.093V278.93H330.825ZM335.864 283.135C335.864 281.61 336.936 280.507 338.4 280.507C339.864 280.507 340.936 281.61 340.936 283.135C340.936 284.65 339.864 285.753 338.4 285.753C336.936 285.753 335.864 284.65 335.864 283.135ZM336.586 283.125C336.586 284.3 337.328 285.114 338.4 285.114C339.462 285.114 340.214 284.3 340.214 283.125C340.214 281.97 339.462 281.146 338.4 281.146C337.328 281.146 336.586 281.97 336.586 283.125ZM342.073 287.805V280.641H342.691L342.764 281.651C343.114 280.878 343.815 280.507 344.65 280.507C346.093 280.507 346.959 281.61 346.959 283.115C346.959 284.62 346.124 285.753 344.65 285.753C343.805 285.753 343.135 285.393 342.784 284.671V287.805H342.073ZM342.795 283.135C342.795 284.279 343.434 285.114 344.526 285.114C345.609 285.114 346.237 284.279 346.237 283.135C346.237 281.981 345.609 281.156 344.526 281.156C343.434 281.156 342.795 281.981 342.795 283.135ZM348.092 287.805V280.641H348.711L348.783 281.651C349.133 280.878 349.834 280.507 350.669 280.507C352.112 280.507 352.978 281.61 352.978 283.115C352.978 284.62 352.143 285.753 350.669 285.753C349.824 285.753 349.154 285.393 348.804 284.671V287.805H348.092ZM348.814 283.135C348.814 284.279 349.453 285.114 350.546 285.114C351.628 285.114 352.257 284.279 352.257 283.135C352.257 281.981 351.628 281.156 350.546 281.156C349.453 281.156 348.814 281.981 348.814 283.135ZM356.204 285.753C354.741 285.753 353.761 284.702 353.761 283.135C353.761 281.579 354.73 280.507 356.153 280.507C357.503 280.507 358.42 281.465 358.42 282.878V283.228H354.452C354.504 284.444 355.143 285.145 356.215 285.145C357.029 285.145 357.555 284.795 357.74 284.135H358.42C358.152 285.186 357.379 285.753 356.204 285.753ZM356.153 281.115C355.215 281.115 354.596 281.733 354.473 282.713H357.709C357.709 281.754 357.091 281.115 356.153 281.115ZM362.165 280.579V281.218H361.774C360.856 281.218 360.269 281.836 360.269 282.785V285.63H359.557V280.641H360.227L360.279 281.414C360.475 280.878 361.001 280.527 361.701 280.527C361.856 280.527 361.99 280.538 362.165 280.579ZM362.688 284.228H363.368C363.368 284.805 363.801 285.166 364.502 285.166C365.275 285.166 365.729 284.836 365.729 284.3C365.729 283.888 365.523 283.651 364.935 283.506L364.08 283.29C363.214 283.073 362.791 282.62 362.791 281.94C362.791 281.063 363.523 280.507 364.595 280.507C365.646 280.507 366.327 281.084 366.358 282.012H365.667C365.646 281.435 365.244 281.094 364.574 281.094C363.873 281.094 363.482 281.393 363.482 281.929C363.482 282.311 363.75 282.579 364.296 282.713L365.152 282.929C366.017 283.146 366.409 283.548 366.409 284.269C366.409 285.166 365.646 285.753 364.513 285.753C363.389 285.753 362.688 285.155 362.688 284.228Z" fill="white" fill-opacity="0.8"/>
<defs>
<linearGradient id="paint0_linear_1648_9719" x1="54.8162" y1="294.533" x2="228.872" y2="-109.345" gradientUnits="userSpaceOnUse">
<stop stop-color="#0276DB"/>
<stop offset="1" stop-color="#3EDC81"/>
</linearGradient>
<radialGradient id="paint1_radial_1648_9719" cx="0" cy="0" r="1" gradientTransform="matrix(-0.286152 345.75 -450.474 -0.0809051 226.288 1.01977)" gradientUnits="userSpaceOnUse">
<stop stop-color="#161616" stop-opacity="0.6"/>
<stop offset="0.740127" stop-color="#161616" stop-opacity="0.946662"/>
<stop offset="1" stop-color="#161616"/>
</radialGradient>
<linearGradient id="paint2_linear_1648_9719" x1="54.8162" y1="294.533" x2="123.695" y2="4.30223" gradientUnits="userSpaceOnUse">
<stop stop-color="#0276DB"/>
<stop offset="1" stop-color="#3EDC81"/>
</linearGradient>
<linearGradient id="paint3_linear_1648_9719" x1="71.327" y1="150.873" x2="115.088" y2="-18.9703" gradientUnits="userSpaceOnUse">
<stop stop-color="#0276DB"/>
<stop offset="1" stop-color="#3EDC81"/>
</linearGradient>
<radialGradient id="paint4_radial_1648_9719" cx="0" cy="0" r="1" gradientTransform="matrix(-0.181018 130.764 -284.967 -0.0305987 179.799 39.8643)" gradientUnits="userSpaceOnUse">
<stop stop-color="#161616" stop-opacity="0.6"/>
<stop offset="0.740127" stop-color="#161616" stop-opacity="0.946662"/>
<stop offset="1" stop-color="#161616"/>
</radialGradient>
<linearGradient id="paint5_linear_1648_9719" x1="34.2957" y1="20.2326" x2="34.841" y2="-0.868456" gradientUnits="userSpaceOnUse">
<stop stop-color="#0276DB"/>
<stop offset="1" stop-color="#3EDC81"/>
</linearGradient>
<linearGradient id="paint6_linear_1648_9719" x1="113.663" y1="169.918" x2="114.24" y2="160.106" gradientUnits="userSpaceOnUse">
<stop stop-color="#0276DB"/>
<stop offset="1" stop-color="#3EDC81"/>
</linearGradient>
<linearGradient id="paint7_linear_1648_9719" x1="71.327" y1="150.873" x2="87.454" y2="37.2117" gradientUnits="userSpaceOnUse">
<stop stop-color="#0276DB"/>
<stop offset="1" stop-color="#3EDC81"/>
</linearGradient>
<linearGradient id="paint8_linear_1648_9719" x1="164.095" y1="289.781" x2="200.766" y2="133.469" gradientUnits="userSpaceOnUse">
<stop stop-color="white" stop-opacity="0"/>
<stop offset="1" stop-color="white"/>
</linearGradient>
<radialGradient id="paint9_radial_1648_9719" cx="0" cy="0" r="1" gradientTransform="matrix(-0.181018 119.066 -284.967 -0.0278613 272.566 188.704)" gradientUnits="userSpaceOnUse">
<stop stop-color="#161616" stop-opacity="0.6"/>
<stop offset="0.740127" stop-color="#161616" stop-opacity="0.946662"/>
<stop offset="1" stop-color="#161616"/>
</radialGradient>
<clipPath id="clip0_1648_9719">
<path d="M37.0312 59.8153C37.0312 52.7987 37.0312 49.2904 38.3968 46.6104C39.5979 44.2531 41.5145 42.3364 43.8719 41.1353C46.5519 39.7698 50.0602 39.7698 57.0768 39.7698H302.158C309.175 39.7698 312.683 39.7698 315.363 41.1353C317.721 42.3364 319.637 44.2531 320.838 46.6104C322.204 49.2904 322.204 52.7987 322.204 59.8153V150.583C322.204 157.6 322.204 161.108 320.838 163.788C319.637 166.145 317.721 168.062 315.363 169.263C312.683 170.629 309.175 170.629 302.158 170.629H57.0768C50.0602 170.629 46.5519 170.629 43.8719 169.263C41.5145 168.062 39.5979 166.145 38.3968 163.788C37.0312 161.108 37.0312 157.6 37.0312 150.583V59.8153Z" fill="white"/>
</clipPath>
</defs>
</svg>
