<svg width="320" height="436" viewBox="0 0 320 436" fill="none" xmlns="http://www.w3.org/2000/svg">
<path d="M319.567 -3.83374L249.704 80.9345C249.704 80.9345 249.69 80.9345 249.69 80.92L245.302 86.2516H99.9107L99.2715 85.932L28.5659 49.8746C28.5659 49.8746 78.3663 99.1666 79.1944 100.038C80.037 100.881 76.841 102.348 76.841 102.348L42.7448 82.8958L65.6547 105.806L60.5265 108.915L61.7323 132.362L62.6039 148.982L51.3741 168.492H51.3596L45.0111 179.548L57.2723 192.201L66.9041 202.123H96.8308C98.8647 202.356 107.363 203.518 114.046 210.956C117.533 214.82 118.477 227.968 118.564 239.982L85.5284 280.064L-42.6191 435.479L-42.8516 435.741V91.1183C-42.8516 13.8173 19.8348 -48.8691 97.1359 -48.8691H216.683C218.063 -48.8691 219.4 -48.8546 220.751 -48.7965C221.376 -48.7965 222 -48.782 222.596 -48.7384C223.526 -48.6948 224.426 -48.6658 225.342 -48.5931C225.676 -48.5931 225.995 -48.5786 226.344 -48.535C227.593 -48.4624 228.872 -48.3607 230.107 -48.2299C230.237 -48.2299 230.339 -48.2154 230.47 -48.1863C231.923 -48.0556 233.375 -47.8813 234.799 -47.6924C268.183 -43.3923 297.863 -27.3248 319.567 -3.81919V-3.83374Z" fill="white" fill-opacity="0.1"/>
<path d="M319.567 -3.83374L249.704 80.9345C249.704 80.9345 249.69 80.9345 249.69 80.92L245.302 86.2516H99.9107L99.2715 85.932L28.5659 49.8746C28.5659 49.8746 78.3663 99.1666 79.1944 100.038C80.037 100.881 76.841 102.348 76.841 102.348L42.7448 82.8958L65.6547 105.806L60.5265 108.915L61.7323 132.362L62.6039 148.982L51.3741 168.492H51.3596L45.0111 179.548L57.2723 192.201L66.9041 202.123H96.8308C98.8647 202.356 107.363 203.518 114.046 210.956C117.533 214.82 118.477 227.968 118.564 239.982L85.5284 280.064L-42.6191 435.479L-42.8516 435.741V91.1183C-42.8516 13.8173 19.8348 -48.8691 97.1359 -48.8691H216.683C218.063 -48.8691 219.4 -48.8546 220.751 -48.7965C221.376 -48.7965 222 -48.782 222.596 -48.7384C223.526 -48.6948 224.426 -48.6658 225.342 -48.5931C225.676 -48.5931 225.995 -48.5786 226.344 -48.535C227.593 -48.4624 228.872 -48.3607 230.107 -48.2299C230.237 -48.2299 230.339 -48.2154 230.47 -48.1863C231.923 -48.0556 233.375 -47.8813 234.799 -47.6924C268.183 -43.3923 297.863 -27.3248 319.567 -3.81919V-3.83374Z" fill="#0276DB" fill-opacity="0.3"/>
<path d="M99.2481 85.9175L28.5424 49.8601C28.5424 49.8601 78.3429 99.1521 79.171 100.024C80.0136 100.866 76.8175 102.334 76.8175 102.334L42.7214 82.8812L65.6313 105.791L60.5031 108.9L61.7089 132.348L-42.875 261.773V91.1184C-42.875 13.8173 19.8114 -48.8691 97.1125 -48.8691H208.147L99.2335 85.9175H99.2481Z" fill="#0276DB" fill-opacity="0.1"/>
</svg>
