<svg width="341" height="173" viewBox="0 0 341 173" fill="none" xmlns="http://www.w3.org/2000/svg">
<path d="M10.5811 0.808594H330.086C335.653 0.808594 340.167 5.32225 340.167 10.8896V162.419C340.167 167.986 335.653 172.499 330.086 172.499H10.5811C5.01379 172.499 0.500223 167.986 0.5 162.419V10.8896C0.5 5.32224 5.01365 0.808594 10.5811 0.808594Z" fill="url(#paint0_linear_1471_2679)" fill-opacity="0.05"/>
<path d="M10.5811 0.808594H330.086C335.653 0.808594 340.167 5.32225 340.167 10.8896V162.419C340.167 167.986 335.653 172.499 330.086 172.499H10.5811C5.01379 172.499 0.500223 167.986 0.5 162.419V10.8896C0.5 5.32224 5.01365 0.808594 10.5811 0.808594Z" stroke="url(#paint1_linear_1471_2679)"/>
<path d="M31.0375 21.2803V20.0591M34.2381 22.1435L35.1005 21.2794M35.1093 25.3494H36.3278M36.3278 28.8763C36.3278 33.0328 36.3278 35.111 35.0361 36.4018C33.7461 37.6935 31.667 37.6935 27.5106 37.6935C23.3541 37.6935 21.2759 37.6935 19.9842 36.4018C18.6934 35.1119 18.6934 33.0328 18.6934 28.8763C18.6934 24.7199 18.6934 22.6416 19.9842 21.3499C21.2768 20.0591 23.3541 20.0591 27.5106 20.0591" stroke="white" stroke-width="1.32258" stroke-linecap="round" stroke-linejoin="round"/>
<path d="M27.3799 25.356H30.2208C30.555 25.356 30.8257 25.6337 30.8257 25.9758V28.9075M19.3633 30.6031C21.3674 30.8376 26.3968 30.2116 30.0595 26.1345" stroke="white" stroke-width="1.32258" stroke-linecap="round" stroke-linejoin="round"/>
<path d="M48.4846 35.3765H46.7578L51.2271 23.1367H53.0724L57.5586 35.3765H55.8149L54.7145 32.3292H49.5681L48.4846 35.3765ZM51.9381 25.7777L50.0759 30.8903H54.2236L52.3444 25.7777C52.2598 25.5407 52.1751 25.2529 52.1413 25.0667C52.1074 25.2359 52.0228 25.5237 51.9381 25.7777ZM60.5061 23.1367V35.3765H58.8471V23.1367H60.5061ZM66.1272 24.6604V23.1367H75.1504V24.6604H71.4768V35.3765H69.8178V24.6604H66.1272ZM79.9406 27.0304V28.4863H79.2295C77.7228 28.4863 76.7917 29.4005 76.7917 30.9918V35.3765H75.2004V27.1151H76.6902L76.7917 28.3678C77.1303 27.5044 77.9598 26.9289 79.0941 26.9289C79.3819 26.9289 79.6189 26.9627 79.9406 27.0304ZM84.369 35.5796C81.9312 35.5796 80.2552 33.819 80.2552 31.2458C80.2552 28.6556 81.8973 26.8611 84.3012 26.8611C86.6544 26.8611 88.1949 28.4863 88.1949 30.941V31.5336L81.7957 31.5505C81.9142 33.2942 82.8284 34.2591 84.4028 34.2591C85.6386 34.2591 86.4512 33.7513 86.7221 32.8032H88.2119C87.8056 34.5808 86.4174 35.5796 84.369 35.5796ZM84.3012 28.1985C82.9131 28.1985 82.0327 29.0281 81.8296 30.484H86.6036C86.6036 29.1127 85.7064 28.1985 84.3012 28.1985ZM91.2251 35.3765H89.6338V27.0981H91.0727L91.242 28.3678C91.7668 27.4198 92.8164 26.8611 93.9845 26.8611C96.1684 26.8611 97.1672 28.1985 97.1672 30.3147V35.3765H95.5759V30.6702C95.5759 28.9942 94.7971 28.317 93.5782 28.317C92.0885 28.317 91.2251 29.3836 91.2251 30.9918V35.3765ZM102.351 35.5796C99.9469 35.5796 98.491 33.7851 98.491 31.2627C98.491 28.7233 99.9638 26.8611 102.419 26.8611C103.688 26.8611 104.755 27.4198 105.313 28.4355V22.9167H106.888V35.3765H105.466L105.33 33.8698C104.789 35.004 103.671 35.5796 102.351 35.5796ZM102.672 34.1406C104.298 34.1406 105.296 32.9387 105.296 31.2119C105.296 29.519 104.298 28.3001 102.672 28.3001C101.047 28.3001 100.099 29.519 100.099 31.2119C100.099 32.9217 101.047 34.1406 102.672 34.1406ZM119.873 30.1792H115.065V35.3765H113.406V23.1367H120.787V24.6604H115.065V28.6725H119.873V30.1792ZM121.001 31.2288C121.001 28.6725 122.829 26.8781 125.318 26.8781C127.789 26.8781 129.618 28.6725 129.618 31.2288C129.618 33.7851 127.789 35.5796 125.318 35.5796C122.829 35.5796 121.001 33.7851 121.001 31.2288ZM122.609 31.2288C122.609 32.9556 123.709 34.1576 125.318 34.1576C126.909 34.1576 128.026 32.9556 128.026 31.2288C128.026 29.5021 126.909 28.3001 125.318 28.3001C123.709 28.3001 122.609 29.5021 122.609 31.2288ZM135.781 27.0304V28.4863H135.07C133.563 28.4863 132.632 29.4005 132.632 30.9918V35.3765H131.041V27.1151H132.53L132.632 28.3678C132.97 27.5044 133.8 26.9289 134.934 26.9289C135.222 26.9289 135.459 26.9627 135.781 27.0304ZM140.209 35.5796C137.771 35.5796 136.095 33.819 136.095 31.2458C136.095 28.6556 137.737 26.8611 140.141 26.8611C142.495 26.8611 144.035 28.4863 144.035 30.941V31.5336L137.636 31.5505C137.754 33.2942 138.669 34.2591 140.243 34.2591C141.479 34.2591 142.291 33.7513 142.562 32.8032H144.052C143.646 34.5808 142.258 35.5796 140.209 35.5796ZM140.141 28.1985C138.753 28.1985 137.873 29.0281 137.67 30.484H142.444C142.444 29.1127 141.547 28.1985 140.141 28.1985ZM144.932 31.2458C144.932 28.6556 146.574 26.8611 148.995 26.8611C151.077 26.8611 152.533 28.0462 152.821 29.8914H151.23C150.959 28.8418 150.113 28.2832 149.046 28.2832C147.539 28.2832 146.507 29.4344 146.507 31.2288C146.507 33.0064 147.472 34.1576 148.978 34.1576C150.113 34.1576 150.959 33.5651 151.247 32.5832H152.838C152.516 34.3776 150.976 35.5796 148.978 35.5796C146.54 35.5796 144.932 33.8528 144.932 31.2458ZM156.599 35.5796C154.822 35.5796 153.772 34.5808 153.772 33.0741C153.772 31.5505 154.906 30.6025 156.853 30.4501L159.46 30.247V30.0099C159.46 28.6218 158.631 28.1308 157.514 28.1308C156.176 28.1308 155.414 28.7233 155.414 29.7222H154.026C154.026 27.9954 155.448 26.8611 157.581 26.8611C159.63 26.8611 161.018 27.9446 161.018 30.1792V35.3765H159.664L159.494 34.0391C159.071 34.9871 157.937 35.5796 156.599 35.5796ZM157.056 34.3438C158.563 34.3438 159.477 33.3619 159.477 31.8044V31.3643L157.361 31.5336C155.956 31.669 155.38 32.2107 155.38 33.0233C155.38 33.9036 156.024 34.3438 157.056 34.3438ZM162.206 32.9725H163.73C163.73 33.819 164.373 34.3269 165.422 34.3269C166.54 34.3269 167.183 33.8698 167.183 33.108C167.183 32.5493 166.912 32.2107 166.049 31.9906L164.593 31.6521C163.12 31.2966 162.426 30.5686 162.426 29.3497C162.426 27.8261 163.713 26.8611 165.541 26.8611C167.352 26.8611 168.537 27.8769 168.571 29.4513H167.048C167.014 28.6218 166.455 28.097 165.49 28.097C164.491 28.097 163.933 28.5371 163.933 29.2989C163.933 29.8576 164.339 30.23 165.152 30.4332L166.608 30.7887C168.013 31.1273 168.707 31.7706 168.707 33.0064C168.707 34.5808 167.352 35.5796 165.389 35.5796C163.442 35.5796 162.206 34.5469 162.206 32.9725ZM172.469 35.3765H170.878V28.4355H169.253V27.0981H170.878V24.508H172.469V27.0981H174.094V28.4355H172.469V35.3765Z" fill="white"/>
<path d="M309.631 23.5864H309.636M309.631 28.8768H309.636M309.631 34.1671H309.636M316.679 23.5864H316.685M316.679 28.8768H316.685M316.679 34.1671H316.685" stroke="white" stroke-width="1.32258" stroke-linecap="round" stroke-linejoin="round"/>
<path d="M24.588 79.1768H17.5963V78.3324L20.9884 75.3698C22.9437 73.6663 23.4474 72.9257 23.4474 71.6666C23.4474 70.2297 22.5882 69.3558 21.181 69.3558C19.7145 69.3558 18.7517 70.4223 18.7072 72.0665H17.6407C17.7 69.8446 19.1072 68.3781 21.1958 68.3781C23.1956 68.3781 24.5287 69.6668 24.5287 71.6073C24.5287 73.1479 23.8325 74.17 21.7143 76.0216L19.2405 78.1843H24.588V79.1768ZM32.9751 76.9252H31.7308V79.1768H30.6939V76.9252H25.1243V75.9772L30.3088 68.5707H31.7308V75.9772H32.9751V76.9252ZM26.2797 75.9772H30.6939V69.6668L26.2797 75.9772ZM35.6111 79.1619H34.589V68.3781H35.6111V73.2516C36.0703 72.3924 36.9443 71.8147 38.1441 71.8147C40.0254 71.8147 40.8697 72.9849 40.8697 74.7921V79.1768H39.8476V75.0143C39.8476 73.3405 39.0625 72.7479 37.9516 72.7479C36.411 72.7479 35.6111 73.8885 35.6111 75.2661V79.1619ZM46.6448 79.1768H45.5635L49.4593 68.5707H50.7776L54.7179 79.1768H53.6069L52.57 76.3623H47.6817L46.6448 79.1768ZM49.9777 70.0668L48.0076 75.4291H52.2293L50.2443 70.0668C50.1999 69.9187 50.1258 69.7409 50.111 69.6372C50.0962 69.7261 50.037 69.9187 49.9777 70.0668ZM56.9625 68.5707V79.1768H55.8959V68.5707H56.9625ZM68.4638 74.5107H64.1236V79.1768H63.0571V68.5707H69.3081V69.5483H64.1236V73.5478H68.4638V74.5107ZM69.5138 75.592C69.5138 73.3997 71.0543 71.8147 73.1578 71.8147C75.2612 71.8147 76.8018 73.3997 76.8018 75.592C76.8018 77.7695 75.2612 79.3545 73.1578 79.3545C71.0543 79.3545 69.5138 77.7695 69.5138 75.592ZM70.5507 75.5772C70.5507 77.2659 71.6172 78.4361 73.1578 78.4361C74.6835 78.4361 75.7649 77.2659 75.7649 75.5772C75.7649 73.9182 74.6835 72.7331 73.1578 72.7331C71.6172 72.7331 70.5507 73.9182 70.5507 75.5772ZM81.8879 71.9184V72.8368H81.325C80.0067 72.8368 79.1623 73.7256 79.1623 75.0884V79.1768H78.1402V72.0073H79.1031L79.1772 73.1183C79.4586 72.348 80.2141 71.8443 81.2213 71.8443C81.4435 71.8443 81.6361 71.8592 81.8879 71.9184ZM85.6826 79.3545C83.5791 79.3545 82.1719 77.8436 82.1719 75.592C82.1719 73.3553 83.5643 71.8147 85.6085 71.8147C87.549 71.8147 88.8674 73.1923 88.8674 75.2217V75.7253H83.1644C83.2384 77.4733 84.1569 78.4805 85.6974 78.4805C86.8676 78.4805 87.6231 77.9769 87.8897 77.0289H88.8674C88.4822 78.5398 87.3713 79.3545 85.6826 79.3545ZM85.6085 72.6887C84.2605 72.6887 83.3718 73.5775 83.194 74.9847H87.8453C87.8453 73.6071 86.9565 72.6887 85.6085 72.6887ZM89.7016 75.6068C89.7016 73.3553 91.0792 71.8147 93.1679 71.8147C94.8269 71.8147 96.0416 72.7776 96.323 74.2589H95.3009C95.0343 73.2664 94.1751 72.7183 93.1827 72.7183C91.731 72.7183 90.7089 73.8293 90.7089 75.592C90.7089 77.2955 91.6569 78.4361 93.1086 78.4361C94.1751 78.4361 95.0343 77.8436 95.3157 76.9252H96.3526C96.0119 78.3917 94.738 79.3545 93.1086 79.3545C91.0792 79.3545 89.7016 77.8584 89.7016 75.6068ZM99.6638 79.3545C98.1381 79.3545 97.2345 78.4954 97.2345 77.2363C97.2345 75.9179 98.2418 75.0884 99.9156 74.9551L102.286 74.7625V74.5255C102.286 73.1183 101.441 72.6739 100.39 72.6739C99.1453 72.6739 98.4047 73.2368 98.4047 74.1996H97.4715C97.4715 72.7479 98.6565 71.8147 100.419 71.8147C102.078 71.8147 103.293 72.6442 103.293 74.5403V79.1768H102.434L102.301 77.9177C101.856 78.8212 100.878 79.3545 99.6638 79.3545ZM99.9008 78.525C101.412 78.525 102.286 77.4733 102.286 75.9179V75.5328L100.167 75.6957C98.8195 75.8142 98.2714 76.4067 98.2714 77.2066C98.2714 78.0806 98.9232 78.525 99.9008 78.525ZM104.44 77.1622H105.418C105.418 77.9917 106.04 78.5102 107.047 78.5102C108.158 78.5102 108.81 78.0362 108.81 77.2659C108.81 76.6734 108.514 76.3327 107.67 76.1253L106.44 75.8142C105.196 75.5031 104.589 74.8514 104.589 73.8737C104.589 72.6146 105.64 71.8147 107.181 71.8147C108.692 71.8147 109.669 72.6442 109.714 73.9774H108.721C108.692 73.1479 108.114 72.6591 107.151 72.6591C106.144 72.6591 105.581 73.0886 105.581 73.8589C105.581 74.407 105.966 74.7921 106.751 74.9847L107.981 75.2958C109.225 75.6068 109.788 76.1845 109.788 77.2214C109.788 78.5102 108.692 79.3545 107.062 79.3545C105.448 79.3545 104.44 78.4954 104.44 77.1622ZM112.819 79.1768H111.811V72.8664H110.374V72.0073H111.811V69.7409H112.819V72.0073H114.255V72.8664H112.819V79.1768Z" fill="white"/>
<path d="M191.72 79.6768H190.095V67.437H191.72L195.935 77.7299L200.151 67.437H201.81V79.6768H200.185V74.835C200.185 72.5496 200.202 71.7201 200.286 70.8567L196.714 79.6768H195.157L191.602 70.8906C191.686 71.4831 191.72 72.7358 191.72 74.4457V79.6768ZM203.509 75.5291C203.509 72.9728 205.337 71.1784 207.826 71.1784C210.297 71.1784 212.126 72.9728 212.126 75.5291C212.126 78.0854 210.297 79.8799 207.826 79.8799C205.337 79.8799 203.509 78.0854 203.509 75.5291ZM205.117 75.5291C205.117 77.2559 206.217 78.4579 207.826 78.4579C209.417 78.4579 210.534 77.2559 210.534 75.5291C210.534 73.8024 209.417 72.6004 207.826 72.6004C206.217 72.6004 205.117 73.8024 205.117 75.5291ZM216.867 79.8799C214.463 79.8799 213.007 78.0854 213.007 75.563C213.007 73.0236 214.48 71.1614 216.934 71.1614C218.204 71.1614 219.271 71.7201 219.829 72.7358V67.217H221.404V79.6768H219.982L219.846 78.1701C219.304 79.3043 218.187 79.8799 216.867 79.8799ZM217.188 78.4409C218.813 78.4409 219.812 77.239 219.812 75.5122C219.812 73.8193 218.813 72.6004 217.188 72.6004C215.563 72.6004 214.615 73.8193 214.615 75.5122C214.615 77.222 215.563 78.4409 217.188 78.4409ZM226.933 79.8799C224.495 79.8799 222.819 78.1193 222.819 75.5461C222.819 72.9559 224.461 71.1614 226.865 71.1614C229.218 71.1614 230.759 72.7866 230.759 75.2413V75.8339L224.36 75.8508C224.478 77.5945 225.392 78.5594 226.967 78.5594C228.203 78.5594 229.015 78.0516 229.286 77.1035H230.776C230.369 78.8811 228.981 79.8799 226.933 79.8799ZM226.865 72.4988C225.477 72.4988 224.597 73.3284 224.393 74.7843H229.167C229.167 73.413 228.27 72.4988 226.865 72.4988ZM236.938 71.3307V72.7866H236.227C234.72 72.7866 233.789 73.7008 233.789 75.2921V79.6768H232.198V71.4154H233.687L233.789 72.6681C234.128 71.8047 234.957 71.2291 236.091 71.2291C236.379 71.2291 236.616 71.263 236.938 71.3307ZM240.182 79.8799C238.404 79.8799 237.355 78.8811 237.355 77.3744C237.355 75.8508 238.489 74.9028 240.436 74.7504L243.043 74.5472V74.3102C243.043 72.9221 242.213 72.4311 241.096 72.4311C239.759 72.4311 238.997 73.0236 238.997 74.0224H237.609C237.609 72.2957 239.031 71.1614 241.164 71.1614C243.212 71.1614 244.6 72.2449 244.6 74.4795V79.6768H243.246L243.077 78.3394C242.654 79.2874 241.519 79.8799 240.182 79.8799ZM240.639 78.6441C242.146 78.6441 243.06 77.6622 243.06 76.1047V75.6646L240.944 75.8339C239.539 75.9693 238.963 76.511 238.963 77.3236C238.963 78.2039 239.606 78.6441 240.639 78.6441ZM248.67 79.6768H247.078V72.7358H245.453V71.3984H247.078V68.8083H248.67V71.3984H250.295V72.7358H248.67V79.6768ZM254.874 79.8799C252.436 79.8799 250.76 78.1193 250.76 75.5461C250.76 72.9559 252.402 71.1614 254.806 71.1614C257.159 71.1614 258.7 72.7866 258.7 75.2413V75.8339L252.301 75.8508C252.419 77.5945 253.333 78.5594 254.908 78.5594C256.143 78.5594 256.956 78.0516 257.227 77.1035H258.717C258.31 78.8811 256.922 79.8799 254.874 79.8799ZM254.806 72.4988C253.418 72.4988 252.538 73.3284 252.334 74.7843H257.108C257.108 73.413 256.211 72.4988 254.806 72.4988ZM264.615 75.326V67.437H266.274V75.2244C266.274 77.1882 267.358 78.2716 269.305 78.2716C271.234 78.2716 272.301 77.1713 272.301 75.2244V67.437H273.977V75.326C273.977 78.1362 272.183 79.8799 269.305 79.8799C266.41 79.8799 264.615 78.1531 264.615 75.326ZM276.126 83.3842V71.3984H277.565L277.683 72.8882C278.242 71.7539 279.359 71.1614 280.68 71.1614C283.05 71.1614 284.523 72.939 284.523 75.4783C284.523 78.0008 283.135 79.8968 280.68 79.8968C279.359 79.8968 278.259 79.3382 277.717 78.3224V83.3842H276.126ZM277.734 75.5461C277.734 77.239 278.716 78.4579 280.341 78.4579C281.966 78.4579 282.931 77.239 282.931 75.5461C282.931 73.8362 281.966 72.6173 280.341 72.6173C278.716 72.6173 277.734 73.8193 277.734 75.5461ZM288.192 79.6768H286.6V72.7358H284.975V71.3984H286.6V68.8083H288.192V71.3984H289.817V72.7358H288.192V79.6768ZM295.647 71.3307V72.7866H294.936C293.429 72.7866 292.498 73.7008 292.498 75.2921V79.6768H290.906V71.4154H292.396L292.498 72.6681C292.836 71.8047 293.666 71.2291 294.8 71.2291C295.088 71.2291 295.325 71.263 295.647 71.3307ZM300.075 79.8799C297.637 79.8799 295.961 78.1193 295.961 75.5461C295.961 72.9559 297.603 71.1614 300.007 71.1614C302.36 71.1614 303.901 72.7866 303.901 75.2413V75.8339L297.502 75.8508C297.62 77.5945 298.534 78.5594 300.109 78.5594C301.345 78.5594 302.157 78.0516 302.428 77.1035H303.918C303.512 78.8811 302.123 79.8799 300.075 79.8799ZM300.007 72.4988C298.619 72.4988 297.739 73.3284 297.536 74.7843H302.31C302.31 73.413 301.412 72.4988 300.007 72.4988ZM306.931 79.6768H305.34V71.3984H306.779L306.948 72.6681C307.473 71.7201 308.523 71.1614 309.691 71.1614C311.874 71.1614 312.873 72.4988 312.873 74.615V79.6768H311.282V74.9705C311.282 73.2945 310.503 72.6173 309.284 72.6173C307.795 72.6173 306.931 73.6839 306.931 75.2921V79.6768ZM318.057 79.8799C315.653 79.8799 314.197 78.0854 314.197 75.563C314.197 73.0236 315.67 71.1614 318.125 71.1614C319.394 71.1614 320.461 71.7201 321.019 72.7358V67.217H322.594V79.6768H321.172L321.036 78.1701C320.495 79.3043 319.377 79.8799 318.057 79.8799ZM318.379 78.4409C320.004 78.4409 321.003 77.239 321.003 75.5122C321.003 73.8193 320.004 72.6004 318.379 72.6004C316.753 72.6004 315.805 73.8193 315.805 75.5122C315.805 77.222 316.753 78.4409 318.379 78.4409Z" fill="#F59D31"/>
<path d="M24.5732 112.757H18.2184V102.151H24.5584V103.129H19.2849V106.951H24.0695V107.913H19.2849V111.78H24.5732V112.757ZM26.5017 112.757H25.3019L27.8645 109.173L25.3167 105.588H26.5166L28.5459 108.462L30.5605 105.588H31.7455L29.1977 109.187L31.7307 112.757H30.5161L28.5015 109.884L26.5017 112.757ZM32.6651 115.883V105.588H33.5539L33.6576 107.04C34.1612 105.929 35.1685 105.395 36.3683 105.395C38.4421 105.395 39.6864 106.98 39.6864 109.143C39.6864 111.306 38.4866 112.935 36.3683 112.935C35.1537 112.935 34.1908 112.417 33.6872 111.38V115.883H32.6651ZM33.702 109.173C33.702 110.817 34.6204 112.017 36.1906 112.017C37.7459 112.017 38.6495 110.817 38.6495 109.173C38.6495 107.514 37.7459 106.329 36.1906 106.329C34.6204 106.329 33.702 107.514 33.702 109.173ZM44.0264 112.935C41.9229 112.935 40.5157 111.424 40.5157 109.173C40.5157 106.936 41.9081 105.395 43.9523 105.395C45.8928 105.395 47.2112 106.773 47.2112 108.802V109.306H41.5082C41.5822 111.054 42.5006 112.061 44.0412 112.061C45.2114 112.061 45.9669 111.557 46.2335 110.609H47.2112C46.826 112.12 45.7151 112.935 44.0264 112.935ZM43.9523 106.269C42.6043 106.269 41.7156 107.158 41.5378 108.565H46.1891C46.1891 107.188 45.3003 106.269 43.9523 106.269ZM48.0454 109.187C48.0454 106.936 49.423 105.395 51.5117 105.395C53.1707 105.395 54.3854 106.358 54.6668 107.839H53.6447C53.3781 106.847 52.5189 106.299 51.5265 106.299C50.0748 106.299 49.0527 107.41 49.0527 109.173C49.0527 110.876 50.0007 112.017 51.4524 112.017C52.5189 112.017 53.3781 111.424 53.6595 110.506H54.6964C54.3557 111.972 53.0818 112.935 51.4524 112.935C49.423 112.935 48.0454 111.439 48.0454 109.187ZM57.5928 112.757H56.5856V106.447H55.1487V105.588H56.5856V103.321H57.5928V105.588H59.0297V106.447H57.5928V112.757ZM62.9991 112.935C60.8957 112.935 59.4884 111.424 59.4884 109.173C59.4884 106.936 60.8808 105.395 62.925 105.395C64.8655 105.395 66.1839 106.773 66.1839 108.802V109.306H60.4809C60.555 111.054 61.4734 112.061 63.0139 112.061C64.1841 112.061 64.9396 111.557 65.2062 110.609H66.1839C65.7987 112.12 64.6878 112.935 62.9991 112.935ZM62.925 106.269C61.5771 106.269 60.6883 107.158 60.5105 108.565H65.1618C65.1618 107.188 64.273 106.269 62.925 106.269ZM70.3363 112.935C68.2476 112.935 67.0182 111.335 67.0182 109.187C67.0182 107.025 68.2476 105.395 70.3807 105.395C71.5657 105.395 72.5138 105.914 73.0174 106.951V101.959H74.0395V112.757H73.1507L73.047 111.291C72.5434 112.402 71.5361 112.935 70.3363 112.935ZM70.514 112.002C72.0842 112.002 73.0026 110.817 73.0026 109.158C73.0026 107.514 72.0842 106.314 70.514 106.314C68.9586 106.314 68.0551 107.514 68.0551 109.158C68.0551 110.817 68.9586 112.002 70.514 112.002ZM80.9768 112.757H79.9103V102.151H83.8653C86.0132 102.151 87.3167 103.336 87.3167 105.218C87.3167 106.743 86.5168 107.81 85.1541 108.18L87.4204 112.757H86.2354L84.0727 108.358H80.9768V112.757ZM80.9768 103.114V107.395H83.895C85.3614 107.395 86.2206 106.595 86.2206 105.247C86.2206 103.87 85.317 103.114 83.8653 103.114H80.9768ZM90.6366 112.935C89.1109 112.935 88.2073 112.076 88.2073 110.817C88.2073 109.498 89.2145 108.669 90.8884 108.536L93.2585 108.343V108.106C93.2585 106.699 92.4141 106.254 91.3624 106.254C90.1181 106.254 89.3775 106.817 89.3775 107.78H88.4443C88.4443 106.329 89.6293 105.395 91.392 105.395C93.0511 105.395 94.2658 106.225 94.2658 108.121V112.757H93.4066L93.2733 111.498C92.8289 112.402 91.8512 112.935 90.6366 112.935ZM90.8736 112.106C92.3845 112.106 93.2585 111.054 93.2585 109.498V109.113L91.1402 109.276C89.7922 109.395 89.2442 109.987 89.2442 110.787C89.2442 111.661 89.8959 112.106 90.8736 112.106ZM97.0426 112.757H96.0205V105.588H96.9093L97.0574 106.832C97.5314 105.914 98.4795 105.395 99.5164 105.395C101.486 105.395 102.301 106.566 102.301 108.373V112.757H101.279V108.595C101.279 106.921 100.524 106.329 99.3386 106.329C97.8721 106.329 97.0426 107.395 97.0426 109.01V112.757ZM103.553 108.965C103.553 107.01 104.812 105.395 106.916 105.395C108.16 105.395 109.108 105.973 109.567 107.025L109.671 105.588H110.56V112.535C110.56 114.668 109.197 116.061 107.094 116.061C105.257 116.061 103.968 115.024 103.687 113.291H104.709C104.931 114.446 105.82 115.127 107.108 115.127C108.575 115.127 109.552 114.135 109.552 112.639V110.935C109.064 111.943 108.071 112.535 106.842 112.535C104.798 112.535 103.553 110.921 103.553 108.965ZM104.575 108.95C104.575 110.417 105.479 111.617 106.99 111.617C108.545 111.617 109.464 110.491 109.464 108.95C109.464 107.425 108.575 106.299 107.005 106.299C105.464 106.299 104.575 107.499 104.575 108.95ZM115.403 112.935C113.3 112.935 111.893 111.424 111.893 109.173C111.893 106.936 113.285 105.395 115.329 105.395C117.27 105.395 118.588 106.773 118.588 108.802V109.306H112.885C112.959 111.054 113.878 112.061 115.418 112.061C116.588 112.061 117.344 111.557 117.61 110.609H118.588C118.203 112.12 117.092 112.935 115.403 112.935ZM115.329 106.269C113.981 106.269 113.093 107.158 112.915 108.565H117.566C117.566 107.188 116.677 106.269 115.329 106.269Z" fill="white"/>
<path d="M184.318 114.899V113.444C182.083 113.308 180.61 112.038 180.509 110.058H182.202C182.236 111.141 183.031 111.852 184.318 111.988V107.772L183.708 107.637C181.711 107.18 180.678 106.062 180.678 104.319C180.678 102.389 182.117 101.018 184.318 100.831V99.3585H185.401V100.814C187.45 101.001 188.753 102.253 188.872 104.217H187.23C187.162 103.134 186.502 102.44 185.401 102.287V106.486L186.062 106.638C188.093 107.095 189.075 108.162 189.075 109.855C189.075 111.869 187.636 113.223 185.401 113.427V114.899H184.318ZM184.047 106.164L184.318 106.232V102.287C183.065 102.457 182.303 103.185 182.303 104.268C182.303 105.25 182.862 105.876 184.047 106.164ZM185.723 108.111L185.401 108.043V111.954C186.671 111.784 187.45 111.057 187.45 109.99C187.45 109.008 186.891 108.382 185.723 108.111ZM192.565 102.507H189.992V101.018H194.156V113.257H192.565V102.507ZM197.563 113.46C196.903 113.46 196.344 112.919 196.344 112.275C196.344 111.615 196.903 111.073 197.563 111.073C198.207 111.073 198.765 111.615 198.765 112.275C198.765 112.919 198.207 113.46 197.563 113.46ZM208.607 113.24L200.346 113.257V111.988L204.29 108.585C206.271 106.875 206.83 106.046 206.83 104.742C206.83 103.201 205.949 102.287 204.477 102.287C202.97 102.287 201.988 103.388 201.954 105.131H200.295C200.346 102.507 202.005 100.798 204.493 100.798C206.948 100.798 208.523 102.287 208.523 104.64C208.523 106.384 207.659 107.62 205.492 109.499L202.953 111.7H208.607V113.24ZM209.796 107.146C209.796 103.354 211.759 100.781 214.84 100.781C217.905 100.781 219.868 103.354 219.868 107.146C219.868 110.955 217.989 113.477 214.84 113.477C211.675 113.477 209.796 110.955 209.796 107.146ZM211.438 107.146C211.438 110.159 212.69 111.988 214.84 111.988C216.99 111.988 218.226 110.159 218.226 107.146C218.226 104.099 216.99 102.27 214.84 102.27C212.69 102.27 211.438 104.099 211.438 107.146ZM221.195 107.146C221.195 103.354 223.159 100.781 226.24 100.781C229.304 100.781 231.268 103.354 231.268 107.146C231.268 110.955 229.389 113.477 226.24 113.477C223.074 113.477 221.195 110.955 221.195 107.146ZM222.837 107.146C222.837 110.159 224.09 111.988 226.24 111.988C228.39 111.988 229.626 110.159 229.626 107.146C229.626 104.099 228.39 102.27 226.24 102.27C224.09 102.27 222.837 104.099 222.837 107.146ZM232.594 107.146C232.594 103.354 234.558 100.781 237.639 100.781C240.703 100.781 242.667 103.354 242.667 107.146C242.667 110.955 240.788 113.477 237.639 113.477C234.473 113.477 232.594 110.955 232.594 107.146ZM234.236 107.146C234.236 110.159 235.489 111.988 237.639 111.988C239.789 111.988 241.025 110.159 241.025 107.146C241.025 104.099 239.789 102.27 237.639 102.27C235.489 102.27 234.236 104.099 234.236 107.146ZM248.589 109.499V108.077H262.42V109.499H248.589ZM271.86 114.899V113.444C269.625 113.308 268.152 112.038 268.051 110.058H269.744C269.777 111.141 270.573 111.852 271.86 111.988V107.772L271.25 107.637C269.253 107.18 268.22 106.062 268.22 104.319C268.22 102.389 269.659 101.018 271.86 100.831V99.3585H272.943V100.814C274.992 101.001 276.295 102.253 276.414 104.217H274.771C274.704 103.134 274.044 102.44 272.943 102.287V106.486L273.603 106.638C275.635 107.095 276.617 108.162 276.617 109.855C276.617 111.869 275.178 113.223 272.943 113.427V114.899H271.86ZM271.589 106.164L271.86 106.232V102.287C270.607 102.457 269.845 103.185 269.845 104.268C269.845 105.25 270.404 105.876 271.589 106.164ZM273.265 108.111L272.943 108.043V111.954C274.213 111.784 274.992 111.057 274.992 109.99C274.992 109.008 274.433 108.382 273.265 108.111ZM280.107 102.507H277.533V101.018H281.698V113.257H280.107V102.507ZM285.105 113.46C284.445 113.46 283.886 112.919 283.886 112.275C283.886 111.615 284.445 111.073 285.105 111.073C285.748 111.073 286.307 111.615 286.307 112.275C286.307 112.919 285.748 113.46 285.105 113.46ZM296.149 113.24L287.888 113.257V111.988L291.832 108.585C293.813 106.875 294.372 106.046 294.372 104.742C294.372 103.201 293.491 102.287 292.018 102.287C290.512 102.287 289.53 103.388 289.496 105.131H287.837C287.888 102.507 289.547 100.798 292.035 100.798C294.49 100.798 296.064 102.287 296.064 104.64C296.064 106.384 295.201 107.62 293.034 109.499L290.495 111.7H296.149V113.24ZM299.74 102.507H297.167V101.018H301.331V113.257H299.74V102.507ZM307.279 113.46C304.774 113.46 303.148 111.869 303.148 109.431H304.791C304.791 111.006 305.756 111.971 307.313 111.971C308.972 111.971 310.039 110.87 310.039 109.211C310.039 107.637 309.04 106.469 307.33 106.469C306.297 106.469 305.349 106.96 304.791 107.654L303.385 107.298L304.875 101.018H311.004V102.541H306.077L305.265 105.792C305.908 105.301 306.72 105.047 307.635 105.047C310.123 105.047 311.731 106.79 311.731 109.144C311.731 111.683 309.92 113.46 307.279 113.46ZM312.829 107.146C312.829 103.354 314.793 100.781 317.874 100.781C320.938 100.781 322.902 103.354 322.902 107.146C322.902 110.955 321.023 113.477 317.874 113.477C314.708 113.477 312.829 110.955 312.829 107.146ZM314.471 107.146C314.471 110.159 315.724 111.988 317.874 111.988C320.024 111.988 321.26 110.159 321.26 107.146C321.26 104.099 320.024 102.27 317.874 102.27C315.724 102.27 314.471 104.099 314.471 107.146Z" fill="white"/>
<path d="M22.5438 146.501C19.5812 146.501 17.5666 144.294 17.5666 141.035C17.5666 137.776 19.6108 135.554 22.603 135.554C24.8842 135.554 26.6766 136.932 27.1062 139.035H25.9656C25.5212 137.509 24.2177 136.576 22.5586 136.576C20.233 136.576 18.6776 138.354 18.6776 141.035C18.6776 143.701 20.233 145.479 22.5586 145.479C24.2325 145.479 25.5656 144.575 26.0248 143.153H27.1654C26.6766 145.153 24.825 146.501 22.5438 146.501ZM27.9878 142.753C27.9878 140.561 29.5283 138.976 31.6318 138.976C33.7352 138.976 35.2758 140.561 35.2758 142.753C35.2758 144.931 33.7352 146.516 31.6318 146.516C29.5283 146.516 27.9878 144.931 27.9878 142.753ZM29.0247 142.738C29.0247 144.427 30.0912 145.597 31.6318 145.597C33.1575 145.597 34.2388 144.427 34.2388 142.738C34.2388 141.079 33.1575 139.894 31.6318 139.894C30.0912 139.894 29.0247 141.079 29.0247 142.738ZM37.6363 146.338H36.6142V139.168H37.503L37.6511 140.413C38.1252 139.494 39.0732 138.976 40.1101 138.976C42.0802 138.976 42.8949 140.146 42.8949 141.953V146.338H41.8728V142.175C41.8728 140.502 41.1174 139.909 39.9323 139.909C38.4659 139.909 37.6363 140.976 37.6363 142.59V146.338ZM49.3611 146.338V140.028H45.9541V146.338H44.9321V140.028H43.8359V139.168H44.9321V137.776C44.9321 136.161 45.806 135.539 46.8726 135.539C47.1244 135.539 47.4354 135.554 47.6724 135.599V136.487H47.0503C46.1912 136.487 45.9541 136.932 45.9541 137.776V139.168H50.3832V146.338H49.3611ZM49.8648 137.124C49.45 137.124 49.1537 136.828 49.1537 136.413C49.1537 135.998 49.45 135.687 49.8648 135.687C50.2647 135.687 50.5758 135.998 50.5758 136.413C50.5758 136.828 50.2647 137.124 49.8648 137.124ZM54.9944 146.516C52.9058 146.516 51.6763 144.916 51.6763 142.768C51.6763 140.605 52.9058 138.976 55.0389 138.976C56.2239 138.976 57.1719 139.494 57.6756 140.531V135.539H58.6977V146.338H57.8089L57.7052 144.871C57.2016 145.982 56.1943 146.516 54.9944 146.516ZM55.1722 145.582C56.7424 145.582 57.6608 144.397 57.6608 142.738C57.6608 141.094 56.7424 139.894 55.1722 139.894C53.6168 139.894 52.7132 141.094 52.7132 142.738C52.7132 144.397 53.6168 145.582 55.1722 145.582ZM63.5413 146.516C61.4378 146.516 60.0306 145.005 60.0306 142.753C60.0306 140.516 61.423 138.976 63.4672 138.976C65.4077 138.976 66.7261 140.353 66.7261 142.383V142.886H61.0231C61.0971 144.634 62.0155 145.642 63.5561 145.642C64.7263 145.642 65.4818 145.138 65.7484 144.19H66.7261C66.3409 145.701 65.23 146.516 63.5413 146.516ZM63.4672 139.85C62.1192 139.85 61.2305 140.739 61.0527 142.146H65.704C65.704 140.768 64.8152 139.85 63.4672 139.85ZM69.0861 146.338H68.064V139.168H68.9527L69.1009 140.413C69.5749 139.494 70.5229 138.976 71.5598 138.976C73.5299 138.976 74.3447 140.146 74.3447 141.953V146.338H73.3226V142.175C73.3226 140.502 72.5671 139.909 71.3821 139.909C69.9156 139.909 69.0861 140.976 69.0861 142.59V146.338ZM75.5819 142.768C75.5819 140.516 76.9595 138.976 79.0481 138.976C80.7072 138.976 81.9218 139.939 82.2033 141.42H81.1812C80.9145 140.428 80.0554 139.879 79.0629 139.879C77.6113 139.879 76.5892 140.99 76.5892 142.753C76.5892 144.457 77.5372 145.597 78.9889 145.597C80.0554 145.597 80.9145 145.005 81.196 144.086H82.2329C81.8922 145.553 80.6183 146.516 78.9889 146.516C76.9595 146.516 75.5819 145.02 75.5819 142.768ZM86.4921 146.516C84.3886 146.516 82.9814 145.005 82.9814 142.753C82.9814 140.516 84.3738 138.976 86.418 138.976C88.3585 138.976 89.6769 140.353 89.6769 142.383V142.886H83.9739C84.0479 144.634 84.9664 145.642 86.5069 145.642C87.6771 145.642 88.4326 145.138 88.6992 144.19H89.6769C89.2917 145.701 88.1808 146.516 86.4921 146.516ZM86.418 139.85C85.07 139.85 84.1813 140.739 84.0035 142.146H88.6548C88.6548 140.768 87.766 139.85 86.418 139.85Z" fill="white"/>
<path d="M287.459 143.435C287.459 141.962 288.323 140.777 289.677 140.286C288.526 139.795 287.9 138.83 287.9 137.595C287.9 135.682 289.542 134.378 291.979 134.378C294.383 134.378 296.009 135.682 296.009 137.612C296.009 138.864 295.365 139.829 294.214 140.286C295.585 140.726 296.466 141.945 296.466 143.452C296.466 145.602 294.671 147.041 291.963 147.041C289.237 147.041 287.459 145.602 287.459 143.435ZM289.423 137.696C289.423 138.898 290.422 139.677 291.946 139.677C293.486 139.677 294.451 138.915 294.451 137.73C294.451 136.562 293.486 135.817 291.946 135.817C290.422 135.817 289.423 136.562 289.423 137.696ZM289.085 143.317C289.085 144.688 290.219 145.568 291.963 145.568C293.689 145.568 294.824 144.688 294.824 143.317C294.824 141.962 293.706 141.099 291.946 141.099C290.202 141.099 289.085 141.962 289.085 143.317ZM297.735 140.726C297.735 136.934 299.699 134.361 302.78 134.361C305.844 134.361 307.808 136.934 307.808 140.726C307.808 144.536 305.929 147.058 302.78 147.058C299.614 147.058 297.735 144.536 297.735 140.726ZM299.377 140.726C299.377 143.74 300.63 145.568 302.78 145.568C304.93 145.568 306.166 143.74 306.166 140.726C306.166 137.679 304.93 135.851 302.78 135.851C300.63 135.851 299.377 137.679 299.377 140.726ZM315.195 137.493C315.195 139.304 313.909 140.608 312.097 140.608C310.303 140.608 309.016 139.304 309.016 137.493C309.016 135.665 310.303 134.361 312.097 134.361C313.909 134.361 315.195 135.665 315.195 137.493ZM321.645 134.615L312.351 146.838H310.726L320.02 134.615H321.645ZM313.892 137.493C313.892 136.393 313.164 135.631 312.097 135.631C311.048 135.631 310.32 136.393 310.32 137.493C310.32 138.576 311.048 139.338 312.097 139.338C313.147 139.338 313.892 138.576 313.892 137.493ZM323.389 143.943C323.389 145.754 322.085 147.058 320.291 147.058C318.496 147.058 317.193 145.754 317.193 143.943C317.193 142.115 318.496 140.828 320.291 140.828C322.085 140.828 323.389 142.115 323.389 143.943ZM322.068 143.943C322.068 142.843 321.357 142.081 320.291 142.081C319.241 142.081 318.513 142.843 318.513 143.943C318.513 145.026 319.241 145.788 320.291 145.788C321.341 145.788 322.068 145.026 322.068 143.943Z" fill="#3EDC81"/>
<defs>
<linearGradient id="paint0_linear_1471_2679" x1="170.333" y1="0.308594" x2="170.333" y2="172.999" gradientUnits="userSpaceOnUse">
<stop stop-color="white" stop-opacity="0.4"/>
<stop offset="1" stop-color="white" stop-opacity="0"/>
</linearGradient>
<linearGradient id="paint1_linear_1471_2679" x1="40.9696" y1="146.928" x2="183.456" y2="16.2468" gradientUnits="userSpaceOnUse">
<stop stop-color="#0276DB"/>
<stop offset="1" stop-color="#3EDC81"/>
</linearGradient>
</defs>
</svg>
