<svg width="329" height="116" viewBox="0 0 329 116" fill="none" xmlns="http://www.w3.org/2000/svg">
<path d="M109.333 49.0114L117.597 46.9171L121.05 57.5586L109.333 49.0114ZM128.352 35.2567H113.805L109.333 21.5586L104.862 35.2567H90.3145L102.088 43.7473L97.6163 57.4454L109.39 48.9548L116.635 43.7473L128.352 35.2567Z" fill="#219653"/>
<path d="M143.105 30.9961V48.0586H140.188V30.9961H143.105ZM148.461 30.9961V33.3398H134.879V30.9961H148.461ZM152.422 37.793V48.0586H149.598V35.3789H152.293L152.422 37.793ZM156.301 35.2969L156.277 37.9219C156.105 37.8906 155.918 37.8672 155.715 37.8516C155.52 37.8359 155.324 37.8281 155.129 37.8281C154.645 37.8281 154.219 37.8984 153.852 38.0391C153.484 38.1719 153.176 38.3672 152.926 38.625C152.684 38.875 152.496 39.1797 152.363 39.5391C152.23 39.8984 152.152 40.3008 152.129 40.7461L151.484 40.793C151.484 39.9961 151.562 39.2578 151.719 38.5781C151.875 37.8984 152.109 37.3008 152.422 36.7852C152.742 36.2695 153.141 35.8672 153.617 35.5781C154.102 35.2891 154.66 35.1445 155.293 35.1445C155.465 35.1445 155.648 35.1602 155.844 35.1914C156.047 35.2227 156.199 35.2578 156.301 35.2969ZM165.699 45.0703V35.3789H168.535V48.0586H165.863L165.699 45.0703ZM166.098 42.4336L167.047 42.4102C167.047 43.2617 166.953 44.0469 166.766 44.7656C166.578 45.4766 166.289 46.0977 165.898 46.6289C165.508 47.1523 165.008 47.5625 164.398 47.8594C163.789 48.1484 163.059 48.293 162.207 48.293C161.59 48.293 161.023 48.2031 160.508 48.0234C159.992 47.8438 159.547 47.5664 159.172 47.1914C158.805 46.8164 158.52 46.3281 158.316 45.7266C158.113 45.125 158.012 44.4062 158.012 43.5703V35.3789H160.836V43.5938C160.836 44.0547 160.891 44.4414 161 44.7539C161.109 45.0586 161.258 45.3047 161.445 45.4922C161.633 45.6797 161.852 45.8125 162.102 45.8906C162.352 45.9688 162.617 46.0078 162.898 46.0078C163.703 46.0078 164.336 45.8516 164.797 45.5391C165.266 45.2188 165.598 44.7891 165.793 44.25C165.996 43.7109 166.098 43.1055 166.098 42.4336ZM178.543 44.625C178.543 44.3438 178.473 44.0898 178.332 43.8633C178.191 43.6289 177.922 43.418 177.523 43.2305C177.133 43.043 176.555 42.8711 175.789 42.7148C175.117 42.5664 174.5 42.3906 173.938 42.1875C173.383 41.9766 172.906 41.7227 172.508 41.4258C172.109 41.1289 171.801 40.7773 171.582 40.3711C171.363 39.9648 171.254 39.4961 171.254 38.9648C171.254 38.4492 171.367 37.9609 171.594 37.5C171.82 37.0391 172.145 36.6328 172.566 36.2812C172.988 35.9297 173.5 35.6523 174.102 35.4492C174.711 35.2461 175.391 35.1445 176.141 35.1445C177.203 35.1445 178.113 35.3242 178.871 35.6836C179.637 36.0352 180.223 36.5156 180.629 37.125C181.035 37.7266 181.238 38.4062 181.238 39.1641H178.414C178.414 38.8281 178.328 38.5156 178.156 38.2266C177.992 37.9297 177.742 37.6914 177.406 37.5117C177.07 37.3242 176.648 37.2305 176.141 37.2305C175.656 37.2305 175.254 37.3086 174.934 37.4648C174.621 37.6133 174.387 37.8086 174.23 38.0508C174.082 38.293 174.008 38.5586 174.008 38.8477C174.008 39.0586 174.047 39.25 174.125 39.4219C174.211 39.5859 174.352 39.7383 174.547 39.8789C174.742 40.0117 175.008 40.1367 175.344 40.2539C175.688 40.3711 176.117 40.4844 176.633 40.5938C177.602 40.7969 178.434 41.0586 179.129 41.3789C179.832 41.6914 180.371 42.0977 180.746 42.5977C181.121 43.0898 181.309 43.7148 181.309 44.4727C181.309 45.0352 181.188 45.5508 180.945 46.0195C180.711 46.4805 180.367 46.8828 179.914 47.2266C179.461 47.5625 178.918 47.8242 178.285 48.0117C177.66 48.1992 176.957 48.293 176.176 48.293C175.027 48.293 174.055 48.0898 173.258 47.6836C172.461 47.2695 171.855 46.7422 171.441 46.1016C171.035 45.4531 170.832 44.7812 170.832 44.0859H173.562C173.594 44.6094 173.738 45.0273 173.996 45.3398C174.262 45.6445 174.59 45.8672 174.98 46.0078C175.379 46.1406 175.789 46.207 176.211 46.207C176.719 46.207 177.145 46.1406 177.488 46.0078C177.832 45.8672 178.094 45.6797 178.273 45.4453C178.453 45.2031 178.543 44.9297 178.543 44.625ZM189.594 35.3789V37.4414H182.445V35.3789H189.594ZM184.508 32.2734H187.332V44.5547C187.332 44.9453 187.387 45.2461 187.496 45.457C187.613 45.6602 187.773 45.7969 187.977 45.8672C188.18 45.9375 188.418 45.9727 188.691 45.9727C188.887 45.9727 189.074 45.9609 189.254 45.9375C189.434 45.9141 189.578 45.8906 189.688 45.8672L189.699 48.0234C189.465 48.0938 189.191 48.1562 188.879 48.2109C188.574 48.2656 188.223 48.293 187.824 48.293C187.176 48.293 186.602 48.1797 186.102 47.9531C185.602 47.7188 185.211 47.3398 184.93 46.8164C184.648 46.293 184.508 45.5977 184.508 44.7305V32.2734ZM194.609 37.8164V52.9336H191.785V35.3789H194.387L194.609 37.8164ZM202.871 41.6016V41.8477C202.871 42.7695 202.762 43.625 202.543 44.4141C202.332 45.1953 202.016 45.8789 201.594 46.4648C201.18 47.043 200.668 47.4922 200.059 47.8125C199.449 48.1328 198.746 48.293 197.949 48.293C197.16 48.293 196.469 48.1484 195.875 47.8594C195.289 47.5625 194.793 47.1445 194.387 46.6055C193.98 46.0664 193.652 45.4336 193.402 44.707C193.16 43.9727 192.988 43.168 192.887 42.293V41.3438C192.988 40.4141 193.16 39.5703 193.402 38.8125C193.652 38.0547 193.98 37.4023 194.387 36.8555C194.793 36.3086 195.289 35.8867 195.875 35.5898C196.461 35.293 197.145 35.1445 197.926 35.1445C198.723 35.1445 199.43 35.3008 200.047 35.6133C200.664 35.918 201.184 36.3555 201.605 36.9258C202.027 37.4883 202.344 38.168 202.555 38.9648C202.766 39.7539 202.871 40.6328 202.871 41.6016ZM200.047 41.8477V41.6016C200.047 41.0156 199.992 40.4727 199.883 39.9727C199.773 39.4648 199.602 39.0195 199.367 38.6367C199.133 38.2539 198.832 37.957 198.465 37.7461C198.105 37.5273 197.672 37.418 197.164 37.418C196.664 37.418 196.234 37.5039 195.875 37.6758C195.516 37.8398 195.215 38.0703 194.973 38.3672C194.73 38.6641 194.543 39.0117 194.41 39.4102C194.277 39.8008 194.184 40.2266 194.129 40.6875V42.9609C194.223 43.5234 194.383 44.0391 194.609 44.5078C194.836 44.9766 195.156 45.3516 195.57 45.6328C195.992 45.9062 196.531 46.043 197.188 46.043C197.695 46.043 198.129 45.9336 198.488 45.7148C198.848 45.4961 199.141 45.1953 199.367 44.8125C199.602 44.4219 199.773 43.9727 199.883 43.4648C199.992 42.957 200.047 42.418 200.047 41.8477ZM208.297 35.3789V48.0586H205.461V35.3789H208.297ZM205.273 32.0508C205.273 31.6211 205.414 31.2656 205.695 30.9844C205.984 30.6953 206.383 30.5508 206.891 30.5508C207.391 30.5508 207.785 30.6953 208.074 30.9844C208.363 31.2656 208.508 31.6211 208.508 32.0508C208.508 32.4727 208.363 32.8242 208.074 33.1055C207.785 33.3867 207.391 33.5273 206.891 33.5273C206.383 33.5273 205.984 33.3867 205.695 33.1055C205.414 32.8242 205.273 32.4727 205.273 32.0508ZM214.414 30.0586V48.0586H211.578V30.0586H214.414ZM216.969 41.8594V41.5898C216.969 40.6758 217.102 39.8281 217.367 39.0469C217.633 38.2578 218.016 37.5742 218.516 36.9961C219.023 36.4102 219.641 35.957 220.367 35.6367C221.102 35.3086 221.93 35.1445 222.852 35.1445C223.781 35.1445 224.609 35.3086 225.336 35.6367C226.07 35.957 226.691 36.4102 227.199 36.9961C227.707 37.5742 228.094 38.2578 228.359 39.0469C228.625 39.8281 228.758 40.6758 228.758 41.5898V41.8594C228.758 42.7734 228.625 43.6211 228.359 44.4023C228.094 45.1836 227.707 45.8672 227.199 46.4531C226.691 47.0312 226.074 47.4844 225.348 47.8125C224.621 48.1328 223.797 48.293 222.875 48.293C221.945 48.293 221.113 48.1328 220.379 47.8125C219.652 47.4844 219.035 47.0312 218.527 46.4531C218.02 45.8672 217.633 45.1836 217.367 44.4023C217.102 43.6211 216.969 42.7734 216.969 41.8594ZM219.793 41.5898V41.8594C219.793 42.4297 219.852 42.9688 219.969 43.4766C220.086 43.9844 220.27 44.4297 220.52 44.8125C220.77 45.1953 221.09 45.4961 221.48 45.7148C221.871 45.9336 222.336 46.043 222.875 46.043C223.398 46.043 223.852 45.9336 224.234 45.7148C224.625 45.4961 224.945 45.1953 225.195 44.8125C225.445 44.4297 225.629 43.9844 225.746 43.4766C225.871 42.9688 225.934 42.4297 225.934 41.8594V41.5898C225.934 41.0273 225.871 40.4961 225.746 39.9961C225.629 39.4883 225.441 39.0391 225.184 38.6484C224.934 38.2578 224.613 37.9531 224.223 37.7344C223.84 37.5078 223.383 37.3945 222.852 37.3945C222.32 37.3945 221.859 37.5078 221.469 37.7344C221.086 37.9531 220.77 38.2578 220.52 38.6484C220.27 39.0391 220.086 39.4883 219.969 39.9961C219.852 40.4961 219.793 41.0273 219.793 41.5898ZM236.938 35.3789V37.4414H229.789V35.3789H236.938ZM231.852 32.2734H234.676V44.5547C234.676 44.9453 234.73 45.2461 234.84 45.457C234.957 45.6602 235.117 45.7969 235.32 45.8672C235.523 45.9375 235.762 45.9727 236.035 45.9727C236.23 45.9727 236.418 45.9609 236.598 45.9375C236.777 45.9141 236.922 45.8906 237.031 45.8672L237.043 48.0234C236.809 48.0938 236.535 48.1562 236.223 48.2109C235.918 48.2656 235.566 48.293 235.168 48.293C234.52 48.293 233.945 48.1797 233.445 47.9531C232.945 47.7188 232.555 47.3398 232.273 46.8164C231.992 46.293 231.852 45.5977 231.852 44.7305V32.2734Z" fill="white"/>
<rect width="20" height="20" transform="translate(68.834 74.0586)" fill="#219653"/>
<path d="M78.834 87.7347L81.8757 86.9202L83.1465 91.0586L78.834 87.7347ZM85.834 82.3856H80.4798L78.834 77.0586L77.1882 82.3856H71.834L76.1673 85.6875L74.5215 91.0146L78.8548 87.7127L81.5215 85.6875L85.834 82.3856Z" fill="white"/>
<rect width="20" height="20" transform="translate(90.834 74.0586)" fill="#219653"/>
<path d="M100.834 87.7347L103.876 86.9202L105.146 91.0586L100.834 87.7347ZM107.834 82.3856H102.48L100.834 77.0586L99.1882 82.3856H93.834L98.1673 85.6875L96.5215 91.0146L100.855 87.7127L103.521 85.6875L107.834 82.3856Z" fill="white"/>
<rect width="20" height="20" transform="translate(112.834 74.0586)" fill="#219653"/>
<path d="M122.834 87.7347L125.876 86.9202L127.146 91.0586L122.834 87.7347ZM129.834 82.3856H124.48L122.834 77.0586L121.188 82.3856H115.834L120.167 85.6875L118.521 91.0146L122.855 87.7127L125.521 85.6875L129.834 82.3856Z" fill="white"/>
<rect width="20" height="20" transform="translate(134.834 74.0586)" fill="#219653"/>
<path d="M144.834 87.7347L147.876 86.9202L149.146 91.0586L144.834 87.7347ZM151.834 82.3856H146.48L144.834 77.0586L143.188 82.3856H137.834L142.167 85.6875L140.521 91.0146L144.855 87.7127L147.521 85.6875L151.834 82.3856Z" fill="white"/>
<rect width="20" height="20" transform="translate(156.834 74.0586)" fill="#219653"/>
<path d="M166.834 87.7347L169.876 86.9202L171.146 91.0586L166.834 87.7347ZM173.834 82.3856H168.48L166.834 77.0586L165.188 82.3856H159.834L164.167 85.6875L162.521 91.0146L166.855 87.7127L169.521 85.6875L173.834 82.3856Z" fill="white"/>
<path d="M196.536 89.3096V91.0586H189.742V89.3096H196.536ZM190.366 78.2617V91.0586H188.16V78.2617H190.366ZM195.648 83.6055V85.3281H189.742V83.6055H195.648ZM196.492 78.2617V80.0195H189.742V78.2617H196.492ZM199.744 81.5488L201.555 84.7041L203.4 81.5488H205.729L202.847 86.2158L205.844 91.0586H203.515L201.581 87.7715L199.647 91.0586H197.31L200.298 86.2158L197.424 81.5488H199.744ZM210.889 89.5469C211.234 89.5469 211.545 89.4795 211.82 89.3447C212.102 89.2041 212.327 89.0107 212.497 88.7646C212.673 88.5186 212.77 88.2344 212.787 87.9121H214.782C214.771 88.5273 214.589 89.0869 214.237 89.5908C213.886 90.0947 213.42 90.4961 212.84 90.7949C212.26 91.0879 211.618 91.2344 210.915 91.2344C210.188 91.2344 209.556 91.1113 209.017 90.8652C208.478 90.6133 208.029 90.2676 207.672 89.8281C207.314 89.3887 207.045 88.8818 206.863 88.3076C206.688 87.7334 206.6 87.1182 206.6 86.4619V86.1543C206.6 85.498 206.688 84.8828 206.863 84.3086C207.045 83.7285 207.314 83.2188 207.672 82.7793C208.029 82.3398 208.478 81.9971 209.017 81.751C209.556 81.499 210.186 81.373 210.906 81.373C211.668 81.373 212.336 81.5254 212.91 81.8301C213.484 82.1289 213.936 82.5479 214.264 83.0869C214.598 83.6201 214.771 84.2412 214.782 84.9502H212.787C212.77 84.5986 212.682 84.2822 212.523 84.001C212.371 83.7139 212.154 83.4854 211.873 83.3154C211.598 83.1455 211.267 83.0605 210.88 83.0605C210.452 83.0605 210.098 83.1484 209.816 83.3242C209.535 83.4941 209.315 83.7285 209.157 84.0273C208.999 84.3203 208.885 84.6514 208.814 85.0205C208.75 85.3838 208.718 85.7617 208.718 86.1543V86.4619C208.718 86.8545 208.75 87.2354 208.814 87.6045C208.879 87.9736 208.99 88.3047 209.148 88.5977C209.312 88.8848 209.535 89.1162 209.816 89.292C210.098 89.4619 210.455 89.5469 210.889 89.5469ZM220.601 91.2344C219.897 91.2344 219.262 91.1201 218.693 90.8916C218.131 90.6572 217.65 90.332 217.252 89.916C216.859 89.5 216.558 89.0107 216.347 88.4482C216.136 87.8857 216.03 87.2793 216.03 86.6289V86.2773C216.03 85.5332 216.139 84.8594 216.355 84.2559C216.572 83.6523 216.874 83.1367 217.261 82.709C217.647 82.2754 218.104 81.9443 218.632 81.7158C219.159 81.4873 219.73 81.373 220.346 81.373C221.025 81.373 221.62 81.4873 222.13 81.7158C222.64 81.9443 223.062 82.2666 223.396 82.6826C223.735 83.0928 223.987 83.582 224.151 84.1504C224.321 84.7188 224.406 85.3457 224.406 86.0312V86.9365H217.059V85.416H222.314V85.249C222.303 84.8682 222.227 84.5107 222.086 84.1768C221.951 83.8428 221.743 83.5732 221.462 83.3682C221.181 83.1631 220.806 83.0605 220.337 83.0605C219.985 83.0605 219.672 83.1367 219.396 83.2891C219.127 83.4355 218.901 83.6494 218.72 83.9307C218.538 84.2119 218.397 84.5518 218.298 84.9502C218.204 85.3428 218.157 85.7852 218.157 86.2773V86.6289C218.157 87.0449 218.213 87.4316 218.324 87.7891C218.441 88.1406 218.611 88.4482 218.834 88.7119C219.057 88.9756 219.326 89.1836 219.643 89.3359C219.959 89.4824 220.319 89.5557 220.724 89.5557C221.233 89.5557 221.688 89.4531 222.086 89.248C222.484 89.043 222.83 88.7529 223.123 88.3779L224.239 89.459C224.034 89.7578 223.768 90.0449 223.439 90.3203C223.111 90.5898 222.71 90.8096 222.235 90.9795C221.767 91.1494 221.222 91.2344 220.601 91.2344ZM228.326 77.5586V91.0586H226.199V77.5586H228.326ZM232.914 77.5586V91.0586H230.787V77.5586H232.914ZM239.427 91.2344C238.724 91.2344 238.088 91.1201 237.52 90.8916C236.957 90.6572 236.477 90.332 236.078 89.916C235.686 89.5 235.384 89.0107 235.173 88.4482C234.962 87.8857 234.856 87.2793 234.856 86.6289V86.2773C234.856 85.5332 234.965 84.8594 235.182 84.2559C235.398 83.6523 235.7 83.1367 236.087 82.709C236.474 82.2754 236.931 81.9443 237.458 81.7158C237.985 81.4873 238.557 81.373 239.172 81.373C239.852 81.373 240.446 81.4873 240.956 81.7158C241.466 81.9443 241.888 82.2666 242.222 82.6826C242.562 83.0928 242.813 83.582 242.978 84.1504C243.147 84.7188 243.232 85.3457 243.232 86.0312V86.9365H235.885V85.416H241.141V85.249C241.129 84.8682 241.053 84.5107 240.912 84.1768C240.777 83.8428 240.569 83.5732 240.288 83.3682C240.007 83.1631 239.632 83.0605 239.163 83.0605C238.812 83.0605 238.498 83.1367 238.223 83.2891C237.953 83.4355 237.728 83.6494 237.546 83.9307C237.364 84.2119 237.224 84.5518 237.124 84.9502C237.03 85.3428 236.983 85.7852 236.983 86.2773V86.6289C236.983 87.0449 237.039 87.4316 237.15 87.7891C237.268 88.1406 237.438 88.4482 237.66 88.7119C237.883 88.9756 238.152 89.1836 238.469 89.3359C238.785 89.4824 239.146 89.5557 239.55 89.5557C240.06 89.5557 240.514 89.4531 240.912 89.248C241.311 89.043 241.656 88.7529 241.949 88.3779L243.065 89.459C242.86 89.7578 242.594 90.0449 242.266 90.3203C241.938 90.5898 241.536 90.8096 241.062 90.9795C240.593 91.1494 240.048 91.2344 239.427 91.2344ZM246.985 83.5791V91.0586H244.867V81.5488H246.862L246.985 83.5791ZM246.607 85.9521L245.922 85.9434C245.928 85.2695 246.021 84.6514 246.203 84.0889C246.391 83.5264 246.648 83.043 246.977 82.6387C247.311 82.2344 247.709 81.9238 248.172 81.707C248.635 81.4844 249.15 81.373 249.719 81.373C250.176 81.373 250.589 81.4375 250.958 81.5664C251.333 81.6895 251.652 81.8916 251.916 82.1729C252.186 82.4541 252.391 82.8203 252.531 83.2715C252.672 83.7168 252.742 84.2646 252.742 84.915V91.0586H250.615V84.9062C250.615 84.4492 250.548 84.0889 250.413 83.8252C250.284 83.5557 250.094 83.3652 249.842 83.2539C249.596 83.1367 249.288 83.0781 248.919 83.0781C248.556 83.0781 248.23 83.1543 247.943 83.3066C247.656 83.459 247.413 83.667 247.214 83.9307C247.021 84.1943 246.871 84.499 246.766 84.8447C246.66 85.1904 246.607 85.5596 246.607 85.9521ZM259.264 81.5488V83.0957H253.902V81.5488H259.264ZM255.449 79.2197H257.567V88.4307C257.567 88.7236 257.608 88.9492 257.69 89.1074C257.778 89.2598 257.898 89.3623 258.051 89.415C258.203 89.4678 258.382 89.4941 258.587 89.4941C258.733 89.4941 258.874 89.4854 259.009 89.4678C259.144 89.4502 259.252 89.4326 259.334 89.415L259.343 91.0322C259.167 91.085 258.962 91.1318 258.728 91.1729C258.499 91.2139 258.235 91.2344 257.937 91.2344C257.45 91.2344 257.02 91.1494 256.645 90.9795C256.27 90.8037 255.977 90.5195 255.766 90.127C255.555 89.7344 255.449 89.2129 255.449 88.5625V79.2197Z" fill="white"/>
</svg>
