<svg width="451" height="332" viewBox="0 0 451 332" fill="none" xmlns="http://www.w3.org/2000/svg">
<g clip-path="url(#clip0_2223_2089)">
<path d="M0 26.8191C0 17.4315 0 12.7377 1.82694 9.15216C3.43396 5.9982 5.9982 3.43396 9.15216 1.82694C12.7377 0 17.4315 0 26.819 0H424.181C433.568 0 438.262 0 441.848 1.82694C445.002 3.43396 447.566 5.9982 449.173 9.15216C451 12.7377 451 17.4315 451 26.819V305.181C451 314.568 451 319.262 449.173 322.848C447.566 326.002 445.002 328.566 441.848 330.173C438.262 332 433.569 332 424.181 332H26.8191C17.4315 332 12.7377 332 9.15216 330.173C5.9982 328.566 3.43396 326.002 1.82694 322.848C0 319.262 0 314.569 0 305.181V26.8191Z" fill="url(#paint0_linear_2223_2089)"/>
<path d="M0 26.8191C0 17.4315 0 12.7377 1.82694 9.15216C3.43396 5.9982 5.9982 3.43396 9.15216 1.82694C12.7377 0 17.4315 0 26.819 0H424.181C433.568 0 438.262 0 441.848 1.82694C445.002 3.43396 447.566 5.9982 449.173 9.15216C451 12.7377 451 17.4315 451 26.819V305.181C451 314.568 451 319.262 449.173 322.848C447.566 326.002 445.002 328.566 441.848 330.173C438.262 332 433.569 332 424.181 332H26.8191C17.4315 332 12.7377 332 9.15216 330.173C5.9982 328.566 3.43396 326.002 1.82694 322.848C0 319.262 0 314.569 0 305.181V26.8191Z" fill="url(#paint1_radial_2223_2089)"/>
<g filter="url(#filter0_dddd_2223_2089)">
<path d="M49.3262 149C49.3262 139.615 56.934 132.007 66.3188 132.007H384.68C394.065 132.007 401.673 139.615 401.673 149V183C401.673 192.385 394.065 199.993 384.68 199.993H66.3188C56.934 199.993 49.3262 192.385 49.3262 183V149Z" fill="white"/>
<path d="M99.2426 175.262C94.342 175.262 91.0828 171.741 91.0828 166.412C91.0828 161.107 94.4371 157.515 99.3616 157.515C103.239 157.515 106.213 159.822 106.855 163.343H104.357C103.715 161.107 101.788 159.751 99.2902 159.751C95.8169 159.751 93.5331 162.368 93.5331 166.388C93.5331 170.409 95.8169 173.025 99.2902 173.025C101.812 173.025 103.81 171.669 104.453 169.552H106.927C106.189 172.978 103.12 175.262 99.2426 175.262ZM108.501 169.172C108.501 165.579 111.07 163.058 114.567 163.058C118.04 163.058 120.61 165.579 120.61 169.172C120.61 172.764 118.04 175.285 114.567 175.285C111.07 175.285 108.501 172.764 108.501 169.172ZM110.761 169.172C110.761 171.598 112.307 173.287 114.567 173.287C116.803 173.287 118.373 171.598 118.373 169.172C118.373 166.745 116.803 165.056 114.567 165.056C112.307 165.056 110.761 166.745 110.761 169.172ZM125.179 175H122.942V163.367H124.964L125.202 165.151C125.94 163.819 127.415 163.034 129.056 163.034C132.125 163.034 133.529 164.913 133.529 167.887V175H131.292V168.386C131.292 166.031 130.198 165.08 128.485 165.08C126.392 165.08 125.179 166.578 125.179 168.838V175ZM138.719 175H136.483V163.367H138.505L138.743 165.151C139.481 163.819 140.956 163.034 142.597 163.034C145.666 163.034 147.07 164.913 147.07 167.887V175H144.833V168.386C144.833 166.031 143.739 165.08 142.026 165.08C139.933 165.08 138.719 166.578 138.719 168.838V175ZM155.044 175.285C151.618 175.285 149.263 172.811 149.263 169.195C149.263 165.556 151.571 163.034 154.949 163.034C158.255 163.034 160.42 165.318 160.42 168.767V169.6L151.428 169.624C151.594 172.074 152.879 173.43 155.091 173.43C156.828 173.43 157.97 172.716 158.351 171.384H160.444C159.873 173.882 157.922 175.285 155.044 175.285ZM154.949 164.913C152.998 164.913 151.761 166.079 151.475 168.125H158.184C158.184 166.198 156.923 164.913 154.949 164.913ZM162.014 169.195C162.014 165.556 164.322 163.034 167.724 163.034C170.65 163.034 172.696 164.699 173.1 167.292H170.864C170.483 165.817 169.294 165.032 167.795 165.032C165.678 165.032 164.226 166.65 164.226 169.172C164.226 171.669 165.582 173.287 167.7 173.287C169.294 173.287 170.483 172.455 170.888 171.075H173.124C172.672 173.596 170.507 175.285 167.7 175.285C164.274 175.285 162.014 172.859 162.014 169.195ZM178.623 175H176.387V165.246H174.103V163.367H176.387V159.727H178.623V163.367H180.907V165.246H178.623V175ZM192.417 175H190.18V165.246H187.897V163.367H190.18V159.727H192.417V163.367H194.7V165.246H192.417V175ZM195.687 169.172C195.687 165.579 198.256 163.058 201.753 163.058C205.227 163.058 207.796 165.579 207.796 169.172C207.796 172.764 205.227 175.285 201.753 175.285C198.256 175.285 195.687 172.764 195.687 169.172ZM197.947 169.172C197.947 171.598 199.493 173.287 201.753 173.287C203.99 173.287 205.56 171.598 205.56 169.172C205.56 166.745 203.99 165.056 201.753 165.056C199.493 165.056 197.947 166.745 197.947 169.172ZM223.556 168.862H219.203V175H216.872V157.8H223.556C226.935 157.8 229.099 160.013 229.099 163.319C229.099 166.531 226.911 168.862 223.556 168.862ZM223.152 159.894H219.203V166.769H223.057C225.365 166.769 226.649 165.413 226.649 163.295C226.649 161.131 225.341 159.894 223.152 159.894ZM237.878 163.272V165.318H236.879C234.761 165.318 233.453 166.602 233.453 168.838V175H231.217V163.391H233.31L233.453 165.151C233.929 163.938 235.094 163.129 236.688 163.129C237.093 163.129 237.426 163.177 237.878 163.272ZM238.653 169.172C238.653 165.579 241.222 163.058 244.719 163.058C248.193 163.058 250.762 165.579 250.762 169.172C250.762 172.764 248.193 175.285 244.719 175.285C241.222 175.285 238.653 172.764 238.653 169.172ZM240.913 169.172C240.913 171.598 242.459 173.287 244.719 173.287C246.956 173.287 248.526 171.598 248.526 169.172C248.526 166.745 246.956 165.056 244.719 165.056C242.459 165.056 240.913 166.745 240.913 169.172ZM253.095 180.21V163.367H255.117L255.283 165.46C256.068 163.866 257.638 163.034 259.494 163.034C262.825 163.034 264.894 165.532 264.894 169.1C264.894 172.645 262.944 175.309 259.494 175.309C257.638 175.309 256.092 174.524 255.331 173.097V180.21H253.095ZM255.355 169.195C255.355 171.574 256.734 173.287 259.018 173.287C261.302 173.287 262.658 171.574 262.658 169.195C262.658 166.793 261.302 165.08 259.018 165.08C256.734 165.08 255.355 166.769 255.355 169.195ZM283.047 167.697H276.291V175H273.959V157.8H284.332V159.941H276.291V165.579H283.047V167.697ZM287.726 160.607C286.917 160.607 286.251 159.941 286.251 159.132C286.251 158.3 286.917 157.657 287.726 157.657C288.535 157.657 289.201 158.3 289.201 159.132C289.201 159.941 288.535 160.607 287.726 160.607ZM286.632 175V163.367H288.868V175H286.632ZM298.633 163.272V165.318H297.634C295.516 165.318 294.208 166.602 294.208 168.838V175H291.972V163.391H294.065L294.208 165.151C294.684 163.938 295.849 163.129 297.443 163.129C297.848 163.129 298.181 163.177 298.633 163.272ZM302.824 175H300.588V163.367H302.586L302.8 164.889C303.395 163.795 304.632 163.034 306.273 163.034C308.081 163.034 309.366 163.938 309.961 165.389C310.508 163.938 311.911 163.034 313.719 163.034C316.384 163.034 318.002 164.699 318.002 167.387V175H315.813V167.934C315.813 166.103 314.79 165.056 313.22 165.056C311.531 165.056 310.413 166.245 310.413 168.101V175H308.2V167.911C308.2 166.079 307.201 165.08 305.631 165.08C303.942 165.08 302.824 166.245 302.824 168.101V175Z" fill="#111111"/>
<circle cx="350.696" cy="166" r="14.1605" stroke="#111111" stroke-width="2.12407"/>
<path d="M345.214 165.43L350.877 157.798C351.32 157.201 352.15 157.572 352.15 158.368V164.275C352.15 164.751 352.475 165.137 352.877 165.137H355.631C356.257 165.137 356.59 166.012 356.177 166.569L350.514 174.202C350.071 174.799 349.241 174.427 349.241 173.632V167.725C349.241 167.248 348.916 166.862 348.514 166.862H345.76C345.134 166.862 344.801 165.987 345.214 165.43Z" stroke="#111111" stroke-width="2.12407" stroke-linecap="round" stroke-linejoin="round"/>
</g>
<g opacity="0.7" clip-path="url(#clip1_2223_2089)">
<path d="M35.3984 277.56V277.116C35.5494 276.373 35.7839 275.754 36.1022 275.258C37.1553 273.618 38.4446 272.086 39.9702 270.663C40.891 269.804 41.8233 268.944 42.767 268.082C42.7902 268.061 42.8053 268.033 42.8098 268.001C42.8143 267.97 42.8079 267.938 42.7917 267.911L42.0879 266.747C42.0835 266.74 42.0811 266.731 42.081 266.722C42.0809 266.714 42.083 266.705 42.0872 266.697C42.0914 266.69 42.0974 266.683 42.1048 266.679C42.1121 266.675 42.1205 266.673 42.1289 266.673H46.973C46.9841 266.673 46.995 266.676 47.0049 266.681C47.0148 266.686 47.0232 266.694 47.0296 266.703C47.0361 266.712 47.0402 266.723 47.0418 266.734C47.0433 266.745 47.0422 266.757 47.0386 266.767L45.2702 271.838C45.2664 271.85 45.2592 271.86 45.2498 271.868C45.2404 271.875 45.229 271.88 45.217 271.881C45.205 271.883 45.1928 271.881 45.1819 271.875C45.171 271.87 45.1619 271.862 45.1555 271.851L44.3483 270.505C44.3244 270.466 44.2926 270.458 44.2533 270.484C42.112 271.896 40.2469 273.371 38.6579 274.91C37.8853 275.659 35.7134 278.106 37.649 278.91C37.859 278.996 38.0657 279.083 38.2691 279.172C38.361 279.211 38.3571 279.23 38.2576 279.228C37.0618 279.203 35.6265 278.886 35.3984 277.56Z" fill="white"/>
<path d="M66.8935 274.095V276.788C66.8935 276.843 66.9208 276.871 66.9755 276.871H72.0115C72.0607 276.871 72.087 276.896 72.0902 276.946C72.1285 277.422 72.1181 277.811 72.0591 278.113C71.9327 278.756 71.2881 279.202 70.6254 279.197C69.2999 279.189 68.0697 279.189 66.9345 279.195C66.9236 279.195 66.9132 279.199 66.9055 279.207C66.8978 279.215 66.8935 279.226 66.8935 279.237V285.118C66.8935 285.146 66.8798 285.159 66.8525 285.159H64.2344C64.2279 285.159 64.2216 285.158 64.2156 285.156C64.2096 285.153 64.2042 285.149 64.1996 285.145C64.1951 285.14 64.1914 285.135 64.189 285.129C64.1864 285.123 64.1852 285.116 64.1852 285.11C64.1885 281.446 64.188 277.445 64.1836 273.107C64.1819 272.241 64.8249 271.645 65.6665 271.645C68.5076 271.65 71.2121 271.652 73.7798 271.65C73.8367 271.65 73.8651 271.678 73.8651 271.736V273.929C73.8651 273.984 73.8378 274.012 73.7831 274.012H66.9755C66.9208 274.012 66.8935 274.039 66.8935 274.095Z" fill="white"/>
<path d="M103.348 275.88V271.737C103.348 271.671 103.381 271.64 103.446 271.643C103.735 271.658 104.032 271.658 104.339 271.641C105.237 271.593 105.979 272.037 105.977 273.022C105.972 275.762 105.97 278.371 105.971 280.851C105.972 283.15 104.801 284.831 102.508 285.193C101.668 285.325 100.846 285.331 100.042 285.209C96.4778 284.672 95.9299 281.338 96.3777 278.305C96.7025 276.119 97.8852 274.653 100.162 274.486C101.479 274.39 102.509 274.865 103.254 275.911C103.317 276 103.348 275.989 103.348 275.88ZM103.335 280.077C103.367 278.363 102.787 276.536 100.643 276.929C99.0401 277.221 98.8678 279.492 99.0253 280.848C99.1877 282.255 100.006 283.21 101.543 282.978C102.964 282.762 103.308 281.34 103.335 280.077Z" fill="white"/>
<path d="M125.579 275.865V271.733C125.579 271.669 125.611 271.638 125.675 271.642C126.249 271.67 127.034 271.529 127.536 271.806C128.069 272.101 128.251 272.597 128.249 273.19C128.245 275.718 128.243 278.191 128.243 280.606C128.243 280.886 128.226 281.168 128.194 281.452C127.816 284.654 125.455 285.505 122.659 285.256C120.116 285.029 118.733 283.385 118.55 280.853C118.333 277.861 119.022 274.516 122.711 274.476C123.877 274.464 124.807 274.936 125.5 275.892C125.553 275.964 125.579 275.955 125.579 275.865ZM123.654 276.887C121.261 276.669 121.01 279.492 121.35 281.226C121.598 282.488 122.454 283.157 123.745 282.987C125.7 282.73 125.767 280.149 125.432 278.624C125.197 277.552 124.605 276.973 123.654 276.887Z" fill="white"/>
<path d="M132.63 276.153V285.072C132.63 285.128 132.604 285.155 132.549 285.155H129.974C129.917 285.155 129.888 285.127 129.888 285.069C129.882 281.384 129.881 277.699 129.887 274.016C129.888 273.018 129.819 272.302 130.615 271.823C131.129 271.511 132.045 271.674 132.672 271.636C132.7 271.634 132.728 271.64 132.753 271.654C132.778 271.667 132.799 271.687 132.814 271.712L138.056 280.627C138.13 280.754 138.167 280.744 138.167 280.597V271.687C138.167 271.676 138.171 271.665 138.179 271.658C138.186 271.65 138.197 271.646 138.208 271.646H140.833C140.843 271.646 140.854 271.65 140.861 271.658C140.869 271.665 140.873 271.676 140.873 271.687V285.072C140.873 285.128 140.846 285.155 140.792 285.155H138.111C138.051 285.155 138.006 285.129 137.977 285.078L132.714 276.129C132.659 276.033 132.63 276.041 132.63 276.153Z" fill="white"/>
<path d="M166.097 276.674C166.088 278.684 166.09 280.579 166.105 282.359C166.112 283.167 167.144 282.938 167.613 282.963C167.666 282.965 167.693 282.994 167.693 283.049V284.92C167.693 284.992 167.658 285.031 167.586 285.036C166.548 285.114 165.602 285.096 164.749 284.982C163.729 284.844 163.458 284.01 163.461 283.095C163.473 279.557 163.474 275.773 163.466 271.745C163.466 271.671 163.502 271.636 163.574 271.641C164.152 271.672 164.926 271.527 165.428 271.807C165.864 272.049 166.115 272.468 166.102 272.987C166.09 273.542 166.088 274.062 166.096 274.548C166.096 274.605 166.125 274.632 166.18 274.631H167.578C167.645 274.631 167.682 274.665 167.688 274.732C167.791 275.949 167.291 276.565 166.189 276.581C166.128 276.581 166.097 276.612 166.097 276.674Z" fill="white"/>
<path d="M41.4781 277.197C41.4686 277.199 41.4594 277.202 41.4516 277.208C41.4437 277.213 41.4373 277.221 41.4331 277.229C41.4288 277.238 41.4268 277.247 41.4272 277.257C41.4277 277.266 41.4305 277.275 41.4355 277.284C42.9905 279.921 44.1749 282.633 44.6473 285.602C44.6495 285.619 44.6424 285.63 44.626 285.633C44.6085 285.638 44.597 285.631 44.5916 285.615C43.4449 282.16 41.7914 279.007 39.3587 276.314C39.3494 276.303 39.3433 276.29 39.3409 276.277C39.3386 276.263 39.3401 276.248 39.3454 276.235C39.3508 276.222 39.3596 276.211 39.371 276.203C39.3823 276.195 39.3957 276.19 39.4096 276.189C43.3137 275.962 47.2719 274.827 50.0918 272.163C50.2449 272.018 50.328 272.051 50.3411 272.263C50.3893 273.056 50.4138 273.458 50.4149 273.468C50.4205 273.561 50.404 273.654 50.3666 273.74C50.3292 273.826 50.2721 273.901 50.2001 273.96C47.7887 275.937 44.544 276.884 41.4781 277.197Z" fill="white"/>
<path d="M44.8868 279.23C46.0827 282.562 46.7093 286.196 46.2877 289.735C46.2155 290.339 46.169 290.337 46.1483 289.728C46.0193 285.788 45.0727 281.944 43.3088 278.196C43.2781 278.13 43.2984 278.091 43.3695 278.08C47.2292 277.483 50.6085 275.849 53.2938 273.055C53.3638 272.983 53.3988 272.997 53.3988 273.099V278.035C53.3988 278.36 53.361 278.364 53.2856 278.048L52.6491 275.384C52.647 275.375 52.6425 275.366 52.6359 275.359C52.6294 275.351 52.621 275.346 52.6117 275.343C52.6024 275.34 52.5925 275.339 52.5829 275.341C52.5733 275.343 52.5645 275.348 52.5572 275.355C50.4258 277.175 47.8942 278.42 44.9622 279.091C44.8858 279.109 44.8606 279.155 44.8868 279.23Z" fill="white"/>
<path d="M157.028 277.676C157.058 277.731 157.09 277.732 157.122 277.677C157.805 276.509 158.465 275.38 159.102 274.291C159.328 273.903 159.68 273.702 160.156 273.689C160.941 273.668 161.752 273.665 162.592 273.681C162.597 273.681 162.602 273.682 162.606 273.684C162.61 273.686 162.614 273.69 162.617 273.694C162.619 273.699 162.62 273.703 162.62 273.708C162.62 273.713 162.618 273.718 162.615 273.722L158.771 279.696C158.755 279.723 158.745 279.754 158.745 279.786C158.745 279.818 158.755 279.849 158.771 279.875L162.141 285.095C162.168 285.135 162.157 285.155 162.11 285.155H159.054C159.03 285.155 159.006 285.149 158.984 285.136C158.964 285.123 158.946 285.105 158.935 285.084L157.217 281.972C157.174 281.895 157.131 281.895 157.087 281.972L155.332 285.075C155.302 285.128 155.256 285.155 155.196 285.155H152.153C152.083 285.155 152.066 285.125 152.103 285.066L155.388 279.821C155.401 279.799 155.408 279.773 155.408 279.747C155.408 279.721 155.401 279.695 155.388 279.673L152.307 274.718C152.27 274.659 152.285 274.629 152.354 274.629H155.197C155.266 274.629 155.317 274.659 155.351 274.72L157.028 277.676Z" fill="white"/>
<path d="M90.5786 276.84C89.3794 276.724 88.5412 277.238 88.5445 278.491C88.5489 280.659 88.5499 282.852 88.5478 285.07C88.5478 285.128 88.5188 285.157 88.4609 285.157H85.9313C85.8723 285.157 85.8427 285.126 85.8427 285.065C85.8384 283.275 85.8389 281.373 85.8444 279.358C85.851 276.939 86.4875 275.046 89.048 274.579C89.8879 274.427 90.7268 274.425 91.5644 274.574C93.8003 274.972 94.737 276.606 94.7385 278.738C94.7408 280.979 94.7413 283.088 94.7402 285.064C94.7402 285.121 94.7118 285.151 94.6549 285.153C93.6806 285.19 92.0582 285.359 92.068 283.882C92.0834 281.678 92.0806 279.852 92.0599 278.403C92.0467 277.511 91.4611 276.926 90.5786 276.84Z" fill="white"/>
<path d="M110.255 280.752C110.349 281.859 110.826 282.915 112.073 283.005C112.8 283.056 113.436 282.808 113.979 282.262C114.231 282.009 114.533 281.883 114.886 281.883C115.514 281.881 116.118 281.88 116.699 281.879C116.771 281.879 116.798 281.915 116.779 281.985C116.43 283.33 115.749 284.457 114.433 284.966C113.056 285.5 111.673 285.512 110.285 285.004C107.659 284.042 107.318 280.918 107.618 278.532C107.869 276.547 108.889 275.04 110.907 274.615C112.486 274.282 114.412 274.45 115.579 275.593C116.807 276.797 117.05 278.828 116.953 280.54C116.949 280.605 116.914 280.638 116.85 280.638H110.359C110.283 280.638 110.249 280.676 110.255 280.752ZM110.39 278.735L114.084 278.728C114.097 278.728 114.109 278.723 114.118 278.714C114.127 278.705 114.132 278.693 114.132 278.68V278.647C114.131 278.12 113.931 277.615 113.577 277.242C113.223 276.87 112.743 276.662 112.244 276.663H112.224C111.976 276.663 111.731 276.715 111.503 276.815C111.274 276.915 111.067 277.062 110.892 277.247C110.717 277.432 110.579 277.651 110.485 277.893C110.39 278.134 110.342 278.392 110.342 278.653V278.687C110.342 278.699 110.347 278.712 110.356 278.721C110.365 278.73 110.377 278.735 110.39 278.735Z" fill="white"/>
<path d="M145.42 280.745C145.461 280.949 145.5 281.15 145.535 281.347C145.703 282.273 146.314 282.951 147.272 283.004C148.18 283.056 148.678 282.701 149.331 282.126C149.508 281.97 149.726 281.902 149.954 281.895C150.553 281.881 151.201 281.877 151.896 281.884C151.961 281.885 151.986 281.917 151.968 281.981C151.614 283.303 150.93 284.486 149.623 284.975C146.942 285.976 143.619 285.154 142.936 281.958C142.627 280.502 142.631 279.104 142.947 277.764C143.347 276.077 144.349 275.039 145.953 274.65C147.016 274.392 148.073 274.402 149.124 274.678C151.786 275.377 152.224 278.202 152.151 280.528C152.15 280.558 152.137 280.587 152.116 280.608C152.094 280.629 152.065 280.64 152.036 280.64H145.505C145.434 280.64 145.406 280.675 145.42 280.745ZM145.569 278.744L149.267 278.724C149.278 278.724 149.289 278.72 149.297 278.712C149.305 278.703 149.309 278.693 149.309 278.681V278.65C149.306 278.122 149.105 277.616 148.75 277.245C148.395 276.873 147.914 276.666 147.415 276.669H147.401C147.154 276.67 146.909 276.723 146.681 276.824C146.452 276.925 146.246 277.073 146.071 277.259C145.897 277.444 145.759 277.665 145.666 277.907C145.573 278.149 145.525 278.408 145.527 278.669V278.701C145.527 278.712 145.531 278.723 145.539 278.731C145.547 278.74 145.558 278.744 145.569 278.744Z" fill="white"/>
<path d="M79.6068 283.199C80.7993 283.315 81.6392 282.76 81.6277 281.495C81.6114 279.653 81.6091 277.778 81.6212 275.871C81.6256 275.142 81.9373 274.742 82.5562 274.669C83.0451 274.61 83.587 274.598 84.1818 274.631C84.242 274.633 84.2721 274.665 84.2721 274.727C84.3169 277.658 84.3076 279.934 84.2442 281.555C84.1999 282.667 83.8423 283.952 82.8728 284.524C81.0553 285.599 78.7489 285.634 76.8903 284.482C75.8552 283.841 75.5124 282.463 75.5108 281.273C75.5075 279.125 75.5059 276.941 75.5059 274.722C75.5059 274.661 75.5359 274.631 75.596 274.631H78.0435C78.1036 274.631 78.1337 274.661 78.1337 274.722C78.1305 276.843 78.131 279.126 78.1354 281.573C78.137 282.508 78.6718 283.11 79.6068 283.199Z" fill="white"/>
<path d="M51.3289 283.104C53.0797 282.312 54.638 281.478 56.004 280.601C56.5201 280.271 57.0544 279.856 57.6066 279.356C57.9642 279.031 58.2365 278.703 58.4235 278.37C58.932 277.463 58.3464 276.994 57.5951 276.603C57.4507 276.528 57.459 276.504 57.6197 276.532C58.3726 276.659 59.3651 277.017 59.685 277.724C60.7758 280.129 53.8419 284.389 52.2179 285.375C52.19 285.393 52.169 285.419 52.1588 285.451C52.1486 285.482 52.1497 285.516 52.1622 285.546L52.5837 286.607C52.6176 286.69 52.5909 286.723 52.5034 286.708L48.4385 285.989C48.4258 285.986 48.4138 285.981 48.4034 285.974C48.3931 285.966 48.3848 285.956 48.3792 285.944C48.3736 285.932 48.3708 285.919 48.3711 285.906C48.3714 285.893 48.3748 285.881 48.3811 285.869L50.5776 281.838C50.6202 281.76 50.6579 281.763 50.6907 281.844L51.1746 283.041C51.2042 283.116 51.2556 283.137 51.3289 283.104Z" fill="white"/>
</g>
<g opacity="0.7" clip-path="url(#clip2_2223_2089)">
<path d="M53.855 46.0166H37.4862C37.1843 46.0166 36.9395 46.2504 36.9395 46.5388V49.1498C36.9395 49.4382 37.1843 49.672 37.4862 49.672H53.855C54.1569 49.672 54.4018 49.4382 54.4018 49.1498V46.5388C54.4018 46.2504 54.1569 46.0166 53.855 46.0166Z" fill="white"/>
<path d="M53.8592 50.8413H40.2167C39.9147 50.8413 39.6699 51.0751 39.6699 51.3635V53.9745C39.6699 54.2629 39.9147 54.4966 40.2167 54.4966H53.8592C54.1612 54.4966 54.406 54.2629 54.406 53.9745V51.3635C54.406 51.0751 54.1612 50.8413 53.8592 50.8413Z" fill="white"/>
<path d="M53.8558 55.6626H42.9433C42.6413 55.6626 42.3965 55.8964 42.3965 56.1848V58.7958C42.3965 59.0841 42.6413 59.3179 42.9433 59.3179H53.8558C54.1577 59.3179 54.4025 59.0841 54.4025 58.7958V56.1848C54.4025 55.8964 54.1577 55.6626 53.8558 55.6626Z" fill="white"/>
<path d="M53.8562 60.4873H45.6737C45.3718 60.4873 45.127 60.7211 45.127 61.0095V63.6205C45.127 63.9089 45.3718 64.1426 45.6737 64.1426H53.8562C54.1582 64.1426 54.403 63.9089 54.403 63.6205V61.0095C54.403 60.7211 54.1582 60.4873 53.8562 60.4873Z" fill="white"/>
<path d="M59.3164 64.1684V46.0166H72.5662V50.2346H64.3606V53.7465H70.7141V57.7181H64.3606V64.1684H59.3164Z" fill="white"/>
<path d="M73.3047 64.1684L79.7736 54.8902L73.3047 46.0166H79.5156L82.677 50.7237L85.7266 46.0166H91.3407L85.4417 54.4269L92.5922 64.1684H86.2965L82.5075 58.5897L78.8302 64.1684H73.3008H73.3047Z" fill="white"/>
<path d="M94.4746 64.1684V46.0166H99.5189V64.1684H94.4746Z" fill="white"/>
<path d="M102.938 64.1684V46.0166H116.187V50.2346H107.982V53.7465H114.335V57.7181H107.982V64.1684H102.938Z" fill="white"/>
<path d="M123.74 64.1684V56.9275L116.986 46.0166H122.77L126.474 52.4925L129.951 46.0166H135.565L128.784 56.9018V64.1684H123.74Z" fill="white"/>
<path d="M79.7736 54.8865L73.3047 46.0166H79.5157L82.677 50.7237M85.4417 54.4232L92.5921 64.1647H86.2965L82.5075 58.586" fill="white"/>
<path d="M141.367 45.9897H142.245L143.421 48.8595H143.467L144.643 45.9897H145.521V49.9501H144.832V47.2293H144.795L143.702 49.9385H143.187L142.092 47.2235H142.056V49.9501H141.367V45.9897Z" fill="white"/>
<path d="M137.596 46.5902V45.9888H140.755V46.5902H139.531V49.9492H138.82V46.5902H137.596Z" fill="white"/>
</g>
<g opacity="0.7" clip-path="url(#clip3_2223_2089)">
<path d="M202.946 40.5087H221.835C222.42 40.5087 222.728 40.8015 222.728 41.4027V43.5298C222.728 44.1309 222.436 44.4239 221.835 44.4239H206.225V54.1195H219.342C219.927 54.1195 220.234 54.4122 220.234 55.0135V56.9709C220.234 57.5721 219.942 57.865 219.342 57.865H206.225V67.6068H222.59C223.175 67.6068 223.483 67.8998 223.483 68.5009V70.6435C223.483 71.2446 223.19 71.5376 222.59 71.5376H202.946C202.345 71.5376 202.053 71.2443 202.053 70.6435V41.3873C202.053 40.8015 202.345 40.5087 202.946 40.5087ZM224.899 62.7206C224.899 59.1598 226.608 56.6011 230.01 55.0135C227.347 53.6262 226.013 51.4581 226.008 48.5091C226.008 45.9503 226.931 43.9003 228.763 42.3435C230.596 40.7866 233.012 40 236.014 40C239.001 40 241.418 40.7861 243.235 42.343C245.051 43.8999 245.975 45.9498 245.975 48.5091C245.975 51.4532 244.636 53.6113 241.972 55.014C243.573 55.7538 244.82 56.7865 245.713 58.128C246.606 59.4695 247.053 60.9951 247.053 62.7061C247.053 65.496 246.037 67.7413 244.004 69.4421C241.973 71.1525 239.314 72.0051 236.03 72C232.704 72 230.021 71.147 227.978 69.4412C225.915 67.7457 224.899 65.5106 224.899 62.7206ZM230.949 66.6821C232.227 67.7765 233.905 68.3315 236.014 68.3315C238.093 68.3315 239.756 67.792 241.018 66.7129C242.28 65.6339 242.912 64.2004 242.912 62.4124C242.912 60.7169 242.28 59.3604 241.018 58.3122C239.756 57.2795 238.093 56.7554 236.014 56.7554C233.905 56.7554 232.212 57.2795 230.919 58.3122C229.625 59.3449 228.979 60.7167 228.979 62.4123C228.994 64.1849 229.641 65.6031 230.949 66.6821ZM230.01 48.8323C230.01 50.2813 230.564 51.4373 231.658 52.3005C232.751 53.1638 234.213 53.5953 236.014 53.5953C237.785 53.5953 239.217 53.1637 240.31 52.3005C241.387 51.4373 241.926 50.2813 241.926 48.8323C241.926 47.291 241.388 46.0578 240.31 45.1175C239.231 44.1772 237.801 43.7148 236.014 43.7148C234.213 43.7148 232.751 44.1771 231.658 45.1175C230.565 46.0424 230.01 47.291 230.01 48.8323Z" fill="white"/>
</g>
<g opacity="0.7" clip-path="url(#clip4_2223_2089)">
<path d="M339.146 63.857H342.189V56.9002H349.531V54.2846H342.189V50.7577H350.883V48.1167H339.146V63.857Z" fill="white"/>
<path d="M353.207 50.7577H358.697V63.857H361.739V50.7577H367.229V48.1167H353.207V50.7577Z" fill="white"/>
<path d="M379.267 56.01L373.662 48.1673L373.624 48.1167H371.002V63.857H374.044V53.4239L375.277 55.3224L379.143 60.7983L379.245 60.9418L383.172 55.3434C383.711 54.5841 384.144 53.9386 384.463 53.4239V63.8527H387.506V48.1167H384.884L379.267 56.01Z" fill="white"/>
<path d="M406.094 50.235C404.509 48.674 402.507 47.8809 400.145 47.8809C397.778 47.8809 395.777 48.674 394.192 50.235C392.611 51.8001 391.809 53.7323 391.809 55.9894C391.809 58.2591 392.611 60.2039 394.192 61.7691C395.773 63.33 397.778 64.1231 400.145 64.1231C402.512 64.1231 404.513 63.33 406.094 61.7691C407.675 60.2081 408.478 58.2633 408.478 55.9894C408.478 53.7323 407.675 51.7959 406.094 50.235ZM403.834 59.7863C402.852 60.8325 401.619 61.3599 400.171 61.3599C398.705 61.3599 397.46 60.8283 396.47 59.7863C395.48 58.74 394.974 57.4617 394.974 55.9851C394.974 54.5128 395.476 53.2387 396.47 52.1967C397.46 51.1588 398.705 50.6315 400.171 50.6315C401.619 50.6315 402.852 51.1588 403.838 52.1924C404.823 53.2303 405.32 54.5043 405.32 55.9809C405.316 57.4617 404.815 58.74 403.834 59.7863Z" fill="white"/>
<path d="M305.375 59.2922L316.159 48.585V41.9995L302.061 56.0016L305.375 59.2922Z" fill="white"/>
<path d="M316.157 69.9962V60.8794L311.568 65.4399L316.157 69.9962Z" fill="white"/>
<path d="M316.158 51.3574L306.771 60.6767L310.167 64.0475L316.158 58.099V51.3574Z" fill="white"/>
<path d="M317.928 41.9995V48.585L325.393 55.9974L317.928 63.414V69.9995L332.026 55.9974L317.928 41.9995Z" fill="white"/>
<path d="M411.135 42.5063C409.593 42.5063 408.365 43.696 408.365 45.1768C408.365 46.6914 409.593 47.8768 411.135 47.8768C412.691 47.8768 413.889 46.6872 413.889 45.1768C413.889 43.6918 412.695 42.5063 411.135 42.5063ZM411.152 47.3073C409.941 47.3073 409.053 46.3623 409.053 45.1768C409.053 44.004 409.937 43.0464 411.135 43.0464C412.334 43.0464 413.201 44.0082 413.201 45.1937C413.201 46.3623 412.334 47.3073 411.152 47.3073Z" fill="white"/>
<path d="M411.758 45.2557V45.2219C412.085 45.1249 412.315 44.8971 412.315 44.6018C412.315 44.3402 412.201 44.1293 412.052 44.0154C411.856 43.9014 411.627 43.8213 411.117 43.8213C410.675 43.8213 410.331 43.855 410.084 43.9014V46.5719H410.709V45.4961H411.002C411.347 45.4961 411.512 45.6269 411.559 45.918C411.64 46.226 411.691 46.4707 411.771 46.5677H412.442C412.379 46.4707 412.328 46.3062 412.247 45.9011C412.166 45.5468 412.022 45.3527 411.758 45.2557ZM411.019 45.0574H410.726V44.2938C410.79 44.2769 410.908 44.26 411.07 44.26C411.465 44.26 411.644 44.4246 411.644 44.665C411.644 44.9435 411.364 45.0574 411.019 45.0574Z" fill="white"/>
</g>
<g opacity="0.7">
<mask id="mask0_2223_2089" style="mask-type:luminance" maskUnits="userSpaceOnUse" x="304" y="268" width="109" height="21">
<path d="M412.363 268.429H304.215V288.429H412.363V268.429Z" fill="white"/>
</mask>
<g mask="url(#mask0_2223_2089)">
<path d="M335.819 268.676H339.178L345.658 284.212H345.819L351.738 268.676H355.071V287.958H352.297V274.763H352.137L347.071 287.958H344.297L338.75 274.626H338.59V287.958H335.816V268.676H335.819Z" fill="white"/>
<path d="M356.242 280.795C356.242 276.333 358.989 273.193 362.882 273.193C365.549 273.193 366.989 274.901 367.443 275.644H367.629V273.551H370.429V287.956H367.683V285.918H367.522C367.149 286.47 365.789 288.314 363.016 288.314C359.016 288.314 356.242 285.257 356.242 280.794V280.795ZM367.709 280.767C367.709 277.655 365.842 275.837 363.389 275.837C360.936 275.837 359.095 277.875 359.095 280.767C359.095 283.66 360.855 285.698 363.415 285.698C365.974 285.698 367.709 283.495 367.709 280.767Z" fill="white"/>
<path d="M371.603 273.55H374.562L378.322 284.458H378.509L382.243 273.55H385.256L379.949 287.956H376.909L371.602 273.55H371.603Z" fill="white"/>
<path d="M384.667 280.795C384.667 276.222 387.653 273.193 391.627 273.193C395.973 273.193 398.453 276.498 398.453 280.603V281.678H387.466C387.573 284.185 389.199 285.892 391.76 285.892C393.52 285.892 395.04 285.01 395.599 283.606H398.319C397.599 286.387 395.12 288.315 391.679 288.315C387.492 288.315 384.667 285.12 384.667 280.795ZM395.68 279.445C395.494 277.021 393.787 275.617 391.627 275.617C389.466 275.617 387.733 277.187 387.52 279.445H395.68Z" fill="white"/>
<path d="M399.976 273.551H402.695V275.479H402.883C403.443 274.294 404.883 273.193 406.963 273.193C410.136 273.193 412.082 275.589 412.082 278.702V287.956H409.282V279.252C409.282 277.241 407.922 275.891 406.162 275.891C404.216 275.891 402.775 277.461 402.775 279.555V287.956H399.975V273.551H399.976Z" fill="white"/>
<path d="M318.574 271.246V287.958H328.452V268.663H324.724L318.574 271.246Z" fill="white"/>
<path d="M311.576 274.191V287.957H316.119V272.279L311.576 274.191Z" fill="white"/>
<path d="M304.572 277.136V287.958H309.12V275.219L304.572 277.136Z" fill="white"/>
</g>
</g>
</g>
<path d="M26.8193 0.523438H424.181C428.883 0.523438 432.379 0.523784 435.147 0.75C437.91 0.975721 439.904 1.42437 441.61 2.29395C444.665 3.8507 447.149 6.33455 448.706 9.38965C449.576 11.0963 450.024 13.0898 450.25 15.8525C450.476 18.6213 450.477 22.117 450.477 26.8193V305.181C450.477 309.883 450.476 313.379 450.25 316.147C450.024 318.91 449.576 320.904 448.706 322.61C447.149 325.665 444.665 328.149 441.61 329.706C439.904 330.576 437.91 331.024 435.147 331.25C432.379 331.476 428.883 331.477 424.181 331.477H26.8193C22.1169 331.477 18.6213 331.476 15.8525 331.25C13.0898 331.024 11.0963 330.576 9.38965 329.706C6.33455 328.149 3.8507 325.665 2.29395 322.61C1.42437 320.904 0.975721 318.91 0.75 316.147C0.523785 313.379 0.523438 309.883 0.523438 305.181V26.8193C0.523438 22.1169 0.523784 18.6213 0.75 15.8525C0.975721 13.0898 1.42437 11.0963 2.29395 9.38965C3.8507 6.33455 6.33455 3.8507 9.38965 2.29395C11.0963 1.42437 13.0898 0.975721 15.8525 0.75C18.6213 0.523784 22.117 0.523438 26.8193 0.523438Z" stroke="url(#paint2_linear_2223_2089)" stroke-width="1.04762"/>
<defs>
<filter id="filter0_dddd_2223_2089" x="-58.6738" y="24.0073" width="588.346" height="303.985" filterUnits="userSpaceOnUse" color-interpolation-filters="sRGB">
<feFlood flood-opacity="0" result="BackgroundImageFix"/>
<feColorMatrix in="SourceAlpha" type="matrix" values="0 0 0 0 0 0 0 0 0 0 0 0 0 0 0 0 0 0 127 0" result="hardAlpha"/>
<feOffset dx="10" dy="10"/>
<feGaussianBlur stdDeviation="59"/>
<feColorMatrix type="matrix" values="0 0 0 0 0.243137 0 0 0 0 0.568627 0 0 0 0 0.905882 0 0 0 0.5 0"/>
<feBlend mode="normal" in2="BackgroundImageFix" result="effect1_dropShadow_2223_2089"/>
<feColorMatrix in="SourceAlpha" type="matrix" values="0 0 0 0 0 0 0 0 0 0 0 0 0 0 0 0 0 0 127 0" result="hardAlpha"/>
<feOffset dx="-10" dy="-10"/>
<feGaussianBlur stdDeviation="47"/>
<feColorMatrix type="matrix" values="0 0 0 0 0.337255 0 0 0 0 0.956863 0 0 0 0 0.603922 0 0 0 0.5 0"/>
<feBlend mode="normal" in2="effect1_dropShadow_2223_2089" result="effect2_dropShadow_2223_2089"/>
<feColorMatrix in="SourceAlpha" type="matrix" values="0 0 0 0 0 0 0 0 0 0 0 0 0 0 0 0 0 0 127 0" result="hardAlpha"/>
<feOffset dx="10" dy="-10"/>
<feGaussianBlur stdDeviation="47"/>
<feColorMatrix type="matrix" values="0 0 0 0 0.243137 0 0 0 0 0.862745 0 0 0 0 0.505882 0 0 0 0.5 0"/>
<feBlend mode="normal" in2="effect2_dropShadow_2223_2089" result="effect3_dropShadow_2223_2089"/>
<feColorMatrix in="SourceAlpha" type="matrix" values="0 0 0 0 0 0 0 0 0 0 0 0 0 0 0 0 0 0 127 0" result="hardAlpha"/>
<feOffset dx="-10" dy="10"/>
<feGaussianBlur stdDeviation="47"/>
<feColorMatrix type="matrix" values="0 0 0 0 0.0745098 0 0 0 0 0.576471 0 0 0 0 0.760784 0 0 0 0.5 0"/>
<feBlend mode="normal" in2="effect3_dropShadow_2223_2089" result="effect4_dropShadow_2223_2089"/>
<feBlend mode="normal" in="SourceGraphic" in2="effect4_dropShadow_2223_2089" result="shape"/>
</filter>
<linearGradient id="paint0_linear_2223_2089" x1="54.2387" y1="281.877" x2="216.458" y2="-110.583" gradientUnits="userSpaceOnUse">
<stop stop-color="#0276DB"/>
<stop offset="1" stop-color="#3EDC81"/>
</linearGradient>
<radialGradient id="paint1_radial_2223_2089" cx="0" cy="0" r="1" gradientTransform="matrix(-0.286279 331.76 -450.674 -0.0776315 225.786 0.239881)" gradientUnits="userSpaceOnUse">
<stop stop-color="#161616" stop-opacity="0.6"/>
<stop offset="0.740127" stop-color="#161616" stop-opacity="0.946662"/>
<stop offset="1" stop-color="#161616"/>
</radialGradient>
<linearGradient id="paint2_linear_2223_2089" x1="54.2386" y1="281.877" x2="117.9" y2="2.19498" gradientUnits="userSpaceOnUse">
<stop stop-color="#0276DB"/>
<stop offset="1" stop-color="#3EDC81"/>
</linearGradient>
<clipPath id="clip0_2223_2089">
<path d="M0 26.8191C0 17.4315 0 12.7377 1.82694 9.15216C3.43396 5.9982 5.9982 3.43396 9.15216 1.82694C12.7377 0 17.4315 0 26.819 0H424.181C433.568 0 438.262 0 441.848 1.82694C445.002 3.43396 447.566 5.9982 449.173 9.15216C451 12.7377 451 17.4315 451 26.819V305.181C451 314.568 451 319.262 449.173 322.848C447.566 326.002 445.002 328.566 441.848 330.173C438.262 332 433.569 332 424.181 332H26.8191C17.4315 332 12.7377 332 9.15216 330.173C5.9982 328.566 3.43396 326.002 1.82694 322.848C0 319.262 0 314.569 0 305.181V26.8191Z" fill="white"/>
</clipPath>
<clipPath id="clip1_2223_2089">
<rect width="133" height="24" fill="white" transform="translate(35.0488 266.429)"/>
</clipPath>
<clipPath id="clip2_2223_2089">
<rect width="110.121" height="20.572" fill="white" transform="translate(36.9395 45.7139)"/>
</clipPath>
<clipPath id="clip3_2223_2089">
<rect width="45" height="32" fill="white" transform="translate(202.061 40)"/>
</clipPath>
<clipPath id="clip4_2223_2089">
<rect width="112" height="28" fill="white" transform="translate(302.061 42)"/>
</clipPath>
</defs>
</svg>
