<svg width="21" height="20" viewBox="0 0 21 20" fill="none" xmlns="http://www.w3.org/2000/svg">
<g clip-path="url(#clip0_5540_20252)">
<path d="M10.4199 20C15.9428 20 20.4199 15.5228 20.4199 10C20.4199 4.47715 15.9428 0 10.4199 0C4.89707 0 0.419922 4.47715 0.419922 10C0.419922 15.5228 4.89707 20 10.4199 20Z" fill="#F0F0F0"/>
<path d="M9.98535 9.99934H20.4201C20.4201 9.09676 20.2998 8.22238 20.0756 7.39062H9.98535V9.99934Z" fill="#D80027"/>
<path d="M9.98535 4.78254H18.9524C18.3402 3.78363 17.5575 2.9007 16.645 2.17383H9.98535V4.78254Z" fill="#D80027"/>
<path d="M10.4202 20.0001C12.7736 20.0001 14.9368 19.1866 16.645 17.8262H4.19531C5.90352 19.1866 8.06668 20.0001 10.4202 20.0001Z" fill="#D80027"/>
<path d="M1.88789 15.2181H18.9524C19.4439 14.4162 19.825 13.5396 20.0757 12.6094H0.764648C1.01531 13.5396 1.39645 14.4162 1.88789 15.2181Z" fill="#D80027"/>
<path d="M5.05211 1.56164H5.9634L5.11574 2.17746L5.43953 3.17391L4.59191 2.55809L3.7443 3.17391L4.02398 2.31309C3.27766 2.93477 2.62352 3.66313 2.08445 4.47469H2.37645L1.83687 4.86668C1.75281 5.00691 1.67219 5.14937 1.59492 5.29395L1.85258 6.08695L1.37188 5.7377C1.25238 5.99086 1.14309 6.24973 1.04484 6.51398L1.32871 7.38773H2.37645L1.52879 8.00356L1.85258 9L1.00496 8.38418L0.497227 8.75309C0.446406 9.1616 0.419922 9.57769 0.419922 10H10.4199C10.4199 4.47719 10.4199 3.82609 10.4199 0C8.44445 0 6.60293 0.573047 5.05211 1.56164ZM5.43953 9L4.59191 8.38418L3.7443 9L4.06809 8.00356L3.22043 7.38773H4.26816L4.59191 6.39129L4.91566 7.38773H5.9634L5.11574 8.00356L5.43953 9ZM5.11574 5.09051L5.43953 6.08695L4.59191 5.47113L3.7443 6.08695L4.06809 5.09051L3.22043 4.47469H4.26816L4.59191 3.47824L4.91566 4.47469H5.9634L5.11574 5.09051ZM9.02648 9L8.17887 8.38418L7.33125 9L7.65504 8.00356L6.80738 7.38773H7.85512L8.17887 6.39129L8.50262 7.38773H9.55035L8.7027 8.00356L9.02648 9ZM8.7027 5.09051L9.02648 6.08695L8.17887 5.47113L7.33125 6.08695L7.65504 5.09051L6.80738 4.47469H7.85512L8.17887 3.47824L8.50262 4.47469H9.55035L8.7027 5.09051ZM8.7027 2.17746L9.02648 3.17391L8.17887 2.55809L7.33125 3.17391L7.65504 2.17746L6.80738 1.56164H7.85512L8.17887 0.565195L8.50262 1.56164H9.55035L8.7027 2.17746Z" fill="#0052B4"/>
</g>
<defs>
<clipPath id="clip0_5540_20252">
<rect width="20" height="20" fill="white" transform="translate(0.419922)"/>
</clipPath>
</defs>
</svg>
